M48
;DRILL file {KiCad 4.0.2+e4-6225~38~ubuntu14.04.1-stable} date Fri 29 Jul 2016 12:50:17 AM PDT
;FORMAT={-:-/ absolute / inch / decimal}
FMAT,2
INCH,TZ
T1C0.012
T2C0.030
T3C0.031
T4C0.051
%
G90
G05
M72
T1
X4.2441Y-2.748
X4.2953Y-2.8425
X4.3583Y-2.8465
X4.4213Y-2.8465
X4.4843Y-2.8465
X4.5472Y-2.8465
X4.6102Y-2.8465
X4.622Y-3.
X4.622Y-3.0984
X4.622Y-3.2008
X4.622Y-3.2992
X4.6732Y-2.7126
X4.6732Y-2.8465
X4.7362Y-2.8465
X4.7559Y-3.2598
X4.7992Y-2.8465
X4.8622Y-2.8425
X4.8661Y-3.1535
X4.8661Y-3.2283
X4.8661Y-3.2992
X4.9016Y-3.0394
X4.9528Y-2.7087
X5.0039Y-3.0394
X5.0512Y-2.7087
X5.0551Y-2.9173
X5.1024Y-2.8189
X5.1535Y-3.0433
X5.2008Y-2.7087
X5.2047Y-2.9213
X5.252Y-2.8189
X5.7913Y-3.0669
X5.7953Y-3.4606
X5.7953Y-3.8543
X5.7953Y-4.248
T2
X4.3057Y-3.0427
X4.3057Y-3.0927
X4.3057Y-3.1427
X4.3057Y-3.1927
X4.3057Y-3.2427
X4.3057Y-3.2927
X4.3057Y-3.3427
X4.3057Y-3.3927
X4.3057Y-3.4427
X4.3057Y-3.4927
X4.3557Y-3.0427
X4.3557Y-3.0927
X4.3557Y-3.1427
X4.3557Y-3.1927
X4.3557Y-3.2427
X4.3557Y-3.2927
X4.3557Y-3.3427
X4.3557Y-3.3927
X4.3557Y-3.4427
X4.3557Y-3.4927
T3
X5.0591Y-4.1126
X5.0591Y-4.2126
X5.0591Y-4.3126
T4
X4.6693Y-3.6969
X4.6693Y-3.8937
X4.6693Y-4.0906
X4.6693Y-4.2874
X6.378Y-2.8543
X6.378Y-3.0512
X6.378Y-3.248
X6.378Y-3.4449
X6.378Y-3.6417
X6.378Y-3.8386
X6.378Y-4.0354
X6.378Y-4.2323
T0
M30
