G04 #@! TF.FileFunction,Copper,L1,Top,Signal*
%FSLAX46Y46*%
G04 Gerber Fmt 4.6, Leading zero omitted, Abs format (unit mm)*
G04 Created by KiCad (PCBNEW 4.0.2+e4-6225~38~ubuntu14.04.1-stable) date Fri 29 Jul 2016 12:50:15 AM PDT*
%MOMM*%
G01*
G04 APERTURE LIST*
%ADD10C,0.100000*%
%ADD11R,0.900000X0.500000*%
%ADD12R,1.150000X0.700000*%
%ADD13R,1.550000X4.700000*%
%ADD14R,3.300000X4.200000*%
%ADD15C,2.000000*%
%ADD16R,0.500000X0.900000*%
%ADD17C,1.524000*%
%ADD18R,1.200000X0.800000*%
%ADD19C,1.016000*%
%ADD20R,0.800000X0.750000*%
%ADD21R,0.600000X1.500000*%
%ADD22R,1.198880X1.198880*%
%ADD23C,2.700000*%
%ADD24C,0.600000*%
%ADD25C,0.250000*%
%ADD26C,0.150000*%
%ADD27C,0.200000*%
G04 APERTURE END LIST*
D10*
D11*
X109100000Y-69750000D03*
X109100000Y-71250000D03*
X110700000Y-69750000D03*
X110700000Y-71250000D03*
X112300000Y-69750000D03*
X112300000Y-71250000D03*
X113900000Y-69750000D03*
X113900000Y-71250000D03*
X115500000Y-69750000D03*
X115500000Y-71250000D03*
X117100000Y-69750000D03*
X117100000Y-71250000D03*
D12*
X147175000Y-74365000D03*
X147175000Y-73095000D03*
X147175000Y-75635000D03*
D13*
X152650000Y-75000000D03*
D14*
X150450000Y-75000000D03*
D12*
X147175000Y-76905000D03*
X147175000Y-84365000D03*
X147175000Y-83095000D03*
X147175000Y-85635000D03*
D13*
X152650000Y-85000000D03*
D14*
X150450000Y-85000000D03*
D12*
X147175000Y-86905000D03*
X147175000Y-94365000D03*
X147175000Y-93095000D03*
X147175000Y-95635000D03*
D13*
X152650000Y-95000000D03*
D14*
X150450000Y-95000000D03*
D12*
X147175000Y-96905000D03*
X147175000Y-104365000D03*
X147175000Y-103095000D03*
X147175000Y-105635000D03*
D13*
X152650000Y-105000000D03*
D14*
X150450000Y-105000000D03*
D12*
X147175000Y-106905000D03*
D15*
X162000000Y-107500000D03*
X162000000Y-102500000D03*
X162000000Y-72500000D03*
X162000000Y-77500000D03*
X162000000Y-97500000D03*
X162000000Y-92500000D03*
X162000000Y-87500000D03*
X162000000Y-82500000D03*
D11*
X123500000Y-71250000D03*
X123500000Y-69750000D03*
X121900000Y-71250000D03*
X121900000Y-69750000D03*
X120300000Y-71250000D03*
X120300000Y-69750000D03*
X118700000Y-71250000D03*
X118700000Y-69750000D03*
D16*
X124450000Y-83900000D03*
X125950000Y-83900000D03*
X124450000Y-82100000D03*
X125950000Y-82100000D03*
X124450000Y-80300000D03*
X125950000Y-80300000D03*
X124450000Y-78500000D03*
X125950000Y-78500000D03*
D17*
X128500000Y-107000000D03*
X128500000Y-109540000D03*
X128500000Y-104460000D03*
D18*
X116150000Y-74955000D03*
X116150000Y-76225000D03*
X116150000Y-77495000D03*
X116150000Y-78765000D03*
X116150000Y-80035000D03*
X116150000Y-81305000D03*
X116150000Y-82575000D03*
X116150000Y-83845000D03*
X122450000Y-83845000D03*
X122450000Y-82575000D03*
X122450000Y-81305000D03*
X122450000Y-80035000D03*
X122450000Y-78765000D03*
X122450000Y-77495000D03*
X122450000Y-76225000D03*
X122450000Y-74955000D03*
D15*
X118600000Y-93900000D03*
X118600000Y-98900000D03*
X118600000Y-103900000D03*
X118600000Y-108900000D03*
D19*
X109365000Y-77285000D03*
X110635000Y-77285000D03*
X109365000Y-88715000D03*
X109365000Y-78555000D03*
X110635000Y-78555000D03*
X109365000Y-79825000D03*
X110635000Y-79825000D03*
X109365000Y-81095000D03*
X110635000Y-81095000D03*
X109365000Y-82365000D03*
X110635000Y-82365000D03*
X109365000Y-83635000D03*
X110635000Y-83635000D03*
X109365000Y-84905000D03*
X110635000Y-84905000D03*
X109365000Y-86175000D03*
X110635000Y-86175000D03*
X109365000Y-87445000D03*
X110635000Y-87445000D03*
X110635000Y-88715000D03*
D20*
X132150000Y-109600000D03*
X133650000Y-109600000D03*
X132150000Y-104500000D03*
X133650000Y-104500000D03*
D21*
X125790000Y-75600000D03*
X127060000Y-75600000D03*
X128330000Y-75600000D03*
X129600000Y-75600000D03*
X130870000Y-75600000D03*
X132140000Y-75600000D03*
X133410000Y-75600000D03*
X133410000Y-70200000D03*
X132140000Y-70200000D03*
X130870000Y-70200000D03*
X129600000Y-70200000D03*
X128330000Y-70200000D03*
X127060000Y-70200000D03*
X125790000Y-70200000D03*
D22*
X147149020Y-79100000D03*
X145050980Y-79100000D03*
X147149020Y-89100000D03*
X145050980Y-89100000D03*
X147149020Y-99100000D03*
X145050980Y-99100000D03*
X147149020Y-109100000D03*
X145050980Y-109100000D03*
D16*
X143350000Y-79100000D03*
X141850000Y-79100000D03*
X143350000Y-89100000D03*
X141850000Y-89100000D03*
X143350000Y-99100000D03*
X141850000Y-99100000D03*
X143350000Y-109100000D03*
X141850000Y-109100000D03*
D23*
X169000000Y-109000000D03*
X169000000Y-71000000D03*
X106000000Y-71000000D03*
X106000000Y-109000000D03*
D24*
X107800000Y-69800000D03*
X109100000Y-72200000D03*
X110700000Y-72300000D03*
X112300000Y-72300000D03*
X113900000Y-72300000D03*
X115500000Y-72300000D03*
X117100000Y-72300000D03*
X118700000Y-68900000D03*
X129600000Y-71600000D03*
X147100000Y-77900000D03*
X133400000Y-71600000D03*
X147200000Y-87900000D03*
X132200000Y-74200000D03*
X147200000Y-97900000D03*
X128400000Y-74100000D03*
X147200000Y-107900000D03*
X120800000Y-82800000D03*
X125800000Y-68800000D03*
X117400000Y-83800000D03*
X123500000Y-72200000D03*
X117400000Y-81300000D03*
X121900000Y-72300000D03*
X117400000Y-78700000D03*
X120300000Y-72300000D03*
X117400000Y-76200000D03*
X118700000Y-72300000D03*
X123600000Y-82000000D03*
X130900000Y-77300000D03*
X123600000Y-83800000D03*
X127100000Y-77200000D03*
X132100000Y-68800000D03*
X123600000Y-80100000D03*
X128300000Y-68800000D03*
X124500000Y-77200000D03*
D25*
X107850000Y-69750000D02*
X109100000Y-69750000D01*
X107800000Y-69800000D02*
X107850000Y-69750000D01*
X117100000Y-69750000D02*
X115500000Y-69750000D01*
X115500000Y-69750000D02*
X113900000Y-69750000D01*
X113900000Y-69750000D02*
X112300000Y-69750000D01*
X112300000Y-69750000D02*
X110700000Y-69750000D01*
X110700000Y-69750000D02*
X109100000Y-69750000D01*
D26*
X109100000Y-72200000D02*
X109100000Y-71250000D01*
X110700000Y-72300000D02*
X110700000Y-71250000D01*
X112300000Y-72300000D02*
X112300000Y-71250000D01*
X113900000Y-72300000D02*
X113900000Y-71250000D01*
X115500000Y-72300000D02*
X115500000Y-71250000D01*
X117100000Y-72300000D02*
X117100000Y-71250000D01*
D25*
X118700000Y-68900000D02*
X118700000Y-69750000D01*
X123500000Y-69750000D02*
X121900000Y-69750000D01*
X121900000Y-69750000D02*
X120300000Y-69750000D01*
X120300000Y-69750000D02*
X118700000Y-69750000D01*
X132150000Y-109600000D02*
X128560000Y-109600000D01*
X128560000Y-109600000D02*
X128500000Y-109540000D01*
D26*
X129600000Y-70200000D02*
X129600000Y-71600000D01*
X147200000Y-77600000D02*
X147149020Y-77600000D01*
X147149020Y-77650980D02*
X147200000Y-77600000D01*
X147149020Y-77850980D02*
X147149020Y-77650980D01*
X147100000Y-77900000D02*
X147149020Y-77850980D01*
D25*
X147149020Y-79100000D02*
X147149020Y-77600000D01*
X147149020Y-77600000D02*
X147149020Y-76930980D01*
X147149020Y-76930980D02*
X147175000Y-76905000D01*
D26*
X133410000Y-71590000D02*
X133400000Y-71600000D01*
X133410000Y-70200000D02*
X133410000Y-71590000D01*
X147200000Y-87500000D02*
X147149020Y-87500000D01*
X147149020Y-87550980D02*
X147200000Y-87500000D01*
X147149020Y-87849020D02*
X147149020Y-87550980D01*
X147200000Y-87900000D02*
X147149020Y-87849020D01*
D25*
X147149020Y-89100000D02*
X147149020Y-87500000D01*
X147149020Y-87500000D02*
X147149020Y-86930980D01*
X147149020Y-86930980D02*
X147175000Y-86905000D01*
D26*
X132140000Y-74260000D02*
X132200000Y-74200000D01*
X132140000Y-75600000D02*
X132140000Y-74260000D01*
X147100000Y-97700000D02*
X147149020Y-97700000D01*
X147149020Y-97749020D02*
X147100000Y-97700000D01*
X147149020Y-97849020D02*
X147149020Y-97749020D01*
X147200000Y-97900000D02*
X147149020Y-97849020D01*
D25*
X147149020Y-99100000D02*
X147149020Y-97700000D01*
X147149020Y-97700000D02*
X147149020Y-96930980D01*
X147149020Y-96930980D02*
X147175000Y-96905000D01*
D26*
X128330000Y-74170000D02*
X128400000Y-74100000D01*
X128330000Y-75600000D02*
X128330000Y-74170000D01*
X147200000Y-107600000D02*
X147149020Y-107600000D01*
X147149020Y-107650980D02*
X147200000Y-107600000D01*
X147149020Y-107849020D02*
X147149020Y-107650980D01*
X147200000Y-107900000D02*
X147149020Y-107849020D01*
D25*
X147149020Y-109100000D02*
X147149020Y-107600000D01*
X147149020Y-107600000D02*
X147149020Y-106930980D01*
X147149020Y-106930980D02*
X147175000Y-106905000D01*
X110635000Y-81095000D02*
X113205000Y-81095000D01*
X114845000Y-74955000D02*
X116150000Y-74955000D01*
X113900000Y-75900000D02*
X114845000Y-74955000D01*
X113900000Y-80400000D02*
X113900000Y-75900000D01*
X113205000Y-81095000D02*
X113900000Y-80400000D01*
X110635000Y-82365000D02*
X113335000Y-82365000D01*
X115005000Y-77495000D02*
X116150000Y-77495000D01*
X114400000Y-78100000D02*
X115005000Y-77495000D01*
X114400000Y-81300000D02*
X114400000Y-78100000D01*
X113335000Y-82365000D02*
X114400000Y-81300000D01*
X110635000Y-83635000D02*
X113665000Y-83635000D01*
X115265000Y-80035000D02*
X116150000Y-80035000D01*
X114900000Y-80400000D02*
X115265000Y-80035000D01*
X114900000Y-81800000D02*
X114900000Y-80400000D01*
X114000000Y-82700000D02*
X114900000Y-81800000D01*
X114000000Y-83300000D02*
X114000000Y-82700000D01*
X113665000Y-83635000D02*
X114000000Y-83300000D01*
X116150000Y-82575000D02*
X114925000Y-82575000D01*
X114095000Y-84905000D02*
X110635000Y-84905000D01*
X114500000Y-84500000D02*
X114095000Y-84905000D01*
X114500000Y-83000000D02*
X114500000Y-84500000D01*
X114925000Y-82575000D02*
X114500000Y-83000000D01*
X121300000Y-82300000D02*
X120800000Y-82800000D01*
X125790000Y-68810000D02*
X125790000Y-70200000D01*
X125790000Y-68810000D02*
X125800000Y-68800000D01*
X132150000Y-104500000D02*
X128540000Y-104500000D01*
X128540000Y-104500000D02*
X128500000Y-104460000D01*
X122450000Y-80035000D02*
X121300000Y-80035000D01*
X121300000Y-80035000D02*
X121300000Y-80000000D01*
X122450000Y-77495000D02*
X121300000Y-77495000D01*
X121300000Y-77495000D02*
X121300000Y-77500000D01*
X122450000Y-82575000D02*
X121575000Y-82575000D01*
X121645000Y-74955000D02*
X122450000Y-74955000D01*
X121300000Y-75300000D02*
X121645000Y-74955000D01*
X121300000Y-82300000D02*
X121300000Y-80000000D01*
X121300000Y-80000000D02*
X121300000Y-77500000D01*
X121300000Y-77500000D02*
X121300000Y-75300000D01*
X121575000Y-82575000D02*
X121300000Y-82300000D01*
D26*
X117355000Y-83845000D02*
X117400000Y-83800000D01*
X116150000Y-83845000D02*
X117355000Y-83845000D01*
X123500000Y-72200000D02*
X123500000Y-71250000D01*
X117395000Y-81305000D02*
X117400000Y-81300000D01*
X116150000Y-81305000D02*
X117395000Y-81305000D01*
X121900000Y-72300000D02*
X121900000Y-71250000D01*
X117335000Y-78765000D02*
X117400000Y-78700000D01*
X116150000Y-78765000D02*
X117335000Y-78765000D01*
X120300000Y-72300000D02*
X120300000Y-71250000D01*
X117375000Y-76225000D02*
X117400000Y-76200000D01*
X116150000Y-76225000D02*
X117375000Y-76225000D01*
X118700000Y-72300000D02*
X118700000Y-71250000D01*
X130870000Y-77270000D02*
X130870000Y-75600000D01*
X130900000Y-77300000D02*
X130870000Y-77270000D01*
D25*
X123600000Y-82000000D02*
X123600000Y-81500000D01*
X123700000Y-82100000D02*
X123600000Y-82000000D01*
X124450000Y-82100000D02*
X123700000Y-82100000D01*
X123405000Y-81305000D02*
X122450000Y-81305000D01*
X123600000Y-81500000D02*
X123405000Y-81305000D01*
D26*
X127060000Y-77160000D02*
X127060000Y-75600000D01*
X127100000Y-77200000D02*
X127060000Y-77160000D01*
D25*
X122495000Y-83800000D02*
X123600000Y-83800000D01*
X123700000Y-83900000D02*
X123600000Y-83800000D01*
X123700000Y-83900000D02*
X124450000Y-83900000D01*
X122495000Y-83800000D02*
X122450000Y-83845000D01*
X122505000Y-83900000D02*
X122450000Y-83845000D01*
D26*
X132100000Y-68800000D02*
X132140000Y-68840000D01*
X132140000Y-70200000D02*
X132140000Y-68840000D01*
D25*
X123600000Y-80100000D02*
X123600000Y-79100000D01*
X123800000Y-80300000D02*
X123600000Y-80100000D01*
X124450000Y-80300000D02*
X123800000Y-80300000D01*
X123265000Y-78765000D02*
X122450000Y-78765000D01*
X123600000Y-79100000D02*
X123265000Y-78765000D01*
D26*
X128300000Y-68800000D02*
X128330000Y-68830000D01*
X128330000Y-68830000D02*
X128330000Y-70200000D01*
D25*
X124500000Y-77200000D02*
X124500000Y-76700000D01*
X124450000Y-77250000D02*
X124500000Y-77200000D01*
X124450000Y-78500000D02*
X124450000Y-77250000D01*
X124025000Y-76225000D02*
X122450000Y-76225000D01*
X124500000Y-76700000D02*
X124025000Y-76225000D01*
D26*
X150450000Y-105000000D02*
X152650000Y-105000000D01*
X150450000Y-95000000D02*
X152650000Y-95000000D01*
D25*
X143350000Y-79100000D02*
X145050980Y-79100000D01*
X143350000Y-89100000D02*
X145050980Y-89100000D01*
X143350000Y-99100000D02*
X145050980Y-99100000D01*
X143350000Y-109100000D02*
X145050980Y-109100000D01*
D27*
G36*
X171605000Y-109400000D02*
X170642154Y-109400000D01*
X170669709Y-109333641D01*
X170670289Y-108669274D01*
X170416582Y-108055257D01*
X169947214Y-107585069D01*
X169333641Y-107330291D01*
X168669274Y-107329711D01*
X168055257Y-107583418D01*
X167585069Y-108052786D01*
X167330291Y-108666359D01*
X167329711Y-109330726D01*
X167358334Y-109400000D01*
X148800000Y-109400000D01*
X148800000Y-102761412D01*
X160679772Y-102761412D01*
X160880306Y-103246743D01*
X161251304Y-103618389D01*
X161736284Y-103819770D01*
X162261412Y-103820228D01*
X162746743Y-103619694D01*
X163118389Y-103248696D01*
X163319770Y-102763716D01*
X163320228Y-102238588D01*
X163119694Y-101753257D01*
X162748696Y-101381611D01*
X162263716Y-101180230D01*
X161738588Y-101179772D01*
X161253257Y-101380306D01*
X160881611Y-101751304D01*
X160680230Y-102236284D01*
X160679772Y-102761412D01*
X148800000Y-102761412D01*
X148800000Y-100600000D01*
X171605000Y-100600000D01*
X171605000Y-109400000D01*
X171605000Y-109400000D01*
G37*
X171605000Y-109400000D02*
X170642154Y-109400000D01*
X170669709Y-109333641D01*
X170670289Y-108669274D01*
X170416582Y-108055257D01*
X169947214Y-107585069D01*
X169333641Y-107330291D01*
X168669274Y-107329711D01*
X168055257Y-107583418D01*
X167585069Y-108052786D01*
X167330291Y-108666359D01*
X167329711Y-109330726D01*
X167358334Y-109400000D01*
X148800000Y-109400000D01*
X148800000Y-102761412D01*
X160679772Y-102761412D01*
X160880306Y-103246743D01*
X161251304Y-103618389D01*
X161736284Y-103819770D01*
X162261412Y-103820228D01*
X162746743Y-103619694D01*
X163118389Y-103248696D01*
X163319770Y-102763716D01*
X163320228Y-102238588D01*
X163119694Y-101753257D01*
X162748696Y-101381611D01*
X162263716Y-101180230D01*
X161738588Y-101179772D01*
X161253257Y-101380306D01*
X160881611Y-101751304D01*
X160680230Y-102236284D01*
X160679772Y-102761412D01*
X148800000Y-102761412D01*
X148800000Y-100600000D01*
X171605000Y-100600000D01*
X171605000Y-109400000D01*
G36*
X171605000Y-99400000D02*
X148800000Y-99400000D01*
X148800000Y-92761412D01*
X160679772Y-92761412D01*
X160880306Y-93246743D01*
X161251304Y-93618389D01*
X161736284Y-93819770D01*
X162261412Y-93820228D01*
X162746743Y-93619694D01*
X163118389Y-93248696D01*
X163319770Y-92763716D01*
X163320228Y-92238588D01*
X163119694Y-91753257D01*
X162748696Y-91381611D01*
X162263716Y-91180230D01*
X161738588Y-91179772D01*
X161253257Y-91380306D01*
X160881611Y-91751304D01*
X160680230Y-92236284D01*
X160679772Y-92761412D01*
X148800000Y-92761412D01*
X148800000Y-90600000D01*
X171605000Y-90600000D01*
X171605000Y-99400000D01*
X171605000Y-99400000D01*
G37*
X171605000Y-99400000D02*
X148800000Y-99400000D01*
X148800000Y-92761412D01*
X160679772Y-92761412D01*
X160880306Y-93246743D01*
X161251304Y-93618389D01*
X161736284Y-93819770D01*
X162261412Y-93820228D01*
X162746743Y-93619694D01*
X163118389Y-93248696D01*
X163319770Y-92763716D01*
X163320228Y-92238588D01*
X163119694Y-91753257D01*
X162748696Y-91381611D01*
X162263716Y-91180230D01*
X161738588Y-91179772D01*
X161253257Y-91380306D01*
X160881611Y-91751304D01*
X160680230Y-92236284D01*
X160679772Y-92761412D01*
X148800000Y-92761412D01*
X148800000Y-90600000D01*
X171605000Y-90600000D01*
X171605000Y-99400000D01*
G36*
X171605000Y-89400000D02*
X148800000Y-89400000D01*
X148800000Y-82761412D01*
X160679772Y-82761412D01*
X160880306Y-83246743D01*
X161251304Y-83618389D01*
X161736284Y-83819770D01*
X162261412Y-83820228D01*
X162746743Y-83619694D01*
X163118389Y-83248696D01*
X163319770Y-82763716D01*
X163320228Y-82238588D01*
X163119694Y-81753257D01*
X162748696Y-81381611D01*
X162263716Y-81180230D01*
X161738588Y-81179772D01*
X161253257Y-81380306D01*
X160881611Y-81751304D01*
X160680230Y-82236284D01*
X160679772Y-82761412D01*
X148800000Y-82761412D01*
X148800000Y-80600000D01*
X171605000Y-80600000D01*
X171605000Y-89400000D01*
X171605000Y-89400000D01*
G37*
X171605000Y-89400000D02*
X148800000Y-89400000D01*
X148800000Y-82761412D01*
X160679772Y-82761412D01*
X160880306Y-83246743D01*
X161251304Y-83618389D01*
X161736284Y-83819770D01*
X162261412Y-83820228D01*
X162746743Y-83619694D01*
X163118389Y-83248696D01*
X163319770Y-82763716D01*
X163320228Y-82238588D01*
X163119694Y-81753257D01*
X162748696Y-81381611D01*
X162263716Y-81180230D01*
X161738588Y-81179772D01*
X161253257Y-81380306D01*
X160881611Y-81751304D01*
X160680230Y-82236284D01*
X160679772Y-82761412D01*
X148800000Y-82761412D01*
X148800000Y-80600000D01*
X171605000Y-80600000D01*
X171605000Y-89400000D01*
G36*
X167330291Y-70666359D02*
X167329711Y-71330726D01*
X167583418Y-71944743D01*
X168052786Y-72414931D01*
X168666359Y-72669709D01*
X169330726Y-72670289D01*
X169944743Y-72416582D01*
X170414931Y-71947214D01*
X170669709Y-71333641D01*
X170670289Y-70669274D01*
X170641666Y-70600000D01*
X171605000Y-70600000D01*
X171605000Y-79400000D01*
X148800000Y-79400000D01*
X148800000Y-72761412D01*
X160679772Y-72761412D01*
X160880306Y-73246743D01*
X161251304Y-73618389D01*
X161736284Y-73819770D01*
X162261412Y-73820228D01*
X162746743Y-73619694D01*
X163118389Y-73248696D01*
X163319770Y-72763716D01*
X163320228Y-72238588D01*
X163119694Y-71753257D01*
X162748696Y-71381611D01*
X162263716Y-71180230D01*
X161738588Y-71179772D01*
X161253257Y-71380306D01*
X160881611Y-71751304D01*
X160680230Y-72236284D01*
X160679772Y-72761412D01*
X148800000Y-72761412D01*
X148800000Y-70600000D01*
X167357846Y-70600000D01*
X167330291Y-70666359D01*
X167330291Y-70666359D01*
G37*
X167330291Y-70666359D02*
X167329711Y-71330726D01*
X167583418Y-71944743D01*
X168052786Y-72414931D01*
X168666359Y-72669709D01*
X169330726Y-72670289D01*
X169944743Y-72416582D01*
X170414931Y-71947214D01*
X170669709Y-71333641D01*
X170670289Y-70669274D01*
X170641666Y-70600000D01*
X171605000Y-70600000D01*
X171605000Y-79400000D01*
X148800000Y-79400000D01*
X148800000Y-72761412D01*
X160679772Y-72761412D01*
X160880306Y-73246743D01*
X161251304Y-73618389D01*
X161736284Y-73819770D01*
X162261412Y-73820228D01*
X162746743Y-73619694D01*
X163118389Y-73248696D01*
X163319770Y-72763716D01*
X163320228Y-72238588D01*
X163119694Y-71753257D01*
X162748696Y-71381611D01*
X162263716Y-71180230D01*
X161738588Y-71179772D01*
X161253257Y-71380306D01*
X160881611Y-71751304D01*
X160680230Y-72236284D01*
X160679772Y-72761412D01*
X148800000Y-72761412D01*
X148800000Y-70600000D01*
X167357846Y-70600000D01*
X167330291Y-70666359D01*
G36*
X118174696Y-68548339D02*
X118080107Y-68776133D01*
X118079892Y-69022785D01*
X118150034Y-69192541D01*
X118131415Y-69196044D01*
X118022502Y-69266128D01*
X117949436Y-69373063D01*
X117923731Y-69500000D01*
X117923731Y-70000000D01*
X117946044Y-70118585D01*
X118016128Y-70227498D01*
X118123063Y-70300564D01*
X118250000Y-70326269D01*
X119150000Y-70326269D01*
X119268585Y-70303956D01*
X119377498Y-70233872D01*
X119404058Y-70195000D01*
X119595216Y-70195000D01*
X119616128Y-70227498D01*
X119723063Y-70300564D01*
X119850000Y-70326269D01*
X120750000Y-70326269D01*
X120868585Y-70303956D01*
X120977498Y-70233872D01*
X121004058Y-70195000D01*
X121195216Y-70195000D01*
X121216128Y-70227498D01*
X121323063Y-70300564D01*
X121450000Y-70326269D01*
X122350000Y-70326269D01*
X122468585Y-70303956D01*
X122577498Y-70233872D01*
X122604058Y-70195000D01*
X122795216Y-70195000D01*
X122816128Y-70227498D01*
X122923063Y-70300564D01*
X123050000Y-70326269D01*
X123950000Y-70326269D01*
X124068585Y-70303956D01*
X124177498Y-70233872D01*
X124250564Y-70126937D01*
X124276269Y-70000000D01*
X124276269Y-69500000D01*
X124253956Y-69381415D01*
X124183872Y-69272502D01*
X124076937Y-69199436D01*
X123950000Y-69173731D01*
X123050000Y-69173731D01*
X122931415Y-69196044D01*
X122822502Y-69266128D01*
X122795942Y-69305000D01*
X122604784Y-69305000D01*
X122583872Y-69272502D01*
X122476937Y-69199436D01*
X122350000Y-69173731D01*
X121450000Y-69173731D01*
X121331415Y-69196044D01*
X121222502Y-69266128D01*
X121195942Y-69305000D01*
X121004784Y-69305000D01*
X120983872Y-69272502D01*
X120876937Y-69199436D01*
X120750000Y-69173731D01*
X119850000Y-69173731D01*
X119731415Y-69196044D01*
X119622502Y-69266128D01*
X119595942Y-69305000D01*
X119404784Y-69305000D01*
X119383872Y-69272502D01*
X119276937Y-69199436D01*
X119249313Y-69193842D01*
X119319893Y-69023867D01*
X119320108Y-68777215D01*
X119225917Y-68549257D01*
X119071930Y-68395000D01*
X125328128Y-68395000D01*
X125274696Y-68448339D01*
X125180107Y-68676133D01*
X125179892Y-68922785D01*
X125274083Y-69150743D01*
X125309295Y-69186017D01*
X125262502Y-69216128D01*
X125189436Y-69323063D01*
X125163731Y-69450000D01*
X125163731Y-70950000D01*
X125186044Y-71068585D01*
X125256128Y-71177498D01*
X125363063Y-71250564D01*
X125490000Y-71276269D01*
X126090000Y-71276269D01*
X126208585Y-71253956D01*
X126317498Y-71183872D01*
X126390564Y-71076937D01*
X126416269Y-70950000D01*
X126416269Y-69450000D01*
X126393956Y-69331415D01*
X126323872Y-69222502D01*
X126282593Y-69194297D01*
X126325304Y-69151661D01*
X126419893Y-68923867D01*
X126420108Y-68677215D01*
X126325917Y-68449257D01*
X126271755Y-68395000D01*
X127828128Y-68395000D01*
X127774696Y-68448339D01*
X127680107Y-68676133D01*
X127679892Y-68922785D01*
X127774083Y-69150743D01*
X127824940Y-69201689D01*
X127802502Y-69216128D01*
X127729436Y-69323063D01*
X127703731Y-69450000D01*
X127703731Y-70950000D01*
X127726044Y-71068585D01*
X127796128Y-71177498D01*
X127903063Y-71250564D01*
X128030000Y-71276269D01*
X128630000Y-71276269D01*
X128748585Y-71253956D01*
X128857498Y-71183872D01*
X128930564Y-71076937D01*
X128956269Y-70950000D01*
X128956269Y-69450000D01*
X128973731Y-69450000D01*
X128973731Y-70950000D01*
X128996044Y-71068585D01*
X129066128Y-71177498D01*
X129113343Y-71209759D01*
X129074696Y-71248339D01*
X128980107Y-71476133D01*
X128979892Y-71722785D01*
X129074083Y-71950743D01*
X129248339Y-72125304D01*
X129476133Y-72219893D01*
X129722785Y-72220108D01*
X129950743Y-72125917D01*
X130125304Y-71951661D01*
X130219893Y-71723867D01*
X130219893Y-71722785D01*
X132779892Y-71722785D01*
X132874083Y-71950743D01*
X133048339Y-72125304D01*
X133276133Y-72219893D01*
X133522785Y-72220108D01*
X133750743Y-72125917D01*
X133925304Y-71951661D01*
X134019893Y-71723867D01*
X134020108Y-71477215D01*
X133925917Y-71249257D01*
X133890705Y-71213983D01*
X133937498Y-71183872D01*
X134010564Y-71076937D01*
X134036269Y-70950000D01*
X134036269Y-69450000D01*
X134013956Y-69331415D01*
X133943872Y-69222502D01*
X133836937Y-69149436D01*
X133710000Y-69123731D01*
X133110000Y-69123731D01*
X132991415Y-69146044D01*
X132882502Y-69216128D01*
X132809436Y-69323063D01*
X132783731Y-69450000D01*
X132783731Y-70950000D01*
X132806044Y-71068585D01*
X132876128Y-71177498D01*
X132917407Y-71205703D01*
X132874696Y-71248339D01*
X132780107Y-71476133D01*
X132779892Y-71722785D01*
X130219893Y-71722785D01*
X130220108Y-71477215D01*
X130125917Y-71249257D01*
X130086793Y-71210065D01*
X130127498Y-71183872D01*
X130200564Y-71076937D01*
X130226269Y-70950000D01*
X130226269Y-69450000D01*
X130203956Y-69331415D01*
X130133872Y-69222502D01*
X130026937Y-69149436D01*
X129900000Y-69123731D01*
X129300000Y-69123731D01*
X129181415Y-69146044D01*
X129072502Y-69216128D01*
X128999436Y-69323063D01*
X128973731Y-69450000D01*
X128956269Y-69450000D01*
X128933956Y-69331415D01*
X128863872Y-69222502D01*
X128798847Y-69178072D01*
X128825304Y-69151661D01*
X128919893Y-68923867D01*
X128920108Y-68677215D01*
X128825917Y-68449257D01*
X128771755Y-68395000D01*
X131628128Y-68395000D01*
X131574696Y-68448339D01*
X131480107Y-68676133D01*
X131479892Y-68922785D01*
X131574083Y-69150743D01*
X131628851Y-69205607D01*
X131612502Y-69216128D01*
X131539436Y-69323063D01*
X131513731Y-69450000D01*
X131513731Y-70950000D01*
X131536044Y-71068585D01*
X131606128Y-71177498D01*
X131713063Y-71250564D01*
X131840000Y-71276269D01*
X132440000Y-71276269D01*
X132558585Y-71253956D01*
X132667498Y-71183872D01*
X132740564Y-71076937D01*
X132766269Y-70950000D01*
X132766269Y-69450000D01*
X132743956Y-69331415D01*
X132673872Y-69222502D01*
X132602910Y-69174016D01*
X132625304Y-69151661D01*
X132719893Y-68923867D01*
X132720108Y-68677215D01*
X132625917Y-68449257D01*
X132571755Y-68395000D01*
X147800000Y-68395000D01*
X147800000Y-76238856D01*
X147750000Y-76228731D01*
X146600000Y-76228731D01*
X146481415Y-76251044D01*
X146372502Y-76321128D01*
X146299436Y-76428063D01*
X146273731Y-76555000D01*
X146273731Y-77255000D01*
X146296044Y-77373585D01*
X146366128Y-77482498D01*
X146473063Y-77555564D01*
X146564045Y-77573988D01*
X146480107Y-77776133D01*
X146479892Y-78022785D01*
X146543005Y-78175528D01*
X146430995Y-78196604D01*
X146322082Y-78266688D01*
X146249016Y-78373623D01*
X146223311Y-78500560D01*
X146223311Y-79699440D01*
X146245624Y-79818025D01*
X146315708Y-79926938D01*
X146422643Y-80000004D01*
X146549580Y-80025709D01*
X147748460Y-80025709D01*
X147800000Y-80016011D01*
X147800000Y-86238856D01*
X147750000Y-86228731D01*
X146600000Y-86228731D01*
X146481415Y-86251044D01*
X146372502Y-86321128D01*
X146299436Y-86428063D01*
X146273731Y-86555000D01*
X146273731Y-87255000D01*
X146296044Y-87373585D01*
X146366128Y-87482498D01*
X146473063Y-87555564D01*
X146600000Y-87581269D01*
X146661022Y-87581269D01*
X146580107Y-87776133D01*
X146579892Y-88022785D01*
X146642493Y-88174291D01*
X146549580Y-88174291D01*
X146430995Y-88196604D01*
X146322082Y-88266688D01*
X146249016Y-88373623D01*
X146223311Y-88500560D01*
X146223311Y-89699440D01*
X146245624Y-89818025D01*
X146315708Y-89926938D01*
X146422643Y-90000004D01*
X146549580Y-90025709D01*
X147748460Y-90025709D01*
X147800000Y-90016011D01*
X147800000Y-96238856D01*
X147750000Y-96228731D01*
X146600000Y-96228731D01*
X146481415Y-96251044D01*
X146372502Y-96321128D01*
X146299436Y-96428063D01*
X146273731Y-96555000D01*
X146273731Y-97255000D01*
X146296044Y-97373585D01*
X146366128Y-97482498D01*
X146473063Y-97555564D01*
X146600000Y-97581269D01*
X146661022Y-97581269D01*
X146580107Y-97776133D01*
X146579892Y-98022785D01*
X146642493Y-98174291D01*
X146549580Y-98174291D01*
X146430995Y-98196604D01*
X146322082Y-98266688D01*
X146249016Y-98373623D01*
X146223311Y-98500560D01*
X146223311Y-99699440D01*
X146245624Y-99818025D01*
X146315708Y-99926938D01*
X146422643Y-100000004D01*
X146549580Y-100025709D01*
X147748460Y-100025709D01*
X147800000Y-100016011D01*
X147800000Y-106238856D01*
X147750000Y-106228731D01*
X146600000Y-106228731D01*
X146481415Y-106251044D01*
X146372502Y-106321128D01*
X146299436Y-106428063D01*
X146273731Y-106555000D01*
X146273731Y-107255000D01*
X146296044Y-107373585D01*
X146366128Y-107482498D01*
X146473063Y-107555564D01*
X146600000Y-107581269D01*
X146661022Y-107581269D01*
X146580107Y-107776133D01*
X146579892Y-108022785D01*
X146642493Y-108174291D01*
X146549580Y-108174291D01*
X146430995Y-108196604D01*
X146322082Y-108266688D01*
X146249016Y-108373623D01*
X146223311Y-108500560D01*
X146223311Y-109699440D01*
X146245624Y-109818025D01*
X146315708Y-109926938D01*
X146422643Y-110000004D01*
X146549580Y-110025709D01*
X147748460Y-110025709D01*
X147800000Y-110016011D01*
X147800000Y-111605000D01*
X105038903Y-111605000D01*
X104388755Y-111475677D01*
X103870565Y-111129435D01*
X103524323Y-110611245D01*
X103395000Y-109961096D01*
X103395000Y-109330726D01*
X104329711Y-109330726D01*
X104583418Y-109944743D01*
X105052786Y-110414931D01*
X105666359Y-110669709D01*
X106330726Y-110670289D01*
X106944743Y-110416582D01*
X107414931Y-109947214D01*
X107669709Y-109333641D01*
X107669859Y-109161412D01*
X117279772Y-109161412D01*
X117480306Y-109646743D01*
X117851304Y-110018389D01*
X118336284Y-110219770D01*
X118861412Y-110220228D01*
X119346743Y-110019694D01*
X119612621Y-109754279D01*
X127417812Y-109754279D01*
X127582190Y-110152103D01*
X127886296Y-110456740D01*
X128283833Y-110621812D01*
X128714279Y-110622188D01*
X129112103Y-110457810D01*
X129416740Y-110153704D01*
X129461878Y-110045000D01*
X131436902Y-110045000D01*
X131446044Y-110093585D01*
X131516128Y-110202498D01*
X131623063Y-110275564D01*
X131750000Y-110301269D01*
X132550000Y-110301269D01*
X132668585Y-110278956D01*
X132777498Y-110208872D01*
X132850564Y-110101937D01*
X132876269Y-109975000D01*
X132876269Y-109225000D01*
X132853956Y-109106415D01*
X132783872Y-108997502D01*
X132676937Y-108924436D01*
X132550000Y-108898731D01*
X131750000Y-108898731D01*
X131631415Y-108921044D01*
X131522502Y-108991128D01*
X131449436Y-109098063D01*
X131437906Y-109155000D01*
X129511647Y-109155000D01*
X129417810Y-108927897D01*
X129140398Y-108650000D01*
X142773731Y-108650000D01*
X142773731Y-109550000D01*
X142796044Y-109668585D01*
X142866128Y-109777498D01*
X142973063Y-109850564D01*
X143100000Y-109876269D01*
X143600000Y-109876269D01*
X143718585Y-109853956D01*
X143827498Y-109783872D01*
X143900564Y-109676937D01*
X143926269Y-109550000D01*
X143926269Y-109545000D01*
X144125271Y-109545000D01*
X144125271Y-109699440D01*
X144147584Y-109818025D01*
X144217668Y-109926938D01*
X144324603Y-110000004D01*
X144451540Y-110025709D01*
X145650420Y-110025709D01*
X145769005Y-110003396D01*
X145877918Y-109933312D01*
X145950984Y-109826377D01*
X145976689Y-109699440D01*
X145976689Y-108500560D01*
X145954376Y-108381975D01*
X145884292Y-108273062D01*
X145777357Y-108199996D01*
X145650420Y-108174291D01*
X144451540Y-108174291D01*
X144332955Y-108196604D01*
X144224042Y-108266688D01*
X144150976Y-108373623D01*
X144125271Y-108500560D01*
X144125271Y-108655000D01*
X143926269Y-108655000D01*
X143926269Y-108650000D01*
X143903956Y-108531415D01*
X143833872Y-108422502D01*
X143726937Y-108349436D01*
X143600000Y-108323731D01*
X143100000Y-108323731D01*
X142981415Y-108346044D01*
X142872502Y-108416128D01*
X142799436Y-108523063D01*
X142773731Y-108650000D01*
X129140398Y-108650000D01*
X129113704Y-108623260D01*
X128716167Y-108458188D01*
X128285721Y-108457812D01*
X127887897Y-108622190D01*
X127583260Y-108926296D01*
X127418188Y-109323833D01*
X127417812Y-109754279D01*
X119612621Y-109754279D01*
X119718389Y-109648696D01*
X119919770Y-109163716D01*
X119920228Y-108638588D01*
X119719694Y-108153257D01*
X119348696Y-107781611D01*
X118863716Y-107580230D01*
X118338588Y-107579772D01*
X117853257Y-107780306D01*
X117481611Y-108151304D01*
X117280230Y-108636284D01*
X117279772Y-109161412D01*
X107669859Y-109161412D01*
X107670289Y-108669274D01*
X107416582Y-108055257D01*
X106947214Y-107585069D01*
X106333641Y-107330291D01*
X105669274Y-107329711D01*
X105055257Y-107583418D01*
X104585069Y-108052786D01*
X104330291Y-108666359D01*
X104329711Y-109330726D01*
X103395000Y-109330726D01*
X103395000Y-104674279D01*
X127417812Y-104674279D01*
X127582190Y-105072103D01*
X127886296Y-105376740D01*
X128283833Y-105541812D01*
X128714279Y-105542188D01*
X129112103Y-105377810D01*
X129416740Y-105073704D01*
X129470183Y-104945000D01*
X131436902Y-104945000D01*
X131446044Y-104993585D01*
X131516128Y-105102498D01*
X131623063Y-105175564D01*
X131750000Y-105201269D01*
X132550000Y-105201269D01*
X132668585Y-105178956D01*
X132777498Y-105108872D01*
X132850564Y-105001937D01*
X132876269Y-104875000D01*
X132876269Y-104125000D01*
X132853956Y-104006415D01*
X132783872Y-103897502D01*
X132676937Y-103824436D01*
X132550000Y-103798731D01*
X131750000Y-103798731D01*
X131631415Y-103821044D01*
X131522502Y-103891128D01*
X131449436Y-103998063D01*
X131437906Y-104055000D01*
X129503383Y-104055000D01*
X129417810Y-103847897D01*
X129113704Y-103543260D01*
X128716167Y-103378188D01*
X128285721Y-103377812D01*
X127887897Y-103542190D01*
X127583260Y-103846296D01*
X127418188Y-104243833D01*
X127417812Y-104674279D01*
X103395000Y-104674279D01*
X103395000Y-98650000D01*
X142773731Y-98650000D01*
X142773731Y-99550000D01*
X142796044Y-99668585D01*
X142866128Y-99777498D01*
X142973063Y-99850564D01*
X143100000Y-99876269D01*
X143600000Y-99876269D01*
X143718585Y-99853956D01*
X143827498Y-99783872D01*
X143900564Y-99676937D01*
X143926269Y-99550000D01*
X143926269Y-99545000D01*
X144125271Y-99545000D01*
X144125271Y-99699440D01*
X144147584Y-99818025D01*
X144217668Y-99926938D01*
X144324603Y-100000004D01*
X144451540Y-100025709D01*
X145650420Y-100025709D01*
X145769005Y-100003396D01*
X145877918Y-99933312D01*
X145950984Y-99826377D01*
X145976689Y-99699440D01*
X145976689Y-98500560D01*
X145954376Y-98381975D01*
X145884292Y-98273062D01*
X145777357Y-98199996D01*
X145650420Y-98174291D01*
X144451540Y-98174291D01*
X144332955Y-98196604D01*
X144224042Y-98266688D01*
X144150976Y-98373623D01*
X144125271Y-98500560D01*
X144125271Y-98655000D01*
X143926269Y-98655000D01*
X143926269Y-98650000D01*
X143903956Y-98531415D01*
X143833872Y-98422502D01*
X143726937Y-98349436D01*
X143600000Y-98323731D01*
X143100000Y-98323731D01*
X142981415Y-98346044D01*
X142872502Y-98416128D01*
X142799436Y-98523063D01*
X142773731Y-98650000D01*
X103395000Y-98650000D01*
X103395000Y-94161412D01*
X117279772Y-94161412D01*
X117480306Y-94646743D01*
X117851304Y-95018389D01*
X118336284Y-95219770D01*
X118861412Y-95220228D01*
X119346743Y-95019694D01*
X119718389Y-94648696D01*
X119919770Y-94163716D01*
X119920228Y-93638588D01*
X119719694Y-93153257D01*
X119348696Y-92781611D01*
X118863716Y-92580230D01*
X118338588Y-92579772D01*
X117853257Y-92780306D01*
X117481611Y-93151304D01*
X117280230Y-93636284D01*
X117279772Y-94161412D01*
X103395000Y-94161412D01*
X103395000Y-77448977D01*
X108536857Y-77448977D01*
X108662647Y-77753411D01*
X108829032Y-77920087D01*
X108663465Y-78085364D01*
X108537145Y-78389578D01*
X108536857Y-78718977D01*
X108662647Y-79023411D01*
X108829032Y-79190087D01*
X108663465Y-79355364D01*
X108537145Y-79659578D01*
X108536857Y-79988977D01*
X108662647Y-80293411D01*
X108829032Y-80460087D01*
X108663465Y-80625364D01*
X108537145Y-80929578D01*
X108536857Y-81258977D01*
X108662647Y-81563411D01*
X108829032Y-81730087D01*
X108663465Y-81895364D01*
X108537145Y-82199578D01*
X108536857Y-82528977D01*
X108662647Y-82833411D01*
X108829032Y-83000087D01*
X108663465Y-83165364D01*
X108537145Y-83469578D01*
X108536857Y-83798977D01*
X108662647Y-84103411D01*
X108829032Y-84270087D01*
X108663465Y-84435364D01*
X108537145Y-84739578D01*
X108536857Y-85068977D01*
X108662647Y-85373411D01*
X108829032Y-85540087D01*
X108663465Y-85705364D01*
X108537145Y-86009578D01*
X108536857Y-86338977D01*
X108662647Y-86643411D01*
X108829032Y-86810087D01*
X108663465Y-86975364D01*
X108537145Y-87279578D01*
X108536857Y-87608977D01*
X108662647Y-87913411D01*
X108829032Y-88080087D01*
X108663465Y-88245364D01*
X108537145Y-88549578D01*
X108536857Y-88878977D01*
X108662647Y-89183411D01*
X108895364Y-89416535D01*
X109199578Y-89542855D01*
X109528977Y-89543143D01*
X109833411Y-89417353D01*
X110000087Y-89250968D01*
X110165364Y-89416535D01*
X110469578Y-89542855D01*
X110798977Y-89543143D01*
X111103411Y-89417353D01*
X111336535Y-89184636D01*
X111462855Y-88880422D01*
X111463056Y-88650000D01*
X142773731Y-88650000D01*
X142773731Y-89550000D01*
X142796044Y-89668585D01*
X142866128Y-89777498D01*
X142973063Y-89850564D01*
X143100000Y-89876269D01*
X143600000Y-89876269D01*
X143718585Y-89853956D01*
X143827498Y-89783872D01*
X143900564Y-89676937D01*
X143926269Y-89550000D01*
X143926269Y-89545000D01*
X144125271Y-89545000D01*
X144125271Y-89699440D01*
X144147584Y-89818025D01*
X144217668Y-89926938D01*
X144324603Y-90000004D01*
X144451540Y-90025709D01*
X145650420Y-90025709D01*
X145769005Y-90003396D01*
X145877918Y-89933312D01*
X145950984Y-89826377D01*
X145976689Y-89699440D01*
X145976689Y-88500560D01*
X145954376Y-88381975D01*
X145884292Y-88273062D01*
X145777357Y-88199996D01*
X145650420Y-88174291D01*
X144451540Y-88174291D01*
X144332955Y-88196604D01*
X144224042Y-88266688D01*
X144150976Y-88373623D01*
X144125271Y-88500560D01*
X144125271Y-88655000D01*
X143926269Y-88655000D01*
X143926269Y-88650000D01*
X143903956Y-88531415D01*
X143833872Y-88422502D01*
X143726937Y-88349436D01*
X143600000Y-88323731D01*
X143100000Y-88323731D01*
X142981415Y-88346044D01*
X142872502Y-88416128D01*
X142799436Y-88523063D01*
X142773731Y-88650000D01*
X111463056Y-88650000D01*
X111463143Y-88551023D01*
X111337353Y-88246589D01*
X111170968Y-88079913D01*
X111336535Y-87914636D01*
X111462855Y-87610422D01*
X111463143Y-87281023D01*
X111337353Y-86976589D01*
X111170968Y-86809913D01*
X111336535Y-86644636D01*
X111462855Y-86340422D01*
X111463143Y-86011023D01*
X111337353Y-85706589D01*
X111170968Y-85539913D01*
X111336535Y-85374636D01*
X111346765Y-85350000D01*
X114094995Y-85350000D01*
X114095000Y-85350001D01*
X114265294Y-85316126D01*
X114409663Y-85219663D01*
X114814660Y-84814665D01*
X114814663Y-84814663D01*
X114911126Y-84670294D01*
X114945000Y-84500000D01*
X114945000Y-83184326D01*
X115109325Y-83020000D01*
X115232198Y-83020000D01*
X115246044Y-83093585D01*
X115316128Y-83202498D01*
X115325724Y-83209055D01*
X115322502Y-83211128D01*
X115249436Y-83318063D01*
X115223731Y-83445000D01*
X115223731Y-84245000D01*
X115246044Y-84363585D01*
X115316128Y-84472498D01*
X115423063Y-84545564D01*
X115550000Y-84571269D01*
X116750000Y-84571269D01*
X116868585Y-84548956D01*
X116977498Y-84478872D01*
X117050564Y-84371937D01*
X117059102Y-84329773D01*
X117276133Y-84419893D01*
X117522785Y-84420108D01*
X117750743Y-84325917D01*
X117925304Y-84151661D01*
X118019893Y-83923867D01*
X118020108Y-83677215D01*
X117925917Y-83449257D01*
X117751661Y-83274696D01*
X117523867Y-83180107D01*
X117277215Y-83179892D01*
X117049257Y-83274083D01*
X117031614Y-83291695D01*
X116983872Y-83217502D01*
X116974276Y-83210945D01*
X116977498Y-83208872D01*
X117050564Y-83101937D01*
X117076269Y-82975000D01*
X117076269Y-82922785D01*
X120179892Y-82922785D01*
X120274083Y-83150743D01*
X120448339Y-83325304D01*
X120676133Y-83419893D01*
X120922785Y-83420108D01*
X121150743Y-83325917D01*
X121325304Y-83151661D01*
X121396357Y-82980547D01*
X121404706Y-82986126D01*
X121530534Y-83011156D01*
X121546044Y-83093585D01*
X121616128Y-83202498D01*
X121625724Y-83209055D01*
X121622502Y-83211128D01*
X121549436Y-83318063D01*
X121523731Y-83445000D01*
X121523731Y-84245000D01*
X121546044Y-84363585D01*
X121616128Y-84472498D01*
X121723063Y-84545564D01*
X121850000Y-84571269D01*
X123050000Y-84571269D01*
X123168585Y-84548956D01*
X123277498Y-84478872D01*
X123350564Y-84371937D01*
X123351346Y-84368076D01*
X123476133Y-84419893D01*
X123722785Y-84420108D01*
X123875082Y-84357180D01*
X123896044Y-84468585D01*
X123966128Y-84577498D01*
X124073063Y-84650564D01*
X124200000Y-84676269D01*
X124700000Y-84676269D01*
X124818585Y-84653956D01*
X124927498Y-84583872D01*
X125000564Y-84476937D01*
X125026269Y-84350000D01*
X125026269Y-83450000D01*
X125003956Y-83331415D01*
X124933872Y-83222502D01*
X124826937Y-83149436D01*
X124700000Y-83123731D01*
X124200000Y-83123731D01*
X124081415Y-83146044D01*
X123972502Y-83216128D01*
X123936722Y-83268493D01*
X123723867Y-83180107D01*
X123477215Y-83179892D01*
X123305363Y-83250900D01*
X123283872Y-83217502D01*
X123274276Y-83210945D01*
X123277498Y-83208872D01*
X123350564Y-83101937D01*
X123376269Y-82975000D01*
X123376269Y-82578426D01*
X123476133Y-82619893D01*
X123722785Y-82620108D01*
X123875082Y-82557180D01*
X123896044Y-82668585D01*
X123966128Y-82777498D01*
X124073063Y-82850564D01*
X124200000Y-82876269D01*
X124700000Y-82876269D01*
X124818585Y-82853956D01*
X124927498Y-82783872D01*
X125000564Y-82676937D01*
X125026269Y-82550000D01*
X125026269Y-81650000D01*
X125003956Y-81531415D01*
X124933872Y-81422502D01*
X124826937Y-81349436D01*
X124700000Y-81323731D01*
X124200000Y-81323731D01*
X124081415Y-81346044D01*
X124021983Y-81384287D01*
X124011126Y-81329706D01*
X123968088Y-81265294D01*
X123914663Y-81185337D01*
X123914660Y-81185335D01*
X123719663Y-80990337D01*
X123575294Y-80893874D01*
X123405000Y-80859999D01*
X123404995Y-80860000D01*
X123367802Y-80860000D01*
X123353956Y-80786415D01*
X123283872Y-80677502D01*
X123274276Y-80670945D01*
X123277498Y-80668872D01*
X123294243Y-80644365D01*
X123476133Y-80719893D01*
X123674649Y-80720066D01*
X123800000Y-80745001D01*
X123800005Y-80745000D01*
X123873731Y-80745000D01*
X123873731Y-80750000D01*
X123896044Y-80868585D01*
X123966128Y-80977498D01*
X124073063Y-81050564D01*
X124200000Y-81076269D01*
X124700000Y-81076269D01*
X124818585Y-81053956D01*
X124927498Y-80983872D01*
X125000564Y-80876937D01*
X125026269Y-80750000D01*
X125026269Y-79850000D01*
X125003956Y-79731415D01*
X124933872Y-79622502D01*
X124826937Y-79549436D01*
X124700000Y-79523731D01*
X124200000Y-79523731D01*
X124081415Y-79546044D01*
X124045000Y-79569477D01*
X124045000Y-79231389D01*
X124073063Y-79250564D01*
X124200000Y-79276269D01*
X124700000Y-79276269D01*
X124818585Y-79253956D01*
X124927498Y-79183872D01*
X125000564Y-79076937D01*
X125026269Y-78950000D01*
X125026269Y-78650000D01*
X142773731Y-78650000D01*
X142773731Y-79550000D01*
X142796044Y-79668585D01*
X142866128Y-79777498D01*
X142973063Y-79850564D01*
X143100000Y-79876269D01*
X143600000Y-79876269D01*
X143718585Y-79853956D01*
X143827498Y-79783872D01*
X143900564Y-79676937D01*
X143926269Y-79550000D01*
X143926269Y-79545000D01*
X144125271Y-79545000D01*
X144125271Y-79699440D01*
X144147584Y-79818025D01*
X144217668Y-79926938D01*
X144324603Y-80000004D01*
X144451540Y-80025709D01*
X145650420Y-80025709D01*
X145769005Y-80003396D01*
X145877918Y-79933312D01*
X145950984Y-79826377D01*
X145976689Y-79699440D01*
X145976689Y-78500560D01*
X145954376Y-78381975D01*
X145884292Y-78273062D01*
X145777357Y-78199996D01*
X145650420Y-78174291D01*
X144451540Y-78174291D01*
X144332955Y-78196604D01*
X144224042Y-78266688D01*
X144150976Y-78373623D01*
X144125271Y-78500560D01*
X144125271Y-78655000D01*
X143926269Y-78655000D01*
X143926269Y-78650000D01*
X143903956Y-78531415D01*
X143833872Y-78422502D01*
X143726937Y-78349436D01*
X143600000Y-78323731D01*
X143100000Y-78323731D01*
X142981415Y-78346044D01*
X142872502Y-78416128D01*
X142799436Y-78523063D01*
X142773731Y-78650000D01*
X125026269Y-78650000D01*
X125026269Y-78050000D01*
X125003956Y-77931415D01*
X124933872Y-77822502D01*
X124895000Y-77795942D01*
X124895000Y-77681737D01*
X125025304Y-77551661D01*
X125119893Y-77323867D01*
X125120108Y-77077215D01*
X125025917Y-76849257D01*
X124945000Y-76768198D01*
X124945000Y-76700000D01*
X124911126Y-76529706D01*
X124814663Y-76385337D01*
X124814660Y-76385335D01*
X124339663Y-75910337D01*
X124195294Y-75813874D01*
X124025000Y-75779999D01*
X124024995Y-75780000D01*
X123367802Y-75780000D01*
X123353956Y-75706415D01*
X123283872Y-75597502D01*
X123274276Y-75590945D01*
X123277498Y-75588872D01*
X123350564Y-75481937D01*
X123376269Y-75355000D01*
X123376269Y-74850000D01*
X126433731Y-74850000D01*
X126433731Y-76350000D01*
X126456044Y-76468585D01*
X126526128Y-76577498D01*
X126633063Y-76650564D01*
X126665000Y-76657031D01*
X126665000Y-76758193D01*
X126574696Y-76848339D01*
X126480107Y-77076133D01*
X126479892Y-77322785D01*
X126574083Y-77550743D01*
X126748339Y-77725304D01*
X126976133Y-77819893D01*
X127222785Y-77820108D01*
X127450743Y-77725917D01*
X127625304Y-77551661D01*
X127719893Y-77323867D01*
X127720108Y-77077215D01*
X127625917Y-76849257D01*
X127455000Y-76678041D01*
X127455000Y-76658394D01*
X127478585Y-76653956D01*
X127587498Y-76583872D01*
X127660564Y-76476937D01*
X127686269Y-76350000D01*
X127686269Y-74850000D01*
X127703731Y-74850000D01*
X127703731Y-76350000D01*
X127726044Y-76468585D01*
X127796128Y-76577498D01*
X127903063Y-76650564D01*
X128030000Y-76676269D01*
X128630000Y-76676269D01*
X128748585Y-76653956D01*
X128857498Y-76583872D01*
X128930564Y-76476937D01*
X128956269Y-76350000D01*
X128956269Y-74850000D01*
X130243731Y-74850000D01*
X130243731Y-76350000D01*
X130266044Y-76468585D01*
X130336128Y-76577498D01*
X130443063Y-76650564D01*
X130475000Y-76657031D01*
X130475000Y-76848210D01*
X130374696Y-76948339D01*
X130280107Y-77176133D01*
X130279892Y-77422785D01*
X130374083Y-77650743D01*
X130548339Y-77825304D01*
X130776133Y-77919893D01*
X131022785Y-77920108D01*
X131250743Y-77825917D01*
X131425304Y-77651661D01*
X131519893Y-77423867D01*
X131520108Y-77177215D01*
X131425917Y-76949257D01*
X131265000Y-76788058D01*
X131265000Y-76658394D01*
X131288585Y-76653956D01*
X131397498Y-76583872D01*
X131470564Y-76476937D01*
X131496269Y-76350000D01*
X131496269Y-74850000D01*
X131513731Y-74850000D01*
X131513731Y-76350000D01*
X131536044Y-76468585D01*
X131606128Y-76577498D01*
X131713063Y-76650564D01*
X131840000Y-76676269D01*
X132440000Y-76676269D01*
X132558585Y-76653956D01*
X132667498Y-76583872D01*
X132740564Y-76476937D01*
X132766269Y-76350000D01*
X132766269Y-74850000D01*
X132743956Y-74731415D01*
X132673872Y-74622502D01*
X132662276Y-74614579D01*
X132725304Y-74551661D01*
X132819893Y-74323867D01*
X132820108Y-74077215D01*
X132725917Y-73849257D01*
X132551661Y-73674696D01*
X132323867Y-73580107D01*
X132077215Y-73579892D01*
X131849257Y-73674083D01*
X131674696Y-73848339D01*
X131580107Y-74076133D01*
X131579892Y-74322785D01*
X131674083Y-74550743D01*
X131689739Y-74566427D01*
X131612502Y-74616128D01*
X131539436Y-74723063D01*
X131513731Y-74850000D01*
X131496269Y-74850000D01*
X131473956Y-74731415D01*
X131403872Y-74622502D01*
X131296937Y-74549436D01*
X131170000Y-74523731D01*
X130570000Y-74523731D01*
X130451415Y-74546044D01*
X130342502Y-74616128D01*
X130269436Y-74723063D01*
X130243731Y-74850000D01*
X128956269Y-74850000D01*
X128933956Y-74731415D01*
X128863872Y-74622502D01*
X128798743Y-74578001D01*
X128925304Y-74451661D01*
X129019893Y-74223867D01*
X129020108Y-73977215D01*
X128925917Y-73749257D01*
X128751661Y-73574696D01*
X128523867Y-73480107D01*
X128277215Y-73479892D01*
X128049257Y-73574083D01*
X127874696Y-73748339D01*
X127780107Y-73976133D01*
X127779892Y-74222785D01*
X127874083Y-74450743D01*
X127935000Y-74511767D01*
X127935000Y-74541606D01*
X127911415Y-74546044D01*
X127802502Y-74616128D01*
X127729436Y-74723063D01*
X127703731Y-74850000D01*
X127686269Y-74850000D01*
X127663956Y-74731415D01*
X127593872Y-74622502D01*
X127486937Y-74549436D01*
X127360000Y-74523731D01*
X126760000Y-74523731D01*
X126641415Y-74546044D01*
X126532502Y-74616128D01*
X126459436Y-74723063D01*
X126433731Y-74850000D01*
X123376269Y-74850000D01*
X123376269Y-74555000D01*
X123353956Y-74436415D01*
X123283872Y-74327502D01*
X123176937Y-74254436D01*
X123050000Y-74228731D01*
X121850000Y-74228731D01*
X121731415Y-74251044D01*
X121622502Y-74321128D01*
X121549436Y-74428063D01*
X121528136Y-74533246D01*
X121474706Y-74543874D01*
X121330337Y-74640337D01*
X121330335Y-74640340D01*
X120985337Y-74985337D01*
X120888874Y-75129706D01*
X120854999Y-75300000D01*
X120855000Y-75300005D01*
X120855000Y-82115675D01*
X120790684Y-82179991D01*
X120677215Y-82179892D01*
X120449257Y-82274083D01*
X120274696Y-82448339D01*
X120180107Y-82676133D01*
X120179892Y-82922785D01*
X117076269Y-82922785D01*
X117076269Y-82175000D01*
X117053956Y-82056415D01*
X116983872Y-81947502D01*
X116974276Y-81940945D01*
X116977498Y-81938872D01*
X117050564Y-81831937D01*
X117051630Y-81826671D01*
X117276133Y-81919893D01*
X117522785Y-81920108D01*
X117750743Y-81825917D01*
X117925304Y-81651661D01*
X118019893Y-81423867D01*
X118020108Y-81177215D01*
X117925917Y-80949257D01*
X117751661Y-80774696D01*
X117523867Y-80680107D01*
X117277215Y-80679892D01*
X117049257Y-80774083D01*
X117047286Y-80776050D01*
X116983872Y-80677502D01*
X116974276Y-80670945D01*
X116977498Y-80668872D01*
X117050564Y-80561937D01*
X117076269Y-80435000D01*
X117076269Y-79635000D01*
X117053956Y-79516415D01*
X116983872Y-79407502D01*
X116974276Y-79400945D01*
X116977498Y-79398872D01*
X117050564Y-79291937D01*
X117062838Y-79231325D01*
X117276133Y-79319893D01*
X117522785Y-79320108D01*
X117750743Y-79225917D01*
X117925304Y-79051661D01*
X118019893Y-78823867D01*
X118020108Y-78577215D01*
X117925917Y-78349257D01*
X117751661Y-78174696D01*
X117523867Y-78080107D01*
X117277215Y-78079892D01*
X117049257Y-78174083D01*
X117023778Y-78199517D01*
X116983872Y-78137502D01*
X116974276Y-78130945D01*
X116977498Y-78128872D01*
X117050564Y-78021937D01*
X117076269Y-77895000D01*
X117076269Y-77095000D01*
X117053956Y-76976415D01*
X116983872Y-76867502D01*
X116974276Y-76860945D01*
X116977498Y-76858872D01*
X117050564Y-76751937D01*
X117055366Y-76728222D01*
X117276133Y-76819893D01*
X117522785Y-76820108D01*
X117750743Y-76725917D01*
X117925304Y-76551661D01*
X118019893Y-76323867D01*
X118020108Y-76077215D01*
X117925917Y-75849257D01*
X117751661Y-75674696D01*
X117523867Y-75580107D01*
X117277215Y-75579892D01*
X117049257Y-75674083D01*
X117039450Y-75683873D01*
X116983872Y-75597502D01*
X116974276Y-75590945D01*
X116977498Y-75588872D01*
X117050564Y-75481937D01*
X117076269Y-75355000D01*
X117076269Y-74555000D01*
X117053956Y-74436415D01*
X116983872Y-74327502D01*
X116876937Y-74254436D01*
X116750000Y-74228731D01*
X115550000Y-74228731D01*
X115431415Y-74251044D01*
X115322502Y-74321128D01*
X115249436Y-74428063D01*
X115232844Y-74510000D01*
X114845005Y-74510000D01*
X114845000Y-74509999D01*
X114674706Y-74543874D01*
X114530337Y-74640337D01*
X114530335Y-74640340D01*
X113585337Y-75585337D01*
X113488874Y-75729706D01*
X113454999Y-75900000D01*
X113455000Y-75900005D01*
X113455000Y-80215675D01*
X113020674Y-80650000D01*
X111347026Y-80650000D01*
X111337353Y-80626589D01*
X111170968Y-80459913D01*
X111336535Y-80294636D01*
X111462855Y-79990422D01*
X111463143Y-79661023D01*
X111337353Y-79356589D01*
X111170968Y-79189913D01*
X111336535Y-79024636D01*
X111462855Y-78720422D01*
X111463143Y-78391023D01*
X111337353Y-78086589D01*
X111170968Y-77919913D01*
X111336535Y-77754636D01*
X111462855Y-77450422D01*
X111463143Y-77121023D01*
X111337353Y-76816589D01*
X111104636Y-76583465D01*
X110800422Y-76457145D01*
X110471023Y-76456857D01*
X110166589Y-76582647D01*
X109999913Y-76749032D01*
X109834636Y-76583465D01*
X109530422Y-76457145D01*
X109201023Y-76456857D01*
X108896589Y-76582647D01*
X108663465Y-76815364D01*
X108537145Y-77119578D01*
X108536857Y-77448977D01*
X103395000Y-77448977D01*
X103395000Y-71330726D01*
X104329711Y-71330726D01*
X104583418Y-71944743D01*
X105052786Y-72414931D01*
X105666359Y-72669709D01*
X106330726Y-72670289D01*
X106944743Y-72416582D01*
X107414931Y-71947214D01*
X107669709Y-71333641D01*
X107670000Y-71000000D01*
X108323731Y-71000000D01*
X108323731Y-71500000D01*
X108346044Y-71618585D01*
X108416128Y-71727498D01*
X108523063Y-71800564D01*
X108605776Y-71817314D01*
X108574696Y-71848339D01*
X108480107Y-72076133D01*
X108479892Y-72322785D01*
X108574083Y-72550743D01*
X108748339Y-72725304D01*
X108976133Y-72819893D01*
X109222785Y-72820108D01*
X109450743Y-72725917D01*
X109625304Y-72551661D01*
X109719893Y-72323867D01*
X109720108Y-72077215D01*
X109625917Y-71849257D01*
X109594593Y-71817878D01*
X109668585Y-71803956D01*
X109777498Y-71733872D01*
X109850564Y-71626937D01*
X109876269Y-71500000D01*
X109876269Y-71000000D01*
X109923731Y-71000000D01*
X109923731Y-71500000D01*
X109946044Y-71618585D01*
X110016128Y-71727498D01*
X110123063Y-71800564D01*
X110250000Y-71826269D01*
X110296980Y-71826269D01*
X110174696Y-71948339D01*
X110080107Y-72176133D01*
X110079892Y-72422785D01*
X110174083Y-72650743D01*
X110348339Y-72825304D01*
X110576133Y-72919893D01*
X110822785Y-72920108D01*
X111050743Y-72825917D01*
X111225304Y-72651661D01*
X111319893Y-72423867D01*
X111320108Y-72177215D01*
X111225917Y-71949257D01*
X111103144Y-71826269D01*
X111150000Y-71826269D01*
X111268585Y-71803956D01*
X111377498Y-71733872D01*
X111450564Y-71626937D01*
X111476269Y-71500000D01*
X111476269Y-71000000D01*
X111523731Y-71000000D01*
X111523731Y-71500000D01*
X111546044Y-71618585D01*
X111616128Y-71727498D01*
X111723063Y-71800564D01*
X111850000Y-71826269D01*
X111896980Y-71826269D01*
X111774696Y-71948339D01*
X111680107Y-72176133D01*
X111679892Y-72422785D01*
X111774083Y-72650743D01*
X111948339Y-72825304D01*
X112176133Y-72919893D01*
X112422785Y-72920108D01*
X112650743Y-72825917D01*
X112825304Y-72651661D01*
X112919893Y-72423867D01*
X112920108Y-72177215D01*
X112825917Y-71949257D01*
X112703144Y-71826269D01*
X112750000Y-71826269D01*
X112868585Y-71803956D01*
X112977498Y-71733872D01*
X113050564Y-71626937D01*
X113076269Y-71500000D01*
X113076269Y-71000000D01*
X113123731Y-71000000D01*
X113123731Y-71500000D01*
X113146044Y-71618585D01*
X113216128Y-71727498D01*
X113323063Y-71800564D01*
X113450000Y-71826269D01*
X113496980Y-71826269D01*
X113374696Y-71948339D01*
X113280107Y-72176133D01*
X113279892Y-72422785D01*
X113374083Y-72650743D01*
X113548339Y-72825304D01*
X113776133Y-72919893D01*
X114022785Y-72920108D01*
X114250743Y-72825917D01*
X114425304Y-72651661D01*
X114519893Y-72423867D01*
X114520108Y-72177215D01*
X114425917Y-71949257D01*
X114303144Y-71826269D01*
X114350000Y-71826269D01*
X114468585Y-71803956D01*
X114577498Y-71733872D01*
X114650564Y-71626937D01*
X114676269Y-71500000D01*
X114676269Y-71000000D01*
X114723731Y-71000000D01*
X114723731Y-71500000D01*
X114746044Y-71618585D01*
X114816128Y-71727498D01*
X114923063Y-71800564D01*
X115050000Y-71826269D01*
X115096980Y-71826269D01*
X114974696Y-71948339D01*
X114880107Y-72176133D01*
X114879892Y-72422785D01*
X114974083Y-72650743D01*
X115148339Y-72825304D01*
X115376133Y-72919893D01*
X115622785Y-72920108D01*
X115850743Y-72825917D01*
X116025304Y-72651661D01*
X116119893Y-72423867D01*
X116120108Y-72177215D01*
X116025917Y-71949257D01*
X115903144Y-71826269D01*
X115950000Y-71826269D01*
X116068585Y-71803956D01*
X116177498Y-71733872D01*
X116250564Y-71626937D01*
X116276269Y-71500000D01*
X116276269Y-71000000D01*
X116323731Y-71000000D01*
X116323731Y-71500000D01*
X116346044Y-71618585D01*
X116416128Y-71727498D01*
X116523063Y-71800564D01*
X116650000Y-71826269D01*
X116696980Y-71826269D01*
X116574696Y-71948339D01*
X116480107Y-72176133D01*
X116479892Y-72422785D01*
X116574083Y-72650743D01*
X116748339Y-72825304D01*
X116976133Y-72919893D01*
X117222785Y-72920108D01*
X117450743Y-72825917D01*
X117625304Y-72651661D01*
X117719893Y-72423867D01*
X117720108Y-72177215D01*
X117625917Y-71949257D01*
X117503144Y-71826269D01*
X117550000Y-71826269D01*
X117668585Y-71803956D01*
X117777498Y-71733872D01*
X117850564Y-71626937D01*
X117876269Y-71500000D01*
X117876269Y-71000000D01*
X117923731Y-71000000D01*
X117923731Y-71500000D01*
X117946044Y-71618585D01*
X118016128Y-71727498D01*
X118123063Y-71800564D01*
X118250000Y-71826269D01*
X118296980Y-71826269D01*
X118174696Y-71948339D01*
X118080107Y-72176133D01*
X118079892Y-72422785D01*
X118174083Y-72650743D01*
X118348339Y-72825304D01*
X118576133Y-72919893D01*
X118822785Y-72920108D01*
X119050743Y-72825917D01*
X119225304Y-72651661D01*
X119319893Y-72423867D01*
X119320108Y-72177215D01*
X119225917Y-71949257D01*
X119103144Y-71826269D01*
X119150000Y-71826269D01*
X119268585Y-71803956D01*
X119377498Y-71733872D01*
X119450564Y-71626937D01*
X119476269Y-71500000D01*
X119476269Y-71000000D01*
X119523731Y-71000000D01*
X119523731Y-71500000D01*
X119546044Y-71618585D01*
X119616128Y-71727498D01*
X119723063Y-71800564D01*
X119850000Y-71826269D01*
X119896980Y-71826269D01*
X119774696Y-71948339D01*
X119680107Y-72176133D01*
X119679892Y-72422785D01*
X119774083Y-72650743D01*
X119948339Y-72825304D01*
X120176133Y-72919893D01*
X120422785Y-72920108D01*
X120650743Y-72825917D01*
X120825304Y-72651661D01*
X120919893Y-72423867D01*
X120920108Y-72177215D01*
X120825917Y-71949257D01*
X120703144Y-71826269D01*
X120750000Y-71826269D01*
X120868585Y-71803956D01*
X120977498Y-71733872D01*
X121050564Y-71626937D01*
X121076269Y-71500000D01*
X121076269Y-71000000D01*
X121123731Y-71000000D01*
X121123731Y-71500000D01*
X121146044Y-71618585D01*
X121216128Y-71727498D01*
X121323063Y-71800564D01*
X121450000Y-71826269D01*
X121496980Y-71826269D01*
X121374696Y-71948339D01*
X121280107Y-72176133D01*
X121279892Y-72422785D01*
X121374083Y-72650743D01*
X121548339Y-72825304D01*
X121776133Y-72919893D01*
X122022785Y-72920108D01*
X122250743Y-72825917D01*
X122425304Y-72651661D01*
X122519893Y-72423867D01*
X122520108Y-72177215D01*
X122425917Y-71949257D01*
X122303144Y-71826269D01*
X122350000Y-71826269D01*
X122468585Y-71803956D01*
X122577498Y-71733872D01*
X122650564Y-71626937D01*
X122676269Y-71500000D01*
X122676269Y-71000000D01*
X122723731Y-71000000D01*
X122723731Y-71500000D01*
X122746044Y-71618585D01*
X122816128Y-71727498D01*
X122923063Y-71800564D01*
X123005776Y-71817314D01*
X122974696Y-71848339D01*
X122880107Y-72076133D01*
X122879892Y-72322785D01*
X122974083Y-72550743D01*
X123148339Y-72725304D01*
X123376133Y-72819893D01*
X123622785Y-72820108D01*
X123850743Y-72725917D01*
X124025304Y-72551661D01*
X124119893Y-72323867D01*
X124120108Y-72077215D01*
X124025917Y-71849257D01*
X123994593Y-71817878D01*
X124068585Y-71803956D01*
X124177498Y-71733872D01*
X124250564Y-71626937D01*
X124276269Y-71500000D01*
X124276269Y-71000000D01*
X124253956Y-70881415D01*
X124183872Y-70772502D01*
X124076937Y-70699436D01*
X123950000Y-70673731D01*
X123050000Y-70673731D01*
X122931415Y-70696044D01*
X122822502Y-70766128D01*
X122749436Y-70873063D01*
X122723731Y-71000000D01*
X122676269Y-71000000D01*
X122653956Y-70881415D01*
X122583872Y-70772502D01*
X122476937Y-70699436D01*
X122350000Y-70673731D01*
X121450000Y-70673731D01*
X121331415Y-70696044D01*
X121222502Y-70766128D01*
X121149436Y-70873063D01*
X121123731Y-71000000D01*
X121076269Y-71000000D01*
X121053956Y-70881415D01*
X120983872Y-70772502D01*
X120876937Y-70699436D01*
X120750000Y-70673731D01*
X119850000Y-70673731D01*
X119731415Y-70696044D01*
X119622502Y-70766128D01*
X119549436Y-70873063D01*
X119523731Y-71000000D01*
X119476269Y-71000000D01*
X119453956Y-70881415D01*
X119383872Y-70772502D01*
X119276937Y-70699436D01*
X119150000Y-70673731D01*
X118250000Y-70673731D01*
X118131415Y-70696044D01*
X118022502Y-70766128D01*
X117949436Y-70873063D01*
X117923731Y-71000000D01*
X117876269Y-71000000D01*
X117853956Y-70881415D01*
X117783872Y-70772502D01*
X117676937Y-70699436D01*
X117550000Y-70673731D01*
X116650000Y-70673731D01*
X116531415Y-70696044D01*
X116422502Y-70766128D01*
X116349436Y-70873063D01*
X116323731Y-71000000D01*
X116276269Y-71000000D01*
X116253956Y-70881415D01*
X116183872Y-70772502D01*
X116076937Y-70699436D01*
X115950000Y-70673731D01*
X115050000Y-70673731D01*
X114931415Y-70696044D01*
X114822502Y-70766128D01*
X114749436Y-70873063D01*
X114723731Y-71000000D01*
X114676269Y-71000000D01*
X114653956Y-70881415D01*
X114583872Y-70772502D01*
X114476937Y-70699436D01*
X114350000Y-70673731D01*
X113450000Y-70673731D01*
X113331415Y-70696044D01*
X113222502Y-70766128D01*
X113149436Y-70873063D01*
X113123731Y-71000000D01*
X113076269Y-71000000D01*
X113053956Y-70881415D01*
X112983872Y-70772502D01*
X112876937Y-70699436D01*
X112750000Y-70673731D01*
X111850000Y-70673731D01*
X111731415Y-70696044D01*
X111622502Y-70766128D01*
X111549436Y-70873063D01*
X111523731Y-71000000D01*
X111476269Y-71000000D01*
X111453956Y-70881415D01*
X111383872Y-70772502D01*
X111276937Y-70699436D01*
X111150000Y-70673731D01*
X110250000Y-70673731D01*
X110131415Y-70696044D01*
X110022502Y-70766128D01*
X109949436Y-70873063D01*
X109923731Y-71000000D01*
X109876269Y-71000000D01*
X109853956Y-70881415D01*
X109783872Y-70772502D01*
X109676937Y-70699436D01*
X109550000Y-70673731D01*
X108650000Y-70673731D01*
X108531415Y-70696044D01*
X108422502Y-70766128D01*
X108349436Y-70873063D01*
X108323731Y-71000000D01*
X107670000Y-71000000D01*
X107670289Y-70669274D01*
X107544696Y-70365315D01*
X107676133Y-70419893D01*
X107922785Y-70420108D01*
X108150743Y-70325917D01*
X108281889Y-70195000D01*
X108395216Y-70195000D01*
X108416128Y-70227498D01*
X108523063Y-70300564D01*
X108650000Y-70326269D01*
X109550000Y-70326269D01*
X109668585Y-70303956D01*
X109777498Y-70233872D01*
X109804058Y-70195000D01*
X109995216Y-70195000D01*
X110016128Y-70227498D01*
X110123063Y-70300564D01*
X110250000Y-70326269D01*
X111150000Y-70326269D01*
X111268585Y-70303956D01*
X111377498Y-70233872D01*
X111404058Y-70195000D01*
X111595216Y-70195000D01*
X111616128Y-70227498D01*
X111723063Y-70300564D01*
X111850000Y-70326269D01*
X112750000Y-70326269D01*
X112868585Y-70303956D01*
X112977498Y-70233872D01*
X113004058Y-70195000D01*
X113195216Y-70195000D01*
X113216128Y-70227498D01*
X113323063Y-70300564D01*
X113450000Y-70326269D01*
X114350000Y-70326269D01*
X114468585Y-70303956D01*
X114577498Y-70233872D01*
X114604058Y-70195000D01*
X114795216Y-70195000D01*
X114816128Y-70227498D01*
X114923063Y-70300564D01*
X115050000Y-70326269D01*
X115950000Y-70326269D01*
X116068585Y-70303956D01*
X116177498Y-70233872D01*
X116204058Y-70195000D01*
X116395216Y-70195000D01*
X116416128Y-70227498D01*
X116523063Y-70300564D01*
X116650000Y-70326269D01*
X117550000Y-70326269D01*
X117668585Y-70303956D01*
X117777498Y-70233872D01*
X117850564Y-70126937D01*
X117876269Y-70000000D01*
X117876269Y-69500000D01*
X117853956Y-69381415D01*
X117783872Y-69272502D01*
X117676937Y-69199436D01*
X117550000Y-69173731D01*
X116650000Y-69173731D01*
X116531415Y-69196044D01*
X116422502Y-69266128D01*
X116395942Y-69305000D01*
X116204784Y-69305000D01*
X116183872Y-69272502D01*
X116076937Y-69199436D01*
X115950000Y-69173731D01*
X115050000Y-69173731D01*
X114931415Y-69196044D01*
X114822502Y-69266128D01*
X114795942Y-69305000D01*
X114604784Y-69305000D01*
X114583872Y-69272502D01*
X114476937Y-69199436D01*
X114350000Y-69173731D01*
X113450000Y-69173731D01*
X113331415Y-69196044D01*
X113222502Y-69266128D01*
X113195942Y-69305000D01*
X113004784Y-69305000D01*
X112983872Y-69272502D01*
X112876937Y-69199436D01*
X112750000Y-69173731D01*
X111850000Y-69173731D01*
X111731415Y-69196044D01*
X111622502Y-69266128D01*
X111595942Y-69305000D01*
X111404784Y-69305000D01*
X111383872Y-69272502D01*
X111276937Y-69199436D01*
X111150000Y-69173731D01*
X110250000Y-69173731D01*
X110131415Y-69196044D01*
X110022502Y-69266128D01*
X109995942Y-69305000D01*
X109804784Y-69305000D01*
X109783872Y-69272502D01*
X109676937Y-69199436D01*
X109550000Y-69173731D01*
X108650000Y-69173731D01*
X108531415Y-69196044D01*
X108422502Y-69266128D01*
X108395942Y-69305000D01*
X108181912Y-69305000D01*
X108151661Y-69274696D01*
X107923867Y-69180107D01*
X107677215Y-69179892D01*
X107449257Y-69274083D01*
X107274696Y-69448339D01*
X107180107Y-69676133D01*
X107179983Y-69818245D01*
X106947214Y-69585069D01*
X106333641Y-69330291D01*
X105669274Y-69329711D01*
X105055257Y-69583418D01*
X104585069Y-70052786D01*
X104330291Y-70666359D01*
X104329711Y-71330726D01*
X103395000Y-71330726D01*
X103395000Y-70038904D01*
X103524323Y-69388755D01*
X103870565Y-68870565D01*
X104388755Y-68524323D01*
X105038903Y-68395000D01*
X118328303Y-68395000D01*
X118174696Y-68548339D01*
X118174696Y-68548339D01*
G37*
X118174696Y-68548339D02*
X118080107Y-68776133D01*
X118079892Y-69022785D01*
X118150034Y-69192541D01*
X118131415Y-69196044D01*
X118022502Y-69266128D01*
X117949436Y-69373063D01*
X117923731Y-69500000D01*
X117923731Y-70000000D01*
X117946044Y-70118585D01*
X118016128Y-70227498D01*
X118123063Y-70300564D01*
X118250000Y-70326269D01*
X119150000Y-70326269D01*
X119268585Y-70303956D01*
X119377498Y-70233872D01*
X119404058Y-70195000D01*
X119595216Y-70195000D01*
X119616128Y-70227498D01*
X119723063Y-70300564D01*
X119850000Y-70326269D01*
X120750000Y-70326269D01*
X120868585Y-70303956D01*
X120977498Y-70233872D01*
X121004058Y-70195000D01*
X121195216Y-70195000D01*
X121216128Y-70227498D01*
X121323063Y-70300564D01*
X121450000Y-70326269D01*
X122350000Y-70326269D01*
X122468585Y-70303956D01*
X122577498Y-70233872D01*
X122604058Y-70195000D01*
X122795216Y-70195000D01*
X122816128Y-70227498D01*
X122923063Y-70300564D01*
X123050000Y-70326269D01*
X123950000Y-70326269D01*
X124068585Y-70303956D01*
X124177498Y-70233872D01*
X124250564Y-70126937D01*
X124276269Y-70000000D01*
X124276269Y-69500000D01*
X124253956Y-69381415D01*
X124183872Y-69272502D01*
X124076937Y-69199436D01*
X123950000Y-69173731D01*
X123050000Y-69173731D01*
X122931415Y-69196044D01*
X122822502Y-69266128D01*
X122795942Y-69305000D01*
X122604784Y-69305000D01*
X122583872Y-69272502D01*
X122476937Y-69199436D01*
X122350000Y-69173731D01*
X121450000Y-69173731D01*
X121331415Y-69196044D01*
X121222502Y-69266128D01*
X121195942Y-69305000D01*
X121004784Y-69305000D01*
X120983872Y-69272502D01*
X120876937Y-69199436D01*
X120750000Y-69173731D01*
X119850000Y-69173731D01*
X119731415Y-69196044D01*
X119622502Y-69266128D01*
X119595942Y-69305000D01*
X119404784Y-69305000D01*
X119383872Y-69272502D01*
X119276937Y-69199436D01*
X119249313Y-69193842D01*
X119319893Y-69023867D01*
X119320108Y-68777215D01*
X119225917Y-68549257D01*
X119071930Y-68395000D01*
X125328128Y-68395000D01*
X125274696Y-68448339D01*
X125180107Y-68676133D01*
X125179892Y-68922785D01*
X125274083Y-69150743D01*
X125309295Y-69186017D01*
X125262502Y-69216128D01*
X125189436Y-69323063D01*
X125163731Y-69450000D01*
X125163731Y-70950000D01*
X125186044Y-71068585D01*
X125256128Y-71177498D01*
X125363063Y-71250564D01*
X125490000Y-71276269D01*
X126090000Y-71276269D01*
X126208585Y-71253956D01*
X126317498Y-71183872D01*
X126390564Y-71076937D01*
X126416269Y-70950000D01*
X126416269Y-69450000D01*
X126393956Y-69331415D01*
X126323872Y-69222502D01*
X126282593Y-69194297D01*
X126325304Y-69151661D01*
X126419893Y-68923867D01*
X126420108Y-68677215D01*
X126325917Y-68449257D01*
X126271755Y-68395000D01*
X127828128Y-68395000D01*
X127774696Y-68448339D01*
X127680107Y-68676133D01*
X127679892Y-68922785D01*
X127774083Y-69150743D01*
X127824940Y-69201689D01*
X127802502Y-69216128D01*
X127729436Y-69323063D01*
X127703731Y-69450000D01*
X127703731Y-70950000D01*
X127726044Y-71068585D01*
X127796128Y-71177498D01*
X127903063Y-71250564D01*
X128030000Y-71276269D01*
X128630000Y-71276269D01*
X128748585Y-71253956D01*
X128857498Y-71183872D01*
X128930564Y-71076937D01*
X128956269Y-70950000D01*
X128956269Y-69450000D01*
X128973731Y-69450000D01*
X128973731Y-70950000D01*
X128996044Y-71068585D01*
X129066128Y-71177498D01*
X129113343Y-71209759D01*
X129074696Y-71248339D01*
X128980107Y-71476133D01*
X128979892Y-71722785D01*
X129074083Y-71950743D01*
X129248339Y-72125304D01*
X129476133Y-72219893D01*
X129722785Y-72220108D01*
X129950743Y-72125917D01*
X130125304Y-71951661D01*
X130219893Y-71723867D01*
X130219893Y-71722785D01*
X132779892Y-71722785D01*
X132874083Y-71950743D01*
X133048339Y-72125304D01*
X133276133Y-72219893D01*
X133522785Y-72220108D01*
X133750743Y-72125917D01*
X133925304Y-71951661D01*
X134019893Y-71723867D01*
X134020108Y-71477215D01*
X133925917Y-71249257D01*
X133890705Y-71213983D01*
X133937498Y-71183872D01*
X134010564Y-71076937D01*
X134036269Y-70950000D01*
X134036269Y-69450000D01*
X134013956Y-69331415D01*
X133943872Y-69222502D01*
X133836937Y-69149436D01*
X133710000Y-69123731D01*
X133110000Y-69123731D01*
X132991415Y-69146044D01*
X132882502Y-69216128D01*
X132809436Y-69323063D01*
X132783731Y-69450000D01*
X132783731Y-70950000D01*
X132806044Y-71068585D01*
X132876128Y-71177498D01*
X132917407Y-71205703D01*
X132874696Y-71248339D01*
X132780107Y-71476133D01*
X132779892Y-71722785D01*
X130219893Y-71722785D01*
X130220108Y-71477215D01*
X130125917Y-71249257D01*
X130086793Y-71210065D01*
X130127498Y-71183872D01*
X130200564Y-71076937D01*
X130226269Y-70950000D01*
X130226269Y-69450000D01*
X130203956Y-69331415D01*
X130133872Y-69222502D01*
X130026937Y-69149436D01*
X129900000Y-69123731D01*
X129300000Y-69123731D01*
X129181415Y-69146044D01*
X129072502Y-69216128D01*
X128999436Y-69323063D01*
X128973731Y-69450000D01*
X128956269Y-69450000D01*
X128933956Y-69331415D01*
X128863872Y-69222502D01*
X128798847Y-69178072D01*
X128825304Y-69151661D01*
X128919893Y-68923867D01*
X128920108Y-68677215D01*
X128825917Y-68449257D01*
X128771755Y-68395000D01*
X131628128Y-68395000D01*
X131574696Y-68448339D01*
X131480107Y-68676133D01*
X131479892Y-68922785D01*
X131574083Y-69150743D01*
X131628851Y-69205607D01*
X131612502Y-69216128D01*
X131539436Y-69323063D01*
X131513731Y-69450000D01*
X131513731Y-70950000D01*
X131536044Y-71068585D01*
X131606128Y-71177498D01*
X131713063Y-71250564D01*
X131840000Y-71276269D01*
X132440000Y-71276269D01*
X132558585Y-71253956D01*
X132667498Y-71183872D01*
X132740564Y-71076937D01*
X132766269Y-70950000D01*
X132766269Y-69450000D01*
X132743956Y-69331415D01*
X132673872Y-69222502D01*
X132602910Y-69174016D01*
X132625304Y-69151661D01*
X132719893Y-68923867D01*
X132720108Y-68677215D01*
X132625917Y-68449257D01*
X132571755Y-68395000D01*
X147800000Y-68395000D01*
X147800000Y-76238856D01*
X147750000Y-76228731D01*
X146600000Y-76228731D01*
X146481415Y-76251044D01*
X146372502Y-76321128D01*
X146299436Y-76428063D01*
X146273731Y-76555000D01*
X146273731Y-77255000D01*
X146296044Y-77373585D01*
X146366128Y-77482498D01*
X146473063Y-77555564D01*
X146564045Y-77573988D01*
X146480107Y-77776133D01*
X146479892Y-78022785D01*
X146543005Y-78175528D01*
X146430995Y-78196604D01*
X146322082Y-78266688D01*
X146249016Y-78373623D01*
X146223311Y-78500560D01*
X146223311Y-79699440D01*
X146245624Y-79818025D01*
X146315708Y-79926938D01*
X146422643Y-80000004D01*
X146549580Y-80025709D01*
X147748460Y-80025709D01*
X147800000Y-80016011D01*
X147800000Y-86238856D01*
X147750000Y-86228731D01*
X146600000Y-86228731D01*
X146481415Y-86251044D01*
X146372502Y-86321128D01*
X146299436Y-86428063D01*
X146273731Y-86555000D01*
X146273731Y-87255000D01*
X146296044Y-87373585D01*
X146366128Y-87482498D01*
X146473063Y-87555564D01*
X146600000Y-87581269D01*
X146661022Y-87581269D01*
X146580107Y-87776133D01*
X146579892Y-88022785D01*
X146642493Y-88174291D01*
X146549580Y-88174291D01*
X146430995Y-88196604D01*
X146322082Y-88266688D01*
X146249016Y-88373623D01*
X146223311Y-88500560D01*
X146223311Y-89699440D01*
X146245624Y-89818025D01*
X146315708Y-89926938D01*
X146422643Y-90000004D01*
X146549580Y-90025709D01*
X147748460Y-90025709D01*
X147800000Y-90016011D01*
X147800000Y-96238856D01*
X147750000Y-96228731D01*
X146600000Y-96228731D01*
X146481415Y-96251044D01*
X146372502Y-96321128D01*
X146299436Y-96428063D01*
X146273731Y-96555000D01*
X146273731Y-97255000D01*
X146296044Y-97373585D01*
X146366128Y-97482498D01*
X146473063Y-97555564D01*
X146600000Y-97581269D01*
X146661022Y-97581269D01*
X146580107Y-97776133D01*
X146579892Y-98022785D01*
X146642493Y-98174291D01*
X146549580Y-98174291D01*
X146430995Y-98196604D01*
X146322082Y-98266688D01*
X146249016Y-98373623D01*
X146223311Y-98500560D01*
X146223311Y-99699440D01*
X146245624Y-99818025D01*
X146315708Y-99926938D01*
X146422643Y-100000004D01*
X146549580Y-100025709D01*
X147748460Y-100025709D01*
X147800000Y-100016011D01*
X147800000Y-106238856D01*
X147750000Y-106228731D01*
X146600000Y-106228731D01*
X146481415Y-106251044D01*
X146372502Y-106321128D01*
X146299436Y-106428063D01*
X146273731Y-106555000D01*
X146273731Y-107255000D01*
X146296044Y-107373585D01*
X146366128Y-107482498D01*
X146473063Y-107555564D01*
X146600000Y-107581269D01*
X146661022Y-107581269D01*
X146580107Y-107776133D01*
X146579892Y-108022785D01*
X146642493Y-108174291D01*
X146549580Y-108174291D01*
X146430995Y-108196604D01*
X146322082Y-108266688D01*
X146249016Y-108373623D01*
X146223311Y-108500560D01*
X146223311Y-109699440D01*
X146245624Y-109818025D01*
X146315708Y-109926938D01*
X146422643Y-110000004D01*
X146549580Y-110025709D01*
X147748460Y-110025709D01*
X147800000Y-110016011D01*
X147800000Y-111605000D01*
X105038903Y-111605000D01*
X104388755Y-111475677D01*
X103870565Y-111129435D01*
X103524323Y-110611245D01*
X103395000Y-109961096D01*
X103395000Y-109330726D01*
X104329711Y-109330726D01*
X104583418Y-109944743D01*
X105052786Y-110414931D01*
X105666359Y-110669709D01*
X106330726Y-110670289D01*
X106944743Y-110416582D01*
X107414931Y-109947214D01*
X107669709Y-109333641D01*
X107669859Y-109161412D01*
X117279772Y-109161412D01*
X117480306Y-109646743D01*
X117851304Y-110018389D01*
X118336284Y-110219770D01*
X118861412Y-110220228D01*
X119346743Y-110019694D01*
X119612621Y-109754279D01*
X127417812Y-109754279D01*
X127582190Y-110152103D01*
X127886296Y-110456740D01*
X128283833Y-110621812D01*
X128714279Y-110622188D01*
X129112103Y-110457810D01*
X129416740Y-110153704D01*
X129461878Y-110045000D01*
X131436902Y-110045000D01*
X131446044Y-110093585D01*
X131516128Y-110202498D01*
X131623063Y-110275564D01*
X131750000Y-110301269D01*
X132550000Y-110301269D01*
X132668585Y-110278956D01*
X132777498Y-110208872D01*
X132850564Y-110101937D01*
X132876269Y-109975000D01*
X132876269Y-109225000D01*
X132853956Y-109106415D01*
X132783872Y-108997502D01*
X132676937Y-108924436D01*
X132550000Y-108898731D01*
X131750000Y-108898731D01*
X131631415Y-108921044D01*
X131522502Y-108991128D01*
X131449436Y-109098063D01*
X131437906Y-109155000D01*
X129511647Y-109155000D01*
X129417810Y-108927897D01*
X129140398Y-108650000D01*
X142773731Y-108650000D01*
X142773731Y-109550000D01*
X142796044Y-109668585D01*
X142866128Y-109777498D01*
X142973063Y-109850564D01*
X143100000Y-109876269D01*
X143600000Y-109876269D01*
X143718585Y-109853956D01*
X143827498Y-109783872D01*
X143900564Y-109676937D01*
X143926269Y-109550000D01*
X143926269Y-109545000D01*
X144125271Y-109545000D01*
X144125271Y-109699440D01*
X144147584Y-109818025D01*
X144217668Y-109926938D01*
X144324603Y-110000004D01*
X144451540Y-110025709D01*
X145650420Y-110025709D01*
X145769005Y-110003396D01*
X145877918Y-109933312D01*
X145950984Y-109826377D01*
X145976689Y-109699440D01*
X145976689Y-108500560D01*
X145954376Y-108381975D01*
X145884292Y-108273062D01*
X145777357Y-108199996D01*
X145650420Y-108174291D01*
X144451540Y-108174291D01*
X144332955Y-108196604D01*
X144224042Y-108266688D01*
X144150976Y-108373623D01*
X144125271Y-108500560D01*
X144125271Y-108655000D01*
X143926269Y-108655000D01*
X143926269Y-108650000D01*
X143903956Y-108531415D01*
X143833872Y-108422502D01*
X143726937Y-108349436D01*
X143600000Y-108323731D01*
X143100000Y-108323731D01*
X142981415Y-108346044D01*
X142872502Y-108416128D01*
X142799436Y-108523063D01*
X142773731Y-108650000D01*
X129140398Y-108650000D01*
X129113704Y-108623260D01*
X128716167Y-108458188D01*
X128285721Y-108457812D01*
X127887897Y-108622190D01*
X127583260Y-108926296D01*
X127418188Y-109323833D01*
X127417812Y-109754279D01*
X119612621Y-109754279D01*
X119718389Y-109648696D01*
X119919770Y-109163716D01*
X119920228Y-108638588D01*
X119719694Y-108153257D01*
X119348696Y-107781611D01*
X118863716Y-107580230D01*
X118338588Y-107579772D01*
X117853257Y-107780306D01*
X117481611Y-108151304D01*
X117280230Y-108636284D01*
X117279772Y-109161412D01*
X107669859Y-109161412D01*
X107670289Y-108669274D01*
X107416582Y-108055257D01*
X106947214Y-107585069D01*
X106333641Y-107330291D01*
X105669274Y-107329711D01*
X105055257Y-107583418D01*
X104585069Y-108052786D01*
X104330291Y-108666359D01*
X104329711Y-109330726D01*
X103395000Y-109330726D01*
X103395000Y-104674279D01*
X127417812Y-104674279D01*
X127582190Y-105072103D01*
X127886296Y-105376740D01*
X128283833Y-105541812D01*
X128714279Y-105542188D01*
X129112103Y-105377810D01*
X129416740Y-105073704D01*
X129470183Y-104945000D01*
X131436902Y-104945000D01*
X131446044Y-104993585D01*
X131516128Y-105102498D01*
X131623063Y-105175564D01*
X131750000Y-105201269D01*
X132550000Y-105201269D01*
X132668585Y-105178956D01*
X132777498Y-105108872D01*
X132850564Y-105001937D01*
X132876269Y-104875000D01*
X132876269Y-104125000D01*
X132853956Y-104006415D01*
X132783872Y-103897502D01*
X132676937Y-103824436D01*
X132550000Y-103798731D01*
X131750000Y-103798731D01*
X131631415Y-103821044D01*
X131522502Y-103891128D01*
X131449436Y-103998063D01*
X131437906Y-104055000D01*
X129503383Y-104055000D01*
X129417810Y-103847897D01*
X129113704Y-103543260D01*
X128716167Y-103378188D01*
X128285721Y-103377812D01*
X127887897Y-103542190D01*
X127583260Y-103846296D01*
X127418188Y-104243833D01*
X127417812Y-104674279D01*
X103395000Y-104674279D01*
X103395000Y-98650000D01*
X142773731Y-98650000D01*
X142773731Y-99550000D01*
X142796044Y-99668585D01*
X142866128Y-99777498D01*
X142973063Y-99850564D01*
X143100000Y-99876269D01*
X143600000Y-99876269D01*
X143718585Y-99853956D01*
X143827498Y-99783872D01*
X143900564Y-99676937D01*
X143926269Y-99550000D01*
X143926269Y-99545000D01*
X144125271Y-99545000D01*
X144125271Y-99699440D01*
X144147584Y-99818025D01*
X144217668Y-99926938D01*
X144324603Y-100000004D01*
X144451540Y-100025709D01*
X145650420Y-100025709D01*
X145769005Y-100003396D01*
X145877918Y-99933312D01*
X145950984Y-99826377D01*
X145976689Y-99699440D01*
X145976689Y-98500560D01*
X145954376Y-98381975D01*
X145884292Y-98273062D01*
X145777357Y-98199996D01*
X145650420Y-98174291D01*
X144451540Y-98174291D01*
X144332955Y-98196604D01*
X144224042Y-98266688D01*
X144150976Y-98373623D01*
X144125271Y-98500560D01*
X144125271Y-98655000D01*
X143926269Y-98655000D01*
X143926269Y-98650000D01*
X143903956Y-98531415D01*
X143833872Y-98422502D01*
X143726937Y-98349436D01*
X143600000Y-98323731D01*
X143100000Y-98323731D01*
X142981415Y-98346044D01*
X142872502Y-98416128D01*
X142799436Y-98523063D01*
X142773731Y-98650000D01*
X103395000Y-98650000D01*
X103395000Y-94161412D01*
X117279772Y-94161412D01*
X117480306Y-94646743D01*
X117851304Y-95018389D01*
X118336284Y-95219770D01*
X118861412Y-95220228D01*
X119346743Y-95019694D01*
X119718389Y-94648696D01*
X119919770Y-94163716D01*
X119920228Y-93638588D01*
X119719694Y-93153257D01*
X119348696Y-92781611D01*
X118863716Y-92580230D01*
X118338588Y-92579772D01*
X117853257Y-92780306D01*
X117481611Y-93151304D01*
X117280230Y-93636284D01*
X117279772Y-94161412D01*
X103395000Y-94161412D01*
X103395000Y-77448977D01*
X108536857Y-77448977D01*
X108662647Y-77753411D01*
X108829032Y-77920087D01*
X108663465Y-78085364D01*
X108537145Y-78389578D01*
X108536857Y-78718977D01*
X108662647Y-79023411D01*
X108829032Y-79190087D01*
X108663465Y-79355364D01*
X108537145Y-79659578D01*
X108536857Y-79988977D01*
X108662647Y-80293411D01*
X108829032Y-80460087D01*
X108663465Y-80625364D01*
X108537145Y-80929578D01*
X108536857Y-81258977D01*
X108662647Y-81563411D01*
X108829032Y-81730087D01*
X108663465Y-81895364D01*
X108537145Y-82199578D01*
X108536857Y-82528977D01*
X108662647Y-82833411D01*
X108829032Y-83000087D01*
X108663465Y-83165364D01*
X108537145Y-83469578D01*
X108536857Y-83798977D01*
X108662647Y-84103411D01*
X108829032Y-84270087D01*
X108663465Y-84435364D01*
X108537145Y-84739578D01*
X108536857Y-85068977D01*
X108662647Y-85373411D01*
X108829032Y-85540087D01*
X108663465Y-85705364D01*
X108537145Y-86009578D01*
X108536857Y-86338977D01*
X108662647Y-86643411D01*
X108829032Y-86810087D01*
X108663465Y-86975364D01*
X108537145Y-87279578D01*
X108536857Y-87608977D01*
X108662647Y-87913411D01*
X108829032Y-88080087D01*
X108663465Y-88245364D01*
X108537145Y-88549578D01*
X108536857Y-88878977D01*
X108662647Y-89183411D01*
X108895364Y-89416535D01*
X109199578Y-89542855D01*
X109528977Y-89543143D01*
X109833411Y-89417353D01*
X110000087Y-89250968D01*
X110165364Y-89416535D01*
X110469578Y-89542855D01*
X110798977Y-89543143D01*
X111103411Y-89417353D01*
X111336535Y-89184636D01*
X111462855Y-88880422D01*
X111463056Y-88650000D01*
X142773731Y-88650000D01*
X142773731Y-89550000D01*
X142796044Y-89668585D01*
X142866128Y-89777498D01*
X142973063Y-89850564D01*
X143100000Y-89876269D01*
X143600000Y-89876269D01*
X143718585Y-89853956D01*
X143827498Y-89783872D01*
X143900564Y-89676937D01*
X143926269Y-89550000D01*
X143926269Y-89545000D01*
X144125271Y-89545000D01*
X144125271Y-89699440D01*
X144147584Y-89818025D01*
X144217668Y-89926938D01*
X144324603Y-90000004D01*
X144451540Y-90025709D01*
X145650420Y-90025709D01*
X145769005Y-90003396D01*
X145877918Y-89933312D01*
X145950984Y-89826377D01*
X145976689Y-89699440D01*
X145976689Y-88500560D01*
X145954376Y-88381975D01*
X145884292Y-88273062D01*
X145777357Y-88199996D01*
X145650420Y-88174291D01*
X144451540Y-88174291D01*
X144332955Y-88196604D01*
X144224042Y-88266688D01*
X144150976Y-88373623D01*
X144125271Y-88500560D01*
X144125271Y-88655000D01*
X143926269Y-88655000D01*
X143926269Y-88650000D01*
X143903956Y-88531415D01*
X143833872Y-88422502D01*
X143726937Y-88349436D01*
X143600000Y-88323731D01*
X143100000Y-88323731D01*
X142981415Y-88346044D01*
X142872502Y-88416128D01*
X142799436Y-88523063D01*
X142773731Y-88650000D01*
X111463056Y-88650000D01*
X111463143Y-88551023D01*
X111337353Y-88246589D01*
X111170968Y-88079913D01*
X111336535Y-87914636D01*
X111462855Y-87610422D01*
X111463143Y-87281023D01*
X111337353Y-86976589D01*
X111170968Y-86809913D01*
X111336535Y-86644636D01*
X111462855Y-86340422D01*
X111463143Y-86011023D01*
X111337353Y-85706589D01*
X111170968Y-85539913D01*
X111336535Y-85374636D01*
X111346765Y-85350000D01*
X114094995Y-85350000D01*
X114095000Y-85350001D01*
X114265294Y-85316126D01*
X114409663Y-85219663D01*
X114814660Y-84814665D01*
X114814663Y-84814663D01*
X114911126Y-84670294D01*
X114945000Y-84500000D01*
X114945000Y-83184326D01*
X115109325Y-83020000D01*
X115232198Y-83020000D01*
X115246044Y-83093585D01*
X115316128Y-83202498D01*
X115325724Y-83209055D01*
X115322502Y-83211128D01*
X115249436Y-83318063D01*
X115223731Y-83445000D01*
X115223731Y-84245000D01*
X115246044Y-84363585D01*
X115316128Y-84472498D01*
X115423063Y-84545564D01*
X115550000Y-84571269D01*
X116750000Y-84571269D01*
X116868585Y-84548956D01*
X116977498Y-84478872D01*
X117050564Y-84371937D01*
X117059102Y-84329773D01*
X117276133Y-84419893D01*
X117522785Y-84420108D01*
X117750743Y-84325917D01*
X117925304Y-84151661D01*
X118019893Y-83923867D01*
X118020108Y-83677215D01*
X117925917Y-83449257D01*
X117751661Y-83274696D01*
X117523867Y-83180107D01*
X117277215Y-83179892D01*
X117049257Y-83274083D01*
X117031614Y-83291695D01*
X116983872Y-83217502D01*
X116974276Y-83210945D01*
X116977498Y-83208872D01*
X117050564Y-83101937D01*
X117076269Y-82975000D01*
X117076269Y-82922785D01*
X120179892Y-82922785D01*
X120274083Y-83150743D01*
X120448339Y-83325304D01*
X120676133Y-83419893D01*
X120922785Y-83420108D01*
X121150743Y-83325917D01*
X121325304Y-83151661D01*
X121396357Y-82980547D01*
X121404706Y-82986126D01*
X121530534Y-83011156D01*
X121546044Y-83093585D01*
X121616128Y-83202498D01*
X121625724Y-83209055D01*
X121622502Y-83211128D01*
X121549436Y-83318063D01*
X121523731Y-83445000D01*
X121523731Y-84245000D01*
X121546044Y-84363585D01*
X121616128Y-84472498D01*
X121723063Y-84545564D01*
X121850000Y-84571269D01*
X123050000Y-84571269D01*
X123168585Y-84548956D01*
X123277498Y-84478872D01*
X123350564Y-84371937D01*
X123351346Y-84368076D01*
X123476133Y-84419893D01*
X123722785Y-84420108D01*
X123875082Y-84357180D01*
X123896044Y-84468585D01*
X123966128Y-84577498D01*
X124073063Y-84650564D01*
X124200000Y-84676269D01*
X124700000Y-84676269D01*
X124818585Y-84653956D01*
X124927498Y-84583872D01*
X125000564Y-84476937D01*
X125026269Y-84350000D01*
X125026269Y-83450000D01*
X125003956Y-83331415D01*
X124933872Y-83222502D01*
X124826937Y-83149436D01*
X124700000Y-83123731D01*
X124200000Y-83123731D01*
X124081415Y-83146044D01*
X123972502Y-83216128D01*
X123936722Y-83268493D01*
X123723867Y-83180107D01*
X123477215Y-83179892D01*
X123305363Y-83250900D01*
X123283872Y-83217502D01*
X123274276Y-83210945D01*
X123277498Y-83208872D01*
X123350564Y-83101937D01*
X123376269Y-82975000D01*
X123376269Y-82578426D01*
X123476133Y-82619893D01*
X123722785Y-82620108D01*
X123875082Y-82557180D01*
X123896044Y-82668585D01*
X123966128Y-82777498D01*
X124073063Y-82850564D01*
X124200000Y-82876269D01*
X124700000Y-82876269D01*
X124818585Y-82853956D01*
X124927498Y-82783872D01*
X125000564Y-82676937D01*
X125026269Y-82550000D01*
X125026269Y-81650000D01*
X125003956Y-81531415D01*
X124933872Y-81422502D01*
X124826937Y-81349436D01*
X124700000Y-81323731D01*
X124200000Y-81323731D01*
X124081415Y-81346044D01*
X124021983Y-81384287D01*
X124011126Y-81329706D01*
X123968088Y-81265294D01*
X123914663Y-81185337D01*
X123914660Y-81185335D01*
X123719663Y-80990337D01*
X123575294Y-80893874D01*
X123405000Y-80859999D01*
X123404995Y-80860000D01*
X123367802Y-80860000D01*
X123353956Y-80786415D01*
X123283872Y-80677502D01*
X123274276Y-80670945D01*
X123277498Y-80668872D01*
X123294243Y-80644365D01*
X123476133Y-80719893D01*
X123674649Y-80720066D01*
X123800000Y-80745001D01*
X123800005Y-80745000D01*
X123873731Y-80745000D01*
X123873731Y-80750000D01*
X123896044Y-80868585D01*
X123966128Y-80977498D01*
X124073063Y-81050564D01*
X124200000Y-81076269D01*
X124700000Y-81076269D01*
X124818585Y-81053956D01*
X124927498Y-80983872D01*
X125000564Y-80876937D01*
X125026269Y-80750000D01*
X125026269Y-79850000D01*
X125003956Y-79731415D01*
X124933872Y-79622502D01*
X124826937Y-79549436D01*
X124700000Y-79523731D01*
X124200000Y-79523731D01*
X124081415Y-79546044D01*
X124045000Y-79569477D01*
X124045000Y-79231389D01*
X124073063Y-79250564D01*
X124200000Y-79276269D01*
X124700000Y-79276269D01*
X124818585Y-79253956D01*
X124927498Y-79183872D01*
X125000564Y-79076937D01*
X125026269Y-78950000D01*
X125026269Y-78650000D01*
X142773731Y-78650000D01*
X142773731Y-79550000D01*
X142796044Y-79668585D01*
X142866128Y-79777498D01*
X142973063Y-79850564D01*
X143100000Y-79876269D01*
X143600000Y-79876269D01*
X143718585Y-79853956D01*
X143827498Y-79783872D01*
X143900564Y-79676937D01*
X143926269Y-79550000D01*
X143926269Y-79545000D01*
X144125271Y-79545000D01*
X144125271Y-79699440D01*
X144147584Y-79818025D01*
X144217668Y-79926938D01*
X144324603Y-80000004D01*
X144451540Y-80025709D01*
X145650420Y-80025709D01*
X145769005Y-80003396D01*
X145877918Y-79933312D01*
X145950984Y-79826377D01*
X145976689Y-79699440D01*
X145976689Y-78500560D01*
X145954376Y-78381975D01*
X145884292Y-78273062D01*
X145777357Y-78199996D01*
X145650420Y-78174291D01*
X144451540Y-78174291D01*
X144332955Y-78196604D01*
X144224042Y-78266688D01*
X144150976Y-78373623D01*
X144125271Y-78500560D01*
X144125271Y-78655000D01*
X143926269Y-78655000D01*
X143926269Y-78650000D01*
X143903956Y-78531415D01*
X143833872Y-78422502D01*
X143726937Y-78349436D01*
X143600000Y-78323731D01*
X143100000Y-78323731D01*
X142981415Y-78346044D01*
X142872502Y-78416128D01*
X142799436Y-78523063D01*
X142773731Y-78650000D01*
X125026269Y-78650000D01*
X125026269Y-78050000D01*
X125003956Y-77931415D01*
X124933872Y-77822502D01*
X124895000Y-77795942D01*
X124895000Y-77681737D01*
X125025304Y-77551661D01*
X125119893Y-77323867D01*
X125120108Y-77077215D01*
X125025917Y-76849257D01*
X124945000Y-76768198D01*
X124945000Y-76700000D01*
X124911126Y-76529706D01*
X124814663Y-76385337D01*
X124814660Y-76385335D01*
X124339663Y-75910337D01*
X124195294Y-75813874D01*
X124025000Y-75779999D01*
X124024995Y-75780000D01*
X123367802Y-75780000D01*
X123353956Y-75706415D01*
X123283872Y-75597502D01*
X123274276Y-75590945D01*
X123277498Y-75588872D01*
X123350564Y-75481937D01*
X123376269Y-75355000D01*
X123376269Y-74850000D01*
X126433731Y-74850000D01*
X126433731Y-76350000D01*
X126456044Y-76468585D01*
X126526128Y-76577498D01*
X126633063Y-76650564D01*
X126665000Y-76657031D01*
X126665000Y-76758193D01*
X126574696Y-76848339D01*
X126480107Y-77076133D01*
X126479892Y-77322785D01*
X126574083Y-77550743D01*
X126748339Y-77725304D01*
X126976133Y-77819893D01*
X127222785Y-77820108D01*
X127450743Y-77725917D01*
X127625304Y-77551661D01*
X127719893Y-77323867D01*
X127720108Y-77077215D01*
X127625917Y-76849257D01*
X127455000Y-76678041D01*
X127455000Y-76658394D01*
X127478585Y-76653956D01*
X127587498Y-76583872D01*
X127660564Y-76476937D01*
X127686269Y-76350000D01*
X127686269Y-74850000D01*
X127703731Y-74850000D01*
X127703731Y-76350000D01*
X127726044Y-76468585D01*
X127796128Y-76577498D01*
X127903063Y-76650564D01*
X128030000Y-76676269D01*
X128630000Y-76676269D01*
X128748585Y-76653956D01*
X128857498Y-76583872D01*
X128930564Y-76476937D01*
X128956269Y-76350000D01*
X128956269Y-74850000D01*
X130243731Y-74850000D01*
X130243731Y-76350000D01*
X130266044Y-76468585D01*
X130336128Y-76577498D01*
X130443063Y-76650564D01*
X130475000Y-76657031D01*
X130475000Y-76848210D01*
X130374696Y-76948339D01*
X130280107Y-77176133D01*
X130279892Y-77422785D01*
X130374083Y-77650743D01*
X130548339Y-77825304D01*
X130776133Y-77919893D01*
X131022785Y-77920108D01*
X131250743Y-77825917D01*
X131425304Y-77651661D01*
X131519893Y-77423867D01*
X131520108Y-77177215D01*
X131425917Y-76949257D01*
X131265000Y-76788058D01*
X131265000Y-76658394D01*
X131288585Y-76653956D01*
X131397498Y-76583872D01*
X131470564Y-76476937D01*
X131496269Y-76350000D01*
X131496269Y-74850000D01*
X131513731Y-74850000D01*
X131513731Y-76350000D01*
X131536044Y-76468585D01*
X131606128Y-76577498D01*
X131713063Y-76650564D01*
X131840000Y-76676269D01*
X132440000Y-76676269D01*
X132558585Y-76653956D01*
X132667498Y-76583872D01*
X132740564Y-76476937D01*
X132766269Y-76350000D01*
X132766269Y-74850000D01*
X132743956Y-74731415D01*
X132673872Y-74622502D01*
X132662276Y-74614579D01*
X132725304Y-74551661D01*
X132819893Y-74323867D01*
X132820108Y-74077215D01*
X132725917Y-73849257D01*
X132551661Y-73674696D01*
X132323867Y-73580107D01*
X132077215Y-73579892D01*
X131849257Y-73674083D01*
X131674696Y-73848339D01*
X131580107Y-74076133D01*
X131579892Y-74322785D01*
X131674083Y-74550743D01*
X131689739Y-74566427D01*
X131612502Y-74616128D01*
X131539436Y-74723063D01*
X131513731Y-74850000D01*
X131496269Y-74850000D01*
X131473956Y-74731415D01*
X131403872Y-74622502D01*
X131296937Y-74549436D01*
X131170000Y-74523731D01*
X130570000Y-74523731D01*
X130451415Y-74546044D01*
X130342502Y-74616128D01*
X130269436Y-74723063D01*
X130243731Y-74850000D01*
X128956269Y-74850000D01*
X128933956Y-74731415D01*
X128863872Y-74622502D01*
X128798743Y-74578001D01*
X128925304Y-74451661D01*
X129019893Y-74223867D01*
X129020108Y-73977215D01*
X128925917Y-73749257D01*
X128751661Y-73574696D01*
X128523867Y-73480107D01*
X128277215Y-73479892D01*
X128049257Y-73574083D01*
X127874696Y-73748339D01*
X127780107Y-73976133D01*
X127779892Y-74222785D01*
X127874083Y-74450743D01*
X127935000Y-74511767D01*
X127935000Y-74541606D01*
X127911415Y-74546044D01*
X127802502Y-74616128D01*
X127729436Y-74723063D01*
X127703731Y-74850000D01*
X127686269Y-74850000D01*
X127663956Y-74731415D01*
X127593872Y-74622502D01*
X127486937Y-74549436D01*
X127360000Y-74523731D01*
X126760000Y-74523731D01*
X126641415Y-74546044D01*
X126532502Y-74616128D01*
X126459436Y-74723063D01*
X126433731Y-74850000D01*
X123376269Y-74850000D01*
X123376269Y-74555000D01*
X123353956Y-74436415D01*
X123283872Y-74327502D01*
X123176937Y-74254436D01*
X123050000Y-74228731D01*
X121850000Y-74228731D01*
X121731415Y-74251044D01*
X121622502Y-74321128D01*
X121549436Y-74428063D01*
X121528136Y-74533246D01*
X121474706Y-74543874D01*
X121330337Y-74640337D01*
X121330335Y-74640340D01*
X120985337Y-74985337D01*
X120888874Y-75129706D01*
X120854999Y-75300000D01*
X120855000Y-75300005D01*
X120855000Y-82115675D01*
X120790684Y-82179991D01*
X120677215Y-82179892D01*
X120449257Y-82274083D01*
X120274696Y-82448339D01*
X120180107Y-82676133D01*
X120179892Y-82922785D01*
X117076269Y-82922785D01*
X117076269Y-82175000D01*
X117053956Y-82056415D01*
X116983872Y-81947502D01*
X116974276Y-81940945D01*
X116977498Y-81938872D01*
X117050564Y-81831937D01*
X117051630Y-81826671D01*
X117276133Y-81919893D01*
X117522785Y-81920108D01*
X117750743Y-81825917D01*
X117925304Y-81651661D01*
X118019893Y-81423867D01*
X118020108Y-81177215D01*
X117925917Y-80949257D01*
X117751661Y-80774696D01*
X117523867Y-80680107D01*
X117277215Y-80679892D01*
X117049257Y-80774083D01*
X117047286Y-80776050D01*
X116983872Y-80677502D01*
X116974276Y-80670945D01*
X116977498Y-80668872D01*
X117050564Y-80561937D01*
X117076269Y-80435000D01*
X117076269Y-79635000D01*
X117053956Y-79516415D01*
X116983872Y-79407502D01*
X116974276Y-79400945D01*
X116977498Y-79398872D01*
X117050564Y-79291937D01*
X117062838Y-79231325D01*
X117276133Y-79319893D01*
X117522785Y-79320108D01*
X117750743Y-79225917D01*
X117925304Y-79051661D01*
X118019893Y-78823867D01*
X118020108Y-78577215D01*
X117925917Y-78349257D01*
X117751661Y-78174696D01*
X117523867Y-78080107D01*
X117277215Y-78079892D01*
X117049257Y-78174083D01*
X117023778Y-78199517D01*
X116983872Y-78137502D01*
X116974276Y-78130945D01*
X116977498Y-78128872D01*
X117050564Y-78021937D01*
X117076269Y-77895000D01*
X117076269Y-77095000D01*
X117053956Y-76976415D01*
X116983872Y-76867502D01*
X116974276Y-76860945D01*
X116977498Y-76858872D01*
X117050564Y-76751937D01*
X117055366Y-76728222D01*
X117276133Y-76819893D01*
X117522785Y-76820108D01*
X117750743Y-76725917D01*
X117925304Y-76551661D01*
X118019893Y-76323867D01*
X118020108Y-76077215D01*
X117925917Y-75849257D01*
X117751661Y-75674696D01*
X117523867Y-75580107D01*
X117277215Y-75579892D01*
X117049257Y-75674083D01*
X117039450Y-75683873D01*
X116983872Y-75597502D01*
X116974276Y-75590945D01*
X116977498Y-75588872D01*
X117050564Y-75481937D01*
X117076269Y-75355000D01*
X117076269Y-74555000D01*
X117053956Y-74436415D01*
X116983872Y-74327502D01*
X116876937Y-74254436D01*
X116750000Y-74228731D01*
X115550000Y-74228731D01*
X115431415Y-74251044D01*
X115322502Y-74321128D01*
X115249436Y-74428063D01*
X115232844Y-74510000D01*
X114845005Y-74510000D01*
X114845000Y-74509999D01*
X114674706Y-74543874D01*
X114530337Y-74640337D01*
X114530335Y-74640340D01*
X113585337Y-75585337D01*
X113488874Y-75729706D01*
X113454999Y-75900000D01*
X113455000Y-75900005D01*
X113455000Y-80215675D01*
X113020674Y-80650000D01*
X111347026Y-80650000D01*
X111337353Y-80626589D01*
X111170968Y-80459913D01*
X111336535Y-80294636D01*
X111462855Y-79990422D01*
X111463143Y-79661023D01*
X111337353Y-79356589D01*
X111170968Y-79189913D01*
X111336535Y-79024636D01*
X111462855Y-78720422D01*
X111463143Y-78391023D01*
X111337353Y-78086589D01*
X111170968Y-77919913D01*
X111336535Y-77754636D01*
X111462855Y-77450422D01*
X111463143Y-77121023D01*
X111337353Y-76816589D01*
X111104636Y-76583465D01*
X110800422Y-76457145D01*
X110471023Y-76456857D01*
X110166589Y-76582647D01*
X109999913Y-76749032D01*
X109834636Y-76583465D01*
X109530422Y-76457145D01*
X109201023Y-76456857D01*
X108896589Y-76582647D01*
X108663465Y-76815364D01*
X108537145Y-77119578D01*
X108536857Y-77448977D01*
X103395000Y-77448977D01*
X103395000Y-71330726D01*
X104329711Y-71330726D01*
X104583418Y-71944743D01*
X105052786Y-72414931D01*
X105666359Y-72669709D01*
X106330726Y-72670289D01*
X106944743Y-72416582D01*
X107414931Y-71947214D01*
X107669709Y-71333641D01*
X107670000Y-71000000D01*
X108323731Y-71000000D01*
X108323731Y-71500000D01*
X108346044Y-71618585D01*
X108416128Y-71727498D01*
X108523063Y-71800564D01*
X108605776Y-71817314D01*
X108574696Y-71848339D01*
X108480107Y-72076133D01*
X108479892Y-72322785D01*
X108574083Y-72550743D01*
X108748339Y-72725304D01*
X108976133Y-72819893D01*
X109222785Y-72820108D01*
X109450743Y-72725917D01*
X109625304Y-72551661D01*
X109719893Y-72323867D01*
X109720108Y-72077215D01*
X109625917Y-71849257D01*
X109594593Y-71817878D01*
X109668585Y-71803956D01*
X109777498Y-71733872D01*
X109850564Y-71626937D01*
X109876269Y-71500000D01*
X109876269Y-71000000D01*
X109923731Y-71000000D01*
X109923731Y-71500000D01*
X109946044Y-71618585D01*
X110016128Y-71727498D01*
X110123063Y-71800564D01*
X110250000Y-71826269D01*
X110296980Y-71826269D01*
X110174696Y-71948339D01*
X110080107Y-72176133D01*
X110079892Y-72422785D01*
X110174083Y-72650743D01*
X110348339Y-72825304D01*
X110576133Y-72919893D01*
X110822785Y-72920108D01*
X111050743Y-72825917D01*
X111225304Y-72651661D01*
X111319893Y-72423867D01*
X111320108Y-72177215D01*
X111225917Y-71949257D01*
X111103144Y-71826269D01*
X111150000Y-71826269D01*
X111268585Y-71803956D01*
X111377498Y-71733872D01*
X111450564Y-71626937D01*
X111476269Y-71500000D01*
X111476269Y-71000000D01*
X111523731Y-71000000D01*
X111523731Y-71500000D01*
X111546044Y-71618585D01*
X111616128Y-71727498D01*
X111723063Y-71800564D01*
X111850000Y-71826269D01*
X111896980Y-71826269D01*
X111774696Y-71948339D01*
X111680107Y-72176133D01*
X111679892Y-72422785D01*
X111774083Y-72650743D01*
X111948339Y-72825304D01*
X112176133Y-72919893D01*
X112422785Y-72920108D01*
X112650743Y-72825917D01*
X112825304Y-72651661D01*
X112919893Y-72423867D01*
X112920108Y-72177215D01*
X112825917Y-71949257D01*
X112703144Y-71826269D01*
X112750000Y-71826269D01*
X112868585Y-71803956D01*
X112977498Y-71733872D01*
X113050564Y-71626937D01*
X113076269Y-71500000D01*
X113076269Y-71000000D01*
X113123731Y-71000000D01*
X113123731Y-71500000D01*
X113146044Y-71618585D01*
X113216128Y-71727498D01*
X113323063Y-71800564D01*
X113450000Y-71826269D01*
X113496980Y-71826269D01*
X113374696Y-71948339D01*
X113280107Y-72176133D01*
X113279892Y-72422785D01*
X113374083Y-72650743D01*
X113548339Y-72825304D01*
X113776133Y-72919893D01*
X114022785Y-72920108D01*
X114250743Y-72825917D01*
X114425304Y-72651661D01*
X114519893Y-72423867D01*
X114520108Y-72177215D01*
X114425917Y-71949257D01*
X114303144Y-71826269D01*
X114350000Y-71826269D01*
X114468585Y-71803956D01*
X114577498Y-71733872D01*
X114650564Y-71626937D01*
X114676269Y-71500000D01*
X114676269Y-71000000D01*
X114723731Y-71000000D01*
X114723731Y-71500000D01*
X114746044Y-71618585D01*
X114816128Y-71727498D01*
X114923063Y-71800564D01*
X115050000Y-71826269D01*
X115096980Y-71826269D01*
X114974696Y-71948339D01*
X114880107Y-72176133D01*
X114879892Y-72422785D01*
X114974083Y-72650743D01*
X115148339Y-72825304D01*
X115376133Y-72919893D01*
X115622785Y-72920108D01*
X115850743Y-72825917D01*
X116025304Y-72651661D01*
X116119893Y-72423867D01*
X116120108Y-72177215D01*
X116025917Y-71949257D01*
X115903144Y-71826269D01*
X115950000Y-71826269D01*
X116068585Y-71803956D01*
X116177498Y-71733872D01*
X116250564Y-71626937D01*
X116276269Y-71500000D01*
X116276269Y-71000000D01*
X116323731Y-71000000D01*
X116323731Y-71500000D01*
X116346044Y-71618585D01*
X116416128Y-71727498D01*
X116523063Y-71800564D01*
X116650000Y-71826269D01*
X116696980Y-71826269D01*
X116574696Y-71948339D01*
X116480107Y-72176133D01*
X116479892Y-72422785D01*
X116574083Y-72650743D01*
X116748339Y-72825304D01*
X116976133Y-72919893D01*
X117222785Y-72920108D01*
X117450743Y-72825917D01*
X117625304Y-72651661D01*
X117719893Y-72423867D01*
X117720108Y-72177215D01*
X117625917Y-71949257D01*
X117503144Y-71826269D01*
X117550000Y-71826269D01*
X117668585Y-71803956D01*
X117777498Y-71733872D01*
X117850564Y-71626937D01*
X117876269Y-71500000D01*
X117876269Y-71000000D01*
X117923731Y-71000000D01*
X117923731Y-71500000D01*
X117946044Y-71618585D01*
X118016128Y-71727498D01*
X118123063Y-71800564D01*
X118250000Y-71826269D01*
X118296980Y-71826269D01*
X118174696Y-71948339D01*
X118080107Y-72176133D01*
X118079892Y-72422785D01*
X118174083Y-72650743D01*
X118348339Y-72825304D01*
X118576133Y-72919893D01*
X118822785Y-72920108D01*
X119050743Y-72825917D01*
X119225304Y-72651661D01*
X119319893Y-72423867D01*
X119320108Y-72177215D01*
X119225917Y-71949257D01*
X119103144Y-71826269D01*
X119150000Y-71826269D01*
X119268585Y-71803956D01*
X119377498Y-71733872D01*
X119450564Y-71626937D01*
X119476269Y-71500000D01*
X119476269Y-71000000D01*
X119523731Y-71000000D01*
X119523731Y-71500000D01*
X119546044Y-71618585D01*
X119616128Y-71727498D01*
X119723063Y-71800564D01*
X119850000Y-71826269D01*
X119896980Y-71826269D01*
X119774696Y-71948339D01*
X119680107Y-72176133D01*
X119679892Y-72422785D01*
X119774083Y-72650743D01*
X119948339Y-72825304D01*
X120176133Y-72919893D01*
X120422785Y-72920108D01*
X120650743Y-72825917D01*
X120825304Y-72651661D01*
X120919893Y-72423867D01*
X120920108Y-72177215D01*
X120825917Y-71949257D01*
X120703144Y-71826269D01*
X120750000Y-71826269D01*
X120868585Y-71803956D01*
X120977498Y-71733872D01*
X121050564Y-71626937D01*
X121076269Y-71500000D01*
X121076269Y-71000000D01*
X121123731Y-71000000D01*
X121123731Y-71500000D01*
X121146044Y-71618585D01*
X121216128Y-71727498D01*
X121323063Y-71800564D01*
X121450000Y-71826269D01*
X121496980Y-71826269D01*
X121374696Y-71948339D01*
X121280107Y-72176133D01*
X121279892Y-72422785D01*
X121374083Y-72650743D01*
X121548339Y-72825304D01*
X121776133Y-72919893D01*
X122022785Y-72920108D01*
X122250743Y-72825917D01*
X122425304Y-72651661D01*
X122519893Y-72423867D01*
X122520108Y-72177215D01*
X122425917Y-71949257D01*
X122303144Y-71826269D01*
X122350000Y-71826269D01*
X122468585Y-71803956D01*
X122577498Y-71733872D01*
X122650564Y-71626937D01*
X122676269Y-71500000D01*
X122676269Y-71000000D01*
X122723731Y-71000000D01*
X122723731Y-71500000D01*
X122746044Y-71618585D01*
X122816128Y-71727498D01*
X122923063Y-71800564D01*
X123005776Y-71817314D01*
X122974696Y-71848339D01*
X122880107Y-72076133D01*
X122879892Y-72322785D01*
X122974083Y-72550743D01*
X123148339Y-72725304D01*
X123376133Y-72819893D01*
X123622785Y-72820108D01*
X123850743Y-72725917D01*
X124025304Y-72551661D01*
X124119893Y-72323867D01*
X124120108Y-72077215D01*
X124025917Y-71849257D01*
X123994593Y-71817878D01*
X124068585Y-71803956D01*
X124177498Y-71733872D01*
X124250564Y-71626937D01*
X124276269Y-71500000D01*
X124276269Y-71000000D01*
X124253956Y-70881415D01*
X124183872Y-70772502D01*
X124076937Y-70699436D01*
X123950000Y-70673731D01*
X123050000Y-70673731D01*
X122931415Y-70696044D01*
X122822502Y-70766128D01*
X122749436Y-70873063D01*
X122723731Y-71000000D01*
X122676269Y-71000000D01*
X122653956Y-70881415D01*
X122583872Y-70772502D01*
X122476937Y-70699436D01*
X122350000Y-70673731D01*
X121450000Y-70673731D01*
X121331415Y-70696044D01*
X121222502Y-70766128D01*
X121149436Y-70873063D01*
X121123731Y-71000000D01*
X121076269Y-71000000D01*
X121053956Y-70881415D01*
X120983872Y-70772502D01*
X120876937Y-70699436D01*
X120750000Y-70673731D01*
X119850000Y-70673731D01*
X119731415Y-70696044D01*
X119622502Y-70766128D01*
X119549436Y-70873063D01*
X119523731Y-71000000D01*
X119476269Y-71000000D01*
X119453956Y-70881415D01*
X119383872Y-70772502D01*
X119276937Y-70699436D01*
X119150000Y-70673731D01*
X118250000Y-70673731D01*
X118131415Y-70696044D01*
X118022502Y-70766128D01*
X117949436Y-70873063D01*
X117923731Y-71000000D01*
X117876269Y-71000000D01*
X117853956Y-70881415D01*
X117783872Y-70772502D01*
X117676937Y-70699436D01*
X117550000Y-70673731D01*
X116650000Y-70673731D01*
X116531415Y-70696044D01*
X116422502Y-70766128D01*
X116349436Y-70873063D01*
X116323731Y-71000000D01*
X116276269Y-71000000D01*
X116253956Y-70881415D01*
X116183872Y-70772502D01*
X116076937Y-70699436D01*
X115950000Y-70673731D01*
X115050000Y-70673731D01*
X114931415Y-70696044D01*
X114822502Y-70766128D01*
X114749436Y-70873063D01*
X114723731Y-71000000D01*
X114676269Y-71000000D01*
X114653956Y-70881415D01*
X114583872Y-70772502D01*
X114476937Y-70699436D01*
X114350000Y-70673731D01*
X113450000Y-70673731D01*
X113331415Y-70696044D01*
X113222502Y-70766128D01*
X113149436Y-70873063D01*
X113123731Y-71000000D01*
X113076269Y-71000000D01*
X113053956Y-70881415D01*
X112983872Y-70772502D01*
X112876937Y-70699436D01*
X112750000Y-70673731D01*
X111850000Y-70673731D01*
X111731415Y-70696044D01*
X111622502Y-70766128D01*
X111549436Y-70873063D01*
X111523731Y-71000000D01*
X111476269Y-71000000D01*
X111453956Y-70881415D01*
X111383872Y-70772502D01*
X111276937Y-70699436D01*
X111150000Y-70673731D01*
X110250000Y-70673731D01*
X110131415Y-70696044D01*
X110022502Y-70766128D01*
X109949436Y-70873063D01*
X109923731Y-71000000D01*
X109876269Y-71000000D01*
X109853956Y-70881415D01*
X109783872Y-70772502D01*
X109676937Y-70699436D01*
X109550000Y-70673731D01*
X108650000Y-70673731D01*
X108531415Y-70696044D01*
X108422502Y-70766128D01*
X108349436Y-70873063D01*
X108323731Y-71000000D01*
X107670000Y-71000000D01*
X107670289Y-70669274D01*
X107544696Y-70365315D01*
X107676133Y-70419893D01*
X107922785Y-70420108D01*
X108150743Y-70325917D01*
X108281889Y-70195000D01*
X108395216Y-70195000D01*
X108416128Y-70227498D01*
X108523063Y-70300564D01*
X108650000Y-70326269D01*
X109550000Y-70326269D01*
X109668585Y-70303956D01*
X109777498Y-70233872D01*
X109804058Y-70195000D01*
X109995216Y-70195000D01*
X110016128Y-70227498D01*
X110123063Y-70300564D01*
X110250000Y-70326269D01*
X111150000Y-70326269D01*
X111268585Y-70303956D01*
X111377498Y-70233872D01*
X111404058Y-70195000D01*
X111595216Y-70195000D01*
X111616128Y-70227498D01*
X111723063Y-70300564D01*
X111850000Y-70326269D01*
X112750000Y-70326269D01*
X112868585Y-70303956D01*
X112977498Y-70233872D01*
X113004058Y-70195000D01*
X113195216Y-70195000D01*
X113216128Y-70227498D01*
X113323063Y-70300564D01*
X113450000Y-70326269D01*
X114350000Y-70326269D01*
X114468585Y-70303956D01*
X114577498Y-70233872D01*
X114604058Y-70195000D01*
X114795216Y-70195000D01*
X114816128Y-70227498D01*
X114923063Y-70300564D01*
X115050000Y-70326269D01*
X115950000Y-70326269D01*
X116068585Y-70303956D01*
X116177498Y-70233872D01*
X116204058Y-70195000D01*
X116395216Y-70195000D01*
X116416128Y-70227498D01*
X116523063Y-70300564D01*
X116650000Y-70326269D01*
X117550000Y-70326269D01*
X117668585Y-70303956D01*
X117777498Y-70233872D01*
X117850564Y-70126937D01*
X117876269Y-70000000D01*
X117876269Y-69500000D01*
X117853956Y-69381415D01*
X117783872Y-69272502D01*
X117676937Y-69199436D01*
X117550000Y-69173731D01*
X116650000Y-69173731D01*
X116531415Y-69196044D01*
X116422502Y-69266128D01*
X116395942Y-69305000D01*
X116204784Y-69305000D01*
X116183872Y-69272502D01*
X116076937Y-69199436D01*
X115950000Y-69173731D01*
X115050000Y-69173731D01*
X114931415Y-69196044D01*
X114822502Y-69266128D01*
X114795942Y-69305000D01*
X114604784Y-69305000D01*
X114583872Y-69272502D01*
X114476937Y-69199436D01*
X114350000Y-69173731D01*
X113450000Y-69173731D01*
X113331415Y-69196044D01*
X113222502Y-69266128D01*
X113195942Y-69305000D01*
X113004784Y-69305000D01*
X112983872Y-69272502D01*
X112876937Y-69199436D01*
X112750000Y-69173731D01*
X111850000Y-69173731D01*
X111731415Y-69196044D01*
X111622502Y-69266128D01*
X111595942Y-69305000D01*
X111404784Y-69305000D01*
X111383872Y-69272502D01*
X111276937Y-69199436D01*
X111150000Y-69173731D01*
X110250000Y-69173731D01*
X110131415Y-69196044D01*
X110022502Y-69266128D01*
X109995942Y-69305000D01*
X109804784Y-69305000D01*
X109783872Y-69272502D01*
X109676937Y-69199436D01*
X109550000Y-69173731D01*
X108650000Y-69173731D01*
X108531415Y-69196044D01*
X108422502Y-69266128D01*
X108395942Y-69305000D01*
X108181912Y-69305000D01*
X108151661Y-69274696D01*
X107923867Y-69180107D01*
X107677215Y-69179892D01*
X107449257Y-69274083D01*
X107274696Y-69448339D01*
X107180107Y-69676133D01*
X107179983Y-69818245D01*
X106947214Y-69585069D01*
X106333641Y-69330291D01*
X105669274Y-69329711D01*
X105055257Y-69583418D01*
X104585069Y-70052786D01*
X104330291Y-70666359D01*
X104329711Y-71330726D01*
X103395000Y-71330726D01*
X103395000Y-70038904D01*
X103524323Y-69388755D01*
X103870565Y-68870565D01*
X104388755Y-68524323D01*
X105038903Y-68395000D01*
X118328303Y-68395000D01*
X118174696Y-68548339D01*
M02*
