G04 #@! TF.FileFunction,Legend,Bot*
%FSLAX46Y46*%
G04 Gerber Fmt 4.6, Leading zero omitted, Abs format (unit mm)*
G04 Created by KiCad (PCBNEW 4.0.2+e4-6225~38~ubuntu14.04.1-stable) date Fri 29 Jul 2016 12:50:15 AM PDT*
%MOMM*%
G01*
G04 APERTURE LIST*
%ADD10C,0.100000*%
%ADD11C,0.300000*%
%ADD12C,0.010000*%
G04 APERTURE END LIST*
D10*
D11*
X143485714Y-77878571D02*
X143985714Y-77164286D01*
X144342857Y-77878571D02*
X144342857Y-76378571D01*
X143771429Y-76378571D01*
X143628571Y-76450000D01*
X143557143Y-76521429D01*
X143485714Y-76664286D01*
X143485714Y-76878571D01*
X143557143Y-77021429D01*
X143628571Y-77092857D01*
X143771429Y-77164286D01*
X144342857Y-77164286D01*
X142057143Y-77878571D02*
X142914286Y-77878571D01*
X142485714Y-77878571D02*
X142485714Y-76378571D01*
X142628571Y-76592857D01*
X142771429Y-76735714D01*
X142914286Y-76807143D01*
X141128572Y-76378571D02*
X140985715Y-76378571D01*
X140842858Y-76450000D01*
X140771429Y-76521429D01*
X140700000Y-76664286D01*
X140628572Y-76950000D01*
X140628572Y-77307143D01*
X140700000Y-77592857D01*
X140771429Y-77735714D01*
X140842858Y-77807143D01*
X140985715Y-77878571D01*
X141128572Y-77878571D01*
X141271429Y-77807143D01*
X141342858Y-77735714D01*
X141414286Y-77592857D01*
X141485715Y-77307143D01*
X141485715Y-76950000D01*
X141414286Y-76664286D01*
X141342858Y-76521429D01*
X141271429Y-76450000D01*
X141128572Y-76378571D01*
X139700001Y-76378571D02*
X139557144Y-76378571D01*
X139414287Y-76450000D01*
X139342858Y-76521429D01*
X139271429Y-76664286D01*
X139200001Y-76950000D01*
X139200001Y-77307143D01*
X139271429Y-77592857D01*
X139342858Y-77735714D01*
X139414287Y-77807143D01*
X139557144Y-77878571D01*
X139700001Y-77878571D01*
X139842858Y-77807143D01*
X139914287Y-77735714D01*
X139985715Y-77592857D01*
X140057144Y-77307143D01*
X140057144Y-76950000D01*
X139985715Y-76664286D01*
X139914287Y-76521429D01*
X139842858Y-76450000D01*
X139700001Y-76378571D01*
X138700001Y-76378571D02*
X137700001Y-76378571D01*
X138342858Y-77878571D01*
X136128573Y-76878571D02*
X135771430Y-77878571D01*
X135414288Y-76878571D01*
X134057145Y-77878571D02*
X134914288Y-77878571D01*
X134485716Y-77878571D02*
X134485716Y-76378571D01*
X134628573Y-76592857D01*
X134771431Y-76735714D01*
X134914288Y-76807143D01*
X133414288Y-77735714D02*
X133342860Y-77807143D01*
X133414288Y-77878571D01*
X133485717Y-77807143D01*
X133414288Y-77735714D01*
X133414288Y-77878571D01*
X132414288Y-76378571D02*
X132271431Y-76378571D01*
X132128574Y-76450000D01*
X132057145Y-76521429D01*
X131985716Y-76664286D01*
X131914288Y-76950000D01*
X131914288Y-77307143D01*
X131985716Y-77592857D01*
X132057145Y-77735714D01*
X132128574Y-77807143D01*
X132271431Y-77878571D01*
X132414288Y-77878571D01*
X132557145Y-77807143D01*
X132628574Y-77735714D01*
X132700002Y-77592857D01*
X132771431Y-77307143D01*
X132771431Y-76950000D01*
X132700002Y-76664286D01*
X132628574Y-76521429D01*
X132557145Y-76450000D01*
X132414288Y-76378571D01*
X131271431Y-77735714D02*
X131200003Y-77807143D01*
X131271431Y-77878571D01*
X131342860Y-77807143D01*
X131271431Y-77735714D01*
X131271431Y-77878571D01*
X130271431Y-76378571D02*
X130128574Y-76378571D01*
X129985717Y-76450000D01*
X129914288Y-76521429D01*
X129842859Y-76664286D01*
X129771431Y-76950000D01*
X129771431Y-77307143D01*
X129842859Y-77592857D01*
X129914288Y-77735714D01*
X129985717Y-77807143D01*
X130128574Y-77878571D01*
X130271431Y-77878571D01*
X130414288Y-77807143D01*
X130485717Y-77735714D01*
X130557145Y-77592857D01*
X130628574Y-77307143D01*
X130628574Y-76950000D01*
X130557145Y-76664286D01*
X130485717Y-76521429D01*
X130414288Y-76450000D01*
X130271431Y-76378571D01*
X143342857Y-80421429D02*
X143485714Y-80350000D01*
X143628571Y-80207143D01*
X143842857Y-79992857D01*
X143985714Y-79921429D01*
X144128571Y-79921429D01*
X144057143Y-80278571D02*
X144200000Y-80207143D01*
X144342857Y-80064286D01*
X144414286Y-79778571D01*
X144414286Y-79278571D01*
X144342857Y-78992857D01*
X144200000Y-78850000D01*
X144057143Y-78778571D01*
X143771429Y-78778571D01*
X143628571Y-78850000D01*
X143485714Y-78992857D01*
X143414286Y-79278571D01*
X143414286Y-79778571D01*
X143485714Y-80064286D01*
X143628571Y-80207143D01*
X143771429Y-80278571D01*
X144057143Y-80278571D01*
X142128571Y-79278571D02*
X142128571Y-80278571D01*
X142771428Y-79278571D02*
X142771428Y-80064286D01*
X142700000Y-80207143D01*
X142557142Y-80278571D01*
X142342857Y-80278571D01*
X142200000Y-80207143D01*
X142128571Y-80135714D01*
X140771428Y-80278571D02*
X140771428Y-79492857D01*
X140842857Y-79350000D01*
X140985714Y-79278571D01*
X141271428Y-79278571D01*
X141414285Y-79350000D01*
X140771428Y-80207143D02*
X140914285Y-80278571D01*
X141271428Y-80278571D01*
X141414285Y-80207143D01*
X141485714Y-80064286D01*
X141485714Y-79921429D01*
X141414285Y-79778571D01*
X141271428Y-79707143D01*
X140914285Y-79707143D01*
X140771428Y-79635714D01*
X139414285Y-80278571D02*
X139414285Y-78778571D01*
X139414285Y-80207143D02*
X139557142Y-80278571D01*
X139842856Y-80278571D01*
X139985714Y-80207143D01*
X140057142Y-80135714D01*
X140128571Y-79992857D01*
X140128571Y-79564286D01*
X140057142Y-79421429D01*
X139985714Y-79350000D01*
X139842856Y-79278571D01*
X139557142Y-79278571D01*
X139414285Y-79350000D01*
X137628571Y-78921429D02*
X137557142Y-78850000D01*
X137414285Y-78778571D01*
X137057142Y-78778571D01*
X136914285Y-78850000D01*
X136842856Y-78921429D01*
X136771428Y-79064286D01*
X136771428Y-79207143D01*
X136842856Y-79421429D01*
X137699999Y-80278571D01*
X136771428Y-80278571D01*
X135842857Y-78778571D02*
X135700000Y-78778571D01*
X135557143Y-78850000D01*
X135485714Y-78921429D01*
X135414285Y-79064286D01*
X135342857Y-79350000D01*
X135342857Y-79707143D01*
X135414285Y-79992857D01*
X135485714Y-80135714D01*
X135557143Y-80207143D01*
X135700000Y-80278571D01*
X135842857Y-80278571D01*
X135985714Y-80207143D01*
X136057143Y-80135714D01*
X136128571Y-79992857D01*
X136200000Y-79707143D01*
X136200000Y-79350000D01*
X136128571Y-79064286D01*
X136057143Y-78921429D01*
X135985714Y-78850000D01*
X135842857Y-78778571D01*
X134771429Y-79850000D02*
X134057143Y-79850000D01*
X134914286Y-80278571D02*
X134414286Y-78778571D01*
X133914286Y-80278571D01*
X132271429Y-80278571D02*
X132271429Y-78778571D01*
X131414286Y-80278571D01*
X131414286Y-78778571D01*
X130200000Y-79492857D02*
X130700000Y-79492857D01*
X130700000Y-80278571D02*
X130700000Y-78778571D01*
X129985714Y-78778571D01*
X129414286Y-79492857D02*
X128914286Y-79492857D01*
X128700000Y-80278571D02*
X129414286Y-80278571D01*
X129414286Y-78778571D01*
X128700000Y-78778571D01*
X128271429Y-78778571D02*
X127414286Y-78778571D01*
X127842857Y-80278571D02*
X127842857Y-78778571D01*
X125771429Y-80278571D02*
X125771429Y-78778571D01*
X125414286Y-78778571D01*
X125200001Y-78850000D01*
X125057143Y-78992857D01*
X124985715Y-79135714D01*
X124914286Y-79421429D01*
X124914286Y-79635714D01*
X124985715Y-79921429D01*
X125057143Y-80064286D01*
X125200001Y-80207143D01*
X125414286Y-80278571D01*
X125771429Y-80278571D01*
X124271429Y-80278571D02*
X124271429Y-79278571D01*
X124271429Y-79564286D02*
X124200001Y-79421429D01*
X124128572Y-79350000D01*
X123985715Y-79278571D01*
X123842858Y-79278571D01*
X123342858Y-80278571D02*
X123342858Y-79278571D01*
X123342858Y-78778571D02*
X123414287Y-78850000D01*
X123342858Y-78921429D01*
X123271430Y-78850000D01*
X123342858Y-78778571D01*
X123342858Y-78921429D01*
X122771429Y-79278571D02*
X122414286Y-80278571D01*
X122057144Y-79278571D01*
X120914287Y-80207143D02*
X121057144Y-80278571D01*
X121342858Y-80278571D01*
X121485715Y-80207143D01*
X121557144Y-80064286D01*
X121557144Y-79492857D01*
X121485715Y-79350000D01*
X121342858Y-79278571D01*
X121057144Y-79278571D01*
X120914287Y-79350000D01*
X120842858Y-79492857D01*
X120842858Y-79635714D01*
X121557144Y-79778571D01*
X120200001Y-80278571D02*
X120200001Y-79278571D01*
X120200001Y-79564286D02*
X120128573Y-79421429D01*
X120057144Y-79350000D01*
X119914287Y-79278571D01*
X119771430Y-79278571D01*
X119342859Y-80207143D02*
X119200002Y-80278571D01*
X118914287Y-80278571D01*
X118771430Y-80207143D01*
X118700002Y-80064286D01*
X118700002Y-79992857D01*
X118771430Y-79850000D01*
X118914287Y-79778571D01*
X119128573Y-79778571D01*
X119271430Y-79707143D01*
X119342859Y-79564286D01*
X119342859Y-79492857D01*
X119271430Y-79350000D01*
X119128573Y-79278571D01*
X118914287Y-79278571D01*
X118771430Y-79350000D01*
X144342857Y-81678571D02*
X144342857Y-83178571D01*
X144342857Y-81750000D02*
X144200000Y-81678571D01*
X143914286Y-81678571D01*
X143771429Y-81750000D01*
X143700000Y-81821429D01*
X143628571Y-81964286D01*
X143628571Y-82392857D01*
X143700000Y-82535714D01*
X143771429Y-82607143D01*
X143914286Y-82678571D01*
X144200000Y-82678571D01*
X144342857Y-82607143D01*
X142771428Y-82678571D02*
X142914286Y-82607143D01*
X142985714Y-82464286D01*
X142985714Y-81178571D01*
X141557143Y-81678571D02*
X141557143Y-82678571D01*
X142200000Y-81678571D02*
X142200000Y-82464286D01*
X142128572Y-82607143D01*
X141985714Y-82678571D01*
X141771429Y-82678571D01*
X141628572Y-82607143D01*
X141557143Y-82535714D01*
X140200000Y-81678571D02*
X140200000Y-82892857D01*
X140271429Y-83035714D01*
X140342857Y-83107143D01*
X140485714Y-83178571D01*
X140700000Y-83178571D01*
X140842857Y-83107143D01*
X140200000Y-82607143D02*
X140342857Y-82678571D01*
X140628571Y-82678571D01*
X140771429Y-82607143D01*
X140842857Y-82535714D01*
X140914286Y-82392857D01*
X140914286Y-81964286D01*
X140842857Y-81821429D01*
X140771429Y-81750000D01*
X140628571Y-81678571D01*
X140342857Y-81678571D01*
X140200000Y-81750000D01*
X138842857Y-81678571D02*
X138842857Y-82892857D01*
X138914286Y-83035714D01*
X138985714Y-83107143D01*
X139128571Y-83178571D01*
X139342857Y-83178571D01*
X139485714Y-83107143D01*
X138842857Y-82607143D02*
X138985714Y-82678571D01*
X139271428Y-82678571D01*
X139414286Y-82607143D01*
X139485714Y-82535714D01*
X139557143Y-82392857D01*
X139557143Y-81964286D01*
X139485714Y-81821429D01*
X139414286Y-81750000D01*
X139271428Y-81678571D01*
X138985714Y-81678571D01*
X138842857Y-81750000D01*
X138128571Y-82535714D02*
X138057143Y-82607143D01*
X138128571Y-82678571D01*
X138200000Y-82607143D01*
X138128571Y-82535714D01*
X138128571Y-82678571D01*
X136842857Y-82607143D02*
X136985714Y-82678571D01*
X137271428Y-82678571D01*
X137414285Y-82607143D01*
X137485714Y-82464286D01*
X137485714Y-81892857D01*
X137414285Y-81750000D01*
X137271428Y-81678571D01*
X136985714Y-81678571D01*
X136842857Y-81750000D01*
X136771428Y-81892857D01*
X136771428Y-82035714D01*
X137485714Y-82178571D01*
X135557143Y-82607143D02*
X135700000Y-82678571D01*
X135985714Y-82678571D01*
X136128571Y-82607143D01*
X136200000Y-82464286D01*
X136200000Y-81892857D01*
X136128571Y-81750000D01*
X135985714Y-81678571D01*
X135700000Y-81678571D01*
X135557143Y-81750000D01*
X135485714Y-81892857D01*
X135485714Y-82035714D01*
X136200000Y-82178571D01*
X132985714Y-82678571D02*
X133700000Y-82678571D01*
X133700000Y-81178571D01*
X131842857Y-82678571D02*
X131842857Y-81892857D01*
X131914286Y-81750000D01*
X132057143Y-81678571D01*
X132342857Y-81678571D01*
X132485714Y-81750000D01*
X131842857Y-82607143D02*
X131985714Y-82678571D01*
X132342857Y-82678571D01*
X132485714Y-82607143D01*
X132557143Y-82464286D01*
X132557143Y-82321429D01*
X132485714Y-82178571D01*
X132342857Y-82107143D01*
X131985714Y-82107143D01*
X131842857Y-82035714D01*
X131128571Y-82678571D02*
X131128571Y-81178571D01*
X131128571Y-81750000D02*
X130985714Y-81678571D01*
X130700000Y-81678571D01*
X130557143Y-81750000D01*
X130485714Y-81821429D01*
X130414285Y-81964286D01*
X130414285Y-82392857D01*
X130485714Y-82535714D01*
X130557143Y-82607143D01*
X130700000Y-82678571D01*
X130985714Y-82678571D01*
X131128571Y-82607143D01*
X129842857Y-82607143D02*
X129700000Y-82678571D01*
X129414285Y-82678571D01*
X129271428Y-82607143D01*
X129200000Y-82464286D01*
X129200000Y-82392857D01*
X129271428Y-82250000D01*
X129414285Y-82178571D01*
X129628571Y-82178571D01*
X129771428Y-82107143D01*
X129842857Y-81964286D01*
X129842857Y-81892857D01*
X129771428Y-81750000D01*
X129628571Y-81678571D01*
X129414285Y-81678571D01*
X129271428Y-81750000D01*
X127485714Y-81321429D02*
X127414285Y-81250000D01*
X127271428Y-81178571D01*
X126914285Y-81178571D01*
X126771428Y-81250000D01*
X126699999Y-81321429D01*
X126628571Y-81464286D01*
X126628571Y-81607143D01*
X126699999Y-81821429D01*
X127557142Y-82678571D01*
X126628571Y-82678571D01*
X125700000Y-81178571D02*
X125557143Y-81178571D01*
X125414286Y-81250000D01*
X125342857Y-81321429D01*
X125271428Y-81464286D01*
X125200000Y-81750000D01*
X125200000Y-82107143D01*
X125271428Y-82392857D01*
X125342857Y-82535714D01*
X125414286Y-82607143D01*
X125557143Y-82678571D01*
X125700000Y-82678571D01*
X125842857Y-82607143D01*
X125914286Y-82535714D01*
X125985714Y-82392857D01*
X126057143Y-82107143D01*
X126057143Y-81750000D01*
X125985714Y-81464286D01*
X125914286Y-81321429D01*
X125842857Y-81250000D01*
X125700000Y-81178571D01*
X123771429Y-82678571D02*
X124628572Y-82678571D01*
X124200000Y-82678571D02*
X124200000Y-81178571D01*
X124342857Y-81392857D01*
X124485715Y-81535714D01*
X124628572Y-81607143D01*
X122485715Y-81178571D02*
X122771429Y-81178571D01*
X122914286Y-81250000D01*
X122985715Y-81321429D01*
X123128572Y-81535714D01*
X123200001Y-81821429D01*
X123200001Y-82392857D01*
X123128572Y-82535714D01*
X123057144Y-82607143D01*
X122914286Y-82678571D01*
X122628572Y-82678571D01*
X122485715Y-82607143D01*
X122414286Y-82535714D01*
X122342858Y-82392857D01*
X122342858Y-82035714D01*
X122414286Y-81892857D01*
X122485715Y-81821429D01*
X122628572Y-81750000D01*
X122914286Y-81750000D01*
X123057144Y-81821429D01*
X123128572Y-81892857D01*
X123200001Y-82035714D01*
X144342857Y-85078571D02*
X144342857Y-83578571D01*
X143700000Y-85078571D02*
X143700000Y-84292857D01*
X143771429Y-84150000D01*
X143914286Y-84078571D01*
X144128571Y-84078571D01*
X144271429Y-84150000D01*
X144342857Y-84221429D01*
X143200000Y-84078571D02*
X142628571Y-84078571D01*
X142985714Y-83578571D02*
X142985714Y-84864286D01*
X142914286Y-85007143D01*
X142771428Y-85078571D01*
X142628571Y-85078571D01*
X142342857Y-84078571D02*
X141771428Y-84078571D01*
X142128571Y-83578571D02*
X142128571Y-84864286D01*
X142057143Y-85007143D01*
X141914285Y-85078571D01*
X141771428Y-85078571D01*
X141271428Y-84078571D02*
X141271428Y-85578571D01*
X141271428Y-84150000D02*
X141128571Y-84078571D01*
X140842857Y-84078571D01*
X140700000Y-84150000D01*
X140628571Y-84221429D01*
X140557142Y-84364286D01*
X140557142Y-84792857D01*
X140628571Y-84935714D01*
X140700000Y-85007143D01*
X140842857Y-85078571D01*
X141128571Y-85078571D01*
X141271428Y-85007143D01*
X139914285Y-84935714D02*
X139842857Y-85007143D01*
X139914285Y-85078571D01*
X139985714Y-85007143D01*
X139914285Y-84935714D01*
X139914285Y-85078571D01*
X139914285Y-84150000D02*
X139842857Y-84221429D01*
X139914285Y-84292857D01*
X139985714Y-84221429D01*
X139914285Y-84150000D01*
X139914285Y-84292857D01*
X138128571Y-83507143D02*
X139414285Y-85435714D01*
X136557142Y-83507143D02*
X137842856Y-85435714D01*
X136057141Y-84078571D02*
X136057141Y-85578571D01*
X136057141Y-84150000D02*
X135914284Y-84078571D01*
X135628570Y-84078571D01*
X135485713Y-84150000D01*
X135414284Y-84221429D01*
X135342855Y-84364286D01*
X135342855Y-84792857D01*
X135414284Y-84935714D01*
X135485713Y-85007143D01*
X135628570Y-85078571D01*
X135914284Y-85078571D01*
X136057141Y-85007143D01*
X134485712Y-85078571D02*
X134628570Y-85007143D01*
X134699998Y-84864286D01*
X134699998Y-83578571D01*
X133271427Y-84078571D02*
X133271427Y-85078571D01*
X133914284Y-84078571D02*
X133914284Y-84864286D01*
X133842856Y-85007143D01*
X133699998Y-85078571D01*
X133485713Y-85078571D01*
X133342856Y-85007143D01*
X133271427Y-84935714D01*
X131914284Y-84078571D02*
X131914284Y-85292857D01*
X131985713Y-85435714D01*
X132057141Y-85507143D01*
X132199998Y-85578571D01*
X132414284Y-85578571D01*
X132557141Y-85507143D01*
X131914284Y-85007143D02*
X132057141Y-85078571D01*
X132342855Y-85078571D01*
X132485713Y-85007143D01*
X132557141Y-84935714D01*
X132628570Y-84792857D01*
X132628570Y-84364286D01*
X132557141Y-84221429D01*
X132485713Y-84150000D01*
X132342855Y-84078571D01*
X132057141Y-84078571D01*
X131914284Y-84150000D01*
X130557141Y-84078571D02*
X130557141Y-85292857D01*
X130628570Y-85435714D01*
X130699998Y-85507143D01*
X130842855Y-85578571D01*
X131057141Y-85578571D01*
X131199998Y-85507143D01*
X130557141Y-85007143D02*
X130699998Y-85078571D01*
X130985712Y-85078571D01*
X131128570Y-85007143D01*
X131199998Y-84935714D01*
X131271427Y-84792857D01*
X131271427Y-84364286D01*
X131199998Y-84221429D01*
X131128570Y-84150000D01*
X130985712Y-84078571D01*
X130699998Y-84078571D01*
X130557141Y-84150000D01*
X129842855Y-84935714D02*
X129771427Y-85007143D01*
X129842855Y-85078571D01*
X129914284Y-85007143D01*
X129842855Y-84935714D01*
X129842855Y-85078571D01*
X128557141Y-85007143D02*
X128699998Y-85078571D01*
X128985712Y-85078571D01*
X129128569Y-85007143D01*
X129199998Y-84864286D01*
X129199998Y-84292857D01*
X129128569Y-84150000D01*
X128985712Y-84078571D01*
X128699998Y-84078571D01*
X128557141Y-84150000D01*
X128485712Y-84292857D01*
X128485712Y-84435714D01*
X129199998Y-84578571D01*
X127271427Y-85007143D02*
X127414284Y-85078571D01*
X127699998Y-85078571D01*
X127842855Y-85007143D01*
X127914284Y-84864286D01*
X127914284Y-84292857D01*
X127842855Y-84150000D01*
X127699998Y-84078571D01*
X127414284Y-84078571D01*
X127271427Y-84150000D01*
X127199998Y-84292857D01*
X127199998Y-84435714D01*
X127914284Y-84578571D01*
D12*
G36*
X154113853Y-86869638D02*
X154275154Y-86828180D01*
X154477877Y-86763566D01*
X154704988Y-86682105D01*
X154939449Y-86590106D01*
X155164227Y-86493878D01*
X155302081Y-86429620D01*
X155853760Y-86126006D01*
X156366624Y-85771168D01*
X156837687Y-85368508D01*
X157263962Y-84921427D01*
X157642463Y-84433324D01*
X157970204Y-83907601D01*
X158244197Y-83347658D01*
X158423251Y-82875655D01*
X158593985Y-82265050D01*
X158701482Y-81655397D01*
X158747902Y-81050079D01*
X158735402Y-80452484D01*
X158666142Y-79865997D01*
X158542281Y-79294003D01*
X158365977Y-78739888D01*
X158139389Y-78207037D01*
X157864676Y-77698836D01*
X157543996Y-77218670D01*
X157179509Y-76769925D01*
X156773372Y-76355987D01*
X156327746Y-75980241D01*
X155844788Y-75646072D01*
X155326658Y-75356866D01*
X154775514Y-75116009D01*
X154193515Y-74926886D01*
X153582819Y-74792882D01*
X153238273Y-74744219D01*
X153085140Y-74730823D01*
X152892387Y-74719909D01*
X152685848Y-74712681D01*
X152509987Y-74710321D01*
X152076289Y-74710052D01*
X152076289Y-76739433D01*
X152002642Y-76739726D01*
X151914861Y-76753593D01*
X151783965Y-76790781D01*
X151625425Y-76845399D01*
X151454710Y-76911556D01*
X151287291Y-76983362D01*
X151138637Y-77054926D01*
X151057654Y-77099560D01*
X150869292Y-77228664D01*
X150665361Y-77397170D01*
X150463634Y-77588142D01*
X150281888Y-77784645D01*
X150137897Y-77969746D01*
X150126332Y-77986866D01*
X149911229Y-78367887D01*
X149755488Y-78775122D01*
X149658473Y-79210416D01*
X149633959Y-79414248D01*
X149612363Y-79652578D01*
X151192526Y-79652578D01*
X151192526Y-81158248D01*
X151912629Y-81158248D01*
X151912629Y-79652578D01*
X153254639Y-79652578D01*
X153254639Y-81158248D01*
X153942011Y-81158248D01*
X153942011Y-79652578D01*
X155545877Y-79652578D01*
X155545877Y-79542304D01*
X155536449Y-79408747D01*
X155510955Y-79234032D01*
X155473577Y-79039252D01*
X155428496Y-78845503D01*
X155379895Y-78673879D01*
X155364630Y-78628073D01*
X155206514Y-78266081D01*
X154991364Y-77925388D01*
X154732146Y-77617354D01*
X154415342Y-77324169D01*
X154073599Y-77084346D01*
X153713357Y-76901660D01*
X153341058Y-76779885D01*
X153279188Y-76765965D01*
X153090980Y-76726336D01*
X153090980Y-75759111D01*
X153180993Y-75773779D01*
X153551181Y-75840306D01*
X153872721Y-75912849D01*
X154162419Y-75996462D01*
X154437083Y-76096195D01*
X154713521Y-76217100D01*
X154809408Y-76263195D01*
X155323336Y-76550375D01*
X155793576Y-76885569D01*
X156218332Y-77266491D01*
X156595807Y-77690850D01*
X156924205Y-78156357D01*
X157201731Y-78660723D01*
X157426587Y-79201659D01*
X157596978Y-79776876D01*
X157610125Y-79832604D01*
X157640472Y-79987556D01*
X157663466Y-80162910D01*
X157680385Y-80372085D01*
X157692508Y-80628500D01*
X157695880Y-80732732D01*
X157701563Y-80967371D01*
X157702530Y-81153748D01*
X157697913Y-81308952D01*
X157686842Y-81450072D01*
X157668447Y-81594196D01*
X157644465Y-81743211D01*
X157515236Y-82309979D01*
X157326601Y-82851948D01*
X157081014Y-83365383D01*
X156780928Y-83846547D01*
X156428797Y-84291706D01*
X156027077Y-84697124D01*
X155578220Y-85059065D01*
X155374799Y-85198149D01*
X155106686Y-85359399D01*
X154817100Y-85511076D01*
X154528834Y-85642090D01*
X154264683Y-85741354D01*
X154245369Y-85747562D01*
X154008649Y-85822552D01*
X154007475Y-86891542D01*
X154113853Y-86869638D01*
X154113853Y-86869638D01*
G37*
X154113853Y-86869638D02*
X154275154Y-86828180D01*
X154477877Y-86763566D01*
X154704988Y-86682105D01*
X154939449Y-86590106D01*
X155164227Y-86493878D01*
X155302081Y-86429620D01*
X155853760Y-86126006D01*
X156366624Y-85771168D01*
X156837687Y-85368508D01*
X157263962Y-84921427D01*
X157642463Y-84433324D01*
X157970204Y-83907601D01*
X158244197Y-83347658D01*
X158423251Y-82875655D01*
X158593985Y-82265050D01*
X158701482Y-81655397D01*
X158747902Y-81050079D01*
X158735402Y-80452484D01*
X158666142Y-79865997D01*
X158542281Y-79294003D01*
X158365977Y-78739888D01*
X158139389Y-78207037D01*
X157864676Y-77698836D01*
X157543996Y-77218670D01*
X157179509Y-76769925D01*
X156773372Y-76355987D01*
X156327746Y-75980241D01*
X155844788Y-75646072D01*
X155326658Y-75356866D01*
X154775514Y-75116009D01*
X154193515Y-74926886D01*
X153582819Y-74792882D01*
X153238273Y-74744219D01*
X153085140Y-74730823D01*
X152892387Y-74719909D01*
X152685848Y-74712681D01*
X152509987Y-74710321D01*
X152076289Y-74710052D01*
X152076289Y-76739433D01*
X152002642Y-76739726D01*
X151914861Y-76753593D01*
X151783965Y-76790781D01*
X151625425Y-76845399D01*
X151454710Y-76911556D01*
X151287291Y-76983362D01*
X151138637Y-77054926D01*
X151057654Y-77099560D01*
X150869292Y-77228664D01*
X150665361Y-77397170D01*
X150463634Y-77588142D01*
X150281888Y-77784645D01*
X150137897Y-77969746D01*
X150126332Y-77986866D01*
X149911229Y-78367887D01*
X149755488Y-78775122D01*
X149658473Y-79210416D01*
X149633959Y-79414248D01*
X149612363Y-79652578D01*
X151192526Y-79652578D01*
X151192526Y-81158248D01*
X151912629Y-81158248D01*
X151912629Y-79652578D01*
X153254639Y-79652578D01*
X153254639Y-81158248D01*
X153942011Y-81158248D01*
X153942011Y-79652578D01*
X155545877Y-79652578D01*
X155545877Y-79542304D01*
X155536449Y-79408747D01*
X155510955Y-79234032D01*
X155473577Y-79039252D01*
X155428496Y-78845503D01*
X155379895Y-78673879D01*
X155364630Y-78628073D01*
X155206514Y-78266081D01*
X154991364Y-77925388D01*
X154732146Y-77617354D01*
X154415342Y-77324169D01*
X154073599Y-77084346D01*
X153713357Y-76901660D01*
X153341058Y-76779885D01*
X153279188Y-76765965D01*
X153090980Y-76726336D01*
X153090980Y-75759111D01*
X153180993Y-75773779D01*
X153551181Y-75840306D01*
X153872721Y-75912849D01*
X154162419Y-75996462D01*
X154437083Y-76096195D01*
X154713521Y-76217100D01*
X154809408Y-76263195D01*
X155323336Y-76550375D01*
X155793576Y-76885569D01*
X156218332Y-77266491D01*
X156595807Y-77690850D01*
X156924205Y-78156357D01*
X157201731Y-78660723D01*
X157426587Y-79201659D01*
X157596978Y-79776876D01*
X157610125Y-79832604D01*
X157640472Y-79987556D01*
X157663466Y-80162910D01*
X157680385Y-80372085D01*
X157692508Y-80628500D01*
X157695880Y-80732732D01*
X157701563Y-80967371D01*
X157702530Y-81153748D01*
X157697913Y-81308952D01*
X157686842Y-81450072D01*
X157668447Y-81594196D01*
X157644465Y-81743211D01*
X157515236Y-82309979D01*
X157326601Y-82851948D01*
X157081014Y-83365383D01*
X156780928Y-83846547D01*
X156428797Y-84291706D01*
X156027077Y-84697124D01*
X155578220Y-85059065D01*
X155374799Y-85198149D01*
X155106686Y-85359399D01*
X154817100Y-85511076D01*
X154528834Y-85642090D01*
X154264683Y-85741354D01*
X154245369Y-85747562D01*
X154008649Y-85822552D01*
X154007475Y-86891542D01*
X154113853Y-86869638D01*
G36*
X153098683Y-86052310D02*
X153107346Y-85045887D01*
X153342311Y-84986228D01*
X153744530Y-84851379D01*
X154117037Y-84661253D01*
X154455661Y-84420849D01*
X154756232Y-84135165D01*
X155014580Y-83809200D01*
X155226535Y-83447952D01*
X155387928Y-83056420D01*
X155494588Y-82639602D01*
X155532266Y-82361147D01*
X155554906Y-82107475D01*
X149612939Y-82107475D01*
X149636098Y-82372964D01*
X149704541Y-82799902D01*
X149830966Y-83205648D01*
X150011064Y-83585060D01*
X150240526Y-83932993D01*
X150515046Y-84244305D01*
X150830315Y-84513853D01*
X151182025Y-84736492D01*
X151565868Y-84907081D01*
X151824958Y-84986201D01*
X152059923Y-85045832D01*
X152068999Y-85527399D01*
X152078076Y-86008967D01*
X151905339Y-85986804D01*
X151500820Y-85913926D01*
X151077617Y-85799690D01*
X150660440Y-85651752D01*
X150292397Y-85487060D01*
X149787362Y-85197767D01*
X149323371Y-84858961D01*
X148903110Y-84474180D01*
X148529266Y-84046960D01*
X148204523Y-83580836D01*
X147931568Y-83079346D01*
X147713086Y-82546025D01*
X147551764Y-81984411D01*
X147520018Y-81836708D01*
X147474257Y-81532266D01*
X147448001Y-81187289D01*
X147441250Y-80823736D01*
X147454006Y-80463563D01*
X147486266Y-80128725D01*
X147520018Y-79923345D01*
X147666101Y-79355827D01*
X147870746Y-78813079D01*
X148131490Y-78299549D01*
X148445873Y-77819683D01*
X148811433Y-77377931D01*
X149074617Y-77113996D01*
X149388586Y-76849311D01*
X149743522Y-76598242D01*
X150121710Y-76371307D01*
X150505433Y-76179023D01*
X150876976Y-76031908D01*
X150922487Y-76016960D01*
X151159794Y-75940981D01*
X151159794Y-75407346D01*
X151159249Y-75205283D01*
X151156359Y-75060172D01*
X151149242Y-74963504D01*
X151136013Y-74906772D01*
X151114790Y-74881464D01*
X151083690Y-74879071D01*
X151045232Y-74889632D01*
X151002795Y-74903338D01*
X150911458Y-74932707D01*
X150784661Y-74973418D01*
X150636083Y-75021079D01*
X150054997Y-75240989D01*
X149505587Y-75516195D01*
X148990831Y-75843151D01*
X148513709Y-76218314D01*
X148077199Y-76638141D01*
X147684280Y-77099088D01*
X147337931Y-77597610D01*
X147041131Y-78130163D01*
X146796858Y-78693205D01*
X146608091Y-79283190D01*
X146477809Y-79896576D01*
X146464409Y-79984098D01*
X146437829Y-80229619D01*
X146421282Y-80519287D01*
X146414770Y-80832560D01*
X146418291Y-81148897D01*
X146431845Y-81447753D01*
X146455434Y-81708586D01*
X146464409Y-81775954D01*
X146586750Y-82394564D01*
X146768066Y-82988873D01*
X147005378Y-83555724D01*
X147295706Y-84091962D01*
X147636070Y-84594429D01*
X148023491Y-85059970D01*
X148454989Y-85485429D01*
X148927583Y-85867649D01*
X149438295Y-86203473D01*
X149984146Y-86489747D01*
X150562154Y-86723312D01*
X151169340Y-86901014D01*
X151338752Y-86939186D01*
X151499289Y-86970624D01*
X151652883Y-86994459D01*
X151814994Y-87012153D01*
X152001082Y-87025166D01*
X152226607Y-87034959D01*
X152411312Y-87040550D01*
X153090021Y-87058732D01*
X153098683Y-86052310D01*
X153098683Y-86052310D01*
G37*
X153098683Y-86052310D02*
X153107346Y-85045887D01*
X153342311Y-84986228D01*
X153744530Y-84851379D01*
X154117037Y-84661253D01*
X154455661Y-84420849D01*
X154756232Y-84135165D01*
X155014580Y-83809200D01*
X155226535Y-83447952D01*
X155387928Y-83056420D01*
X155494588Y-82639602D01*
X155532266Y-82361147D01*
X155554906Y-82107475D01*
X149612939Y-82107475D01*
X149636098Y-82372964D01*
X149704541Y-82799902D01*
X149830966Y-83205648D01*
X150011064Y-83585060D01*
X150240526Y-83932993D01*
X150515046Y-84244305D01*
X150830315Y-84513853D01*
X151182025Y-84736492D01*
X151565868Y-84907081D01*
X151824958Y-84986201D01*
X152059923Y-85045832D01*
X152068999Y-85527399D01*
X152078076Y-86008967D01*
X151905339Y-85986804D01*
X151500820Y-85913926D01*
X151077617Y-85799690D01*
X150660440Y-85651752D01*
X150292397Y-85487060D01*
X149787362Y-85197767D01*
X149323371Y-84858961D01*
X148903110Y-84474180D01*
X148529266Y-84046960D01*
X148204523Y-83580836D01*
X147931568Y-83079346D01*
X147713086Y-82546025D01*
X147551764Y-81984411D01*
X147520018Y-81836708D01*
X147474257Y-81532266D01*
X147448001Y-81187289D01*
X147441250Y-80823736D01*
X147454006Y-80463563D01*
X147486266Y-80128725D01*
X147520018Y-79923345D01*
X147666101Y-79355827D01*
X147870746Y-78813079D01*
X148131490Y-78299549D01*
X148445873Y-77819683D01*
X148811433Y-77377931D01*
X149074617Y-77113996D01*
X149388586Y-76849311D01*
X149743522Y-76598242D01*
X150121710Y-76371307D01*
X150505433Y-76179023D01*
X150876976Y-76031908D01*
X150922487Y-76016960D01*
X151159794Y-75940981D01*
X151159794Y-75407346D01*
X151159249Y-75205283D01*
X151156359Y-75060172D01*
X151149242Y-74963504D01*
X151136013Y-74906772D01*
X151114790Y-74881464D01*
X151083690Y-74879071D01*
X151045232Y-74889632D01*
X151002795Y-74903338D01*
X150911458Y-74932707D01*
X150784661Y-74973418D01*
X150636083Y-75021079D01*
X150054997Y-75240989D01*
X149505587Y-75516195D01*
X148990831Y-75843151D01*
X148513709Y-76218314D01*
X148077199Y-76638141D01*
X147684280Y-77099088D01*
X147337931Y-77597610D01*
X147041131Y-78130163D01*
X146796858Y-78693205D01*
X146608091Y-79283190D01*
X146477809Y-79896576D01*
X146464409Y-79984098D01*
X146437829Y-80229619D01*
X146421282Y-80519287D01*
X146414770Y-80832560D01*
X146418291Y-81148897D01*
X146431845Y-81447753D01*
X146455434Y-81708586D01*
X146464409Y-81775954D01*
X146586750Y-82394564D01*
X146768066Y-82988873D01*
X147005378Y-83555724D01*
X147295706Y-84091962D01*
X147636070Y-84594429D01*
X148023491Y-85059970D01*
X148454989Y-85485429D01*
X148927583Y-85867649D01*
X149438295Y-86203473D01*
X149984146Y-86489747D01*
X150562154Y-86723312D01*
X151169340Y-86901014D01*
X151338752Y-86939186D01*
X151499289Y-86970624D01*
X151652883Y-86994459D01*
X151814994Y-87012153D01*
X152001082Y-87025166D01*
X152226607Y-87034959D01*
X152411312Y-87040550D01*
X153090021Y-87058732D01*
X153098683Y-86052310D01*
G36*
X139702843Y-90808527D02*
X135108527Y-90808527D01*
X135108527Y-94746511D01*
X135764858Y-94746511D01*
X135764858Y-91464858D01*
X139046512Y-91464858D01*
X139046512Y-94746511D01*
X135764858Y-94746511D01*
X135108527Y-94746511D01*
X135108527Y-95402842D01*
X139702843Y-95402842D01*
X139702843Y-90808527D01*
X139702843Y-90808527D01*
G37*
X139702843Y-90808527D02*
X135108527Y-90808527D01*
X135108527Y-94746511D01*
X135764858Y-94746511D01*
X135764858Y-91464858D01*
X139046512Y-91464858D01*
X139046512Y-94746511D01*
X135764858Y-94746511D01*
X135108527Y-94746511D01*
X135108527Y-95402842D01*
X139702843Y-95402842D01*
X139702843Y-90808527D01*
G36*
X141671835Y-91464858D02*
X142328166Y-91464858D01*
X142328166Y-90808527D01*
X140359173Y-90808527D01*
X140359173Y-92121188D01*
X141015504Y-92121188D01*
X141015504Y-92777519D01*
X141671835Y-92777519D01*
X141671835Y-91464858D01*
X141671835Y-91464858D01*
G37*
X141671835Y-91464858D02*
X142328166Y-91464858D01*
X142328166Y-90808527D01*
X140359173Y-90808527D01*
X140359173Y-92121188D01*
X141015504Y-92121188D01*
X141015504Y-92777519D01*
X141671835Y-92777519D01*
X141671835Y-91464858D01*
G36*
X146922481Y-91464858D02*
X146266150Y-91464858D01*
X146266150Y-92121188D01*
X146922481Y-92121188D01*
X146922481Y-91464858D01*
X146922481Y-91464858D01*
G37*
X146922481Y-91464858D02*
X146266150Y-91464858D01*
X146266150Y-92121188D01*
X146922481Y-92121188D01*
X146922481Y-91464858D01*
G36*
X147578812Y-93433850D02*
X148891473Y-93433850D01*
X148891473Y-92121188D01*
X148235142Y-92121188D01*
X148235142Y-92777519D01*
X147578812Y-92777519D01*
X147578812Y-93433850D01*
X147578812Y-93433850D01*
G37*
X147578812Y-93433850D02*
X148891473Y-93433850D01*
X148891473Y-92121188D01*
X148235142Y-92121188D01*
X148235142Y-92777519D01*
X147578812Y-92777519D01*
X147578812Y-93433850D01*
G36*
X141015504Y-92777519D02*
X140359173Y-92777519D01*
X140359173Y-93433850D01*
X141015504Y-93433850D01*
X141015504Y-92777519D01*
X141015504Y-92777519D01*
G37*
X141015504Y-92777519D02*
X140359173Y-92777519D01*
X140359173Y-93433850D01*
X141015504Y-93433850D01*
X141015504Y-92777519D01*
G36*
X148891473Y-94090181D02*
X148235142Y-94090181D01*
X148235142Y-94746511D01*
X148891473Y-94746511D01*
X148891473Y-94090181D01*
X148891473Y-94090181D01*
G37*
X148891473Y-94090181D02*
X148235142Y-94090181D01*
X148235142Y-94746511D01*
X148891473Y-94746511D01*
X148891473Y-94090181D01*
G36*
X148891473Y-95402842D02*
X148235142Y-95402842D01*
X148235142Y-96059173D01*
X148891473Y-96059173D01*
X148891473Y-95402842D01*
X148891473Y-95402842D01*
G37*
X148891473Y-95402842D02*
X148235142Y-95402842D01*
X148235142Y-96059173D01*
X148891473Y-96059173D01*
X148891473Y-95402842D01*
G36*
X148891473Y-96715504D02*
X147578812Y-96715504D01*
X147578812Y-97371834D01*
X148235142Y-97371834D01*
X148235142Y-98684496D01*
X148891473Y-98684496D01*
X148891473Y-96715504D01*
X148891473Y-96715504D01*
G37*
X148891473Y-96715504D02*
X147578812Y-96715504D01*
X147578812Y-97371834D01*
X148235142Y-97371834D01*
X148235142Y-98684496D01*
X148891473Y-98684496D01*
X148891473Y-96715504D01*
G36*
X136421189Y-98684496D02*
X135764858Y-98684496D01*
X135764858Y-97371834D01*
X135108527Y-97371834D01*
X135108527Y-99340827D01*
X136421189Y-99340827D01*
X136421189Y-98684496D01*
X136421189Y-98684496D01*
G37*
X136421189Y-98684496D02*
X135764858Y-98684496D01*
X135764858Y-97371834D01*
X135108527Y-97371834D01*
X135108527Y-99340827D01*
X136421189Y-99340827D01*
X136421189Y-98684496D01*
G36*
X147578812Y-97371834D02*
X146922481Y-97371834D01*
X146922481Y-98028165D01*
X147578812Y-98028165D01*
X147578812Y-97371834D01*
X147578812Y-97371834D01*
G37*
X147578812Y-97371834D02*
X146922481Y-97371834D01*
X146922481Y-98028165D01*
X147578812Y-98028165D01*
X147578812Y-97371834D01*
G36*
X148235142Y-98684496D02*
X146922481Y-98684496D01*
X146922481Y-99340827D01*
X148235142Y-99340827D01*
X148235142Y-98684496D01*
X148235142Y-98684496D01*
G37*
X148235142Y-98684496D02*
X146922481Y-98684496D01*
X146922481Y-99340827D01*
X148235142Y-99340827D01*
X148235142Y-98684496D01*
G36*
X143640827Y-99997157D02*
X142984496Y-99997157D01*
X142984496Y-100653488D01*
X143640827Y-100653488D01*
X143640827Y-99997157D01*
X143640827Y-99997157D01*
G37*
X143640827Y-99997157D02*
X142984496Y-99997157D01*
X142984496Y-100653488D01*
X143640827Y-100653488D01*
X143640827Y-99997157D01*
G36*
X142984496Y-100653488D02*
X142328166Y-100653488D01*
X142328166Y-101309819D01*
X142984496Y-101309819D01*
X142984496Y-100653488D01*
X142984496Y-100653488D01*
G37*
X142984496Y-100653488D02*
X142328166Y-100653488D01*
X142328166Y-101309819D01*
X142984496Y-101309819D01*
X142984496Y-100653488D01*
G36*
X141671835Y-101966150D02*
X141015504Y-101966150D01*
X141015504Y-102622480D01*
X140359173Y-102622480D01*
X140359173Y-103935142D01*
X141015504Y-103935142D01*
X141015504Y-104591473D01*
X141671835Y-104591473D01*
X141671835Y-101966150D01*
X141671835Y-101966150D01*
G37*
X141671835Y-101966150D02*
X141015504Y-101966150D01*
X141015504Y-102622480D01*
X140359173Y-102622480D01*
X140359173Y-103935142D01*
X141015504Y-103935142D01*
X141015504Y-104591473D01*
X141671835Y-104591473D01*
X141671835Y-101966150D01*
G36*
X136421189Y-96715504D02*
X137077520Y-96715504D01*
X137077520Y-96059173D01*
X135108527Y-96059173D01*
X135108527Y-96715504D01*
X135764858Y-96715504D01*
X135764858Y-97371834D01*
X136421189Y-97371834D01*
X136421189Y-96715504D01*
X136421189Y-96715504D01*
G37*
X136421189Y-96715504D02*
X137077520Y-96715504D01*
X137077520Y-96059173D01*
X135108527Y-96059173D01*
X135108527Y-96715504D01*
X135764858Y-96715504D01*
X135764858Y-97371834D01*
X136421189Y-97371834D01*
X136421189Y-96715504D01*
G36*
X147578812Y-92121188D02*
X146922481Y-92121188D01*
X146922481Y-92777519D01*
X147578812Y-92777519D01*
X147578812Y-92121188D01*
X147578812Y-92121188D01*
G37*
X147578812Y-92121188D02*
X146922481Y-92121188D01*
X146922481Y-92777519D01*
X147578812Y-92777519D01*
X147578812Y-92121188D01*
G36*
X148235142Y-95402842D02*
X148235142Y-94746511D01*
X146266150Y-94746511D01*
X146266150Y-94090181D01*
X146922481Y-94090181D01*
X146922481Y-93433850D01*
X146266150Y-93433850D01*
X146266150Y-92121188D01*
X145609819Y-92121188D01*
X145609819Y-91464858D01*
X144953489Y-91464858D01*
X144953489Y-90808527D01*
X144297158Y-90808527D01*
X144297158Y-91464858D01*
X143640827Y-91464858D01*
X143640827Y-90808527D01*
X142984496Y-90808527D01*
X142984496Y-92121188D01*
X144297158Y-92121188D01*
X144297158Y-91464858D01*
X144953489Y-91464858D01*
X144953489Y-92121188D01*
X144297158Y-92121188D01*
X142984496Y-92121188D01*
X142328166Y-92121188D01*
X142328166Y-92777519D01*
X142984496Y-92777519D01*
X142984496Y-93433850D01*
X142328166Y-93433850D01*
X142328166Y-94090181D01*
X142984496Y-94090181D01*
X142984496Y-94746511D01*
X141671835Y-94746511D01*
X141671835Y-93433850D01*
X141015504Y-93433850D01*
X141015504Y-94746511D01*
X140359173Y-94746511D01*
X140359173Y-95402842D01*
X141015504Y-95402842D01*
X141015504Y-94746511D01*
X141671835Y-94746511D01*
X141671835Y-95402842D01*
X141015504Y-95402842D01*
X140359173Y-95402842D01*
X140359173Y-96059173D01*
X138390181Y-96059173D01*
X138390181Y-97371834D01*
X139046512Y-97371834D01*
X139046512Y-96715504D01*
X139702843Y-96715504D01*
X139702843Y-97371834D01*
X139046512Y-97371834D01*
X138390181Y-97371834D01*
X136421189Y-97371834D01*
X136421189Y-98028165D01*
X139702843Y-98028165D01*
X139702843Y-98684496D01*
X139046512Y-98684496D01*
X139046512Y-99340827D01*
X140359173Y-99340827D01*
X140359173Y-98028165D01*
X141015504Y-98028165D01*
X141015504Y-97371834D01*
X140359173Y-97371834D01*
X140359173Y-96059173D01*
X141671835Y-96059173D01*
X141671835Y-95402842D01*
X142328166Y-95402842D01*
X143640827Y-95402842D01*
X143640827Y-92777519D01*
X144297158Y-92777519D01*
X144953489Y-92777519D01*
X144953489Y-92121188D01*
X145609819Y-92121188D01*
X145609819Y-92777519D01*
X144953489Y-92777519D01*
X144297158Y-92777519D01*
X144297158Y-93433850D01*
X144953489Y-93433850D01*
X144953489Y-94090181D01*
X145609819Y-94090181D01*
X145609819Y-95402842D01*
X143640827Y-95402842D01*
X142328166Y-95402842D01*
X142328166Y-96059173D01*
X141671835Y-96059173D01*
X141671835Y-96715504D01*
X142984496Y-96715504D01*
X142984496Y-96059173D01*
X144953489Y-96059173D01*
X144953489Y-96715504D01*
X144297158Y-96715504D01*
X144297158Y-97371834D01*
X144953489Y-97371834D01*
X144953489Y-96715504D01*
X145609819Y-96715504D01*
X145609819Y-97371834D01*
X144953489Y-97371834D01*
X144297158Y-97371834D01*
X143640827Y-97371834D01*
X143640827Y-96715504D01*
X142984496Y-96715504D01*
X142984496Y-97371834D01*
X141671835Y-97371834D01*
X141671835Y-98028165D01*
X142328166Y-98028165D01*
X142328166Y-98684496D01*
X141015504Y-98684496D01*
X141015504Y-99340827D01*
X140359173Y-99340827D01*
X140359173Y-101966150D01*
X141015504Y-101966150D01*
X141015504Y-99997157D01*
X141671835Y-99997157D01*
X141671835Y-100653488D01*
X142328166Y-100653488D01*
X142328166Y-98684496D01*
X142984496Y-98684496D01*
X142984496Y-99340827D01*
X143640827Y-99340827D01*
X143640827Y-98684496D01*
X144297158Y-98684496D01*
X144297158Y-98028165D01*
X145609819Y-98028165D01*
X145609819Y-98684496D01*
X144297158Y-98684496D01*
X144297158Y-99340827D01*
X146266150Y-99340827D01*
X146266150Y-98028165D01*
X145609819Y-98028165D01*
X145609819Y-97371834D01*
X146922481Y-97371834D01*
X146922481Y-96059173D01*
X146266150Y-96059173D01*
X146266150Y-96715504D01*
X145609819Y-96715504D01*
X145609819Y-95402842D01*
X148235142Y-95402842D01*
X148235142Y-95402842D01*
G37*
X148235142Y-95402842D02*
X148235142Y-94746511D01*
X146266150Y-94746511D01*
X146266150Y-94090181D01*
X146922481Y-94090181D01*
X146922481Y-93433850D01*
X146266150Y-93433850D01*
X146266150Y-92121188D01*
X145609819Y-92121188D01*
X145609819Y-91464858D01*
X144953489Y-91464858D01*
X144953489Y-90808527D01*
X144297158Y-90808527D01*
X144297158Y-91464858D01*
X143640827Y-91464858D01*
X143640827Y-90808527D01*
X142984496Y-90808527D01*
X142984496Y-92121188D01*
X144297158Y-92121188D01*
X144297158Y-91464858D01*
X144953489Y-91464858D01*
X144953489Y-92121188D01*
X144297158Y-92121188D01*
X142984496Y-92121188D01*
X142328166Y-92121188D01*
X142328166Y-92777519D01*
X142984496Y-92777519D01*
X142984496Y-93433850D01*
X142328166Y-93433850D01*
X142328166Y-94090181D01*
X142984496Y-94090181D01*
X142984496Y-94746511D01*
X141671835Y-94746511D01*
X141671835Y-93433850D01*
X141015504Y-93433850D01*
X141015504Y-94746511D01*
X140359173Y-94746511D01*
X140359173Y-95402842D01*
X141015504Y-95402842D01*
X141015504Y-94746511D01*
X141671835Y-94746511D01*
X141671835Y-95402842D01*
X141015504Y-95402842D01*
X140359173Y-95402842D01*
X140359173Y-96059173D01*
X138390181Y-96059173D01*
X138390181Y-97371834D01*
X139046512Y-97371834D01*
X139046512Y-96715504D01*
X139702843Y-96715504D01*
X139702843Y-97371834D01*
X139046512Y-97371834D01*
X138390181Y-97371834D01*
X136421189Y-97371834D01*
X136421189Y-98028165D01*
X139702843Y-98028165D01*
X139702843Y-98684496D01*
X139046512Y-98684496D01*
X139046512Y-99340827D01*
X140359173Y-99340827D01*
X140359173Y-98028165D01*
X141015504Y-98028165D01*
X141015504Y-97371834D01*
X140359173Y-97371834D01*
X140359173Y-96059173D01*
X141671835Y-96059173D01*
X141671835Y-95402842D01*
X142328166Y-95402842D01*
X143640827Y-95402842D01*
X143640827Y-92777519D01*
X144297158Y-92777519D01*
X144953489Y-92777519D01*
X144953489Y-92121188D01*
X145609819Y-92121188D01*
X145609819Y-92777519D01*
X144953489Y-92777519D01*
X144297158Y-92777519D01*
X144297158Y-93433850D01*
X144953489Y-93433850D01*
X144953489Y-94090181D01*
X145609819Y-94090181D01*
X145609819Y-95402842D01*
X143640827Y-95402842D01*
X142328166Y-95402842D01*
X142328166Y-96059173D01*
X141671835Y-96059173D01*
X141671835Y-96715504D01*
X142984496Y-96715504D01*
X142984496Y-96059173D01*
X144953489Y-96059173D01*
X144953489Y-96715504D01*
X144297158Y-96715504D01*
X144297158Y-97371834D01*
X144953489Y-97371834D01*
X144953489Y-96715504D01*
X145609819Y-96715504D01*
X145609819Y-97371834D01*
X144953489Y-97371834D01*
X144297158Y-97371834D01*
X143640827Y-97371834D01*
X143640827Y-96715504D01*
X142984496Y-96715504D01*
X142984496Y-97371834D01*
X141671835Y-97371834D01*
X141671835Y-98028165D01*
X142328166Y-98028165D01*
X142328166Y-98684496D01*
X141015504Y-98684496D01*
X141015504Y-99340827D01*
X140359173Y-99340827D01*
X140359173Y-101966150D01*
X141015504Y-101966150D01*
X141015504Y-99997157D01*
X141671835Y-99997157D01*
X141671835Y-100653488D01*
X142328166Y-100653488D01*
X142328166Y-98684496D01*
X142984496Y-98684496D01*
X142984496Y-99340827D01*
X143640827Y-99340827D01*
X143640827Y-98684496D01*
X144297158Y-98684496D01*
X144297158Y-98028165D01*
X145609819Y-98028165D01*
X145609819Y-98684496D01*
X144297158Y-98684496D01*
X144297158Y-99340827D01*
X146266150Y-99340827D01*
X146266150Y-98028165D01*
X145609819Y-98028165D01*
X145609819Y-97371834D01*
X146922481Y-97371834D01*
X146922481Y-96059173D01*
X146266150Y-96059173D01*
X146266150Y-96715504D01*
X145609819Y-96715504D01*
X145609819Y-95402842D01*
X148235142Y-95402842D01*
G36*
X148235142Y-90808527D02*
X147578812Y-90808527D01*
X147578812Y-91464858D01*
X148235142Y-91464858D01*
X148235142Y-90808527D01*
X148235142Y-90808527D01*
G37*
X148235142Y-90808527D02*
X147578812Y-90808527D01*
X147578812Y-91464858D01*
X148235142Y-91464858D01*
X148235142Y-90808527D01*
G36*
X137733850Y-98684496D02*
X137077520Y-98684496D01*
X137077520Y-99340827D01*
X137733850Y-99340827D01*
X137733850Y-98684496D01*
X137733850Y-98684496D01*
G37*
X137733850Y-98684496D02*
X137077520Y-98684496D01*
X137077520Y-99340827D01*
X137733850Y-99340827D01*
X137733850Y-98684496D01*
G36*
X139702843Y-99997157D02*
X135108527Y-99997157D01*
X135108527Y-103935142D01*
X135764858Y-103935142D01*
X135764858Y-100653488D01*
X139046512Y-100653488D01*
X139046512Y-103935142D01*
X135764858Y-103935142D01*
X135108527Y-103935142D01*
X135108527Y-104591473D01*
X139702843Y-104591473D01*
X139702843Y-99997157D01*
X139702843Y-99997157D01*
G37*
X139702843Y-99997157D02*
X135108527Y-99997157D01*
X135108527Y-103935142D01*
X135764858Y-103935142D01*
X135764858Y-100653488D01*
X139046512Y-100653488D01*
X139046512Y-103935142D01*
X135764858Y-103935142D01*
X135108527Y-103935142D01*
X135108527Y-104591473D01*
X139702843Y-104591473D01*
X139702843Y-99997157D01*
G36*
X148891473Y-99997157D02*
X144297158Y-99997157D01*
X144297158Y-103935142D01*
X144953489Y-103935142D01*
X144953489Y-100653488D01*
X148235142Y-100653488D01*
X148235142Y-103935142D01*
X144953489Y-103935142D01*
X144297158Y-103935142D01*
X144297158Y-104591473D01*
X148891473Y-104591473D01*
X148891473Y-99997157D01*
X148891473Y-99997157D01*
G37*
X148891473Y-99997157D02*
X144297158Y-99997157D01*
X144297158Y-103935142D01*
X144953489Y-103935142D01*
X144953489Y-100653488D01*
X148235142Y-100653488D01*
X148235142Y-103935142D01*
X144953489Y-103935142D01*
X144297158Y-103935142D01*
X144297158Y-104591473D01*
X148891473Y-104591473D01*
X148891473Y-99997157D01*
G36*
X143640827Y-102622480D02*
X142984496Y-102622480D01*
X142984496Y-103278811D01*
X143640827Y-103278811D01*
X143640827Y-102622480D01*
X143640827Y-102622480D01*
G37*
X143640827Y-102622480D02*
X142984496Y-102622480D01*
X142984496Y-103278811D01*
X143640827Y-103278811D01*
X143640827Y-102622480D01*
G36*
X142984496Y-103278811D02*
X142328166Y-103278811D01*
X142328166Y-103935142D01*
X142984496Y-103935142D01*
X142984496Y-103278811D01*
X142984496Y-103278811D01*
G37*
X142984496Y-103278811D02*
X142328166Y-103278811D01*
X142328166Y-103935142D01*
X142984496Y-103935142D01*
X142984496Y-103278811D01*
G36*
X143640827Y-103935142D02*
X142984496Y-103935142D01*
X142984496Y-104591473D01*
X143640827Y-104591473D01*
X143640827Y-103935142D01*
X143640827Y-103935142D01*
G37*
X143640827Y-103935142D02*
X142984496Y-103935142D01*
X142984496Y-104591473D01*
X143640827Y-104591473D01*
X143640827Y-103935142D01*
G36*
X138390181Y-92121188D02*
X136421189Y-92121188D01*
X136421189Y-94090181D01*
X138390181Y-94090181D01*
X138390181Y-92121188D01*
X138390181Y-92121188D01*
G37*
X138390181Y-92121188D02*
X136421189Y-92121188D01*
X136421189Y-94090181D01*
X138390181Y-94090181D01*
X138390181Y-92121188D01*
G36*
X141671835Y-96715504D02*
X141015504Y-96715504D01*
X141015504Y-97371834D01*
X141671835Y-97371834D01*
X141671835Y-96715504D01*
X141671835Y-96715504D01*
G37*
X141671835Y-96715504D02*
X141015504Y-96715504D01*
X141015504Y-97371834D01*
X141671835Y-97371834D01*
X141671835Y-96715504D01*
G36*
X138390181Y-101309819D02*
X136421189Y-101309819D01*
X136421189Y-103278811D01*
X138390181Y-103278811D01*
X138390181Y-101309819D01*
X138390181Y-101309819D01*
G37*
X138390181Y-101309819D02*
X136421189Y-101309819D01*
X136421189Y-103278811D01*
X138390181Y-103278811D01*
X138390181Y-101309819D01*
G36*
X147578812Y-101309819D02*
X145609819Y-101309819D01*
X145609819Y-103278811D01*
X147578812Y-103278811D01*
X147578812Y-101309819D01*
X147578812Y-101309819D01*
G37*
X147578812Y-101309819D02*
X145609819Y-101309819D01*
X145609819Y-103278811D01*
X147578812Y-103278811D01*
X147578812Y-101309819D01*
M02*
