G04 #@! TF.FileFunction,Legend,Top*
%FSLAX46Y46*%
G04 Gerber Fmt 4.6, Leading zero omitted, Abs format (unit mm)*
G04 Created by KiCad (PCBNEW 4.0.2+e4-6225~38~ubuntu14.04.1-stable) date Fri 29 Jul 2016 12:50:15 AM PDT*
%MOMM*%
G01*
G04 APERTURE LIST*
%ADD10C,0.100000*%
%ADD11C,0.300000*%
%ADD12C,0.150000*%
%ADD13C,0.152400*%
%ADD14C,0.010000*%
G04 APERTURE END LIST*
D10*
D11*
X110604762Y-105071429D02*
X108604762Y-105071429D01*
X109557143Y-105071429D02*
X109557143Y-103928571D01*
X110604762Y-103928571D02*
X108604762Y-103928571D01*
X108604762Y-103261905D02*
X110604762Y-102595238D01*
X108604762Y-101928571D01*
X110604762Y-99738095D02*
X108604762Y-99738095D01*
X109271429Y-98785714D02*
X110604762Y-98785714D01*
X109461905Y-98785714D02*
X109366667Y-98690475D01*
X109271429Y-98499999D01*
X109271429Y-98214285D01*
X109366667Y-98023809D01*
X109557143Y-97928571D01*
X110604762Y-97928571D01*
X112238095Y-104042857D02*
X113761905Y-104042857D01*
X112238095Y-99042857D02*
X113761905Y-99042857D01*
X112238095Y-94042857D02*
X113761905Y-94042857D01*
X113000000Y-94804762D02*
X113000000Y-93280952D01*
X112238095Y-108842857D02*
X113761905Y-108842857D01*
X113000000Y-109604762D02*
X113000000Y-108080952D01*
X168000000Y-74878571D02*
X167142857Y-74878571D01*
X167571429Y-74878571D02*
X167571429Y-73378571D01*
X167428572Y-73592857D01*
X167285714Y-73735714D01*
X167142857Y-73807143D01*
X168642857Y-74307143D02*
X169785714Y-74307143D01*
X169214285Y-74878571D02*
X169214285Y-73735714D01*
X168000000Y-78178571D02*
X167142857Y-78178571D01*
X167571429Y-78178571D02*
X167571429Y-76678571D01*
X167428572Y-76892857D01*
X167285714Y-77035714D01*
X167142857Y-77107143D01*
X168642857Y-77607143D02*
X169785714Y-77607143D01*
X167142857Y-81821429D02*
X167214286Y-81750000D01*
X167357143Y-81678571D01*
X167714286Y-81678571D01*
X167857143Y-81750000D01*
X167928572Y-81821429D01*
X168000000Y-81964286D01*
X168000000Y-82107143D01*
X167928572Y-82321429D01*
X167071429Y-83178571D01*
X168000000Y-83178571D01*
X168642857Y-82607143D02*
X169785714Y-82607143D01*
X169214285Y-83178571D02*
X169214285Y-82035714D01*
X167142857Y-86821429D02*
X167214286Y-86750000D01*
X167357143Y-86678571D01*
X167714286Y-86678571D01*
X167857143Y-86750000D01*
X167928572Y-86821429D01*
X168000000Y-86964286D01*
X168000000Y-87107143D01*
X167928572Y-87321429D01*
X167071429Y-88178571D01*
X168000000Y-88178571D01*
X168642857Y-87607143D02*
X169785714Y-87607143D01*
X167071429Y-91678571D02*
X168000000Y-91678571D01*
X167500000Y-92250000D01*
X167714286Y-92250000D01*
X167857143Y-92321429D01*
X167928572Y-92392857D01*
X168000000Y-92535714D01*
X168000000Y-92892857D01*
X167928572Y-93035714D01*
X167857143Y-93107143D01*
X167714286Y-93178571D01*
X167285714Y-93178571D01*
X167142857Y-93107143D01*
X167071429Y-93035714D01*
X168642857Y-92607143D02*
X169785714Y-92607143D01*
X169214285Y-93178571D02*
X169214285Y-92035714D01*
X167071429Y-96678571D02*
X168000000Y-96678571D01*
X167500000Y-97250000D01*
X167714286Y-97250000D01*
X167857143Y-97321429D01*
X167928572Y-97392857D01*
X168000000Y-97535714D01*
X168000000Y-97892857D01*
X167928572Y-98035714D01*
X167857143Y-98107143D01*
X167714286Y-98178571D01*
X167285714Y-98178571D01*
X167142857Y-98107143D01*
X167071429Y-98035714D01*
X168642857Y-97607143D02*
X169785714Y-97607143D01*
X167857143Y-102178571D02*
X167857143Y-103178571D01*
X167500000Y-101607143D02*
X167142857Y-102678571D01*
X168071429Y-102678571D01*
X168642857Y-102607143D02*
X169785714Y-102607143D01*
X169214285Y-103178571D02*
X169214285Y-102035714D01*
X167757143Y-105378571D02*
X167757143Y-106378571D01*
X167400000Y-104807143D02*
X167042857Y-105878571D01*
X167971429Y-105878571D01*
X168542857Y-105807143D02*
X169685714Y-105807143D01*
D12*
X108425000Y-71000000D02*
X108425000Y-70000000D01*
X109775000Y-70000000D02*
X109775000Y-71000000D01*
X110025000Y-71000000D02*
X110025000Y-70000000D01*
X111375000Y-70000000D02*
X111375000Y-71000000D01*
X111625000Y-71000000D02*
X111625000Y-70000000D01*
X112975000Y-70000000D02*
X112975000Y-71000000D01*
X113225000Y-71000000D02*
X113225000Y-70000000D01*
X114575000Y-70000000D02*
X114575000Y-71000000D01*
X114825000Y-71000000D02*
X114825000Y-70000000D01*
X116175000Y-70000000D02*
X116175000Y-71000000D01*
X116425000Y-71000000D02*
X116425000Y-70000000D01*
X117775000Y-70000000D02*
X117775000Y-71000000D01*
X153900000Y-73000000D02*
X154100000Y-73000000D01*
X154100000Y-73000000D02*
X154100000Y-77000000D01*
X154100000Y-77000000D02*
X153900000Y-77000000D01*
X146100000Y-76600000D02*
X145900000Y-76600000D01*
X145900000Y-76600000D02*
X145900000Y-77200000D01*
X145900000Y-77200000D02*
X146100000Y-77200000D01*
X146100000Y-75300000D02*
X145900000Y-75300000D01*
X145900000Y-75300000D02*
X145900000Y-75900000D01*
X145900000Y-75900000D02*
X146100000Y-75900000D01*
X146100000Y-74100000D02*
X145900000Y-74100000D01*
X145900000Y-74100000D02*
X145900000Y-74700000D01*
X145900000Y-74700000D02*
X146100000Y-74700000D01*
X146100000Y-72800000D02*
X145900000Y-72800000D01*
X145900000Y-72800000D02*
X145900000Y-73400000D01*
X145900000Y-73400000D02*
X146100000Y-73400000D01*
X153900000Y-72200000D02*
X153900000Y-77800000D01*
X153900000Y-77800000D02*
X146100000Y-77800000D01*
X146100000Y-77800000D02*
X146100000Y-72200000D01*
X146100000Y-72200000D02*
X153900000Y-72200000D01*
X153900000Y-83000000D02*
X154100000Y-83000000D01*
X154100000Y-83000000D02*
X154100000Y-87000000D01*
X154100000Y-87000000D02*
X153900000Y-87000000D01*
X146100000Y-86600000D02*
X145900000Y-86600000D01*
X145900000Y-86600000D02*
X145900000Y-87200000D01*
X145900000Y-87200000D02*
X146100000Y-87200000D01*
X146100000Y-85300000D02*
X145900000Y-85300000D01*
X145900000Y-85300000D02*
X145900000Y-85900000D01*
X145900000Y-85900000D02*
X146100000Y-85900000D01*
X146100000Y-84100000D02*
X145900000Y-84100000D01*
X145900000Y-84100000D02*
X145900000Y-84700000D01*
X145900000Y-84700000D02*
X146100000Y-84700000D01*
X146100000Y-82800000D02*
X145900000Y-82800000D01*
X145900000Y-82800000D02*
X145900000Y-83400000D01*
X145900000Y-83400000D02*
X146100000Y-83400000D01*
X153900000Y-82200000D02*
X153900000Y-87800000D01*
X153900000Y-87800000D02*
X146100000Y-87800000D01*
X146100000Y-87800000D02*
X146100000Y-82200000D01*
X146100000Y-82200000D02*
X153900000Y-82200000D01*
X153900000Y-93000000D02*
X154100000Y-93000000D01*
X154100000Y-93000000D02*
X154100000Y-97000000D01*
X154100000Y-97000000D02*
X153900000Y-97000000D01*
X146100000Y-96600000D02*
X145900000Y-96600000D01*
X145900000Y-96600000D02*
X145900000Y-97200000D01*
X145900000Y-97200000D02*
X146100000Y-97200000D01*
X146100000Y-95300000D02*
X145900000Y-95300000D01*
X145900000Y-95300000D02*
X145900000Y-95900000D01*
X145900000Y-95900000D02*
X146100000Y-95900000D01*
X146100000Y-94100000D02*
X145900000Y-94100000D01*
X145900000Y-94100000D02*
X145900000Y-94700000D01*
X145900000Y-94700000D02*
X146100000Y-94700000D01*
X146100000Y-92800000D02*
X145900000Y-92800000D01*
X145900000Y-92800000D02*
X145900000Y-93400000D01*
X145900000Y-93400000D02*
X146100000Y-93400000D01*
X153900000Y-92200000D02*
X153900000Y-97800000D01*
X153900000Y-97800000D02*
X146100000Y-97800000D01*
X146100000Y-97800000D02*
X146100000Y-92200000D01*
X146100000Y-92200000D02*
X153900000Y-92200000D01*
X153900000Y-103000000D02*
X154100000Y-103000000D01*
X154100000Y-103000000D02*
X154100000Y-107000000D01*
X154100000Y-107000000D02*
X153900000Y-107000000D01*
X146100000Y-106600000D02*
X145900000Y-106600000D01*
X145900000Y-106600000D02*
X145900000Y-107200000D01*
X145900000Y-107200000D02*
X146100000Y-107200000D01*
X146100000Y-105300000D02*
X145900000Y-105300000D01*
X145900000Y-105300000D02*
X145900000Y-105900000D01*
X145900000Y-105900000D02*
X146100000Y-105900000D01*
X146100000Y-104100000D02*
X145900000Y-104100000D01*
X145900000Y-104100000D02*
X145900000Y-104700000D01*
X145900000Y-104700000D02*
X146100000Y-104700000D01*
X146100000Y-102800000D02*
X145900000Y-102800000D01*
X145900000Y-102800000D02*
X145900000Y-103400000D01*
X145900000Y-103400000D02*
X146100000Y-103400000D01*
X153900000Y-102200000D02*
X153900000Y-107800000D01*
X153900000Y-107800000D02*
X146100000Y-107800000D01*
X146100000Y-107800000D02*
X146100000Y-102200000D01*
X146100000Y-102200000D02*
X153900000Y-102200000D01*
D13*
X166150000Y-70000000D02*
X166150000Y-110000000D01*
X157850000Y-70000000D02*
X157850000Y-110000000D01*
X157850000Y-110000000D02*
X166150000Y-110000000D01*
X157850000Y-70000000D02*
X166150000Y-70000000D01*
D12*
X124175000Y-70000000D02*
X124175000Y-71000000D01*
X122825000Y-71000000D02*
X122825000Y-70000000D01*
X122575000Y-70000000D02*
X122575000Y-71000000D01*
X121225000Y-71000000D02*
X121225000Y-70000000D01*
X120975000Y-70000000D02*
X120975000Y-71000000D01*
X119625000Y-71000000D02*
X119625000Y-70000000D01*
X119375000Y-70000000D02*
X119375000Y-71000000D01*
X118025000Y-71000000D02*
X118025000Y-70000000D01*
X125700000Y-84575000D02*
X124700000Y-84575000D01*
X124700000Y-83225000D02*
X125700000Y-83225000D01*
X125700000Y-82775000D02*
X124700000Y-82775000D01*
X124700000Y-81425000D02*
X125700000Y-81425000D01*
X125700000Y-80975000D02*
X124700000Y-80975000D01*
X124700000Y-79625000D02*
X125700000Y-79625000D01*
X125700000Y-79175000D02*
X124700000Y-79175000D01*
X124700000Y-77825000D02*
X125700000Y-77825000D01*
X127503010Y-104812305D02*
G75*
G03X126800000Y-105300000I996990J-2187695D01*
G01*
X127503010Y-109187695D02*
G75*
G02X126800000Y-108700000I996990J2187695D01*
G01*
X126800000Y-105300000D02*
X126800000Y-108700000D01*
X129495264Y-104816093D02*
G75*
G02X130900000Y-107000000I-995264J-2183907D01*
G01*
X129495264Y-109183907D02*
G75*
G03X130900000Y-107000000I-995264J2183907D01*
G01*
X117225000Y-74325000D02*
X117225000Y-74430000D01*
X121375000Y-74325000D02*
X121375000Y-74430000D01*
X121375000Y-84475000D02*
X121375000Y-84370000D01*
X117225000Y-84475000D02*
X117225000Y-84370000D01*
X117225000Y-74325000D02*
X121375000Y-74325000D01*
X117225000Y-84475000D02*
X121375000Y-84475000D01*
X117225000Y-74430000D02*
X115850000Y-74430000D01*
D13*
X114450000Y-111400000D02*
X114450000Y-91400000D01*
X122750000Y-111400000D02*
X122750000Y-91400000D01*
X122750000Y-91400000D02*
X114450000Y-91400000D01*
X122750000Y-111400000D02*
X114450000Y-111400000D01*
D12*
X103100000Y-92450000D02*
X103100000Y-73550000D01*
X108500000Y-92450000D02*
X108500000Y-73550000D01*
X132550000Y-109000000D02*
X133250000Y-109000000D01*
X133250000Y-110200000D02*
X132550000Y-110200000D01*
X132550000Y-103900000D02*
X133250000Y-103900000D01*
X133250000Y-105100000D02*
X132550000Y-105100000D01*
X125150000Y-74975000D02*
X125265000Y-74975000D01*
X125150000Y-70825000D02*
X125265000Y-70825000D01*
X134050000Y-70825000D02*
X133935000Y-70825000D01*
X134050000Y-74975000D02*
X133935000Y-74975000D01*
X125150000Y-74975000D02*
X125150000Y-70825000D01*
X134050000Y-74975000D02*
X134050000Y-70825000D01*
X125265000Y-74975000D02*
X125265000Y-76350000D01*
X144500000Y-79850000D02*
X147200000Y-79850000D01*
X144500000Y-78350000D02*
X147200000Y-78350000D01*
X146000000Y-79250000D02*
X146000000Y-79000000D01*
X146000000Y-79000000D02*
X145850000Y-79150000D01*
X145750000Y-78750000D02*
X145750000Y-79450000D01*
X146100000Y-79100000D02*
X146450000Y-79100000D01*
X145750000Y-79100000D02*
X146100000Y-78750000D01*
X146100000Y-78750000D02*
X146100000Y-79450000D01*
X146100000Y-79450000D02*
X145750000Y-79100000D01*
X144500000Y-89850000D02*
X147200000Y-89850000D01*
X144500000Y-88350000D02*
X147200000Y-88350000D01*
X146000000Y-89250000D02*
X146000000Y-89000000D01*
X146000000Y-89000000D02*
X145850000Y-89150000D01*
X145750000Y-88750000D02*
X145750000Y-89450000D01*
X146100000Y-89100000D02*
X146450000Y-89100000D01*
X145750000Y-89100000D02*
X146100000Y-88750000D01*
X146100000Y-88750000D02*
X146100000Y-89450000D01*
X146100000Y-89450000D02*
X145750000Y-89100000D01*
X144500000Y-99850000D02*
X147200000Y-99850000D01*
X144500000Y-98350000D02*
X147200000Y-98350000D01*
X146000000Y-99250000D02*
X146000000Y-99000000D01*
X146000000Y-99000000D02*
X145850000Y-99150000D01*
X145750000Y-98750000D02*
X145750000Y-99450000D01*
X146100000Y-99100000D02*
X146450000Y-99100000D01*
X145750000Y-99100000D02*
X146100000Y-98750000D01*
X146100000Y-98750000D02*
X146100000Y-99450000D01*
X146100000Y-99450000D02*
X145750000Y-99100000D01*
X144500000Y-109850000D02*
X147200000Y-109850000D01*
X144500000Y-108350000D02*
X147200000Y-108350000D01*
X146000000Y-109250000D02*
X146000000Y-109000000D01*
X146000000Y-109000000D02*
X145850000Y-109150000D01*
X145750000Y-108750000D02*
X145750000Y-109450000D01*
X146100000Y-109100000D02*
X146450000Y-109100000D01*
X145750000Y-109100000D02*
X146100000Y-108750000D01*
X146100000Y-108750000D02*
X146100000Y-109450000D01*
X146100000Y-109450000D02*
X145750000Y-109100000D01*
X142100000Y-78425000D02*
X143100000Y-78425000D01*
X143100000Y-79775000D02*
X142100000Y-79775000D01*
X142100000Y-88425000D02*
X143100000Y-88425000D01*
X143100000Y-89775000D02*
X142100000Y-89775000D01*
X142100000Y-98425000D02*
X143100000Y-98425000D01*
X143100000Y-99775000D02*
X142100000Y-99775000D01*
X142100000Y-108425000D02*
X143100000Y-108425000D01*
X143100000Y-109775000D02*
X142100000Y-109775000D01*
D14*
G36*
X129967241Y-97098275D02*
X126901724Y-97098275D01*
X126901724Y-94470689D01*
X127339655Y-94470689D01*
X127339655Y-96660344D01*
X129529310Y-96660344D01*
X129529310Y-94470689D01*
X127339655Y-94470689D01*
X126901724Y-94470689D01*
X126901724Y-94032758D01*
X129967241Y-94032758D01*
X129967241Y-97098275D01*
X129967241Y-97098275D01*
G37*
X129967241Y-97098275D02*
X126901724Y-97098275D01*
X126901724Y-94470689D01*
X127339655Y-94470689D01*
X127339655Y-96660344D01*
X129529310Y-96660344D01*
X129529310Y-94470689D01*
X127339655Y-94470689D01*
X126901724Y-94470689D01*
X126901724Y-94032758D01*
X129967241Y-94032758D01*
X129967241Y-97098275D01*
G36*
X131281034Y-96660344D02*
X131718965Y-96660344D01*
X131718965Y-97098275D01*
X130405172Y-97098275D01*
X130405172Y-96222413D01*
X130843103Y-96222413D01*
X130843103Y-95784482D01*
X131281034Y-95784482D01*
X131281034Y-96660344D01*
X131281034Y-96660344D01*
G37*
X131281034Y-96660344D02*
X131718965Y-96660344D01*
X131718965Y-97098275D01*
X130405172Y-97098275D01*
X130405172Y-96222413D01*
X130843103Y-96222413D01*
X130843103Y-95784482D01*
X131281034Y-95784482D01*
X131281034Y-96660344D01*
G36*
X134784482Y-96660344D02*
X134346551Y-96660344D01*
X134346551Y-96222413D01*
X134784482Y-96222413D01*
X134784482Y-96660344D01*
X134784482Y-96660344D01*
G37*
X134784482Y-96660344D02*
X134346551Y-96660344D01*
X134346551Y-96222413D01*
X134784482Y-96222413D01*
X134784482Y-96660344D01*
G36*
X135222413Y-95346551D02*
X136098275Y-95346551D01*
X136098275Y-96222413D01*
X135660344Y-96222413D01*
X135660344Y-95784482D01*
X135222413Y-95784482D01*
X135222413Y-95346551D01*
X135222413Y-95346551D01*
G37*
X135222413Y-95346551D02*
X136098275Y-95346551D01*
X136098275Y-96222413D01*
X135660344Y-96222413D01*
X135660344Y-95784482D01*
X135222413Y-95784482D01*
X135222413Y-95346551D01*
G36*
X130843103Y-95784482D02*
X130405172Y-95784482D01*
X130405172Y-95346551D01*
X130843103Y-95346551D01*
X130843103Y-95784482D01*
X130843103Y-95784482D01*
G37*
X130843103Y-95784482D02*
X130405172Y-95784482D01*
X130405172Y-95346551D01*
X130843103Y-95346551D01*
X130843103Y-95784482D01*
G36*
X136098275Y-94908620D02*
X135660344Y-94908620D01*
X135660344Y-94470689D01*
X136098275Y-94470689D01*
X136098275Y-94908620D01*
X136098275Y-94908620D01*
G37*
X136098275Y-94908620D02*
X135660344Y-94908620D01*
X135660344Y-94470689D01*
X136098275Y-94470689D01*
X136098275Y-94908620D01*
G36*
X136098275Y-94032758D02*
X135660344Y-94032758D01*
X135660344Y-93594827D01*
X136098275Y-93594827D01*
X136098275Y-94032758D01*
X136098275Y-94032758D01*
G37*
X136098275Y-94032758D02*
X135660344Y-94032758D01*
X135660344Y-93594827D01*
X136098275Y-93594827D01*
X136098275Y-94032758D01*
G36*
X136098275Y-93156896D02*
X135222413Y-93156896D01*
X135222413Y-92718965D01*
X135660344Y-92718965D01*
X135660344Y-91843103D01*
X136098275Y-91843103D01*
X136098275Y-93156896D01*
X136098275Y-93156896D01*
G37*
X136098275Y-93156896D02*
X135222413Y-93156896D01*
X135222413Y-92718965D01*
X135660344Y-92718965D01*
X135660344Y-91843103D01*
X136098275Y-91843103D01*
X136098275Y-93156896D01*
G36*
X127777586Y-91843103D02*
X127339655Y-91843103D01*
X127339655Y-92718965D01*
X126901724Y-92718965D01*
X126901724Y-91405172D01*
X127777586Y-91405172D01*
X127777586Y-91843103D01*
X127777586Y-91843103D01*
G37*
X127777586Y-91843103D02*
X127339655Y-91843103D01*
X127339655Y-92718965D01*
X126901724Y-92718965D01*
X126901724Y-91405172D01*
X127777586Y-91405172D01*
X127777586Y-91843103D01*
G36*
X135222413Y-92718965D02*
X134784482Y-92718965D01*
X134784482Y-92281034D01*
X135222413Y-92281034D01*
X135222413Y-92718965D01*
X135222413Y-92718965D01*
G37*
X135222413Y-92718965D02*
X134784482Y-92718965D01*
X134784482Y-92281034D01*
X135222413Y-92281034D01*
X135222413Y-92718965D01*
G36*
X135660344Y-91843103D02*
X134784482Y-91843103D01*
X134784482Y-91405172D01*
X135660344Y-91405172D01*
X135660344Y-91843103D01*
X135660344Y-91843103D01*
G37*
X135660344Y-91843103D02*
X134784482Y-91843103D01*
X134784482Y-91405172D01*
X135660344Y-91405172D01*
X135660344Y-91843103D01*
G36*
X132594827Y-90967241D02*
X132156896Y-90967241D01*
X132156896Y-90529310D01*
X132594827Y-90529310D01*
X132594827Y-90967241D01*
X132594827Y-90967241D01*
G37*
X132594827Y-90967241D02*
X132156896Y-90967241D01*
X132156896Y-90529310D01*
X132594827Y-90529310D01*
X132594827Y-90967241D01*
G36*
X132156896Y-90529310D02*
X131718965Y-90529310D01*
X131718965Y-90091379D01*
X132156896Y-90091379D01*
X132156896Y-90529310D01*
X132156896Y-90529310D01*
G37*
X132156896Y-90529310D02*
X131718965Y-90529310D01*
X131718965Y-90091379D01*
X132156896Y-90091379D01*
X132156896Y-90529310D01*
G36*
X131281034Y-89653448D02*
X130843103Y-89653448D01*
X130843103Y-89215517D01*
X130405172Y-89215517D01*
X130405172Y-88339655D01*
X130843103Y-88339655D01*
X130843103Y-87901724D01*
X131281034Y-87901724D01*
X131281034Y-89653448D01*
X131281034Y-89653448D01*
G37*
X131281034Y-89653448D02*
X130843103Y-89653448D01*
X130843103Y-89215517D01*
X130405172Y-89215517D01*
X130405172Y-88339655D01*
X130843103Y-88339655D01*
X130843103Y-87901724D01*
X131281034Y-87901724D01*
X131281034Y-89653448D01*
G36*
X127777586Y-93156896D02*
X128215517Y-93156896D01*
X128215517Y-93594827D01*
X126901724Y-93594827D01*
X126901724Y-93156896D01*
X127339655Y-93156896D01*
X127339655Y-92718965D01*
X127777586Y-92718965D01*
X127777586Y-93156896D01*
X127777586Y-93156896D01*
G37*
X127777586Y-93156896D02*
X128215517Y-93156896D01*
X128215517Y-93594827D01*
X126901724Y-93594827D01*
X126901724Y-93156896D01*
X127339655Y-93156896D01*
X127339655Y-92718965D01*
X127777586Y-92718965D01*
X127777586Y-93156896D01*
G36*
X135222413Y-96222413D02*
X134784482Y-96222413D01*
X134784482Y-95784482D01*
X135222413Y-95784482D01*
X135222413Y-96222413D01*
X135222413Y-96222413D01*
G37*
X135222413Y-96222413D02*
X134784482Y-96222413D01*
X134784482Y-95784482D01*
X135222413Y-95784482D01*
X135222413Y-96222413D01*
G36*
X135660344Y-94032758D02*
X135660344Y-94470689D01*
X134346551Y-94470689D01*
X134346551Y-94908620D01*
X134784482Y-94908620D01*
X134784482Y-95346551D01*
X134346551Y-95346551D01*
X134346551Y-96222413D01*
X133908620Y-96222413D01*
X133908620Y-96660344D01*
X133470689Y-96660344D01*
X133470689Y-97098275D01*
X133032758Y-97098275D01*
X133032758Y-96660344D01*
X132594827Y-96660344D01*
X132594827Y-97098275D01*
X132156896Y-97098275D01*
X132156896Y-96222413D01*
X133032758Y-96222413D01*
X133032758Y-96660344D01*
X133470689Y-96660344D01*
X133470689Y-96222413D01*
X133032758Y-96222413D01*
X132156896Y-96222413D01*
X131718965Y-96222413D01*
X131718965Y-95784482D01*
X132156896Y-95784482D01*
X132156896Y-95346551D01*
X131718965Y-95346551D01*
X131718965Y-94908620D01*
X132156896Y-94908620D01*
X132156896Y-94470689D01*
X131281034Y-94470689D01*
X131281034Y-95346551D01*
X130843103Y-95346551D01*
X130843103Y-94470689D01*
X130405172Y-94470689D01*
X130405172Y-94032758D01*
X130843103Y-94032758D01*
X130843103Y-94470689D01*
X131281034Y-94470689D01*
X131281034Y-94032758D01*
X130843103Y-94032758D01*
X130405172Y-94032758D01*
X130405172Y-93594827D01*
X129091379Y-93594827D01*
X129091379Y-92718965D01*
X129529310Y-92718965D01*
X129529310Y-93156896D01*
X129967241Y-93156896D01*
X129967241Y-92718965D01*
X129529310Y-92718965D01*
X129091379Y-92718965D01*
X127777586Y-92718965D01*
X127777586Y-92281034D01*
X129967241Y-92281034D01*
X129967241Y-91843103D01*
X129529310Y-91843103D01*
X129529310Y-91405172D01*
X130405172Y-91405172D01*
X130405172Y-92281034D01*
X130843103Y-92281034D01*
X130843103Y-92718965D01*
X130405172Y-92718965D01*
X130405172Y-93594827D01*
X131281034Y-93594827D01*
X131281034Y-94032758D01*
X131718965Y-94032758D01*
X132594827Y-94032758D01*
X132594827Y-95784482D01*
X133032758Y-95784482D01*
X133470689Y-95784482D01*
X133470689Y-96222413D01*
X133908620Y-96222413D01*
X133908620Y-95784482D01*
X133470689Y-95784482D01*
X133032758Y-95784482D01*
X133032758Y-95346551D01*
X133470689Y-95346551D01*
X133470689Y-94908620D01*
X133908620Y-94908620D01*
X133908620Y-94032758D01*
X132594827Y-94032758D01*
X131718965Y-94032758D01*
X131718965Y-93594827D01*
X131281034Y-93594827D01*
X131281034Y-93156896D01*
X132156896Y-93156896D01*
X132156896Y-93594827D01*
X133470689Y-93594827D01*
X133470689Y-93156896D01*
X133032758Y-93156896D01*
X133032758Y-92718965D01*
X133470689Y-92718965D01*
X133470689Y-93156896D01*
X133908620Y-93156896D01*
X133908620Y-92718965D01*
X133470689Y-92718965D01*
X133032758Y-92718965D01*
X132594827Y-92718965D01*
X132594827Y-93156896D01*
X132156896Y-93156896D01*
X132156896Y-92718965D01*
X131281034Y-92718965D01*
X131281034Y-92281034D01*
X131718965Y-92281034D01*
X131718965Y-91843103D01*
X130843103Y-91843103D01*
X130843103Y-91405172D01*
X130405172Y-91405172D01*
X130405172Y-89653448D01*
X130843103Y-89653448D01*
X130843103Y-90967241D01*
X131281034Y-90967241D01*
X131281034Y-90529310D01*
X131718965Y-90529310D01*
X131718965Y-91843103D01*
X132156896Y-91843103D01*
X132156896Y-91405172D01*
X132594827Y-91405172D01*
X132594827Y-91843103D01*
X133032758Y-91843103D01*
X133032758Y-92281034D01*
X133908620Y-92281034D01*
X133908620Y-91843103D01*
X133032758Y-91843103D01*
X133032758Y-91405172D01*
X134346551Y-91405172D01*
X134346551Y-92281034D01*
X133908620Y-92281034D01*
X133908620Y-92718965D01*
X134784482Y-92718965D01*
X134784482Y-93594827D01*
X134346551Y-93594827D01*
X134346551Y-93156896D01*
X133908620Y-93156896D01*
X133908620Y-94032758D01*
X135660344Y-94032758D01*
X135660344Y-94032758D01*
G37*
X135660344Y-94032758D02*
X135660344Y-94470689D01*
X134346551Y-94470689D01*
X134346551Y-94908620D01*
X134784482Y-94908620D01*
X134784482Y-95346551D01*
X134346551Y-95346551D01*
X134346551Y-96222413D01*
X133908620Y-96222413D01*
X133908620Y-96660344D01*
X133470689Y-96660344D01*
X133470689Y-97098275D01*
X133032758Y-97098275D01*
X133032758Y-96660344D01*
X132594827Y-96660344D01*
X132594827Y-97098275D01*
X132156896Y-97098275D01*
X132156896Y-96222413D01*
X133032758Y-96222413D01*
X133032758Y-96660344D01*
X133470689Y-96660344D01*
X133470689Y-96222413D01*
X133032758Y-96222413D01*
X132156896Y-96222413D01*
X131718965Y-96222413D01*
X131718965Y-95784482D01*
X132156896Y-95784482D01*
X132156896Y-95346551D01*
X131718965Y-95346551D01*
X131718965Y-94908620D01*
X132156896Y-94908620D01*
X132156896Y-94470689D01*
X131281034Y-94470689D01*
X131281034Y-95346551D01*
X130843103Y-95346551D01*
X130843103Y-94470689D01*
X130405172Y-94470689D01*
X130405172Y-94032758D01*
X130843103Y-94032758D01*
X130843103Y-94470689D01*
X131281034Y-94470689D01*
X131281034Y-94032758D01*
X130843103Y-94032758D01*
X130405172Y-94032758D01*
X130405172Y-93594827D01*
X129091379Y-93594827D01*
X129091379Y-92718965D01*
X129529310Y-92718965D01*
X129529310Y-93156896D01*
X129967241Y-93156896D01*
X129967241Y-92718965D01*
X129529310Y-92718965D01*
X129091379Y-92718965D01*
X127777586Y-92718965D01*
X127777586Y-92281034D01*
X129967241Y-92281034D01*
X129967241Y-91843103D01*
X129529310Y-91843103D01*
X129529310Y-91405172D01*
X130405172Y-91405172D01*
X130405172Y-92281034D01*
X130843103Y-92281034D01*
X130843103Y-92718965D01*
X130405172Y-92718965D01*
X130405172Y-93594827D01*
X131281034Y-93594827D01*
X131281034Y-94032758D01*
X131718965Y-94032758D01*
X132594827Y-94032758D01*
X132594827Y-95784482D01*
X133032758Y-95784482D01*
X133470689Y-95784482D01*
X133470689Y-96222413D01*
X133908620Y-96222413D01*
X133908620Y-95784482D01*
X133470689Y-95784482D01*
X133032758Y-95784482D01*
X133032758Y-95346551D01*
X133470689Y-95346551D01*
X133470689Y-94908620D01*
X133908620Y-94908620D01*
X133908620Y-94032758D01*
X132594827Y-94032758D01*
X131718965Y-94032758D01*
X131718965Y-93594827D01*
X131281034Y-93594827D01*
X131281034Y-93156896D01*
X132156896Y-93156896D01*
X132156896Y-93594827D01*
X133470689Y-93594827D01*
X133470689Y-93156896D01*
X133032758Y-93156896D01*
X133032758Y-92718965D01*
X133470689Y-92718965D01*
X133470689Y-93156896D01*
X133908620Y-93156896D01*
X133908620Y-92718965D01*
X133470689Y-92718965D01*
X133032758Y-92718965D01*
X132594827Y-92718965D01*
X132594827Y-93156896D01*
X132156896Y-93156896D01*
X132156896Y-92718965D01*
X131281034Y-92718965D01*
X131281034Y-92281034D01*
X131718965Y-92281034D01*
X131718965Y-91843103D01*
X130843103Y-91843103D01*
X130843103Y-91405172D01*
X130405172Y-91405172D01*
X130405172Y-89653448D01*
X130843103Y-89653448D01*
X130843103Y-90967241D01*
X131281034Y-90967241D01*
X131281034Y-90529310D01*
X131718965Y-90529310D01*
X131718965Y-91843103D01*
X132156896Y-91843103D01*
X132156896Y-91405172D01*
X132594827Y-91405172D01*
X132594827Y-91843103D01*
X133032758Y-91843103D01*
X133032758Y-92281034D01*
X133908620Y-92281034D01*
X133908620Y-91843103D01*
X133032758Y-91843103D01*
X133032758Y-91405172D01*
X134346551Y-91405172D01*
X134346551Y-92281034D01*
X133908620Y-92281034D01*
X133908620Y-92718965D01*
X134784482Y-92718965D01*
X134784482Y-93594827D01*
X134346551Y-93594827D01*
X134346551Y-93156896D01*
X133908620Y-93156896D01*
X133908620Y-94032758D01*
X135660344Y-94032758D01*
G36*
X135660344Y-97098275D02*
X135222413Y-97098275D01*
X135222413Y-96660344D01*
X135660344Y-96660344D01*
X135660344Y-97098275D01*
X135660344Y-97098275D01*
G37*
X135660344Y-97098275D02*
X135222413Y-97098275D01*
X135222413Y-96660344D01*
X135660344Y-96660344D01*
X135660344Y-97098275D01*
G36*
X128653448Y-91843103D02*
X128215517Y-91843103D01*
X128215517Y-91405172D01*
X128653448Y-91405172D01*
X128653448Y-91843103D01*
X128653448Y-91843103D01*
G37*
X128653448Y-91843103D02*
X128215517Y-91843103D01*
X128215517Y-91405172D01*
X128653448Y-91405172D01*
X128653448Y-91843103D01*
G36*
X129967241Y-90967241D02*
X126901724Y-90967241D01*
X126901724Y-88339655D01*
X127339655Y-88339655D01*
X127339655Y-90529310D01*
X129529310Y-90529310D01*
X129529310Y-88339655D01*
X127339655Y-88339655D01*
X126901724Y-88339655D01*
X126901724Y-87901724D01*
X129967241Y-87901724D01*
X129967241Y-90967241D01*
X129967241Y-90967241D01*
G37*
X129967241Y-90967241D02*
X126901724Y-90967241D01*
X126901724Y-88339655D01*
X127339655Y-88339655D01*
X127339655Y-90529310D01*
X129529310Y-90529310D01*
X129529310Y-88339655D01*
X127339655Y-88339655D01*
X126901724Y-88339655D01*
X126901724Y-87901724D01*
X129967241Y-87901724D01*
X129967241Y-90967241D01*
G36*
X136098275Y-90967241D02*
X133032758Y-90967241D01*
X133032758Y-88339655D01*
X133470689Y-88339655D01*
X133470689Y-90529310D01*
X135660344Y-90529310D01*
X135660344Y-88339655D01*
X133470689Y-88339655D01*
X133032758Y-88339655D01*
X133032758Y-87901724D01*
X136098275Y-87901724D01*
X136098275Y-90967241D01*
X136098275Y-90967241D01*
G37*
X136098275Y-90967241D02*
X133032758Y-90967241D01*
X133032758Y-88339655D01*
X133470689Y-88339655D01*
X133470689Y-90529310D01*
X135660344Y-90529310D01*
X135660344Y-88339655D01*
X133470689Y-88339655D01*
X133032758Y-88339655D01*
X133032758Y-87901724D01*
X136098275Y-87901724D01*
X136098275Y-90967241D01*
G36*
X132594827Y-89215517D02*
X132156896Y-89215517D01*
X132156896Y-88777586D01*
X132594827Y-88777586D01*
X132594827Y-89215517D01*
X132594827Y-89215517D01*
G37*
X132594827Y-89215517D02*
X132156896Y-89215517D01*
X132156896Y-88777586D01*
X132594827Y-88777586D01*
X132594827Y-89215517D01*
G36*
X132156896Y-88777586D02*
X131718965Y-88777586D01*
X131718965Y-88339655D01*
X132156896Y-88339655D01*
X132156896Y-88777586D01*
X132156896Y-88777586D01*
G37*
X132156896Y-88777586D02*
X131718965Y-88777586D01*
X131718965Y-88339655D01*
X132156896Y-88339655D01*
X132156896Y-88777586D01*
G36*
X132594827Y-88339655D02*
X132156896Y-88339655D01*
X132156896Y-87901724D01*
X132594827Y-87901724D01*
X132594827Y-88339655D01*
X132594827Y-88339655D01*
G37*
X132594827Y-88339655D02*
X132156896Y-88339655D01*
X132156896Y-87901724D01*
X132594827Y-87901724D01*
X132594827Y-88339655D01*
G36*
X129091379Y-96222413D02*
X127777586Y-96222413D01*
X127777586Y-94908620D01*
X129091379Y-94908620D01*
X129091379Y-96222413D01*
X129091379Y-96222413D01*
G37*
X129091379Y-96222413D02*
X127777586Y-96222413D01*
X127777586Y-94908620D01*
X129091379Y-94908620D01*
X129091379Y-96222413D01*
G36*
X131281034Y-93156896D02*
X130843103Y-93156896D01*
X130843103Y-92718965D01*
X131281034Y-92718965D01*
X131281034Y-93156896D01*
X131281034Y-93156896D01*
G37*
X131281034Y-93156896D02*
X130843103Y-93156896D01*
X130843103Y-92718965D01*
X131281034Y-92718965D01*
X131281034Y-93156896D01*
G36*
X129091379Y-90091379D02*
X127777586Y-90091379D01*
X127777586Y-88777586D01*
X129091379Y-88777586D01*
X129091379Y-90091379D01*
X129091379Y-90091379D01*
G37*
X129091379Y-90091379D02*
X127777586Y-90091379D01*
X127777586Y-88777586D01*
X129091379Y-88777586D01*
X129091379Y-90091379D01*
G36*
X135222413Y-90091379D02*
X133908620Y-90091379D01*
X133908620Y-88777586D01*
X135222413Y-88777586D01*
X135222413Y-90091379D01*
X135222413Y-90091379D01*
G37*
X135222413Y-90091379D02*
X133908620Y-90091379D01*
X133908620Y-88777586D01*
X135222413Y-88777586D01*
X135222413Y-90091379D01*
D12*
X109552381Y-72966666D02*
X109076190Y-73300000D01*
X109552381Y-73538095D02*
X108552381Y-73538095D01*
X108552381Y-73157142D01*
X108600000Y-73061904D01*
X108647619Y-73014285D01*
X108742857Y-72966666D01*
X108885714Y-72966666D01*
X108980952Y-73014285D01*
X109028571Y-73061904D01*
X109076190Y-73157142D01*
X109076190Y-73538095D01*
X109552381Y-72014285D02*
X109552381Y-72585714D01*
X109552381Y-72300000D02*
X108552381Y-72300000D01*
X108695238Y-72395238D01*
X108790476Y-72490476D01*
X108838095Y-72585714D01*
X111152381Y-72966666D02*
X110676190Y-73300000D01*
X111152381Y-73538095D02*
X110152381Y-73538095D01*
X110152381Y-73157142D01*
X110200000Y-73061904D01*
X110247619Y-73014285D01*
X110342857Y-72966666D01*
X110485714Y-72966666D01*
X110580952Y-73014285D01*
X110628571Y-73061904D01*
X110676190Y-73157142D01*
X110676190Y-73538095D01*
X110247619Y-72585714D02*
X110200000Y-72538095D01*
X110152381Y-72442857D01*
X110152381Y-72204761D01*
X110200000Y-72109523D01*
X110247619Y-72061904D01*
X110342857Y-72014285D01*
X110438095Y-72014285D01*
X110580952Y-72061904D01*
X111152381Y-72633333D01*
X111152381Y-72014285D01*
X112752381Y-72966666D02*
X112276190Y-73300000D01*
X112752381Y-73538095D02*
X111752381Y-73538095D01*
X111752381Y-73157142D01*
X111800000Y-73061904D01*
X111847619Y-73014285D01*
X111942857Y-72966666D01*
X112085714Y-72966666D01*
X112180952Y-73014285D01*
X112228571Y-73061904D01*
X112276190Y-73157142D01*
X112276190Y-73538095D01*
X111752381Y-72633333D02*
X111752381Y-72014285D01*
X112133333Y-72347619D01*
X112133333Y-72204761D01*
X112180952Y-72109523D01*
X112228571Y-72061904D01*
X112323810Y-72014285D01*
X112561905Y-72014285D01*
X112657143Y-72061904D01*
X112704762Y-72109523D01*
X112752381Y-72204761D01*
X112752381Y-72490476D01*
X112704762Y-72585714D01*
X112657143Y-72633333D01*
X114352381Y-72966666D02*
X113876190Y-73300000D01*
X114352381Y-73538095D02*
X113352381Y-73538095D01*
X113352381Y-73157142D01*
X113400000Y-73061904D01*
X113447619Y-73014285D01*
X113542857Y-72966666D01*
X113685714Y-72966666D01*
X113780952Y-73014285D01*
X113828571Y-73061904D01*
X113876190Y-73157142D01*
X113876190Y-73538095D01*
X113685714Y-72109523D02*
X114352381Y-72109523D01*
X113304762Y-72347619D02*
X114019048Y-72585714D01*
X114019048Y-71966666D01*
X115952381Y-72966666D02*
X115476190Y-73300000D01*
X115952381Y-73538095D02*
X114952381Y-73538095D01*
X114952381Y-73157142D01*
X115000000Y-73061904D01*
X115047619Y-73014285D01*
X115142857Y-72966666D01*
X115285714Y-72966666D01*
X115380952Y-73014285D01*
X115428571Y-73061904D01*
X115476190Y-73157142D01*
X115476190Y-73538095D01*
X114952381Y-72061904D02*
X114952381Y-72538095D01*
X115428571Y-72585714D01*
X115380952Y-72538095D01*
X115333333Y-72442857D01*
X115333333Y-72204761D01*
X115380952Y-72109523D01*
X115428571Y-72061904D01*
X115523810Y-72014285D01*
X115761905Y-72014285D01*
X115857143Y-72061904D01*
X115904762Y-72109523D01*
X115952381Y-72204761D01*
X115952381Y-72442857D01*
X115904762Y-72538095D01*
X115857143Y-72585714D01*
X117552381Y-72966666D02*
X117076190Y-73300000D01*
X117552381Y-73538095D02*
X116552381Y-73538095D01*
X116552381Y-73157142D01*
X116600000Y-73061904D01*
X116647619Y-73014285D01*
X116742857Y-72966666D01*
X116885714Y-72966666D01*
X116980952Y-73014285D01*
X117028571Y-73061904D01*
X117076190Y-73157142D01*
X117076190Y-73538095D01*
X116552381Y-72109523D02*
X116552381Y-72300000D01*
X116600000Y-72395238D01*
X116647619Y-72442857D01*
X116790476Y-72538095D01*
X116980952Y-72585714D01*
X117361905Y-72585714D01*
X117457143Y-72538095D01*
X117504762Y-72490476D01*
X117552381Y-72395238D01*
X117552381Y-72204761D01*
X117504762Y-72109523D01*
X117457143Y-72061904D01*
X117361905Y-72014285D01*
X117123810Y-72014285D01*
X117028571Y-72061904D01*
X116980952Y-72109523D01*
X116933333Y-72204761D01*
X116933333Y-72395238D01*
X116980952Y-72490476D01*
X117028571Y-72538095D01*
X117123810Y-72585714D01*
X155472619Y-75095238D02*
X155425000Y-75190476D01*
X155329762Y-75285714D01*
X155186905Y-75428571D01*
X155139286Y-75523810D01*
X155139286Y-75619048D01*
X155377381Y-75571429D02*
X155329762Y-75666667D01*
X155234524Y-75761905D01*
X155044048Y-75809524D01*
X154710714Y-75809524D01*
X154520238Y-75761905D01*
X154425000Y-75666667D01*
X154377381Y-75571429D01*
X154377381Y-75380952D01*
X154425000Y-75285714D01*
X154520238Y-75190476D01*
X154710714Y-75142857D01*
X155044048Y-75142857D01*
X155234524Y-75190476D01*
X155329762Y-75285714D01*
X155377381Y-75380952D01*
X155377381Y-75571429D01*
X155377381Y-74190476D02*
X155377381Y-74761905D01*
X155377381Y-74476191D02*
X154377381Y-74476191D01*
X154520238Y-74571429D01*
X154615476Y-74666667D01*
X154663095Y-74761905D01*
X155472619Y-85095238D02*
X155425000Y-85190476D01*
X155329762Y-85285714D01*
X155186905Y-85428571D01*
X155139286Y-85523810D01*
X155139286Y-85619048D01*
X155377381Y-85571429D02*
X155329762Y-85666667D01*
X155234524Y-85761905D01*
X155044048Y-85809524D01*
X154710714Y-85809524D01*
X154520238Y-85761905D01*
X154425000Y-85666667D01*
X154377381Y-85571429D01*
X154377381Y-85380952D01*
X154425000Y-85285714D01*
X154520238Y-85190476D01*
X154710714Y-85142857D01*
X155044048Y-85142857D01*
X155234524Y-85190476D01*
X155329762Y-85285714D01*
X155377381Y-85380952D01*
X155377381Y-85571429D01*
X154472619Y-84761905D02*
X154425000Y-84714286D01*
X154377381Y-84619048D01*
X154377381Y-84380952D01*
X154425000Y-84285714D01*
X154472619Y-84238095D01*
X154567857Y-84190476D01*
X154663095Y-84190476D01*
X154805952Y-84238095D01*
X155377381Y-84809524D01*
X155377381Y-84190476D01*
X155472619Y-95095238D02*
X155425000Y-95190476D01*
X155329762Y-95285714D01*
X155186905Y-95428571D01*
X155139286Y-95523810D01*
X155139286Y-95619048D01*
X155377381Y-95571429D02*
X155329762Y-95666667D01*
X155234524Y-95761905D01*
X155044048Y-95809524D01*
X154710714Y-95809524D01*
X154520238Y-95761905D01*
X154425000Y-95666667D01*
X154377381Y-95571429D01*
X154377381Y-95380952D01*
X154425000Y-95285714D01*
X154520238Y-95190476D01*
X154710714Y-95142857D01*
X155044048Y-95142857D01*
X155234524Y-95190476D01*
X155329762Y-95285714D01*
X155377381Y-95380952D01*
X155377381Y-95571429D01*
X154377381Y-94809524D02*
X154377381Y-94190476D01*
X154758333Y-94523810D01*
X154758333Y-94380952D01*
X154805952Y-94285714D01*
X154853571Y-94238095D01*
X154948810Y-94190476D01*
X155186905Y-94190476D01*
X155282143Y-94238095D01*
X155329762Y-94285714D01*
X155377381Y-94380952D01*
X155377381Y-94666667D01*
X155329762Y-94761905D01*
X155282143Y-94809524D01*
X155472619Y-105095238D02*
X155425000Y-105190476D01*
X155329762Y-105285714D01*
X155186905Y-105428571D01*
X155139286Y-105523810D01*
X155139286Y-105619048D01*
X155377381Y-105571429D02*
X155329762Y-105666667D01*
X155234524Y-105761905D01*
X155044048Y-105809524D01*
X154710714Y-105809524D01*
X154520238Y-105761905D01*
X154425000Y-105666667D01*
X154377381Y-105571429D01*
X154377381Y-105380952D01*
X154425000Y-105285714D01*
X154520238Y-105190476D01*
X154710714Y-105142857D01*
X155044048Y-105142857D01*
X155234524Y-105190476D01*
X155329762Y-105285714D01*
X155377381Y-105380952D01*
X155377381Y-105571429D01*
X154710714Y-104285714D02*
X155377381Y-104285714D01*
X154329762Y-104523810D02*
X155044048Y-104761905D01*
X155044048Y-104142857D01*
X159752381Y-90333333D02*
X160466667Y-90333333D01*
X160609524Y-90380953D01*
X160704762Y-90476191D01*
X160752381Y-90619048D01*
X160752381Y-90714286D01*
X160752381Y-89333333D02*
X160752381Y-89904762D01*
X160752381Y-89619048D02*
X159752381Y-89619048D01*
X159895238Y-89714286D01*
X159990476Y-89809524D01*
X160038095Y-89904762D01*
X123952381Y-72966666D02*
X123476190Y-73300000D01*
X123952381Y-73538095D02*
X122952381Y-73538095D01*
X122952381Y-73157142D01*
X123000000Y-73061904D01*
X123047619Y-73014285D01*
X123142857Y-72966666D01*
X123285714Y-72966666D01*
X123380952Y-73014285D01*
X123428571Y-73061904D01*
X123476190Y-73157142D01*
X123476190Y-73538095D01*
X122952381Y-72633333D02*
X122952381Y-71966666D01*
X123952381Y-72395238D01*
X122352381Y-72966666D02*
X121876190Y-73300000D01*
X122352381Y-73538095D02*
X121352381Y-73538095D01*
X121352381Y-73157142D01*
X121400000Y-73061904D01*
X121447619Y-73014285D01*
X121542857Y-72966666D01*
X121685714Y-72966666D01*
X121780952Y-73014285D01*
X121828571Y-73061904D01*
X121876190Y-73157142D01*
X121876190Y-73538095D01*
X121780952Y-72395238D02*
X121733333Y-72490476D01*
X121685714Y-72538095D01*
X121590476Y-72585714D01*
X121542857Y-72585714D01*
X121447619Y-72538095D01*
X121400000Y-72490476D01*
X121352381Y-72395238D01*
X121352381Y-72204761D01*
X121400000Y-72109523D01*
X121447619Y-72061904D01*
X121542857Y-72014285D01*
X121590476Y-72014285D01*
X121685714Y-72061904D01*
X121733333Y-72109523D01*
X121780952Y-72204761D01*
X121780952Y-72395238D01*
X121828571Y-72490476D01*
X121876190Y-72538095D01*
X121971429Y-72585714D01*
X122161905Y-72585714D01*
X122257143Y-72538095D01*
X122304762Y-72490476D01*
X122352381Y-72395238D01*
X122352381Y-72204761D01*
X122304762Y-72109523D01*
X122257143Y-72061904D01*
X122161905Y-72014285D01*
X121971429Y-72014285D01*
X121876190Y-72061904D01*
X121828571Y-72109523D01*
X121780952Y-72204761D01*
X120752381Y-72966666D02*
X120276190Y-73300000D01*
X120752381Y-73538095D02*
X119752381Y-73538095D01*
X119752381Y-73157142D01*
X119800000Y-73061904D01*
X119847619Y-73014285D01*
X119942857Y-72966666D01*
X120085714Y-72966666D01*
X120180952Y-73014285D01*
X120228571Y-73061904D01*
X120276190Y-73157142D01*
X120276190Y-73538095D01*
X120752381Y-72490476D02*
X120752381Y-72300000D01*
X120704762Y-72204761D01*
X120657143Y-72157142D01*
X120514286Y-72061904D01*
X120323810Y-72014285D01*
X119942857Y-72014285D01*
X119847619Y-72061904D01*
X119800000Y-72109523D01*
X119752381Y-72204761D01*
X119752381Y-72395238D01*
X119800000Y-72490476D01*
X119847619Y-72538095D01*
X119942857Y-72585714D01*
X120180952Y-72585714D01*
X120276190Y-72538095D01*
X120323810Y-72490476D01*
X120371429Y-72395238D01*
X120371429Y-72204761D01*
X120323810Y-72109523D01*
X120276190Y-72061904D01*
X120180952Y-72014285D01*
X118916667Y-73350000D02*
X118583333Y-73583334D01*
X118916667Y-73750000D02*
X118216667Y-73750000D01*
X118216667Y-73483334D01*
X118250000Y-73416667D01*
X118283333Y-73383334D01*
X118350000Y-73350000D01*
X118450000Y-73350000D01*
X118516667Y-73383334D01*
X118550000Y-73416667D01*
X118583333Y-73483334D01*
X118583333Y-73750000D01*
X118916667Y-72683334D02*
X118916667Y-73083334D01*
X118916667Y-72883334D02*
X118216667Y-72883334D01*
X118316667Y-72950000D01*
X118383333Y-73016667D01*
X118416667Y-73083334D01*
X118216667Y-72250000D02*
X118216667Y-72183333D01*
X118250000Y-72116667D01*
X118283333Y-72083333D01*
X118350000Y-72050000D01*
X118483333Y-72016667D01*
X118650000Y-72016667D01*
X118783333Y-72050000D01*
X118850000Y-72083333D01*
X118883333Y-72116667D01*
X118916667Y-72183333D01*
X118916667Y-72250000D01*
X118883333Y-72316667D01*
X118850000Y-72350000D01*
X118783333Y-72383333D01*
X118650000Y-72416667D01*
X118483333Y-72416667D01*
X118350000Y-72383333D01*
X118283333Y-72350000D01*
X118250000Y-72316667D01*
X118216667Y-72250000D01*
X127357143Y-84352381D02*
X127023809Y-83876190D01*
X126785714Y-84352381D02*
X126785714Y-83352381D01*
X127166667Y-83352381D01*
X127261905Y-83400000D01*
X127309524Y-83447619D01*
X127357143Y-83542857D01*
X127357143Y-83685714D01*
X127309524Y-83780952D01*
X127261905Y-83828571D01*
X127166667Y-83876190D01*
X126785714Y-83876190D01*
X128309524Y-84352381D02*
X127738095Y-84352381D01*
X128023809Y-84352381D02*
X128023809Y-83352381D01*
X127928571Y-83495238D01*
X127833333Y-83590476D01*
X127738095Y-83638095D01*
X129261905Y-84352381D02*
X128690476Y-84352381D01*
X128976190Y-84352381D02*
X128976190Y-83352381D01*
X128880952Y-83495238D01*
X128785714Y-83590476D01*
X128690476Y-83638095D01*
X127357143Y-82552381D02*
X127023809Y-82076190D01*
X126785714Y-82552381D02*
X126785714Y-81552381D01*
X127166667Y-81552381D01*
X127261905Y-81600000D01*
X127309524Y-81647619D01*
X127357143Y-81742857D01*
X127357143Y-81885714D01*
X127309524Y-81980952D01*
X127261905Y-82028571D01*
X127166667Y-82076190D01*
X126785714Y-82076190D01*
X128309524Y-82552381D02*
X127738095Y-82552381D01*
X128023809Y-82552381D02*
X128023809Y-81552381D01*
X127928571Y-81695238D01*
X127833333Y-81790476D01*
X127738095Y-81838095D01*
X128690476Y-81647619D02*
X128738095Y-81600000D01*
X128833333Y-81552381D01*
X129071429Y-81552381D01*
X129166667Y-81600000D01*
X129214286Y-81647619D01*
X129261905Y-81742857D01*
X129261905Y-81838095D01*
X129214286Y-81980952D01*
X128642857Y-82552381D01*
X129261905Y-82552381D01*
X127457143Y-80752381D02*
X127123809Y-80276190D01*
X126885714Y-80752381D02*
X126885714Y-79752381D01*
X127266667Y-79752381D01*
X127361905Y-79800000D01*
X127409524Y-79847619D01*
X127457143Y-79942857D01*
X127457143Y-80085714D01*
X127409524Y-80180952D01*
X127361905Y-80228571D01*
X127266667Y-80276190D01*
X126885714Y-80276190D01*
X128409524Y-80752381D02*
X127838095Y-80752381D01*
X128123809Y-80752381D02*
X128123809Y-79752381D01*
X128028571Y-79895238D01*
X127933333Y-79990476D01*
X127838095Y-80038095D01*
X128742857Y-79752381D02*
X129361905Y-79752381D01*
X129028571Y-80133333D01*
X129171429Y-80133333D01*
X129266667Y-80180952D01*
X129314286Y-80228571D01*
X129361905Y-80323810D01*
X129361905Y-80561905D01*
X129314286Y-80657143D01*
X129266667Y-80704762D01*
X129171429Y-80752381D01*
X128885714Y-80752381D01*
X128790476Y-80704762D01*
X128742857Y-80657143D01*
X127357143Y-78952381D02*
X127023809Y-78476190D01*
X126785714Y-78952381D02*
X126785714Y-77952381D01*
X127166667Y-77952381D01*
X127261905Y-78000000D01*
X127309524Y-78047619D01*
X127357143Y-78142857D01*
X127357143Y-78285714D01*
X127309524Y-78380952D01*
X127261905Y-78428571D01*
X127166667Y-78476190D01*
X126785714Y-78476190D01*
X128309524Y-78952381D02*
X127738095Y-78952381D01*
X128023809Y-78952381D02*
X128023809Y-77952381D01*
X127928571Y-78095238D01*
X127833333Y-78190476D01*
X127738095Y-78238095D01*
X129166667Y-78285714D02*
X129166667Y-78952381D01*
X128928571Y-77904762D02*
X128690476Y-78619048D01*
X129309524Y-78619048D01*
X125252381Y-107761905D02*
X126061905Y-107761905D01*
X126157143Y-107714286D01*
X126204762Y-107666667D01*
X126252381Y-107571429D01*
X126252381Y-107380952D01*
X126204762Y-107285714D01*
X126157143Y-107238095D01*
X126061905Y-107190476D01*
X125252381Y-107190476D01*
X125347619Y-106761905D02*
X125300000Y-106714286D01*
X125252381Y-106619048D01*
X125252381Y-106380952D01*
X125300000Y-106285714D01*
X125347619Y-106238095D01*
X125442857Y-106190476D01*
X125538095Y-106190476D01*
X125680952Y-106238095D01*
X126252381Y-106809524D01*
X126252381Y-106190476D01*
X118538095Y-84952381D02*
X118538095Y-85761905D01*
X118585714Y-85857143D01*
X118633333Y-85904762D01*
X118728571Y-85952381D01*
X118919048Y-85952381D01*
X119014286Y-85904762D01*
X119061905Y-85857143D01*
X119109524Y-85761905D01*
X119109524Y-84952381D01*
X119490476Y-84952381D02*
X120109524Y-84952381D01*
X119776190Y-85333333D01*
X119919048Y-85333333D01*
X120014286Y-85380952D01*
X120061905Y-85428571D01*
X120109524Y-85523810D01*
X120109524Y-85761905D01*
X120061905Y-85857143D01*
X120014286Y-85904762D01*
X119919048Y-85952381D01*
X119633333Y-85952381D01*
X119538095Y-85904762D01*
X119490476Y-85857143D01*
X119752381Y-101733333D02*
X120466667Y-101733333D01*
X120609524Y-101780953D01*
X120704762Y-101876191D01*
X120752381Y-102019048D01*
X120752381Y-102114286D01*
X119847619Y-101304762D02*
X119800000Y-101257143D01*
X119752381Y-101161905D01*
X119752381Y-100923809D01*
X119800000Y-100828571D01*
X119847619Y-100780952D01*
X119942857Y-100733333D01*
X120038095Y-100733333D01*
X120180952Y-100780952D01*
X120752381Y-101352381D01*
X120752381Y-100733333D01*
X109452381Y-92096333D02*
X110166667Y-92096333D01*
X110309524Y-92143953D01*
X110404762Y-92239191D01*
X110452381Y-92382048D01*
X110452381Y-92477286D01*
X109452381Y-91715381D02*
X109452381Y-91096333D01*
X109833333Y-91429667D01*
X109833333Y-91286809D01*
X109880952Y-91191571D01*
X109928571Y-91143952D01*
X110023810Y-91096333D01*
X110261905Y-91096333D01*
X110357143Y-91143952D01*
X110404762Y-91191571D01*
X110452381Y-91286809D01*
X110452381Y-91572524D01*
X110404762Y-91667762D01*
X110357143Y-91715381D01*
X135333334Y-109957143D02*
X135285715Y-110004762D01*
X135142858Y-110052381D01*
X135047620Y-110052381D01*
X134904762Y-110004762D01*
X134809524Y-109909524D01*
X134761905Y-109814286D01*
X134714286Y-109623810D01*
X134714286Y-109480952D01*
X134761905Y-109290476D01*
X134809524Y-109195238D01*
X134904762Y-109100000D01*
X135047620Y-109052381D01*
X135142858Y-109052381D01*
X135285715Y-109100000D01*
X135333334Y-109147619D01*
X136285715Y-110052381D02*
X135714286Y-110052381D01*
X136000000Y-110052381D02*
X136000000Y-109052381D01*
X135904762Y-109195238D01*
X135809524Y-109290476D01*
X135714286Y-109338095D01*
X132733334Y-102957143D02*
X132685715Y-103004762D01*
X132542858Y-103052381D01*
X132447620Y-103052381D01*
X132304762Y-103004762D01*
X132209524Y-102909524D01*
X132161905Y-102814286D01*
X132114286Y-102623810D01*
X132114286Y-102480952D01*
X132161905Y-102290476D01*
X132209524Y-102195238D01*
X132304762Y-102100000D01*
X132447620Y-102052381D01*
X132542858Y-102052381D01*
X132685715Y-102100000D01*
X132733334Y-102147619D01*
X133114286Y-102147619D02*
X133161905Y-102100000D01*
X133257143Y-102052381D01*
X133495239Y-102052381D01*
X133590477Y-102100000D01*
X133638096Y-102147619D01*
X133685715Y-102242857D01*
X133685715Y-102338095D01*
X133638096Y-102480952D01*
X133066667Y-103052381D01*
X133685715Y-103052381D01*
X134452381Y-73661905D02*
X135261905Y-73661905D01*
X135357143Y-73614286D01*
X135404762Y-73566667D01*
X135452381Y-73471429D01*
X135452381Y-73280952D01*
X135404762Y-73185714D01*
X135357143Y-73138095D01*
X135261905Y-73090476D01*
X134452381Y-73090476D01*
X135452381Y-72090476D02*
X135452381Y-72661905D01*
X135452381Y-72376191D02*
X134452381Y-72376191D01*
X134595238Y-72471429D01*
X134690476Y-72566667D01*
X134738095Y-72661905D01*
X148161905Y-79552381D02*
X148161905Y-78552381D01*
X148400000Y-78552381D01*
X148542858Y-78600000D01*
X148638096Y-78695238D01*
X148685715Y-78790476D01*
X148733334Y-78980952D01*
X148733334Y-79123810D01*
X148685715Y-79314286D01*
X148638096Y-79409524D01*
X148542858Y-79504762D01*
X148400000Y-79552381D01*
X148161905Y-79552381D01*
X149685715Y-79552381D02*
X149114286Y-79552381D01*
X149400000Y-79552381D02*
X149400000Y-78552381D01*
X149304762Y-78695238D01*
X149209524Y-78790476D01*
X149114286Y-78838095D01*
X148261905Y-89652381D02*
X148261905Y-88652381D01*
X148500000Y-88652381D01*
X148642858Y-88700000D01*
X148738096Y-88795238D01*
X148785715Y-88890476D01*
X148833334Y-89080952D01*
X148833334Y-89223810D01*
X148785715Y-89414286D01*
X148738096Y-89509524D01*
X148642858Y-89604762D01*
X148500000Y-89652381D01*
X148261905Y-89652381D01*
X149214286Y-88747619D02*
X149261905Y-88700000D01*
X149357143Y-88652381D01*
X149595239Y-88652381D01*
X149690477Y-88700000D01*
X149738096Y-88747619D01*
X149785715Y-88842857D01*
X149785715Y-88938095D01*
X149738096Y-89080952D01*
X149166667Y-89652381D01*
X149785715Y-89652381D01*
X148261905Y-99552381D02*
X148261905Y-98552381D01*
X148500000Y-98552381D01*
X148642858Y-98600000D01*
X148738096Y-98695238D01*
X148785715Y-98790476D01*
X148833334Y-98980952D01*
X148833334Y-99123810D01*
X148785715Y-99314286D01*
X148738096Y-99409524D01*
X148642858Y-99504762D01*
X148500000Y-99552381D01*
X148261905Y-99552381D01*
X149166667Y-98552381D02*
X149785715Y-98552381D01*
X149452381Y-98933333D01*
X149595239Y-98933333D01*
X149690477Y-98980952D01*
X149738096Y-99028571D01*
X149785715Y-99123810D01*
X149785715Y-99361905D01*
X149738096Y-99457143D01*
X149690477Y-99504762D01*
X149595239Y-99552381D01*
X149309524Y-99552381D01*
X149214286Y-99504762D01*
X149166667Y-99457143D01*
X148261905Y-109552381D02*
X148261905Y-108552381D01*
X148500000Y-108552381D01*
X148642858Y-108600000D01*
X148738096Y-108695238D01*
X148785715Y-108790476D01*
X148833334Y-108980952D01*
X148833334Y-109123810D01*
X148785715Y-109314286D01*
X148738096Y-109409524D01*
X148642858Y-109504762D01*
X148500000Y-109552381D01*
X148261905Y-109552381D01*
X149690477Y-108885714D02*
X149690477Y-109552381D01*
X149452381Y-108504762D02*
X149214286Y-109219048D01*
X149833334Y-109219048D01*
X139157143Y-79552381D02*
X138823809Y-79076190D01*
X138585714Y-79552381D02*
X138585714Y-78552381D01*
X138966667Y-78552381D01*
X139061905Y-78600000D01*
X139109524Y-78647619D01*
X139157143Y-78742857D01*
X139157143Y-78885714D01*
X139109524Y-78980952D01*
X139061905Y-79028571D01*
X138966667Y-79076190D01*
X138585714Y-79076190D01*
X140109524Y-79552381D02*
X139538095Y-79552381D01*
X139823809Y-79552381D02*
X139823809Y-78552381D01*
X139728571Y-78695238D01*
X139633333Y-78790476D01*
X139538095Y-78838095D01*
X141014286Y-78552381D02*
X140538095Y-78552381D01*
X140490476Y-79028571D01*
X140538095Y-78980952D01*
X140633333Y-78933333D01*
X140871429Y-78933333D01*
X140966667Y-78980952D01*
X141014286Y-79028571D01*
X141061905Y-79123810D01*
X141061905Y-79361905D01*
X141014286Y-79457143D01*
X140966667Y-79504762D01*
X140871429Y-79552381D01*
X140633333Y-79552381D01*
X140538095Y-79504762D01*
X140490476Y-79457143D01*
X139157143Y-89552381D02*
X138823809Y-89076190D01*
X138585714Y-89552381D02*
X138585714Y-88552381D01*
X138966667Y-88552381D01*
X139061905Y-88600000D01*
X139109524Y-88647619D01*
X139157143Y-88742857D01*
X139157143Y-88885714D01*
X139109524Y-88980952D01*
X139061905Y-89028571D01*
X138966667Y-89076190D01*
X138585714Y-89076190D01*
X140109524Y-89552381D02*
X139538095Y-89552381D01*
X139823809Y-89552381D02*
X139823809Y-88552381D01*
X139728571Y-88695238D01*
X139633333Y-88790476D01*
X139538095Y-88838095D01*
X140966667Y-88552381D02*
X140776190Y-88552381D01*
X140680952Y-88600000D01*
X140633333Y-88647619D01*
X140538095Y-88790476D01*
X140490476Y-88980952D01*
X140490476Y-89361905D01*
X140538095Y-89457143D01*
X140585714Y-89504762D01*
X140680952Y-89552381D01*
X140871429Y-89552381D01*
X140966667Y-89504762D01*
X141014286Y-89457143D01*
X141061905Y-89361905D01*
X141061905Y-89123810D01*
X141014286Y-89028571D01*
X140966667Y-88980952D01*
X140871429Y-88933333D01*
X140680952Y-88933333D01*
X140585714Y-88980952D01*
X140538095Y-89028571D01*
X140490476Y-89123810D01*
X139157143Y-99552381D02*
X138823809Y-99076190D01*
X138585714Y-99552381D02*
X138585714Y-98552381D01*
X138966667Y-98552381D01*
X139061905Y-98600000D01*
X139109524Y-98647619D01*
X139157143Y-98742857D01*
X139157143Y-98885714D01*
X139109524Y-98980952D01*
X139061905Y-99028571D01*
X138966667Y-99076190D01*
X138585714Y-99076190D01*
X140109524Y-99552381D02*
X139538095Y-99552381D01*
X139823809Y-99552381D02*
X139823809Y-98552381D01*
X139728571Y-98695238D01*
X139633333Y-98790476D01*
X139538095Y-98838095D01*
X140442857Y-98552381D02*
X141109524Y-98552381D01*
X140680952Y-99552381D01*
X139157143Y-109552381D02*
X138823809Y-109076190D01*
X138585714Y-109552381D02*
X138585714Y-108552381D01*
X138966667Y-108552381D01*
X139061905Y-108600000D01*
X139109524Y-108647619D01*
X139157143Y-108742857D01*
X139157143Y-108885714D01*
X139109524Y-108980952D01*
X139061905Y-109028571D01*
X138966667Y-109076190D01*
X138585714Y-109076190D01*
X140109524Y-109552381D02*
X139538095Y-109552381D01*
X139823809Y-109552381D02*
X139823809Y-108552381D01*
X139728571Y-108695238D01*
X139633333Y-108790476D01*
X139538095Y-108838095D01*
X140680952Y-108980952D02*
X140585714Y-108933333D01*
X140538095Y-108885714D01*
X140490476Y-108790476D01*
X140490476Y-108742857D01*
X140538095Y-108647619D01*
X140585714Y-108600000D01*
X140680952Y-108552381D01*
X140871429Y-108552381D01*
X140966667Y-108600000D01*
X141014286Y-108647619D01*
X141061905Y-108742857D01*
X141061905Y-108790476D01*
X141014286Y-108885714D01*
X140966667Y-108933333D01*
X140871429Y-108980952D01*
X140680952Y-108980952D01*
X140585714Y-109028571D01*
X140538095Y-109076190D01*
X140490476Y-109171429D01*
X140490476Y-109361905D01*
X140538095Y-109457143D01*
X140585714Y-109504762D01*
X140680952Y-109552381D01*
X140871429Y-109552381D01*
X140966667Y-109504762D01*
X141014286Y-109457143D01*
X141061905Y-109361905D01*
X141061905Y-109171429D01*
X141014286Y-109076190D01*
X140966667Y-109028571D01*
X140871429Y-108980952D01*
M02*
