G04 #@! TF.FileFunction,Copper,L2,Inr,Signal*
%FSLAX46Y46*%
G04 Gerber Fmt 4.6, Leading zero omitted, Abs format (unit mm)*
G04 Created by KiCad (PCBNEW 4.0.2+e4-6225~38~ubuntu14.04.1-stable) date Fri 29 Jul 2016 12:50:15 AM PDT*
%MOMM*%
G01*
G04 APERTURE LIST*
%ADD10C,0.100000*%
%ADD11C,2.000000*%
%ADD12C,1.524000*%
%ADD13C,1.016000*%
%ADD14C,2.700000*%
%ADD15C,0.600000*%
%ADD16C,0.150000*%
%ADD17C,0.200000*%
G04 APERTURE END LIST*
D10*
D11*
X162000000Y-107500000D03*
X162000000Y-102500000D03*
X162000000Y-72500000D03*
X162000000Y-77500000D03*
X162000000Y-97500000D03*
X162000000Y-92500000D03*
X162000000Y-87500000D03*
X162000000Y-82500000D03*
D12*
X128500000Y-107000000D03*
X128500000Y-109540000D03*
X128500000Y-104460000D03*
D11*
X118600000Y-93900000D03*
X118600000Y-98900000D03*
X118600000Y-103900000D03*
X118600000Y-108900000D03*
D13*
X109365000Y-77285000D03*
X110635000Y-77285000D03*
X109365000Y-88715000D03*
X109365000Y-78555000D03*
X110635000Y-78555000D03*
X109365000Y-79825000D03*
X110635000Y-79825000D03*
X109365000Y-81095000D03*
X110635000Y-81095000D03*
X109365000Y-82365000D03*
X110635000Y-82365000D03*
X109365000Y-83635000D03*
X110635000Y-83635000D03*
X109365000Y-84905000D03*
X110635000Y-84905000D03*
X109365000Y-86175000D03*
X110635000Y-86175000D03*
X109365000Y-87445000D03*
X110635000Y-87445000D03*
X110635000Y-88715000D03*
D14*
X169000000Y-109000000D03*
X169000000Y-71000000D03*
X106000000Y-71000000D03*
X106000000Y-109000000D03*
D15*
X107800000Y-69800000D03*
X109100000Y-72200000D03*
X110700000Y-72300000D03*
X112300000Y-72300000D03*
X113900000Y-72300000D03*
X115500000Y-72300000D03*
X117100000Y-72300000D03*
X118700000Y-68900000D03*
X129600000Y-71600000D03*
X147100000Y-77900000D03*
X133400000Y-71600000D03*
X147200000Y-87900000D03*
X132200000Y-74200000D03*
X147200000Y-97900000D03*
X128400000Y-74100000D03*
X147200000Y-107900000D03*
X120800000Y-82800000D03*
X125800000Y-68800000D03*
X117400000Y-83800000D03*
X123500000Y-72200000D03*
X117400000Y-81300000D03*
X121900000Y-72300000D03*
X117400000Y-78700000D03*
X120300000Y-72300000D03*
X117400000Y-76200000D03*
X118700000Y-72300000D03*
X123600000Y-82000000D03*
X130900000Y-77300000D03*
X123600000Y-83800000D03*
X127100000Y-77200000D03*
X132100000Y-68800000D03*
X123600000Y-80100000D03*
X128300000Y-68800000D03*
X124500000Y-77200000D03*
D16*
X109365000Y-88715000D02*
X107115000Y-88715000D01*
X108700000Y-72600000D02*
X109100000Y-72200000D01*
X105900000Y-72600000D02*
X108700000Y-72600000D01*
X105200000Y-73300000D02*
X105900000Y-72600000D01*
X105200000Y-86800000D02*
X105200000Y-73300000D01*
X107115000Y-88715000D02*
X105200000Y-86800000D01*
X109365000Y-84905000D02*
X106505000Y-84905000D01*
X110099998Y-72900002D02*
X110700000Y-72300000D01*
X106699998Y-72900002D02*
X110099998Y-72900002D01*
X105500002Y-74099998D02*
X106699998Y-72900002D01*
X105500002Y-83900002D02*
X105500002Y-74099998D01*
X106505000Y-84905000D02*
X105500002Y-83900002D01*
X109365000Y-83635000D02*
X106335000Y-83635000D01*
X111399996Y-73200004D02*
X112300000Y-72300000D01*
X107399996Y-73200004D02*
X111399996Y-73200004D01*
X105900000Y-74700000D02*
X107399996Y-73200004D01*
X105900000Y-83200000D02*
X105900000Y-74700000D01*
X106335000Y-83635000D02*
X105900000Y-83200000D01*
X109365000Y-82365000D02*
X106965000Y-82365000D01*
X112699994Y-73500006D02*
X113900000Y-72300000D01*
X108199994Y-73500006D02*
X112699994Y-73500006D01*
X106300000Y-75400000D02*
X108199994Y-73500006D01*
X106300000Y-81700000D02*
X106300000Y-75400000D01*
X106965000Y-82365000D02*
X106300000Y-81700000D01*
X109365000Y-81095000D02*
X107595000Y-81095000D01*
X114800000Y-73000000D02*
X115500000Y-72300000D01*
X114200000Y-73000000D02*
X114800000Y-73000000D01*
X113399992Y-73800008D02*
X114200000Y-73000000D01*
X108599992Y-73800008D02*
X113399992Y-73800008D01*
X106600002Y-75799998D02*
X108599992Y-73800008D01*
X106600002Y-80100002D02*
X106600002Y-75799998D01*
X107595000Y-81095000D02*
X106600002Y-80100002D01*
X110635000Y-88715000D02*
X110635000Y-89065000D01*
X110635000Y-89065000D02*
X109800000Y-89900000D01*
X109800000Y-89900000D02*
X107100000Y-89900000D01*
X107100000Y-89900000D02*
X104800000Y-87600000D01*
X104800000Y-87600000D02*
X104800000Y-72900000D01*
X104800000Y-72900000D02*
X106400000Y-71300000D01*
X106400000Y-71300000D02*
X116600000Y-71300000D01*
X116600000Y-71300000D02*
X117100000Y-71800000D01*
X117100000Y-71800000D02*
X117100000Y-72300000D01*
X129600000Y-71600000D02*
X129600000Y-70400000D01*
X147100000Y-70300000D02*
X147100000Y-77900000D01*
X146300000Y-69500000D02*
X147100000Y-70300000D01*
X130500000Y-69500000D02*
X146300000Y-69500000D01*
X129600000Y-70400000D02*
X130500000Y-69500000D01*
X133400000Y-71600000D02*
X145400000Y-71600000D01*
X147100000Y-87800000D02*
X147200000Y-87900000D01*
X147100000Y-79900000D02*
X147100000Y-87800000D01*
X146400000Y-79200000D02*
X147100000Y-79900000D01*
X146400000Y-72600000D02*
X146400000Y-79200000D01*
X145400000Y-71600000D02*
X146400000Y-72600000D01*
X132200000Y-74200000D02*
X144200000Y-74200000D01*
X147200000Y-89900000D02*
X147200000Y-97900000D01*
X146000000Y-88700000D02*
X147200000Y-89900000D01*
X146000000Y-76000000D02*
X146000000Y-88700000D01*
X144200000Y-74200000D02*
X146000000Y-76000000D01*
X128400000Y-74100000D02*
X129800000Y-74100000D01*
X145500000Y-106200000D02*
X147200000Y-107900000D01*
X145500000Y-79000000D02*
X145500000Y-106200000D01*
X142800000Y-76300000D02*
X145500000Y-79000000D01*
X132000000Y-76300000D02*
X142800000Y-76300000D01*
X129800000Y-74100000D02*
X132000000Y-76300000D01*
X117400000Y-83800000D02*
X117500000Y-83800000D01*
X122900000Y-72200000D02*
X123500000Y-72200000D01*
X122200000Y-72900000D02*
X122900000Y-72200000D01*
X121200000Y-72900000D02*
X122200000Y-72900000D01*
X120800000Y-73300000D02*
X121200000Y-72900000D01*
X120100000Y-73300000D02*
X120800000Y-73300000D01*
X119600000Y-73800000D02*
X120100000Y-73300000D01*
X119300000Y-73800000D02*
X119600000Y-73800000D01*
X118800000Y-74300000D02*
X119300000Y-73800000D01*
X118800000Y-79200000D02*
X118800000Y-74300000D01*
X118000000Y-80000000D02*
X118800000Y-79200000D01*
X118000000Y-83300000D02*
X118000000Y-80000000D01*
X117500000Y-83800000D02*
X118000000Y-83300000D01*
X117400000Y-81300000D02*
X117400000Y-80000000D01*
X121300000Y-72300000D02*
X121900000Y-72300000D01*
X120700000Y-72900000D02*
X121300000Y-72300000D01*
X119900000Y-72900000D02*
X120700000Y-72900000D01*
X119400000Y-73400000D02*
X119900000Y-72900000D01*
X119000000Y-73400000D02*
X119400000Y-73400000D01*
X118400000Y-74000000D02*
X119000000Y-73400000D01*
X118400000Y-79000000D02*
X118400000Y-74000000D01*
X117400000Y-80000000D02*
X118400000Y-79000000D01*
X117400000Y-78700000D02*
X117600000Y-78700000D01*
X119800000Y-72300000D02*
X120300000Y-72300000D01*
X119100000Y-73000000D02*
X119800000Y-72300000D01*
X118700000Y-73000000D02*
X119100000Y-73000000D01*
X118000000Y-73700000D02*
X118700000Y-73000000D01*
X118000000Y-78300000D02*
X118000000Y-73700000D01*
X117600000Y-78700000D02*
X118000000Y-78300000D01*
X117400000Y-76200000D02*
X117400000Y-73200000D01*
X118300000Y-72300000D02*
X118700000Y-72300000D01*
X117400000Y-73200000D02*
X118300000Y-72300000D01*
X123600000Y-82000000D02*
X128000000Y-82000000D01*
X130900000Y-79100000D02*
X130900000Y-77300000D01*
X128000000Y-82000000D02*
X130900000Y-79100000D01*
X123600000Y-83800000D02*
X123600000Y-83300000D01*
X127100000Y-79500000D02*
X127100000Y-77200000D01*
X125700000Y-80900000D02*
X127100000Y-79500000D01*
X123400000Y-80900000D02*
X125700000Y-80900000D01*
X122800000Y-81500000D02*
X123400000Y-80900000D01*
X122800000Y-82500000D02*
X122800000Y-81500000D01*
X123600000Y-83300000D02*
X122800000Y-82500000D01*
X125100000Y-78000000D02*
X127600000Y-75500000D01*
X123600000Y-79500000D02*
X125100000Y-78000000D01*
X123600000Y-79500000D02*
X123600000Y-80100000D01*
X130500000Y-68800000D02*
X132100000Y-68800000D01*
X127600000Y-71700000D02*
X130500000Y-68800000D01*
X127600000Y-75500000D02*
X127600000Y-71700000D01*
X124500000Y-77200000D02*
X124900000Y-77200000D01*
X128300000Y-69200000D02*
X128300000Y-68800000D01*
X126800000Y-70700000D02*
X128300000Y-69200000D01*
X126800000Y-75300000D02*
X126800000Y-70700000D01*
X124900000Y-77200000D02*
X126800000Y-75300000D01*
D17*
G36*
X118174696Y-68548339D02*
X118080107Y-68776133D01*
X118079892Y-69022785D01*
X118174083Y-69250743D01*
X118348339Y-69425304D01*
X118576133Y-69519893D01*
X118822785Y-69520108D01*
X119050743Y-69425917D01*
X119225304Y-69251661D01*
X119319893Y-69023867D01*
X119320108Y-68777215D01*
X119225917Y-68549257D01*
X119071930Y-68395000D01*
X127828128Y-68395000D01*
X127774696Y-68448339D01*
X127680107Y-68676133D01*
X127679892Y-68922785D01*
X127774083Y-69150743D01*
X127782356Y-69159030D01*
X126520693Y-70420693D01*
X126435068Y-70548840D01*
X126405000Y-70700000D01*
X126405000Y-75136386D01*
X124859169Y-76682217D01*
X124851661Y-76674696D01*
X124623867Y-76580107D01*
X124377215Y-76579892D01*
X124149257Y-76674083D01*
X123974696Y-76848339D01*
X123880107Y-77076133D01*
X123879892Y-77322785D01*
X123974083Y-77550743D01*
X124148339Y-77725304D01*
X124376133Y-77819893D01*
X124622785Y-77820108D01*
X124790631Y-77750755D01*
X123320693Y-79220693D01*
X123235068Y-79348840D01*
X123205000Y-79500000D01*
X123205000Y-79618263D01*
X123074696Y-79748339D01*
X122980107Y-79976133D01*
X122979892Y-80222785D01*
X123074083Y-80450743D01*
X123194504Y-80571374D01*
X123120693Y-80620693D01*
X122520693Y-81220693D01*
X122435068Y-81348840D01*
X122405000Y-81500000D01*
X122405000Y-82500000D01*
X122435068Y-82651160D01*
X122520693Y-82779307D01*
X123132261Y-83390875D01*
X123074696Y-83448339D01*
X122980107Y-83676133D01*
X122979892Y-83922785D01*
X123074083Y-84150743D01*
X123248339Y-84325304D01*
X123476133Y-84419893D01*
X123722785Y-84420108D01*
X123950743Y-84325917D01*
X124125304Y-84151661D01*
X124219893Y-83923867D01*
X124220108Y-83677215D01*
X124125917Y-83449257D01*
X123995000Y-83318111D01*
X123995000Y-83300000D01*
X123964932Y-83148840D01*
X123879307Y-83020693D01*
X123478509Y-82619895D01*
X123722785Y-82620108D01*
X123950743Y-82525917D01*
X124081889Y-82395000D01*
X128000000Y-82395000D01*
X128151160Y-82364932D01*
X128279307Y-82279307D01*
X131179307Y-79379307D01*
X131264932Y-79251160D01*
X131295000Y-79100000D01*
X131295000Y-77781737D01*
X131425304Y-77651661D01*
X131519893Y-77423867D01*
X131520108Y-77177215D01*
X131425917Y-76949257D01*
X131251661Y-76774696D01*
X131023867Y-76680107D01*
X130777215Y-76679892D01*
X130549257Y-76774083D01*
X130374696Y-76948339D01*
X130280107Y-77176133D01*
X130279892Y-77422785D01*
X130374083Y-77650743D01*
X130505000Y-77781889D01*
X130505000Y-78936386D01*
X127836386Y-81605000D01*
X124081737Y-81605000D01*
X123951661Y-81474696D01*
X123723867Y-81380107D01*
X123478721Y-81379893D01*
X123563614Y-81295000D01*
X125700000Y-81295000D01*
X125851160Y-81264932D01*
X125979307Y-81179307D01*
X127379307Y-79779307D01*
X127464932Y-79651160D01*
X127495000Y-79500000D01*
X127495000Y-77681737D01*
X127625304Y-77551661D01*
X127719893Y-77323867D01*
X127720108Y-77077215D01*
X127625917Y-76849257D01*
X127451661Y-76674696D01*
X127223867Y-76580107D01*
X127078634Y-76579980D01*
X127879307Y-75779307D01*
X127964932Y-75651160D01*
X127995000Y-75500000D01*
X127995000Y-74571872D01*
X128048339Y-74625304D01*
X128276133Y-74719893D01*
X128522785Y-74720108D01*
X128750743Y-74625917D01*
X128881889Y-74495000D01*
X129636386Y-74495000D01*
X131720693Y-76579307D01*
X131848840Y-76664932D01*
X132000000Y-76695000D01*
X142636386Y-76695000D01*
X145105000Y-79163614D01*
X145105000Y-106200000D01*
X145135068Y-106351160D01*
X145220693Y-106479307D01*
X146580052Y-107838666D01*
X146579892Y-108022785D01*
X146674083Y-108250743D01*
X146848339Y-108425304D01*
X147076133Y-108519893D01*
X147322785Y-108520108D01*
X147550743Y-108425917D01*
X147725304Y-108251661D01*
X147819893Y-108023867D01*
X147820108Y-107777215D01*
X147813579Y-107761412D01*
X160679772Y-107761412D01*
X160880306Y-108246743D01*
X161251304Y-108618389D01*
X161736284Y-108819770D01*
X162261412Y-108820228D01*
X162746743Y-108619694D01*
X163118389Y-108248696D01*
X163319770Y-107763716D01*
X163320228Y-107238588D01*
X163119694Y-106753257D01*
X162748696Y-106381611D01*
X162263716Y-106180230D01*
X161738588Y-106179772D01*
X161253257Y-106380306D01*
X160881611Y-106751304D01*
X160680230Y-107236284D01*
X160679772Y-107761412D01*
X147813579Y-107761412D01*
X147725917Y-107549257D01*
X147551661Y-107374696D01*
X147323867Y-107280107D01*
X147138559Y-107279945D01*
X145895000Y-106036386D01*
X145895000Y-102761412D01*
X160679772Y-102761412D01*
X160880306Y-103246743D01*
X161251304Y-103618389D01*
X161736284Y-103819770D01*
X162261412Y-103820228D01*
X162746743Y-103619694D01*
X163118389Y-103248696D01*
X163319770Y-102763716D01*
X163320228Y-102238588D01*
X163119694Y-101753257D01*
X162748696Y-101381611D01*
X162263716Y-101180230D01*
X161738588Y-101179772D01*
X161253257Y-101380306D01*
X160881611Y-101751304D01*
X160680230Y-102236284D01*
X160679772Y-102761412D01*
X145895000Y-102761412D01*
X145895000Y-89153614D01*
X146805000Y-90063614D01*
X146805000Y-97418263D01*
X146674696Y-97548339D01*
X146580107Y-97776133D01*
X146579892Y-98022785D01*
X146674083Y-98250743D01*
X146848339Y-98425304D01*
X147076133Y-98519893D01*
X147322785Y-98520108D01*
X147550743Y-98425917D01*
X147725304Y-98251661D01*
X147819893Y-98023867D01*
X147820108Y-97777215D01*
X147813579Y-97761412D01*
X160679772Y-97761412D01*
X160880306Y-98246743D01*
X161251304Y-98618389D01*
X161736284Y-98819770D01*
X162261412Y-98820228D01*
X162746743Y-98619694D01*
X163118389Y-98248696D01*
X163319770Y-97763716D01*
X163320228Y-97238588D01*
X163119694Y-96753257D01*
X162748696Y-96381611D01*
X162263716Y-96180230D01*
X161738588Y-96179772D01*
X161253257Y-96380306D01*
X160881611Y-96751304D01*
X160680230Y-97236284D01*
X160679772Y-97761412D01*
X147813579Y-97761412D01*
X147725917Y-97549257D01*
X147595000Y-97418111D01*
X147595000Y-92761412D01*
X160679772Y-92761412D01*
X160880306Y-93246743D01*
X161251304Y-93618389D01*
X161736284Y-93819770D01*
X162261412Y-93820228D01*
X162746743Y-93619694D01*
X163118389Y-93248696D01*
X163319770Y-92763716D01*
X163320228Y-92238588D01*
X163119694Y-91753257D01*
X162748696Y-91381611D01*
X162263716Y-91180230D01*
X161738588Y-91179772D01*
X161253257Y-91380306D01*
X160881611Y-91751304D01*
X160680230Y-92236284D01*
X160679772Y-92761412D01*
X147595000Y-92761412D01*
X147595000Y-89900000D01*
X147564932Y-89748840D01*
X147479307Y-89620693D01*
X146395000Y-88536386D01*
X146395000Y-79753614D01*
X146705000Y-80063615D01*
X146705000Y-87518088D01*
X146674696Y-87548339D01*
X146580107Y-87776133D01*
X146579892Y-88022785D01*
X146674083Y-88250743D01*
X146848339Y-88425304D01*
X147076133Y-88519893D01*
X147322785Y-88520108D01*
X147550743Y-88425917D01*
X147725304Y-88251661D01*
X147819893Y-88023867D01*
X147820108Y-87777215D01*
X147813579Y-87761412D01*
X160679772Y-87761412D01*
X160880306Y-88246743D01*
X161251304Y-88618389D01*
X161736284Y-88819770D01*
X162261412Y-88820228D01*
X162746743Y-88619694D01*
X163118389Y-88248696D01*
X163319770Y-87763716D01*
X163320228Y-87238588D01*
X163119694Y-86753257D01*
X162748696Y-86381611D01*
X162263716Y-86180230D01*
X161738588Y-86179772D01*
X161253257Y-86380306D01*
X160881611Y-86751304D01*
X160680230Y-87236284D01*
X160679772Y-87761412D01*
X147813579Y-87761412D01*
X147725917Y-87549257D01*
X147551661Y-87374696D01*
X147495000Y-87351168D01*
X147495000Y-82761412D01*
X160679772Y-82761412D01*
X160880306Y-83246743D01*
X161251304Y-83618389D01*
X161736284Y-83819770D01*
X162261412Y-83820228D01*
X162746743Y-83619694D01*
X163118389Y-83248696D01*
X163319770Y-82763716D01*
X163320228Y-82238588D01*
X163119694Y-81753257D01*
X162748696Y-81381611D01*
X162263716Y-81180230D01*
X161738588Y-81179772D01*
X161253257Y-81380306D01*
X160881611Y-81751304D01*
X160680230Y-82236284D01*
X160679772Y-82761412D01*
X147495000Y-82761412D01*
X147495000Y-79900000D01*
X147464932Y-79748840D01*
X147446125Y-79720693D01*
X147379307Y-79620692D01*
X146795000Y-79036386D01*
X146795000Y-78444679D01*
X146976133Y-78519893D01*
X147222785Y-78520108D01*
X147450743Y-78425917D01*
X147625304Y-78251661D01*
X147719893Y-78023867D01*
X147720108Y-77777215D01*
X147713579Y-77761412D01*
X160679772Y-77761412D01*
X160880306Y-78246743D01*
X161251304Y-78618389D01*
X161736284Y-78819770D01*
X162261412Y-78820228D01*
X162746743Y-78619694D01*
X163118389Y-78248696D01*
X163319770Y-77763716D01*
X163320228Y-77238588D01*
X163119694Y-76753257D01*
X162748696Y-76381611D01*
X162263716Y-76180230D01*
X161738588Y-76179772D01*
X161253257Y-76380306D01*
X160881611Y-76751304D01*
X160680230Y-77236284D01*
X160679772Y-77761412D01*
X147713579Y-77761412D01*
X147625917Y-77549257D01*
X147495000Y-77418111D01*
X147495000Y-72761412D01*
X160679772Y-72761412D01*
X160880306Y-73246743D01*
X161251304Y-73618389D01*
X161736284Y-73819770D01*
X162261412Y-73820228D01*
X162746743Y-73619694D01*
X163118389Y-73248696D01*
X163319770Y-72763716D01*
X163320228Y-72238588D01*
X163119694Y-71753257D01*
X162748696Y-71381611D01*
X162626152Y-71330726D01*
X167329711Y-71330726D01*
X167583418Y-71944743D01*
X168052786Y-72414931D01*
X168666359Y-72669709D01*
X169330726Y-72670289D01*
X169944743Y-72416582D01*
X170414931Y-71947214D01*
X170669709Y-71333641D01*
X170670289Y-70669274D01*
X170416582Y-70055257D01*
X169947214Y-69585069D01*
X169333641Y-69330291D01*
X168669274Y-69329711D01*
X168055257Y-69583418D01*
X167585069Y-70052786D01*
X167330291Y-70666359D01*
X167329711Y-71330726D01*
X162626152Y-71330726D01*
X162263716Y-71180230D01*
X161738588Y-71179772D01*
X161253257Y-71380306D01*
X160881611Y-71751304D01*
X160680230Y-72236284D01*
X160679772Y-72761412D01*
X147495000Y-72761412D01*
X147495000Y-70300000D01*
X147464932Y-70148840D01*
X147379307Y-70020693D01*
X146579307Y-69220693D01*
X146451160Y-69135068D01*
X146300000Y-69105000D01*
X132644679Y-69105000D01*
X132719893Y-68923867D01*
X132720108Y-68677215D01*
X132625917Y-68449257D01*
X132571755Y-68395000D01*
X169961096Y-68395000D01*
X170611245Y-68524323D01*
X171129435Y-68870565D01*
X171475677Y-69388755D01*
X171605000Y-70038903D01*
X171605000Y-109961097D01*
X171475677Y-110611245D01*
X171129435Y-111129435D01*
X170611245Y-111475677D01*
X169961096Y-111605000D01*
X105038903Y-111605000D01*
X104388755Y-111475677D01*
X103870565Y-111129435D01*
X103524323Y-110611245D01*
X103395000Y-109961096D01*
X103395000Y-109330726D01*
X104329711Y-109330726D01*
X104583418Y-109944743D01*
X105052786Y-110414931D01*
X105666359Y-110669709D01*
X106330726Y-110670289D01*
X106944743Y-110416582D01*
X107414931Y-109947214D01*
X107669709Y-109333641D01*
X107669859Y-109161412D01*
X117279772Y-109161412D01*
X117480306Y-109646743D01*
X117851304Y-110018389D01*
X118336284Y-110219770D01*
X118861412Y-110220228D01*
X119346743Y-110019694D01*
X119612621Y-109754279D01*
X127417812Y-109754279D01*
X127582190Y-110152103D01*
X127886296Y-110456740D01*
X128283833Y-110621812D01*
X128714279Y-110622188D01*
X129112103Y-110457810D01*
X129416740Y-110153704D01*
X129581812Y-109756167D01*
X129582183Y-109330726D01*
X167329711Y-109330726D01*
X167583418Y-109944743D01*
X168052786Y-110414931D01*
X168666359Y-110669709D01*
X169330726Y-110670289D01*
X169944743Y-110416582D01*
X170414931Y-109947214D01*
X170669709Y-109333641D01*
X170670289Y-108669274D01*
X170416582Y-108055257D01*
X169947214Y-107585069D01*
X169333641Y-107330291D01*
X168669274Y-107329711D01*
X168055257Y-107583418D01*
X167585069Y-108052786D01*
X167330291Y-108666359D01*
X167329711Y-109330726D01*
X129582183Y-109330726D01*
X129582188Y-109325721D01*
X129417810Y-108927897D01*
X129113704Y-108623260D01*
X128716167Y-108458188D01*
X128285721Y-108457812D01*
X127887897Y-108622190D01*
X127583260Y-108926296D01*
X127418188Y-109323833D01*
X127417812Y-109754279D01*
X119612621Y-109754279D01*
X119718389Y-109648696D01*
X119919770Y-109163716D01*
X119920228Y-108638588D01*
X119719694Y-108153257D01*
X119348696Y-107781611D01*
X118863716Y-107580230D01*
X118338588Y-107579772D01*
X117853257Y-107780306D01*
X117481611Y-108151304D01*
X117280230Y-108636284D01*
X117279772Y-109161412D01*
X107669859Y-109161412D01*
X107670289Y-108669274D01*
X107416582Y-108055257D01*
X106947214Y-107585069D01*
X106333641Y-107330291D01*
X105669274Y-107329711D01*
X105055257Y-107583418D01*
X104585069Y-108052786D01*
X104330291Y-108666359D01*
X104329711Y-109330726D01*
X103395000Y-109330726D01*
X103395000Y-107214279D01*
X127417812Y-107214279D01*
X127582190Y-107612103D01*
X127886296Y-107916740D01*
X128283833Y-108081812D01*
X128714279Y-108082188D01*
X129112103Y-107917810D01*
X129416740Y-107613704D01*
X129581812Y-107216167D01*
X129582188Y-106785721D01*
X129417810Y-106387897D01*
X129113704Y-106083260D01*
X128716167Y-105918188D01*
X128285721Y-105917812D01*
X127887897Y-106082190D01*
X127583260Y-106386296D01*
X127418188Y-106783833D01*
X127417812Y-107214279D01*
X103395000Y-107214279D01*
X103395000Y-104161412D01*
X117279772Y-104161412D01*
X117480306Y-104646743D01*
X117851304Y-105018389D01*
X118336284Y-105219770D01*
X118861412Y-105220228D01*
X119346743Y-105019694D01*
X119718389Y-104648696D01*
X119919770Y-104163716D01*
X119920228Y-103638588D01*
X119719694Y-103153257D01*
X119348696Y-102781611D01*
X118863716Y-102580230D01*
X118338588Y-102579772D01*
X117853257Y-102780306D01*
X117481611Y-103151304D01*
X117280230Y-103636284D01*
X117279772Y-104161412D01*
X103395000Y-104161412D01*
X103395000Y-99161412D01*
X117279772Y-99161412D01*
X117480306Y-99646743D01*
X117851304Y-100018389D01*
X118336284Y-100219770D01*
X118861412Y-100220228D01*
X119346743Y-100019694D01*
X119718389Y-99648696D01*
X119919770Y-99163716D01*
X119920228Y-98638588D01*
X119719694Y-98153257D01*
X119348696Y-97781611D01*
X118863716Y-97580230D01*
X118338588Y-97579772D01*
X117853257Y-97780306D01*
X117481611Y-98151304D01*
X117280230Y-98636284D01*
X117279772Y-99161412D01*
X103395000Y-99161412D01*
X103395000Y-94161412D01*
X117279772Y-94161412D01*
X117480306Y-94646743D01*
X117851304Y-95018389D01*
X118336284Y-95219770D01*
X118861412Y-95220228D01*
X119346743Y-95019694D01*
X119718389Y-94648696D01*
X119919770Y-94163716D01*
X119920228Y-93638588D01*
X119719694Y-93153257D01*
X119348696Y-92781611D01*
X118863716Y-92580230D01*
X118338588Y-92579772D01*
X117853257Y-92780306D01*
X117481611Y-93151304D01*
X117280230Y-93636284D01*
X117279772Y-94161412D01*
X103395000Y-94161412D01*
X103395000Y-71330726D01*
X104329711Y-71330726D01*
X104583418Y-71944743D01*
X104889763Y-72251623D01*
X104520693Y-72620693D01*
X104435068Y-72748840D01*
X104405000Y-72900000D01*
X104405000Y-87600000D01*
X104435068Y-87751160D01*
X104520693Y-87879307D01*
X106820693Y-90179307D01*
X106948840Y-90264932D01*
X107100000Y-90295000D01*
X109800000Y-90295000D01*
X109951160Y-90264932D01*
X110079307Y-90179307D01*
X110715544Y-89543070D01*
X110798977Y-89543143D01*
X111103411Y-89417353D01*
X111336535Y-89184636D01*
X111462855Y-88880422D01*
X111463143Y-88551023D01*
X111337353Y-88246589D01*
X111170968Y-88079913D01*
X111336535Y-87914636D01*
X111462855Y-87610422D01*
X111463143Y-87281023D01*
X111337353Y-86976589D01*
X111170968Y-86809913D01*
X111336535Y-86644636D01*
X111462855Y-86340422D01*
X111463143Y-86011023D01*
X111337353Y-85706589D01*
X111170968Y-85539913D01*
X111336535Y-85374636D01*
X111462855Y-85070422D01*
X111463143Y-84741023D01*
X111337353Y-84436589D01*
X111170968Y-84269913D01*
X111336535Y-84104636D01*
X111462855Y-83800422D01*
X111463143Y-83471023D01*
X111337353Y-83166589D01*
X111170968Y-82999913D01*
X111336535Y-82834636D01*
X111462855Y-82530422D01*
X111463143Y-82201023D01*
X111337353Y-81896589D01*
X111170968Y-81729913D01*
X111336535Y-81564636D01*
X111462855Y-81260422D01*
X111463143Y-80931023D01*
X111337353Y-80626589D01*
X111170968Y-80459913D01*
X111336535Y-80294636D01*
X111462855Y-79990422D01*
X111463143Y-79661023D01*
X111337353Y-79356589D01*
X111170968Y-79189913D01*
X111336535Y-79024636D01*
X111462855Y-78720422D01*
X111463143Y-78391023D01*
X111337353Y-78086589D01*
X111170968Y-77919913D01*
X111336535Y-77754636D01*
X111462855Y-77450422D01*
X111463143Y-77121023D01*
X111337353Y-76816589D01*
X111104636Y-76583465D01*
X110800422Y-76457145D01*
X110471023Y-76456857D01*
X110166589Y-76582647D01*
X109999913Y-76749032D01*
X109834636Y-76583465D01*
X109530422Y-76457145D01*
X109201023Y-76456857D01*
X108896589Y-76582647D01*
X108663465Y-76815364D01*
X108537145Y-77119578D01*
X108536857Y-77448977D01*
X108662647Y-77753411D01*
X108829032Y-77920087D01*
X108663465Y-78085364D01*
X108537145Y-78389578D01*
X108536857Y-78718977D01*
X108662647Y-79023411D01*
X108829032Y-79190087D01*
X108663465Y-79355364D01*
X108537145Y-79659578D01*
X108536857Y-79988977D01*
X108662647Y-80293411D01*
X108829032Y-80460087D01*
X108663465Y-80625364D01*
X108632474Y-80700000D01*
X107758614Y-80700000D01*
X106995002Y-79936388D01*
X106995002Y-75963612D01*
X108763606Y-74195008D01*
X113399992Y-74195008D01*
X113551152Y-74164940D01*
X113679299Y-74079315D01*
X114363614Y-73395000D01*
X114800000Y-73395000D01*
X114951160Y-73364932D01*
X115079307Y-73279307D01*
X115438667Y-72919948D01*
X115622785Y-72920108D01*
X115850743Y-72825917D01*
X116025304Y-72651661D01*
X116119893Y-72423867D01*
X116120108Y-72177215D01*
X116025917Y-71949257D01*
X115851661Y-71774696D01*
X115659733Y-71695000D01*
X116436386Y-71695000D01*
X116632261Y-71890875D01*
X116574696Y-71948339D01*
X116480107Y-72176133D01*
X116479892Y-72422785D01*
X116574083Y-72650743D01*
X116748339Y-72825304D01*
X116976133Y-72919893D01*
X117121366Y-72920020D01*
X117120693Y-72920693D01*
X117035068Y-73048840D01*
X117005000Y-73200000D01*
X117005000Y-75718263D01*
X116874696Y-75848339D01*
X116780107Y-76076133D01*
X116779892Y-76322785D01*
X116874083Y-76550743D01*
X117048339Y-76725304D01*
X117276133Y-76819893D01*
X117522785Y-76820108D01*
X117605000Y-76786137D01*
X117605000Y-78113797D01*
X117523867Y-78080107D01*
X117277215Y-78079892D01*
X117049257Y-78174083D01*
X116874696Y-78348339D01*
X116780107Y-78576133D01*
X116779892Y-78822785D01*
X116874083Y-79050743D01*
X117048339Y-79225304D01*
X117276133Y-79319893D01*
X117521279Y-79320107D01*
X117120693Y-79720693D01*
X117035068Y-79848840D01*
X117005000Y-80000000D01*
X117005000Y-80818263D01*
X116874696Y-80948339D01*
X116780107Y-81176133D01*
X116779892Y-81422785D01*
X116874083Y-81650743D01*
X117048339Y-81825304D01*
X117276133Y-81919893D01*
X117522785Y-81920108D01*
X117605000Y-81886137D01*
X117605000Y-83136386D01*
X117550302Y-83191084D01*
X117523867Y-83180107D01*
X117277215Y-83179892D01*
X117049257Y-83274083D01*
X116874696Y-83448339D01*
X116780107Y-83676133D01*
X116779892Y-83922785D01*
X116874083Y-84150743D01*
X117048339Y-84325304D01*
X117276133Y-84419893D01*
X117522785Y-84420108D01*
X117750743Y-84325917D01*
X117925304Y-84151661D01*
X118019893Y-83923867D01*
X118019967Y-83838647D01*
X118279307Y-83579307D01*
X118308865Y-83535070D01*
X118364932Y-83451160D01*
X118395000Y-83300000D01*
X118395000Y-80163614D01*
X119079307Y-79479307D01*
X119164932Y-79351160D01*
X119195000Y-79200000D01*
X119195000Y-74463614D01*
X119463614Y-74195000D01*
X119600000Y-74195000D01*
X119751160Y-74164932D01*
X119879307Y-74079307D01*
X120263614Y-73695000D01*
X120800000Y-73695000D01*
X120951160Y-73664932D01*
X121079307Y-73579307D01*
X121363614Y-73295000D01*
X122200000Y-73295000D01*
X122351160Y-73264932D01*
X122479307Y-73179307D01*
X123040919Y-72617696D01*
X123148339Y-72725304D01*
X123376133Y-72819893D01*
X123622785Y-72820108D01*
X123850743Y-72725917D01*
X124025304Y-72551661D01*
X124119893Y-72323867D01*
X124120108Y-72077215D01*
X124025917Y-71849257D01*
X123851661Y-71674696D01*
X123623867Y-71580107D01*
X123377215Y-71579892D01*
X123149257Y-71674083D01*
X123018111Y-71805000D01*
X122900000Y-71805000D01*
X122748840Y-71835068D01*
X122620692Y-71920693D01*
X122474514Y-72066871D01*
X122425917Y-71949257D01*
X122251661Y-71774696D01*
X122023867Y-71680107D01*
X121777215Y-71679892D01*
X121549257Y-71774083D01*
X121418111Y-71905000D01*
X121300000Y-71905000D01*
X121148840Y-71935068D01*
X121020693Y-72020693D01*
X120903753Y-72137633D01*
X120825917Y-71949257D01*
X120651661Y-71774696D01*
X120423867Y-71680107D01*
X120177215Y-71679892D01*
X119949257Y-71774083D01*
X119818111Y-71905000D01*
X119800000Y-71905000D01*
X119648840Y-71935068D01*
X119520692Y-72020693D01*
X119320070Y-72221316D01*
X119320108Y-72177215D01*
X119225917Y-71949257D01*
X119051661Y-71774696D01*
X118823867Y-71680107D01*
X118577215Y-71679892D01*
X118349257Y-71774083D01*
X118197733Y-71925342D01*
X118148840Y-71935068D01*
X118020693Y-72020693D01*
X117719982Y-72321404D01*
X117720108Y-72177215D01*
X117625917Y-71949257D01*
X117495000Y-71818111D01*
X117495000Y-71800000D01*
X117464932Y-71648840D01*
X117379307Y-71520693D01*
X116879307Y-71020693D01*
X116751160Y-70935068D01*
X116600000Y-70905000D01*
X107670083Y-70905000D01*
X107670289Y-70669274D01*
X107544696Y-70365315D01*
X107676133Y-70419893D01*
X107922785Y-70420108D01*
X108150743Y-70325917D01*
X108325304Y-70151661D01*
X108419893Y-69923867D01*
X108420108Y-69677215D01*
X108325917Y-69449257D01*
X108151661Y-69274696D01*
X107923867Y-69180107D01*
X107677215Y-69179892D01*
X107449257Y-69274083D01*
X107274696Y-69448339D01*
X107180107Y-69676133D01*
X107179983Y-69818245D01*
X106947214Y-69585069D01*
X106333641Y-69330291D01*
X105669274Y-69329711D01*
X105055257Y-69583418D01*
X104585069Y-70052786D01*
X104330291Y-70666359D01*
X104329711Y-71330726D01*
X103395000Y-71330726D01*
X103395000Y-70038904D01*
X103524323Y-69388755D01*
X103870565Y-68870565D01*
X104388755Y-68524323D01*
X105038903Y-68395000D01*
X118328303Y-68395000D01*
X118174696Y-68548339D01*
X118174696Y-68548339D01*
G37*
X118174696Y-68548339D02*
X118080107Y-68776133D01*
X118079892Y-69022785D01*
X118174083Y-69250743D01*
X118348339Y-69425304D01*
X118576133Y-69519893D01*
X118822785Y-69520108D01*
X119050743Y-69425917D01*
X119225304Y-69251661D01*
X119319893Y-69023867D01*
X119320108Y-68777215D01*
X119225917Y-68549257D01*
X119071930Y-68395000D01*
X127828128Y-68395000D01*
X127774696Y-68448339D01*
X127680107Y-68676133D01*
X127679892Y-68922785D01*
X127774083Y-69150743D01*
X127782356Y-69159030D01*
X126520693Y-70420693D01*
X126435068Y-70548840D01*
X126405000Y-70700000D01*
X126405000Y-75136386D01*
X124859169Y-76682217D01*
X124851661Y-76674696D01*
X124623867Y-76580107D01*
X124377215Y-76579892D01*
X124149257Y-76674083D01*
X123974696Y-76848339D01*
X123880107Y-77076133D01*
X123879892Y-77322785D01*
X123974083Y-77550743D01*
X124148339Y-77725304D01*
X124376133Y-77819893D01*
X124622785Y-77820108D01*
X124790631Y-77750755D01*
X123320693Y-79220693D01*
X123235068Y-79348840D01*
X123205000Y-79500000D01*
X123205000Y-79618263D01*
X123074696Y-79748339D01*
X122980107Y-79976133D01*
X122979892Y-80222785D01*
X123074083Y-80450743D01*
X123194504Y-80571374D01*
X123120693Y-80620693D01*
X122520693Y-81220693D01*
X122435068Y-81348840D01*
X122405000Y-81500000D01*
X122405000Y-82500000D01*
X122435068Y-82651160D01*
X122520693Y-82779307D01*
X123132261Y-83390875D01*
X123074696Y-83448339D01*
X122980107Y-83676133D01*
X122979892Y-83922785D01*
X123074083Y-84150743D01*
X123248339Y-84325304D01*
X123476133Y-84419893D01*
X123722785Y-84420108D01*
X123950743Y-84325917D01*
X124125304Y-84151661D01*
X124219893Y-83923867D01*
X124220108Y-83677215D01*
X124125917Y-83449257D01*
X123995000Y-83318111D01*
X123995000Y-83300000D01*
X123964932Y-83148840D01*
X123879307Y-83020693D01*
X123478509Y-82619895D01*
X123722785Y-82620108D01*
X123950743Y-82525917D01*
X124081889Y-82395000D01*
X128000000Y-82395000D01*
X128151160Y-82364932D01*
X128279307Y-82279307D01*
X131179307Y-79379307D01*
X131264932Y-79251160D01*
X131295000Y-79100000D01*
X131295000Y-77781737D01*
X131425304Y-77651661D01*
X131519893Y-77423867D01*
X131520108Y-77177215D01*
X131425917Y-76949257D01*
X131251661Y-76774696D01*
X131023867Y-76680107D01*
X130777215Y-76679892D01*
X130549257Y-76774083D01*
X130374696Y-76948339D01*
X130280107Y-77176133D01*
X130279892Y-77422785D01*
X130374083Y-77650743D01*
X130505000Y-77781889D01*
X130505000Y-78936386D01*
X127836386Y-81605000D01*
X124081737Y-81605000D01*
X123951661Y-81474696D01*
X123723867Y-81380107D01*
X123478721Y-81379893D01*
X123563614Y-81295000D01*
X125700000Y-81295000D01*
X125851160Y-81264932D01*
X125979307Y-81179307D01*
X127379307Y-79779307D01*
X127464932Y-79651160D01*
X127495000Y-79500000D01*
X127495000Y-77681737D01*
X127625304Y-77551661D01*
X127719893Y-77323867D01*
X127720108Y-77077215D01*
X127625917Y-76849257D01*
X127451661Y-76674696D01*
X127223867Y-76580107D01*
X127078634Y-76579980D01*
X127879307Y-75779307D01*
X127964932Y-75651160D01*
X127995000Y-75500000D01*
X127995000Y-74571872D01*
X128048339Y-74625304D01*
X128276133Y-74719893D01*
X128522785Y-74720108D01*
X128750743Y-74625917D01*
X128881889Y-74495000D01*
X129636386Y-74495000D01*
X131720693Y-76579307D01*
X131848840Y-76664932D01*
X132000000Y-76695000D01*
X142636386Y-76695000D01*
X145105000Y-79163614D01*
X145105000Y-106200000D01*
X145135068Y-106351160D01*
X145220693Y-106479307D01*
X146580052Y-107838666D01*
X146579892Y-108022785D01*
X146674083Y-108250743D01*
X146848339Y-108425304D01*
X147076133Y-108519893D01*
X147322785Y-108520108D01*
X147550743Y-108425917D01*
X147725304Y-108251661D01*
X147819893Y-108023867D01*
X147820108Y-107777215D01*
X147813579Y-107761412D01*
X160679772Y-107761412D01*
X160880306Y-108246743D01*
X161251304Y-108618389D01*
X161736284Y-108819770D01*
X162261412Y-108820228D01*
X162746743Y-108619694D01*
X163118389Y-108248696D01*
X163319770Y-107763716D01*
X163320228Y-107238588D01*
X163119694Y-106753257D01*
X162748696Y-106381611D01*
X162263716Y-106180230D01*
X161738588Y-106179772D01*
X161253257Y-106380306D01*
X160881611Y-106751304D01*
X160680230Y-107236284D01*
X160679772Y-107761412D01*
X147813579Y-107761412D01*
X147725917Y-107549257D01*
X147551661Y-107374696D01*
X147323867Y-107280107D01*
X147138559Y-107279945D01*
X145895000Y-106036386D01*
X145895000Y-102761412D01*
X160679772Y-102761412D01*
X160880306Y-103246743D01*
X161251304Y-103618389D01*
X161736284Y-103819770D01*
X162261412Y-103820228D01*
X162746743Y-103619694D01*
X163118389Y-103248696D01*
X163319770Y-102763716D01*
X163320228Y-102238588D01*
X163119694Y-101753257D01*
X162748696Y-101381611D01*
X162263716Y-101180230D01*
X161738588Y-101179772D01*
X161253257Y-101380306D01*
X160881611Y-101751304D01*
X160680230Y-102236284D01*
X160679772Y-102761412D01*
X145895000Y-102761412D01*
X145895000Y-89153614D01*
X146805000Y-90063614D01*
X146805000Y-97418263D01*
X146674696Y-97548339D01*
X146580107Y-97776133D01*
X146579892Y-98022785D01*
X146674083Y-98250743D01*
X146848339Y-98425304D01*
X147076133Y-98519893D01*
X147322785Y-98520108D01*
X147550743Y-98425917D01*
X147725304Y-98251661D01*
X147819893Y-98023867D01*
X147820108Y-97777215D01*
X147813579Y-97761412D01*
X160679772Y-97761412D01*
X160880306Y-98246743D01*
X161251304Y-98618389D01*
X161736284Y-98819770D01*
X162261412Y-98820228D01*
X162746743Y-98619694D01*
X163118389Y-98248696D01*
X163319770Y-97763716D01*
X163320228Y-97238588D01*
X163119694Y-96753257D01*
X162748696Y-96381611D01*
X162263716Y-96180230D01*
X161738588Y-96179772D01*
X161253257Y-96380306D01*
X160881611Y-96751304D01*
X160680230Y-97236284D01*
X160679772Y-97761412D01*
X147813579Y-97761412D01*
X147725917Y-97549257D01*
X147595000Y-97418111D01*
X147595000Y-92761412D01*
X160679772Y-92761412D01*
X160880306Y-93246743D01*
X161251304Y-93618389D01*
X161736284Y-93819770D01*
X162261412Y-93820228D01*
X162746743Y-93619694D01*
X163118389Y-93248696D01*
X163319770Y-92763716D01*
X163320228Y-92238588D01*
X163119694Y-91753257D01*
X162748696Y-91381611D01*
X162263716Y-91180230D01*
X161738588Y-91179772D01*
X161253257Y-91380306D01*
X160881611Y-91751304D01*
X160680230Y-92236284D01*
X160679772Y-92761412D01*
X147595000Y-92761412D01*
X147595000Y-89900000D01*
X147564932Y-89748840D01*
X147479307Y-89620693D01*
X146395000Y-88536386D01*
X146395000Y-79753614D01*
X146705000Y-80063615D01*
X146705000Y-87518088D01*
X146674696Y-87548339D01*
X146580107Y-87776133D01*
X146579892Y-88022785D01*
X146674083Y-88250743D01*
X146848339Y-88425304D01*
X147076133Y-88519893D01*
X147322785Y-88520108D01*
X147550743Y-88425917D01*
X147725304Y-88251661D01*
X147819893Y-88023867D01*
X147820108Y-87777215D01*
X147813579Y-87761412D01*
X160679772Y-87761412D01*
X160880306Y-88246743D01*
X161251304Y-88618389D01*
X161736284Y-88819770D01*
X162261412Y-88820228D01*
X162746743Y-88619694D01*
X163118389Y-88248696D01*
X163319770Y-87763716D01*
X163320228Y-87238588D01*
X163119694Y-86753257D01*
X162748696Y-86381611D01*
X162263716Y-86180230D01*
X161738588Y-86179772D01*
X161253257Y-86380306D01*
X160881611Y-86751304D01*
X160680230Y-87236284D01*
X160679772Y-87761412D01*
X147813579Y-87761412D01*
X147725917Y-87549257D01*
X147551661Y-87374696D01*
X147495000Y-87351168D01*
X147495000Y-82761412D01*
X160679772Y-82761412D01*
X160880306Y-83246743D01*
X161251304Y-83618389D01*
X161736284Y-83819770D01*
X162261412Y-83820228D01*
X162746743Y-83619694D01*
X163118389Y-83248696D01*
X163319770Y-82763716D01*
X163320228Y-82238588D01*
X163119694Y-81753257D01*
X162748696Y-81381611D01*
X162263716Y-81180230D01*
X161738588Y-81179772D01*
X161253257Y-81380306D01*
X160881611Y-81751304D01*
X160680230Y-82236284D01*
X160679772Y-82761412D01*
X147495000Y-82761412D01*
X147495000Y-79900000D01*
X147464932Y-79748840D01*
X147446125Y-79720693D01*
X147379307Y-79620692D01*
X146795000Y-79036386D01*
X146795000Y-78444679D01*
X146976133Y-78519893D01*
X147222785Y-78520108D01*
X147450743Y-78425917D01*
X147625304Y-78251661D01*
X147719893Y-78023867D01*
X147720108Y-77777215D01*
X147713579Y-77761412D01*
X160679772Y-77761412D01*
X160880306Y-78246743D01*
X161251304Y-78618389D01*
X161736284Y-78819770D01*
X162261412Y-78820228D01*
X162746743Y-78619694D01*
X163118389Y-78248696D01*
X163319770Y-77763716D01*
X163320228Y-77238588D01*
X163119694Y-76753257D01*
X162748696Y-76381611D01*
X162263716Y-76180230D01*
X161738588Y-76179772D01*
X161253257Y-76380306D01*
X160881611Y-76751304D01*
X160680230Y-77236284D01*
X160679772Y-77761412D01*
X147713579Y-77761412D01*
X147625917Y-77549257D01*
X147495000Y-77418111D01*
X147495000Y-72761412D01*
X160679772Y-72761412D01*
X160880306Y-73246743D01*
X161251304Y-73618389D01*
X161736284Y-73819770D01*
X162261412Y-73820228D01*
X162746743Y-73619694D01*
X163118389Y-73248696D01*
X163319770Y-72763716D01*
X163320228Y-72238588D01*
X163119694Y-71753257D01*
X162748696Y-71381611D01*
X162626152Y-71330726D01*
X167329711Y-71330726D01*
X167583418Y-71944743D01*
X168052786Y-72414931D01*
X168666359Y-72669709D01*
X169330726Y-72670289D01*
X169944743Y-72416582D01*
X170414931Y-71947214D01*
X170669709Y-71333641D01*
X170670289Y-70669274D01*
X170416582Y-70055257D01*
X169947214Y-69585069D01*
X169333641Y-69330291D01*
X168669274Y-69329711D01*
X168055257Y-69583418D01*
X167585069Y-70052786D01*
X167330291Y-70666359D01*
X167329711Y-71330726D01*
X162626152Y-71330726D01*
X162263716Y-71180230D01*
X161738588Y-71179772D01*
X161253257Y-71380306D01*
X160881611Y-71751304D01*
X160680230Y-72236284D01*
X160679772Y-72761412D01*
X147495000Y-72761412D01*
X147495000Y-70300000D01*
X147464932Y-70148840D01*
X147379307Y-70020693D01*
X146579307Y-69220693D01*
X146451160Y-69135068D01*
X146300000Y-69105000D01*
X132644679Y-69105000D01*
X132719893Y-68923867D01*
X132720108Y-68677215D01*
X132625917Y-68449257D01*
X132571755Y-68395000D01*
X169961096Y-68395000D01*
X170611245Y-68524323D01*
X171129435Y-68870565D01*
X171475677Y-69388755D01*
X171605000Y-70038903D01*
X171605000Y-109961097D01*
X171475677Y-110611245D01*
X171129435Y-111129435D01*
X170611245Y-111475677D01*
X169961096Y-111605000D01*
X105038903Y-111605000D01*
X104388755Y-111475677D01*
X103870565Y-111129435D01*
X103524323Y-110611245D01*
X103395000Y-109961096D01*
X103395000Y-109330726D01*
X104329711Y-109330726D01*
X104583418Y-109944743D01*
X105052786Y-110414931D01*
X105666359Y-110669709D01*
X106330726Y-110670289D01*
X106944743Y-110416582D01*
X107414931Y-109947214D01*
X107669709Y-109333641D01*
X107669859Y-109161412D01*
X117279772Y-109161412D01*
X117480306Y-109646743D01*
X117851304Y-110018389D01*
X118336284Y-110219770D01*
X118861412Y-110220228D01*
X119346743Y-110019694D01*
X119612621Y-109754279D01*
X127417812Y-109754279D01*
X127582190Y-110152103D01*
X127886296Y-110456740D01*
X128283833Y-110621812D01*
X128714279Y-110622188D01*
X129112103Y-110457810D01*
X129416740Y-110153704D01*
X129581812Y-109756167D01*
X129582183Y-109330726D01*
X167329711Y-109330726D01*
X167583418Y-109944743D01*
X168052786Y-110414931D01*
X168666359Y-110669709D01*
X169330726Y-110670289D01*
X169944743Y-110416582D01*
X170414931Y-109947214D01*
X170669709Y-109333641D01*
X170670289Y-108669274D01*
X170416582Y-108055257D01*
X169947214Y-107585069D01*
X169333641Y-107330291D01*
X168669274Y-107329711D01*
X168055257Y-107583418D01*
X167585069Y-108052786D01*
X167330291Y-108666359D01*
X167329711Y-109330726D01*
X129582183Y-109330726D01*
X129582188Y-109325721D01*
X129417810Y-108927897D01*
X129113704Y-108623260D01*
X128716167Y-108458188D01*
X128285721Y-108457812D01*
X127887897Y-108622190D01*
X127583260Y-108926296D01*
X127418188Y-109323833D01*
X127417812Y-109754279D01*
X119612621Y-109754279D01*
X119718389Y-109648696D01*
X119919770Y-109163716D01*
X119920228Y-108638588D01*
X119719694Y-108153257D01*
X119348696Y-107781611D01*
X118863716Y-107580230D01*
X118338588Y-107579772D01*
X117853257Y-107780306D01*
X117481611Y-108151304D01*
X117280230Y-108636284D01*
X117279772Y-109161412D01*
X107669859Y-109161412D01*
X107670289Y-108669274D01*
X107416582Y-108055257D01*
X106947214Y-107585069D01*
X106333641Y-107330291D01*
X105669274Y-107329711D01*
X105055257Y-107583418D01*
X104585069Y-108052786D01*
X104330291Y-108666359D01*
X104329711Y-109330726D01*
X103395000Y-109330726D01*
X103395000Y-107214279D01*
X127417812Y-107214279D01*
X127582190Y-107612103D01*
X127886296Y-107916740D01*
X128283833Y-108081812D01*
X128714279Y-108082188D01*
X129112103Y-107917810D01*
X129416740Y-107613704D01*
X129581812Y-107216167D01*
X129582188Y-106785721D01*
X129417810Y-106387897D01*
X129113704Y-106083260D01*
X128716167Y-105918188D01*
X128285721Y-105917812D01*
X127887897Y-106082190D01*
X127583260Y-106386296D01*
X127418188Y-106783833D01*
X127417812Y-107214279D01*
X103395000Y-107214279D01*
X103395000Y-104161412D01*
X117279772Y-104161412D01*
X117480306Y-104646743D01*
X117851304Y-105018389D01*
X118336284Y-105219770D01*
X118861412Y-105220228D01*
X119346743Y-105019694D01*
X119718389Y-104648696D01*
X119919770Y-104163716D01*
X119920228Y-103638588D01*
X119719694Y-103153257D01*
X119348696Y-102781611D01*
X118863716Y-102580230D01*
X118338588Y-102579772D01*
X117853257Y-102780306D01*
X117481611Y-103151304D01*
X117280230Y-103636284D01*
X117279772Y-104161412D01*
X103395000Y-104161412D01*
X103395000Y-99161412D01*
X117279772Y-99161412D01*
X117480306Y-99646743D01*
X117851304Y-100018389D01*
X118336284Y-100219770D01*
X118861412Y-100220228D01*
X119346743Y-100019694D01*
X119718389Y-99648696D01*
X119919770Y-99163716D01*
X119920228Y-98638588D01*
X119719694Y-98153257D01*
X119348696Y-97781611D01*
X118863716Y-97580230D01*
X118338588Y-97579772D01*
X117853257Y-97780306D01*
X117481611Y-98151304D01*
X117280230Y-98636284D01*
X117279772Y-99161412D01*
X103395000Y-99161412D01*
X103395000Y-94161412D01*
X117279772Y-94161412D01*
X117480306Y-94646743D01*
X117851304Y-95018389D01*
X118336284Y-95219770D01*
X118861412Y-95220228D01*
X119346743Y-95019694D01*
X119718389Y-94648696D01*
X119919770Y-94163716D01*
X119920228Y-93638588D01*
X119719694Y-93153257D01*
X119348696Y-92781611D01*
X118863716Y-92580230D01*
X118338588Y-92579772D01*
X117853257Y-92780306D01*
X117481611Y-93151304D01*
X117280230Y-93636284D01*
X117279772Y-94161412D01*
X103395000Y-94161412D01*
X103395000Y-71330726D01*
X104329711Y-71330726D01*
X104583418Y-71944743D01*
X104889763Y-72251623D01*
X104520693Y-72620693D01*
X104435068Y-72748840D01*
X104405000Y-72900000D01*
X104405000Y-87600000D01*
X104435068Y-87751160D01*
X104520693Y-87879307D01*
X106820693Y-90179307D01*
X106948840Y-90264932D01*
X107100000Y-90295000D01*
X109800000Y-90295000D01*
X109951160Y-90264932D01*
X110079307Y-90179307D01*
X110715544Y-89543070D01*
X110798977Y-89543143D01*
X111103411Y-89417353D01*
X111336535Y-89184636D01*
X111462855Y-88880422D01*
X111463143Y-88551023D01*
X111337353Y-88246589D01*
X111170968Y-88079913D01*
X111336535Y-87914636D01*
X111462855Y-87610422D01*
X111463143Y-87281023D01*
X111337353Y-86976589D01*
X111170968Y-86809913D01*
X111336535Y-86644636D01*
X111462855Y-86340422D01*
X111463143Y-86011023D01*
X111337353Y-85706589D01*
X111170968Y-85539913D01*
X111336535Y-85374636D01*
X111462855Y-85070422D01*
X111463143Y-84741023D01*
X111337353Y-84436589D01*
X111170968Y-84269913D01*
X111336535Y-84104636D01*
X111462855Y-83800422D01*
X111463143Y-83471023D01*
X111337353Y-83166589D01*
X111170968Y-82999913D01*
X111336535Y-82834636D01*
X111462855Y-82530422D01*
X111463143Y-82201023D01*
X111337353Y-81896589D01*
X111170968Y-81729913D01*
X111336535Y-81564636D01*
X111462855Y-81260422D01*
X111463143Y-80931023D01*
X111337353Y-80626589D01*
X111170968Y-80459913D01*
X111336535Y-80294636D01*
X111462855Y-79990422D01*
X111463143Y-79661023D01*
X111337353Y-79356589D01*
X111170968Y-79189913D01*
X111336535Y-79024636D01*
X111462855Y-78720422D01*
X111463143Y-78391023D01*
X111337353Y-78086589D01*
X111170968Y-77919913D01*
X111336535Y-77754636D01*
X111462855Y-77450422D01*
X111463143Y-77121023D01*
X111337353Y-76816589D01*
X111104636Y-76583465D01*
X110800422Y-76457145D01*
X110471023Y-76456857D01*
X110166589Y-76582647D01*
X109999913Y-76749032D01*
X109834636Y-76583465D01*
X109530422Y-76457145D01*
X109201023Y-76456857D01*
X108896589Y-76582647D01*
X108663465Y-76815364D01*
X108537145Y-77119578D01*
X108536857Y-77448977D01*
X108662647Y-77753411D01*
X108829032Y-77920087D01*
X108663465Y-78085364D01*
X108537145Y-78389578D01*
X108536857Y-78718977D01*
X108662647Y-79023411D01*
X108829032Y-79190087D01*
X108663465Y-79355364D01*
X108537145Y-79659578D01*
X108536857Y-79988977D01*
X108662647Y-80293411D01*
X108829032Y-80460087D01*
X108663465Y-80625364D01*
X108632474Y-80700000D01*
X107758614Y-80700000D01*
X106995002Y-79936388D01*
X106995002Y-75963612D01*
X108763606Y-74195008D01*
X113399992Y-74195008D01*
X113551152Y-74164940D01*
X113679299Y-74079315D01*
X114363614Y-73395000D01*
X114800000Y-73395000D01*
X114951160Y-73364932D01*
X115079307Y-73279307D01*
X115438667Y-72919948D01*
X115622785Y-72920108D01*
X115850743Y-72825917D01*
X116025304Y-72651661D01*
X116119893Y-72423867D01*
X116120108Y-72177215D01*
X116025917Y-71949257D01*
X115851661Y-71774696D01*
X115659733Y-71695000D01*
X116436386Y-71695000D01*
X116632261Y-71890875D01*
X116574696Y-71948339D01*
X116480107Y-72176133D01*
X116479892Y-72422785D01*
X116574083Y-72650743D01*
X116748339Y-72825304D01*
X116976133Y-72919893D01*
X117121366Y-72920020D01*
X117120693Y-72920693D01*
X117035068Y-73048840D01*
X117005000Y-73200000D01*
X117005000Y-75718263D01*
X116874696Y-75848339D01*
X116780107Y-76076133D01*
X116779892Y-76322785D01*
X116874083Y-76550743D01*
X117048339Y-76725304D01*
X117276133Y-76819893D01*
X117522785Y-76820108D01*
X117605000Y-76786137D01*
X117605000Y-78113797D01*
X117523867Y-78080107D01*
X117277215Y-78079892D01*
X117049257Y-78174083D01*
X116874696Y-78348339D01*
X116780107Y-78576133D01*
X116779892Y-78822785D01*
X116874083Y-79050743D01*
X117048339Y-79225304D01*
X117276133Y-79319893D01*
X117521279Y-79320107D01*
X117120693Y-79720693D01*
X117035068Y-79848840D01*
X117005000Y-80000000D01*
X117005000Y-80818263D01*
X116874696Y-80948339D01*
X116780107Y-81176133D01*
X116779892Y-81422785D01*
X116874083Y-81650743D01*
X117048339Y-81825304D01*
X117276133Y-81919893D01*
X117522785Y-81920108D01*
X117605000Y-81886137D01*
X117605000Y-83136386D01*
X117550302Y-83191084D01*
X117523867Y-83180107D01*
X117277215Y-83179892D01*
X117049257Y-83274083D01*
X116874696Y-83448339D01*
X116780107Y-83676133D01*
X116779892Y-83922785D01*
X116874083Y-84150743D01*
X117048339Y-84325304D01*
X117276133Y-84419893D01*
X117522785Y-84420108D01*
X117750743Y-84325917D01*
X117925304Y-84151661D01*
X118019893Y-83923867D01*
X118019967Y-83838647D01*
X118279307Y-83579307D01*
X118308865Y-83535070D01*
X118364932Y-83451160D01*
X118395000Y-83300000D01*
X118395000Y-80163614D01*
X119079307Y-79479307D01*
X119164932Y-79351160D01*
X119195000Y-79200000D01*
X119195000Y-74463614D01*
X119463614Y-74195000D01*
X119600000Y-74195000D01*
X119751160Y-74164932D01*
X119879307Y-74079307D01*
X120263614Y-73695000D01*
X120800000Y-73695000D01*
X120951160Y-73664932D01*
X121079307Y-73579307D01*
X121363614Y-73295000D01*
X122200000Y-73295000D01*
X122351160Y-73264932D01*
X122479307Y-73179307D01*
X123040919Y-72617696D01*
X123148339Y-72725304D01*
X123376133Y-72819893D01*
X123622785Y-72820108D01*
X123850743Y-72725917D01*
X124025304Y-72551661D01*
X124119893Y-72323867D01*
X124120108Y-72077215D01*
X124025917Y-71849257D01*
X123851661Y-71674696D01*
X123623867Y-71580107D01*
X123377215Y-71579892D01*
X123149257Y-71674083D01*
X123018111Y-71805000D01*
X122900000Y-71805000D01*
X122748840Y-71835068D01*
X122620692Y-71920693D01*
X122474514Y-72066871D01*
X122425917Y-71949257D01*
X122251661Y-71774696D01*
X122023867Y-71680107D01*
X121777215Y-71679892D01*
X121549257Y-71774083D01*
X121418111Y-71905000D01*
X121300000Y-71905000D01*
X121148840Y-71935068D01*
X121020693Y-72020693D01*
X120903753Y-72137633D01*
X120825917Y-71949257D01*
X120651661Y-71774696D01*
X120423867Y-71680107D01*
X120177215Y-71679892D01*
X119949257Y-71774083D01*
X119818111Y-71905000D01*
X119800000Y-71905000D01*
X119648840Y-71935068D01*
X119520692Y-72020693D01*
X119320070Y-72221316D01*
X119320108Y-72177215D01*
X119225917Y-71949257D01*
X119051661Y-71774696D01*
X118823867Y-71680107D01*
X118577215Y-71679892D01*
X118349257Y-71774083D01*
X118197733Y-71925342D01*
X118148840Y-71935068D01*
X118020693Y-72020693D01*
X117719982Y-72321404D01*
X117720108Y-72177215D01*
X117625917Y-71949257D01*
X117495000Y-71818111D01*
X117495000Y-71800000D01*
X117464932Y-71648840D01*
X117379307Y-71520693D01*
X116879307Y-71020693D01*
X116751160Y-70935068D01*
X116600000Y-70905000D01*
X107670083Y-70905000D01*
X107670289Y-70669274D01*
X107544696Y-70365315D01*
X107676133Y-70419893D01*
X107922785Y-70420108D01*
X108150743Y-70325917D01*
X108325304Y-70151661D01*
X108419893Y-69923867D01*
X108420108Y-69677215D01*
X108325917Y-69449257D01*
X108151661Y-69274696D01*
X107923867Y-69180107D01*
X107677215Y-69179892D01*
X107449257Y-69274083D01*
X107274696Y-69448339D01*
X107180107Y-69676133D01*
X107179983Y-69818245D01*
X106947214Y-69585069D01*
X106333641Y-69330291D01*
X105669274Y-69329711D01*
X105055257Y-69583418D01*
X104585069Y-70052786D01*
X104330291Y-70666359D01*
X104329711Y-71330726D01*
X103395000Y-71330726D01*
X103395000Y-70038904D01*
X103524323Y-69388755D01*
X103870565Y-68870565D01*
X104388755Y-68524323D01*
X105038903Y-68395000D01*
X118328303Y-68395000D01*
X118174696Y-68548339D01*
M02*
