G04 #@! TF.FileFunction,Legend,Top*
%FSLAX46Y46*%
G04 Gerber Fmt 4.6, Leading zero omitted, Abs format (unit mm)*
G04 Created by KiCad (PCBNEW 4.0.6-e0-6349~53~ubuntu14.04.1) date Tue Apr 25 14:13:02 2017*
%MOMM*%
%LPD*%
G01*
G04 APERTURE LIST*
%ADD10C,0.100000*%
%ADD11C,0.300000*%
%ADD12C,0.150000*%
%ADD13C,0.152400*%
G04 APERTURE END LIST*
D10*
D11*
X167704762Y-94647619D02*
X165704762Y-94647619D01*
X167704762Y-93695238D02*
X165704762Y-93695238D01*
X167704762Y-92552380D01*
X165704762Y-92552380D01*
X131657143Y-103978571D02*
X131657143Y-104978571D01*
X131300000Y-103407143D02*
X130942857Y-104478571D01*
X131871429Y-104478571D01*
X132442857Y-104407143D02*
X133585714Y-104407143D01*
X126657143Y-103978571D02*
X126657143Y-104978571D01*
X126300000Y-103407143D02*
X125942857Y-104478571D01*
X126871429Y-104478571D01*
X127442857Y-104407143D02*
X128585714Y-104407143D01*
X128014285Y-104978571D02*
X128014285Y-103835714D01*
X140871429Y-103478571D02*
X141800000Y-103478571D01*
X141300000Y-104050000D01*
X141514286Y-104050000D01*
X141657143Y-104121429D01*
X141728572Y-104192857D01*
X141800000Y-104335714D01*
X141800000Y-104692857D01*
X141728572Y-104835714D01*
X141657143Y-104907143D01*
X141514286Y-104978571D01*
X141085714Y-104978571D01*
X140942857Y-104907143D01*
X140871429Y-104835714D01*
X142442857Y-104407143D02*
X143585714Y-104407143D01*
X135871429Y-103478571D02*
X136800000Y-103478571D01*
X136300000Y-104050000D01*
X136514286Y-104050000D01*
X136657143Y-104121429D01*
X136728572Y-104192857D01*
X136800000Y-104335714D01*
X136800000Y-104692857D01*
X136728572Y-104835714D01*
X136657143Y-104907143D01*
X136514286Y-104978571D01*
X136085714Y-104978571D01*
X135942857Y-104907143D01*
X135871429Y-104835714D01*
X137442857Y-104407143D02*
X138585714Y-104407143D01*
X138014285Y-104978571D02*
X138014285Y-103835714D01*
X150942857Y-103621429D02*
X151014286Y-103550000D01*
X151157143Y-103478571D01*
X151514286Y-103478571D01*
X151657143Y-103550000D01*
X151728572Y-103621429D01*
X151800000Y-103764286D01*
X151800000Y-103907143D01*
X151728572Y-104121429D01*
X150871429Y-104978571D01*
X151800000Y-104978571D01*
X152442857Y-104407143D02*
X153585714Y-104407143D01*
X145942857Y-103621429D02*
X146014286Y-103550000D01*
X146157143Y-103478571D01*
X146514286Y-103478571D01*
X146657143Y-103550000D01*
X146728572Y-103621429D01*
X146800000Y-103764286D01*
X146800000Y-103907143D01*
X146728572Y-104121429D01*
X145871429Y-104978571D01*
X146800000Y-104978571D01*
X147442857Y-104407143D02*
X148585714Y-104407143D01*
X148014285Y-104978571D02*
X148014285Y-103835714D01*
X161800000Y-104978571D02*
X160942857Y-104978571D01*
X161371429Y-104978571D02*
X161371429Y-103478571D01*
X161228572Y-103692857D01*
X161085714Y-103835714D01*
X160942857Y-103907143D01*
X162442857Y-104407143D02*
X163585714Y-104407143D01*
X156800000Y-104978571D02*
X155942857Y-104978571D01*
X156371429Y-104978571D02*
X156371429Y-103478571D01*
X156228572Y-103692857D01*
X156085714Y-103835714D01*
X155942857Y-103907143D01*
X157442857Y-104407143D02*
X158585714Y-104407143D01*
X158014285Y-104978571D02*
X158014285Y-103835714D01*
X165704762Y-81600000D02*
X165704762Y-81219048D01*
X165800000Y-81028572D01*
X165990476Y-80838095D01*
X166371429Y-80742857D01*
X167038095Y-80742857D01*
X167419048Y-80838095D01*
X167609524Y-81028572D01*
X167704762Y-81219048D01*
X167704762Y-81600000D01*
X167609524Y-81790476D01*
X167419048Y-81980953D01*
X167038095Y-82076191D01*
X166371429Y-82076191D01*
X165990476Y-81980953D01*
X165800000Y-81790476D01*
X165704762Y-81600000D01*
X165704762Y-79885715D02*
X167323810Y-79885715D01*
X167514286Y-79790476D01*
X167609524Y-79695238D01*
X167704762Y-79504762D01*
X167704762Y-79123810D01*
X167609524Y-78933334D01*
X167514286Y-78838095D01*
X167323810Y-78742857D01*
X165704762Y-78742857D01*
X165704762Y-78076191D02*
X165704762Y-76933334D01*
X167704762Y-77504762D02*
X165704762Y-77504762D01*
X112952381Y-102782143D02*
X112871429Y-102863095D01*
X112628572Y-102944048D01*
X112466667Y-102944048D01*
X112223810Y-102863095D01*
X112061905Y-102701190D01*
X111980953Y-102539286D01*
X111900001Y-102215476D01*
X111900001Y-101972619D01*
X111980953Y-101648810D01*
X112061905Y-101486905D01*
X112223810Y-101325000D01*
X112466667Y-101244048D01*
X112628572Y-101244048D01*
X112871429Y-101325000D01*
X112952381Y-101405952D01*
X113923810Y-102944048D02*
X113761905Y-102863095D01*
X113680953Y-102782143D01*
X113600001Y-102620238D01*
X113600001Y-102134524D01*
X113680953Y-101972619D01*
X113761905Y-101891667D01*
X113923810Y-101810714D01*
X114166667Y-101810714D01*
X114328572Y-101891667D01*
X114409524Y-101972619D01*
X114490477Y-102134524D01*
X114490477Y-102620238D01*
X114409524Y-102782143D01*
X114328572Y-102863095D01*
X114166667Y-102944048D01*
X113923810Y-102944048D01*
X115219048Y-102944048D02*
X115219048Y-101810714D01*
X115219048Y-101972619D02*
X115300000Y-101891667D01*
X115461905Y-101810714D01*
X115704762Y-101810714D01*
X115866667Y-101891667D01*
X115947619Y-102053571D01*
X115947619Y-102944048D01*
X115947619Y-102053571D02*
X116028572Y-101891667D01*
X116190476Y-101810714D01*
X116433334Y-101810714D01*
X116595238Y-101891667D01*
X116676191Y-102053571D01*
X116676191Y-102944048D01*
X117485715Y-102944048D02*
X117485715Y-101810714D01*
X117485715Y-101972619D02*
X117566667Y-101891667D01*
X117728572Y-101810714D01*
X117971429Y-101810714D01*
X118133334Y-101891667D01*
X118214286Y-102053571D01*
X118214286Y-102944048D01*
X118214286Y-102053571D02*
X118295239Y-101891667D01*
X118457143Y-101810714D01*
X118700001Y-101810714D01*
X118861905Y-101891667D01*
X118942858Y-102053571D01*
X118942858Y-102944048D01*
X119995239Y-102944048D02*
X119833334Y-102863095D01*
X119752382Y-102782143D01*
X119671430Y-102620238D01*
X119671430Y-102134524D01*
X119752382Y-101972619D01*
X119833334Y-101891667D01*
X119995239Y-101810714D01*
X120238096Y-101810714D01*
X120400001Y-101891667D01*
X120480953Y-101972619D01*
X120561906Y-102134524D01*
X120561906Y-102620238D01*
X120480953Y-102782143D01*
X120400001Y-102863095D01*
X120238096Y-102944048D01*
X119995239Y-102944048D01*
X121290477Y-101810714D02*
X121290477Y-102944048D01*
X121290477Y-101972619D02*
X121371429Y-101891667D01*
X121533334Y-101810714D01*
X121776191Y-101810714D01*
X121938096Y-101891667D01*
X122019048Y-102053571D01*
X122019048Y-102944048D01*
X115704762Y-104175000D02*
X115542857Y-104094048D01*
X115300000Y-104094048D01*
X115057143Y-104175000D01*
X114895238Y-104336905D01*
X114814286Y-104498810D01*
X114733334Y-104822619D01*
X114733334Y-105065476D01*
X114814286Y-105389286D01*
X114895238Y-105551190D01*
X115057143Y-105713095D01*
X115300000Y-105794048D01*
X115461905Y-105794048D01*
X115704762Y-105713095D01*
X115785714Y-105632143D01*
X115785714Y-105065476D01*
X115461905Y-105065476D01*
X116514286Y-105794048D02*
X116514286Y-104094048D01*
X117485714Y-105794048D01*
X117485714Y-104094048D01*
X118295238Y-105794048D02*
X118295238Y-104094048D01*
X118700000Y-104094048D01*
X118942857Y-104175000D01*
X119104762Y-104336905D01*
X119185714Y-104498810D01*
X119266666Y-104822619D01*
X119266666Y-105065476D01*
X119185714Y-105389286D01*
X119104762Y-105551190D01*
X118942857Y-105713095D01*
X118700000Y-105794048D01*
X118295238Y-105794048D01*
X156800000Y-71378571D02*
X155942857Y-71378571D01*
X156371429Y-71378571D02*
X156371429Y-69878571D01*
X156228572Y-70092857D01*
X156085714Y-70235714D01*
X155942857Y-70307143D01*
X157442857Y-70807143D02*
X158585714Y-70807143D01*
X158014285Y-71378571D02*
X158014285Y-70235714D01*
X161800000Y-71378571D02*
X160942857Y-71378571D01*
X161371429Y-71378571D02*
X161371429Y-69878571D01*
X161228572Y-70092857D01*
X161085714Y-70235714D01*
X160942857Y-70307143D01*
X162442857Y-70807143D02*
X163585714Y-70807143D01*
X145942857Y-70021429D02*
X146014286Y-69950000D01*
X146157143Y-69878571D01*
X146514286Y-69878571D01*
X146657143Y-69950000D01*
X146728572Y-70021429D01*
X146800000Y-70164286D01*
X146800000Y-70307143D01*
X146728572Y-70521429D01*
X145871429Y-71378571D01*
X146800000Y-71378571D01*
X147442857Y-70807143D02*
X148585714Y-70807143D01*
X148014285Y-71378571D02*
X148014285Y-70235714D01*
X150942857Y-70021429D02*
X151014286Y-69950000D01*
X151157143Y-69878571D01*
X151514286Y-69878571D01*
X151657143Y-69950000D01*
X151728572Y-70021429D01*
X151800000Y-70164286D01*
X151800000Y-70307143D01*
X151728572Y-70521429D01*
X150871429Y-71378571D01*
X151800000Y-71378571D01*
X152442857Y-70807143D02*
X153585714Y-70807143D01*
X135871429Y-69878571D02*
X136800000Y-69878571D01*
X136300000Y-70450000D01*
X136514286Y-70450000D01*
X136657143Y-70521429D01*
X136728572Y-70592857D01*
X136800000Y-70735714D01*
X136800000Y-71092857D01*
X136728572Y-71235714D01*
X136657143Y-71307143D01*
X136514286Y-71378571D01*
X136085714Y-71378571D01*
X135942857Y-71307143D01*
X135871429Y-71235714D01*
X137442857Y-70807143D02*
X138585714Y-70807143D01*
X138014285Y-71378571D02*
X138014285Y-70235714D01*
X140871429Y-69878571D02*
X141800000Y-69878571D01*
X141300000Y-70450000D01*
X141514286Y-70450000D01*
X141657143Y-70521429D01*
X141728572Y-70592857D01*
X141800000Y-70735714D01*
X141800000Y-71092857D01*
X141728572Y-71235714D01*
X141657143Y-71307143D01*
X141514286Y-71378571D01*
X141085714Y-71378571D01*
X140942857Y-71307143D01*
X140871429Y-71235714D01*
X142442857Y-70807143D02*
X143585714Y-70807143D01*
X126657143Y-70378571D02*
X126657143Y-71378571D01*
X126300000Y-69807143D02*
X125942857Y-70878571D01*
X126871429Y-70878571D01*
X127442857Y-70807143D02*
X128585714Y-70807143D01*
X128014285Y-71378571D02*
X128014285Y-70235714D01*
X131657143Y-70378571D02*
X131657143Y-71378571D01*
X131300000Y-69807143D02*
X130942857Y-70878571D01*
X131871429Y-70878571D01*
X132442857Y-70807143D02*
X133585714Y-70807143D01*
D12*
X157800000Y-83400000D02*
X157800000Y-83200000D01*
X157800000Y-83200000D02*
X161800000Y-83200000D01*
X161800000Y-83200000D02*
X161800000Y-83400000D01*
X161400000Y-91200000D02*
X161400000Y-91400000D01*
X161400000Y-91400000D02*
X162000000Y-91400000D01*
X162000000Y-91400000D02*
X162000000Y-91200000D01*
X160100000Y-91200000D02*
X160100000Y-91400000D01*
X160100000Y-91400000D02*
X160700000Y-91400000D01*
X160700000Y-91400000D02*
X160700000Y-91200000D01*
X158900000Y-91200000D02*
X158900000Y-91400000D01*
X158900000Y-91400000D02*
X159500000Y-91400000D01*
X159500000Y-91400000D02*
X159500000Y-91200000D01*
X157600000Y-91200000D02*
X157600000Y-91400000D01*
X157600000Y-91400000D02*
X158200000Y-91400000D01*
X158200000Y-91400000D02*
X158200000Y-91200000D01*
X157000000Y-83400000D02*
X162600000Y-83400000D01*
X162600000Y-83400000D02*
X162600000Y-91200000D01*
X162600000Y-91200000D02*
X157000000Y-91200000D01*
X157000000Y-91200000D02*
X157000000Y-83400000D01*
X147800000Y-83400000D02*
X147800000Y-83200000D01*
X147800000Y-83200000D02*
X151800000Y-83200000D01*
X151800000Y-83200000D02*
X151800000Y-83400000D01*
X151400000Y-91200000D02*
X151400000Y-91400000D01*
X151400000Y-91400000D02*
X152000000Y-91400000D01*
X152000000Y-91400000D02*
X152000000Y-91200000D01*
X150100000Y-91200000D02*
X150100000Y-91400000D01*
X150100000Y-91400000D02*
X150700000Y-91400000D01*
X150700000Y-91400000D02*
X150700000Y-91200000D01*
X148900000Y-91200000D02*
X148900000Y-91400000D01*
X148900000Y-91400000D02*
X149500000Y-91400000D01*
X149500000Y-91400000D02*
X149500000Y-91200000D01*
X147600000Y-91200000D02*
X147600000Y-91400000D01*
X147600000Y-91400000D02*
X148200000Y-91400000D01*
X148200000Y-91400000D02*
X148200000Y-91200000D01*
X147000000Y-83400000D02*
X152600000Y-83400000D01*
X152600000Y-83400000D02*
X152600000Y-91200000D01*
X152600000Y-91200000D02*
X147000000Y-91200000D01*
X147000000Y-91200000D02*
X147000000Y-83400000D01*
X137800000Y-83400000D02*
X137800000Y-83200000D01*
X137800000Y-83200000D02*
X141800000Y-83200000D01*
X141800000Y-83200000D02*
X141800000Y-83400000D01*
X141400000Y-91200000D02*
X141400000Y-91400000D01*
X141400000Y-91400000D02*
X142000000Y-91400000D01*
X142000000Y-91400000D02*
X142000000Y-91200000D01*
X140100000Y-91200000D02*
X140100000Y-91400000D01*
X140100000Y-91400000D02*
X140700000Y-91400000D01*
X140700000Y-91400000D02*
X140700000Y-91200000D01*
X138900000Y-91200000D02*
X138900000Y-91400000D01*
X138900000Y-91400000D02*
X139500000Y-91400000D01*
X139500000Y-91400000D02*
X139500000Y-91200000D01*
X137600000Y-91200000D02*
X137600000Y-91400000D01*
X137600000Y-91400000D02*
X138200000Y-91400000D01*
X138200000Y-91400000D02*
X138200000Y-91200000D01*
X137000000Y-83400000D02*
X142600000Y-83400000D01*
X142600000Y-83400000D02*
X142600000Y-91200000D01*
X142600000Y-91200000D02*
X137000000Y-91200000D01*
X137000000Y-91200000D02*
X137000000Y-83400000D01*
X127800000Y-83400000D02*
X127800000Y-83200000D01*
X127800000Y-83200000D02*
X131800000Y-83200000D01*
X131800000Y-83200000D02*
X131800000Y-83400000D01*
X131400000Y-91200000D02*
X131400000Y-91400000D01*
X131400000Y-91400000D02*
X132000000Y-91400000D01*
X132000000Y-91400000D02*
X132000000Y-91200000D01*
X130100000Y-91200000D02*
X130100000Y-91400000D01*
X130100000Y-91400000D02*
X130700000Y-91400000D01*
X130700000Y-91400000D02*
X130700000Y-91200000D01*
X128900000Y-91200000D02*
X128900000Y-91400000D01*
X128900000Y-91400000D02*
X129500000Y-91400000D01*
X129500000Y-91400000D02*
X129500000Y-91200000D01*
X127600000Y-91200000D02*
X127600000Y-91400000D01*
X127600000Y-91400000D02*
X128200000Y-91400000D01*
X128200000Y-91400000D02*
X128200000Y-91200000D01*
X127000000Y-83400000D02*
X132600000Y-83400000D01*
X132600000Y-83400000D02*
X132600000Y-91200000D01*
X132600000Y-91200000D02*
X127000000Y-91200000D01*
X127000000Y-91200000D02*
X127000000Y-83400000D01*
D13*
X124800000Y-72850000D02*
X164800000Y-72850000D01*
X124800000Y-81150000D02*
X164800000Y-81150000D01*
X164800000Y-81150000D02*
X164800000Y-72850000D01*
X124800000Y-81150000D02*
X124800000Y-72850000D01*
D12*
X119103010Y-95412305D02*
G75*
G03X118400000Y-95900000I996990J-2187695D01*
G01*
X119103010Y-99787695D02*
G75*
G02X118400000Y-99300000I996990J2187695D01*
G01*
X118400000Y-95900000D02*
X118400000Y-99300000D01*
X121095264Y-95416093D02*
G75*
G02X122500000Y-97600000I-995264J-2183907D01*
G01*
X121095264Y-99783907D02*
G75*
G03X122500000Y-97600000I-995264J2183907D01*
G01*
X115300000Y-99525000D02*
X116300000Y-99525000D01*
X116300000Y-100875000D02*
X115300000Y-100875000D01*
X115300000Y-94325000D02*
X116300000Y-94325000D01*
X116300000Y-95675000D02*
X115300000Y-95675000D01*
D13*
X119800000Y-70200000D02*
X119800000Y-70000000D01*
X121200000Y-70200000D02*
X121200000Y-70000000D01*
X121200000Y-70200000D02*
X119800000Y-70200000D01*
X119800000Y-68700000D02*
X119800000Y-70100000D01*
X119800000Y-70100000D02*
X121200000Y-70100000D01*
X121200000Y-70100000D02*
X121200000Y-68700000D01*
X117800000Y-70200000D02*
X117800000Y-70000000D01*
X119200000Y-70200000D02*
X119200000Y-70000000D01*
X119200000Y-70200000D02*
X117800000Y-70200000D01*
X117800000Y-68700000D02*
X117800000Y-70100000D01*
X117800000Y-70100000D02*
X119200000Y-70100000D01*
X119200000Y-70100000D02*
X119200000Y-68700000D01*
X115800000Y-70200000D02*
X115800000Y-70000000D01*
X117200000Y-70200000D02*
X117200000Y-70000000D01*
X117200000Y-70200000D02*
X115800000Y-70200000D01*
X115800000Y-68700000D02*
X115800000Y-70100000D01*
X115800000Y-70100000D02*
X117200000Y-70100000D01*
X117200000Y-70100000D02*
X117200000Y-68700000D01*
X113800000Y-70200000D02*
X113800000Y-70000000D01*
X115200000Y-70200000D02*
X115200000Y-70000000D01*
X115200000Y-70200000D02*
X113800000Y-70200000D01*
X113800000Y-68700000D02*
X113800000Y-70100000D01*
X113800000Y-70100000D02*
X115200000Y-70100000D01*
X115200000Y-70100000D02*
X115200000Y-68700000D01*
D12*
X109700000Y-73525000D02*
X110700000Y-73525000D01*
X110700000Y-74875000D02*
X109700000Y-74875000D01*
X109700000Y-75425000D02*
X110700000Y-75425000D01*
X110700000Y-76775000D02*
X109700000Y-76775000D01*
X109800000Y-97125000D02*
X110800000Y-97125000D01*
X110800000Y-98475000D02*
X109800000Y-98475000D01*
X109800000Y-98925000D02*
X110800000Y-98925000D01*
X110800000Y-100275000D02*
X109800000Y-100275000D01*
X124525000Y-91600000D02*
X124525000Y-90600000D01*
X125875000Y-90600000D02*
X125875000Y-91600000D01*
X124525000Y-87300000D02*
X124525000Y-86300000D01*
X125875000Y-86300000D02*
X125875000Y-87300000D01*
X114025000Y-86300000D02*
X114025000Y-85300000D01*
X115375000Y-85300000D02*
X115375000Y-86300000D01*
X114025000Y-90200000D02*
X114025000Y-89200000D01*
X115375000Y-89200000D02*
X115375000Y-90200000D01*
X123400000Y-69975000D02*
X122400000Y-69975000D01*
X122400000Y-68625000D02*
X123400000Y-68625000D01*
X123400000Y-72075000D02*
X122400000Y-72075000D01*
X122400000Y-70725000D02*
X123400000Y-70725000D01*
X111000000Y-70725000D02*
X112000000Y-70725000D01*
X112000000Y-72075000D02*
X111000000Y-72075000D01*
X111000000Y-68625000D02*
X112000000Y-68625000D01*
X112000000Y-69975000D02*
X111000000Y-69975000D01*
D13*
X164800000Y-101750000D02*
X124800000Y-101750000D01*
X164800000Y-93450000D02*
X124800000Y-93450000D01*
X124800000Y-93450000D02*
X124800000Y-101750000D01*
X164800000Y-93450000D02*
X164800000Y-101750000D01*
X123116228Y-73300000D02*
G75*
G03X123116228Y-73300000I-316228J0D01*
G01*
D12*
X123375000Y-75625000D02*
X123270000Y-75625000D01*
X123375000Y-79775000D02*
X123270000Y-79775000D01*
X113225000Y-79775000D02*
X113330000Y-79775000D01*
X113225000Y-75625000D02*
X113330000Y-75625000D01*
X123375000Y-75625000D02*
X123375000Y-79775000D01*
X113225000Y-75625000D02*
X113225000Y-79775000D01*
X123270000Y-75625000D02*
X123270000Y-74250000D01*
D13*
X124100000Y-91600000D02*
G75*
G03X124100000Y-91600000I-300000J0D01*
G01*
D12*
X121675000Y-92250000D02*
X121675000Y-92135000D01*
X117525000Y-92250000D02*
X117525000Y-92135000D01*
X117525000Y-83350000D02*
X117525000Y-83465000D01*
X121675000Y-83350000D02*
X121675000Y-83465000D01*
X121675000Y-92250000D02*
X117525000Y-92250000D01*
X121675000Y-83350000D02*
X117525000Y-83350000D01*
X121675000Y-92135000D02*
X123050000Y-92135000D01*
X103100000Y-96150000D02*
X103100000Y-77250000D01*
X108500000Y-96150000D02*
X108500000Y-77250000D01*
X159704762Y-82922619D02*
X159609524Y-82875000D01*
X159514286Y-82779762D01*
X159371429Y-82636905D01*
X159276190Y-82589286D01*
X159180952Y-82589286D01*
X159228571Y-82827381D02*
X159133333Y-82779762D01*
X159038095Y-82684524D01*
X158990476Y-82494048D01*
X158990476Y-82160714D01*
X159038095Y-81970238D01*
X159133333Y-81875000D01*
X159228571Y-81827381D01*
X159419048Y-81827381D01*
X159514286Y-81875000D01*
X159609524Y-81970238D01*
X159657143Y-82160714D01*
X159657143Y-82494048D01*
X159609524Y-82684524D01*
X159514286Y-82779762D01*
X159419048Y-82827381D01*
X159228571Y-82827381D01*
X160609524Y-82827381D02*
X160038095Y-82827381D01*
X160323809Y-82827381D02*
X160323809Y-81827381D01*
X160228571Y-81970238D01*
X160133333Y-82065476D01*
X160038095Y-82113095D01*
X149704762Y-82922619D02*
X149609524Y-82875000D01*
X149514286Y-82779762D01*
X149371429Y-82636905D01*
X149276190Y-82589286D01*
X149180952Y-82589286D01*
X149228571Y-82827381D02*
X149133333Y-82779762D01*
X149038095Y-82684524D01*
X148990476Y-82494048D01*
X148990476Y-82160714D01*
X149038095Y-81970238D01*
X149133333Y-81875000D01*
X149228571Y-81827381D01*
X149419048Y-81827381D01*
X149514286Y-81875000D01*
X149609524Y-81970238D01*
X149657143Y-82160714D01*
X149657143Y-82494048D01*
X149609524Y-82684524D01*
X149514286Y-82779762D01*
X149419048Y-82827381D01*
X149228571Y-82827381D01*
X150038095Y-81922619D02*
X150085714Y-81875000D01*
X150180952Y-81827381D01*
X150419048Y-81827381D01*
X150514286Y-81875000D01*
X150561905Y-81922619D01*
X150609524Y-82017857D01*
X150609524Y-82113095D01*
X150561905Y-82255952D01*
X149990476Y-82827381D01*
X150609524Y-82827381D01*
X139704762Y-82922619D02*
X139609524Y-82875000D01*
X139514286Y-82779762D01*
X139371429Y-82636905D01*
X139276190Y-82589286D01*
X139180952Y-82589286D01*
X139228571Y-82827381D02*
X139133333Y-82779762D01*
X139038095Y-82684524D01*
X138990476Y-82494048D01*
X138990476Y-82160714D01*
X139038095Y-81970238D01*
X139133333Y-81875000D01*
X139228571Y-81827381D01*
X139419048Y-81827381D01*
X139514286Y-81875000D01*
X139609524Y-81970238D01*
X139657143Y-82160714D01*
X139657143Y-82494048D01*
X139609524Y-82684524D01*
X139514286Y-82779762D01*
X139419048Y-82827381D01*
X139228571Y-82827381D01*
X139990476Y-81827381D02*
X140609524Y-81827381D01*
X140276190Y-82208333D01*
X140419048Y-82208333D01*
X140514286Y-82255952D01*
X140561905Y-82303571D01*
X140609524Y-82398810D01*
X140609524Y-82636905D01*
X140561905Y-82732143D01*
X140514286Y-82779762D01*
X140419048Y-82827381D01*
X140133333Y-82827381D01*
X140038095Y-82779762D01*
X139990476Y-82732143D01*
X129704762Y-82922619D02*
X129609524Y-82875000D01*
X129514286Y-82779762D01*
X129371429Y-82636905D01*
X129276190Y-82589286D01*
X129180952Y-82589286D01*
X129228571Y-82827381D02*
X129133333Y-82779762D01*
X129038095Y-82684524D01*
X128990476Y-82494048D01*
X128990476Y-82160714D01*
X129038095Y-81970238D01*
X129133333Y-81875000D01*
X129228571Y-81827381D01*
X129419048Y-81827381D01*
X129514286Y-81875000D01*
X129609524Y-81970238D01*
X129657143Y-82160714D01*
X129657143Y-82494048D01*
X129609524Y-82684524D01*
X129514286Y-82779762D01*
X129419048Y-82827381D01*
X129228571Y-82827381D01*
X130514286Y-82160714D02*
X130514286Y-82827381D01*
X130276190Y-81779762D02*
X130038095Y-82494048D01*
X130657143Y-82494048D01*
X144466667Y-78152381D02*
X144466667Y-78866667D01*
X144419047Y-79009524D01*
X144323809Y-79104762D01*
X144180952Y-79152381D01*
X144085714Y-79152381D01*
X145466667Y-79152381D02*
X144895238Y-79152381D01*
X145180952Y-79152381D02*
X145180952Y-78152381D01*
X145085714Y-78295238D01*
X144990476Y-78390476D01*
X144895238Y-78438095D01*
X116852381Y-98361905D02*
X117661905Y-98361905D01*
X117757143Y-98314286D01*
X117804762Y-98266667D01*
X117852381Y-98171429D01*
X117852381Y-97980952D01*
X117804762Y-97885714D01*
X117757143Y-97838095D01*
X117661905Y-97790476D01*
X116852381Y-97790476D01*
X116947619Y-97361905D02*
X116900000Y-97314286D01*
X116852381Y-97219048D01*
X116852381Y-96980952D01*
X116900000Y-96885714D01*
X116947619Y-96838095D01*
X117042857Y-96790476D01*
X117138095Y-96790476D01*
X117280952Y-96838095D01*
X117852381Y-97409524D01*
X117852381Y-96790476D01*
X116050000Y-98816666D02*
X116083333Y-98850000D01*
X116116667Y-98950000D01*
X116116667Y-99016666D01*
X116083333Y-99116666D01*
X116016667Y-99183333D01*
X115950000Y-99216666D01*
X115816667Y-99250000D01*
X115716667Y-99250000D01*
X115583333Y-99216666D01*
X115516667Y-99183333D01*
X115450000Y-99116666D01*
X115416667Y-99016666D01*
X115416667Y-98950000D01*
X115450000Y-98850000D01*
X115483333Y-98816666D01*
X116116667Y-98150000D02*
X116116667Y-98550000D01*
X116116667Y-98350000D02*
X115416667Y-98350000D01*
X115516667Y-98416666D01*
X115583333Y-98483333D01*
X115616667Y-98550000D01*
X114250000Y-95116666D02*
X114283333Y-95150000D01*
X114316667Y-95250000D01*
X114316667Y-95316666D01*
X114283333Y-95416666D01*
X114216667Y-95483333D01*
X114150000Y-95516666D01*
X114016667Y-95550000D01*
X113916667Y-95550000D01*
X113783333Y-95516666D01*
X113716667Y-95483333D01*
X113650000Y-95416666D01*
X113616667Y-95316666D01*
X113616667Y-95250000D01*
X113650000Y-95150000D01*
X113683333Y-95116666D01*
X113683333Y-94850000D02*
X113650000Y-94816666D01*
X113616667Y-94750000D01*
X113616667Y-94583333D01*
X113650000Y-94516666D01*
X113683333Y-94483333D01*
X113750000Y-94450000D01*
X113816667Y-94450000D01*
X113916667Y-94483333D01*
X114316667Y-94883333D01*
X114316667Y-94450000D01*
X120816667Y-73316666D02*
X120116667Y-73316666D01*
X120116667Y-73150000D01*
X120150000Y-73050000D01*
X120216667Y-72983333D01*
X120283333Y-72950000D01*
X120416667Y-72916666D01*
X120516667Y-72916666D01*
X120650000Y-72950000D01*
X120716667Y-72983333D01*
X120783333Y-73050000D01*
X120816667Y-73150000D01*
X120816667Y-73316666D01*
X120816667Y-72250000D02*
X120816667Y-72650000D01*
X120816667Y-72450000D02*
X120116667Y-72450000D01*
X120216667Y-72516666D01*
X120283333Y-72583333D01*
X120316667Y-72650000D01*
X118816667Y-73416666D02*
X118116667Y-73416666D01*
X118116667Y-73250000D01*
X118150000Y-73150000D01*
X118216667Y-73083333D01*
X118283333Y-73050000D01*
X118416667Y-73016666D01*
X118516667Y-73016666D01*
X118650000Y-73050000D01*
X118716667Y-73083333D01*
X118783333Y-73150000D01*
X118816667Y-73250000D01*
X118816667Y-73416666D01*
X118183333Y-72750000D02*
X118150000Y-72716666D01*
X118116667Y-72650000D01*
X118116667Y-72483333D01*
X118150000Y-72416666D01*
X118183333Y-72383333D01*
X118250000Y-72350000D01*
X118316667Y-72350000D01*
X118416667Y-72383333D01*
X118816667Y-72783333D01*
X118816667Y-72350000D01*
X116816667Y-73416666D02*
X116116667Y-73416666D01*
X116116667Y-73250000D01*
X116150000Y-73150000D01*
X116216667Y-73083333D01*
X116283333Y-73050000D01*
X116416667Y-73016666D01*
X116516667Y-73016666D01*
X116650000Y-73050000D01*
X116716667Y-73083333D01*
X116783333Y-73150000D01*
X116816667Y-73250000D01*
X116816667Y-73416666D01*
X116116667Y-72783333D02*
X116116667Y-72350000D01*
X116383333Y-72583333D01*
X116383333Y-72483333D01*
X116416667Y-72416666D01*
X116450000Y-72383333D01*
X116516667Y-72350000D01*
X116683333Y-72350000D01*
X116750000Y-72383333D01*
X116783333Y-72416666D01*
X116816667Y-72483333D01*
X116816667Y-72683333D01*
X116783333Y-72750000D01*
X116750000Y-72783333D01*
X114916667Y-73416666D02*
X114216667Y-73416666D01*
X114216667Y-73250000D01*
X114250000Y-73150000D01*
X114316667Y-73083333D01*
X114383333Y-73050000D01*
X114516667Y-73016666D01*
X114616667Y-73016666D01*
X114750000Y-73050000D01*
X114816667Y-73083333D01*
X114883333Y-73150000D01*
X114916667Y-73250000D01*
X114916667Y-73416666D01*
X114450000Y-72416666D02*
X114916667Y-72416666D01*
X114183333Y-72583333D02*
X114683333Y-72750000D01*
X114683333Y-72316666D01*
X112083334Y-74516667D02*
X111850000Y-74183333D01*
X111683334Y-74516667D02*
X111683334Y-73816667D01*
X111950000Y-73816667D01*
X112016667Y-73850000D01*
X112050000Y-73883333D01*
X112083334Y-73950000D01*
X112083334Y-74050000D01*
X112050000Y-74116667D01*
X112016667Y-74150000D01*
X111950000Y-74183333D01*
X111683334Y-74183333D01*
X112316667Y-73816667D02*
X112783334Y-73816667D01*
X112483334Y-74516667D01*
X112083334Y-76416667D02*
X111850000Y-76083333D01*
X111683334Y-76416667D02*
X111683334Y-75716667D01*
X111950000Y-75716667D01*
X112016667Y-75750000D01*
X112050000Y-75783333D01*
X112083334Y-75850000D01*
X112083334Y-75950000D01*
X112050000Y-76016667D01*
X112016667Y-76050000D01*
X111950000Y-76083333D01*
X111683334Y-76083333D01*
X112483334Y-76016667D02*
X112416667Y-75983333D01*
X112383334Y-75950000D01*
X112350000Y-75883333D01*
X112350000Y-75850000D01*
X112383334Y-75783333D01*
X112416667Y-75750000D01*
X112483334Y-75716667D01*
X112616667Y-75716667D01*
X112683334Y-75750000D01*
X112716667Y-75783333D01*
X112750000Y-75850000D01*
X112750000Y-75883333D01*
X112716667Y-75950000D01*
X112683334Y-75983333D01*
X112616667Y-76016667D01*
X112483334Y-76016667D01*
X112416667Y-76050000D01*
X112383334Y-76083333D01*
X112350000Y-76150000D01*
X112350000Y-76283333D01*
X112383334Y-76350000D01*
X112416667Y-76383333D01*
X112483334Y-76416667D01*
X112616667Y-76416667D01*
X112683334Y-76383333D01*
X112716667Y-76350000D01*
X112750000Y-76283333D01*
X112750000Y-76150000D01*
X112716667Y-76083333D01*
X112683334Y-76050000D01*
X112616667Y-76016667D01*
X112183334Y-98116667D02*
X111950000Y-97783333D01*
X111783334Y-98116667D02*
X111783334Y-97416667D01*
X112050000Y-97416667D01*
X112116667Y-97450000D01*
X112150000Y-97483333D01*
X112183334Y-97550000D01*
X112183334Y-97650000D01*
X112150000Y-97716667D01*
X112116667Y-97750000D01*
X112050000Y-97783333D01*
X111783334Y-97783333D01*
X112516667Y-98116667D02*
X112650000Y-98116667D01*
X112716667Y-98083333D01*
X112750000Y-98050000D01*
X112816667Y-97950000D01*
X112850000Y-97816667D01*
X112850000Y-97550000D01*
X112816667Y-97483333D01*
X112783334Y-97450000D01*
X112716667Y-97416667D01*
X112583334Y-97416667D01*
X112516667Y-97450000D01*
X112483334Y-97483333D01*
X112450000Y-97550000D01*
X112450000Y-97716667D01*
X112483334Y-97783333D01*
X112516667Y-97816667D01*
X112583334Y-97850000D01*
X112716667Y-97850000D01*
X112783334Y-97816667D01*
X112816667Y-97783333D01*
X112850000Y-97716667D01*
X112250000Y-99916667D02*
X112016666Y-99583333D01*
X111850000Y-99916667D02*
X111850000Y-99216667D01*
X112116666Y-99216667D01*
X112183333Y-99250000D01*
X112216666Y-99283333D01*
X112250000Y-99350000D01*
X112250000Y-99450000D01*
X112216666Y-99516667D01*
X112183333Y-99550000D01*
X112116666Y-99583333D01*
X111850000Y-99583333D01*
X112916666Y-99916667D02*
X112516666Y-99916667D01*
X112716666Y-99916667D02*
X112716666Y-99216667D01*
X112650000Y-99316667D01*
X112583333Y-99383333D01*
X112516666Y-99416667D01*
X113350000Y-99216667D02*
X113416667Y-99216667D01*
X113483333Y-99250000D01*
X113516667Y-99283333D01*
X113550000Y-99350000D01*
X113583333Y-99483333D01*
X113583333Y-99650000D01*
X113550000Y-99783333D01*
X113516667Y-99850000D01*
X113483333Y-99883333D01*
X113416667Y-99916667D01*
X113350000Y-99916667D01*
X113283333Y-99883333D01*
X113250000Y-99850000D01*
X113216667Y-99783333D01*
X113183333Y-99650000D01*
X113183333Y-99483333D01*
X113216667Y-99350000D01*
X113250000Y-99283333D01*
X113283333Y-99250000D01*
X113350000Y-99216667D01*
X126550000Y-92816667D02*
X126316666Y-92483333D01*
X126150000Y-92816667D02*
X126150000Y-92116667D01*
X126416666Y-92116667D01*
X126483333Y-92150000D01*
X126516666Y-92183333D01*
X126550000Y-92250000D01*
X126550000Y-92350000D01*
X126516666Y-92416667D01*
X126483333Y-92450000D01*
X126416666Y-92483333D01*
X126150000Y-92483333D01*
X127216666Y-92816667D02*
X126816666Y-92816667D01*
X127016666Y-92816667D02*
X127016666Y-92116667D01*
X126950000Y-92216667D01*
X126883333Y-92283333D01*
X126816666Y-92316667D01*
X127883333Y-92816667D02*
X127483333Y-92816667D01*
X127683333Y-92816667D02*
X127683333Y-92116667D01*
X127616667Y-92216667D01*
X127550000Y-92283333D01*
X127483333Y-92316667D01*
X124750000Y-85216667D02*
X124516666Y-84883333D01*
X124350000Y-85216667D02*
X124350000Y-84516667D01*
X124616666Y-84516667D01*
X124683333Y-84550000D01*
X124716666Y-84583333D01*
X124750000Y-84650000D01*
X124750000Y-84750000D01*
X124716666Y-84816667D01*
X124683333Y-84850000D01*
X124616666Y-84883333D01*
X124350000Y-84883333D01*
X125416666Y-85216667D02*
X125016666Y-85216667D01*
X125216666Y-85216667D02*
X125216666Y-84516667D01*
X125150000Y-84616667D01*
X125083333Y-84683333D01*
X125016666Y-84716667D01*
X125683333Y-84583333D02*
X125716667Y-84550000D01*
X125783333Y-84516667D01*
X125950000Y-84516667D01*
X126016667Y-84550000D01*
X126050000Y-84583333D01*
X126083333Y-84650000D01*
X126083333Y-84716667D01*
X126050000Y-84816667D01*
X125650000Y-85216667D01*
X126083333Y-85216667D01*
X115016667Y-83950000D02*
X114683333Y-84183334D01*
X115016667Y-84350000D02*
X114316667Y-84350000D01*
X114316667Y-84083334D01*
X114350000Y-84016667D01*
X114383333Y-83983334D01*
X114450000Y-83950000D01*
X114550000Y-83950000D01*
X114616667Y-83983334D01*
X114650000Y-84016667D01*
X114683333Y-84083334D01*
X114683333Y-84350000D01*
X115016667Y-83283334D02*
X115016667Y-83683334D01*
X115016667Y-83483334D02*
X114316667Y-83483334D01*
X114416667Y-83550000D01*
X114483333Y-83616667D01*
X114516667Y-83683334D01*
X114316667Y-83050000D02*
X114316667Y-82616667D01*
X114583333Y-82850000D01*
X114583333Y-82750000D01*
X114616667Y-82683333D01*
X114650000Y-82650000D01*
X114716667Y-82616667D01*
X114883333Y-82616667D01*
X114950000Y-82650000D01*
X114983333Y-82683333D01*
X115016667Y-82750000D01*
X115016667Y-82950000D01*
X114983333Y-83016667D01*
X114950000Y-83050000D01*
X115016667Y-92550000D02*
X114683333Y-92783334D01*
X115016667Y-92950000D02*
X114316667Y-92950000D01*
X114316667Y-92683334D01*
X114350000Y-92616667D01*
X114383333Y-92583334D01*
X114450000Y-92550000D01*
X114550000Y-92550000D01*
X114616667Y-92583334D01*
X114650000Y-92616667D01*
X114683333Y-92683334D01*
X114683333Y-92950000D01*
X115016667Y-91883334D02*
X115016667Y-92283334D01*
X115016667Y-92083334D02*
X114316667Y-92083334D01*
X114416667Y-92150000D01*
X114483333Y-92216667D01*
X114516667Y-92283334D01*
X114550000Y-91283333D02*
X115016667Y-91283333D01*
X114283333Y-91450000D02*
X114783333Y-91616667D01*
X114783333Y-91183333D01*
X108650000Y-71816667D02*
X108416666Y-71483333D01*
X108250000Y-71816667D02*
X108250000Y-71116667D01*
X108516666Y-71116667D01*
X108583333Y-71150000D01*
X108616666Y-71183333D01*
X108650000Y-71250000D01*
X108650000Y-71350000D01*
X108616666Y-71416667D01*
X108583333Y-71450000D01*
X108516666Y-71483333D01*
X108250000Y-71483333D01*
X109316666Y-71816667D02*
X108916666Y-71816667D01*
X109116666Y-71816667D02*
X109116666Y-71116667D01*
X109050000Y-71216667D01*
X108983333Y-71283333D01*
X108916666Y-71316667D01*
X109550000Y-71116667D02*
X110016667Y-71116667D01*
X109716667Y-71816667D01*
X108650000Y-69616667D02*
X108416666Y-69283333D01*
X108250000Y-69616667D02*
X108250000Y-68916667D01*
X108516666Y-68916667D01*
X108583333Y-68950000D01*
X108616666Y-68983333D01*
X108650000Y-69050000D01*
X108650000Y-69150000D01*
X108616666Y-69216667D01*
X108583333Y-69250000D01*
X108516666Y-69283333D01*
X108250000Y-69283333D01*
X109316666Y-69616667D02*
X108916666Y-69616667D01*
X109116666Y-69616667D02*
X109116666Y-68916667D01*
X109050000Y-69016667D01*
X108983333Y-69083333D01*
X108916666Y-69116667D01*
X109716667Y-69216667D02*
X109650000Y-69183333D01*
X109616667Y-69150000D01*
X109583333Y-69083333D01*
X109583333Y-69050000D01*
X109616667Y-68983333D01*
X109650000Y-68950000D01*
X109716667Y-68916667D01*
X109850000Y-68916667D01*
X109916667Y-68950000D01*
X109950000Y-68983333D01*
X109983333Y-69050000D01*
X109983333Y-69083333D01*
X109950000Y-69150000D01*
X109916667Y-69183333D01*
X109850000Y-69216667D01*
X109716667Y-69216667D01*
X109650000Y-69250000D01*
X109616667Y-69283333D01*
X109583333Y-69350000D01*
X109583333Y-69483333D01*
X109616667Y-69550000D01*
X109650000Y-69583333D01*
X109716667Y-69616667D01*
X109850000Y-69616667D01*
X109916667Y-69583333D01*
X109950000Y-69550000D01*
X109983333Y-69483333D01*
X109983333Y-69350000D01*
X109950000Y-69283333D01*
X109916667Y-69250000D01*
X109850000Y-69216667D01*
X144466667Y-95352381D02*
X144466667Y-96066667D01*
X144419047Y-96209524D01*
X144323809Y-96304762D01*
X144180952Y-96352381D01*
X144085714Y-96352381D01*
X144895238Y-95447619D02*
X144942857Y-95400000D01*
X145038095Y-95352381D01*
X145276191Y-95352381D01*
X145371429Y-95400000D01*
X145419048Y-95447619D01*
X145466667Y-95542857D01*
X145466667Y-95638095D01*
X145419048Y-95780952D01*
X144847619Y-96352381D01*
X145466667Y-96352381D01*
X121238095Y-76852381D02*
X121238095Y-77661905D01*
X121285714Y-77757143D01*
X121333333Y-77804762D01*
X121428571Y-77852381D01*
X121619048Y-77852381D01*
X121714286Y-77804762D01*
X121761905Y-77757143D01*
X121809524Y-77661905D01*
X121809524Y-76852381D01*
X122190476Y-76852381D02*
X122809524Y-76852381D01*
X122476190Y-77233333D01*
X122619048Y-77233333D01*
X122714286Y-77280952D01*
X122761905Y-77328571D01*
X122809524Y-77423810D01*
X122809524Y-77661905D01*
X122761905Y-77757143D01*
X122714286Y-77804762D01*
X122619048Y-77852381D01*
X122333333Y-77852381D01*
X122238095Y-77804762D01*
X122190476Y-77757143D01*
X118838095Y-92627381D02*
X118838095Y-93436905D01*
X118885714Y-93532143D01*
X118933333Y-93579762D01*
X119028571Y-93627381D01*
X119219048Y-93627381D01*
X119314286Y-93579762D01*
X119361905Y-93532143D01*
X119409524Y-93436905D01*
X119409524Y-92627381D01*
X120409524Y-93627381D02*
X119838095Y-93627381D01*
X120123809Y-93627381D02*
X120123809Y-92627381D01*
X120028571Y-92770238D01*
X119933333Y-92865476D01*
X119838095Y-92913095D01*
X109452381Y-94333333D02*
X110166667Y-94333333D01*
X110309524Y-94380953D01*
X110404762Y-94476191D01*
X110452381Y-94619048D01*
X110452381Y-94714286D01*
X109452381Y-93952381D02*
X109452381Y-93333333D01*
X109833333Y-93666667D01*
X109833333Y-93523809D01*
X109880952Y-93428571D01*
X109928571Y-93380952D01*
X110023810Y-93333333D01*
X110261905Y-93333333D01*
X110357143Y-93380952D01*
X110404762Y-93428571D01*
X110452381Y-93523809D01*
X110452381Y-93809524D01*
X110404762Y-93904762D01*
X110357143Y-93952381D01*
M02*
