G04 #@! TF.FileFunction,Copper,L4,Bot,Signal*
%FSLAX46Y46*%
G04 Gerber Fmt 4.6, Leading zero omitted, Abs format (unit mm)*
G04 Created by KiCad (PCBNEW 4.0.6-e0-6349~53~ubuntu14.04.1) date Sun Apr  2 15:59:59 2017*
%MOMM*%
%LPD*%
G01*
G04 APERTURE LIST*
%ADD10C,0.100000*%
%ADD11C,2.000000*%
%ADD12C,1.524000*%
%ADD13C,0.750000*%
%ADD14C,0.600000*%
%ADD15C,0.200000*%
G04 APERTURE END LIST*
D10*
D11*
X162300000Y-77000000D03*
X157300000Y-77000000D03*
X127300000Y-77000000D03*
X132300000Y-77000000D03*
X152300000Y-77000000D03*
X147300000Y-77000000D03*
X142300000Y-77000000D03*
X137300000Y-77000000D03*
D12*
X120100000Y-97600000D03*
X120100000Y-100140000D03*
X120100000Y-95060000D03*
D13*
X109365000Y-80985000D03*
X110635000Y-80985000D03*
X109365000Y-92415000D03*
X109365000Y-82255000D03*
X110635000Y-82255000D03*
X109365000Y-83525000D03*
X110635000Y-83525000D03*
X109365000Y-84795000D03*
X110635000Y-84795000D03*
X109365000Y-86065000D03*
X110635000Y-86065000D03*
X109365000Y-87335000D03*
X110635000Y-87335000D03*
X109365000Y-88605000D03*
X110635000Y-88605000D03*
X109365000Y-89875000D03*
X110635000Y-89875000D03*
X109365000Y-91145000D03*
X110635000Y-91145000D03*
X110635000Y-92415000D03*
D11*
X127300000Y-97600000D03*
X132300000Y-97600000D03*
X162300000Y-97600000D03*
X157300000Y-97600000D03*
X137300000Y-97600000D03*
X142300000Y-97600000D03*
X147300000Y-97600000D03*
X152300000Y-97600000D03*
D14*
X160000000Y-92500000D03*
X160000000Y-93500000D03*
X160000000Y-94500000D03*
X160000000Y-95500000D03*
X161000000Y-95500000D03*
X161000000Y-94500000D03*
X161000000Y-93500000D03*
X161000000Y-92500000D03*
X162000000Y-92500000D03*
X162000000Y-93500000D03*
X162000000Y-94500000D03*
X162000000Y-95500000D03*
X150000000Y-92500000D03*
X150000000Y-93500000D03*
X150000000Y-94500000D03*
X150000000Y-95500000D03*
X151000000Y-95500000D03*
X151000000Y-94500000D03*
X151000000Y-93500000D03*
X151000000Y-92500000D03*
X152000000Y-92500000D03*
X152000000Y-93500000D03*
X152000000Y-94500000D03*
X152000000Y-95500000D03*
X140000000Y-92500000D03*
X140000000Y-93500000D03*
X140000000Y-94500000D03*
X140000000Y-95500000D03*
X141000000Y-95500000D03*
X141000000Y-94500000D03*
X141000000Y-93500000D03*
X141000000Y-92500000D03*
X142000000Y-92500000D03*
X142000000Y-93500000D03*
X142000000Y-94500000D03*
X142000000Y-95500000D03*
X130000000Y-92500000D03*
X130000000Y-93500000D03*
X130000000Y-94500000D03*
X130000000Y-95500000D03*
X131000000Y-95500000D03*
X131000000Y-94500000D03*
X131000000Y-93500000D03*
X131000000Y-92500000D03*
X132000000Y-92500000D03*
X132000000Y-93500000D03*
X132000000Y-94500000D03*
X132000000Y-95500000D03*
X162425000Y-89075000D03*
X118400000Y-87600000D03*
X152500000Y-89025000D03*
X118225000Y-84050000D03*
X142475000Y-89075000D03*
X123725000Y-85700000D03*
X132775000Y-90125000D03*
X123700000Y-89700000D03*
X122700000Y-75900000D03*
X120200000Y-76500000D03*
X117700000Y-77100000D03*
X115100000Y-77900000D03*
X115400000Y-82275000D03*
X116400000Y-79500000D03*
X122500000Y-82500000D03*
X113900000Y-79600000D03*
X120900000Y-82500000D03*
X162000000Y-83000000D03*
X162000000Y-82000000D03*
X162000000Y-81000000D03*
X162000000Y-80000000D03*
X161000000Y-80000000D03*
X161000000Y-81000000D03*
X161000000Y-82000000D03*
X161000000Y-83000000D03*
X160000000Y-83000000D03*
X160000000Y-82000000D03*
X160000000Y-81000000D03*
X160000000Y-80000000D03*
X130000000Y-80000000D03*
X130000000Y-81000000D03*
X130000000Y-82000000D03*
X130000000Y-83000000D03*
X131000000Y-83000000D03*
X131000000Y-82000000D03*
X131000000Y-81000000D03*
X131000000Y-80000000D03*
X132000000Y-80000000D03*
X132000000Y-81000000D03*
X132000000Y-82000000D03*
X132000000Y-83000000D03*
X152000000Y-83000000D03*
X152000000Y-82000000D03*
X152000000Y-81000000D03*
X152000000Y-80000000D03*
X151000000Y-80000000D03*
X151000000Y-81000000D03*
X151000000Y-82000000D03*
X151000000Y-83000000D03*
X150000000Y-83000000D03*
X150000000Y-82000000D03*
X150000000Y-81000000D03*
X150000000Y-80000000D03*
X142000000Y-83000000D03*
X142000000Y-82000000D03*
X142000000Y-81000000D03*
X142000000Y-80000000D03*
X141000000Y-80000000D03*
X141000000Y-81000000D03*
X141000000Y-82000000D03*
X141000000Y-83000000D03*
X140000000Y-83000000D03*
X140000000Y-82000000D03*
X140000000Y-81000000D03*
X140000000Y-80000000D03*
D15*
G36*
X170611245Y-68524323D02*
X171129435Y-68870565D01*
X171475677Y-69388755D01*
X171605000Y-70038903D01*
X171605000Y-104561097D01*
X171475677Y-105211245D01*
X171129435Y-105729435D01*
X170611245Y-106075677D01*
X169961096Y-106205000D01*
X105038903Y-106205000D01*
X104388755Y-106075677D01*
X103870565Y-105729435D01*
X103524323Y-105211245D01*
X103395000Y-104561096D01*
X103395000Y-103920824D01*
X104379719Y-103920824D01*
X104625830Y-104516458D01*
X105081145Y-104972569D01*
X105676348Y-105219718D01*
X106320824Y-105220281D01*
X106916458Y-104974170D01*
X107372569Y-104518855D01*
X107619718Y-103923652D01*
X107619720Y-103920824D01*
X167379719Y-103920824D01*
X167625830Y-104516458D01*
X168081145Y-104972569D01*
X168676348Y-105219718D01*
X169320824Y-105220281D01*
X169916458Y-104974170D01*
X170372569Y-104518855D01*
X170619718Y-103923652D01*
X170620281Y-103279176D01*
X170374170Y-102683542D01*
X169918855Y-102227431D01*
X169323652Y-101980282D01*
X168679176Y-101979719D01*
X168083542Y-102225830D01*
X167627431Y-102681145D01*
X167380282Y-103276348D01*
X167379719Y-103920824D01*
X107619720Y-103920824D01*
X107620281Y-103279176D01*
X107374170Y-102683542D01*
X106918855Y-102227431D01*
X106323652Y-101980282D01*
X105679176Y-101979719D01*
X105083542Y-102225830D01*
X104627431Y-102681145D01*
X104380282Y-103276348D01*
X104379719Y-103920824D01*
X103395000Y-103920824D01*
X103395000Y-97814279D01*
X119017812Y-97814279D01*
X119182190Y-98212103D01*
X119486296Y-98516740D01*
X119883833Y-98681812D01*
X120314279Y-98682188D01*
X120712103Y-98517810D01*
X121016740Y-98213704D01*
X121163024Y-97861412D01*
X130979772Y-97861412D01*
X131180306Y-98346743D01*
X131551304Y-98718389D01*
X132036284Y-98919770D01*
X132561412Y-98920228D01*
X133046743Y-98719694D01*
X133418389Y-98348696D01*
X133619770Y-97863716D01*
X133619772Y-97861412D01*
X140979772Y-97861412D01*
X141180306Y-98346743D01*
X141551304Y-98718389D01*
X142036284Y-98919770D01*
X142561412Y-98920228D01*
X143046743Y-98719694D01*
X143418389Y-98348696D01*
X143619770Y-97863716D01*
X143619772Y-97861412D01*
X150979772Y-97861412D01*
X151180306Y-98346743D01*
X151551304Y-98718389D01*
X152036284Y-98919770D01*
X152561412Y-98920228D01*
X153046743Y-98719694D01*
X153418389Y-98348696D01*
X153619770Y-97863716D01*
X153619772Y-97861412D01*
X160979772Y-97861412D01*
X161180306Y-98346743D01*
X161551304Y-98718389D01*
X162036284Y-98919770D01*
X162561412Y-98920228D01*
X163046743Y-98719694D01*
X163418389Y-98348696D01*
X163619770Y-97863716D01*
X163620228Y-97338588D01*
X163419694Y-96853257D01*
X163048696Y-96481611D01*
X162563716Y-96280230D01*
X162038588Y-96279772D01*
X161553257Y-96480306D01*
X161181611Y-96851304D01*
X160980230Y-97336284D01*
X160979772Y-97861412D01*
X153619772Y-97861412D01*
X153620228Y-97338588D01*
X153419694Y-96853257D01*
X153048696Y-96481611D01*
X152563716Y-96280230D01*
X152038588Y-96279772D01*
X151553257Y-96480306D01*
X151181611Y-96851304D01*
X150980230Y-97336284D01*
X150979772Y-97861412D01*
X143619772Y-97861412D01*
X143620228Y-97338588D01*
X143419694Y-96853257D01*
X143048696Y-96481611D01*
X142563716Y-96280230D01*
X142038588Y-96279772D01*
X141553257Y-96480306D01*
X141181611Y-96851304D01*
X140980230Y-97336284D01*
X140979772Y-97861412D01*
X133619772Y-97861412D01*
X133620228Y-97338588D01*
X133419694Y-96853257D01*
X133048696Y-96481611D01*
X132563716Y-96280230D01*
X132038588Y-96279772D01*
X131553257Y-96480306D01*
X131181611Y-96851304D01*
X130980230Y-97336284D01*
X130979772Y-97861412D01*
X121163024Y-97861412D01*
X121181812Y-97816167D01*
X121182188Y-97385721D01*
X121017810Y-96987897D01*
X120713704Y-96683260D01*
X120316167Y-96518188D01*
X119885721Y-96517812D01*
X119487897Y-96682190D01*
X119183260Y-96986296D01*
X119018188Y-97383833D01*
X119017812Y-97814279D01*
X103395000Y-97814279D01*
X103395000Y-95274279D01*
X119017812Y-95274279D01*
X119182190Y-95672103D01*
X119486296Y-95976740D01*
X119883833Y-96141812D01*
X120314279Y-96142188D01*
X120712103Y-95977810D01*
X121016740Y-95673704D01*
X121181812Y-95276167D01*
X121182188Y-94845721D01*
X121017810Y-94447897D01*
X120713704Y-94143260D01*
X120316167Y-93978188D01*
X119885721Y-93977812D01*
X119487897Y-94142190D01*
X119183260Y-94446296D01*
X119018188Y-94843833D01*
X119017812Y-95274279D01*
X103395000Y-95274279D01*
X103395000Y-81122638D01*
X108669879Y-81122638D01*
X108775464Y-81378172D01*
X108970800Y-81573849D01*
X109081902Y-81619982D01*
X108971828Y-81665464D01*
X108776151Y-81860800D01*
X108670121Y-82116149D01*
X108669879Y-82392638D01*
X108775464Y-82648172D01*
X108970800Y-82843849D01*
X109081902Y-82889982D01*
X108971828Y-82935464D01*
X108776151Y-83130800D01*
X108670121Y-83386149D01*
X108669879Y-83662638D01*
X108775464Y-83918172D01*
X108970800Y-84113849D01*
X109081902Y-84159982D01*
X108971828Y-84205464D01*
X108776151Y-84400800D01*
X108670121Y-84656149D01*
X108669879Y-84932638D01*
X108775464Y-85188172D01*
X108970800Y-85383849D01*
X109081902Y-85429982D01*
X108971828Y-85475464D01*
X108776151Y-85670800D01*
X108670121Y-85926149D01*
X108669879Y-86202638D01*
X108775464Y-86458172D01*
X108970800Y-86653849D01*
X109081902Y-86699982D01*
X108971828Y-86745464D01*
X108776151Y-86940800D01*
X108670121Y-87196149D01*
X108669879Y-87472638D01*
X108775464Y-87728172D01*
X108970800Y-87923849D01*
X109081902Y-87969982D01*
X108971828Y-88015464D01*
X108776151Y-88210800D01*
X108670121Y-88466149D01*
X108669879Y-88742638D01*
X108775464Y-88998172D01*
X108970800Y-89193849D01*
X109081902Y-89239982D01*
X108971828Y-89285464D01*
X108776151Y-89480800D01*
X108670121Y-89736149D01*
X108669879Y-90012638D01*
X108775464Y-90268172D01*
X108970800Y-90463849D01*
X109081902Y-90509982D01*
X108971828Y-90555464D01*
X108776151Y-90750800D01*
X108670121Y-91006149D01*
X108669879Y-91282638D01*
X108775464Y-91538172D01*
X108970800Y-91733849D01*
X109081902Y-91779982D01*
X108971828Y-91825464D01*
X108776151Y-92020800D01*
X108670121Y-92276149D01*
X108669879Y-92552638D01*
X108775464Y-92808172D01*
X108970800Y-93003849D01*
X109226149Y-93109879D01*
X109502638Y-93110121D01*
X109758172Y-93004536D01*
X109953849Y-92809200D01*
X109999982Y-92698098D01*
X110045464Y-92808172D01*
X110240800Y-93003849D01*
X110496149Y-93109879D01*
X110772638Y-93110121D01*
X111028172Y-93004536D01*
X111223849Y-92809200D01*
X111301255Y-92622785D01*
X129379892Y-92622785D01*
X129474083Y-92850743D01*
X129623187Y-93000108D01*
X129474696Y-93148339D01*
X129380107Y-93376133D01*
X129379892Y-93622785D01*
X129474083Y-93850743D01*
X129623187Y-94000108D01*
X129474696Y-94148339D01*
X129380107Y-94376133D01*
X129379892Y-94622785D01*
X129474083Y-94850743D01*
X129623187Y-95000108D01*
X129474696Y-95148339D01*
X129380107Y-95376133D01*
X129379892Y-95622785D01*
X129474083Y-95850743D01*
X129648339Y-96025304D01*
X129876133Y-96119893D01*
X130122785Y-96120108D01*
X130350743Y-96025917D01*
X130500108Y-95876813D01*
X130648339Y-96025304D01*
X130876133Y-96119893D01*
X131122785Y-96120108D01*
X131350743Y-96025917D01*
X131500108Y-95876813D01*
X131648339Y-96025304D01*
X131876133Y-96119893D01*
X132122785Y-96120108D01*
X132350743Y-96025917D01*
X132525304Y-95851661D01*
X132619893Y-95623867D01*
X132620108Y-95377215D01*
X132525917Y-95149257D01*
X132376813Y-94999892D01*
X132525304Y-94851661D01*
X132619893Y-94623867D01*
X132620108Y-94377215D01*
X132525917Y-94149257D01*
X132376813Y-93999892D01*
X132525304Y-93851661D01*
X132619893Y-93623867D01*
X132620108Y-93377215D01*
X132525917Y-93149257D01*
X132376813Y-92999892D01*
X132525304Y-92851661D01*
X132619893Y-92623867D01*
X132619893Y-92622785D01*
X139379892Y-92622785D01*
X139474083Y-92850743D01*
X139623187Y-93000108D01*
X139474696Y-93148339D01*
X139380107Y-93376133D01*
X139379892Y-93622785D01*
X139474083Y-93850743D01*
X139623187Y-94000108D01*
X139474696Y-94148339D01*
X139380107Y-94376133D01*
X139379892Y-94622785D01*
X139474083Y-94850743D01*
X139623187Y-95000108D01*
X139474696Y-95148339D01*
X139380107Y-95376133D01*
X139379892Y-95622785D01*
X139474083Y-95850743D01*
X139648339Y-96025304D01*
X139876133Y-96119893D01*
X140122785Y-96120108D01*
X140350743Y-96025917D01*
X140500108Y-95876813D01*
X140648339Y-96025304D01*
X140876133Y-96119893D01*
X141122785Y-96120108D01*
X141350743Y-96025917D01*
X141500108Y-95876813D01*
X141648339Y-96025304D01*
X141876133Y-96119893D01*
X142122785Y-96120108D01*
X142350743Y-96025917D01*
X142525304Y-95851661D01*
X142619893Y-95623867D01*
X142620108Y-95377215D01*
X142525917Y-95149257D01*
X142376813Y-94999892D01*
X142525304Y-94851661D01*
X142619893Y-94623867D01*
X142620108Y-94377215D01*
X142525917Y-94149257D01*
X142376813Y-93999892D01*
X142525304Y-93851661D01*
X142619893Y-93623867D01*
X142620108Y-93377215D01*
X142525917Y-93149257D01*
X142376813Y-92999892D01*
X142525304Y-92851661D01*
X142619893Y-92623867D01*
X142619893Y-92622785D01*
X149379892Y-92622785D01*
X149474083Y-92850743D01*
X149623187Y-93000108D01*
X149474696Y-93148339D01*
X149380107Y-93376133D01*
X149379892Y-93622785D01*
X149474083Y-93850743D01*
X149623187Y-94000108D01*
X149474696Y-94148339D01*
X149380107Y-94376133D01*
X149379892Y-94622785D01*
X149474083Y-94850743D01*
X149623187Y-95000108D01*
X149474696Y-95148339D01*
X149380107Y-95376133D01*
X149379892Y-95622785D01*
X149474083Y-95850743D01*
X149648339Y-96025304D01*
X149876133Y-96119893D01*
X150122785Y-96120108D01*
X150350743Y-96025917D01*
X150500108Y-95876813D01*
X150648339Y-96025304D01*
X150876133Y-96119893D01*
X151122785Y-96120108D01*
X151350743Y-96025917D01*
X151500108Y-95876813D01*
X151648339Y-96025304D01*
X151876133Y-96119893D01*
X152122785Y-96120108D01*
X152350743Y-96025917D01*
X152525304Y-95851661D01*
X152619893Y-95623867D01*
X152620108Y-95377215D01*
X152525917Y-95149257D01*
X152376813Y-94999892D01*
X152525304Y-94851661D01*
X152619893Y-94623867D01*
X152620108Y-94377215D01*
X152525917Y-94149257D01*
X152376813Y-93999892D01*
X152525304Y-93851661D01*
X152619893Y-93623867D01*
X152620108Y-93377215D01*
X152525917Y-93149257D01*
X152376813Y-92999892D01*
X152525304Y-92851661D01*
X152619893Y-92623867D01*
X152619893Y-92622785D01*
X159379892Y-92622785D01*
X159474083Y-92850743D01*
X159623187Y-93000108D01*
X159474696Y-93148339D01*
X159380107Y-93376133D01*
X159379892Y-93622785D01*
X159474083Y-93850743D01*
X159623187Y-94000108D01*
X159474696Y-94148339D01*
X159380107Y-94376133D01*
X159379892Y-94622785D01*
X159474083Y-94850743D01*
X159623187Y-95000108D01*
X159474696Y-95148339D01*
X159380107Y-95376133D01*
X159379892Y-95622785D01*
X159474083Y-95850743D01*
X159648339Y-96025304D01*
X159876133Y-96119893D01*
X160122785Y-96120108D01*
X160350743Y-96025917D01*
X160500108Y-95876813D01*
X160648339Y-96025304D01*
X160876133Y-96119893D01*
X161122785Y-96120108D01*
X161350743Y-96025917D01*
X161500108Y-95876813D01*
X161648339Y-96025304D01*
X161876133Y-96119893D01*
X162122785Y-96120108D01*
X162350743Y-96025917D01*
X162525304Y-95851661D01*
X162619893Y-95623867D01*
X162620108Y-95377215D01*
X162525917Y-95149257D01*
X162376813Y-94999892D01*
X162525304Y-94851661D01*
X162619893Y-94623867D01*
X162620108Y-94377215D01*
X162525917Y-94149257D01*
X162376813Y-93999892D01*
X162525304Y-93851661D01*
X162619893Y-93623867D01*
X162620108Y-93377215D01*
X162525917Y-93149257D01*
X162376813Y-92999892D01*
X162525304Y-92851661D01*
X162619893Y-92623867D01*
X162620108Y-92377215D01*
X162525917Y-92149257D01*
X162351661Y-91974696D01*
X162123867Y-91880107D01*
X161877215Y-91879892D01*
X161649257Y-91974083D01*
X161499892Y-92123187D01*
X161351661Y-91974696D01*
X161123867Y-91880107D01*
X160877215Y-91879892D01*
X160649257Y-91974083D01*
X160499892Y-92123187D01*
X160351661Y-91974696D01*
X160123867Y-91880107D01*
X159877215Y-91879892D01*
X159649257Y-91974083D01*
X159474696Y-92148339D01*
X159380107Y-92376133D01*
X159379892Y-92622785D01*
X152619893Y-92622785D01*
X152620108Y-92377215D01*
X152525917Y-92149257D01*
X152351661Y-91974696D01*
X152123867Y-91880107D01*
X151877215Y-91879892D01*
X151649257Y-91974083D01*
X151499892Y-92123187D01*
X151351661Y-91974696D01*
X151123867Y-91880107D01*
X150877215Y-91879892D01*
X150649257Y-91974083D01*
X150499892Y-92123187D01*
X150351661Y-91974696D01*
X150123867Y-91880107D01*
X149877215Y-91879892D01*
X149649257Y-91974083D01*
X149474696Y-92148339D01*
X149380107Y-92376133D01*
X149379892Y-92622785D01*
X142619893Y-92622785D01*
X142620108Y-92377215D01*
X142525917Y-92149257D01*
X142351661Y-91974696D01*
X142123867Y-91880107D01*
X141877215Y-91879892D01*
X141649257Y-91974083D01*
X141499892Y-92123187D01*
X141351661Y-91974696D01*
X141123867Y-91880107D01*
X140877215Y-91879892D01*
X140649257Y-91974083D01*
X140499892Y-92123187D01*
X140351661Y-91974696D01*
X140123867Y-91880107D01*
X139877215Y-91879892D01*
X139649257Y-91974083D01*
X139474696Y-92148339D01*
X139380107Y-92376133D01*
X139379892Y-92622785D01*
X132619893Y-92622785D01*
X132620108Y-92377215D01*
X132525917Y-92149257D01*
X132351661Y-91974696D01*
X132123867Y-91880107D01*
X131877215Y-91879892D01*
X131649257Y-91974083D01*
X131499892Y-92123187D01*
X131351661Y-91974696D01*
X131123867Y-91880107D01*
X130877215Y-91879892D01*
X130649257Y-91974083D01*
X130499892Y-92123187D01*
X130351661Y-91974696D01*
X130123867Y-91880107D01*
X129877215Y-91879892D01*
X129649257Y-91974083D01*
X129474696Y-92148339D01*
X129380107Y-92376133D01*
X129379892Y-92622785D01*
X111301255Y-92622785D01*
X111329879Y-92553851D01*
X111330121Y-92277362D01*
X111224536Y-92021828D01*
X111029200Y-91826151D01*
X110918098Y-91780018D01*
X111028172Y-91734536D01*
X111223849Y-91539200D01*
X111329879Y-91283851D01*
X111330121Y-91007362D01*
X111224536Y-90751828D01*
X111029200Y-90556151D01*
X110918098Y-90510018D01*
X111028172Y-90464536D01*
X111223849Y-90269200D01*
X111329879Y-90013851D01*
X111330046Y-89822785D01*
X123079892Y-89822785D01*
X123174083Y-90050743D01*
X123348339Y-90225304D01*
X123576133Y-90319893D01*
X123822785Y-90320108D01*
X123997818Y-90247785D01*
X132154892Y-90247785D01*
X132249083Y-90475743D01*
X132423339Y-90650304D01*
X132651133Y-90744893D01*
X132897785Y-90745108D01*
X133125743Y-90650917D01*
X133300304Y-90476661D01*
X133394893Y-90248867D01*
X133395108Y-90002215D01*
X133300917Y-89774257D01*
X133126661Y-89599696D01*
X132898867Y-89505107D01*
X132652215Y-89504892D01*
X132424257Y-89599083D01*
X132249696Y-89773339D01*
X132155107Y-90001133D01*
X132154892Y-90247785D01*
X123997818Y-90247785D01*
X124050743Y-90225917D01*
X124225304Y-90051661D01*
X124319893Y-89823867D01*
X124320108Y-89577215D01*
X124225917Y-89349257D01*
X124074710Y-89197785D01*
X141854892Y-89197785D01*
X141949083Y-89425743D01*
X142123339Y-89600304D01*
X142351133Y-89694893D01*
X142597785Y-89695108D01*
X142825743Y-89600917D01*
X143000304Y-89426661D01*
X143094893Y-89198867D01*
X143094937Y-89147785D01*
X151879892Y-89147785D01*
X151974083Y-89375743D01*
X152148339Y-89550304D01*
X152376133Y-89644893D01*
X152622785Y-89645108D01*
X152850743Y-89550917D01*
X153025304Y-89376661D01*
X153099580Y-89197785D01*
X161804892Y-89197785D01*
X161899083Y-89425743D01*
X162073339Y-89600304D01*
X162301133Y-89694893D01*
X162547785Y-89695108D01*
X162775743Y-89600917D01*
X162950304Y-89426661D01*
X163044893Y-89198867D01*
X163045108Y-88952215D01*
X162950917Y-88724257D01*
X162776661Y-88549696D01*
X162548867Y-88455107D01*
X162302215Y-88454892D01*
X162074257Y-88549083D01*
X161899696Y-88723339D01*
X161805107Y-88951133D01*
X161804892Y-89197785D01*
X153099580Y-89197785D01*
X153119893Y-89148867D01*
X153120108Y-88902215D01*
X153025917Y-88674257D01*
X152851661Y-88499696D01*
X152623867Y-88405107D01*
X152377215Y-88404892D01*
X152149257Y-88499083D01*
X151974696Y-88673339D01*
X151880107Y-88901133D01*
X151879892Y-89147785D01*
X143094937Y-89147785D01*
X143095108Y-88952215D01*
X143000917Y-88724257D01*
X142826661Y-88549696D01*
X142598867Y-88455107D01*
X142352215Y-88454892D01*
X142124257Y-88549083D01*
X141949696Y-88723339D01*
X141855107Y-88951133D01*
X141854892Y-89197785D01*
X124074710Y-89197785D01*
X124051661Y-89174696D01*
X123823867Y-89080107D01*
X123577215Y-89079892D01*
X123349257Y-89174083D01*
X123174696Y-89348339D01*
X123080107Y-89576133D01*
X123079892Y-89822785D01*
X111330046Y-89822785D01*
X111330121Y-89737362D01*
X111224536Y-89481828D01*
X111029200Y-89286151D01*
X110918098Y-89240018D01*
X111028172Y-89194536D01*
X111223849Y-88999200D01*
X111329879Y-88743851D01*
X111330121Y-88467362D01*
X111224536Y-88211828D01*
X111029200Y-88016151D01*
X110918098Y-87970018D01*
X111028172Y-87924536D01*
X111223849Y-87729200D01*
X111226512Y-87722785D01*
X117779892Y-87722785D01*
X117874083Y-87950743D01*
X118048339Y-88125304D01*
X118276133Y-88219893D01*
X118522785Y-88220108D01*
X118750743Y-88125917D01*
X118925304Y-87951661D01*
X119019893Y-87723867D01*
X119020108Y-87477215D01*
X118925917Y-87249257D01*
X118751661Y-87074696D01*
X118523867Y-86980107D01*
X118277215Y-86979892D01*
X118049257Y-87074083D01*
X117874696Y-87248339D01*
X117780107Y-87476133D01*
X117779892Y-87722785D01*
X111226512Y-87722785D01*
X111329879Y-87473851D01*
X111330121Y-87197362D01*
X111224536Y-86941828D01*
X111029200Y-86746151D01*
X110918098Y-86700018D01*
X111028172Y-86654536D01*
X111223849Y-86459200D01*
X111329879Y-86203851D01*
X111330121Y-85927362D01*
X111286911Y-85822785D01*
X123104892Y-85822785D01*
X123199083Y-86050743D01*
X123373339Y-86225304D01*
X123601133Y-86319893D01*
X123847785Y-86320108D01*
X124075743Y-86225917D01*
X124250304Y-86051661D01*
X124344893Y-85823867D01*
X124345108Y-85577215D01*
X124250917Y-85349257D01*
X124076661Y-85174696D01*
X123848867Y-85080107D01*
X123602215Y-85079892D01*
X123374257Y-85174083D01*
X123199696Y-85348339D01*
X123105107Y-85576133D01*
X123104892Y-85822785D01*
X111286911Y-85822785D01*
X111224536Y-85671828D01*
X111029200Y-85476151D01*
X110918098Y-85430018D01*
X111028172Y-85384536D01*
X111223849Y-85189200D01*
X111329879Y-84933851D01*
X111330121Y-84657362D01*
X111224536Y-84401828D01*
X111029200Y-84206151D01*
X110948845Y-84172785D01*
X117604892Y-84172785D01*
X117699083Y-84400743D01*
X117873339Y-84575304D01*
X118101133Y-84669893D01*
X118347785Y-84670108D01*
X118575743Y-84575917D01*
X118750304Y-84401661D01*
X118844893Y-84173867D01*
X118845108Y-83927215D01*
X118750917Y-83699257D01*
X118576661Y-83524696D01*
X118348867Y-83430107D01*
X118102215Y-83429892D01*
X117874257Y-83524083D01*
X117699696Y-83698339D01*
X117605107Y-83926133D01*
X117604892Y-84172785D01*
X110948845Y-84172785D01*
X110918098Y-84160018D01*
X111028172Y-84114536D01*
X111223849Y-83919200D01*
X111329879Y-83663851D01*
X111330121Y-83387362D01*
X111224536Y-83131828D01*
X111029200Y-82936151D01*
X110918098Y-82890018D01*
X111028172Y-82844536D01*
X111223849Y-82649200D01*
X111328245Y-82397785D01*
X114779892Y-82397785D01*
X114874083Y-82625743D01*
X115048339Y-82800304D01*
X115276133Y-82894893D01*
X115522785Y-82895108D01*
X115750743Y-82800917D01*
X115925304Y-82626661D01*
X115926913Y-82622785D01*
X120279892Y-82622785D01*
X120374083Y-82850743D01*
X120548339Y-83025304D01*
X120776133Y-83119893D01*
X121022785Y-83120108D01*
X121250743Y-83025917D01*
X121425304Y-82851661D01*
X121519893Y-82623867D01*
X121519893Y-82622785D01*
X121879892Y-82622785D01*
X121974083Y-82850743D01*
X122148339Y-83025304D01*
X122376133Y-83119893D01*
X122622785Y-83120108D01*
X122850743Y-83025917D01*
X123025304Y-82851661D01*
X123119893Y-82623867D01*
X123120108Y-82377215D01*
X123025917Y-82149257D01*
X122851661Y-81974696D01*
X122623867Y-81880107D01*
X122377215Y-81879892D01*
X122149257Y-81974083D01*
X121974696Y-82148339D01*
X121880107Y-82376133D01*
X121879892Y-82622785D01*
X121519893Y-82622785D01*
X121520108Y-82377215D01*
X121425917Y-82149257D01*
X121251661Y-81974696D01*
X121023867Y-81880107D01*
X120777215Y-81879892D01*
X120549257Y-81974083D01*
X120374696Y-82148339D01*
X120280107Y-82376133D01*
X120279892Y-82622785D01*
X115926913Y-82622785D01*
X116019893Y-82398867D01*
X116020108Y-82152215D01*
X115925917Y-81924257D01*
X115751661Y-81749696D01*
X115523867Y-81655107D01*
X115277215Y-81654892D01*
X115049257Y-81749083D01*
X114874696Y-81923339D01*
X114780107Y-82151133D01*
X114779892Y-82397785D01*
X111328245Y-82397785D01*
X111329879Y-82393851D01*
X111330121Y-82117362D01*
X111224536Y-81861828D01*
X111029200Y-81666151D01*
X110918098Y-81620018D01*
X111028172Y-81574536D01*
X111223849Y-81379200D01*
X111329879Y-81123851D01*
X111330121Y-80847362D01*
X111224536Y-80591828D01*
X111029200Y-80396151D01*
X110773851Y-80290121D01*
X110497362Y-80289879D01*
X110241828Y-80395464D01*
X110046151Y-80590800D01*
X110000018Y-80701902D01*
X109954536Y-80591828D01*
X109759200Y-80396151D01*
X109503851Y-80290121D01*
X109227362Y-80289879D01*
X108971828Y-80395464D01*
X108776151Y-80590800D01*
X108670121Y-80846149D01*
X108669879Y-81122638D01*
X103395000Y-81122638D01*
X103395000Y-79722785D01*
X113279892Y-79722785D01*
X113374083Y-79950743D01*
X113548339Y-80125304D01*
X113776133Y-80219893D01*
X114022785Y-80220108D01*
X114250743Y-80125917D01*
X114253880Y-80122785D01*
X129379892Y-80122785D01*
X129474083Y-80350743D01*
X129623187Y-80500108D01*
X129474696Y-80648339D01*
X129380107Y-80876133D01*
X129379892Y-81122785D01*
X129474083Y-81350743D01*
X129623187Y-81500108D01*
X129474696Y-81648339D01*
X129380107Y-81876133D01*
X129379892Y-82122785D01*
X129474083Y-82350743D01*
X129623187Y-82500108D01*
X129474696Y-82648339D01*
X129380107Y-82876133D01*
X129379892Y-83122785D01*
X129474083Y-83350743D01*
X129648339Y-83525304D01*
X129876133Y-83619893D01*
X130122785Y-83620108D01*
X130350743Y-83525917D01*
X130500108Y-83376813D01*
X130648339Y-83525304D01*
X130876133Y-83619893D01*
X131122785Y-83620108D01*
X131350743Y-83525917D01*
X131500108Y-83376813D01*
X131648339Y-83525304D01*
X131876133Y-83619893D01*
X132122785Y-83620108D01*
X132350743Y-83525917D01*
X132525304Y-83351661D01*
X132619893Y-83123867D01*
X132620108Y-82877215D01*
X132525917Y-82649257D01*
X132376813Y-82499892D01*
X132525304Y-82351661D01*
X132619893Y-82123867D01*
X132620108Y-81877215D01*
X132525917Y-81649257D01*
X132376813Y-81499892D01*
X132525304Y-81351661D01*
X132619893Y-81123867D01*
X132620108Y-80877215D01*
X132525917Y-80649257D01*
X132376813Y-80499892D01*
X132525304Y-80351661D01*
X132619893Y-80123867D01*
X132619893Y-80122785D01*
X139379892Y-80122785D01*
X139474083Y-80350743D01*
X139623187Y-80500108D01*
X139474696Y-80648339D01*
X139380107Y-80876133D01*
X139379892Y-81122785D01*
X139474083Y-81350743D01*
X139623187Y-81500108D01*
X139474696Y-81648339D01*
X139380107Y-81876133D01*
X139379892Y-82122785D01*
X139474083Y-82350743D01*
X139623187Y-82500108D01*
X139474696Y-82648339D01*
X139380107Y-82876133D01*
X139379892Y-83122785D01*
X139474083Y-83350743D01*
X139648339Y-83525304D01*
X139876133Y-83619893D01*
X140122785Y-83620108D01*
X140350743Y-83525917D01*
X140500108Y-83376813D01*
X140648339Y-83525304D01*
X140876133Y-83619893D01*
X141122785Y-83620108D01*
X141350743Y-83525917D01*
X141500108Y-83376813D01*
X141648339Y-83525304D01*
X141876133Y-83619893D01*
X142122785Y-83620108D01*
X142350743Y-83525917D01*
X142525304Y-83351661D01*
X142619893Y-83123867D01*
X142620108Y-82877215D01*
X142525917Y-82649257D01*
X142376813Y-82499892D01*
X142525304Y-82351661D01*
X142619893Y-82123867D01*
X142620108Y-81877215D01*
X142525917Y-81649257D01*
X142376813Y-81499892D01*
X142525304Y-81351661D01*
X142619893Y-81123867D01*
X142620108Y-80877215D01*
X142525917Y-80649257D01*
X142376813Y-80499892D01*
X142525304Y-80351661D01*
X142619893Y-80123867D01*
X142619893Y-80122785D01*
X149379892Y-80122785D01*
X149474083Y-80350743D01*
X149623187Y-80500108D01*
X149474696Y-80648339D01*
X149380107Y-80876133D01*
X149379892Y-81122785D01*
X149474083Y-81350743D01*
X149623187Y-81500108D01*
X149474696Y-81648339D01*
X149380107Y-81876133D01*
X149379892Y-82122785D01*
X149474083Y-82350743D01*
X149623187Y-82500108D01*
X149474696Y-82648339D01*
X149380107Y-82876133D01*
X149379892Y-83122785D01*
X149474083Y-83350743D01*
X149648339Y-83525304D01*
X149876133Y-83619893D01*
X150122785Y-83620108D01*
X150350743Y-83525917D01*
X150500108Y-83376813D01*
X150648339Y-83525304D01*
X150876133Y-83619893D01*
X151122785Y-83620108D01*
X151350743Y-83525917D01*
X151500108Y-83376813D01*
X151648339Y-83525304D01*
X151876133Y-83619893D01*
X152122785Y-83620108D01*
X152350743Y-83525917D01*
X152525304Y-83351661D01*
X152619893Y-83123867D01*
X152620108Y-82877215D01*
X152525917Y-82649257D01*
X152376813Y-82499892D01*
X152525304Y-82351661D01*
X152619893Y-82123867D01*
X152620108Y-81877215D01*
X152525917Y-81649257D01*
X152376813Y-81499892D01*
X152525304Y-81351661D01*
X152619893Y-81123867D01*
X152620108Y-80877215D01*
X152525917Y-80649257D01*
X152376813Y-80499892D01*
X152525304Y-80351661D01*
X152619893Y-80123867D01*
X152619893Y-80122785D01*
X159379892Y-80122785D01*
X159474083Y-80350743D01*
X159623187Y-80500108D01*
X159474696Y-80648339D01*
X159380107Y-80876133D01*
X159379892Y-81122785D01*
X159474083Y-81350743D01*
X159623187Y-81500108D01*
X159474696Y-81648339D01*
X159380107Y-81876133D01*
X159379892Y-82122785D01*
X159474083Y-82350743D01*
X159623187Y-82500108D01*
X159474696Y-82648339D01*
X159380107Y-82876133D01*
X159379892Y-83122785D01*
X159474083Y-83350743D01*
X159648339Y-83525304D01*
X159876133Y-83619893D01*
X160122785Y-83620108D01*
X160350743Y-83525917D01*
X160500108Y-83376813D01*
X160648339Y-83525304D01*
X160876133Y-83619893D01*
X161122785Y-83620108D01*
X161350743Y-83525917D01*
X161500108Y-83376813D01*
X161648339Y-83525304D01*
X161876133Y-83619893D01*
X162122785Y-83620108D01*
X162350743Y-83525917D01*
X162525304Y-83351661D01*
X162619893Y-83123867D01*
X162620108Y-82877215D01*
X162525917Y-82649257D01*
X162376813Y-82499892D01*
X162525304Y-82351661D01*
X162619893Y-82123867D01*
X162620108Y-81877215D01*
X162525917Y-81649257D01*
X162376813Y-81499892D01*
X162525304Y-81351661D01*
X162619893Y-81123867D01*
X162620108Y-80877215D01*
X162525917Y-80649257D01*
X162376813Y-80499892D01*
X162525304Y-80351661D01*
X162619893Y-80123867D01*
X162620108Y-79877215D01*
X162525917Y-79649257D01*
X162351661Y-79474696D01*
X162123867Y-79380107D01*
X161877215Y-79379892D01*
X161649257Y-79474083D01*
X161499892Y-79623187D01*
X161351661Y-79474696D01*
X161123867Y-79380107D01*
X160877215Y-79379892D01*
X160649257Y-79474083D01*
X160499892Y-79623187D01*
X160351661Y-79474696D01*
X160123867Y-79380107D01*
X159877215Y-79379892D01*
X159649257Y-79474083D01*
X159474696Y-79648339D01*
X159380107Y-79876133D01*
X159379892Y-80122785D01*
X152619893Y-80122785D01*
X152620108Y-79877215D01*
X152525917Y-79649257D01*
X152351661Y-79474696D01*
X152123867Y-79380107D01*
X151877215Y-79379892D01*
X151649257Y-79474083D01*
X151499892Y-79623187D01*
X151351661Y-79474696D01*
X151123867Y-79380107D01*
X150877215Y-79379892D01*
X150649257Y-79474083D01*
X150499892Y-79623187D01*
X150351661Y-79474696D01*
X150123867Y-79380107D01*
X149877215Y-79379892D01*
X149649257Y-79474083D01*
X149474696Y-79648339D01*
X149380107Y-79876133D01*
X149379892Y-80122785D01*
X142619893Y-80122785D01*
X142620108Y-79877215D01*
X142525917Y-79649257D01*
X142351661Y-79474696D01*
X142123867Y-79380107D01*
X141877215Y-79379892D01*
X141649257Y-79474083D01*
X141499892Y-79623187D01*
X141351661Y-79474696D01*
X141123867Y-79380107D01*
X140877215Y-79379892D01*
X140649257Y-79474083D01*
X140499892Y-79623187D01*
X140351661Y-79474696D01*
X140123867Y-79380107D01*
X139877215Y-79379892D01*
X139649257Y-79474083D01*
X139474696Y-79648339D01*
X139380107Y-79876133D01*
X139379892Y-80122785D01*
X132619893Y-80122785D01*
X132620108Y-79877215D01*
X132525917Y-79649257D01*
X132351661Y-79474696D01*
X132123867Y-79380107D01*
X131877215Y-79379892D01*
X131649257Y-79474083D01*
X131499892Y-79623187D01*
X131351661Y-79474696D01*
X131123867Y-79380107D01*
X130877215Y-79379892D01*
X130649257Y-79474083D01*
X130499892Y-79623187D01*
X130351661Y-79474696D01*
X130123867Y-79380107D01*
X129877215Y-79379892D01*
X129649257Y-79474083D01*
X129474696Y-79648339D01*
X129380107Y-79876133D01*
X129379892Y-80122785D01*
X114253880Y-80122785D01*
X114425304Y-79951661D01*
X114519893Y-79723867D01*
X114519981Y-79622785D01*
X115779892Y-79622785D01*
X115874083Y-79850743D01*
X116048339Y-80025304D01*
X116276133Y-80119893D01*
X116522785Y-80120108D01*
X116750743Y-80025917D01*
X116925304Y-79851661D01*
X117019893Y-79623867D01*
X117020108Y-79377215D01*
X116925917Y-79149257D01*
X116751661Y-78974696D01*
X116523867Y-78880107D01*
X116277215Y-78879892D01*
X116049257Y-78974083D01*
X115874696Y-79148339D01*
X115780107Y-79376133D01*
X115779892Y-79622785D01*
X114519981Y-79622785D01*
X114520108Y-79477215D01*
X114425917Y-79249257D01*
X114251661Y-79074696D01*
X114023867Y-78980107D01*
X113777215Y-78979892D01*
X113549257Y-79074083D01*
X113374696Y-79248339D01*
X113280107Y-79476133D01*
X113279892Y-79722785D01*
X103395000Y-79722785D01*
X103395000Y-78022785D01*
X114479892Y-78022785D01*
X114574083Y-78250743D01*
X114748339Y-78425304D01*
X114976133Y-78519893D01*
X115222785Y-78520108D01*
X115450743Y-78425917D01*
X115625304Y-78251661D01*
X115719893Y-78023867D01*
X115720108Y-77777215D01*
X115625917Y-77549257D01*
X115451661Y-77374696D01*
X115223867Y-77280107D01*
X114977215Y-77279892D01*
X114749257Y-77374083D01*
X114574696Y-77548339D01*
X114480107Y-77776133D01*
X114479892Y-78022785D01*
X103395000Y-78022785D01*
X103395000Y-77222785D01*
X117079892Y-77222785D01*
X117174083Y-77450743D01*
X117348339Y-77625304D01*
X117576133Y-77719893D01*
X117822785Y-77720108D01*
X118050743Y-77625917D01*
X118225304Y-77451661D01*
X118304302Y-77261412D01*
X130979772Y-77261412D01*
X131180306Y-77746743D01*
X131551304Y-78118389D01*
X132036284Y-78319770D01*
X132561412Y-78320228D01*
X133046743Y-78119694D01*
X133418389Y-77748696D01*
X133619770Y-77263716D01*
X133619772Y-77261412D01*
X140979772Y-77261412D01*
X141180306Y-77746743D01*
X141551304Y-78118389D01*
X142036284Y-78319770D01*
X142561412Y-78320228D01*
X143046743Y-78119694D01*
X143418389Y-77748696D01*
X143619770Y-77263716D01*
X143619772Y-77261412D01*
X150979772Y-77261412D01*
X151180306Y-77746743D01*
X151551304Y-78118389D01*
X152036284Y-78319770D01*
X152561412Y-78320228D01*
X153046743Y-78119694D01*
X153418389Y-77748696D01*
X153619770Y-77263716D01*
X153619772Y-77261412D01*
X160979772Y-77261412D01*
X161180306Y-77746743D01*
X161551304Y-78118389D01*
X162036284Y-78319770D01*
X162561412Y-78320228D01*
X163046743Y-78119694D01*
X163418389Y-77748696D01*
X163619770Y-77263716D01*
X163620228Y-76738588D01*
X163419694Y-76253257D01*
X163048696Y-75881611D01*
X162563716Y-75680230D01*
X162038588Y-75679772D01*
X161553257Y-75880306D01*
X161181611Y-76251304D01*
X160980230Y-76736284D01*
X160979772Y-77261412D01*
X153619772Y-77261412D01*
X153620228Y-76738588D01*
X153419694Y-76253257D01*
X153048696Y-75881611D01*
X152563716Y-75680230D01*
X152038588Y-75679772D01*
X151553257Y-75880306D01*
X151181611Y-76251304D01*
X150980230Y-76736284D01*
X150979772Y-77261412D01*
X143619772Y-77261412D01*
X143620228Y-76738588D01*
X143419694Y-76253257D01*
X143048696Y-75881611D01*
X142563716Y-75680230D01*
X142038588Y-75679772D01*
X141553257Y-75880306D01*
X141181611Y-76251304D01*
X140980230Y-76736284D01*
X140979772Y-77261412D01*
X133619772Y-77261412D01*
X133620228Y-76738588D01*
X133419694Y-76253257D01*
X133048696Y-75881611D01*
X132563716Y-75680230D01*
X132038588Y-75679772D01*
X131553257Y-75880306D01*
X131181611Y-76251304D01*
X130980230Y-76736284D01*
X130979772Y-77261412D01*
X118304302Y-77261412D01*
X118319893Y-77223867D01*
X118320108Y-76977215D01*
X118225917Y-76749257D01*
X118099666Y-76622785D01*
X119579892Y-76622785D01*
X119674083Y-76850743D01*
X119848339Y-77025304D01*
X120076133Y-77119893D01*
X120322785Y-77120108D01*
X120550743Y-77025917D01*
X120725304Y-76851661D01*
X120819893Y-76623867D01*
X120820108Y-76377215D01*
X120725917Y-76149257D01*
X120599666Y-76022785D01*
X122079892Y-76022785D01*
X122174083Y-76250743D01*
X122348339Y-76425304D01*
X122576133Y-76519893D01*
X122822785Y-76520108D01*
X123050743Y-76425917D01*
X123225304Y-76251661D01*
X123319893Y-76023867D01*
X123320108Y-75777215D01*
X123225917Y-75549257D01*
X123051661Y-75374696D01*
X122823867Y-75280107D01*
X122577215Y-75279892D01*
X122349257Y-75374083D01*
X122174696Y-75548339D01*
X122080107Y-75776133D01*
X122079892Y-76022785D01*
X120599666Y-76022785D01*
X120551661Y-75974696D01*
X120323867Y-75880107D01*
X120077215Y-75879892D01*
X119849257Y-75974083D01*
X119674696Y-76148339D01*
X119580107Y-76376133D01*
X119579892Y-76622785D01*
X118099666Y-76622785D01*
X118051661Y-76574696D01*
X117823867Y-76480107D01*
X117577215Y-76479892D01*
X117349257Y-76574083D01*
X117174696Y-76748339D01*
X117080107Y-76976133D01*
X117079892Y-77222785D01*
X103395000Y-77222785D01*
X103395000Y-71320824D01*
X104379719Y-71320824D01*
X104625830Y-71916458D01*
X105081145Y-72372569D01*
X105676348Y-72619718D01*
X106320824Y-72620281D01*
X106916458Y-72374170D01*
X107372569Y-71918855D01*
X107619718Y-71323652D01*
X107619720Y-71320824D01*
X167379719Y-71320824D01*
X167625830Y-71916458D01*
X168081145Y-72372569D01*
X168676348Y-72619718D01*
X169320824Y-72620281D01*
X169916458Y-72374170D01*
X170372569Y-71918855D01*
X170619718Y-71323652D01*
X170620281Y-70679176D01*
X170374170Y-70083542D01*
X169918855Y-69627431D01*
X169323652Y-69380282D01*
X168679176Y-69379719D01*
X168083542Y-69625830D01*
X167627431Y-70081145D01*
X167380282Y-70676348D01*
X167379719Y-71320824D01*
X107619720Y-71320824D01*
X107620281Y-70679176D01*
X107374170Y-70083542D01*
X106918855Y-69627431D01*
X106323652Y-69380282D01*
X105679176Y-69379719D01*
X105083542Y-69625830D01*
X104627431Y-70081145D01*
X104380282Y-70676348D01*
X104379719Y-71320824D01*
X103395000Y-71320824D01*
X103395000Y-70038904D01*
X103524323Y-69388755D01*
X103870565Y-68870565D01*
X104388755Y-68524323D01*
X105038903Y-68395000D01*
X169961096Y-68395000D01*
X170611245Y-68524323D01*
X170611245Y-68524323D01*
G37*
X170611245Y-68524323D02*
X171129435Y-68870565D01*
X171475677Y-69388755D01*
X171605000Y-70038903D01*
X171605000Y-104561097D01*
X171475677Y-105211245D01*
X171129435Y-105729435D01*
X170611245Y-106075677D01*
X169961096Y-106205000D01*
X105038903Y-106205000D01*
X104388755Y-106075677D01*
X103870565Y-105729435D01*
X103524323Y-105211245D01*
X103395000Y-104561096D01*
X103395000Y-103920824D01*
X104379719Y-103920824D01*
X104625830Y-104516458D01*
X105081145Y-104972569D01*
X105676348Y-105219718D01*
X106320824Y-105220281D01*
X106916458Y-104974170D01*
X107372569Y-104518855D01*
X107619718Y-103923652D01*
X107619720Y-103920824D01*
X167379719Y-103920824D01*
X167625830Y-104516458D01*
X168081145Y-104972569D01*
X168676348Y-105219718D01*
X169320824Y-105220281D01*
X169916458Y-104974170D01*
X170372569Y-104518855D01*
X170619718Y-103923652D01*
X170620281Y-103279176D01*
X170374170Y-102683542D01*
X169918855Y-102227431D01*
X169323652Y-101980282D01*
X168679176Y-101979719D01*
X168083542Y-102225830D01*
X167627431Y-102681145D01*
X167380282Y-103276348D01*
X167379719Y-103920824D01*
X107619720Y-103920824D01*
X107620281Y-103279176D01*
X107374170Y-102683542D01*
X106918855Y-102227431D01*
X106323652Y-101980282D01*
X105679176Y-101979719D01*
X105083542Y-102225830D01*
X104627431Y-102681145D01*
X104380282Y-103276348D01*
X104379719Y-103920824D01*
X103395000Y-103920824D01*
X103395000Y-97814279D01*
X119017812Y-97814279D01*
X119182190Y-98212103D01*
X119486296Y-98516740D01*
X119883833Y-98681812D01*
X120314279Y-98682188D01*
X120712103Y-98517810D01*
X121016740Y-98213704D01*
X121163024Y-97861412D01*
X130979772Y-97861412D01*
X131180306Y-98346743D01*
X131551304Y-98718389D01*
X132036284Y-98919770D01*
X132561412Y-98920228D01*
X133046743Y-98719694D01*
X133418389Y-98348696D01*
X133619770Y-97863716D01*
X133619772Y-97861412D01*
X140979772Y-97861412D01*
X141180306Y-98346743D01*
X141551304Y-98718389D01*
X142036284Y-98919770D01*
X142561412Y-98920228D01*
X143046743Y-98719694D01*
X143418389Y-98348696D01*
X143619770Y-97863716D01*
X143619772Y-97861412D01*
X150979772Y-97861412D01*
X151180306Y-98346743D01*
X151551304Y-98718389D01*
X152036284Y-98919770D01*
X152561412Y-98920228D01*
X153046743Y-98719694D01*
X153418389Y-98348696D01*
X153619770Y-97863716D01*
X153619772Y-97861412D01*
X160979772Y-97861412D01*
X161180306Y-98346743D01*
X161551304Y-98718389D01*
X162036284Y-98919770D01*
X162561412Y-98920228D01*
X163046743Y-98719694D01*
X163418389Y-98348696D01*
X163619770Y-97863716D01*
X163620228Y-97338588D01*
X163419694Y-96853257D01*
X163048696Y-96481611D01*
X162563716Y-96280230D01*
X162038588Y-96279772D01*
X161553257Y-96480306D01*
X161181611Y-96851304D01*
X160980230Y-97336284D01*
X160979772Y-97861412D01*
X153619772Y-97861412D01*
X153620228Y-97338588D01*
X153419694Y-96853257D01*
X153048696Y-96481611D01*
X152563716Y-96280230D01*
X152038588Y-96279772D01*
X151553257Y-96480306D01*
X151181611Y-96851304D01*
X150980230Y-97336284D01*
X150979772Y-97861412D01*
X143619772Y-97861412D01*
X143620228Y-97338588D01*
X143419694Y-96853257D01*
X143048696Y-96481611D01*
X142563716Y-96280230D01*
X142038588Y-96279772D01*
X141553257Y-96480306D01*
X141181611Y-96851304D01*
X140980230Y-97336284D01*
X140979772Y-97861412D01*
X133619772Y-97861412D01*
X133620228Y-97338588D01*
X133419694Y-96853257D01*
X133048696Y-96481611D01*
X132563716Y-96280230D01*
X132038588Y-96279772D01*
X131553257Y-96480306D01*
X131181611Y-96851304D01*
X130980230Y-97336284D01*
X130979772Y-97861412D01*
X121163024Y-97861412D01*
X121181812Y-97816167D01*
X121182188Y-97385721D01*
X121017810Y-96987897D01*
X120713704Y-96683260D01*
X120316167Y-96518188D01*
X119885721Y-96517812D01*
X119487897Y-96682190D01*
X119183260Y-96986296D01*
X119018188Y-97383833D01*
X119017812Y-97814279D01*
X103395000Y-97814279D01*
X103395000Y-95274279D01*
X119017812Y-95274279D01*
X119182190Y-95672103D01*
X119486296Y-95976740D01*
X119883833Y-96141812D01*
X120314279Y-96142188D01*
X120712103Y-95977810D01*
X121016740Y-95673704D01*
X121181812Y-95276167D01*
X121182188Y-94845721D01*
X121017810Y-94447897D01*
X120713704Y-94143260D01*
X120316167Y-93978188D01*
X119885721Y-93977812D01*
X119487897Y-94142190D01*
X119183260Y-94446296D01*
X119018188Y-94843833D01*
X119017812Y-95274279D01*
X103395000Y-95274279D01*
X103395000Y-81122638D01*
X108669879Y-81122638D01*
X108775464Y-81378172D01*
X108970800Y-81573849D01*
X109081902Y-81619982D01*
X108971828Y-81665464D01*
X108776151Y-81860800D01*
X108670121Y-82116149D01*
X108669879Y-82392638D01*
X108775464Y-82648172D01*
X108970800Y-82843849D01*
X109081902Y-82889982D01*
X108971828Y-82935464D01*
X108776151Y-83130800D01*
X108670121Y-83386149D01*
X108669879Y-83662638D01*
X108775464Y-83918172D01*
X108970800Y-84113849D01*
X109081902Y-84159982D01*
X108971828Y-84205464D01*
X108776151Y-84400800D01*
X108670121Y-84656149D01*
X108669879Y-84932638D01*
X108775464Y-85188172D01*
X108970800Y-85383849D01*
X109081902Y-85429982D01*
X108971828Y-85475464D01*
X108776151Y-85670800D01*
X108670121Y-85926149D01*
X108669879Y-86202638D01*
X108775464Y-86458172D01*
X108970800Y-86653849D01*
X109081902Y-86699982D01*
X108971828Y-86745464D01*
X108776151Y-86940800D01*
X108670121Y-87196149D01*
X108669879Y-87472638D01*
X108775464Y-87728172D01*
X108970800Y-87923849D01*
X109081902Y-87969982D01*
X108971828Y-88015464D01*
X108776151Y-88210800D01*
X108670121Y-88466149D01*
X108669879Y-88742638D01*
X108775464Y-88998172D01*
X108970800Y-89193849D01*
X109081902Y-89239982D01*
X108971828Y-89285464D01*
X108776151Y-89480800D01*
X108670121Y-89736149D01*
X108669879Y-90012638D01*
X108775464Y-90268172D01*
X108970800Y-90463849D01*
X109081902Y-90509982D01*
X108971828Y-90555464D01*
X108776151Y-90750800D01*
X108670121Y-91006149D01*
X108669879Y-91282638D01*
X108775464Y-91538172D01*
X108970800Y-91733849D01*
X109081902Y-91779982D01*
X108971828Y-91825464D01*
X108776151Y-92020800D01*
X108670121Y-92276149D01*
X108669879Y-92552638D01*
X108775464Y-92808172D01*
X108970800Y-93003849D01*
X109226149Y-93109879D01*
X109502638Y-93110121D01*
X109758172Y-93004536D01*
X109953849Y-92809200D01*
X109999982Y-92698098D01*
X110045464Y-92808172D01*
X110240800Y-93003849D01*
X110496149Y-93109879D01*
X110772638Y-93110121D01*
X111028172Y-93004536D01*
X111223849Y-92809200D01*
X111301255Y-92622785D01*
X129379892Y-92622785D01*
X129474083Y-92850743D01*
X129623187Y-93000108D01*
X129474696Y-93148339D01*
X129380107Y-93376133D01*
X129379892Y-93622785D01*
X129474083Y-93850743D01*
X129623187Y-94000108D01*
X129474696Y-94148339D01*
X129380107Y-94376133D01*
X129379892Y-94622785D01*
X129474083Y-94850743D01*
X129623187Y-95000108D01*
X129474696Y-95148339D01*
X129380107Y-95376133D01*
X129379892Y-95622785D01*
X129474083Y-95850743D01*
X129648339Y-96025304D01*
X129876133Y-96119893D01*
X130122785Y-96120108D01*
X130350743Y-96025917D01*
X130500108Y-95876813D01*
X130648339Y-96025304D01*
X130876133Y-96119893D01*
X131122785Y-96120108D01*
X131350743Y-96025917D01*
X131500108Y-95876813D01*
X131648339Y-96025304D01*
X131876133Y-96119893D01*
X132122785Y-96120108D01*
X132350743Y-96025917D01*
X132525304Y-95851661D01*
X132619893Y-95623867D01*
X132620108Y-95377215D01*
X132525917Y-95149257D01*
X132376813Y-94999892D01*
X132525304Y-94851661D01*
X132619893Y-94623867D01*
X132620108Y-94377215D01*
X132525917Y-94149257D01*
X132376813Y-93999892D01*
X132525304Y-93851661D01*
X132619893Y-93623867D01*
X132620108Y-93377215D01*
X132525917Y-93149257D01*
X132376813Y-92999892D01*
X132525304Y-92851661D01*
X132619893Y-92623867D01*
X132619893Y-92622785D01*
X139379892Y-92622785D01*
X139474083Y-92850743D01*
X139623187Y-93000108D01*
X139474696Y-93148339D01*
X139380107Y-93376133D01*
X139379892Y-93622785D01*
X139474083Y-93850743D01*
X139623187Y-94000108D01*
X139474696Y-94148339D01*
X139380107Y-94376133D01*
X139379892Y-94622785D01*
X139474083Y-94850743D01*
X139623187Y-95000108D01*
X139474696Y-95148339D01*
X139380107Y-95376133D01*
X139379892Y-95622785D01*
X139474083Y-95850743D01*
X139648339Y-96025304D01*
X139876133Y-96119893D01*
X140122785Y-96120108D01*
X140350743Y-96025917D01*
X140500108Y-95876813D01*
X140648339Y-96025304D01*
X140876133Y-96119893D01*
X141122785Y-96120108D01*
X141350743Y-96025917D01*
X141500108Y-95876813D01*
X141648339Y-96025304D01*
X141876133Y-96119893D01*
X142122785Y-96120108D01*
X142350743Y-96025917D01*
X142525304Y-95851661D01*
X142619893Y-95623867D01*
X142620108Y-95377215D01*
X142525917Y-95149257D01*
X142376813Y-94999892D01*
X142525304Y-94851661D01*
X142619893Y-94623867D01*
X142620108Y-94377215D01*
X142525917Y-94149257D01*
X142376813Y-93999892D01*
X142525304Y-93851661D01*
X142619893Y-93623867D01*
X142620108Y-93377215D01*
X142525917Y-93149257D01*
X142376813Y-92999892D01*
X142525304Y-92851661D01*
X142619893Y-92623867D01*
X142619893Y-92622785D01*
X149379892Y-92622785D01*
X149474083Y-92850743D01*
X149623187Y-93000108D01*
X149474696Y-93148339D01*
X149380107Y-93376133D01*
X149379892Y-93622785D01*
X149474083Y-93850743D01*
X149623187Y-94000108D01*
X149474696Y-94148339D01*
X149380107Y-94376133D01*
X149379892Y-94622785D01*
X149474083Y-94850743D01*
X149623187Y-95000108D01*
X149474696Y-95148339D01*
X149380107Y-95376133D01*
X149379892Y-95622785D01*
X149474083Y-95850743D01*
X149648339Y-96025304D01*
X149876133Y-96119893D01*
X150122785Y-96120108D01*
X150350743Y-96025917D01*
X150500108Y-95876813D01*
X150648339Y-96025304D01*
X150876133Y-96119893D01*
X151122785Y-96120108D01*
X151350743Y-96025917D01*
X151500108Y-95876813D01*
X151648339Y-96025304D01*
X151876133Y-96119893D01*
X152122785Y-96120108D01*
X152350743Y-96025917D01*
X152525304Y-95851661D01*
X152619893Y-95623867D01*
X152620108Y-95377215D01*
X152525917Y-95149257D01*
X152376813Y-94999892D01*
X152525304Y-94851661D01*
X152619893Y-94623867D01*
X152620108Y-94377215D01*
X152525917Y-94149257D01*
X152376813Y-93999892D01*
X152525304Y-93851661D01*
X152619893Y-93623867D01*
X152620108Y-93377215D01*
X152525917Y-93149257D01*
X152376813Y-92999892D01*
X152525304Y-92851661D01*
X152619893Y-92623867D01*
X152619893Y-92622785D01*
X159379892Y-92622785D01*
X159474083Y-92850743D01*
X159623187Y-93000108D01*
X159474696Y-93148339D01*
X159380107Y-93376133D01*
X159379892Y-93622785D01*
X159474083Y-93850743D01*
X159623187Y-94000108D01*
X159474696Y-94148339D01*
X159380107Y-94376133D01*
X159379892Y-94622785D01*
X159474083Y-94850743D01*
X159623187Y-95000108D01*
X159474696Y-95148339D01*
X159380107Y-95376133D01*
X159379892Y-95622785D01*
X159474083Y-95850743D01*
X159648339Y-96025304D01*
X159876133Y-96119893D01*
X160122785Y-96120108D01*
X160350743Y-96025917D01*
X160500108Y-95876813D01*
X160648339Y-96025304D01*
X160876133Y-96119893D01*
X161122785Y-96120108D01*
X161350743Y-96025917D01*
X161500108Y-95876813D01*
X161648339Y-96025304D01*
X161876133Y-96119893D01*
X162122785Y-96120108D01*
X162350743Y-96025917D01*
X162525304Y-95851661D01*
X162619893Y-95623867D01*
X162620108Y-95377215D01*
X162525917Y-95149257D01*
X162376813Y-94999892D01*
X162525304Y-94851661D01*
X162619893Y-94623867D01*
X162620108Y-94377215D01*
X162525917Y-94149257D01*
X162376813Y-93999892D01*
X162525304Y-93851661D01*
X162619893Y-93623867D01*
X162620108Y-93377215D01*
X162525917Y-93149257D01*
X162376813Y-92999892D01*
X162525304Y-92851661D01*
X162619893Y-92623867D01*
X162620108Y-92377215D01*
X162525917Y-92149257D01*
X162351661Y-91974696D01*
X162123867Y-91880107D01*
X161877215Y-91879892D01*
X161649257Y-91974083D01*
X161499892Y-92123187D01*
X161351661Y-91974696D01*
X161123867Y-91880107D01*
X160877215Y-91879892D01*
X160649257Y-91974083D01*
X160499892Y-92123187D01*
X160351661Y-91974696D01*
X160123867Y-91880107D01*
X159877215Y-91879892D01*
X159649257Y-91974083D01*
X159474696Y-92148339D01*
X159380107Y-92376133D01*
X159379892Y-92622785D01*
X152619893Y-92622785D01*
X152620108Y-92377215D01*
X152525917Y-92149257D01*
X152351661Y-91974696D01*
X152123867Y-91880107D01*
X151877215Y-91879892D01*
X151649257Y-91974083D01*
X151499892Y-92123187D01*
X151351661Y-91974696D01*
X151123867Y-91880107D01*
X150877215Y-91879892D01*
X150649257Y-91974083D01*
X150499892Y-92123187D01*
X150351661Y-91974696D01*
X150123867Y-91880107D01*
X149877215Y-91879892D01*
X149649257Y-91974083D01*
X149474696Y-92148339D01*
X149380107Y-92376133D01*
X149379892Y-92622785D01*
X142619893Y-92622785D01*
X142620108Y-92377215D01*
X142525917Y-92149257D01*
X142351661Y-91974696D01*
X142123867Y-91880107D01*
X141877215Y-91879892D01*
X141649257Y-91974083D01*
X141499892Y-92123187D01*
X141351661Y-91974696D01*
X141123867Y-91880107D01*
X140877215Y-91879892D01*
X140649257Y-91974083D01*
X140499892Y-92123187D01*
X140351661Y-91974696D01*
X140123867Y-91880107D01*
X139877215Y-91879892D01*
X139649257Y-91974083D01*
X139474696Y-92148339D01*
X139380107Y-92376133D01*
X139379892Y-92622785D01*
X132619893Y-92622785D01*
X132620108Y-92377215D01*
X132525917Y-92149257D01*
X132351661Y-91974696D01*
X132123867Y-91880107D01*
X131877215Y-91879892D01*
X131649257Y-91974083D01*
X131499892Y-92123187D01*
X131351661Y-91974696D01*
X131123867Y-91880107D01*
X130877215Y-91879892D01*
X130649257Y-91974083D01*
X130499892Y-92123187D01*
X130351661Y-91974696D01*
X130123867Y-91880107D01*
X129877215Y-91879892D01*
X129649257Y-91974083D01*
X129474696Y-92148339D01*
X129380107Y-92376133D01*
X129379892Y-92622785D01*
X111301255Y-92622785D01*
X111329879Y-92553851D01*
X111330121Y-92277362D01*
X111224536Y-92021828D01*
X111029200Y-91826151D01*
X110918098Y-91780018D01*
X111028172Y-91734536D01*
X111223849Y-91539200D01*
X111329879Y-91283851D01*
X111330121Y-91007362D01*
X111224536Y-90751828D01*
X111029200Y-90556151D01*
X110918098Y-90510018D01*
X111028172Y-90464536D01*
X111223849Y-90269200D01*
X111329879Y-90013851D01*
X111330046Y-89822785D01*
X123079892Y-89822785D01*
X123174083Y-90050743D01*
X123348339Y-90225304D01*
X123576133Y-90319893D01*
X123822785Y-90320108D01*
X123997818Y-90247785D01*
X132154892Y-90247785D01*
X132249083Y-90475743D01*
X132423339Y-90650304D01*
X132651133Y-90744893D01*
X132897785Y-90745108D01*
X133125743Y-90650917D01*
X133300304Y-90476661D01*
X133394893Y-90248867D01*
X133395108Y-90002215D01*
X133300917Y-89774257D01*
X133126661Y-89599696D01*
X132898867Y-89505107D01*
X132652215Y-89504892D01*
X132424257Y-89599083D01*
X132249696Y-89773339D01*
X132155107Y-90001133D01*
X132154892Y-90247785D01*
X123997818Y-90247785D01*
X124050743Y-90225917D01*
X124225304Y-90051661D01*
X124319893Y-89823867D01*
X124320108Y-89577215D01*
X124225917Y-89349257D01*
X124074710Y-89197785D01*
X141854892Y-89197785D01*
X141949083Y-89425743D01*
X142123339Y-89600304D01*
X142351133Y-89694893D01*
X142597785Y-89695108D01*
X142825743Y-89600917D01*
X143000304Y-89426661D01*
X143094893Y-89198867D01*
X143094937Y-89147785D01*
X151879892Y-89147785D01*
X151974083Y-89375743D01*
X152148339Y-89550304D01*
X152376133Y-89644893D01*
X152622785Y-89645108D01*
X152850743Y-89550917D01*
X153025304Y-89376661D01*
X153099580Y-89197785D01*
X161804892Y-89197785D01*
X161899083Y-89425743D01*
X162073339Y-89600304D01*
X162301133Y-89694893D01*
X162547785Y-89695108D01*
X162775743Y-89600917D01*
X162950304Y-89426661D01*
X163044893Y-89198867D01*
X163045108Y-88952215D01*
X162950917Y-88724257D01*
X162776661Y-88549696D01*
X162548867Y-88455107D01*
X162302215Y-88454892D01*
X162074257Y-88549083D01*
X161899696Y-88723339D01*
X161805107Y-88951133D01*
X161804892Y-89197785D01*
X153099580Y-89197785D01*
X153119893Y-89148867D01*
X153120108Y-88902215D01*
X153025917Y-88674257D01*
X152851661Y-88499696D01*
X152623867Y-88405107D01*
X152377215Y-88404892D01*
X152149257Y-88499083D01*
X151974696Y-88673339D01*
X151880107Y-88901133D01*
X151879892Y-89147785D01*
X143094937Y-89147785D01*
X143095108Y-88952215D01*
X143000917Y-88724257D01*
X142826661Y-88549696D01*
X142598867Y-88455107D01*
X142352215Y-88454892D01*
X142124257Y-88549083D01*
X141949696Y-88723339D01*
X141855107Y-88951133D01*
X141854892Y-89197785D01*
X124074710Y-89197785D01*
X124051661Y-89174696D01*
X123823867Y-89080107D01*
X123577215Y-89079892D01*
X123349257Y-89174083D01*
X123174696Y-89348339D01*
X123080107Y-89576133D01*
X123079892Y-89822785D01*
X111330046Y-89822785D01*
X111330121Y-89737362D01*
X111224536Y-89481828D01*
X111029200Y-89286151D01*
X110918098Y-89240018D01*
X111028172Y-89194536D01*
X111223849Y-88999200D01*
X111329879Y-88743851D01*
X111330121Y-88467362D01*
X111224536Y-88211828D01*
X111029200Y-88016151D01*
X110918098Y-87970018D01*
X111028172Y-87924536D01*
X111223849Y-87729200D01*
X111226512Y-87722785D01*
X117779892Y-87722785D01*
X117874083Y-87950743D01*
X118048339Y-88125304D01*
X118276133Y-88219893D01*
X118522785Y-88220108D01*
X118750743Y-88125917D01*
X118925304Y-87951661D01*
X119019893Y-87723867D01*
X119020108Y-87477215D01*
X118925917Y-87249257D01*
X118751661Y-87074696D01*
X118523867Y-86980107D01*
X118277215Y-86979892D01*
X118049257Y-87074083D01*
X117874696Y-87248339D01*
X117780107Y-87476133D01*
X117779892Y-87722785D01*
X111226512Y-87722785D01*
X111329879Y-87473851D01*
X111330121Y-87197362D01*
X111224536Y-86941828D01*
X111029200Y-86746151D01*
X110918098Y-86700018D01*
X111028172Y-86654536D01*
X111223849Y-86459200D01*
X111329879Y-86203851D01*
X111330121Y-85927362D01*
X111286911Y-85822785D01*
X123104892Y-85822785D01*
X123199083Y-86050743D01*
X123373339Y-86225304D01*
X123601133Y-86319893D01*
X123847785Y-86320108D01*
X124075743Y-86225917D01*
X124250304Y-86051661D01*
X124344893Y-85823867D01*
X124345108Y-85577215D01*
X124250917Y-85349257D01*
X124076661Y-85174696D01*
X123848867Y-85080107D01*
X123602215Y-85079892D01*
X123374257Y-85174083D01*
X123199696Y-85348339D01*
X123105107Y-85576133D01*
X123104892Y-85822785D01*
X111286911Y-85822785D01*
X111224536Y-85671828D01*
X111029200Y-85476151D01*
X110918098Y-85430018D01*
X111028172Y-85384536D01*
X111223849Y-85189200D01*
X111329879Y-84933851D01*
X111330121Y-84657362D01*
X111224536Y-84401828D01*
X111029200Y-84206151D01*
X110948845Y-84172785D01*
X117604892Y-84172785D01*
X117699083Y-84400743D01*
X117873339Y-84575304D01*
X118101133Y-84669893D01*
X118347785Y-84670108D01*
X118575743Y-84575917D01*
X118750304Y-84401661D01*
X118844893Y-84173867D01*
X118845108Y-83927215D01*
X118750917Y-83699257D01*
X118576661Y-83524696D01*
X118348867Y-83430107D01*
X118102215Y-83429892D01*
X117874257Y-83524083D01*
X117699696Y-83698339D01*
X117605107Y-83926133D01*
X117604892Y-84172785D01*
X110948845Y-84172785D01*
X110918098Y-84160018D01*
X111028172Y-84114536D01*
X111223849Y-83919200D01*
X111329879Y-83663851D01*
X111330121Y-83387362D01*
X111224536Y-83131828D01*
X111029200Y-82936151D01*
X110918098Y-82890018D01*
X111028172Y-82844536D01*
X111223849Y-82649200D01*
X111328245Y-82397785D01*
X114779892Y-82397785D01*
X114874083Y-82625743D01*
X115048339Y-82800304D01*
X115276133Y-82894893D01*
X115522785Y-82895108D01*
X115750743Y-82800917D01*
X115925304Y-82626661D01*
X115926913Y-82622785D01*
X120279892Y-82622785D01*
X120374083Y-82850743D01*
X120548339Y-83025304D01*
X120776133Y-83119893D01*
X121022785Y-83120108D01*
X121250743Y-83025917D01*
X121425304Y-82851661D01*
X121519893Y-82623867D01*
X121519893Y-82622785D01*
X121879892Y-82622785D01*
X121974083Y-82850743D01*
X122148339Y-83025304D01*
X122376133Y-83119893D01*
X122622785Y-83120108D01*
X122850743Y-83025917D01*
X123025304Y-82851661D01*
X123119893Y-82623867D01*
X123120108Y-82377215D01*
X123025917Y-82149257D01*
X122851661Y-81974696D01*
X122623867Y-81880107D01*
X122377215Y-81879892D01*
X122149257Y-81974083D01*
X121974696Y-82148339D01*
X121880107Y-82376133D01*
X121879892Y-82622785D01*
X121519893Y-82622785D01*
X121520108Y-82377215D01*
X121425917Y-82149257D01*
X121251661Y-81974696D01*
X121023867Y-81880107D01*
X120777215Y-81879892D01*
X120549257Y-81974083D01*
X120374696Y-82148339D01*
X120280107Y-82376133D01*
X120279892Y-82622785D01*
X115926913Y-82622785D01*
X116019893Y-82398867D01*
X116020108Y-82152215D01*
X115925917Y-81924257D01*
X115751661Y-81749696D01*
X115523867Y-81655107D01*
X115277215Y-81654892D01*
X115049257Y-81749083D01*
X114874696Y-81923339D01*
X114780107Y-82151133D01*
X114779892Y-82397785D01*
X111328245Y-82397785D01*
X111329879Y-82393851D01*
X111330121Y-82117362D01*
X111224536Y-81861828D01*
X111029200Y-81666151D01*
X110918098Y-81620018D01*
X111028172Y-81574536D01*
X111223849Y-81379200D01*
X111329879Y-81123851D01*
X111330121Y-80847362D01*
X111224536Y-80591828D01*
X111029200Y-80396151D01*
X110773851Y-80290121D01*
X110497362Y-80289879D01*
X110241828Y-80395464D01*
X110046151Y-80590800D01*
X110000018Y-80701902D01*
X109954536Y-80591828D01*
X109759200Y-80396151D01*
X109503851Y-80290121D01*
X109227362Y-80289879D01*
X108971828Y-80395464D01*
X108776151Y-80590800D01*
X108670121Y-80846149D01*
X108669879Y-81122638D01*
X103395000Y-81122638D01*
X103395000Y-79722785D01*
X113279892Y-79722785D01*
X113374083Y-79950743D01*
X113548339Y-80125304D01*
X113776133Y-80219893D01*
X114022785Y-80220108D01*
X114250743Y-80125917D01*
X114253880Y-80122785D01*
X129379892Y-80122785D01*
X129474083Y-80350743D01*
X129623187Y-80500108D01*
X129474696Y-80648339D01*
X129380107Y-80876133D01*
X129379892Y-81122785D01*
X129474083Y-81350743D01*
X129623187Y-81500108D01*
X129474696Y-81648339D01*
X129380107Y-81876133D01*
X129379892Y-82122785D01*
X129474083Y-82350743D01*
X129623187Y-82500108D01*
X129474696Y-82648339D01*
X129380107Y-82876133D01*
X129379892Y-83122785D01*
X129474083Y-83350743D01*
X129648339Y-83525304D01*
X129876133Y-83619893D01*
X130122785Y-83620108D01*
X130350743Y-83525917D01*
X130500108Y-83376813D01*
X130648339Y-83525304D01*
X130876133Y-83619893D01*
X131122785Y-83620108D01*
X131350743Y-83525917D01*
X131500108Y-83376813D01*
X131648339Y-83525304D01*
X131876133Y-83619893D01*
X132122785Y-83620108D01*
X132350743Y-83525917D01*
X132525304Y-83351661D01*
X132619893Y-83123867D01*
X132620108Y-82877215D01*
X132525917Y-82649257D01*
X132376813Y-82499892D01*
X132525304Y-82351661D01*
X132619893Y-82123867D01*
X132620108Y-81877215D01*
X132525917Y-81649257D01*
X132376813Y-81499892D01*
X132525304Y-81351661D01*
X132619893Y-81123867D01*
X132620108Y-80877215D01*
X132525917Y-80649257D01*
X132376813Y-80499892D01*
X132525304Y-80351661D01*
X132619893Y-80123867D01*
X132619893Y-80122785D01*
X139379892Y-80122785D01*
X139474083Y-80350743D01*
X139623187Y-80500108D01*
X139474696Y-80648339D01*
X139380107Y-80876133D01*
X139379892Y-81122785D01*
X139474083Y-81350743D01*
X139623187Y-81500108D01*
X139474696Y-81648339D01*
X139380107Y-81876133D01*
X139379892Y-82122785D01*
X139474083Y-82350743D01*
X139623187Y-82500108D01*
X139474696Y-82648339D01*
X139380107Y-82876133D01*
X139379892Y-83122785D01*
X139474083Y-83350743D01*
X139648339Y-83525304D01*
X139876133Y-83619893D01*
X140122785Y-83620108D01*
X140350743Y-83525917D01*
X140500108Y-83376813D01*
X140648339Y-83525304D01*
X140876133Y-83619893D01*
X141122785Y-83620108D01*
X141350743Y-83525917D01*
X141500108Y-83376813D01*
X141648339Y-83525304D01*
X141876133Y-83619893D01*
X142122785Y-83620108D01*
X142350743Y-83525917D01*
X142525304Y-83351661D01*
X142619893Y-83123867D01*
X142620108Y-82877215D01*
X142525917Y-82649257D01*
X142376813Y-82499892D01*
X142525304Y-82351661D01*
X142619893Y-82123867D01*
X142620108Y-81877215D01*
X142525917Y-81649257D01*
X142376813Y-81499892D01*
X142525304Y-81351661D01*
X142619893Y-81123867D01*
X142620108Y-80877215D01*
X142525917Y-80649257D01*
X142376813Y-80499892D01*
X142525304Y-80351661D01*
X142619893Y-80123867D01*
X142619893Y-80122785D01*
X149379892Y-80122785D01*
X149474083Y-80350743D01*
X149623187Y-80500108D01*
X149474696Y-80648339D01*
X149380107Y-80876133D01*
X149379892Y-81122785D01*
X149474083Y-81350743D01*
X149623187Y-81500108D01*
X149474696Y-81648339D01*
X149380107Y-81876133D01*
X149379892Y-82122785D01*
X149474083Y-82350743D01*
X149623187Y-82500108D01*
X149474696Y-82648339D01*
X149380107Y-82876133D01*
X149379892Y-83122785D01*
X149474083Y-83350743D01*
X149648339Y-83525304D01*
X149876133Y-83619893D01*
X150122785Y-83620108D01*
X150350743Y-83525917D01*
X150500108Y-83376813D01*
X150648339Y-83525304D01*
X150876133Y-83619893D01*
X151122785Y-83620108D01*
X151350743Y-83525917D01*
X151500108Y-83376813D01*
X151648339Y-83525304D01*
X151876133Y-83619893D01*
X152122785Y-83620108D01*
X152350743Y-83525917D01*
X152525304Y-83351661D01*
X152619893Y-83123867D01*
X152620108Y-82877215D01*
X152525917Y-82649257D01*
X152376813Y-82499892D01*
X152525304Y-82351661D01*
X152619893Y-82123867D01*
X152620108Y-81877215D01*
X152525917Y-81649257D01*
X152376813Y-81499892D01*
X152525304Y-81351661D01*
X152619893Y-81123867D01*
X152620108Y-80877215D01*
X152525917Y-80649257D01*
X152376813Y-80499892D01*
X152525304Y-80351661D01*
X152619893Y-80123867D01*
X152619893Y-80122785D01*
X159379892Y-80122785D01*
X159474083Y-80350743D01*
X159623187Y-80500108D01*
X159474696Y-80648339D01*
X159380107Y-80876133D01*
X159379892Y-81122785D01*
X159474083Y-81350743D01*
X159623187Y-81500108D01*
X159474696Y-81648339D01*
X159380107Y-81876133D01*
X159379892Y-82122785D01*
X159474083Y-82350743D01*
X159623187Y-82500108D01*
X159474696Y-82648339D01*
X159380107Y-82876133D01*
X159379892Y-83122785D01*
X159474083Y-83350743D01*
X159648339Y-83525304D01*
X159876133Y-83619893D01*
X160122785Y-83620108D01*
X160350743Y-83525917D01*
X160500108Y-83376813D01*
X160648339Y-83525304D01*
X160876133Y-83619893D01*
X161122785Y-83620108D01*
X161350743Y-83525917D01*
X161500108Y-83376813D01*
X161648339Y-83525304D01*
X161876133Y-83619893D01*
X162122785Y-83620108D01*
X162350743Y-83525917D01*
X162525304Y-83351661D01*
X162619893Y-83123867D01*
X162620108Y-82877215D01*
X162525917Y-82649257D01*
X162376813Y-82499892D01*
X162525304Y-82351661D01*
X162619893Y-82123867D01*
X162620108Y-81877215D01*
X162525917Y-81649257D01*
X162376813Y-81499892D01*
X162525304Y-81351661D01*
X162619893Y-81123867D01*
X162620108Y-80877215D01*
X162525917Y-80649257D01*
X162376813Y-80499892D01*
X162525304Y-80351661D01*
X162619893Y-80123867D01*
X162620108Y-79877215D01*
X162525917Y-79649257D01*
X162351661Y-79474696D01*
X162123867Y-79380107D01*
X161877215Y-79379892D01*
X161649257Y-79474083D01*
X161499892Y-79623187D01*
X161351661Y-79474696D01*
X161123867Y-79380107D01*
X160877215Y-79379892D01*
X160649257Y-79474083D01*
X160499892Y-79623187D01*
X160351661Y-79474696D01*
X160123867Y-79380107D01*
X159877215Y-79379892D01*
X159649257Y-79474083D01*
X159474696Y-79648339D01*
X159380107Y-79876133D01*
X159379892Y-80122785D01*
X152619893Y-80122785D01*
X152620108Y-79877215D01*
X152525917Y-79649257D01*
X152351661Y-79474696D01*
X152123867Y-79380107D01*
X151877215Y-79379892D01*
X151649257Y-79474083D01*
X151499892Y-79623187D01*
X151351661Y-79474696D01*
X151123867Y-79380107D01*
X150877215Y-79379892D01*
X150649257Y-79474083D01*
X150499892Y-79623187D01*
X150351661Y-79474696D01*
X150123867Y-79380107D01*
X149877215Y-79379892D01*
X149649257Y-79474083D01*
X149474696Y-79648339D01*
X149380107Y-79876133D01*
X149379892Y-80122785D01*
X142619893Y-80122785D01*
X142620108Y-79877215D01*
X142525917Y-79649257D01*
X142351661Y-79474696D01*
X142123867Y-79380107D01*
X141877215Y-79379892D01*
X141649257Y-79474083D01*
X141499892Y-79623187D01*
X141351661Y-79474696D01*
X141123867Y-79380107D01*
X140877215Y-79379892D01*
X140649257Y-79474083D01*
X140499892Y-79623187D01*
X140351661Y-79474696D01*
X140123867Y-79380107D01*
X139877215Y-79379892D01*
X139649257Y-79474083D01*
X139474696Y-79648339D01*
X139380107Y-79876133D01*
X139379892Y-80122785D01*
X132619893Y-80122785D01*
X132620108Y-79877215D01*
X132525917Y-79649257D01*
X132351661Y-79474696D01*
X132123867Y-79380107D01*
X131877215Y-79379892D01*
X131649257Y-79474083D01*
X131499892Y-79623187D01*
X131351661Y-79474696D01*
X131123867Y-79380107D01*
X130877215Y-79379892D01*
X130649257Y-79474083D01*
X130499892Y-79623187D01*
X130351661Y-79474696D01*
X130123867Y-79380107D01*
X129877215Y-79379892D01*
X129649257Y-79474083D01*
X129474696Y-79648339D01*
X129380107Y-79876133D01*
X129379892Y-80122785D01*
X114253880Y-80122785D01*
X114425304Y-79951661D01*
X114519893Y-79723867D01*
X114519981Y-79622785D01*
X115779892Y-79622785D01*
X115874083Y-79850743D01*
X116048339Y-80025304D01*
X116276133Y-80119893D01*
X116522785Y-80120108D01*
X116750743Y-80025917D01*
X116925304Y-79851661D01*
X117019893Y-79623867D01*
X117020108Y-79377215D01*
X116925917Y-79149257D01*
X116751661Y-78974696D01*
X116523867Y-78880107D01*
X116277215Y-78879892D01*
X116049257Y-78974083D01*
X115874696Y-79148339D01*
X115780107Y-79376133D01*
X115779892Y-79622785D01*
X114519981Y-79622785D01*
X114520108Y-79477215D01*
X114425917Y-79249257D01*
X114251661Y-79074696D01*
X114023867Y-78980107D01*
X113777215Y-78979892D01*
X113549257Y-79074083D01*
X113374696Y-79248339D01*
X113280107Y-79476133D01*
X113279892Y-79722785D01*
X103395000Y-79722785D01*
X103395000Y-78022785D01*
X114479892Y-78022785D01*
X114574083Y-78250743D01*
X114748339Y-78425304D01*
X114976133Y-78519893D01*
X115222785Y-78520108D01*
X115450743Y-78425917D01*
X115625304Y-78251661D01*
X115719893Y-78023867D01*
X115720108Y-77777215D01*
X115625917Y-77549257D01*
X115451661Y-77374696D01*
X115223867Y-77280107D01*
X114977215Y-77279892D01*
X114749257Y-77374083D01*
X114574696Y-77548339D01*
X114480107Y-77776133D01*
X114479892Y-78022785D01*
X103395000Y-78022785D01*
X103395000Y-77222785D01*
X117079892Y-77222785D01*
X117174083Y-77450743D01*
X117348339Y-77625304D01*
X117576133Y-77719893D01*
X117822785Y-77720108D01*
X118050743Y-77625917D01*
X118225304Y-77451661D01*
X118304302Y-77261412D01*
X130979772Y-77261412D01*
X131180306Y-77746743D01*
X131551304Y-78118389D01*
X132036284Y-78319770D01*
X132561412Y-78320228D01*
X133046743Y-78119694D01*
X133418389Y-77748696D01*
X133619770Y-77263716D01*
X133619772Y-77261412D01*
X140979772Y-77261412D01*
X141180306Y-77746743D01*
X141551304Y-78118389D01*
X142036284Y-78319770D01*
X142561412Y-78320228D01*
X143046743Y-78119694D01*
X143418389Y-77748696D01*
X143619770Y-77263716D01*
X143619772Y-77261412D01*
X150979772Y-77261412D01*
X151180306Y-77746743D01*
X151551304Y-78118389D01*
X152036284Y-78319770D01*
X152561412Y-78320228D01*
X153046743Y-78119694D01*
X153418389Y-77748696D01*
X153619770Y-77263716D01*
X153619772Y-77261412D01*
X160979772Y-77261412D01*
X161180306Y-77746743D01*
X161551304Y-78118389D01*
X162036284Y-78319770D01*
X162561412Y-78320228D01*
X163046743Y-78119694D01*
X163418389Y-77748696D01*
X163619770Y-77263716D01*
X163620228Y-76738588D01*
X163419694Y-76253257D01*
X163048696Y-75881611D01*
X162563716Y-75680230D01*
X162038588Y-75679772D01*
X161553257Y-75880306D01*
X161181611Y-76251304D01*
X160980230Y-76736284D01*
X160979772Y-77261412D01*
X153619772Y-77261412D01*
X153620228Y-76738588D01*
X153419694Y-76253257D01*
X153048696Y-75881611D01*
X152563716Y-75680230D01*
X152038588Y-75679772D01*
X151553257Y-75880306D01*
X151181611Y-76251304D01*
X150980230Y-76736284D01*
X150979772Y-77261412D01*
X143619772Y-77261412D01*
X143620228Y-76738588D01*
X143419694Y-76253257D01*
X143048696Y-75881611D01*
X142563716Y-75680230D01*
X142038588Y-75679772D01*
X141553257Y-75880306D01*
X141181611Y-76251304D01*
X140980230Y-76736284D01*
X140979772Y-77261412D01*
X133619772Y-77261412D01*
X133620228Y-76738588D01*
X133419694Y-76253257D01*
X133048696Y-75881611D01*
X132563716Y-75680230D01*
X132038588Y-75679772D01*
X131553257Y-75880306D01*
X131181611Y-76251304D01*
X130980230Y-76736284D01*
X130979772Y-77261412D01*
X118304302Y-77261412D01*
X118319893Y-77223867D01*
X118320108Y-76977215D01*
X118225917Y-76749257D01*
X118099666Y-76622785D01*
X119579892Y-76622785D01*
X119674083Y-76850743D01*
X119848339Y-77025304D01*
X120076133Y-77119893D01*
X120322785Y-77120108D01*
X120550743Y-77025917D01*
X120725304Y-76851661D01*
X120819893Y-76623867D01*
X120820108Y-76377215D01*
X120725917Y-76149257D01*
X120599666Y-76022785D01*
X122079892Y-76022785D01*
X122174083Y-76250743D01*
X122348339Y-76425304D01*
X122576133Y-76519893D01*
X122822785Y-76520108D01*
X123050743Y-76425917D01*
X123225304Y-76251661D01*
X123319893Y-76023867D01*
X123320108Y-75777215D01*
X123225917Y-75549257D01*
X123051661Y-75374696D01*
X122823867Y-75280107D01*
X122577215Y-75279892D01*
X122349257Y-75374083D01*
X122174696Y-75548339D01*
X122080107Y-75776133D01*
X122079892Y-76022785D01*
X120599666Y-76022785D01*
X120551661Y-75974696D01*
X120323867Y-75880107D01*
X120077215Y-75879892D01*
X119849257Y-75974083D01*
X119674696Y-76148339D01*
X119580107Y-76376133D01*
X119579892Y-76622785D01*
X118099666Y-76622785D01*
X118051661Y-76574696D01*
X117823867Y-76480107D01*
X117577215Y-76479892D01*
X117349257Y-76574083D01*
X117174696Y-76748339D01*
X117080107Y-76976133D01*
X117079892Y-77222785D01*
X103395000Y-77222785D01*
X103395000Y-71320824D01*
X104379719Y-71320824D01*
X104625830Y-71916458D01*
X105081145Y-72372569D01*
X105676348Y-72619718D01*
X106320824Y-72620281D01*
X106916458Y-72374170D01*
X107372569Y-71918855D01*
X107619718Y-71323652D01*
X107619720Y-71320824D01*
X167379719Y-71320824D01*
X167625830Y-71916458D01*
X168081145Y-72372569D01*
X168676348Y-72619718D01*
X169320824Y-72620281D01*
X169916458Y-72374170D01*
X170372569Y-71918855D01*
X170619718Y-71323652D01*
X170620281Y-70679176D01*
X170374170Y-70083542D01*
X169918855Y-69627431D01*
X169323652Y-69380282D01*
X168679176Y-69379719D01*
X168083542Y-69625830D01*
X167627431Y-70081145D01*
X167380282Y-70676348D01*
X167379719Y-71320824D01*
X107619720Y-71320824D01*
X107620281Y-70679176D01*
X107374170Y-70083542D01*
X106918855Y-69627431D01*
X106323652Y-69380282D01*
X105679176Y-69379719D01*
X105083542Y-69625830D01*
X104627431Y-70081145D01*
X104380282Y-70676348D01*
X104379719Y-71320824D01*
X103395000Y-71320824D01*
X103395000Y-70038904D01*
X103524323Y-69388755D01*
X103870565Y-68870565D01*
X104388755Y-68524323D01*
X105038903Y-68395000D01*
X169961096Y-68395000D01*
X170611245Y-68524323D01*
M02*
