G04 #@! TF.FileFunction,Copper,L1,Top,Signal*
%FSLAX46Y46*%
G04 Gerber Fmt 4.6, Leading zero omitted, Abs format (unit mm)*
G04 Created by KiCad (PCBNEW 4.0.6-e0-6349~53~ubuntu14.04.1) date Tue Apr 25 14:13:02 2017*
%MOMM*%
%LPD*%
G01*
G04 APERTURE LIST*
%ADD10C,0.100000*%
%ADD11R,0.700000X1.150000*%
%ADD12R,4.700000X1.550000*%
%ADD13R,4.200000X3.300000*%
%ADD14C,2.000000*%
%ADD15C,1.524000*%
%ADD16R,0.787000X0.864000*%
%ADD17R,1.200000X1.200000*%
%ADD18R,0.864000X0.787000*%
%ADD19R,0.800000X1.200000*%
%ADD20R,1.500000X0.600000*%
%ADD21C,1.000000*%
%ADD22C,0.750000*%
%ADD23C,0.600000*%
%ADD24C,0.250000*%
%ADD25C,0.500000*%
%ADD26C,0.150000*%
%ADD27C,0.200000*%
G04 APERTURE END LIST*
D10*
D11*
X159165000Y-90125000D03*
X157895000Y-90125000D03*
X160435000Y-90125000D03*
D12*
X159800000Y-84650000D03*
D13*
X159800000Y-86850000D03*
D11*
X161705000Y-90125000D03*
X149165000Y-90125000D03*
X147895000Y-90125000D03*
X150435000Y-90125000D03*
D12*
X149800000Y-84650000D03*
D13*
X149800000Y-86850000D03*
D11*
X151705000Y-90125000D03*
X139165000Y-90125000D03*
X137895000Y-90125000D03*
X140435000Y-90125000D03*
D12*
X139800000Y-84650000D03*
D13*
X139800000Y-86850000D03*
D11*
X141705000Y-90125000D03*
X129165000Y-90125000D03*
X127895000Y-90125000D03*
X130435000Y-90125000D03*
D12*
X129800000Y-84650000D03*
D13*
X129800000Y-86850000D03*
D11*
X131705000Y-90125000D03*
D14*
X162300000Y-77000000D03*
X157300000Y-77000000D03*
X127300000Y-77000000D03*
X132300000Y-77000000D03*
X152300000Y-77000000D03*
X147300000Y-77000000D03*
X142300000Y-77000000D03*
X137300000Y-77000000D03*
D15*
X120100000Y-97600000D03*
X120100000Y-100140000D03*
X120100000Y-95060000D03*
D16*
X116574500Y-100200000D03*
X115025500Y-100200000D03*
X116574500Y-95000000D03*
X115025500Y-95000000D03*
D17*
X120500000Y-69350000D03*
X120500000Y-71450000D03*
X118500000Y-69350000D03*
X118500000Y-71450000D03*
X116500000Y-69350000D03*
X116500000Y-71450000D03*
X114500000Y-69350000D03*
X114500000Y-71450000D03*
D16*
X110974500Y-74200000D03*
X109425500Y-74200000D03*
X110974500Y-76100000D03*
X109425500Y-76100000D03*
X111074500Y-97800000D03*
X109525500Y-97800000D03*
X111074500Y-99600000D03*
X109525500Y-99600000D03*
D18*
X125200000Y-90325500D03*
X125200000Y-91874500D03*
X125200000Y-86025500D03*
X125200000Y-87574500D03*
X114700000Y-85025500D03*
X114700000Y-86574500D03*
X114700000Y-88925500D03*
X114700000Y-90474500D03*
D16*
X122125500Y-69300000D03*
X123674500Y-69300000D03*
X122125500Y-71400000D03*
X123674500Y-71400000D03*
X112274500Y-71400000D03*
X110725500Y-71400000D03*
X112274500Y-69300000D03*
X110725500Y-69300000D03*
D14*
X127300000Y-97600000D03*
X132300000Y-97600000D03*
X162300000Y-97600000D03*
X157300000Y-97600000D03*
X137300000Y-97600000D03*
X142300000Y-97600000D03*
X147300000Y-97600000D03*
X152300000Y-97600000D03*
D19*
X122745000Y-74550000D03*
X121475000Y-74550000D03*
X120205000Y-74550000D03*
X118935000Y-74550000D03*
X117665000Y-74550000D03*
X116395000Y-74550000D03*
X115125000Y-74550000D03*
X113855000Y-74550000D03*
X113855000Y-80850000D03*
X115125000Y-80850000D03*
X116395000Y-80850000D03*
X117665000Y-80850000D03*
X118935000Y-80850000D03*
X120205000Y-80850000D03*
X121475000Y-80850000D03*
X122745000Y-80850000D03*
D20*
X122300000Y-91610000D03*
X122300000Y-90340000D03*
X122300000Y-89070000D03*
X122300000Y-87800000D03*
X122300000Y-86530000D03*
X122300000Y-85260000D03*
X122300000Y-83990000D03*
X116900000Y-83990000D03*
X116900000Y-85260000D03*
X116900000Y-86530000D03*
X116900000Y-87800000D03*
X116900000Y-89070000D03*
X116900000Y-90340000D03*
X116900000Y-91610000D03*
D21*
X106000000Y-99600000D03*
X169000000Y-99600000D03*
X106000000Y-75000000D03*
D22*
X109365000Y-80985000D03*
X110635000Y-80985000D03*
X109365000Y-92415000D03*
X109365000Y-82255000D03*
X110635000Y-82255000D03*
X109365000Y-83525000D03*
X110635000Y-83525000D03*
X109365000Y-84795000D03*
X110635000Y-84795000D03*
X109365000Y-86065000D03*
X110635000Y-86065000D03*
X109365000Y-87335000D03*
X110635000Y-87335000D03*
X109365000Y-88605000D03*
X110635000Y-88605000D03*
X109365000Y-89875000D03*
X110635000Y-89875000D03*
X109365000Y-91145000D03*
X110635000Y-91145000D03*
X110635000Y-92415000D03*
D23*
X160000000Y-92500000D03*
X160000000Y-93500000D03*
X160000000Y-94500000D03*
X160000000Y-95500000D03*
X161000000Y-95500000D03*
X161000000Y-94500000D03*
X161000000Y-93500000D03*
X161000000Y-92500000D03*
X162000000Y-92500000D03*
X162000000Y-93500000D03*
X162000000Y-94500000D03*
X162000000Y-95500000D03*
X150000000Y-92500000D03*
X150000000Y-93500000D03*
X150000000Y-94500000D03*
X150000000Y-95500000D03*
X151000000Y-95500000D03*
X151000000Y-94500000D03*
X151000000Y-93500000D03*
X151000000Y-92500000D03*
X152000000Y-92500000D03*
X152000000Y-93500000D03*
X152000000Y-94500000D03*
X152000000Y-95500000D03*
X140000000Y-92500000D03*
X140000000Y-93500000D03*
X140000000Y-94500000D03*
X140000000Y-95500000D03*
X141000000Y-95500000D03*
X141000000Y-94500000D03*
X141000000Y-93500000D03*
X141000000Y-92500000D03*
X142000000Y-92500000D03*
X142000000Y-93500000D03*
X142000000Y-94500000D03*
X142000000Y-95500000D03*
X130000000Y-92500000D03*
X130000000Y-93500000D03*
X130000000Y-94500000D03*
X130000000Y-95500000D03*
X131000000Y-95500000D03*
X131000000Y-94500000D03*
X131000000Y-93500000D03*
X131000000Y-92500000D03*
X132000000Y-92500000D03*
X132000000Y-93500000D03*
X132000000Y-94500000D03*
X132000000Y-95500000D03*
X119500000Y-73025000D03*
X118400000Y-87600000D03*
X162425000Y-89075000D03*
X117600000Y-73025000D03*
X118225000Y-84050000D03*
X152500000Y-89025000D03*
X115500000Y-72975000D03*
X142475000Y-89075000D03*
X123725000Y-85700000D03*
X113625000Y-73000000D03*
X132775000Y-90125000D03*
X123700000Y-89700000D03*
X122700000Y-75900000D03*
X120200000Y-76500000D03*
X117700000Y-77100000D03*
X115100000Y-77900000D03*
X115400000Y-82275000D03*
X116400000Y-79500000D03*
X122500000Y-82500000D03*
X113900000Y-79600000D03*
X120900000Y-82500000D03*
X162000000Y-83000000D03*
X162000000Y-82000000D03*
X162000000Y-81000000D03*
X162000000Y-80000000D03*
X161000000Y-80000000D03*
X161000000Y-81000000D03*
X161000000Y-82000000D03*
X161000000Y-83000000D03*
X160000000Y-83000000D03*
X160000000Y-82000000D03*
X160000000Y-81000000D03*
X160000000Y-80000000D03*
X130000000Y-80000000D03*
X130000000Y-81000000D03*
X130000000Y-82000000D03*
X130000000Y-83000000D03*
X131000000Y-83000000D03*
X131000000Y-82000000D03*
X131000000Y-81000000D03*
X131000000Y-80000000D03*
X132000000Y-80000000D03*
X132000000Y-81000000D03*
X132000000Y-82000000D03*
X132000000Y-83000000D03*
X152000000Y-83000000D03*
X152000000Y-82000000D03*
X152000000Y-81000000D03*
X152000000Y-80000000D03*
X151000000Y-80000000D03*
X151000000Y-81000000D03*
X151000000Y-82000000D03*
X151000000Y-83000000D03*
X150000000Y-83000000D03*
X150000000Y-82000000D03*
X150000000Y-81000000D03*
X150000000Y-80000000D03*
X142000000Y-83000000D03*
X142000000Y-82000000D03*
X142000000Y-81000000D03*
X142000000Y-80000000D03*
X141000000Y-80000000D03*
X141000000Y-81000000D03*
X141000000Y-82000000D03*
X141000000Y-83000000D03*
X140000000Y-83000000D03*
X140000000Y-82000000D03*
X140000000Y-81000000D03*
X140000000Y-80000000D03*
D24*
X162300000Y-97600000D02*
X162300000Y-95800000D01*
X160000000Y-94500000D02*
X160000000Y-93500000D01*
X161000000Y-95500000D02*
X160000000Y-95500000D01*
X161000000Y-93500000D02*
X161000000Y-94500000D01*
X162000000Y-92500000D02*
X161000000Y-92500000D01*
X162000000Y-94500000D02*
X162000000Y-93500000D01*
X162300000Y-95800000D02*
X162000000Y-95500000D01*
X152300000Y-97600000D02*
X152300000Y-95800000D01*
X150000000Y-94500000D02*
X150000000Y-93500000D01*
X151000000Y-95500000D02*
X150000000Y-95500000D01*
X151000000Y-93500000D02*
X151000000Y-94500000D01*
X152000000Y-92500000D02*
X151000000Y-92500000D01*
X152000000Y-94500000D02*
X152000000Y-93500000D01*
X152300000Y-95800000D02*
X152000000Y-95500000D01*
X142300000Y-97600000D02*
X142300000Y-95800000D01*
X140000000Y-94500000D02*
X140000000Y-93500000D01*
X141000000Y-95500000D02*
X140000000Y-95500000D01*
X141000000Y-93500000D02*
X141000000Y-94500000D01*
X142000000Y-92500000D02*
X141000000Y-92500000D01*
X142000000Y-94500000D02*
X142000000Y-93500000D01*
X142300000Y-95800000D02*
X142000000Y-95500000D01*
X132300000Y-97600000D02*
X132300000Y-95800000D01*
X130000000Y-94500000D02*
X130000000Y-93500000D01*
X131000000Y-95500000D02*
X130000000Y-95500000D01*
X131000000Y-93500000D02*
X131000000Y-94500000D01*
X132000000Y-92500000D02*
X131000000Y-92500000D01*
X132000000Y-94500000D02*
X132000000Y-93500000D01*
X132300000Y-95800000D02*
X132000000Y-95500000D01*
X122300000Y-87800000D02*
X124974500Y-87800000D01*
X124974500Y-87800000D02*
X125200000Y-87574500D01*
D25*
X109365000Y-80985000D02*
X109365000Y-76160500D01*
X109365000Y-76160500D02*
X109425500Y-76100000D01*
X109425500Y-76100000D02*
X109425500Y-74200000D01*
X109525500Y-99600000D02*
X109525500Y-97800000D01*
X109525500Y-97800000D02*
X108025000Y-96299500D01*
X108025000Y-96299500D02*
X108025000Y-82950000D01*
X108025000Y-82950000D02*
X108720000Y-82255000D01*
X108720000Y-82255000D02*
X109365000Y-82255000D01*
X109365000Y-82255000D02*
X109365000Y-80985000D01*
X110635000Y-80985000D02*
X110635000Y-82255000D01*
X120100000Y-100140000D02*
X116634500Y-100140000D01*
X116634500Y-100140000D02*
X116574500Y-100200000D01*
D26*
X119500000Y-73025000D02*
X120500000Y-72025000D01*
X120500000Y-72025000D02*
X120500000Y-71450000D01*
X162425000Y-89075000D02*
X162425000Y-90075000D01*
X118200000Y-87800000D02*
X118400000Y-87600000D01*
X116900000Y-87800000D02*
X118200000Y-87800000D01*
X162375000Y-90125000D02*
X161705000Y-90125000D01*
X162425000Y-90075000D02*
X162375000Y-90125000D01*
X118500000Y-72125000D02*
X118500000Y-71450000D01*
X117600000Y-73025000D02*
X118500000Y-72125000D01*
X152500000Y-89025000D02*
X152500000Y-90000000D01*
X118165000Y-83990000D02*
X118225000Y-84050000D01*
X116900000Y-83990000D02*
X118165000Y-83990000D01*
X152375000Y-90125000D02*
X151705000Y-90125000D01*
X152500000Y-90000000D02*
X152375000Y-90125000D01*
X115500000Y-72975000D02*
X116500000Y-71975000D01*
X116500000Y-71975000D02*
X116500000Y-71450000D01*
X142500000Y-89100000D02*
X142500000Y-89900000D01*
X142275000Y-90125000D02*
X141705000Y-90125000D01*
X142500000Y-89900000D02*
X142275000Y-90125000D01*
X122300000Y-85260000D02*
X123285000Y-85260000D01*
X142475000Y-89075000D02*
X142500000Y-89100000D01*
X142500000Y-89100000D02*
X142650000Y-89250000D01*
X123285000Y-85260000D02*
X123725000Y-85700000D01*
X141705000Y-89695000D02*
X141705000Y-90125000D01*
X114500000Y-72125000D02*
X114500000Y-71450000D01*
X113625000Y-73000000D02*
X114500000Y-72125000D01*
X122300000Y-89070000D02*
X123070000Y-89070000D01*
X123070000Y-89070000D02*
X123700000Y-89700000D01*
X133025000Y-90125000D02*
X132775000Y-90125000D01*
X132775000Y-90125000D02*
X131705000Y-90125000D01*
X122745000Y-75855000D02*
X122745000Y-74550000D01*
X122700000Y-75900000D02*
X122745000Y-75855000D01*
X120205000Y-76495000D02*
X120205000Y-74550000D01*
X120200000Y-76500000D02*
X120205000Y-76495000D01*
X117665000Y-77065000D02*
X117665000Y-74550000D01*
X117700000Y-77100000D02*
X117665000Y-77065000D01*
X115125000Y-77875000D02*
X115125000Y-74550000D01*
X115100000Y-77900000D02*
X115125000Y-77875000D01*
D25*
X120205000Y-80850000D02*
X120205000Y-79630000D01*
X120205000Y-79630000D02*
X119850000Y-79275000D01*
X117665000Y-80850000D02*
X117665000Y-79710000D01*
X122745000Y-79470000D02*
X122745000Y-80850000D01*
X122550000Y-79275000D02*
X122745000Y-79470000D01*
X118100000Y-79275000D02*
X119850000Y-79275000D01*
X119850000Y-79275000D02*
X122550000Y-79275000D01*
X117665000Y-79710000D02*
X118100000Y-79275000D01*
X115387500Y-82287500D02*
X115400000Y-82300000D01*
X115400000Y-82275000D02*
X115387500Y-82287500D01*
X117665000Y-80850000D02*
X117665000Y-81935000D01*
X117665000Y-81935000D02*
X117300000Y-82300000D01*
X117300000Y-82300000D02*
X115400000Y-82300000D01*
X115125000Y-82025000D02*
X115125000Y-80850000D01*
X115400000Y-82300000D02*
X115125000Y-82025000D01*
X120100000Y-95060000D02*
X116634500Y-95060000D01*
X116634500Y-95060000D02*
X116634500Y-91875500D01*
X116634500Y-91875500D02*
X116900000Y-91610000D01*
D26*
X110974500Y-74200000D02*
X113505000Y-74200000D01*
X113505000Y-74200000D02*
X113855000Y-74550000D01*
X116395000Y-74550000D02*
X116395000Y-77831468D01*
X112175000Y-76100000D02*
X110974500Y-76100000D01*
X114800000Y-78725000D02*
X112175000Y-76100000D01*
X115501468Y-78725000D02*
X114800000Y-78725000D01*
X116395000Y-77831468D02*
X115501468Y-78725000D01*
X111074500Y-97800000D02*
X111900000Y-97800000D01*
X118935000Y-77315000D02*
X118935000Y-74550000D01*
X117600002Y-78649998D02*
X118935000Y-77315000D01*
X116000736Y-78649998D02*
X117600002Y-78649998D01*
X115425736Y-79224998D02*
X116000736Y-78649998D01*
X114799264Y-79224998D02*
X115425736Y-79224998D01*
X114324264Y-78749998D02*
X114799264Y-79224998D01*
X112925736Y-78749998D02*
X114324264Y-78749998D01*
X112324998Y-79350736D02*
X112925736Y-78749998D01*
X112324998Y-97375002D02*
X112324998Y-79350736D01*
X111900000Y-97800000D02*
X112324998Y-97375002D01*
X121475000Y-74550000D02*
X121475000Y-77950000D01*
X112175000Y-99600000D02*
X111074500Y-99600000D01*
X112625000Y-99150000D02*
X112175000Y-99600000D01*
X112625000Y-79475000D02*
X112625000Y-99150000D01*
X113050000Y-79050000D02*
X112625000Y-79475000D01*
X114200000Y-79050000D02*
X113050000Y-79050000D01*
X114675000Y-79525000D02*
X114200000Y-79050000D01*
X115550000Y-79525000D02*
X114675000Y-79525000D01*
X116125000Y-78950000D02*
X115550000Y-79525000D01*
X117753246Y-78950000D02*
X116125000Y-78950000D01*
X117903248Y-78799998D02*
X117753246Y-78950000D01*
X120625002Y-78799998D02*
X117903248Y-78799998D01*
X121475000Y-77950000D02*
X120625002Y-78799998D01*
X122300000Y-86530000D02*
X121130000Y-86530000D01*
X116395000Y-79505000D02*
X116395000Y-80850000D01*
X116400000Y-79500000D02*
X116395000Y-79505000D01*
X121800000Y-82500000D02*
X122500000Y-82500000D01*
X120900000Y-83400000D02*
X121800000Y-82500000D01*
X120900000Y-86300000D02*
X120900000Y-83400000D01*
X121130000Y-86530000D02*
X120900000Y-86300000D01*
X125200000Y-86025500D02*
X124695500Y-86530000D01*
X124695500Y-86530000D02*
X122300000Y-86530000D01*
X122300000Y-90340000D02*
X121040000Y-90340000D01*
X113855000Y-79645000D02*
X113855000Y-80850000D01*
X113900000Y-79600000D02*
X113855000Y-79645000D01*
X120599998Y-82800002D02*
X120900000Y-82500000D01*
X120599998Y-89899998D02*
X120599998Y-82800002D01*
X121040000Y-90340000D02*
X120599998Y-89899998D01*
X125200000Y-90325500D02*
X125185500Y-90340000D01*
X125185500Y-90340000D02*
X122300000Y-90340000D01*
X118935000Y-80850000D02*
X118935000Y-84865000D01*
X118540000Y-85260000D02*
X116900000Y-85260000D01*
X118935000Y-84865000D02*
X118540000Y-85260000D01*
X114700000Y-85025500D02*
X114934500Y-85260000D01*
X114934500Y-85260000D02*
X116900000Y-85260000D01*
X121475000Y-80850000D02*
X121475000Y-81625000D01*
X119235002Y-82900000D02*
X119235002Y-88464998D01*
X119235002Y-88464998D02*
X118630000Y-89070000D01*
X118630000Y-89070000D02*
X116900000Y-89070000D01*
X119235002Y-82064998D02*
X119235002Y-82900000D01*
X119400000Y-81900000D02*
X119235002Y-82064998D01*
X121200000Y-81900000D02*
X119400000Y-81900000D01*
X121475000Y-81625000D02*
X121200000Y-81900000D01*
X114700000Y-88925500D02*
X114844500Y-89070000D01*
X114844500Y-89070000D02*
X116900000Y-89070000D01*
D24*
X159800000Y-86850000D02*
X159800000Y-85200000D01*
X159800000Y-85200000D02*
X162000000Y-83000000D01*
X162000000Y-82000000D02*
X162000000Y-81000000D01*
X162000000Y-80000000D02*
X161000000Y-80000000D01*
X161000000Y-81000000D02*
X161000000Y-82000000D01*
X161000000Y-83000000D02*
X160000000Y-83000000D01*
X160000000Y-82000000D02*
X160000000Y-81000000D01*
X129800000Y-84650000D02*
X130350000Y-84650000D01*
X130350000Y-84650000D02*
X132000000Y-83000000D01*
X130000000Y-82000000D02*
X130000000Y-81000000D01*
X131000000Y-83000000D02*
X130000000Y-83000000D01*
X131000000Y-81000000D02*
X131000000Y-82000000D01*
X132000000Y-80000000D02*
X131000000Y-80000000D01*
X132000000Y-82000000D02*
X132000000Y-81000000D01*
X129800000Y-84650000D02*
X130850000Y-84650000D01*
X149800000Y-86850000D02*
X149800000Y-85200000D01*
X149800000Y-85200000D02*
X152000000Y-83000000D01*
X152000000Y-82000000D02*
X152000000Y-81000000D01*
X152000000Y-80000000D02*
X151000000Y-80000000D01*
X151000000Y-81000000D02*
X151000000Y-82000000D01*
X151000000Y-83000000D02*
X150000000Y-83000000D01*
X150000000Y-82000000D02*
X150000000Y-81000000D01*
X139800000Y-84650000D02*
X140350000Y-84650000D01*
X140350000Y-84650000D02*
X142000000Y-83000000D01*
X142000000Y-82000000D02*
X142000000Y-81000000D01*
X142000000Y-80000000D02*
X141000000Y-80000000D01*
X141000000Y-81000000D02*
X141000000Y-82000000D01*
X141000000Y-83000000D02*
X140000000Y-83000000D01*
X140000000Y-82000000D02*
X140000000Y-81000000D01*
D26*
X122125500Y-69300000D02*
X120550000Y-69300000D01*
X120550000Y-69300000D02*
X120500000Y-69350000D01*
X118500000Y-69350000D02*
X118500000Y-70250000D01*
X122125500Y-70875500D02*
X122125500Y-71400000D01*
X121725000Y-70475000D02*
X122125500Y-70875500D01*
X118725000Y-70475000D02*
X121725000Y-70475000D01*
X118500000Y-70250000D02*
X118725000Y-70475000D01*
D27*
X116500000Y-69350000D02*
X116500000Y-69800000D01*
X116500000Y-69800000D02*
X116025000Y-70275000D01*
X116025000Y-70275000D02*
X112525000Y-70275000D01*
X112525000Y-70275000D02*
X112274500Y-70525500D01*
X112274500Y-70525500D02*
X112274500Y-71400000D01*
X114500000Y-69350000D02*
X112324500Y-69350000D01*
X112324500Y-69350000D02*
X112274500Y-69300000D01*
G36*
X123800000Y-85080064D02*
X123663559Y-85079945D01*
X123564307Y-84980693D01*
X123436160Y-84895068D01*
X123361248Y-84880167D01*
X123353956Y-84841415D01*
X123283872Y-84732502D01*
X123176937Y-84659436D01*
X123050000Y-84633731D01*
X121550000Y-84633731D01*
X121431415Y-84656044D01*
X121322502Y-84726128D01*
X121295000Y-84766378D01*
X121295000Y-83563614D01*
X121963614Y-82895000D01*
X122018263Y-82895000D01*
X122148339Y-83025304D01*
X122376133Y-83119893D01*
X122622785Y-83120108D01*
X122850743Y-83025917D01*
X123025304Y-82851661D01*
X123119893Y-82623867D01*
X123120108Y-82377215D01*
X123025917Y-82149257D01*
X122851661Y-81974696D01*
X122623867Y-81880107D01*
X122377215Y-81879892D01*
X122149257Y-81974083D01*
X122018111Y-82105000D01*
X121800000Y-82105000D01*
X121648840Y-82135068D01*
X121520693Y-82220693D01*
X121474515Y-82266871D01*
X121447198Y-82200761D01*
X121479307Y-82179307D01*
X121754307Y-81904307D01*
X121770477Y-81880107D01*
X121839859Y-81776269D01*
X121875000Y-81776269D01*
X121993585Y-81753956D01*
X122102498Y-81683872D01*
X122109055Y-81674276D01*
X122111128Y-81677498D01*
X122218063Y-81750564D01*
X122345000Y-81776269D01*
X123145000Y-81776269D01*
X123263585Y-81753956D01*
X123372498Y-81683872D01*
X123445564Y-81576937D01*
X123471269Y-81450000D01*
X123471269Y-80250000D01*
X123448956Y-80131415D01*
X123378872Y-80022502D01*
X123315000Y-79978860D01*
X123315000Y-79470000D01*
X123304046Y-79414932D01*
X123271612Y-79251871D01*
X123148051Y-79066949D01*
X122953051Y-78871949D01*
X122935267Y-78860066D01*
X122768130Y-78748389D01*
X122550000Y-78705000D01*
X121278614Y-78705000D01*
X121754307Y-78229307D01*
X121804420Y-78154307D01*
X121839932Y-78101160D01*
X121870000Y-77950000D01*
X121870000Y-75476269D01*
X121875000Y-75476269D01*
X121993585Y-75453956D01*
X122102498Y-75383872D01*
X122109055Y-75374276D01*
X122111128Y-75377498D01*
X122218063Y-75450564D01*
X122263438Y-75459752D01*
X122174696Y-75548339D01*
X122080107Y-75776133D01*
X122079892Y-76022785D01*
X122174083Y-76250743D01*
X122348339Y-76425304D01*
X122576133Y-76519893D01*
X122822785Y-76520108D01*
X123050743Y-76425917D01*
X123225304Y-76251661D01*
X123319893Y-76023867D01*
X123320108Y-75777215D01*
X123225917Y-75549257D01*
X123151783Y-75474993D01*
X123263585Y-75453956D01*
X123372498Y-75383872D01*
X123445564Y-75276937D01*
X123471269Y-75150000D01*
X123471269Y-73950000D01*
X123448956Y-73831415D01*
X123378872Y-73722502D01*
X123271937Y-73649436D01*
X123145000Y-73623731D01*
X122345000Y-73623731D01*
X122226415Y-73646044D01*
X122117502Y-73716128D01*
X122110945Y-73725724D01*
X122108872Y-73722502D01*
X122001937Y-73649436D01*
X121875000Y-73623731D01*
X121075000Y-73623731D01*
X120956415Y-73646044D01*
X120847502Y-73716128D01*
X120840945Y-73725724D01*
X120838872Y-73722502D01*
X120731937Y-73649436D01*
X120605000Y-73623731D01*
X119805000Y-73623731D01*
X119686415Y-73646044D01*
X119577502Y-73716128D01*
X119570945Y-73725724D01*
X119568872Y-73722502D01*
X119461937Y-73649436D01*
X119439777Y-73644948D01*
X119622785Y-73645108D01*
X119850743Y-73550917D01*
X120025304Y-73376661D01*
X120119893Y-73148867D01*
X120120055Y-72963559D01*
X120707345Y-72376269D01*
X121100000Y-72376269D01*
X121218585Y-72353956D01*
X121327498Y-72283872D01*
X121400564Y-72176937D01*
X121426269Y-72050000D01*
X121426269Y-71941152D01*
X121428044Y-71950585D01*
X121498128Y-72059498D01*
X121605063Y-72132564D01*
X121732000Y-72158269D01*
X122519000Y-72158269D01*
X122637585Y-72135956D01*
X122746498Y-72065872D01*
X122819564Y-71958937D01*
X122845269Y-71832000D01*
X122845269Y-70968000D01*
X122822956Y-70849415D01*
X122752872Y-70740502D01*
X122645937Y-70667436D01*
X122519000Y-70641731D01*
X122435235Y-70641731D01*
X122404808Y-70596193D01*
X122004307Y-70195693D01*
X121876160Y-70110068D01*
X121725000Y-70080000D01*
X121398471Y-70080000D01*
X121400564Y-70076937D01*
X121426269Y-69950000D01*
X121426269Y-69841152D01*
X121428044Y-69850585D01*
X121498128Y-69959498D01*
X121605063Y-70032564D01*
X121732000Y-70058269D01*
X122519000Y-70058269D01*
X122637585Y-70035956D01*
X122746498Y-69965872D01*
X122819564Y-69858937D01*
X122845269Y-69732000D01*
X122845269Y-68868000D01*
X122822956Y-68749415D01*
X122752872Y-68640502D01*
X122645937Y-68567436D01*
X122519000Y-68541731D01*
X121732000Y-68541731D01*
X121613415Y-68564044D01*
X121504502Y-68634128D01*
X121431436Y-68741063D01*
X121426269Y-68766579D01*
X121426269Y-68750000D01*
X121403956Y-68631415D01*
X121333872Y-68522502D01*
X121226937Y-68449436D01*
X121100000Y-68423731D01*
X119900000Y-68423731D01*
X119781415Y-68446044D01*
X119672502Y-68516128D01*
X119599436Y-68623063D01*
X119573731Y-68750000D01*
X119573731Y-69950000D01*
X119596044Y-70068585D01*
X119603389Y-70080000D01*
X119398471Y-70080000D01*
X119400564Y-70076937D01*
X119426269Y-69950000D01*
X119426269Y-68750000D01*
X119403956Y-68631415D01*
X119333872Y-68522502D01*
X119226937Y-68449436D01*
X119100000Y-68423731D01*
X117900000Y-68423731D01*
X117781415Y-68446044D01*
X117672502Y-68516128D01*
X117599436Y-68623063D01*
X117573731Y-68750000D01*
X117573731Y-69950000D01*
X117596044Y-70068585D01*
X117666128Y-70177498D01*
X117773063Y-70250564D01*
X117900000Y-70276269D01*
X118110225Y-70276269D01*
X118135068Y-70401160D01*
X118216967Y-70523731D01*
X117900000Y-70523731D01*
X117781415Y-70546044D01*
X117672502Y-70616128D01*
X117599436Y-70723063D01*
X117573731Y-70850000D01*
X117573731Y-72050000D01*
X117596044Y-72168585D01*
X117666128Y-72277498D01*
X117739057Y-72327329D01*
X117661334Y-72405052D01*
X117477215Y-72404892D01*
X117249257Y-72499083D01*
X117074696Y-72673339D01*
X116980107Y-72901133D01*
X116979892Y-73147785D01*
X117074083Y-73375743D01*
X117248339Y-73550304D01*
X117425170Y-73623731D01*
X117265000Y-73623731D01*
X117146415Y-73646044D01*
X117037502Y-73716128D01*
X117030945Y-73725724D01*
X117028872Y-73722502D01*
X116921937Y-73649436D01*
X116795000Y-73623731D01*
X115995000Y-73623731D01*
X115876415Y-73646044D01*
X115767502Y-73716128D01*
X115760945Y-73725724D01*
X115758872Y-73722502D01*
X115651937Y-73649436D01*
X115525000Y-73623731D01*
X114725000Y-73623731D01*
X114606415Y-73646044D01*
X114497502Y-73716128D01*
X114490945Y-73725724D01*
X114488872Y-73722502D01*
X114381937Y-73649436D01*
X114255000Y-73623731D01*
X113455000Y-73623731D01*
X113336415Y-73646044D01*
X113227502Y-73716128D01*
X113166778Y-73805000D01*
X111694269Y-73805000D01*
X111694269Y-73768000D01*
X111671956Y-73649415D01*
X111601872Y-73540502D01*
X111494937Y-73467436D01*
X111368000Y-73441731D01*
X110581000Y-73441731D01*
X110462415Y-73464044D01*
X110353502Y-73534128D01*
X110280436Y-73641063D01*
X110254731Y-73768000D01*
X110254731Y-74632000D01*
X110277044Y-74750585D01*
X110347128Y-74859498D01*
X110454063Y-74932564D01*
X110581000Y-74958269D01*
X111368000Y-74958269D01*
X111486585Y-74935956D01*
X111595498Y-74865872D01*
X111668564Y-74758937D01*
X111694269Y-74632000D01*
X111694269Y-74595000D01*
X113128731Y-74595000D01*
X113128731Y-75150000D01*
X113151044Y-75268585D01*
X113221128Y-75377498D01*
X113328063Y-75450564D01*
X113455000Y-75476269D01*
X114255000Y-75476269D01*
X114373585Y-75453956D01*
X114482498Y-75383872D01*
X114489055Y-75374276D01*
X114491128Y-75377498D01*
X114598063Y-75450564D01*
X114725000Y-75476269D01*
X114730000Y-75476269D01*
X114730000Y-77393306D01*
X114574696Y-77548339D01*
X114480107Y-77776133D01*
X114480046Y-77846432D01*
X112454307Y-75820693D01*
X112326160Y-75735068D01*
X112175000Y-75705000D01*
X111694269Y-75705000D01*
X111694269Y-75668000D01*
X111671956Y-75549415D01*
X111601872Y-75440502D01*
X111494937Y-75367436D01*
X111368000Y-75341731D01*
X110581000Y-75341731D01*
X110462415Y-75364044D01*
X110353502Y-75434128D01*
X110280436Y-75541063D01*
X110254731Y-75668000D01*
X110254731Y-76532000D01*
X110277044Y-76650585D01*
X110347128Y-76759498D01*
X110454063Y-76832564D01*
X110581000Y-76858269D01*
X111368000Y-76858269D01*
X111486585Y-76835956D01*
X111595498Y-76765872D01*
X111668564Y-76658937D01*
X111694269Y-76532000D01*
X111694269Y-76495000D01*
X112011386Y-76495000D01*
X113871384Y-78354998D01*
X112925736Y-78354998D01*
X112774576Y-78385066D01*
X112646429Y-78470691D01*
X112045691Y-79071429D01*
X111960066Y-79199576D01*
X111929998Y-79350736D01*
X111929998Y-97211388D01*
X111790962Y-97350424D01*
X111771956Y-97249415D01*
X111701872Y-97140502D01*
X111594937Y-97067436D01*
X111468000Y-97041731D01*
X110681000Y-97041731D01*
X110562415Y-97064044D01*
X110453502Y-97134128D01*
X110380436Y-97241063D01*
X110354731Y-97368000D01*
X110354731Y-98232000D01*
X110377044Y-98350585D01*
X110447128Y-98459498D01*
X110554063Y-98532564D01*
X110681000Y-98558269D01*
X111468000Y-98558269D01*
X111586585Y-98535956D01*
X111695498Y-98465872D01*
X111768564Y-98358937D01*
X111794269Y-98232000D01*
X111794269Y-98195000D01*
X111900000Y-98195000D01*
X112051160Y-98164932D01*
X112179307Y-98079307D01*
X112230000Y-98028614D01*
X112230000Y-98986386D01*
X112011386Y-99205000D01*
X111794269Y-99205000D01*
X111794269Y-99168000D01*
X111771956Y-99049415D01*
X111701872Y-98940502D01*
X111594937Y-98867436D01*
X111468000Y-98841731D01*
X110681000Y-98841731D01*
X110562415Y-98864044D01*
X110453502Y-98934128D01*
X110380436Y-99041063D01*
X110354731Y-99168000D01*
X110354731Y-100032000D01*
X110377044Y-100150585D01*
X110447128Y-100259498D01*
X110554063Y-100332564D01*
X110681000Y-100358269D01*
X111468000Y-100358269D01*
X111586585Y-100335956D01*
X111695498Y-100265872D01*
X111768564Y-100158937D01*
X111794269Y-100032000D01*
X111794269Y-99995000D01*
X112175000Y-99995000D01*
X112326160Y-99964932D01*
X112454307Y-99879307D01*
X112565614Y-99768000D01*
X115854731Y-99768000D01*
X115854731Y-100632000D01*
X115877044Y-100750585D01*
X115947128Y-100859498D01*
X116054063Y-100932564D01*
X116181000Y-100958269D01*
X116968000Y-100958269D01*
X117086585Y-100935956D01*
X117195498Y-100865872D01*
X117268564Y-100758937D01*
X117278474Y-100710000D01*
X119164793Y-100710000D01*
X119182190Y-100752103D01*
X119486296Y-101056740D01*
X119883833Y-101221812D01*
X120314279Y-101222188D01*
X120712103Y-101057810D01*
X121016740Y-100753704D01*
X121181812Y-100356167D01*
X121182188Y-99925721D01*
X121159708Y-99871314D01*
X167629763Y-99871314D01*
X167837893Y-100375029D01*
X168222944Y-100760752D01*
X168726295Y-100969762D01*
X169271314Y-100970237D01*
X169775029Y-100762107D01*
X170160752Y-100377056D01*
X170369762Y-99873705D01*
X170370237Y-99328686D01*
X170162107Y-98824971D01*
X169777056Y-98439248D01*
X169273705Y-98230238D01*
X168728686Y-98229763D01*
X168224971Y-98437893D01*
X167839248Y-98822944D01*
X167630238Y-99326295D01*
X167629763Y-99871314D01*
X121159708Y-99871314D01*
X121017810Y-99527897D01*
X120713704Y-99223260D01*
X120316167Y-99058188D01*
X119885721Y-99057812D01*
X119487897Y-99222190D01*
X119183260Y-99526296D01*
X119165112Y-99570000D01*
X117220854Y-99570000D01*
X117201872Y-99540502D01*
X117094937Y-99467436D01*
X116968000Y-99441731D01*
X116181000Y-99441731D01*
X116062415Y-99464044D01*
X115953502Y-99534128D01*
X115880436Y-99641063D01*
X115854731Y-99768000D01*
X112565614Y-99768000D01*
X112904307Y-99429307D01*
X112989932Y-99301160D01*
X113020000Y-99150000D01*
X113020000Y-97861412D01*
X125979772Y-97861412D01*
X126180306Y-98346743D01*
X126551304Y-98718389D01*
X127036284Y-98919770D01*
X127561412Y-98920228D01*
X128046743Y-98719694D01*
X128418389Y-98348696D01*
X128619770Y-97863716D01*
X128619772Y-97861412D01*
X135979772Y-97861412D01*
X136180306Y-98346743D01*
X136551304Y-98718389D01*
X137036284Y-98919770D01*
X137561412Y-98920228D01*
X138046743Y-98719694D01*
X138418389Y-98348696D01*
X138619770Y-97863716D01*
X138619772Y-97861412D01*
X145979772Y-97861412D01*
X146180306Y-98346743D01*
X146551304Y-98718389D01*
X147036284Y-98919770D01*
X147561412Y-98920228D01*
X148046743Y-98719694D01*
X148418389Y-98348696D01*
X148619770Y-97863716D01*
X148619772Y-97861412D01*
X155979772Y-97861412D01*
X156180306Y-98346743D01*
X156551304Y-98718389D01*
X157036284Y-98919770D01*
X157561412Y-98920228D01*
X158046743Y-98719694D01*
X158418389Y-98348696D01*
X158619770Y-97863716D01*
X158620228Y-97338588D01*
X158419694Y-96853257D01*
X158048696Y-96481611D01*
X157563716Y-96280230D01*
X157038588Y-96279772D01*
X156553257Y-96480306D01*
X156181611Y-96851304D01*
X155980230Y-97336284D01*
X155979772Y-97861412D01*
X148619772Y-97861412D01*
X148620228Y-97338588D01*
X148419694Y-96853257D01*
X148048696Y-96481611D01*
X147563716Y-96280230D01*
X147038588Y-96279772D01*
X146553257Y-96480306D01*
X146181611Y-96851304D01*
X145980230Y-97336284D01*
X145979772Y-97861412D01*
X138619772Y-97861412D01*
X138620228Y-97338588D01*
X138419694Y-96853257D01*
X138048696Y-96481611D01*
X137563716Y-96280230D01*
X137038588Y-96279772D01*
X136553257Y-96480306D01*
X136181611Y-96851304D01*
X135980230Y-97336284D01*
X135979772Y-97861412D01*
X128619772Y-97861412D01*
X128620228Y-97338588D01*
X128419694Y-96853257D01*
X128048696Y-96481611D01*
X127563716Y-96280230D01*
X127038588Y-96279772D01*
X126553257Y-96480306D01*
X126181611Y-96851304D01*
X125980230Y-97336284D01*
X125979772Y-97861412D01*
X113020000Y-97861412D01*
X113020000Y-91310000D01*
X115823731Y-91310000D01*
X115823731Y-91910000D01*
X115846044Y-92028585D01*
X115916128Y-92137498D01*
X116023063Y-92210564D01*
X116064500Y-92218955D01*
X116064500Y-94263652D01*
X116062415Y-94264044D01*
X115953502Y-94334128D01*
X115880436Y-94441063D01*
X115854731Y-94568000D01*
X115854731Y-95432000D01*
X115877044Y-95550585D01*
X115947128Y-95659498D01*
X116054063Y-95732564D01*
X116181000Y-95758269D01*
X116968000Y-95758269D01*
X117086585Y-95735956D01*
X117195498Y-95665872D01*
X117220008Y-95630000D01*
X119164793Y-95630000D01*
X119182190Y-95672103D01*
X119486296Y-95976740D01*
X119883833Y-96141812D01*
X120314279Y-96142188D01*
X120712103Y-95977810D01*
X121016740Y-95673704D01*
X121181812Y-95276167D01*
X121182188Y-94845721D01*
X121017810Y-94447897D01*
X120713704Y-94143260D01*
X120316167Y-93978188D01*
X119885721Y-93977812D01*
X119487897Y-94142190D01*
X119183260Y-94446296D01*
X119165112Y-94490000D01*
X117279592Y-94490000D01*
X117271956Y-94449415D01*
X117204500Y-94344586D01*
X117204500Y-92236269D01*
X117650000Y-92236269D01*
X117768585Y-92213956D01*
X117877498Y-92143872D01*
X117950564Y-92036937D01*
X117976269Y-91910000D01*
X117976269Y-91310000D01*
X117953956Y-91191415D01*
X117883872Y-91082502D01*
X117776937Y-91009436D01*
X117650000Y-90983731D01*
X116150000Y-90983731D01*
X116031415Y-91006044D01*
X115922502Y-91076128D01*
X115849436Y-91183063D01*
X115823731Y-91310000D01*
X113020000Y-91310000D01*
X113020000Y-79638614D01*
X113213614Y-79445000D01*
X113293035Y-79445000D01*
X113280107Y-79476133D01*
X113279892Y-79722785D01*
X113369564Y-79939807D01*
X113336415Y-79946044D01*
X113227502Y-80016128D01*
X113154436Y-80123063D01*
X113128731Y-80250000D01*
X113128731Y-81450000D01*
X113151044Y-81568585D01*
X113221128Y-81677498D01*
X113328063Y-81750564D01*
X113455000Y-81776269D01*
X114255000Y-81776269D01*
X114373585Y-81753956D01*
X114482498Y-81683872D01*
X114489055Y-81674276D01*
X114491128Y-81677498D01*
X114555000Y-81721140D01*
X114555000Y-82025000D01*
X114598389Y-82243130D01*
X114689914Y-82380107D01*
X114721949Y-82428051D01*
X114842004Y-82548106D01*
X114874083Y-82625743D01*
X115048339Y-82800304D01*
X115276133Y-82894893D01*
X115522785Y-82895108D01*
X115583551Y-82870000D01*
X117300000Y-82870000D01*
X117518130Y-82826611D01*
X117703051Y-82703051D01*
X118068051Y-82338051D01*
X118116907Y-82264932D01*
X118191611Y-82153130D01*
X118235000Y-81935000D01*
X118235000Y-81720871D01*
X118292498Y-81683872D01*
X118299055Y-81674276D01*
X118301128Y-81677498D01*
X118408063Y-81750564D01*
X118535000Y-81776269D01*
X118540000Y-81776269D01*
X118540000Y-83509473D01*
X118348867Y-83430107D01*
X118102215Y-83429892D01*
X117913156Y-83508010D01*
X117883872Y-83462502D01*
X117776937Y-83389436D01*
X117650000Y-83363731D01*
X116150000Y-83363731D01*
X116031415Y-83386044D01*
X115922502Y-83456128D01*
X115849436Y-83563063D01*
X115823731Y-83690000D01*
X115823731Y-84290000D01*
X115846044Y-84408585D01*
X115916128Y-84517498D01*
X116023063Y-84590564D01*
X116150000Y-84616269D01*
X117650000Y-84616269D01*
X117768585Y-84593956D01*
X117843705Y-84545618D01*
X117873339Y-84575304D01*
X118101133Y-84669893D01*
X118347785Y-84670108D01*
X118540000Y-84590686D01*
X118540000Y-84701386D01*
X118376386Y-84865000D01*
X117958394Y-84865000D01*
X117953956Y-84841415D01*
X117883872Y-84732502D01*
X117776937Y-84659436D01*
X117650000Y-84633731D01*
X116150000Y-84633731D01*
X116031415Y-84656044D01*
X115922502Y-84726128D01*
X115849436Y-84833063D01*
X115842969Y-84865000D01*
X115458269Y-84865000D01*
X115458269Y-84632000D01*
X115435956Y-84513415D01*
X115365872Y-84404502D01*
X115258937Y-84331436D01*
X115132000Y-84305731D01*
X114268000Y-84305731D01*
X114149415Y-84328044D01*
X114040502Y-84398128D01*
X113967436Y-84505063D01*
X113941731Y-84632000D01*
X113941731Y-85419000D01*
X113964044Y-85537585D01*
X114034128Y-85646498D01*
X114141063Y-85719564D01*
X114268000Y-85745269D01*
X115132000Y-85745269D01*
X115250585Y-85722956D01*
X115356191Y-85655000D01*
X115841606Y-85655000D01*
X115846044Y-85678585D01*
X115916128Y-85787498D01*
X116023063Y-85860564D01*
X116150000Y-85886269D01*
X117650000Y-85886269D01*
X117768585Y-85863956D01*
X117877498Y-85793872D01*
X117950564Y-85686937D01*
X117957031Y-85655000D01*
X118540000Y-85655000D01*
X118691160Y-85624932D01*
X118819307Y-85539307D01*
X118840002Y-85518612D01*
X118840002Y-87163192D01*
X118751661Y-87074696D01*
X118523867Y-86980107D01*
X118277215Y-86979892D01*
X118049257Y-87074083D01*
X117874696Y-87248339D01*
X117868908Y-87262278D01*
X117776937Y-87199436D01*
X117650000Y-87173731D01*
X116150000Y-87173731D01*
X116031415Y-87196044D01*
X115922502Y-87266128D01*
X115849436Y-87373063D01*
X115823731Y-87500000D01*
X115823731Y-88100000D01*
X115846044Y-88218585D01*
X115916128Y-88327498D01*
X116023063Y-88400564D01*
X116150000Y-88426269D01*
X117650000Y-88426269D01*
X117768585Y-88403956D01*
X117877498Y-88333872D01*
X117950564Y-88226937D01*
X117957031Y-88195000D01*
X118200000Y-88195000D01*
X118210943Y-88192823D01*
X118276133Y-88219893D01*
X118522785Y-88220108D01*
X118750743Y-88125917D01*
X118840002Y-88036814D01*
X118840002Y-88301384D01*
X118466386Y-88675000D01*
X117958394Y-88675000D01*
X117953956Y-88651415D01*
X117883872Y-88542502D01*
X117776937Y-88469436D01*
X117650000Y-88443731D01*
X116150000Y-88443731D01*
X116031415Y-88466044D01*
X115922502Y-88536128D01*
X115849436Y-88643063D01*
X115842969Y-88675000D01*
X115458269Y-88675000D01*
X115458269Y-88532000D01*
X115435956Y-88413415D01*
X115365872Y-88304502D01*
X115258937Y-88231436D01*
X115132000Y-88205731D01*
X114268000Y-88205731D01*
X114149415Y-88228044D01*
X114040502Y-88298128D01*
X113967436Y-88405063D01*
X113941731Y-88532000D01*
X113941731Y-89319000D01*
X113964044Y-89437585D01*
X114034128Y-89546498D01*
X114141063Y-89619564D01*
X114268000Y-89645269D01*
X115132000Y-89645269D01*
X115250585Y-89622956D01*
X115359498Y-89552872D01*
X115419539Y-89465000D01*
X115841606Y-89465000D01*
X115846044Y-89488585D01*
X115916128Y-89597498D01*
X116023063Y-89670564D01*
X116150000Y-89696269D01*
X117650000Y-89696269D01*
X117768585Y-89673956D01*
X117877498Y-89603872D01*
X117950564Y-89496937D01*
X117957031Y-89465000D01*
X118630000Y-89465000D01*
X118781160Y-89434932D01*
X118909307Y-89349307D01*
X119514309Y-88744305D01*
X119599934Y-88616158D01*
X119630002Y-88464998D01*
X119630002Y-82295000D01*
X120313797Y-82295000D01*
X120280107Y-82376133D01*
X120279928Y-82581701D01*
X120235066Y-82648842D01*
X120204998Y-82800002D01*
X120204998Y-89899998D01*
X120235066Y-90051158D01*
X120320691Y-90179305D01*
X120760693Y-90619307D01*
X120888840Y-90704932D01*
X121040000Y-90735000D01*
X121241606Y-90735000D01*
X121246044Y-90758585D01*
X121316128Y-90867498D01*
X121423063Y-90940564D01*
X121550000Y-90966269D01*
X123050000Y-90966269D01*
X123168585Y-90943956D01*
X123277498Y-90873872D01*
X123350564Y-90766937D01*
X123357031Y-90735000D01*
X124444742Y-90735000D01*
X124464044Y-90837585D01*
X124534128Y-90946498D01*
X124641063Y-91019564D01*
X124768000Y-91045269D01*
X125632000Y-91045269D01*
X125750585Y-91022956D01*
X125859498Y-90952872D01*
X125932564Y-90845937D01*
X125958269Y-90719000D01*
X125958269Y-89932000D01*
X125935956Y-89813415D01*
X125865872Y-89704502D01*
X125758937Y-89631436D01*
X125632000Y-89605731D01*
X124768000Y-89605731D01*
X124649415Y-89628044D01*
X124540502Y-89698128D01*
X124467436Y-89805063D01*
X124441731Y-89932000D01*
X124441731Y-89945000D01*
X124269594Y-89945000D01*
X124319893Y-89823867D01*
X124320108Y-89577215D01*
X124308863Y-89550000D01*
X131028731Y-89550000D01*
X131028731Y-90700000D01*
X131051044Y-90818585D01*
X131121128Y-90927498D01*
X131228063Y-91000564D01*
X131355000Y-91026269D01*
X132055000Y-91026269D01*
X132173585Y-91003956D01*
X132282498Y-90933872D01*
X132355564Y-90826937D01*
X132381269Y-90700000D01*
X132381269Y-90608160D01*
X132423339Y-90650304D01*
X132651133Y-90744893D01*
X132897785Y-90745108D01*
X133125743Y-90650917D01*
X133300304Y-90476661D01*
X133373099Y-90301352D01*
X133389932Y-90276160D01*
X133420000Y-90125000D01*
X133389932Y-89973840D01*
X133372772Y-89948158D01*
X133300917Y-89774257D01*
X133126661Y-89599696D01*
X132898867Y-89505107D01*
X132652215Y-89504892D01*
X132424257Y-89599083D01*
X132381269Y-89641996D01*
X132381269Y-89550000D01*
X132358956Y-89431415D01*
X132288872Y-89322502D01*
X132181937Y-89249436D01*
X132055000Y-89223731D01*
X131355000Y-89223731D01*
X131236415Y-89246044D01*
X131127502Y-89316128D01*
X131054436Y-89423063D01*
X131028731Y-89550000D01*
X124308863Y-89550000D01*
X124225917Y-89349257D01*
X124051661Y-89174696D01*
X123823867Y-89080107D01*
X123638560Y-89079945D01*
X123376269Y-88817655D01*
X123376269Y-88770000D01*
X123353956Y-88651415D01*
X123283872Y-88542502D01*
X123176937Y-88469436D01*
X123050000Y-88443731D01*
X121550000Y-88443731D01*
X121431415Y-88466044D01*
X121322502Y-88536128D01*
X121249436Y-88643063D01*
X121223731Y-88770000D01*
X121223731Y-89370000D01*
X121246044Y-89488585D01*
X121316128Y-89597498D01*
X121423063Y-89670564D01*
X121550000Y-89696269D01*
X123050000Y-89696269D01*
X123080007Y-89690623D01*
X123079982Y-89719802D01*
X123050000Y-89713731D01*
X121550000Y-89713731D01*
X121431415Y-89736044D01*
X121322502Y-89806128D01*
X121249436Y-89913063D01*
X121242969Y-89945000D01*
X121203614Y-89945000D01*
X120994998Y-89736384D01*
X120994998Y-86898146D01*
X121130000Y-86925000D01*
X121241606Y-86925000D01*
X121246044Y-86948585D01*
X121316128Y-87057498D01*
X121423063Y-87130564D01*
X121550000Y-87156269D01*
X123050000Y-87156269D01*
X123168585Y-87133956D01*
X123277498Y-87063872D01*
X123350564Y-86956937D01*
X123357031Y-86925000D01*
X123800000Y-86925000D01*
X123800000Y-89000000D01*
X123807879Y-89038906D01*
X123830273Y-89071681D01*
X123863654Y-89093161D01*
X123900000Y-89100000D01*
X141854977Y-89100000D01*
X141854892Y-89197785D01*
X141865613Y-89223731D01*
X141355000Y-89223731D01*
X141236415Y-89246044D01*
X141127502Y-89316128D01*
X141054436Y-89423063D01*
X141028731Y-89550000D01*
X141028731Y-90700000D01*
X141051044Y-90818585D01*
X141121128Y-90927498D01*
X141228063Y-91000564D01*
X141355000Y-91026269D01*
X142055000Y-91026269D01*
X142173585Y-91003956D01*
X142282498Y-90933872D01*
X142355564Y-90826937D01*
X142381269Y-90700000D01*
X142381269Y-90498861D01*
X142426160Y-90489932D01*
X142554307Y-90404307D01*
X142779307Y-90179307D01*
X142864932Y-90051160D01*
X142895000Y-89900000D01*
X142895000Y-89552230D01*
X142929307Y-89529307D01*
X142993063Y-89433889D01*
X143000304Y-89426661D01*
X143004262Y-89417128D01*
X143014932Y-89401160D01*
X143018646Y-89382489D01*
X143094893Y-89198867D01*
X143094979Y-89100000D01*
X151879934Y-89100000D01*
X151879892Y-89147785D01*
X151911272Y-89223731D01*
X151355000Y-89223731D01*
X151236415Y-89246044D01*
X151127502Y-89316128D01*
X151054436Y-89423063D01*
X151028731Y-89550000D01*
X151028731Y-90700000D01*
X151051044Y-90818585D01*
X151121128Y-90927498D01*
X151228063Y-91000564D01*
X151355000Y-91026269D01*
X152055000Y-91026269D01*
X152173585Y-91003956D01*
X152282498Y-90933872D01*
X152355564Y-90826937D01*
X152381269Y-90700000D01*
X152381269Y-90518753D01*
X152526160Y-90489932D01*
X152654307Y-90404307D01*
X152779307Y-90279307D01*
X152800369Y-90247785D01*
X152864932Y-90151160D01*
X152895000Y-90000000D01*
X152895000Y-89506737D01*
X153025304Y-89376661D01*
X153119893Y-89148867D01*
X153119936Y-89100000D01*
X161804977Y-89100000D01*
X161804892Y-89197785D01*
X161815613Y-89223731D01*
X161355000Y-89223731D01*
X161236415Y-89246044D01*
X161127502Y-89316128D01*
X161054436Y-89423063D01*
X161028731Y-89550000D01*
X161028731Y-90700000D01*
X161051044Y-90818585D01*
X161121128Y-90927498D01*
X161228063Y-91000564D01*
X161355000Y-91026269D01*
X162055000Y-91026269D01*
X162173585Y-91003956D01*
X162282498Y-90933872D01*
X162355564Y-90826937D01*
X162381269Y-90700000D01*
X162381269Y-90518753D01*
X162526160Y-90489932D01*
X162654307Y-90404307D01*
X162704307Y-90354307D01*
X162727158Y-90320108D01*
X162789932Y-90226160D01*
X162820000Y-90075000D01*
X162820000Y-89556737D01*
X162950304Y-89426661D01*
X163044893Y-89198867D01*
X163044979Y-89100000D01*
X171605000Y-89100000D01*
X171605000Y-104561097D01*
X171475677Y-105211245D01*
X171129435Y-105729435D01*
X170611245Y-106075677D01*
X169961096Y-106205000D01*
X105038903Y-106205000D01*
X104388755Y-106075677D01*
X103870565Y-105729435D01*
X103524323Y-105211245D01*
X103395000Y-104561096D01*
X103395000Y-103920824D01*
X104379719Y-103920824D01*
X104625830Y-104516458D01*
X105081145Y-104972569D01*
X105676348Y-105219718D01*
X106320824Y-105220281D01*
X106916458Y-104974170D01*
X107372569Y-104518855D01*
X107619718Y-103923652D01*
X107619720Y-103920824D01*
X167379719Y-103920824D01*
X167625830Y-104516458D01*
X168081145Y-104972569D01*
X168676348Y-105219718D01*
X169320824Y-105220281D01*
X169916458Y-104974170D01*
X170372569Y-104518855D01*
X170619718Y-103923652D01*
X170620281Y-103279176D01*
X170374170Y-102683542D01*
X169918855Y-102227431D01*
X169323652Y-101980282D01*
X168679176Y-101979719D01*
X168083542Y-102225830D01*
X167627431Y-102681145D01*
X167380282Y-103276348D01*
X167379719Y-103920824D01*
X107619720Y-103920824D01*
X107620281Y-103279176D01*
X107374170Y-102683542D01*
X106918855Y-102227431D01*
X106323652Y-101980282D01*
X105679176Y-101979719D01*
X105083542Y-102225830D01*
X104627431Y-102681145D01*
X104380282Y-103276348D01*
X104379719Y-103920824D01*
X103395000Y-103920824D01*
X103395000Y-99871314D01*
X104629763Y-99871314D01*
X104837893Y-100375029D01*
X105222944Y-100760752D01*
X105726295Y-100969762D01*
X106271314Y-100970237D01*
X106775029Y-100762107D01*
X107160752Y-100377056D01*
X107369762Y-99873705D01*
X107370237Y-99328686D01*
X107162107Y-98824971D01*
X106777056Y-98439248D01*
X106273705Y-98230238D01*
X105728686Y-98229763D01*
X105224971Y-98437893D01*
X104839248Y-98822944D01*
X104630238Y-99326295D01*
X104629763Y-99871314D01*
X103395000Y-99871314D01*
X103395000Y-82950000D01*
X107455000Y-82950000D01*
X107455000Y-96299500D01*
X107498389Y-96517630D01*
X107621949Y-96702551D01*
X108805731Y-97886333D01*
X108805731Y-98232000D01*
X108828044Y-98350585D01*
X108898128Y-98459498D01*
X108955500Y-98498699D01*
X108955500Y-98901311D01*
X108904502Y-98934128D01*
X108831436Y-99041063D01*
X108805731Y-99168000D01*
X108805731Y-100032000D01*
X108828044Y-100150585D01*
X108898128Y-100259498D01*
X109005063Y-100332564D01*
X109132000Y-100358269D01*
X109919000Y-100358269D01*
X110037585Y-100335956D01*
X110146498Y-100265872D01*
X110219564Y-100158937D01*
X110245269Y-100032000D01*
X110245269Y-99168000D01*
X110222956Y-99049415D01*
X110152872Y-98940502D01*
X110095500Y-98901301D01*
X110095500Y-98498689D01*
X110146498Y-98465872D01*
X110219564Y-98358937D01*
X110245269Y-98232000D01*
X110245269Y-97368000D01*
X110222956Y-97249415D01*
X110152872Y-97140502D01*
X110045937Y-97067436D01*
X109919000Y-97041731D01*
X109573333Y-97041731D01*
X108595000Y-96063398D01*
X108595000Y-83186102D01*
X108954041Y-82827061D01*
X108970800Y-82843849D01*
X109081902Y-82889982D01*
X108971828Y-82935464D01*
X108776151Y-83130800D01*
X108670121Y-83386149D01*
X108669879Y-83662638D01*
X108775464Y-83918172D01*
X108970800Y-84113849D01*
X109081902Y-84159982D01*
X108971828Y-84205464D01*
X108776151Y-84400800D01*
X108670121Y-84656149D01*
X108669879Y-84932638D01*
X108775464Y-85188172D01*
X108970800Y-85383849D01*
X109081902Y-85429982D01*
X108971828Y-85475464D01*
X108776151Y-85670800D01*
X108670121Y-85926149D01*
X108669879Y-86202638D01*
X108775464Y-86458172D01*
X108970800Y-86653849D01*
X109081902Y-86699982D01*
X108971828Y-86745464D01*
X108776151Y-86940800D01*
X108670121Y-87196149D01*
X108669879Y-87472638D01*
X108775464Y-87728172D01*
X108970800Y-87923849D01*
X109081902Y-87969982D01*
X108971828Y-88015464D01*
X108776151Y-88210800D01*
X108670121Y-88466149D01*
X108669879Y-88742638D01*
X108775464Y-88998172D01*
X108970800Y-89193849D01*
X109081902Y-89239982D01*
X108971828Y-89285464D01*
X108776151Y-89480800D01*
X108670121Y-89736149D01*
X108669879Y-90012638D01*
X108775464Y-90268172D01*
X108970800Y-90463849D01*
X109081902Y-90509982D01*
X108971828Y-90555464D01*
X108776151Y-90750800D01*
X108670121Y-91006149D01*
X108669879Y-91282638D01*
X108775464Y-91538172D01*
X108970800Y-91733849D01*
X109081902Y-91779982D01*
X108971828Y-91825464D01*
X108776151Y-92020800D01*
X108670121Y-92276149D01*
X108669879Y-92552638D01*
X108775464Y-92808172D01*
X108970800Y-93003849D01*
X109226149Y-93109879D01*
X109502638Y-93110121D01*
X109758172Y-93004536D01*
X109953849Y-92809200D01*
X109999982Y-92698098D01*
X110045464Y-92808172D01*
X110240800Y-93003849D01*
X110496149Y-93109879D01*
X110772638Y-93110121D01*
X111028172Y-93004536D01*
X111223849Y-92809200D01*
X111329879Y-92553851D01*
X111330121Y-92277362D01*
X111224536Y-92021828D01*
X111029200Y-91826151D01*
X110918098Y-91780018D01*
X111028172Y-91734536D01*
X111223849Y-91539200D01*
X111329879Y-91283851D01*
X111330121Y-91007362D01*
X111224536Y-90751828D01*
X111029200Y-90556151D01*
X110918098Y-90510018D01*
X111028172Y-90464536D01*
X111223849Y-90269200D01*
X111329879Y-90013851D01*
X111330121Y-89737362D01*
X111224536Y-89481828D01*
X111029200Y-89286151D01*
X110918098Y-89240018D01*
X111028172Y-89194536D01*
X111223849Y-88999200D01*
X111329879Y-88743851D01*
X111330121Y-88467362D01*
X111224536Y-88211828D01*
X111029200Y-88016151D01*
X110918098Y-87970018D01*
X111028172Y-87924536D01*
X111223849Y-87729200D01*
X111329879Y-87473851D01*
X111330121Y-87197362D01*
X111224536Y-86941828D01*
X111029200Y-86746151D01*
X110918098Y-86700018D01*
X111028172Y-86654536D01*
X111223849Y-86459200D01*
X111329879Y-86203851D01*
X111330121Y-85927362D01*
X111224536Y-85671828D01*
X111029200Y-85476151D01*
X110918098Y-85430018D01*
X111028172Y-85384536D01*
X111223849Y-85189200D01*
X111329879Y-84933851D01*
X111330121Y-84657362D01*
X111224536Y-84401828D01*
X111029200Y-84206151D01*
X110918098Y-84160018D01*
X111028172Y-84114536D01*
X111223849Y-83919200D01*
X111329879Y-83663851D01*
X111330121Y-83387362D01*
X111224536Y-83131828D01*
X111029200Y-82936151D01*
X110918098Y-82890018D01*
X111028172Y-82844536D01*
X111223849Y-82649200D01*
X111329879Y-82393851D01*
X111330121Y-82117362D01*
X111224536Y-81861828D01*
X111205000Y-81842258D01*
X111205000Y-81398016D01*
X111223849Y-81379200D01*
X111329879Y-81123851D01*
X111330121Y-80847362D01*
X111224536Y-80591828D01*
X111029200Y-80396151D01*
X110773851Y-80290121D01*
X110497362Y-80289879D01*
X110241828Y-80395464D01*
X110046151Y-80590800D01*
X110000018Y-80701902D01*
X109954536Y-80591828D01*
X109935000Y-80572258D01*
X109935000Y-76836442D01*
X109937585Y-76835956D01*
X110046498Y-76765872D01*
X110119564Y-76658937D01*
X110145269Y-76532000D01*
X110145269Y-75668000D01*
X110122956Y-75549415D01*
X110052872Y-75440502D01*
X109995500Y-75401301D01*
X109995500Y-74898689D01*
X110046498Y-74865872D01*
X110119564Y-74758937D01*
X110145269Y-74632000D01*
X110145269Y-73768000D01*
X110122956Y-73649415D01*
X110052872Y-73540502D01*
X109945937Y-73467436D01*
X109819000Y-73441731D01*
X109032000Y-73441731D01*
X108913415Y-73464044D01*
X108804502Y-73534128D01*
X108731436Y-73641063D01*
X108705731Y-73768000D01*
X108705731Y-74632000D01*
X108728044Y-74750585D01*
X108798128Y-74859498D01*
X108855500Y-74898699D01*
X108855500Y-75401311D01*
X108804502Y-75434128D01*
X108731436Y-75541063D01*
X108705731Y-75668000D01*
X108705731Y-76532000D01*
X108728044Y-76650585D01*
X108795000Y-76754637D01*
X108795000Y-80571984D01*
X108776151Y-80590800D01*
X108670121Y-80846149D01*
X108669879Y-81122638D01*
X108775464Y-81378172D01*
X108795000Y-81397742D01*
X108795000Y-81685000D01*
X108720000Y-81685000D01*
X108501870Y-81728389D01*
X108316949Y-81851949D01*
X107621949Y-82546949D01*
X107498389Y-82731870D01*
X107455000Y-82950000D01*
X103395000Y-82950000D01*
X103395000Y-75271314D01*
X104629763Y-75271314D01*
X104837893Y-75775029D01*
X105222944Y-76160752D01*
X105726295Y-76369762D01*
X106271314Y-76370237D01*
X106775029Y-76162107D01*
X107160752Y-75777056D01*
X107369762Y-75273705D01*
X107370237Y-74728686D01*
X107162107Y-74224971D01*
X106777056Y-73839248D01*
X106273705Y-73630238D01*
X105728686Y-73629763D01*
X105224971Y-73837893D01*
X104839248Y-74222944D01*
X104630238Y-74726295D01*
X104629763Y-75271314D01*
X103395000Y-75271314D01*
X103395000Y-71320824D01*
X104379719Y-71320824D01*
X104625830Y-71916458D01*
X105081145Y-72372569D01*
X105676348Y-72619718D01*
X106320824Y-72620281D01*
X106916458Y-72374170D01*
X107372569Y-71918855D01*
X107619718Y-71323652D01*
X107620281Y-70679176D01*
X107374170Y-70083542D01*
X106918855Y-69627431D01*
X106323652Y-69380282D01*
X105679176Y-69379719D01*
X105083542Y-69625830D01*
X104627431Y-70081145D01*
X104380282Y-70676348D01*
X104379719Y-71320824D01*
X103395000Y-71320824D01*
X103395000Y-70038904D01*
X103524323Y-69388755D01*
X103870565Y-68870565D01*
X103874403Y-68868000D01*
X111554731Y-68868000D01*
X111554731Y-69732000D01*
X111577044Y-69850585D01*
X111647128Y-69959498D01*
X111754063Y-70032564D01*
X111881000Y-70058269D01*
X112147762Y-70058269D01*
X111977515Y-70228515D01*
X111886471Y-70364773D01*
X111854500Y-70525500D01*
X111854500Y-70646717D01*
X111762415Y-70664044D01*
X111653502Y-70734128D01*
X111580436Y-70841063D01*
X111554731Y-70968000D01*
X111554731Y-71832000D01*
X111577044Y-71950585D01*
X111647128Y-72059498D01*
X111754063Y-72132564D01*
X111881000Y-72158269D01*
X112668000Y-72158269D01*
X112786585Y-72135956D01*
X112895498Y-72065872D01*
X112968564Y-71958937D01*
X112994269Y-71832000D01*
X112994269Y-70968000D01*
X112971956Y-70849415D01*
X112901872Y-70740502D01*
X112835278Y-70695000D01*
X113618611Y-70695000D01*
X113599436Y-70723063D01*
X113573731Y-70850000D01*
X113573731Y-72050000D01*
X113596044Y-72168585D01*
X113666128Y-72277498D01*
X113739057Y-72327329D01*
X113686334Y-72380052D01*
X113502215Y-72379892D01*
X113274257Y-72474083D01*
X113099696Y-72648339D01*
X113005107Y-72876133D01*
X113004892Y-73122785D01*
X113099083Y-73350743D01*
X113273339Y-73525304D01*
X113501133Y-73619893D01*
X113747785Y-73620108D01*
X113975743Y-73525917D01*
X114150304Y-73351661D01*
X114244893Y-73123867D01*
X114245055Y-72938559D01*
X114779307Y-72404307D01*
X114798041Y-72376269D01*
X115100000Y-72376269D01*
X115218585Y-72353956D01*
X115327498Y-72283872D01*
X115400564Y-72176937D01*
X115426269Y-72050000D01*
X115426269Y-70850000D01*
X115403956Y-70731415D01*
X115380523Y-70695000D01*
X115618611Y-70695000D01*
X115599436Y-70723063D01*
X115573731Y-70850000D01*
X115573731Y-72050000D01*
X115596044Y-72168585D01*
X115655463Y-72260923D01*
X115561334Y-72355052D01*
X115377215Y-72354892D01*
X115149257Y-72449083D01*
X114974696Y-72623339D01*
X114880107Y-72851133D01*
X114879892Y-73097785D01*
X114974083Y-73325743D01*
X115148339Y-73500304D01*
X115376133Y-73594893D01*
X115622785Y-73595108D01*
X115850743Y-73500917D01*
X116025304Y-73326661D01*
X116119893Y-73098867D01*
X116120055Y-72913559D01*
X116657345Y-72376269D01*
X117100000Y-72376269D01*
X117218585Y-72353956D01*
X117327498Y-72283872D01*
X117400564Y-72176937D01*
X117426269Y-72050000D01*
X117426269Y-70850000D01*
X117403956Y-70731415D01*
X117333872Y-70622502D01*
X117226937Y-70549436D01*
X117100000Y-70523731D01*
X116370239Y-70523731D01*
X116617701Y-70276269D01*
X117100000Y-70276269D01*
X117218585Y-70253956D01*
X117327498Y-70183872D01*
X117400564Y-70076937D01*
X117426269Y-69950000D01*
X117426269Y-68750000D01*
X117403956Y-68631415D01*
X117333872Y-68522502D01*
X117226937Y-68449436D01*
X117100000Y-68423731D01*
X115900000Y-68423731D01*
X115781415Y-68446044D01*
X115672502Y-68516128D01*
X115599436Y-68623063D01*
X115573731Y-68750000D01*
X115573731Y-69855000D01*
X115426269Y-69855000D01*
X115426269Y-68750000D01*
X115403956Y-68631415D01*
X115333872Y-68522502D01*
X115226937Y-68449436D01*
X115100000Y-68423731D01*
X113900000Y-68423731D01*
X113781415Y-68446044D01*
X113672502Y-68516128D01*
X113599436Y-68623063D01*
X113573731Y-68750000D01*
X113573731Y-68930000D01*
X112994269Y-68930000D01*
X112994269Y-68868000D01*
X112971956Y-68749415D01*
X112901872Y-68640502D01*
X112794937Y-68567436D01*
X112668000Y-68541731D01*
X111881000Y-68541731D01*
X111762415Y-68564044D01*
X111653502Y-68634128D01*
X111580436Y-68741063D01*
X111554731Y-68868000D01*
X103874403Y-68868000D01*
X104388755Y-68524323D01*
X105038903Y-68395000D01*
X123800000Y-68395000D01*
X123800000Y-85080064D01*
X123800000Y-85080064D01*
G37*
X123800000Y-85080064D02*
X123663559Y-85079945D01*
X123564307Y-84980693D01*
X123436160Y-84895068D01*
X123361248Y-84880167D01*
X123353956Y-84841415D01*
X123283872Y-84732502D01*
X123176937Y-84659436D01*
X123050000Y-84633731D01*
X121550000Y-84633731D01*
X121431415Y-84656044D01*
X121322502Y-84726128D01*
X121295000Y-84766378D01*
X121295000Y-83563614D01*
X121963614Y-82895000D01*
X122018263Y-82895000D01*
X122148339Y-83025304D01*
X122376133Y-83119893D01*
X122622785Y-83120108D01*
X122850743Y-83025917D01*
X123025304Y-82851661D01*
X123119893Y-82623867D01*
X123120108Y-82377215D01*
X123025917Y-82149257D01*
X122851661Y-81974696D01*
X122623867Y-81880107D01*
X122377215Y-81879892D01*
X122149257Y-81974083D01*
X122018111Y-82105000D01*
X121800000Y-82105000D01*
X121648840Y-82135068D01*
X121520693Y-82220693D01*
X121474515Y-82266871D01*
X121447198Y-82200761D01*
X121479307Y-82179307D01*
X121754307Y-81904307D01*
X121770477Y-81880107D01*
X121839859Y-81776269D01*
X121875000Y-81776269D01*
X121993585Y-81753956D01*
X122102498Y-81683872D01*
X122109055Y-81674276D01*
X122111128Y-81677498D01*
X122218063Y-81750564D01*
X122345000Y-81776269D01*
X123145000Y-81776269D01*
X123263585Y-81753956D01*
X123372498Y-81683872D01*
X123445564Y-81576937D01*
X123471269Y-81450000D01*
X123471269Y-80250000D01*
X123448956Y-80131415D01*
X123378872Y-80022502D01*
X123315000Y-79978860D01*
X123315000Y-79470000D01*
X123304046Y-79414932D01*
X123271612Y-79251871D01*
X123148051Y-79066949D01*
X122953051Y-78871949D01*
X122935267Y-78860066D01*
X122768130Y-78748389D01*
X122550000Y-78705000D01*
X121278614Y-78705000D01*
X121754307Y-78229307D01*
X121804420Y-78154307D01*
X121839932Y-78101160D01*
X121870000Y-77950000D01*
X121870000Y-75476269D01*
X121875000Y-75476269D01*
X121993585Y-75453956D01*
X122102498Y-75383872D01*
X122109055Y-75374276D01*
X122111128Y-75377498D01*
X122218063Y-75450564D01*
X122263438Y-75459752D01*
X122174696Y-75548339D01*
X122080107Y-75776133D01*
X122079892Y-76022785D01*
X122174083Y-76250743D01*
X122348339Y-76425304D01*
X122576133Y-76519893D01*
X122822785Y-76520108D01*
X123050743Y-76425917D01*
X123225304Y-76251661D01*
X123319893Y-76023867D01*
X123320108Y-75777215D01*
X123225917Y-75549257D01*
X123151783Y-75474993D01*
X123263585Y-75453956D01*
X123372498Y-75383872D01*
X123445564Y-75276937D01*
X123471269Y-75150000D01*
X123471269Y-73950000D01*
X123448956Y-73831415D01*
X123378872Y-73722502D01*
X123271937Y-73649436D01*
X123145000Y-73623731D01*
X122345000Y-73623731D01*
X122226415Y-73646044D01*
X122117502Y-73716128D01*
X122110945Y-73725724D01*
X122108872Y-73722502D01*
X122001937Y-73649436D01*
X121875000Y-73623731D01*
X121075000Y-73623731D01*
X120956415Y-73646044D01*
X120847502Y-73716128D01*
X120840945Y-73725724D01*
X120838872Y-73722502D01*
X120731937Y-73649436D01*
X120605000Y-73623731D01*
X119805000Y-73623731D01*
X119686415Y-73646044D01*
X119577502Y-73716128D01*
X119570945Y-73725724D01*
X119568872Y-73722502D01*
X119461937Y-73649436D01*
X119439777Y-73644948D01*
X119622785Y-73645108D01*
X119850743Y-73550917D01*
X120025304Y-73376661D01*
X120119893Y-73148867D01*
X120120055Y-72963559D01*
X120707345Y-72376269D01*
X121100000Y-72376269D01*
X121218585Y-72353956D01*
X121327498Y-72283872D01*
X121400564Y-72176937D01*
X121426269Y-72050000D01*
X121426269Y-71941152D01*
X121428044Y-71950585D01*
X121498128Y-72059498D01*
X121605063Y-72132564D01*
X121732000Y-72158269D01*
X122519000Y-72158269D01*
X122637585Y-72135956D01*
X122746498Y-72065872D01*
X122819564Y-71958937D01*
X122845269Y-71832000D01*
X122845269Y-70968000D01*
X122822956Y-70849415D01*
X122752872Y-70740502D01*
X122645937Y-70667436D01*
X122519000Y-70641731D01*
X122435235Y-70641731D01*
X122404808Y-70596193D01*
X122004307Y-70195693D01*
X121876160Y-70110068D01*
X121725000Y-70080000D01*
X121398471Y-70080000D01*
X121400564Y-70076937D01*
X121426269Y-69950000D01*
X121426269Y-69841152D01*
X121428044Y-69850585D01*
X121498128Y-69959498D01*
X121605063Y-70032564D01*
X121732000Y-70058269D01*
X122519000Y-70058269D01*
X122637585Y-70035956D01*
X122746498Y-69965872D01*
X122819564Y-69858937D01*
X122845269Y-69732000D01*
X122845269Y-68868000D01*
X122822956Y-68749415D01*
X122752872Y-68640502D01*
X122645937Y-68567436D01*
X122519000Y-68541731D01*
X121732000Y-68541731D01*
X121613415Y-68564044D01*
X121504502Y-68634128D01*
X121431436Y-68741063D01*
X121426269Y-68766579D01*
X121426269Y-68750000D01*
X121403956Y-68631415D01*
X121333872Y-68522502D01*
X121226937Y-68449436D01*
X121100000Y-68423731D01*
X119900000Y-68423731D01*
X119781415Y-68446044D01*
X119672502Y-68516128D01*
X119599436Y-68623063D01*
X119573731Y-68750000D01*
X119573731Y-69950000D01*
X119596044Y-70068585D01*
X119603389Y-70080000D01*
X119398471Y-70080000D01*
X119400564Y-70076937D01*
X119426269Y-69950000D01*
X119426269Y-68750000D01*
X119403956Y-68631415D01*
X119333872Y-68522502D01*
X119226937Y-68449436D01*
X119100000Y-68423731D01*
X117900000Y-68423731D01*
X117781415Y-68446044D01*
X117672502Y-68516128D01*
X117599436Y-68623063D01*
X117573731Y-68750000D01*
X117573731Y-69950000D01*
X117596044Y-70068585D01*
X117666128Y-70177498D01*
X117773063Y-70250564D01*
X117900000Y-70276269D01*
X118110225Y-70276269D01*
X118135068Y-70401160D01*
X118216967Y-70523731D01*
X117900000Y-70523731D01*
X117781415Y-70546044D01*
X117672502Y-70616128D01*
X117599436Y-70723063D01*
X117573731Y-70850000D01*
X117573731Y-72050000D01*
X117596044Y-72168585D01*
X117666128Y-72277498D01*
X117739057Y-72327329D01*
X117661334Y-72405052D01*
X117477215Y-72404892D01*
X117249257Y-72499083D01*
X117074696Y-72673339D01*
X116980107Y-72901133D01*
X116979892Y-73147785D01*
X117074083Y-73375743D01*
X117248339Y-73550304D01*
X117425170Y-73623731D01*
X117265000Y-73623731D01*
X117146415Y-73646044D01*
X117037502Y-73716128D01*
X117030945Y-73725724D01*
X117028872Y-73722502D01*
X116921937Y-73649436D01*
X116795000Y-73623731D01*
X115995000Y-73623731D01*
X115876415Y-73646044D01*
X115767502Y-73716128D01*
X115760945Y-73725724D01*
X115758872Y-73722502D01*
X115651937Y-73649436D01*
X115525000Y-73623731D01*
X114725000Y-73623731D01*
X114606415Y-73646044D01*
X114497502Y-73716128D01*
X114490945Y-73725724D01*
X114488872Y-73722502D01*
X114381937Y-73649436D01*
X114255000Y-73623731D01*
X113455000Y-73623731D01*
X113336415Y-73646044D01*
X113227502Y-73716128D01*
X113166778Y-73805000D01*
X111694269Y-73805000D01*
X111694269Y-73768000D01*
X111671956Y-73649415D01*
X111601872Y-73540502D01*
X111494937Y-73467436D01*
X111368000Y-73441731D01*
X110581000Y-73441731D01*
X110462415Y-73464044D01*
X110353502Y-73534128D01*
X110280436Y-73641063D01*
X110254731Y-73768000D01*
X110254731Y-74632000D01*
X110277044Y-74750585D01*
X110347128Y-74859498D01*
X110454063Y-74932564D01*
X110581000Y-74958269D01*
X111368000Y-74958269D01*
X111486585Y-74935956D01*
X111595498Y-74865872D01*
X111668564Y-74758937D01*
X111694269Y-74632000D01*
X111694269Y-74595000D01*
X113128731Y-74595000D01*
X113128731Y-75150000D01*
X113151044Y-75268585D01*
X113221128Y-75377498D01*
X113328063Y-75450564D01*
X113455000Y-75476269D01*
X114255000Y-75476269D01*
X114373585Y-75453956D01*
X114482498Y-75383872D01*
X114489055Y-75374276D01*
X114491128Y-75377498D01*
X114598063Y-75450564D01*
X114725000Y-75476269D01*
X114730000Y-75476269D01*
X114730000Y-77393306D01*
X114574696Y-77548339D01*
X114480107Y-77776133D01*
X114480046Y-77846432D01*
X112454307Y-75820693D01*
X112326160Y-75735068D01*
X112175000Y-75705000D01*
X111694269Y-75705000D01*
X111694269Y-75668000D01*
X111671956Y-75549415D01*
X111601872Y-75440502D01*
X111494937Y-75367436D01*
X111368000Y-75341731D01*
X110581000Y-75341731D01*
X110462415Y-75364044D01*
X110353502Y-75434128D01*
X110280436Y-75541063D01*
X110254731Y-75668000D01*
X110254731Y-76532000D01*
X110277044Y-76650585D01*
X110347128Y-76759498D01*
X110454063Y-76832564D01*
X110581000Y-76858269D01*
X111368000Y-76858269D01*
X111486585Y-76835956D01*
X111595498Y-76765872D01*
X111668564Y-76658937D01*
X111694269Y-76532000D01*
X111694269Y-76495000D01*
X112011386Y-76495000D01*
X113871384Y-78354998D01*
X112925736Y-78354998D01*
X112774576Y-78385066D01*
X112646429Y-78470691D01*
X112045691Y-79071429D01*
X111960066Y-79199576D01*
X111929998Y-79350736D01*
X111929998Y-97211388D01*
X111790962Y-97350424D01*
X111771956Y-97249415D01*
X111701872Y-97140502D01*
X111594937Y-97067436D01*
X111468000Y-97041731D01*
X110681000Y-97041731D01*
X110562415Y-97064044D01*
X110453502Y-97134128D01*
X110380436Y-97241063D01*
X110354731Y-97368000D01*
X110354731Y-98232000D01*
X110377044Y-98350585D01*
X110447128Y-98459498D01*
X110554063Y-98532564D01*
X110681000Y-98558269D01*
X111468000Y-98558269D01*
X111586585Y-98535956D01*
X111695498Y-98465872D01*
X111768564Y-98358937D01*
X111794269Y-98232000D01*
X111794269Y-98195000D01*
X111900000Y-98195000D01*
X112051160Y-98164932D01*
X112179307Y-98079307D01*
X112230000Y-98028614D01*
X112230000Y-98986386D01*
X112011386Y-99205000D01*
X111794269Y-99205000D01*
X111794269Y-99168000D01*
X111771956Y-99049415D01*
X111701872Y-98940502D01*
X111594937Y-98867436D01*
X111468000Y-98841731D01*
X110681000Y-98841731D01*
X110562415Y-98864044D01*
X110453502Y-98934128D01*
X110380436Y-99041063D01*
X110354731Y-99168000D01*
X110354731Y-100032000D01*
X110377044Y-100150585D01*
X110447128Y-100259498D01*
X110554063Y-100332564D01*
X110681000Y-100358269D01*
X111468000Y-100358269D01*
X111586585Y-100335956D01*
X111695498Y-100265872D01*
X111768564Y-100158937D01*
X111794269Y-100032000D01*
X111794269Y-99995000D01*
X112175000Y-99995000D01*
X112326160Y-99964932D01*
X112454307Y-99879307D01*
X112565614Y-99768000D01*
X115854731Y-99768000D01*
X115854731Y-100632000D01*
X115877044Y-100750585D01*
X115947128Y-100859498D01*
X116054063Y-100932564D01*
X116181000Y-100958269D01*
X116968000Y-100958269D01*
X117086585Y-100935956D01*
X117195498Y-100865872D01*
X117268564Y-100758937D01*
X117278474Y-100710000D01*
X119164793Y-100710000D01*
X119182190Y-100752103D01*
X119486296Y-101056740D01*
X119883833Y-101221812D01*
X120314279Y-101222188D01*
X120712103Y-101057810D01*
X121016740Y-100753704D01*
X121181812Y-100356167D01*
X121182188Y-99925721D01*
X121159708Y-99871314D01*
X167629763Y-99871314D01*
X167837893Y-100375029D01*
X168222944Y-100760752D01*
X168726295Y-100969762D01*
X169271314Y-100970237D01*
X169775029Y-100762107D01*
X170160752Y-100377056D01*
X170369762Y-99873705D01*
X170370237Y-99328686D01*
X170162107Y-98824971D01*
X169777056Y-98439248D01*
X169273705Y-98230238D01*
X168728686Y-98229763D01*
X168224971Y-98437893D01*
X167839248Y-98822944D01*
X167630238Y-99326295D01*
X167629763Y-99871314D01*
X121159708Y-99871314D01*
X121017810Y-99527897D01*
X120713704Y-99223260D01*
X120316167Y-99058188D01*
X119885721Y-99057812D01*
X119487897Y-99222190D01*
X119183260Y-99526296D01*
X119165112Y-99570000D01*
X117220854Y-99570000D01*
X117201872Y-99540502D01*
X117094937Y-99467436D01*
X116968000Y-99441731D01*
X116181000Y-99441731D01*
X116062415Y-99464044D01*
X115953502Y-99534128D01*
X115880436Y-99641063D01*
X115854731Y-99768000D01*
X112565614Y-99768000D01*
X112904307Y-99429307D01*
X112989932Y-99301160D01*
X113020000Y-99150000D01*
X113020000Y-97861412D01*
X125979772Y-97861412D01*
X126180306Y-98346743D01*
X126551304Y-98718389D01*
X127036284Y-98919770D01*
X127561412Y-98920228D01*
X128046743Y-98719694D01*
X128418389Y-98348696D01*
X128619770Y-97863716D01*
X128619772Y-97861412D01*
X135979772Y-97861412D01*
X136180306Y-98346743D01*
X136551304Y-98718389D01*
X137036284Y-98919770D01*
X137561412Y-98920228D01*
X138046743Y-98719694D01*
X138418389Y-98348696D01*
X138619770Y-97863716D01*
X138619772Y-97861412D01*
X145979772Y-97861412D01*
X146180306Y-98346743D01*
X146551304Y-98718389D01*
X147036284Y-98919770D01*
X147561412Y-98920228D01*
X148046743Y-98719694D01*
X148418389Y-98348696D01*
X148619770Y-97863716D01*
X148619772Y-97861412D01*
X155979772Y-97861412D01*
X156180306Y-98346743D01*
X156551304Y-98718389D01*
X157036284Y-98919770D01*
X157561412Y-98920228D01*
X158046743Y-98719694D01*
X158418389Y-98348696D01*
X158619770Y-97863716D01*
X158620228Y-97338588D01*
X158419694Y-96853257D01*
X158048696Y-96481611D01*
X157563716Y-96280230D01*
X157038588Y-96279772D01*
X156553257Y-96480306D01*
X156181611Y-96851304D01*
X155980230Y-97336284D01*
X155979772Y-97861412D01*
X148619772Y-97861412D01*
X148620228Y-97338588D01*
X148419694Y-96853257D01*
X148048696Y-96481611D01*
X147563716Y-96280230D01*
X147038588Y-96279772D01*
X146553257Y-96480306D01*
X146181611Y-96851304D01*
X145980230Y-97336284D01*
X145979772Y-97861412D01*
X138619772Y-97861412D01*
X138620228Y-97338588D01*
X138419694Y-96853257D01*
X138048696Y-96481611D01*
X137563716Y-96280230D01*
X137038588Y-96279772D01*
X136553257Y-96480306D01*
X136181611Y-96851304D01*
X135980230Y-97336284D01*
X135979772Y-97861412D01*
X128619772Y-97861412D01*
X128620228Y-97338588D01*
X128419694Y-96853257D01*
X128048696Y-96481611D01*
X127563716Y-96280230D01*
X127038588Y-96279772D01*
X126553257Y-96480306D01*
X126181611Y-96851304D01*
X125980230Y-97336284D01*
X125979772Y-97861412D01*
X113020000Y-97861412D01*
X113020000Y-91310000D01*
X115823731Y-91310000D01*
X115823731Y-91910000D01*
X115846044Y-92028585D01*
X115916128Y-92137498D01*
X116023063Y-92210564D01*
X116064500Y-92218955D01*
X116064500Y-94263652D01*
X116062415Y-94264044D01*
X115953502Y-94334128D01*
X115880436Y-94441063D01*
X115854731Y-94568000D01*
X115854731Y-95432000D01*
X115877044Y-95550585D01*
X115947128Y-95659498D01*
X116054063Y-95732564D01*
X116181000Y-95758269D01*
X116968000Y-95758269D01*
X117086585Y-95735956D01*
X117195498Y-95665872D01*
X117220008Y-95630000D01*
X119164793Y-95630000D01*
X119182190Y-95672103D01*
X119486296Y-95976740D01*
X119883833Y-96141812D01*
X120314279Y-96142188D01*
X120712103Y-95977810D01*
X121016740Y-95673704D01*
X121181812Y-95276167D01*
X121182188Y-94845721D01*
X121017810Y-94447897D01*
X120713704Y-94143260D01*
X120316167Y-93978188D01*
X119885721Y-93977812D01*
X119487897Y-94142190D01*
X119183260Y-94446296D01*
X119165112Y-94490000D01*
X117279592Y-94490000D01*
X117271956Y-94449415D01*
X117204500Y-94344586D01*
X117204500Y-92236269D01*
X117650000Y-92236269D01*
X117768585Y-92213956D01*
X117877498Y-92143872D01*
X117950564Y-92036937D01*
X117976269Y-91910000D01*
X117976269Y-91310000D01*
X117953956Y-91191415D01*
X117883872Y-91082502D01*
X117776937Y-91009436D01*
X117650000Y-90983731D01*
X116150000Y-90983731D01*
X116031415Y-91006044D01*
X115922502Y-91076128D01*
X115849436Y-91183063D01*
X115823731Y-91310000D01*
X113020000Y-91310000D01*
X113020000Y-79638614D01*
X113213614Y-79445000D01*
X113293035Y-79445000D01*
X113280107Y-79476133D01*
X113279892Y-79722785D01*
X113369564Y-79939807D01*
X113336415Y-79946044D01*
X113227502Y-80016128D01*
X113154436Y-80123063D01*
X113128731Y-80250000D01*
X113128731Y-81450000D01*
X113151044Y-81568585D01*
X113221128Y-81677498D01*
X113328063Y-81750564D01*
X113455000Y-81776269D01*
X114255000Y-81776269D01*
X114373585Y-81753956D01*
X114482498Y-81683872D01*
X114489055Y-81674276D01*
X114491128Y-81677498D01*
X114555000Y-81721140D01*
X114555000Y-82025000D01*
X114598389Y-82243130D01*
X114689914Y-82380107D01*
X114721949Y-82428051D01*
X114842004Y-82548106D01*
X114874083Y-82625743D01*
X115048339Y-82800304D01*
X115276133Y-82894893D01*
X115522785Y-82895108D01*
X115583551Y-82870000D01*
X117300000Y-82870000D01*
X117518130Y-82826611D01*
X117703051Y-82703051D01*
X118068051Y-82338051D01*
X118116907Y-82264932D01*
X118191611Y-82153130D01*
X118235000Y-81935000D01*
X118235000Y-81720871D01*
X118292498Y-81683872D01*
X118299055Y-81674276D01*
X118301128Y-81677498D01*
X118408063Y-81750564D01*
X118535000Y-81776269D01*
X118540000Y-81776269D01*
X118540000Y-83509473D01*
X118348867Y-83430107D01*
X118102215Y-83429892D01*
X117913156Y-83508010D01*
X117883872Y-83462502D01*
X117776937Y-83389436D01*
X117650000Y-83363731D01*
X116150000Y-83363731D01*
X116031415Y-83386044D01*
X115922502Y-83456128D01*
X115849436Y-83563063D01*
X115823731Y-83690000D01*
X115823731Y-84290000D01*
X115846044Y-84408585D01*
X115916128Y-84517498D01*
X116023063Y-84590564D01*
X116150000Y-84616269D01*
X117650000Y-84616269D01*
X117768585Y-84593956D01*
X117843705Y-84545618D01*
X117873339Y-84575304D01*
X118101133Y-84669893D01*
X118347785Y-84670108D01*
X118540000Y-84590686D01*
X118540000Y-84701386D01*
X118376386Y-84865000D01*
X117958394Y-84865000D01*
X117953956Y-84841415D01*
X117883872Y-84732502D01*
X117776937Y-84659436D01*
X117650000Y-84633731D01*
X116150000Y-84633731D01*
X116031415Y-84656044D01*
X115922502Y-84726128D01*
X115849436Y-84833063D01*
X115842969Y-84865000D01*
X115458269Y-84865000D01*
X115458269Y-84632000D01*
X115435956Y-84513415D01*
X115365872Y-84404502D01*
X115258937Y-84331436D01*
X115132000Y-84305731D01*
X114268000Y-84305731D01*
X114149415Y-84328044D01*
X114040502Y-84398128D01*
X113967436Y-84505063D01*
X113941731Y-84632000D01*
X113941731Y-85419000D01*
X113964044Y-85537585D01*
X114034128Y-85646498D01*
X114141063Y-85719564D01*
X114268000Y-85745269D01*
X115132000Y-85745269D01*
X115250585Y-85722956D01*
X115356191Y-85655000D01*
X115841606Y-85655000D01*
X115846044Y-85678585D01*
X115916128Y-85787498D01*
X116023063Y-85860564D01*
X116150000Y-85886269D01*
X117650000Y-85886269D01*
X117768585Y-85863956D01*
X117877498Y-85793872D01*
X117950564Y-85686937D01*
X117957031Y-85655000D01*
X118540000Y-85655000D01*
X118691160Y-85624932D01*
X118819307Y-85539307D01*
X118840002Y-85518612D01*
X118840002Y-87163192D01*
X118751661Y-87074696D01*
X118523867Y-86980107D01*
X118277215Y-86979892D01*
X118049257Y-87074083D01*
X117874696Y-87248339D01*
X117868908Y-87262278D01*
X117776937Y-87199436D01*
X117650000Y-87173731D01*
X116150000Y-87173731D01*
X116031415Y-87196044D01*
X115922502Y-87266128D01*
X115849436Y-87373063D01*
X115823731Y-87500000D01*
X115823731Y-88100000D01*
X115846044Y-88218585D01*
X115916128Y-88327498D01*
X116023063Y-88400564D01*
X116150000Y-88426269D01*
X117650000Y-88426269D01*
X117768585Y-88403956D01*
X117877498Y-88333872D01*
X117950564Y-88226937D01*
X117957031Y-88195000D01*
X118200000Y-88195000D01*
X118210943Y-88192823D01*
X118276133Y-88219893D01*
X118522785Y-88220108D01*
X118750743Y-88125917D01*
X118840002Y-88036814D01*
X118840002Y-88301384D01*
X118466386Y-88675000D01*
X117958394Y-88675000D01*
X117953956Y-88651415D01*
X117883872Y-88542502D01*
X117776937Y-88469436D01*
X117650000Y-88443731D01*
X116150000Y-88443731D01*
X116031415Y-88466044D01*
X115922502Y-88536128D01*
X115849436Y-88643063D01*
X115842969Y-88675000D01*
X115458269Y-88675000D01*
X115458269Y-88532000D01*
X115435956Y-88413415D01*
X115365872Y-88304502D01*
X115258937Y-88231436D01*
X115132000Y-88205731D01*
X114268000Y-88205731D01*
X114149415Y-88228044D01*
X114040502Y-88298128D01*
X113967436Y-88405063D01*
X113941731Y-88532000D01*
X113941731Y-89319000D01*
X113964044Y-89437585D01*
X114034128Y-89546498D01*
X114141063Y-89619564D01*
X114268000Y-89645269D01*
X115132000Y-89645269D01*
X115250585Y-89622956D01*
X115359498Y-89552872D01*
X115419539Y-89465000D01*
X115841606Y-89465000D01*
X115846044Y-89488585D01*
X115916128Y-89597498D01*
X116023063Y-89670564D01*
X116150000Y-89696269D01*
X117650000Y-89696269D01*
X117768585Y-89673956D01*
X117877498Y-89603872D01*
X117950564Y-89496937D01*
X117957031Y-89465000D01*
X118630000Y-89465000D01*
X118781160Y-89434932D01*
X118909307Y-89349307D01*
X119514309Y-88744305D01*
X119599934Y-88616158D01*
X119630002Y-88464998D01*
X119630002Y-82295000D01*
X120313797Y-82295000D01*
X120280107Y-82376133D01*
X120279928Y-82581701D01*
X120235066Y-82648842D01*
X120204998Y-82800002D01*
X120204998Y-89899998D01*
X120235066Y-90051158D01*
X120320691Y-90179305D01*
X120760693Y-90619307D01*
X120888840Y-90704932D01*
X121040000Y-90735000D01*
X121241606Y-90735000D01*
X121246044Y-90758585D01*
X121316128Y-90867498D01*
X121423063Y-90940564D01*
X121550000Y-90966269D01*
X123050000Y-90966269D01*
X123168585Y-90943956D01*
X123277498Y-90873872D01*
X123350564Y-90766937D01*
X123357031Y-90735000D01*
X124444742Y-90735000D01*
X124464044Y-90837585D01*
X124534128Y-90946498D01*
X124641063Y-91019564D01*
X124768000Y-91045269D01*
X125632000Y-91045269D01*
X125750585Y-91022956D01*
X125859498Y-90952872D01*
X125932564Y-90845937D01*
X125958269Y-90719000D01*
X125958269Y-89932000D01*
X125935956Y-89813415D01*
X125865872Y-89704502D01*
X125758937Y-89631436D01*
X125632000Y-89605731D01*
X124768000Y-89605731D01*
X124649415Y-89628044D01*
X124540502Y-89698128D01*
X124467436Y-89805063D01*
X124441731Y-89932000D01*
X124441731Y-89945000D01*
X124269594Y-89945000D01*
X124319893Y-89823867D01*
X124320108Y-89577215D01*
X124308863Y-89550000D01*
X131028731Y-89550000D01*
X131028731Y-90700000D01*
X131051044Y-90818585D01*
X131121128Y-90927498D01*
X131228063Y-91000564D01*
X131355000Y-91026269D01*
X132055000Y-91026269D01*
X132173585Y-91003956D01*
X132282498Y-90933872D01*
X132355564Y-90826937D01*
X132381269Y-90700000D01*
X132381269Y-90608160D01*
X132423339Y-90650304D01*
X132651133Y-90744893D01*
X132897785Y-90745108D01*
X133125743Y-90650917D01*
X133300304Y-90476661D01*
X133373099Y-90301352D01*
X133389932Y-90276160D01*
X133420000Y-90125000D01*
X133389932Y-89973840D01*
X133372772Y-89948158D01*
X133300917Y-89774257D01*
X133126661Y-89599696D01*
X132898867Y-89505107D01*
X132652215Y-89504892D01*
X132424257Y-89599083D01*
X132381269Y-89641996D01*
X132381269Y-89550000D01*
X132358956Y-89431415D01*
X132288872Y-89322502D01*
X132181937Y-89249436D01*
X132055000Y-89223731D01*
X131355000Y-89223731D01*
X131236415Y-89246044D01*
X131127502Y-89316128D01*
X131054436Y-89423063D01*
X131028731Y-89550000D01*
X124308863Y-89550000D01*
X124225917Y-89349257D01*
X124051661Y-89174696D01*
X123823867Y-89080107D01*
X123638560Y-89079945D01*
X123376269Y-88817655D01*
X123376269Y-88770000D01*
X123353956Y-88651415D01*
X123283872Y-88542502D01*
X123176937Y-88469436D01*
X123050000Y-88443731D01*
X121550000Y-88443731D01*
X121431415Y-88466044D01*
X121322502Y-88536128D01*
X121249436Y-88643063D01*
X121223731Y-88770000D01*
X121223731Y-89370000D01*
X121246044Y-89488585D01*
X121316128Y-89597498D01*
X121423063Y-89670564D01*
X121550000Y-89696269D01*
X123050000Y-89696269D01*
X123080007Y-89690623D01*
X123079982Y-89719802D01*
X123050000Y-89713731D01*
X121550000Y-89713731D01*
X121431415Y-89736044D01*
X121322502Y-89806128D01*
X121249436Y-89913063D01*
X121242969Y-89945000D01*
X121203614Y-89945000D01*
X120994998Y-89736384D01*
X120994998Y-86898146D01*
X121130000Y-86925000D01*
X121241606Y-86925000D01*
X121246044Y-86948585D01*
X121316128Y-87057498D01*
X121423063Y-87130564D01*
X121550000Y-87156269D01*
X123050000Y-87156269D01*
X123168585Y-87133956D01*
X123277498Y-87063872D01*
X123350564Y-86956937D01*
X123357031Y-86925000D01*
X123800000Y-86925000D01*
X123800000Y-89000000D01*
X123807879Y-89038906D01*
X123830273Y-89071681D01*
X123863654Y-89093161D01*
X123900000Y-89100000D01*
X141854977Y-89100000D01*
X141854892Y-89197785D01*
X141865613Y-89223731D01*
X141355000Y-89223731D01*
X141236415Y-89246044D01*
X141127502Y-89316128D01*
X141054436Y-89423063D01*
X141028731Y-89550000D01*
X141028731Y-90700000D01*
X141051044Y-90818585D01*
X141121128Y-90927498D01*
X141228063Y-91000564D01*
X141355000Y-91026269D01*
X142055000Y-91026269D01*
X142173585Y-91003956D01*
X142282498Y-90933872D01*
X142355564Y-90826937D01*
X142381269Y-90700000D01*
X142381269Y-90498861D01*
X142426160Y-90489932D01*
X142554307Y-90404307D01*
X142779307Y-90179307D01*
X142864932Y-90051160D01*
X142895000Y-89900000D01*
X142895000Y-89552230D01*
X142929307Y-89529307D01*
X142993063Y-89433889D01*
X143000304Y-89426661D01*
X143004262Y-89417128D01*
X143014932Y-89401160D01*
X143018646Y-89382489D01*
X143094893Y-89198867D01*
X143094979Y-89100000D01*
X151879934Y-89100000D01*
X151879892Y-89147785D01*
X151911272Y-89223731D01*
X151355000Y-89223731D01*
X151236415Y-89246044D01*
X151127502Y-89316128D01*
X151054436Y-89423063D01*
X151028731Y-89550000D01*
X151028731Y-90700000D01*
X151051044Y-90818585D01*
X151121128Y-90927498D01*
X151228063Y-91000564D01*
X151355000Y-91026269D01*
X152055000Y-91026269D01*
X152173585Y-91003956D01*
X152282498Y-90933872D01*
X152355564Y-90826937D01*
X152381269Y-90700000D01*
X152381269Y-90518753D01*
X152526160Y-90489932D01*
X152654307Y-90404307D01*
X152779307Y-90279307D01*
X152800369Y-90247785D01*
X152864932Y-90151160D01*
X152895000Y-90000000D01*
X152895000Y-89506737D01*
X153025304Y-89376661D01*
X153119893Y-89148867D01*
X153119936Y-89100000D01*
X161804977Y-89100000D01*
X161804892Y-89197785D01*
X161815613Y-89223731D01*
X161355000Y-89223731D01*
X161236415Y-89246044D01*
X161127502Y-89316128D01*
X161054436Y-89423063D01*
X161028731Y-89550000D01*
X161028731Y-90700000D01*
X161051044Y-90818585D01*
X161121128Y-90927498D01*
X161228063Y-91000564D01*
X161355000Y-91026269D01*
X162055000Y-91026269D01*
X162173585Y-91003956D01*
X162282498Y-90933872D01*
X162355564Y-90826937D01*
X162381269Y-90700000D01*
X162381269Y-90518753D01*
X162526160Y-90489932D01*
X162654307Y-90404307D01*
X162704307Y-90354307D01*
X162727158Y-90320108D01*
X162789932Y-90226160D01*
X162820000Y-90075000D01*
X162820000Y-89556737D01*
X162950304Y-89426661D01*
X163044893Y-89198867D01*
X163044979Y-89100000D01*
X171605000Y-89100000D01*
X171605000Y-104561097D01*
X171475677Y-105211245D01*
X171129435Y-105729435D01*
X170611245Y-106075677D01*
X169961096Y-106205000D01*
X105038903Y-106205000D01*
X104388755Y-106075677D01*
X103870565Y-105729435D01*
X103524323Y-105211245D01*
X103395000Y-104561096D01*
X103395000Y-103920824D01*
X104379719Y-103920824D01*
X104625830Y-104516458D01*
X105081145Y-104972569D01*
X105676348Y-105219718D01*
X106320824Y-105220281D01*
X106916458Y-104974170D01*
X107372569Y-104518855D01*
X107619718Y-103923652D01*
X107619720Y-103920824D01*
X167379719Y-103920824D01*
X167625830Y-104516458D01*
X168081145Y-104972569D01*
X168676348Y-105219718D01*
X169320824Y-105220281D01*
X169916458Y-104974170D01*
X170372569Y-104518855D01*
X170619718Y-103923652D01*
X170620281Y-103279176D01*
X170374170Y-102683542D01*
X169918855Y-102227431D01*
X169323652Y-101980282D01*
X168679176Y-101979719D01*
X168083542Y-102225830D01*
X167627431Y-102681145D01*
X167380282Y-103276348D01*
X167379719Y-103920824D01*
X107619720Y-103920824D01*
X107620281Y-103279176D01*
X107374170Y-102683542D01*
X106918855Y-102227431D01*
X106323652Y-101980282D01*
X105679176Y-101979719D01*
X105083542Y-102225830D01*
X104627431Y-102681145D01*
X104380282Y-103276348D01*
X104379719Y-103920824D01*
X103395000Y-103920824D01*
X103395000Y-99871314D01*
X104629763Y-99871314D01*
X104837893Y-100375029D01*
X105222944Y-100760752D01*
X105726295Y-100969762D01*
X106271314Y-100970237D01*
X106775029Y-100762107D01*
X107160752Y-100377056D01*
X107369762Y-99873705D01*
X107370237Y-99328686D01*
X107162107Y-98824971D01*
X106777056Y-98439248D01*
X106273705Y-98230238D01*
X105728686Y-98229763D01*
X105224971Y-98437893D01*
X104839248Y-98822944D01*
X104630238Y-99326295D01*
X104629763Y-99871314D01*
X103395000Y-99871314D01*
X103395000Y-82950000D01*
X107455000Y-82950000D01*
X107455000Y-96299500D01*
X107498389Y-96517630D01*
X107621949Y-96702551D01*
X108805731Y-97886333D01*
X108805731Y-98232000D01*
X108828044Y-98350585D01*
X108898128Y-98459498D01*
X108955500Y-98498699D01*
X108955500Y-98901311D01*
X108904502Y-98934128D01*
X108831436Y-99041063D01*
X108805731Y-99168000D01*
X108805731Y-100032000D01*
X108828044Y-100150585D01*
X108898128Y-100259498D01*
X109005063Y-100332564D01*
X109132000Y-100358269D01*
X109919000Y-100358269D01*
X110037585Y-100335956D01*
X110146498Y-100265872D01*
X110219564Y-100158937D01*
X110245269Y-100032000D01*
X110245269Y-99168000D01*
X110222956Y-99049415D01*
X110152872Y-98940502D01*
X110095500Y-98901301D01*
X110095500Y-98498689D01*
X110146498Y-98465872D01*
X110219564Y-98358937D01*
X110245269Y-98232000D01*
X110245269Y-97368000D01*
X110222956Y-97249415D01*
X110152872Y-97140502D01*
X110045937Y-97067436D01*
X109919000Y-97041731D01*
X109573333Y-97041731D01*
X108595000Y-96063398D01*
X108595000Y-83186102D01*
X108954041Y-82827061D01*
X108970800Y-82843849D01*
X109081902Y-82889982D01*
X108971828Y-82935464D01*
X108776151Y-83130800D01*
X108670121Y-83386149D01*
X108669879Y-83662638D01*
X108775464Y-83918172D01*
X108970800Y-84113849D01*
X109081902Y-84159982D01*
X108971828Y-84205464D01*
X108776151Y-84400800D01*
X108670121Y-84656149D01*
X108669879Y-84932638D01*
X108775464Y-85188172D01*
X108970800Y-85383849D01*
X109081902Y-85429982D01*
X108971828Y-85475464D01*
X108776151Y-85670800D01*
X108670121Y-85926149D01*
X108669879Y-86202638D01*
X108775464Y-86458172D01*
X108970800Y-86653849D01*
X109081902Y-86699982D01*
X108971828Y-86745464D01*
X108776151Y-86940800D01*
X108670121Y-87196149D01*
X108669879Y-87472638D01*
X108775464Y-87728172D01*
X108970800Y-87923849D01*
X109081902Y-87969982D01*
X108971828Y-88015464D01*
X108776151Y-88210800D01*
X108670121Y-88466149D01*
X108669879Y-88742638D01*
X108775464Y-88998172D01*
X108970800Y-89193849D01*
X109081902Y-89239982D01*
X108971828Y-89285464D01*
X108776151Y-89480800D01*
X108670121Y-89736149D01*
X108669879Y-90012638D01*
X108775464Y-90268172D01*
X108970800Y-90463849D01*
X109081902Y-90509982D01*
X108971828Y-90555464D01*
X108776151Y-90750800D01*
X108670121Y-91006149D01*
X108669879Y-91282638D01*
X108775464Y-91538172D01*
X108970800Y-91733849D01*
X109081902Y-91779982D01*
X108971828Y-91825464D01*
X108776151Y-92020800D01*
X108670121Y-92276149D01*
X108669879Y-92552638D01*
X108775464Y-92808172D01*
X108970800Y-93003849D01*
X109226149Y-93109879D01*
X109502638Y-93110121D01*
X109758172Y-93004536D01*
X109953849Y-92809200D01*
X109999982Y-92698098D01*
X110045464Y-92808172D01*
X110240800Y-93003849D01*
X110496149Y-93109879D01*
X110772638Y-93110121D01*
X111028172Y-93004536D01*
X111223849Y-92809200D01*
X111329879Y-92553851D01*
X111330121Y-92277362D01*
X111224536Y-92021828D01*
X111029200Y-91826151D01*
X110918098Y-91780018D01*
X111028172Y-91734536D01*
X111223849Y-91539200D01*
X111329879Y-91283851D01*
X111330121Y-91007362D01*
X111224536Y-90751828D01*
X111029200Y-90556151D01*
X110918098Y-90510018D01*
X111028172Y-90464536D01*
X111223849Y-90269200D01*
X111329879Y-90013851D01*
X111330121Y-89737362D01*
X111224536Y-89481828D01*
X111029200Y-89286151D01*
X110918098Y-89240018D01*
X111028172Y-89194536D01*
X111223849Y-88999200D01*
X111329879Y-88743851D01*
X111330121Y-88467362D01*
X111224536Y-88211828D01*
X111029200Y-88016151D01*
X110918098Y-87970018D01*
X111028172Y-87924536D01*
X111223849Y-87729200D01*
X111329879Y-87473851D01*
X111330121Y-87197362D01*
X111224536Y-86941828D01*
X111029200Y-86746151D01*
X110918098Y-86700018D01*
X111028172Y-86654536D01*
X111223849Y-86459200D01*
X111329879Y-86203851D01*
X111330121Y-85927362D01*
X111224536Y-85671828D01*
X111029200Y-85476151D01*
X110918098Y-85430018D01*
X111028172Y-85384536D01*
X111223849Y-85189200D01*
X111329879Y-84933851D01*
X111330121Y-84657362D01*
X111224536Y-84401828D01*
X111029200Y-84206151D01*
X110918098Y-84160018D01*
X111028172Y-84114536D01*
X111223849Y-83919200D01*
X111329879Y-83663851D01*
X111330121Y-83387362D01*
X111224536Y-83131828D01*
X111029200Y-82936151D01*
X110918098Y-82890018D01*
X111028172Y-82844536D01*
X111223849Y-82649200D01*
X111329879Y-82393851D01*
X111330121Y-82117362D01*
X111224536Y-81861828D01*
X111205000Y-81842258D01*
X111205000Y-81398016D01*
X111223849Y-81379200D01*
X111329879Y-81123851D01*
X111330121Y-80847362D01*
X111224536Y-80591828D01*
X111029200Y-80396151D01*
X110773851Y-80290121D01*
X110497362Y-80289879D01*
X110241828Y-80395464D01*
X110046151Y-80590800D01*
X110000018Y-80701902D01*
X109954536Y-80591828D01*
X109935000Y-80572258D01*
X109935000Y-76836442D01*
X109937585Y-76835956D01*
X110046498Y-76765872D01*
X110119564Y-76658937D01*
X110145269Y-76532000D01*
X110145269Y-75668000D01*
X110122956Y-75549415D01*
X110052872Y-75440502D01*
X109995500Y-75401301D01*
X109995500Y-74898689D01*
X110046498Y-74865872D01*
X110119564Y-74758937D01*
X110145269Y-74632000D01*
X110145269Y-73768000D01*
X110122956Y-73649415D01*
X110052872Y-73540502D01*
X109945937Y-73467436D01*
X109819000Y-73441731D01*
X109032000Y-73441731D01*
X108913415Y-73464044D01*
X108804502Y-73534128D01*
X108731436Y-73641063D01*
X108705731Y-73768000D01*
X108705731Y-74632000D01*
X108728044Y-74750585D01*
X108798128Y-74859498D01*
X108855500Y-74898699D01*
X108855500Y-75401311D01*
X108804502Y-75434128D01*
X108731436Y-75541063D01*
X108705731Y-75668000D01*
X108705731Y-76532000D01*
X108728044Y-76650585D01*
X108795000Y-76754637D01*
X108795000Y-80571984D01*
X108776151Y-80590800D01*
X108670121Y-80846149D01*
X108669879Y-81122638D01*
X108775464Y-81378172D01*
X108795000Y-81397742D01*
X108795000Y-81685000D01*
X108720000Y-81685000D01*
X108501870Y-81728389D01*
X108316949Y-81851949D01*
X107621949Y-82546949D01*
X107498389Y-82731870D01*
X107455000Y-82950000D01*
X103395000Y-82950000D01*
X103395000Y-75271314D01*
X104629763Y-75271314D01*
X104837893Y-75775029D01*
X105222944Y-76160752D01*
X105726295Y-76369762D01*
X106271314Y-76370237D01*
X106775029Y-76162107D01*
X107160752Y-75777056D01*
X107369762Y-75273705D01*
X107370237Y-74728686D01*
X107162107Y-74224971D01*
X106777056Y-73839248D01*
X106273705Y-73630238D01*
X105728686Y-73629763D01*
X105224971Y-73837893D01*
X104839248Y-74222944D01*
X104630238Y-74726295D01*
X104629763Y-75271314D01*
X103395000Y-75271314D01*
X103395000Y-71320824D01*
X104379719Y-71320824D01*
X104625830Y-71916458D01*
X105081145Y-72372569D01*
X105676348Y-72619718D01*
X106320824Y-72620281D01*
X106916458Y-72374170D01*
X107372569Y-71918855D01*
X107619718Y-71323652D01*
X107620281Y-70679176D01*
X107374170Y-70083542D01*
X106918855Y-69627431D01*
X106323652Y-69380282D01*
X105679176Y-69379719D01*
X105083542Y-69625830D01*
X104627431Y-70081145D01*
X104380282Y-70676348D01*
X104379719Y-71320824D01*
X103395000Y-71320824D01*
X103395000Y-70038904D01*
X103524323Y-69388755D01*
X103870565Y-68870565D01*
X103874403Y-68868000D01*
X111554731Y-68868000D01*
X111554731Y-69732000D01*
X111577044Y-69850585D01*
X111647128Y-69959498D01*
X111754063Y-70032564D01*
X111881000Y-70058269D01*
X112147762Y-70058269D01*
X111977515Y-70228515D01*
X111886471Y-70364773D01*
X111854500Y-70525500D01*
X111854500Y-70646717D01*
X111762415Y-70664044D01*
X111653502Y-70734128D01*
X111580436Y-70841063D01*
X111554731Y-70968000D01*
X111554731Y-71832000D01*
X111577044Y-71950585D01*
X111647128Y-72059498D01*
X111754063Y-72132564D01*
X111881000Y-72158269D01*
X112668000Y-72158269D01*
X112786585Y-72135956D01*
X112895498Y-72065872D01*
X112968564Y-71958937D01*
X112994269Y-71832000D01*
X112994269Y-70968000D01*
X112971956Y-70849415D01*
X112901872Y-70740502D01*
X112835278Y-70695000D01*
X113618611Y-70695000D01*
X113599436Y-70723063D01*
X113573731Y-70850000D01*
X113573731Y-72050000D01*
X113596044Y-72168585D01*
X113666128Y-72277498D01*
X113739057Y-72327329D01*
X113686334Y-72380052D01*
X113502215Y-72379892D01*
X113274257Y-72474083D01*
X113099696Y-72648339D01*
X113005107Y-72876133D01*
X113004892Y-73122785D01*
X113099083Y-73350743D01*
X113273339Y-73525304D01*
X113501133Y-73619893D01*
X113747785Y-73620108D01*
X113975743Y-73525917D01*
X114150304Y-73351661D01*
X114244893Y-73123867D01*
X114245055Y-72938559D01*
X114779307Y-72404307D01*
X114798041Y-72376269D01*
X115100000Y-72376269D01*
X115218585Y-72353956D01*
X115327498Y-72283872D01*
X115400564Y-72176937D01*
X115426269Y-72050000D01*
X115426269Y-70850000D01*
X115403956Y-70731415D01*
X115380523Y-70695000D01*
X115618611Y-70695000D01*
X115599436Y-70723063D01*
X115573731Y-70850000D01*
X115573731Y-72050000D01*
X115596044Y-72168585D01*
X115655463Y-72260923D01*
X115561334Y-72355052D01*
X115377215Y-72354892D01*
X115149257Y-72449083D01*
X114974696Y-72623339D01*
X114880107Y-72851133D01*
X114879892Y-73097785D01*
X114974083Y-73325743D01*
X115148339Y-73500304D01*
X115376133Y-73594893D01*
X115622785Y-73595108D01*
X115850743Y-73500917D01*
X116025304Y-73326661D01*
X116119893Y-73098867D01*
X116120055Y-72913559D01*
X116657345Y-72376269D01*
X117100000Y-72376269D01*
X117218585Y-72353956D01*
X117327498Y-72283872D01*
X117400564Y-72176937D01*
X117426269Y-72050000D01*
X117426269Y-70850000D01*
X117403956Y-70731415D01*
X117333872Y-70622502D01*
X117226937Y-70549436D01*
X117100000Y-70523731D01*
X116370239Y-70523731D01*
X116617701Y-70276269D01*
X117100000Y-70276269D01*
X117218585Y-70253956D01*
X117327498Y-70183872D01*
X117400564Y-70076937D01*
X117426269Y-69950000D01*
X117426269Y-68750000D01*
X117403956Y-68631415D01*
X117333872Y-68522502D01*
X117226937Y-68449436D01*
X117100000Y-68423731D01*
X115900000Y-68423731D01*
X115781415Y-68446044D01*
X115672502Y-68516128D01*
X115599436Y-68623063D01*
X115573731Y-68750000D01*
X115573731Y-69855000D01*
X115426269Y-69855000D01*
X115426269Y-68750000D01*
X115403956Y-68631415D01*
X115333872Y-68522502D01*
X115226937Y-68449436D01*
X115100000Y-68423731D01*
X113900000Y-68423731D01*
X113781415Y-68446044D01*
X113672502Y-68516128D01*
X113599436Y-68623063D01*
X113573731Y-68750000D01*
X113573731Y-68930000D01*
X112994269Y-68930000D01*
X112994269Y-68868000D01*
X112971956Y-68749415D01*
X112901872Y-68640502D01*
X112794937Y-68567436D01*
X112668000Y-68541731D01*
X111881000Y-68541731D01*
X111762415Y-68564044D01*
X111653502Y-68634128D01*
X111580436Y-68741063D01*
X111554731Y-68868000D01*
X103874403Y-68868000D01*
X104388755Y-68524323D01*
X105038903Y-68395000D01*
X123800000Y-68395000D01*
X123800000Y-85080064D01*
G36*
X133800000Y-87900000D02*
X125958269Y-87900000D01*
X125958269Y-87181000D01*
X125935956Y-87062415D01*
X125865872Y-86953502D01*
X125758937Y-86880436D01*
X125632000Y-86854731D01*
X125100000Y-86854731D01*
X125100000Y-86745269D01*
X125632000Y-86745269D01*
X125750585Y-86722956D01*
X125859498Y-86652872D01*
X125932564Y-86545937D01*
X125958269Y-86419000D01*
X125958269Y-85632000D01*
X125935956Y-85513415D01*
X125865872Y-85404502D01*
X125758937Y-85331436D01*
X125632000Y-85305731D01*
X125100000Y-85305731D01*
X125100000Y-77261412D01*
X125979772Y-77261412D01*
X126180306Y-77746743D01*
X126551304Y-78118389D01*
X127036284Y-78319770D01*
X127561412Y-78320228D01*
X128046743Y-78119694D01*
X128418389Y-77748696D01*
X128619770Y-77263716D01*
X128620228Y-76738588D01*
X128419694Y-76253257D01*
X128048696Y-75881611D01*
X127563716Y-75680230D01*
X127038588Y-75679772D01*
X126553257Y-75880306D01*
X126181611Y-76251304D01*
X125980230Y-76736284D01*
X125979772Y-77261412D01*
X125100000Y-77261412D01*
X125100000Y-68395000D01*
X133800000Y-68395000D01*
X133800000Y-87900000D01*
X133800000Y-87900000D01*
G37*
X133800000Y-87900000D02*
X125958269Y-87900000D01*
X125958269Y-87181000D01*
X125935956Y-87062415D01*
X125865872Y-86953502D01*
X125758937Y-86880436D01*
X125632000Y-86854731D01*
X125100000Y-86854731D01*
X125100000Y-86745269D01*
X125632000Y-86745269D01*
X125750585Y-86722956D01*
X125859498Y-86652872D01*
X125932564Y-86545937D01*
X125958269Y-86419000D01*
X125958269Y-85632000D01*
X125935956Y-85513415D01*
X125865872Y-85404502D01*
X125758937Y-85331436D01*
X125632000Y-85305731D01*
X125100000Y-85305731D01*
X125100000Y-77261412D01*
X125979772Y-77261412D01*
X126180306Y-77746743D01*
X126551304Y-78118389D01*
X127036284Y-78319770D01*
X127561412Y-78320228D01*
X128046743Y-78119694D01*
X128418389Y-77748696D01*
X128619770Y-77263716D01*
X128620228Y-76738588D01*
X128419694Y-76253257D01*
X128048696Y-75881611D01*
X127563716Y-75680230D01*
X127038588Y-75679772D01*
X126553257Y-75880306D01*
X126181611Y-76251304D01*
X125980230Y-76736284D01*
X125979772Y-77261412D01*
X125100000Y-77261412D01*
X125100000Y-68395000D01*
X133800000Y-68395000D01*
X133800000Y-87900000D01*
G36*
X143800000Y-87900000D02*
X135700000Y-87900000D01*
X135700000Y-77261412D01*
X135979772Y-77261412D01*
X136180306Y-77746743D01*
X136551304Y-78118389D01*
X137036284Y-78319770D01*
X137561412Y-78320228D01*
X138046743Y-78119694D01*
X138418389Y-77748696D01*
X138619770Y-77263716D01*
X138620228Y-76738588D01*
X138419694Y-76253257D01*
X138048696Y-75881611D01*
X137563716Y-75680230D01*
X137038588Y-75679772D01*
X136553257Y-75880306D01*
X136181611Y-76251304D01*
X135980230Y-76736284D01*
X135979772Y-77261412D01*
X135700000Y-77261412D01*
X135700000Y-68395000D01*
X143800000Y-68395000D01*
X143800000Y-87900000D01*
X143800000Y-87900000D01*
G37*
X143800000Y-87900000D02*
X135700000Y-87900000D01*
X135700000Y-77261412D01*
X135979772Y-77261412D01*
X136180306Y-77746743D01*
X136551304Y-78118389D01*
X137036284Y-78319770D01*
X137561412Y-78320228D01*
X138046743Y-78119694D01*
X138418389Y-77748696D01*
X138619770Y-77263716D01*
X138620228Y-76738588D01*
X138419694Y-76253257D01*
X138048696Y-75881611D01*
X137563716Y-75680230D01*
X137038588Y-75679772D01*
X136553257Y-75880306D01*
X136181611Y-76251304D01*
X135980230Y-76736284D01*
X135979772Y-77261412D01*
X135700000Y-77261412D01*
X135700000Y-68395000D01*
X143800000Y-68395000D01*
X143800000Y-87900000D01*
G36*
X153800000Y-87900000D02*
X145700000Y-87900000D01*
X145700000Y-77261412D01*
X145979772Y-77261412D01*
X146180306Y-77746743D01*
X146551304Y-78118389D01*
X147036284Y-78319770D01*
X147561412Y-78320228D01*
X148046743Y-78119694D01*
X148418389Y-77748696D01*
X148619770Y-77263716D01*
X148620228Y-76738588D01*
X148419694Y-76253257D01*
X148048696Y-75881611D01*
X147563716Y-75680230D01*
X147038588Y-75679772D01*
X146553257Y-75880306D01*
X146181611Y-76251304D01*
X145980230Y-76736284D01*
X145979772Y-77261412D01*
X145700000Y-77261412D01*
X145700000Y-68395000D01*
X153800000Y-68395000D01*
X153800000Y-87900000D01*
X153800000Y-87900000D01*
G37*
X153800000Y-87900000D02*
X145700000Y-87900000D01*
X145700000Y-77261412D01*
X145979772Y-77261412D01*
X146180306Y-77746743D01*
X146551304Y-78118389D01*
X147036284Y-78319770D01*
X147561412Y-78320228D01*
X148046743Y-78119694D01*
X148418389Y-77748696D01*
X148619770Y-77263716D01*
X148620228Y-76738588D01*
X148419694Y-76253257D01*
X148048696Y-75881611D01*
X147563716Y-75680230D01*
X147038588Y-75679772D01*
X146553257Y-75880306D01*
X146181611Y-76251304D01*
X145980230Y-76736284D01*
X145979772Y-77261412D01*
X145700000Y-77261412D01*
X145700000Y-68395000D01*
X153800000Y-68395000D01*
X153800000Y-87900000D01*
G36*
X163800000Y-87900000D02*
X155700000Y-87900000D01*
X155700000Y-77261412D01*
X155979772Y-77261412D01*
X156180306Y-77746743D01*
X156551304Y-78118389D01*
X157036284Y-78319770D01*
X157561412Y-78320228D01*
X158046743Y-78119694D01*
X158418389Y-77748696D01*
X158619770Y-77263716D01*
X158620228Y-76738588D01*
X158419694Y-76253257D01*
X158048696Y-75881611D01*
X157563716Y-75680230D01*
X157038588Y-75679772D01*
X156553257Y-75880306D01*
X156181611Y-76251304D01*
X155980230Y-76736284D01*
X155979772Y-77261412D01*
X155700000Y-77261412D01*
X155700000Y-68395000D01*
X163800000Y-68395000D01*
X163800000Y-87900000D01*
X163800000Y-87900000D01*
G37*
X163800000Y-87900000D02*
X155700000Y-87900000D01*
X155700000Y-77261412D01*
X155979772Y-77261412D01*
X156180306Y-77746743D01*
X156551304Y-78118389D01*
X157036284Y-78319770D01*
X157561412Y-78320228D01*
X158046743Y-78119694D01*
X158418389Y-77748696D01*
X158619770Y-77263716D01*
X158620228Y-76738588D01*
X158419694Y-76253257D01*
X158048696Y-75881611D01*
X157563716Y-75680230D01*
X157038588Y-75679772D01*
X156553257Y-75880306D01*
X156181611Y-76251304D01*
X155980230Y-76736284D01*
X155979772Y-77261412D01*
X155700000Y-77261412D01*
X155700000Y-68395000D01*
X163800000Y-68395000D01*
X163800000Y-87900000D01*
M02*
