G04 #@! TF.FileFunction,Copper,L2,Inr,Signal*
%FSLAX46Y46*%
G04 Gerber Fmt 4.6, Leading zero omitted, Abs format (unit mm)*
G04 Created by KiCad (PCBNEW 4.0.6-e0-6349~53~ubuntu14.04.1) date Sun Apr  2 15:59:59 2017*
%MOMM*%
%LPD*%
G01*
G04 APERTURE LIST*
%ADD10C,0.100000*%
%ADD11C,2.000000*%
%ADD12C,1.524000*%
%ADD13C,0.750000*%
%ADD14C,0.600000*%
%ADD15C,0.250000*%
%ADD16C,0.150000*%
%ADD17C,0.500000*%
%ADD18C,0.200000*%
G04 APERTURE END LIST*
D10*
D11*
X162300000Y-77000000D03*
X157300000Y-77000000D03*
X127300000Y-77000000D03*
X132300000Y-77000000D03*
X152300000Y-77000000D03*
X147300000Y-77000000D03*
X142300000Y-77000000D03*
X137300000Y-77000000D03*
D12*
X120100000Y-97600000D03*
X120100000Y-100140000D03*
X120100000Y-95060000D03*
D13*
X109365000Y-80985000D03*
X110635000Y-80985000D03*
X109365000Y-92415000D03*
X109365000Y-82255000D03*
X110635000Y-82255000D03*
X109365000Y-83525000D03*
X110635000Y-83525000D03*
X109365000Y-84795000D03*
X110635000Y-84795000D03*
X109365000Y-86065000D03*
X110635000Y-86065000D03*
X109365000Y-87335000D03*
X110635000Y-87335000D03*
X109365000Y-88605000D03*
X110635000Y-88605000D03*
X109365000Y-89875000D03*
X110635000Y-89875000D03*
X109365000Y-91145000D03*
X110635000Y-91145000D03*
X110635000Y-92415000D03*
D11*
X127300000Y-97600000D03*
X132300000Y-97600000D03*
X162300000Y-97600000D03*
X157300000Y-97600000D03*
X137300000Y-97600000D03*
X142300000Y-97600000D03*
X147300000Y-97600000D03*
X152300000Y-97600000D03*
D14*
X160000000Y-92500000D03*
X160000000Y-93500000D03*
X160000000Y-94500000D03*
X160000000Y-95500000D03*
X161000000Y-95500000D03*
X161000000Y-94500000D03*
X161000000Y-93500000D03*
X161000000Y-92500000D03*
X162000000Y-92500000D03*
X162000000Y-93500000D03*
X162000000Y-94500000D03*
X162000000Y-95500000D03*
X150000000Y-92500000D03*
X150000000Y-93500000D03*
X150000000Y-94500000D03*
X150000000Y-95500000D03*
X151000000Y-95500000D03*
X151000000Y-94500000D03*
X151000000Y-93500000D03*
X151000000Y-92500000D03*
X152000000Y-92500000D03*
X152000000Y-93500000D03*
X152000000Y-94500000D03*
X152000000Y-95500000D03*
X140000000Y-92500000D03*
X140000000Y-93500000D03*
X140000000Y-94500000D03*
X140000000Y-95500000D03*
X141000000Y-95500000D03*
X141000000Y-94500000D03*
X141000000Y-93500000D03*
X141000000Y-92500000D03*
X142000000Y-92500000D03*
X142000000Y-93500000D03*
X142000000Y-94500000D03*
X142000000Y-95500000D03*
X130000000Y-92500000D03*
X130000000Y-93500000D03*
X130000000Y-94500000D03*
X130000000Y-95500000D03*
X131000000Y-95500000D03*
X131000000Y-94500000D03*
X131000000Y-93500000D03*
X131000000Y-92500000D03*
X132000000Y-92500000D03*
X132000000Y-93500000D03*
X132000000Y-94500000D03*
X132000000Y-95500000D03*
X162425000Y-89075000D03*
X118400000Y-87600000D03*
X152500000Y-89025000D03*
X118225000Y-84050000D03*
X142475000Y-89075000D03*
X123725000Y-85700000D03*
X132775000Y-90125000D03*
X123700000Y-89700000D03*
X122700000Y-75900000D03*
X120200000Y-76500000D03*
X117700000Y-77100000D03*
X115100000Y-77900000D03*
X115400000Y-82275000D03*
X116400000Y-79500000D03*
X122500000Y-82500000D03*
X113900000Y-79600000D03*
X120900000Y-82500000D03*
X162000000Y-83000000D03*
X162000000Y-82000000D03*
X162000000Y-81000000D03*
X162000000Y-80000000D03*
X161000000Y-80000000D03*
X161000000Y-81000000D03*
X161000000Y-82000000D03*
X161000000Y-83000000D03*
X160000000Y-83000000D03*
X160000000Y-82000000D03*
X160000000Y-81000000D03*
X160000000Y-80000000D03*
X130000000Y-80000000D03*
X130000000Y-81000000D03*
X130000000Y-82000000D03*
X130000000Y-83000000D03*
X131000000Y-83000000D03*
X131000000Y-82000000D03*
X131000000Y-81000000D03*
X131000000Y-80000000D03*
X132000000Y-80000000D03*
X132000000Y-81000000D03*
X132000000Y-82000000D03*
X132000000Y-83000000D03*
X152000000Y-83000000D03*
X152000000Y-82000000D03*
X152000000Y-81000000D03*
X152000000Y-80000000D03*
X151000000Y-80000000D03*
X151000000Y-81000000D03*
X151000000Y-82000000D03*
X151000000Y-83000000D03*
X150000000Y-83000000D03*
X150000000Y-82000000D03*
X150000000Y-81000000D03*
X150000000Y-80000000D03*
X142000000Y-83000000D03*
X142000000Y-82000000D03*
X142000000Y-81000000D03*
X142000000Y-80000000D03*
X141000000Y-80000000D03*
X141000000Y-81000000D03*
X141000000Y-82000000D03*
X141000000Y-83000000D03*
X140000000Y-83000000D03*
X140000000Y-82000000D03*
X140000000Y-81000000D03*
X140000000Y-80000000D03*
D15*
X160000000Y-93500000D02*
X160000000Y-92500000D01*
X160000000Y-95500000D02*
X160000000Y-94500000D01*
X161000000Y-94500000D02*
X161000000Y-95500000D01*
X161000000Y-92500000D02*
X161000000Y-93500000D01*
X162000000Y-93500000D02*
X162000000Y-92500000D01*
X162000000Y-95500000D02*
X162000000Y-94500000D01*
X150000000Y-93500000D02*
X150000000Y-92500000D01*
X150000000Y-95500000D02*
X150000000Y-94500000D01*
X151000000Y-94500000D02*
X151000000Y-95500000D01*
X151000000Y-92500000D02*
X151000000Y-93500000D01*
X152000000Y-93500000D02*
X152000000Y-92500000D01*
X152000000Y-95500000D02*
X152000000Y-94500000D01*
X140000000Y-93500000D02*
X140000000Y-92500000D01*
X140000000Y-95500000D02*
X140000000Y-94500000D01*
X141000000Y-94500000D02*
X141000000Y-95500000D01*
X141000000Y-92500000D02*
X141000000Y-93500000D01*
X142000000Y-93500000D02*
X142000000Y-92500000D01*
X142000000Y-95500000D02*
X142000000Y-94500000D01*
X130000000Y-93500000D02*
X130000000Y-92500000D01*
X130000000Y-95500000D02*
X130000000Y-94500000D01*
X131000000Y-94500000D02*
X131000000Y-95500000D01*
X131000000Y-92500000D02*
X131000000Y-93500000D01*
X132000000Y-93500000D02*
X132000000Y-92500000D01*
X132000000Y-95500000D02*
X132000000Y-94500000D01*
D16*
X161599996Y-88249996D02*
X162425000Y-89075000D01*
X125199262Y-88249996D02*
X161599996Y-88249996D01*
X124700002Y-87750736D02*
X125199262Y-88249996D01*
X124700002Y-85325736D02*
X124700002Y-87750736D01*
X124074264Y-84699998D02*
X124700002Y-85325736D01*
X119849998Y-84699998D02*
X124074264Y-84699998D01*
X118575000Y-83425000D02*
X119849998Y-84699998D01*
X118025000Y-83425000D02*
X118575000Y-83425000D01*
X117625000Y-83825000D02*
X118025000Y-83425000D01*
X117625000Y-84500000D02*
X117625000Y-83825000D01*
X118400000Y-85275000D02*
X117625000Y-84500000D01*
X118400000Y-87600000D02*
X118400000Y-85275000D01*
X152024998Y-88549998D02*
X152500000Y-89025000D01*
X125074998Y-88549998D02*
X152024998Y-88549998D01*
X124400000Y-87875000D02*
X125074998Y-88549998D01*
X124400000Y-85450000D02*
X124400000Y-87875000D01*
X123950000Y-85000000D02*
X124400000Y-85450000D01*
X119175000Y-85000000D02*
X123950000Y-85000000D01*
X118225000Y-84050000D02*
X119175000Y-85000000D01*
X142250000Y-88850000D02*
X142475000Y-89075000D01*
X124450000Y-88850000D02*
X142250000Y-88850000D01*
X123725000Y-88125000D02*
X124450000Y-88850000D01*
X123725000Y-85700000D02*
X123725000Y-88125000D01*
X124125000Y-90125000D02*
X132775000Y-90125000D01*
X123700000Y-89700000D02*
X124125000Y-90125000D01*
X110635000Y-84795000D02*
X111305000Y-84795000D01*
X113100000Y-75900000D02*
X122700000Y-75900000D01*
X111900000Y-77100000D02*
X113100000Y-75900000D01*
X111900000Y-84200000D02*
X111900000Y-77100000D01*
X111305000Y-84795000D02*
X111900000Y-84200000D01*
X110635000Y-86065000D02*
X111535000Y-86065000D01*
X113000000Y-76500000D02*
X120200000Y-76500000D01*
X112200002Y-77299998D02*
X113000000Y-76500000D01*
X112200002Y-85399998D02*
X112200002Y-77299998D01*
X111535000Y-86065000D02*
X112200002Y-85399998D01*
X110635000Y-87335000D02*
X111565000Y-87335000D01*
X113400000Y-77100000D02*
X117700000Y-77100000D01*
X112500004Y-77999996D02*
X113400000Y-77100000D01*
X112500004Y-86399996D02*
X112500004Y-77999996D01*
X111565000Y-87335000D02*
X112500004Y-86399996D01*
X110635000Y-88605000D02*
X111795000Y-88605000D01*
X113400000Y-77900000D02*
X115100000Y-77900000D01*
X112800006Y-78499994D02*
X113400000Y-77900000D01*
X112800006Y-87599994D02*
X112800006Y-78499994D01*
X111795000Y-88605000D02*
X112800006Y-87599994D01*
D17*
X120100000Y-95060000D02*
X115660000Y-95060000D01*
X114700000Y-82975000D02*
X115400000Y-82275000D01*
X114700000Y-94100000D02*
X114700000Y-82975000D01*
X115660000Y-95060000D02*
X114700000Y-94100000D01*
D16*
X121600000Y-79500000D02*
X116400000Y-79500000D01*
X122500000Y-80400000D02*
X121600000Y-79500000D01*
X122500000Y-82500000D02*
X122500000Y-80400000D01*
X114600000Y-80300000D02*
X113900000Y-79600000D01*
X120000000Y-80300000D02*
X114600000Y-80300000D01*
X120900000Y-81200000D02*
X120000000Y-80300000D01*
X120900000Y-82500000D02*
X120900000Y-81200000D01*
D15*
X162000000Y-83000000D02*
X162000000Y-82000000D01*
X162000000Y-81000000D02*
X162000000Y-80000000D01*
X161000000Y-80000000D02*
X161000000Y-81000000D01*
X161000000Y-82000000D02*
X161000000Y-83000000D01*
X160000000Y-83000000D02*
X160000000Y-82000000D01*
X160000000Y-81000000D02*
X160000000Y-80000000D01*
X130000000Y-81000000D02*
X130000000Y-80000000D01*
X130000000Y-83000000D02*
X130000000Y-82000000D01*
X131000000Y-82000000D02*
X131000000Y-83000000D01*
X131000000Y-80000000D02*
X131000000Y-81000000D01*
X132000000Y-81000000D02*
X132000000Y-80000000D01*
X132000000Y-83000000D02*
X132000000Y-82000000D01*
X152000000Y-83000000D02*
X152000000Y-82000000D01*
X152000000Y-81000000D02*
X152000000Y-80000000D01*
X151000000Y-80000000D02*
X151000000Y-81000000D01*
X151000000Y-82000000D02*
X151000000Y-83000000D01*
X150000000Y-83000000D02*
X150000000Y-82000000D01*
X150000000Y-81000000D02*
X150000000Y-80000000D01*
X142000000Y-83000000D02*
X142000000Y-82000000D01*
X142000000Y-81000000D02*
X142000000Y-80000000D01*
X141000000Y-80000000D02*
X141000000Y-81000000D01*
X141000000Y-82000000D02*
X141000000Y-83000000D01*
X140000000Y-83000000D02*
X140000000Y-82000000D01*
X140000000Y-81000000D02*
X140000000Y-80000000D01*
D18*
G36*
X123800000Y-84304998D02*
X120013613Y-84304998D01*
X118854307Y-83145693D01*
X118726160Y-83060068D01*
X118575000Y-83030000D01*
X118025000Y-83030000D01*
X117873840Y-83060068D01*
X117745693Y-83145693D01*
X117345693Y-83545693D01*
X117260068Y-83673840D01*
X117230000Y-83825000D01*
X117230000Y-84500000D01*
X117260068Y-84651160D01*
X117345693Y-84779307D01*
X118005000Y-85438615D01*
X118005000Y-87118263D01*
X117874696Y-87248339D01*
X117780107Y-87476133D01*
X117779892Y-87722785D01*
X117874083Y-87950743D01*
X118048339Y-88125304D01*
X118276133Y-88219893D01*
X118522785Y-88220108D01*
X118750743Y-88125917D01*
X118925304Y-87951661D01*
X119019893Y-87723867D01*
X119020108Y-87477215D01*
X118925917Y-87249257D01*
X118795000Y-87118111D01*
X118795000Y-85275000D01*
X118771067Y-85154681D01*
X118895693Y-85279307D01*
X119023840Y-85364932D01*
X119175000Y-85395000D01*
X123180321Y-85395000D01*
X123105107Y-85576133D01*
X123104892Y-85822785D01*
X123199083Y-86050743D01*
X123330000Y-86181889D01*
X123330000Y-88125000D01*
X123360068Y-88276160D01*
X123445693Y-88404307D01*
X123800000Y-88758614D01*
X123800000Y-89000000D01*
X123807879Y-89038906D01*
X123830273Y-89071681D01*
X123863654Y-89093161D01*
X123900000Y-89100000D01*
X124141386Y-89100000D01*
X124170693Y-89129307D01*
X124298840Y-89214932D01*
X124450000Y-89245000D01*
X141874401Y-89245000D01*
X141949083Y-89425743D01*
X142123339Y-89600304D01*
X142351133Y-89694893D01*
X142597785Y-89695108D01*
X142825743Y-89600917D01*
X143000304Y-89426661D01*
X143094893Y-89198867D01*
X143094979Y-89100000D01*
X151879934Y-89100000D01*
X151879892Y-89147785D01*
X151974083Y-89375743D01*
X152148339Y-89550304D01*
X152376133Y-89644893D01*
X152622785Y-89645108D01*
X152850743Y-89550917D01*
X153025304Y-89376661D01*
X153119893Y-89148867D01*
X153119936Y-89100000D01*
X161804977Y-89100000D01*
X161804892Y-89197785D01*
X161899083Y-89425743D01*
X162073339Y-89600304D01*
X162301133Y-89694893D01*
X162547785Y-89695108D01*
X162775743Y-89600917D01*
X162950304Y-89426661D01*
X163044893Y-89198867D01*
X163044979Y-89100000D01*
X171605000Y-89100000D01*
X171605000Y-104561097D01*
X171475677Y-105211245D01*
X171129435Y-105729435D01*
X170611245Y-106075677D01*
X169961096Y-106205000D01*
X105038903Y-106205000D01*
X104388755Y-106075677D01*
X103870565Y-105729435D01*
X103524323Y-105211245D01*
X103395000Y-104561096D01*
X103395000Y-103920824D01*
X104379719Y-103920824D01*
X104625830Y-104516458D01*
X105081145Y-104972569D01*
X105676348Y-105219718D01*
X106320824Y-105220281D01*
X106916458Y-104974170D01*
X107372569Y-104518855D01*
X107619718Y-103923652D01*
X107619720Y-103920824D01*
X167379719Y-103920824D01*
X167625830Y-104516458D01*
X168081145Y-104972569D01*
X168676348Y-105219718D01*
X169320824Y-105220281D01*
X169916458Y-104974170D01*
X170372569Y-104518855D01*
X170619718Y-103923652D01*
X170620281Y-103279176D01*
X170374170Y-102683542D01*
X169918855Y-102227431D01*
X169323652Y-101980282D01*
X168679176Y-101979719D01*
X168083542Y-102225830D01*
X167627431Y-102681145D01*
X167380282Y-103276348D01*
X167379719Y-103920824D01*
X107619720Y-103920824D01*
X107620281Y-103279176D01*
X107374170Y-102683542D01*
X106918855Y-102227431D01*
X106323652Y-101980282D01*
X105679176Y-101979719D01*
X105083542Y-102225830D01*
X104627431Y-102681145D01*
X104380282Y-103276348D01*
X104379719Y-103920824D01*
X103395000Y-103920824D01*
X103395000Y-100354279D01*
X119017812Y-100354279D01*
X119182190Y-100752103D01*
X119486296Y-101056740D01*
X119883833Y-101221812D01*
X120314279Y-101222188D01*
X120712103Y-101057810D01*
X121016740Y-100753704D01*
X121181812Y-100356167D01*
X121182188Y-99925721D01*
X121017810Y-99527897D01*
X120713704Y-99223260D01*
X120316167Y-99058188D01*
X119885721Y-99057812D01*
X119487897Y-99222190D01*
X119183260Y-99526296D01*
X119018188Y-99923833D01*
X119017812Y-100354279D01*
X103395000Y-100354279D01*
X103395000Y-97861412D01*
X125979772Y-97861412D01*
X126180306Y-98346743D01*
X126551304Y-98718389D01*
X127036284Y-98919770D01*
X127561412Y-98920228D01*
X128046743Y-98719694D01*
X128418389Y-98348696D01*
X128619770Y-97863716D01*
X128619772Y-97861412D01*
X135979772Y-97861412D01*
X136180306Y-98346743D01*
X136551304Y-98718389D01*
X137036284Y-98919770D01*
X137561412Y-98920228D01*
X138046743Y-98719694D01*
X138418389Y-98348696D01*
X138619770Y-97863716D01*
X138619772Y-97861412D01*
X145979772Y-97861412D01*
X146180306Y-98346743D01*
X146551304Y-98718389D01*
X147036284Y-98919770D01*
X147561412Y-98920228D01*
X148046743Y-98719694D01*
X148418389Y-98348696D01*
X148619770Y-97863716D01*
X148619772Y-97861412D01*
X155979772Y-97861412D01*
X156180306Y-98346743D01*
X156551304Y-98718389D01*
X157036284Y-98919770D01*
X157561412Y-98920228D01*
X158046743Y-98719694D01*
X158418389Y-98348696D01*
X158619770Y-97863716D01*
X158620228Y-97338588D01*
X158419694Y-96853257D01*
X158048696Y-96481611D01*
X157563716Y-96280230D01*
X157038588Y-96279772D01*
X156553257Y-96480306D01*
X156181611Y-96851304D01*
X155980230Y-97336284D01*
X155979772Y-97861412D01*
X148619772Y-97861412D01*
X148620228Y-97338588D01*
X148419694Y-96853257D01*
X148048696Y-96481611D01*
X147563716Y-96280230D01*
X147038588Y-96279772D01*
X146553257Y-96480306D01*
X146181611Y-96851304D01*
X145980230Y-97336284D01*
X145979772Y-97861412D01*
X138619772Y-97861412D01*
X138620228Y-97338588D01*
X138419694Y-96853257D01*
X138048696Y-96481611D01*
X137563716Y-96280230D01*
X137038588Y-96279772D01*
X136553257Y-96480306D01*
X136181611Y-96851304D01*
X135980230Y-97336284D01*
X135979772Y-97861412D01*
X128619772Y-97861412D01*
X128620228Y-97338588D01*
X128419694Y-96853257D01*
X128048696Y-96481611D01*
X127563716Y-96280230D01*
X127038588Y-96279772D01*
X126553257Y-96480306D01*
X126181611Y-96851304D01*
X125980230Y-97336284D01*
X125979772Y-97861412D01*
X103395000Y-97861412D01*
X103395000Y-81122638D01*
X108669879Y-81122638D01*
X108775464Y-81378172D01*
X108970800Y-81573849D01*
X109081902Y-81619982D01*
X108971828Y-81665464D01*
X108776151Y-81860800D01*
X108670121Y-82116149D01*
X108669879Y-82392638D01*
X108775464Y-82648172D01*
X108970800Y-82843849D01*
X109081902Y-82889982D01*
X108971828Y-82935464D01*
X108776151Y-83130800D01*
X108670121Y-83386149D01*
X108669879Y-83662638D01*
X108775464Y-83918172D01*
X108970800Y-84113849D01*
X109081902Y-84159982D01*
X108971828Y-84205464D01*
X108776151Y-84400800D01*
X108670121Y-84656149D01*
X108669879Y-84932638D01*
X108775464Y-85188172D01*
X108970800Y-85383849D01*
X109081902Y-85429982D01*
X108971828Y-85475464D01*
X108776151Y-85670800D01*
X108670121Y-85926149D01*
X108669879Y-86202638D01*
X108775464Y-86458172D01*
X108970800Y-86653849D01*
X109081902Y-86699982D01*
X108971828Y-86745464D01*
X108776151Y-86940800D01*
X108670121Y-87196149D01*
X108669879Y-87472638D01*
X108775464Y-87728172D01*
X108970800Y-87923849D01*
X109081902Y-87969982D01*
X108971828Y-88015464D01*
X108776151Y-88210800D01*
X108670121Y-88466149D01*
X108669879Y-88742638D01*
X108775464Y-88998172D01*
X108970800Y-89193849D01*
X109081902Y-89239982D01*
X108971828Y-89285464D01*
X108776151Y-89480800D01*
X108670121Y-89736149D01*
X108669879Y-90012638D01*
X108775464Y-90268172D01*
X108970800Y-90463849D01*
X109081902Y-90509982D01*
X108971828Y-90555464D01*
X108776151Y-90750800D01*
X108670121Y-91006149D01*
X108669879Y-91282638D01*
X108775464Y-91538172D01*
X108970800Y-91733849D01*
X109081902Y-91779982D01*
X108971828Y-91825464D01*
X108776151Y-92020800D01*
X108670121Y-92276149D01*
X108669879Y-92552638D01*
X108775464Y-92808172D01*
X108970800Y-93003849D01*
X109226149Y-93109879D01*
X109502638Y-93110121D01*
X109758172Y-93004536D01*
X109953849Y-92809200D01*
X109999982Y-92698098D01*
X110045464Y-92808172D01*
X110240800Y-93003849D01*
X110496149Y-93109879D01*
X110772638Y-93110121D01*
X111028172Y-93004536D01*
X111223849Y-92809200D01*
X111329879Y-92553851D01*
X111330121Y-92277362D01*
X111224536Y-92021828D01*
X111029200Y-91826151D01*
X110918098Y-91780018D01*
X111028172Y-91734536D01*
X111223849Y-91539200D01*
X111329879Y-91283851D01*
X111330121Y-91007362D01*
X111224536Y-90751828D01*
X111029200Y-90556151D01*
X110918098Y-90510018D01*
X111028172Y-90464536D01*
X111223849Y-90269200D01*
X111329879Y-90013851D01*
X111330121Y-89737362D01*
X111224536Y-89481828D01*
X111029200Y-89286151D01*
X110918098Y-89240018D01*
X111028172Y-89194536D01*
X111223048Y-89000000D01*
X111795000Y-89000000D01*
X111946160Y-88969932D01*
X112074307Y-88884307D01*
X113079313Y-87879301D01*
X113164938Y-87751154D01*
X113195006Y-87599994D01*
X113195006Y-82975000D01*
X114130000Y-82975000D01*
X114130000Y-94100000D01*
X114173389Y-94318130D01*
X114288229Y-94490000D01*
X114296949Y-94503051D01*
X115256949Y-95463051D01*
X115441870Y-95586611D01*
X115660000Y-95630000D01*
X119164793Y-95630000D01*
X119182190Y-95672103D01*
X119486296Y-95976740D01*
X119883833Y-96141812D01*
X120314279Y-96142188D01*
X120712103Y-95977810D01*
X121016740Y-95673704D01*
X121181812Y-95276167D01*
X121182188Y-94845721D01*
X121017810Y-94447897D01*
X120713704Y-94143260D01*
X120316167Y-93978188D01*
X119885721Y-93977812D01*
X119487897Y-94142190D01*
X119183260Y-94446296D01*
X119165112Y-94490000D01*
X115896102Y-94490000D01*
X115270000Y-93863898D01*
X115270000Y-89822785D01*
X123079892Y-89822785D01*
X123174083Y-90050743D01*
X123348339Y-90225304D01*
X123576133Y-90319893D01*
X123761441Y-90320055D01*
X123845693Y-90404307D01*
X123973840Y-90489932D01*
X124125000Y-90520000D01*
X132293263Y-90520000D01*
X132423339Y-90650304D01*
X132651133Y-90744893D01*
X132897785Y-90745108D01*
X133125743Y-90650917D01*
X133300304Y-90476661D01*
X133394893Y-90248867D01*
X133395108Y-90002215D01*
X133300917Y-89774257D01*
X133126661Y-89599696D01*
X132898867Y-89505107D01*
X132652215Y-89504892D01*
X132424257Y-89599083D01*
X132293111Y-89730000D01*
X124319975Y-89730000D01*
X124320108Y-89577215D01*
X124225917Y-89349257D01*
X124051661Y-89174696D01*
X123823867Y-89080107D01*
X123577215Y-89079892D01*
X123349257Y-89174083D01*
X123174696Y-89348339D01*
X123080107Y-89576133D01*
X123079892Y-89822785D01*
X115270000Y-89822785D01*
X115270000Y-83211102D01*
X115630502Y-82850600D01*
X115750743Y-82800917D01*
X115925304Y-82626661D01*
X116019893Y-82398867D01*
X116020108Y-82152215D01*
X115925917Y-81924257D01*
X115751661Y-81749696D01*
X115523867Y-81655107D01*
X115277215Y-81654892D01*
X115049257Y-81749083D01*
X114874696Y-81923339D01*
X114824376Y-82044522D01*
X114296949Y-82571949D01*
X114173389Y-82756870D01*
X114130000Y-82975000D01*
X113195006Y-82975000D01*
X113195006Y-79722785D01*
X113279892Y-79722785D01*
X113374083Y-79950743D01*
X113548339Y-80125304D01*
X113776133Y-80219893D01*
X113961440Y-80220055D01*
X114320692Y-80579307D01*
X114448840Y-80664932D01*
X114600000Y-80695000D01*
X119836386Y-80695000D01*
X120505000Y-81363614D01*
X120505000Y-82018263D01*
X120374696Y-82148339D01*
X120280107Y-82376133D01*
X120279892Y-82622785D01*
X120374083Y-82850743D01*
X120548339Y-83025304D01*
X120776133Y-83119893D01*
X121022785Y-83120108D01*
X121250743Y-83025917D01*
X121425304Y-82851661D01*
X121519893Y-82623867D01*
X121520108Y-82377215D01*
X121425917Y-82149257D01*
X121295000Y-82018111D01*
X121295000Y-81200000D01*
X121264932Y-81048840D01*
X121179307Y-80920693D01*
X120279307Y-80020693D01*
X120151160Y-79935068D01*
X120000000Y-79905000D01*
X116871872Y-79905000D01*
X116881889Y-79895000D01*
X121436386Y-79895000D01*
X122105000Y-80563614D01*
X122105000Y-82018263D01*
X121974696Y-82148339D01*
X121880107Y-82376133D01*
X121879892Y-82622785D01*
X121974083Y-82850743D01*
X122148339Y-83025304D01*
X122376133Y-83119893D01*
X122622785Y-83120108D01*
X122850743Y-83025917D01*
X123025304Y-82851661D01*
X123119893Y-82623867D01*
X123120108Y-82377215D01*
X123025917Y-82149257D01*
X122895000Y-82018111D01*
X122895000Y-80400000D01*
X122864932Y-80248840D01*
X122779307Y-80120693D01*
X121879307Y-79220693D01*
X121751160Y-79135068D01*
X121600000Y-79105000D01*
X116881737Y-79105000D01*
X116751661Y-78974696D01*
X116523867Y-78880107D01*
X116277215Y-78879892D01*
X116049257Y-78974083D01*
X115874696Y-79148339D01*
X115780107Y-79376133D01*
X115779892Y-79622785D01*
X115874083Y-79850743D01*
X115928245Y-79905000D01*
X114763615Y-79905000D01*
X114519948Y-79661333D01*
X114520108Y-79477215D01*
X114425917Y-79249257D01*
X114251661Y-79074696D01*
X114023867Y-78980107D01*
X113777215Y-78979892D01*
X113549257Y-79074083D01*
X113374696Y-79248339D01*
X113280107Y-79476133D01*
X113279892Y-79722785D01*
X113195006Y-79722785D01*
X113195006Y-78663608D01*
X113563614Y-78295000D01*
X114618263Y-78295000D01*
X114748339Y-78425304D01*
X114976133Y-78519893D01*
X115222785Y-78520108D01*
X115450743Y-78425917D01*
X115625304Y-78251661D01*
X115719893Y-78023867D01*
X115720108Y-77777215D01*
X115625917Y-77549257D01*
X115571755Y-77495000D01*
X117218263Y-77495000D01*
X117348339Y-77625304D01*
X117576133Y-77719893D01*
X117822785Y-77720108D01*
X118050743Y-77625917D01*
X118225304Y-77451661D01*
X118319893Y-77223867D01*
X118320108Y-76977215D01*
X118286137Y-76895000D01*
X119718263Y-76895000D01*
X119848339Y-77025304D01*
X120076133Y-77119893D01*
X120322785Y-77120108D01*
X120550743Y-77025917D01*
X120725304Y-76851661D01*
X120819893Y-76623867D01*
X120820108Y-76377215D01*
X120786137Y-76295000D01*
X122218263Y-76295000D01*
X122348339Y-76425304D01*
X122576133Y-76519893D01*
X122822785Y-76520108D01*
X123050743Y-76425917D01*
X123225304Y-76251661D01*
X123319893Y-76023867D01*
X123320108Y-75777215D01*
X123225917Y-75549257D01*
X123051661Y-75374696D01*
X122823867Y-75280107D01*
X122577215Y-75279892D01*
X122349257Y-75374083D01*
X122218111Y-75505000D01*
X113100000Y-75505000D01*
X112948840Y-75535068D01*
X112820693Y-75620693D01*
X111620693Y-76820693D01*
X111535068Y-76948840D01*
X111505000Y-77100000D01*
X111505000Y-84036386D01*
X111182084Y-84359302D01*
X111029200Y-84206151D01*
X110918098Y-84160018D01*
X111028172Y-84114536D01*
X111223849Y-83919200D01*
X111329879Y-83663851D01*
X111330121Y-83387362D01*
X111224536Y-83131828D01*
X111029200Y-82936151D01*
X110918098Y-82890018D01*
X111028172Y-82844536D01*
X111223849Y-82649200D01*
X111329879Y-82393851D01*
X111330121Y-82117362D01*
X111224536Y-81861828D01*
X111029200Y-81666151D01*
X110918098Y-81620018D01*
X111028172Y-81574536D01*
X111223849Y-81379200D01*
X111329879Y-81123851D01*
X111330121Y-80847362D01*
X111224536Y-80591828D01*
X111029200Y-80396151D01*
X110773851Y-80290121D01*
X110497362Y-80289879D01*
X110241828Y-80395464D01*
X110046151Y-80590800D01*
X110000018Y-80701902D01*
X109954536Y-80591828D01*
X109759200Y-80396151D01*
X109503851Y-80290121D01*
X109227362Y-80289879D01*
X108971828Y-80395464D01*
X108776151Y-80590800D01*
X108670121Y-80846149D01*
X108669879Y-81122638D01*
X103395000Y-81122638D01*
X103395000Y-71320824D01*
X104379719Y-71320824D01*
X104625830Y-71916458D01*
X105081145Y-72372569D01*
X105676348Y-72619718D01*
X106320824Y-72620281D01*
X106916458Y-72374170D01*
X107372569Y-71918855D01*
X107619718Y-71323652D01*
X107620281Y-70679176D01*
X107374170Y-70083542D01*
X106918855Y-69627431D01*
X106323652Y-69380282D01*
X105679176Y-69379719D01*
X105083542Y-69625830D01*
X104627431Y-70081145D01*
X104380282Y-70676348D01*
X104379719Y-71320824D01*
X103395000Y-71320824D01*
X103395000Y-70038904D01*
X103524323Y-69388755D01*
X103870565Y-68870565D01*
X104388755Y-68524323D01*
X105038903Y-68395000D01*
X123800000Y-68395000D01*
X123800000Y-84304998D01*
X123800000Y-84304998D01*
G37*
X123800000Y-84304998D02*
X120013613Y-84304998D01*
X118854307Y-83145693D01*
X118726160Y-83060068D01*
X118575000Y-83030000D01*
X118025000Y-83030000D01*
X117873840Y-83060068D01*
X117745693Y-83145693D01*
X117345693Y-83545693D01*
X117260068Y-83673840D01*
X117230000Y-83825000D01*
X117230000Y-84500000D01*
X117260068Y-84651160D01*
X117345693Y-84779307D01*
X118005000Y-85438615D01*
X118005000Y-87118263D01*
X117874696Y-87248339D01*
X117780107Y-87476133D01*
X117779892Y-87722785D01*
X117874083Y-87950743D01*
X118048339Y-88125304D01*
X118276133Y-88219893D01*
X118522785Y-88220108D01*
X118750743Y-88125917D01*
X118925304Y-87951661D01*
X119019893Y-87723867D01*
X119020108Y-87477215D01*
X118925917Y-87249257D01*
X118795000Y-87118111D01*
X118795000Y-85275000D01*
X118771067Y-85154681D01*
X118895693Y-85279307D01*
X119023840Y-85364932D01*
X119175000Y-85395000D01*
X123180321Y-85395000D01*
X123105107Y-85576133D01*
X123104892Y-85822785D01*
X123199083Y-86050743D01*
X123330000Y-86181889D01*
X123330000Y-88125000D01*
X123360068Y-88276160D01*
X123445693Y-88404307D01*
X123800000Y-88758614D01*
X123800000Y-89000000D01*
X123807879Y-89038906D01*
X123830273Y-89071681D01*
X123863654Y-89093161D01*
X123900000Y-89100000D01*
X124141386Y-89100000D01*
X124170693Y-89129307D01*
X124298840Y-89214932D01*
X124450000Y-89245000D01*
X141874401Y-89245000D01*
X141949083Y-89425743D01*
X142123339Y-89600304D01*
X142351133Y-89694893D01*
X142597785Y-89695108D01*
X142825743Y-89600917D01*
X143000304Y-89426661D01*
X143094893Y-89198867D01*
X143094979Y-89100000D01*
X151879934Y-89100000D01*
X151879892Y-89147785D01*
X151974083Y-89375743D01*
X152148339Y-89550304D01*
X152376133Y-89644893D01*
X152622785Y-89645108D01*
X152850743Y-89550917D01*
X153025304Y-89376661D01*
X153119893Y-89148867D01*
X153119936Y-89100000D01*
X161804977Y-89100000D01*
X161804892Y-89197785D01*
X161899083Y-89425743D01*
X162073339Y-89600304D01*
X162301133Y-89694893D01*
X162547785Y-89695108D01*
X162775743Y-89600917D01*
X162950304Y-89426661D01*
X163044893Y-89198867D01*
X163044979Y-89100000D01*
X171605000Y-89100000D01*
X171605000Y-104561097D01*
X171475677Y-105211245D01*
X171129435Y-105729435D01*
X170611245Y-106075677D01*
X169961096Y-106205000D01*
X105038903Y-106205000D01*
X104388755Y-106075677D01*
X103870565Y-105729435D01*
X103524323Y-105211245D01*
X103395000Y-104561096D01*
X103395000Y-103920824D01*
X104379719Y-103920824D01*
X104625830Y-104516458D01*
X105081145Y-104972569D01*
X105676348Y-105219718D01*
X106320824Y-105220281D01*
X106916458Y-104974170D01*
X107372569Y-104518855D01*
X107619718Y-103923652D01*
X107619720Y-103920824D01*
X167379719Y-103920824D01*
X167625830Y-104516458D01*
X168081145Y-104972569D01*
X168676348Y-105219718D01*
X169320824Y-105220281D01*
X169916458Y-104974170D01*
X170372569Y-104518855D01*
X170619718Y-103923652D01*
X170620281Y-103279176D01*
X170374170Y-102683542D01*
X169918855Y-102227431D01*
X169323652Y-101980282D01*
X168679176Y-101979719D01*
X168083542Y-102225830D01*
X167627431Y-102681145D01*
X167380282Y-103276348D01*
X167379719Y-103920824D01*
X107619720Y-103920824D01*
X107620281Y-103279176D01*
X107374170Y-102683542D01*
X106918855Y-102227431D01*
X106323652Y-101980282D01*
X105679176Y-101979719D01*
X105083542Y-102225830D01*
X104627431Y-102681145D01*
X104380282Y-103276348D01*
X104379719Y-103920824D01*
X103395000Y-103920824D01*
X103395000Y-100354279D01*
X119017812Y-100354279D01*
X119182190Y-100752103D01*
X119486296Y-101056740D01*
X119883833Y-101221812D01*
X120314279Y-101222188D01*
X120712103Y-101057810D01*
X121016740Y-100753704D01*
X121181812Y-100356167D01*
X121182188Y-99925721D01*
X121017810Y-99527897D01*
X120713704Y-99223260D01*
X120316167Y-99058188D01*
X119885721Y-99057812D01*
X119487897Y-99222190D01*
X119183260Y-99526296D01*
X119018188Y-99923833D01*
X119017812Y-100354279D01*
X103395000Y-100354279D01*
X103395000Y-97861412D01*
X125979772Y-97861412D01*
X126180306Y-98346743D01*
X126551304Y-98718389D01*
X127036284Y-98919770D01*
X127561412Y-98920228D01*
X128046743Y-98719694D01*
X128418389Y-98348696D01*
X128619770Y-97863716D01*
X128619772Y-97861412D01*
X135979772Y-97861412D01*
X136180306Y-98346743D01*
X136551304Y-98718389D01*
X137036284Y-98919770D01*
X137561412Y-98920228D01*
X138046743Y-98719694D01*
X138418389Y-98348696D01*
X138619770Y-97863716D01*
X138619772Y-97861412D01*
X145979772Y-97861412D01*
X146180306Y-98346743D01*
X146551304Y-98718389D01*
X147036284Y-98919770D01*
X147561412Y-98920228D01*
X148046743Y-98719694D01*
X148418389Y-98348696D01*
X148619770Y-97863716D01*
X148619772Y-97861412D01*
X155979772Y-97861412D01*
X156180306Y-98346743D01*
X156551304Y-98718389D01*
X157036284Y-98919770D01*
X157561412Y-98920228D01*
X158046743Y-98719694D01*
X158418389Y-98348696D01*
X158619770Y-97863716D01*
X158620228Y-97338588D01*
X158419694Y-96853257D01*
X158048696Y-96481611D01*
X157563716Y-96280230D01*
X157038588Y-96279772D01*
X156553257Y-96480306D01*
X156181611Y-96851304D01*
X155980230Y-97336284D01*
X155979772Y-97861412D01*
X148619772Y-97861412D01*
X148620228Y-97338588D01*
X148419694Y-96853257D01*
X148048696Y-96481611D01*
X147563716Y-96280230D01*
X147038588Y-96279772D01*
X146553257Y-96480306D01*
X146181611Y-96851304D01*
X145980230Y-97336284D01*
X145979772Y-97861412D01*
X138619772Y-97861412D01*
X138620228Y-97338588D01*
X138419694Y-96853257D01*
X138048696Y-96481611D01*
X137563716Y-96280230D01*
X137038588Y-96279772D01*
X136553257Y-96480306D01*
X136181611Y-96851304D01*
X135980230Y-97336284D01*
X135979772Y-97861412D01*
X128619772Y-97861412D01*
X128620228Y-97338588D01*
X128419694Y-96853257D01*
X128048696Y-96481611D01*
X127563716Y-96280230D01*
X127038588Y-96279772D01*
X126553257Y-96480306D01*
X126181611Y-96851304D01*
X125980230Y-97336284D01*
X125979772Y-97861412D01*
X103395000Y-97861412D01*
X103395000Y-81122638D01*
X108669879Y-81122638D01*
X108775464Y-81378172D01*
X108970800Y-81573849D01*
X109081902Y-81619982D01*
X108971828Y-81665464D01*
X108776151Y-81860800D01*
X108670121Y-82116149D01*
X108669879Y-82392638D01*
X108775464Y-82648172D01*
X108970800Y-82843849D01*
X109081902Y-82889982D01*
X108971828Y-82935464D01*
X108776151Y-83130800D01*
X108670121Y-83386149D01*
X108669879Y-83662638D01*
X108775464Y-83918172D01*
X108970800Y-84113849D01*
X109081902Y-84159982D01*
X108971828Y-84205464D01*
X108776151Y-84400800D01*
X108670121Y-84656149D01*
X108669879Y-84932638D01*
X108775464Y-85188172D01*
X108970800Y-85383849D01*
X109081902Y-85429982D01*
X108971828Y-85475464D01*
X108776151Y-85670800D01*
X108670121Y-85926149D01*
X108669879Y-86202638D01*
X108775464Y-86458172D01*
X108970800Y-86653849D01*
X109081902Y-86699982D01*
X108971828Y-86745464D01*
X108776151Y-86940800D01*
X108670121Y-87196149D01*
X108669879Y-87472638D01*
X108775464Y-87728172D01*
X108970800Y-87923849D01*
X109081902Y-87969982D01*
X108971828Y-88015464D01*
X108776151Y-88210800D01*
X108670121Y-88466149D01*
X108669879Y-88742638D01*
X108775464Y-88998172D01*
X108970800Y-89193849D01*
X109081902Y-89239982D01*
X108971828Y-89285464D01*
X108776151Y-89480800D01*
X108670121Y-89736149D01*
X108669879Y-90012638D01*
X108775464Y-90268172D01*
X108970800Y-90463849D01*
X109081902Y-90509982D01*
X108971828Y-90555464D01*
X108776151Y-90750800D01*
X108670121Y-91006149D01*
X108669879Y-91282638D01*
X108775464Y-91538172D01*
X108970800Y-91733849D01*
X109081902Y-91779982D01*
X108971828Y-91825464D01*
X108776151Y-92020800D01*
X108670121Y-92276149D01*
X108669879Y-92552638D01*
X108775464Y-92808172D01*
X108970800Y-93003849D01*
X109226149Y-93109879D01*
X109502638Y-93110121D01*
X109758172Y-93004536D01*
X109953849Y-92809200D01*
X109999982Y-92698098D01*
X110045464Y-92808172D01*
X110240800Y-93003849D01*
X110496149Y-93109879D01*
X110772638Y-93110121D01*
X111028172Y-93004536D01*
X111223849Y-92809200D01*
X111329879Y-92553851D01*
X111330121Y-92277362D01*
X111224536Y-92021828D01*
X111029200Y-91826151D01*
X110918098Y-91780018D01*
X111028172Y-91734536D01*
X111223849Y-91539200D01*
X111329879Y-91283851D01*
X111330121Y-91007362D01*
X111224536Y-90751828D01*
X111029200Y-90556151D01*
X110918098Y-90510018D01*
X111028172Y-90464536D01*
X111223849Y-90269200D01*
X111329879Y-90013851D01*
X111330121Y-89737362D01*
X111224536Y-89481828D01*
X111029200Y-89286151D01*
X110918098Y-89240018D01*
X111028172Y-89194536D01*
X111223048Y-89000000D01*
X111795000Y-89000000D01*
X111946160Y-88969932D01*
X112074307Y-88884307D01*
X113079313Y-87879301D01*
X113164938Y-87751154D01*
X113195006Y-87599994D01*
X113195006Y-82975000D01*
X114130000Y-82975000D01*
X114130000Y-94100000D01*
X114173389Y-94318130D01*
X114288229Y-94490000D01*
X114296949Y-94503051D01*
X115256949Y-95463051D01*
X115441870Y-95586611D01*
X115660000Y-95630000D01*
X119164793Y-95630000D01*
X119182190Y-95672103D01*
X119486296Y-95976740D01*
X119883833Y-96141812D01*
X120314279Y-96142188D01*
X120712103Y-95977810D01*
X121016740Y-95673704D01*
X121181812Y-95276167D01*
X121182188Y-94845721D01*
X121017810Y-94447897D01*
X120713704Y-94143260D01*
X120316167Y-93978188D01*
X119885721Y-93977812D01*
X119487897Y-94142190D01*
X119183260Y-94446296D01*
X119165112Y-94490000D01*
X115896102Y-94490000D01*
X115270000Y-93863898D01*
X115270000Y-89822785D01*
X123079892Y-89822785D01*
X123174083Y-90050743D01*
X123348339Y-90225304D01*
X123576133Y-90319893D01*
X123761441Y-90320055D01*
X123845693Y-90404307D01*
X123973840Y-90489932D01*
X124125000Y-90520000D01*
X132293263Y-90520000D01*
X132423339Y-90650304D01*
X132651133Y-90744893D01*
X132897785Y-90745108D01*
X133125743Y-90650917D01*
X133300304Y-90476661D01*
X133394893Y-90248867D01*
X133395108Y-90002215D01*
X133300917Y-89774257D01*
X133126661Y-89599696D01*
X132898867Y-89505107D01*
X132652215Y-89504892D01*
X132424257Y-89599083D01*
X132293111Y-89730000D01*
X124319975Y-89730000D01*
X124320108Y-89577215D01*
X124225917Y-89349257D01*
X124051661Y-89174696D01*
X123823867Y-89080107D01*
X123577215Y-89079892D01*
X123349257Y-89174083D01*
X123174696Y-89348339D01*
X123080107Y-89576133D01*
X123079892Y-89822785D01*
X115270000Y-89822785D01*
X115270000Y-83211102D01*
X115630502Y-82850600D01*
X115750743Y-82800917D01*
X115925304Y-82626661D01*
X116019893Y-82398867D01*
X116020108Y-82152215D01*
X115925917Y-81924257D01*
X115751661Y-81749696D01*
X115523867Y-81655107D01*
X115277215Y-81654892D01*
X115049257Y-81749083D01*
X114874696Y-81923339D01*
X114824376Y-82044522D01*
X114296949Y-82571949D01*
X114173389Y-82756870D01*
X114130000Y-82975000D01*
X113195006Y-82975000D01*
X113195006Y-79722785D01*
X113279892Y-79722785D01*
X113374083Y-79950743D01*
X113548339Y-80125304D01*
X113776133Y-80219893D01*
X113961440Y-80220055D01*
X114320692Y-80579307D01*
X114448840Y-80664932D01*
X114600000Y-80695000D01*
X119836386Y-80695000D01*
X120505000Y-81363614D01*
X120505000Y-82018263D01*
X120374696Y-82148339D01*
X120280107Y-82376133D01*
X120279892Y-82622785D01*
X120374083Y-82850743D01*
X120548339Y-83025304D01*
X120776133Y-83119893D01*
X121022785Y-83120108D01*
X121250743Y-83025917D01*
X121425304Y-82851661D01*
X121519893Y-82623867D01*
X121520108Y-82377215D01*
X121425917Y-82149257D01*
X121295000Y-82018111D01*
X121295000Y-81200000D01*
X121264932Y-81048840D01*
X121179307Y-80920693D01*
X120279307Y-80020693D01*
X120151160Y-79935068D01*
X120000000Y-79905000D01*
X116871872Y-79905000D01*
X116881889Y-79895000D01*
X121436386Y-79895000D01*
X122105000Y-80563614D01*
X122105000Y-82018263D01*
X121974696Y-82148339D01*
X121880107Y-82376133D01*
X121879892Y-82622785D01*
X121974083Y-82850743D01*
X122148339Y-83025304D01*
X122376133Y-83119893D01*
X122622785Y-83120108D01*
X122850743Y-83025917D01*
X123025304Y-82851661D01*
X123119893Y-82623867D01*
X123120108Y-82377215D01*
X123025917Y-82149257D01*
X122895000Y-82018111D01*
X122895000Y-80400000D01*
X122864932Y-80248840D01*
X122779307Y-80120693D01*
X121879307Y-79220693D01*
X121751160Y-79135068D01*
X121600000Y-79105000D01*
X116881737Y-79105000D01*
X116751661Y-78974696D01*
X116523867Y-78880107D01*
X116277215Y-78879892D01*
X116049257Y-78974083D01*
X115874696Y-79148339D01*
X115780107Y-79376133D01*
X115779892Y-79622785D01*
X115874083Y-79850743D01*
X115928245Y-79905000D01*
X114763615Y-79905000D01*
X114519948Y-79661333D01*
X114520108Y-79477215D01*
X114425917Y-79249257D01*
X114251661Y-79074696D01*
X114023867Y-78980107D01*
X113777215Y-78979892D01*
X113549257Y-79074083D01*
X113374696Y-79248339D01*
X113280107Y-79476133D01*
X113279892Y-79722785D01*
X113195006Y-79722785D01*
X113195006Y-78663608D01*
X113563614Y-78295000D01*
X114618263Y-78295000D01*
X114748339Y-78425304D01*
X114976133Y-78519893D01*
X115222785Y-78520108D01*
X115450743Y-78425917D01*
X115625304Y-78251661D01*
X115719893Y-78023867D01*
X115720108Y-77777215D01*
X115625917Y-77549257D01*
X115571755Y-77495000D01*
X117218263Y-77495000D01*
X117348339Y-77625304D01*
X117576133Y-77719893D01*
X117822785Y-77720108D01*
X118050743Y-77625917D01*
X118225304Y-77451661D01*
X118319893Y-77223867D01*
X118320108Y-76977215D01*
X118286137Y-76895000D01*
X119718263Y-76895000D01*
X119848339Y-77025304D01*
X120076133Y-77119893D01*
X120322785Y-77120108D01*
X120550743Y-77025917D01*
X120725304Y-76851661D01*
X120819893Y-76623867D01*
X120820108Y-76377215D01*
X120786137Y-76295000D01*
X122218263Y-76295000D01*
X122348339Y-76425304D01*
X122576133Y-76519893D01*
X122822785Y-76520108D01*
X123050743Y-76425917D01*
X123225304Y-76251661D01*
X123319893Y-76023867D01*
X123320108Y-75777215D01*
X123225917Y-75549257D01*
X123051661Y-75374696D01*
X122823867Y-75280107D01*
X122577215Y-75279892D01*
X122349257Y-75374083D01*
X122218111Y-75505000D01*
X113100000Y-75505000D01*
X112948840Y-75535068D01*
X112820693Y-75620693D01*
X111620693Y-76820693D01*
X111535068Y-76948840D01*
X111505000Y-77100000D01*
X111505000Y-84036386D01*
X111182084Y-84359302D01*
X111029200Y-84206151D01*
X110918098Y-84160018D01*
X111028172Y-84114536D01*
X111223849Y-83919200D01*
X111329879Y-83663851D01*
X111330121Y-83387362D01*
X111224536Y-83131828D01*
X111029200Y-82936151D01*
X110918098Y-82890018D01*
X111028172Y-82844536D01*
X111223849Y-82649200D01*
X111329879Y-82393851D01*
X111330121Y-82117362D01*
X111224536Y-81861828D01*
X111029200Y-81666151D01*
X110918098Y-81620018D01*
X111028172Y-81574536D01*
X111223849Y-81379200D01*
X111329879Y-81123851D01*
X111330121Y-80847362D01*
X111224536Y-80591828D01*
X111029200Y-80396151D01*
X110773851Y-80290121D01*
X110497362Y-80289879D01*
X110241828Y-80395464D01*
X110046151Y-80590800D01*
X110000018Y-80701902D01*
X109954536Y-80591828D01*
X109759200Y-80396151D01*
X109503851Y-80290121D01*
X109227362Y-80289879D01*
X108971828Y-80395464D01*
X108776151Y-80590800D01*
X108670121Y-80846149D01*
X108669879Y-81122638D01*
X103395000Y-81122638D01*
X103395000Y-71320824D01*
X104379719Y-71320824D01*
X104625830Y-71916458D01*
X105081145Y-72372569D01*
X105676348Y-72619718D01*
X106320824Y-72620281D01*
X106916458Y-72374170D01*
X107372569Y-71918855D01*
X107619718Y-71323652D01*
X107620281Y-70679176D01*
X107374170Y-70083542D01*
X106918855Y-69627431D01*
X106323652Y-69380282D01*
X105679176Y-69379719D01*
X105083542Y-69625830D01*
X104627431Y-70081145D01*
X104380282Y-70676348D01*
X104379719Y-71320824D01*
X103395000Y-71320824D01*
X103395000Y-70038904D01*
X103524323Y-69388755D01*
X103870565Y-68870565D01*
X104388755Y-68524323D01*
X105038903Y-68395000D01*
X123800000Y-68395000D01*
X123800000Y-84304998D01*
G36*
X133800000Y-87854996D02*
X125362876Y-87854996D01*
X125100000Y-87592120D01*
X125100000Y-77261412D01*
X125979772Y-77261412D01*
X126180306Y-77746743D01*
X126551304Y-78118389D01*
X127036284Y-78319770D01*
X127561412Y-78320228D01*
X128046743Y-78119694D01*
X128418389Y-77748696D01*
X128619770Y-77263716D01*
X128620228Y-76738588D01*
X128419694Y-76253257D01*
X128048696Y-75881611D01*
X127563716Y-75680230D01*
X127038588Y-75679772D01*
X126553257Y-75880306D01*
X126181611Y-76251304D01*
X125980230Y-76736284D01*
X125979772Y-77261412D01*
X125100000Y-77261412D01*
X125100000Y-68395000D01*
X133800000Y-68395000D01*
X133800000Y-87854996D01*
X133800000Y-87854996D01*
G37*
X133800000Y-87854996D02*
X125362876Y-87854996D01*
X125100000Y-87592120D01*
X125100000Y-77261412D01*
X125979772Y-77261412D01*
X126180306Y-77746743D01*
X126551304Y-78118389D01*
X127036284Y-78319770D01*
X127561412Y-78320228D01*
X128046743Y-78119694D01*
X128418389Y-77748696D01*
X128619770Y-77263716D01*
X128620228Y-76738588D01*
X128419694Y-76253257D01*
X128048696Y-75881611D01*
X127563716Y-75680230D01*
X127038588Y-75679772D01*
X126553257Y-75880306D01*
X126181611Y-76251304D01*
X125980230Y-76736284D01*
X125979772Y-77261412D01*
X125100000Y-77261412D01*
X125100000Y-68395000D01*
X133800000Y-68395000D01*
X133800000Y-87854996D01*
G36*
X143800000Y-87854996D02*
X135700000Y-87854996D01*
X135700000Y-77261412D01*
X135979772Y-77261412D01*
X136180306Y-77746743D01*
X136551304Y-78118389D01*
X137036284Y-78319770D01*
X137561412Y-78320228D01*
X138046743Y-78119694D01*
X138418389Y-77748696D01*
X138619770Y-77263716D01*
X138620228Y-76738588D01*
X138419694Y-76253257D01*
X138048696Y-75881611D01*
X137563716Y-75680230D01*
X137038588Y-75679772D01*
X136553257Y-75880306D01*
X136181611Y-76251304D01*
X135980230Y-76736284D01*
X135979772Y-77261412D01*
X135700000Y-77261412D01*
X135700000Y-68395000D01*
X143800000Y-68395000D01*
X143800000Y-87854996D01*
X143800000Y-87854996D01*
G37*
X143800000Y-87854996D02*
X135700000Y-87854996D01*
X135700000Y-77261412D01*
X135979772Y-77261412D01*
X136180306Y-77746743D01*
X136551304Y-78118389D01*
X137036284Y-78319770D01*
X137561412Y-78320228D01*
X138046743Y-78119694D01*
X138418389Y-77748696D01*
X138619770Y-77263716D01*
X138620228Y-76738588D01*
X138419694Y-76253257D01*
X138048696Y-75881611D01*
X137563716Y-75680230D01*
X137038588Y-75679772D01*
X136553257Y-75880306D01*
X136181611Y-76251304D01*
X135980230Y-76736284D01*
X135979772Y-77261412D01*
X135700000Y-77261412D01*
X135700000Y-68395000D01*
X143800000Y-68395000D01*
X143800000Y-87854996D01*
G36*
X153800000Y-87854996D02*
X145700000Y-87854996D01*
X145700000Y-77261412D01*
X145979772Y-77261412D01*
X146180306Y-77746743D01*
X146551304Y-78118389D01*
X147036284Y-78319770D01*
X147561412Y-78320228D01*
X148046743Y-78119694D01*
X148418389Y-77748696D01*
X148619770Y-77263716D01*
X148620228Y-76738588D01*
X148419694Y-76253257D01*
X148048696Y-75881611D01*
X147563716Y-75680230D01*
X147038588Y-75679772D01*
X146553257Y-75880306D01*
X146181611Y-76251304D01*
X145980230Y-76736284D01*
X145979772Y-77261412D01*
X145700000Y-77261412D01*
X145700000Y-68395000D01*
X153800000Y-68395000D01*
X153800000Y-87854996D01*
X153800000Y-87854996D01*
G37*
X153800000Y-87854996D02*
X145700000Y-87854996D01*
X145700000Y-77261412D01*
X145979772Y-77261412D01*
X146180306Y-77746743D01*
X146551304Y-78118389D01*
X147036284Y-78319770D01*
X147561412Y-78320228D01*
X148046743Y-78119694D01*
X148418389Y-77748696D01*
X148619770Y-77263716D01*
X148620228Y-76738588D01*
X148419694Y-76253257D01*
X148048696Y-75881611D01*
X147563716Y-75680230D01*
X147038588Y-75679772D01*
X146553257Y-75880306D01*
X146181611Y-76251304D01*
X145980230Y-76736284D01*
X145979772Y-77261412D01*
X145700000Y-77261412D01*
X145700000Y-68395000D01*
X153800000Y-68395000D01*
X153800000Y-87854996D01*
G36*
X163800000Y-87900000D02*
X161773509Y-87900000D01*
X161751156Y-87885064D01*
X161599996Y-87854996D01*
X155700000Y-87854996D01*
X155700000Y-77261412D01*
X155979772Y-77261412D01*
X156180306Y-77746743D01*
X156551304Y-78118389D01*
X157036284Y-78319770D01*
X157561412Y-78320228D01*
X158046743Y-78119694D01*
X158418389Y-77748696D01*
X158619770Y-77263716D01*
X158620228Y-76738588D01*
X158419694Y-76253257D01*
X158048696Y-75881611D01*
X157563716Y-75680230D01*
X157038588Y-75679772D01*
X156553257Y-75880306D01*
X156181611Y-76251304D01*
X155980230Y-76736284D01*
X155979772Y-77261412D01*
X155700000Y-77261412D01*
X155700000Y-68395000D01*
X163800000Y-68395000D01*
X163800000Y-87900000D01*
X163800000Y-87900000D01*
G37*
X163800000Y-87900000D02*
X161773509Y-87900000D01*
X161751156Y-87885064D01*
X161599996Y-87854996D01*
X155700000Y-87854996D01*
X155700000Y-77261412D01*
X155979772Y-77261412D01*
X156180306Y-77746743D01*
X156551304Y-78118389D01*
X157036284Y-78319770D01*
X157561412Y-78320228D01*
X158046743Y-78119694D01*
X158418389Y-77748696D01*
X158619770Y-77263716D01*
X158620228Y-76738588D01*
X158419694Y-76253257D01*
X158048696Y-75881611D01*
X157563716Y-75680230D01*
X157038588Y-75679772D01*
X156553257Y-75880306D01*
X156181611Y-76251304D01*
X155980230Y-76736284D01*
X155979772Y-77261412D01*
X155700000Y-77261412D01*
X155700000Y-68395000D01*
X163800000Y-68395000D01*
X163800000Y-87900000D01*
M02*
