G04 #@! TF.FileFunction,Copper,L1,Top,Signal*
%FSLAX46Y46*%
G04 Gerber Fmt 4.6, Leading zero omitted, Abs format (unit mm)*
G04 Created by KiCad (PCBNEW 4.0.6-e0-6349~53~ubuntu14.04.1) date Sat Apr 15 22:34:14 2017*
%MOMM*%
%LPD*%
G01*
G04 APERTURE LIST*
%ADD10C,0.100000*%
%ADD11R,0.700000X1.150000*%
%ADD12R,4.700000X1.550000*%
%ADD13R,4.200000X3.300000*%
%ADD14C,2.000000*%
%ADD15C,1.524000*%
%ADD16R,0.787000X0.864000*%
%ADD17R,1.200000X1.200000*%
%ADD18R,0.864000X0.787000*%
%ADD19R,0.800000X1.200000*%
%ADD20R,1.500000X0.600000*%
%ADD21C,1.000000*%
%ADD22C,0.750000*%
%ADD23C,0.600000*%
%ADD24C,0.250000*%
%ADD25C,0.500000*%
%ADD26C,0.150000*%
%ADD27C,0.200000*%
G04 APERTURE END LIST*
D10*
D11*
X159165000Y-90125000D03*
X157895000Y-90125000D03*
X160435000Y-90125000D03*
D12*
X159800000Y-84650000D03*
D13*
X159800000Y-86850000D03*
D11*
X161705000Y-90125000D03*
X149165000Y-90125000D03*
X147895000Y-90125000D03*
X150435000Y-90125000D03*
D12*
X149800000Y-84650000D03*
D13*
X149800000Y-86850000D03*
D11*
X151705000Y-90125000D03*
X139165000Y-90125000D03*
X137895000Y-90125000D03*
X140435000Y-90125000D03*
D12*
X139800000Y-84650000D03*
D13*
X139800000Y-86850000D03*
D11*
X141705000Y-90125000D03*
X129165000Y-90125000D03*
X127895000Y-90125000D03*
X130435000Y-90125000D03*
D12*
X129800000Y-84650000D03*
D13*
X129800000Y-86850000D03*
D11*
X131705000Y-90125000D03*
D14*
X162300000Y-77000000D03*
X157300000Y-77000000D03*
X127300000Y-77000000D03*
X132300000Y-77000000D03*
X152300000Y-77000000D03*
X147300000Y-77000000D03*
X142300000Y-77000000D03*
X137300000Y-77000000D03*
D15*
X120100000Y-97600000D03*
X120100000Y-100140000D03*
X120100000Y-95060000D03*
D16*
X116574500Y-100200000D03*
X115025500Y-100200000D03*
X116574500Y-95000000D03*
X115025500Y-95000000D03*
D17*
X163900000Y-87150000D03*
X163900000Y-89250000D03*
X153900000Y-87150000D03*
X153900000Y-89250000D03*
X143900000Y-87150000D03*
X143900000Y-89250000D03*
X133900000Y-87150000D03*
X133900000Y-89250000D03*
D18*
X113800000Y-72874500D03*
X113800000Y-71325500D03*
X116400000Y-72874500D03*
X116400000Y-71325500D03*
X118900000Y-72874500D03*
X118900000Y-71325500D03*
X121500000Y-72874500D03*
X121500000Y-71325500D03*
X125200000Y-90325500D03*
X125200000Y-91874500D03*
X125200000Y-86025500D03*
X125200000Y-87574500D03*
X114700000Y-85025500D03*
X114700000Y-86574500D03*
X114700000Y-88925500D03*
X114700000Y-90474500D03*
X165600000Y-87825500D03*
X165600000Y-89374500D03*
X155600000Y-87825500D03*
X155600000Y-89374500D03*
X145600000Y-87825500D03*
X145600000Y-89374500D03*
X135600000Y-87825500D03*
X135600000Y-89374500D03*
D14*
X127300000Y-97600000D03*
X132300000Y-97600000D03*
X162300000Y-97600000D03*
X157300000Y-97600000D03*
X137300000Y-97600000D03*
X142300000Y-97600000D03*
X147300000Y-97600000D03*
X152300000Y-97600000D03*
D19*
X122745000Y-74550000D03*
X121475000Y-74550000D03*
X120205000Y-74550000D03*
X118935000Y-74550000D03*
X117665000Y-74550000D03*
X116395000Y-74550000D03*
X115125000Y-74550000D03*
X113855000Y-74550000D03*
X113855000Y-80850000D03*
X115125000Y-80850000D03*
X116395000Y-80850000D03*
X117665000Y-80850000D03*
X118935000Y-80850000D03*
X120205000Y-80850000D03*
X121475000Y-80850000D03*
X122745000Y-80850000D03*
D20*
X122300000Y-91610000D03*
X122300000Y-90340000D03*
X122300000Y-89070000D03*
X122300000Y-87800000D03*
X122300000Y-86530000D03*
X122300000Y-85260000D03*
X122300000Y-83990000D03*
X116900000Y-83990000D03*
X116900000Y-85260000D03*
X116900000Y-86530000D03*
X116900000Y-87800000D03*
X116900000Y-89070000D03*
X116900000Y-90340000D03*
X116900000Y-91610000D03*
D21*
X106000000Y-99600000D03*
X169000000Y-99600000D03*
X106000000Y-75000000D03*
D22*
X109365000Y-80985000D03*
X110635000Y-80985000D03*
X109365000Y-92415000D03*
X109365000Y-82255000D03*
X110635000Y-82255000D03*
X109365000Y-83525000D03*
X110635000Y-83525000D03*
X109365000Y-84795000D03*
X110635000Y-84795000D03*
X109365000Y-86065000D03*
X110635000Y-86065000D03*
X109365000Y-87335000D03*
X110635000Y-87335000D03*
X109365000Y-88605000D03*
X110635000Y-88605000D03*
X109365000Y-89875000D03*
X110635000Y-89875000D03*
X109365000Y-91145000D03*
X110635000Y-91145000D03*
X110635000Y-92415000D03*
D23*
X160000000Y-92500000D03*
X160000000Y-93500000D03*
X160000000Y-94500000D03*
X160000000Y-95500000D03*
X161000000Y-95500000D03*
X161000000Y-94500000D03*
X161000000Y-93500000D03*
X161000000Y-92500000D03*
X162000000Y-92500000D03*
X162000000Y-93500000D03*
X162000000Y-94500000D03*
X162000000Y-95500000D03*
X150000000Y-92500000D03*
X150000000Y-93500000D03*
X150000000Y-94500000D03*
X150000000Y-95500000D03*
X151000000Y-95500000D03*
X151000000Y-94500000D03*
X151000000Y-93500000D03*
X151000000Y-92500000D03*
X152000000Y-92500000D03*
X152000000Y-93500000D03*
X152000000Y-94500000D03*
X152000000Y-95500000D03*
X140000000Y-92500000D03*
X140000000Y-93500000D03*
X140000000Y-94500000D03*
X140000000Y-95500000D03*
X141000000Y-95500000D03*
X141000000Y-94500000D03*
X141000000Y-93500000D03*
X141000000Y-92500000D03*
X142000000Y-92500000D03*
X142000000Y-93500000D03*
X142000000Y-94500000D03*
X142000000Y-95500000D03*
X130000000Y-92500000D03*
X130000000Y-93500000D03*
X130000000Y-94500000D03*
X130000000Y-95500000D03*
X131000000Y-95500000D03*
X131000000Y-94500000D03*
X131000000Y-93500000D03*
X131000000Y-92500000D03*
X132000000Y-92500000D03*
X132000000Y-93500000D03*
X132000000Y-94500000D03*
X132000000Y-95500000D03*
X162425000Y-89075000D03*
X118400000Y-87600000D03*
X152500000Y-89025000D03*
X118225000Y-84050000D03*
X142475000Y-89075000D03*
X123725000Y-85700000D03*
X132775000Y-90125000D03*
X123700000Y-89700000D03*
X122700000Y-75900000D03*
X120200000Y-76500000D03*
X117700000Y-77100000D03*
X115100000Y-77900000D03*
X115400000Y-82275000D03*
X116400000Y-79500000D03*
X122500000Y-82500000D03*
X113900000Y-79600000D03*
X120900000Y-82500000D03*
X162000000Y-83000000D03*
X162000000Y-82000000D03*
X162000000Y-81000000D03*
X162000000Y-80000000D03*
X161000000Y-80000000D03*
X161000000Y-81000000D03*
X161000000Y-82000000D03*
X161000000Y-83000000D03*
X160000000Y-83000000D03*
X160000000Y-82000000D03*
X160000000Y-81000000D03*
X160000000Y-80000000D03*
X130000000Y-80000000D03*
X130000000Y-81000000D03*
X130000000Y-82000000D03*
X130000000Y-83000000D03*
X131000000Y-83000000D03*
X131000000Y-82000000D03*
X131000000Y-81000000D03*
X131000000Y-80000000D03*
X132000000Y-80000000D03*
X132000000Y-81000000D03*
X132000000Y-82000000D03*
X132000000Y-83000000D03*
X152000000Y-83000000D03*
X152000000Y-82000000D03*
X152000000Y-81000000D03*
X152000000Y-80000000D03*
X151000000Y-80000000D03*
X151000000Y-81000000D03*
X151000000Y-82000000D03*
X151000000Y-83000000D03*
X150000000Y-83000000D03*
X150000000Y-82000000D03*
X150000000Y-81000000D03*
X150000000Y-80000000D03*
X142000000Y-83000000D03*
X142000000Y-82000000D03*
X142000000Y-81000000D03*
X142000000Y-80000000D03*
X141000000Y-80000000D03*
X141000000Y-81000000D03*
X141000000Y-82000000D03*
X141000000Y-83000000D03*
X140000000Y-83000000D03*
X140000000Y-82000000D03*
X140000000Y-81000000D03*
X140000000Y-80000000D03*
D24*
X162300000Y-97600000D02*
X162300000Y-95800000D01*
X160000000Y-94500000D02*
X160000000Y-93500000D01*
X161000000Y-95500000D02*
X160000000Y-95500000D01*
X161000000Y-93500000D02*
X161000000Y-94500000D01*
X162000000Y-92500000D02*
X161000000Y-92500000D01*
X162000000Y-94500000D02*
X162000000Y-93500000D01*
X162300000Y-95800000D02*
X162000000Y-95500000D01*
X152300000Y-97600000D02*
X152300000Y-95800000D01*
X150000000Y-94500000D02*
X150000000Y-93500000D01*
X151000000Y-95500000D02*
X150000000Y-95500000D01*
X151000000Y-93500000D02*
X151000000Y-94500000D01*
X152000000Y-92500000D02*
X151000000Y-92500000D01*
X152000000Y-94500000D02*
X152000000Y-93500000D01*
X152300000Y-95800000D02*
X152000000Y-95500000D01*
X142300000Y-97600000D02*
X142300000Y-95800000D01*
X140000000Y-94500000D02*
X140000000Y-93500000D01*
X141000000Y-95500000D02*
X140000000Y-95500000D01*
X141000000Y-93500000D02*
X141000000Y-94500000D01*
X142000000Y-92500000D02*
X141000000Y-92500000D01*
X142000000Y-94500000D02*
X142000000Y-93500000D01*
X142300000Y-95800000D02*
X142000000Y-95500000D01*
X132300000Y-97600000D02*
X132300000Y-95800000D01*
X130000000Y-94500000D02*
X130000000Y-93500000D01*
X131000000Y-95500000D02*
X130000000Y-95500000D01*
X131000000Y-93500000D02*
X131000000Y-94500000D01*
X132000000Y-92500000D02*
X131000000Y-92500000D01*
X132000000Y-94500000D02*
X132000000Y-93500000D01*
X132300000Y-95800000D02*
X132000000Y-95500000D01*
X122300000Y-87800000D02*
X124974500Y-87800000D01*
X124974500Y-87800000D02*
X125200000Y-87574500D01*
X113800000Y-71325500D02*
X116400000Y-71325500D01*
D25*
X109365000Y-82255000D02*
X109365000Y-80985000D01*
X109365000Y-80985000D02*
X109365000Y-72535000D01*
X109365000Y-72535000D02*
X110574500Y-71325500D01*
X110574500Y-71325500D02*
X116400000Y-71325500D01*
X116400000Y-71325500D02*
X118900000Y-71325500D01*
X118900000Y-71325500D02*
X121500000Y-71325500D01*
X110635000Y-80985000D02*
X110635000Y-82255000D01*
X120100000Y-100140000D02*
X116634500Y-100140000D01*
X116634500Y-100140000D02*
X116574500Y-100200000D01*
D26*
X116900000Y-87800000D02*
X118200000Y-87800000D01*
X162600000Y-89250000D02*
X163900000Y-89250000D01*
X162425000Y-89075000D02*
X162600000Y-89250000D01*
X118200000Y-87800000D02*
X118400000Y-87600000D01*
X163900000Y-89250000D02*
X163025000Y-90125000D01*
X163025000Y-90125000D02*
X161705000Y-90125000D01*
X116900000Y-83990000D02*
X118165000Y-83990000D01*
X152725000Y-89250000D02*
X153900000Y-89250000D01*
X152500000Y-89025000D02*
X152725000Y-89250000D01*
X118165000Y-83990000D02*
X118225000Y-84050000D01*
X153900000Y-89250000D02*
X153025000Y-90125000D01*
X153025000Y-90125000D02*
X151705000Y-90125000D01*
X122300000Y-85260000D02*
X123285000Y-85260000D01*
X142650000Y-89250000D02*
X143900000Y-89250000D01*
X142475000Y-89075000D02*
X142650000Y-89250000D01*
X123285000Y-85260000D02*
X123725000Y-85700000D01*
X143900000Y-89250000D02*
X143025000Y-90125000D01*
X143025000Y-90125000D02*
X141705000Y-90125000D01*
X143525000Y-88875000D02*
X143900000Y-89250000D01*
X141705000Y-89695000D02*
X141705000Y-90125000D01*
X122300000Y-89070000D02*
X123070000Y-89070000D01*
X123070000Y-89070000D02*
X123700000Y-89700000D01*
X133900000Y-89250000D02*
X133025000Y-90125000D01*
X133025000Y-90125000D02*
X132775000Y-90125000D01*
X132775000Y-90125000D02*
X131705000Y-90125000D01*
X122745000Y-75855000D02*
X122745000Y-74550000D01*
X122700000Y-75900000D02*
X122745000Y-75855000D01*
X120205000Y-76495000D02*
X120205000Y-74550000D01*
X120200000Y-76500000D02*
X120205000Y-76495000D01*
X117665000Y-77065000D02*
X117665000Y-74550000D01*
X117700000Y-77100000D02*
X117665000Y-77065000D01*
X115125000Y-77875000D02*
X115125000Y-74550000D01*
X115100000Y-77900000D02*
X115125000Y-77875000D01*
D25*
X120205000Y-80850000D02*
X120205000Y-79630000D01*
X120205000Y-79630000D02*
X119850000Y-79275000D01*
X117665000Y-80850000D02*
X117665000Y-79710000D01*
X122745000Y-79470000D02*
X122745000Y-80850000D01*
X122550000Y-79275000D02*
X122745000Y-79470000D01*
X118100000Y-79275000D02*
X119850000Y-79275000D01*
X119850000Y-79275000D02*
X122550000Y-79275000D01*
X117665000Y-79710000D02*
X118100000Y-79275000D01*
X115387500Y-82287500D02*
X115400000Y-82300000D01*
X115400000Y-82275000D02*
X115387500Y-82287500D01*
X117665000Y-80850000D02*
X117665000Y-81935000D01*
X117665000Y-81935000D02*
X117300000Y-82300000D01*
X117300000Y-82300000D02*
X115400000Y-82300000D01*
X115125000Y-82025000D02*
X115125000Y-80850000D01*
X115400000Y-82300000D02*
X115125000Y-82025000D01*
X120100000Y-95060000D02*
X116634500Y-95060000D01*
X116634500Y-95060000D02*
X116634500Y-91875500D01*
X116634500Y-91875500D02*
X116900000Y-91610000D01*
D26*
X113855000Y-74550000D02*
X113855000Y-72929500D01*
X113855000Y-72929500D02*
X113800000Y-72874500D01*
X116395000Y-74550000D02*
X116395000Y-72879500D01*
X116395000Y-72879500D02*
X116400000Y-72874500D01*
X118935000Y-74550000D02*
X118935000Y-72909500D01*
X118935000Y-72909500D02*
X118900000Y-72874500D01*
X121475000Y-74550000D02*
X121475000Y-72899500D01*
X121475000Y-72899500D02*
X121500000Y-72874500D01*
X122300000Y-86530000D02*
X121130000Y-86530000D01*
X116395000Y-79505000D02*
X116395000Y-80850000D01*
X116400000Y-79500000D02*
X116395000Y-79505000D01*
X121800000Y-82500000D02*
X122500000Y-82500000D01*
X120900000Y-83400000D02*
X121800000Y-82500000D01*
X120900000Y-86300000D02*
X120900000Y-83400000D01*
X121130000Y-86530000D02*
X120900000Y-86300000D01*
X125200000Y-86025500D02*
X124695500Y-86530000D01*
X124695500Y-86530000D02*
X122300000Y-86530000D01*
X122300000Y-90340000D02*
X121040000Y-90340000D01*
X113855000Y-79645000D02*
X113855000Y-80850000D01*
X113900000Y-79600000D02*
X113855000Y-79645000D01*
X120599998Y-82800002D02*
X120900000Y-82500000D01*
X120599998Y-89899998D02*
X120599998Y-82800002D01*
X121040000Y-90340000D02*
X120599998Y-89899998D01*
X125200000Y-90325500D02*
X125185500Y-90340000D01*
X125185500Y-90340000D02*
X122300000Y-90340000D01*
X118935000Y-80850000D02*
X118935000Y-84865000D01*
X118540000Y-85260000D02*
X116900000Y-85260000D01*
X118935000Y-84865000D02*
X118540000Y-85260000D01*
X114700000Y-85025500D02*
X114934500Y-85260000D01*
X114934500Y-85260000D02*
X116900000Y-85260000D01*
X121475000Y-80850000D02*
X121475000Y-81625000D01*
X119235002Y-82900000D02*
X119235002Y-88464998D01*
X119235002Y-88464998D02*
X118630000Y-89070000D01*
X118630000Y-89070000D02*
X116900000Y-89070000D01*
X119235002Y-82064998D02*
X119235002Y-82900000D01*
X119400000Y-81900000D02*
X119235002Y-82064998D01*
X121200000Y-81900000D02*
X119400000Y-81900000D01*
X121475000Y-81625000D02*
X121200000Y-81900000D01*
X114700000Y-88925500D02*
X114844500Y-89070000D01*
X114844500Y-89070000D02*
X116900000Y-89070000D01*
D24*
X159800000Y-86850000D02*
X159800000Y-85200000D01*
X159800000Y-85200000D02*
X162000000Y-83000000D01*
X162000000Y-82000000D02*
X162000000Y-81000000D01*
X162000000Y-80000000D02*
X161000000Y-80000000D01*
X161000000Y-81000000D02*
X161000000Y-82000000D01*
X161000000Y-83000000D02*
X160000000Y-83000000D01*
X160000000Y-82000000D02*
X160000000Y-81000000D01*
X129800000Y-84650000D02*
X130350000Y-84650000D01*
X130350000Y-84650000D02*
X132000000Y-83000000D01*
X130000000Y-82000000D02*
X130000000Y-81000000D01*
X131000000Y-83000000D02*
X130000000Y-83000000D01*
X131000000Y-81000000D02*
X131000000Y-82000000D01*
X132000000Y-80000000D02*
X131000000Y-80000000D01*
X132000000Y-82000000D02*
X132000000Y-81000000D01*
X129800000Y-84650000D02*
X130850000Y-84650000D01*
X149800000Y-86850000D02*
X149800000Y-85200000D01*
X149800000Y-85200000D02*
X152000000Y-83000000D01*
X152000000Y-82000000D02*
X152000000Y-81000000D01*
X152000000Y-80000000D02*
X151000000Y-80000000D01*
X151000000Y-81000000D02*
X151000000Y-82000000D01*
X151000000Y-83000000D02*
X150000000Y-83000000D01*
X150000000Y-82000000D02*
X150000000Y-81000000D01*
X139800000Y-84650000D02*
X140350000Y-84650000D01*
X140350000Y-84650000D02*
X142000000Y-83000000D01*
X142000000Y-82000000D02*
X142000000Y-81000000D01*
X142000000Y-80000000D02*
X141000000Y-80000000D01*
X141000000Y-81000000D02*
X141000000Y-82000000D01*
X141000000Y-83000000D02*
X140000000Y-83000000D01*
X140000000Y-82000000D02*
X140000000Y-81000000D01*
D26*
X165600000Y-87825500D02*
X164924500Y-87150000D01*
X164924500Y-87150000D02*
X163900000Y-87150000D01*
X155600000Y-87825500D02*
X154924500Y-87150000D01*
X154924500Y-87150000D02*
X153900000Y-87150000D01*
X145600000Y-87825500D02*
X144924500Y-87150000D01*
X144924500Y-87150000D02*
X143900000Y-87150000D01*
X135600000Y-87825500D02*
X134924500Y-87150000D01*
X134924500Y-87150000D02*
X133900000Y-87150000D01*
D27*
G36*
X123800000Y-85080064D02*
X123663559Y-85079945D01*
X123564307Y-84980693D01*
X123436160Y-84895068D01*
X123361248Y-84880167D01*
X123353956Y-84841415D01*
X123283872Y-84732502D01*
X123176937Y-84659436D01*
X123050000Y-84633731D01*
X121550000Y-84633731D01*
X121431415Y-84656044D01*
X121322502Y-84726128D01*
X121295000Y-84766378D01*
X121295000Y-83563614D01*
X121963614Y-82895000D01*
X122018263Y-82895000D01*
X122148339Y-83025304D01*
X122376133Y-83119893D01*
X122622785Y-83120108D01*
X122850743Y-83025917D01*
X123025304Y-82851661D01*
X123119893Y-82623867D01*
X123120108Y-82377215D01*
X123025917Y-82149257D01*
X122851661Y-81974696D01*
X122623867Y-81880107D01*
X122377215Y-81879892D01*
X122149257Y-81974083D01*
X122018111Y-82105000D01*
X121800000Y-82105000D01*
X121648840Y-82135068D01*
X121520693Y-82220693D01*
X121474515Y-82266871D01*
X121447198Y-82200761D01*
X121479307Y-82179307D01*
X121754307Y-81904307D01*
X121770477Y-81880107D01*
X121839859Y-81776269D01*
X121875000Y-81776269D01*
X121993585Y-81753956D01*
X122102498Y-81683872D01*
X122109055Y-81674276D01*
X122111128Y-81677498D01*
X122218063Y-81750564D01*
X122345000Y-81776269D01*
X123145000Y-81776269D01*
X123263585Y-81753956D01*
X123372498Y-81683872D01*
X123445564Y-81576937D01*
X123471269Y-81450000D01*
X123471269Y-80250000D01*
X123448956Y-80131415D01*
X123378872Y-80022502D01*
X123315000Y-79978860D01*
X123315000Y-79470000D01*
X123310791Y-79448840D01*
X123271612Y-79251871D01*
X123148051Y-79066949D01*
X122953051Y-78871949D01*
X122768130Y-78748389D01*
X122550000Y-78705000D01*
X118100000Y-78705000D01*
X117881870Y-78748389D01*
X117696949Y-78871949D01*
X117261949Y-79306949D01*
X117138389Y-79491870D01*
X117095000Y-79710000D01*
X117095000Y-79979129D01*
X117037502Y-80016128D01*
X117030945Y-80025724D01*
X117028872Y-80022502D01*
X116921937Y-79949436D01*
X116843308Y-79933514D01*
X116925304Y-79851661D01*
X117019893Y-79623867D01*
X117020108Y-79377215D01*
X116925917Y-79149257D01*
X116751661Y-78974696D01*
X116523867Y-78880107D01*
X116277215Y-78879892D01*
X116049257Y-78974083D01*
X115874696Y-79148339D01*
X115780107Y-79376133D01*
X115779892Y-79622785D01*
X115874083Y-79850743D01*
X115954543Y-79931343D01*
X115876415Y-79946044D01*
X115767502Y-80016128D01*
X115760945Y-80025724D01*
X115758872Y-80022502D01*
X115651937Y-79949436D01*
X115525000Y-79923731D01*
X114725000Y-79923731D01*
X114606415Y-79946044D01*
X114497502Y-80016128D01*
X114490945Y-80025724D01*
X114488872Y-80022502D01*
X114409005Y-79967931D01*
X114425304Y-79951661D01*
X114519893Y-79723867D01*
X114520108Y-79477215D01*
X114425917Y-79249257D01*
X114251661Y-79074696D01*
X114023867Y-78980107D01*
X113777215Y-78979892D01*
X113549257Y-79074083D01*
X113374696Y-79248339D01*
X113280107Y-79476133D01*
X113279892Y-79722785D01*
X113369564Y-79939807D01*
X113336415Y-79946044D01*
X113227502Y-80016128D01*
X113154436Y-80123063D01*
X113128731Y-80250000D01*
X113128731Y-81450000D01*
X113151044Y-81568585D01*
X113221128Y-81677498D01*
X113328063Y-81750564D01*
X113455000Y-81776269D01*
X114255000Y-81776269D01*
X114373585Y-81753956D01*
X114482498Y-81683872D01*
X114489055Y-81674276D01*
X114491128Y-81677498D01*
X114555000Y-81721140D01*
X114555000Y-82025000D01*
X114598389Y-82243130D01*
X114646186Y-82314663D01*
X114721949Y-82428051D01*
X114842004Y-82548106D01*
X114874083Y-82625743D01*
X115048339Y-82800304D01*
X115276133Y-82894893D01*
X115522785Y-82895108D01*
X115583551Y-82870000D01*
X117300000Y-82870000D01*
X117518130Y-82826611D01*
X117703051Y-82703051D01*
X118068051Y-82338051D01*
X118116907Y-82264932D01*
X118191611Y-82153130D01*
X118235000Y-81935000D01*
X118235000Y-81720871D01*
X118292498Y-81683872D01*
X118299055Y-81674276D01*
X118301128Y-81677498D01*
X118408063Y-81750564D01*
X118535000Y-81776269D01*
X118540000Y-81776269D01*
X118540000Y-83509473D01*
X118348867Y-83430107D01*
X118102215Y-83429892D01*
X117913156Y-83508010D01*
X117883872Y-83462502D01*
X117776937Y-83389436D01*
X117650000Y-83363731D01*
X116150000Y-83363731D01*
X116031415Y-83386044D01*
X115922502Y-83456128D01*
X115849436Y-83563063D01*
X115823731Y-83690000D01*
X115823731Y-84290000D01*
X115846044Y-84408585D01*
X115916128Y-84517498D01*
X116023063Y-84590564D01*
X116150000Y-84616269D01*
X117650000Y-84616269D01*
X117768585Y-84593956D01*
X117843705Y-84545618D01*
X117873339Y-84575304D01*
X118101133Y-84669893D01*
X118347785Y-84670108D01*
X118540000Y-84590686D01*
X118540000Y-84701386D01*
X118376386Y-84865000D01*
X117958394Y-84865000D01*
X117953956Y-84841415D01*
X117883872Y-84732502D01*
X117776937Y-84659436D01*
X117650000Y-84633731D01*
X116150000Y-84633731D01*
X116031415Y-84656044D01*
X115922502Y-84726128D01*
X115849436Y-84833063D01*
X115842969Y-84865000D01*
X115458269Y-84865000D01*
X115458269Y-84632000D01*
X115435956Y-84513415D01*
X115365872Y-84404502D01*
X115258937Y-84331436D01*
X115132000Y-84305731D01*
X114268000Y-84305731D01*
X114149415Y-84328044D01*
X114040502Y-84398128D01*
X113967436Y-84505063D01*
X113941731Y-84632000D01*
X113941731Y-85419000D01*
X113964044Y-85537585D01*
X114034128Y-85646498D01*
X114141063Y-85719564D01*
X114268000Y-85745269D01*
X115132000Y-85745269D01*
X115250585Y-85722956D01*
X115356191Y-85655000D01*
X115841606Y-85655000D01*
X115846044Y-85678585D01*
X115916128Y-85787498D01*
X116023063Y-85860564D01*
X116150000Y-85886269D01*
X117650000Y-85886269D01*
X117768585Y-85863956D01*
X117877498Y-85793872D01*
X117950564Y-85686937D01*
X117957031Y-85655000D01*
X118540000Y-85655000D01*
X118691160Y-85624932D01*
X118819307Y-85539307D01*
X118840002Y-85518612D01*
X118840002Y-87163192D01*
X118751661Y-87074696D01*
X118523867Y-86980107D01*
X118277215Y-86979892D01*
X118049257Y-87074083D01*
X117874696Y-87248339D01*
X117868908Y-87262278D01*
X117776937Y-87199436D01*
X117650000Y-87173731D01*
X116150000Y-87173731D01*
X116031415Y-87196044D01*
X115922502Y-87266128D01*
X115849436Y-87373063D01*
X115823731Y-87500000D01*
X115823731Y-88100000D01*
X115846044Y-88218585D01*
X115916128Y-88327498D01*
X116023063Y-88400564D01*
X116150000Y-88426269D01*
X117650000Y-88426269D01*
X117768585Y-88403956D01*
X117877498Y-88333872D01*
X117950564Y-88226937D01*
X117957031Y-88195000D01*
X118200000Y-88195000D01*
X118210943Y-88192823D01*
X118276133Y-88219893D01*
X118522785Y-88220108D01*
X118750743Y-88125917D01*
X118840002Y-88036814D01*
X118840002Y-88301384D01*
X118466386Y-88675000D01*
X117958394Y-88675000D01*
X117953956Y-88651415D01*
X117883872Y-88542502D01*
X117776937Y-88469436D01*
X117650000Y-88443731D01*
X116150000Y-88443731D01*
X116031415Y-88466044D01*
X115922502Y-88536128D01*
X115849436Y-88643063D01*
X115842969Y-88675000D01*
X115458269Y-88675000D01*
X115458269Y-88532000D01*
X115435956Y-88413415D01*
X115365872Y-88304502D01*
X115258937Y-88231436D01*
X115132000Y-88205731D01*
X114268000Y-88205731D01*
X114149415Y-88228044D01*
X114040502Y-88298128D01*
X113967436Y-88405063D01*
X113941731Y-88532000D01*
X113941731Y-89319000D01*
X113964044Y-89437585D01*
X114034128Y-89546498D01*
X114141063Y-89619564D01*
X114268000Y-89645269D01*
X115132000Y-89645269D01*
X115250585Y-89622956D01*
X115359498Y-89552872D01*
X115419539Y-89465000D01*
X115841606Y-89465000D01*
X115846044Y-89488585D01*
X115916128Y-89597498D01*
X116023063Y-89670564D01*
X116150000Y-89696269D01*
X117650000Y-89696269D01*
X117768585Y-89673956D01*
X117877498Y-89603872D01*
X117950564Y-89496937D01*
X117957031Y-89465000D01*
X118630000Y-89465000D01*
X118781160Y-89434932D01*
X118909307Y-89349307D01*
X119514309Y-88744305D01*
X119599934Y-88616158D01*
X119630002Y-88464998D01*
X119630002Y-82295000D01*
X120313797Y-82295000D01*
X120280107Y-82376133D01*
X120279928Y-82581701D01*
X120235066Y-82648842D01*
X120204998Y-82800002D01*
X120204998Y-89899998D01*
X120235066Y-90051158D01*
X120320691Y-90179305D01*
X120760693Y-90619307D01*
X120888840Y-90704932D01*
X121040000Y-90735000D01*
X121241606Y-90735000D01*
X121246044Y-90758585D01*
X121316128Y-90867498D01*
X121423063Y-90940564D01*
X121550000Y-90966269D01*
X123050000Y-90966269D01*
X123168585Y-90943956D01*
X123277498Y-90873872D01*
X123350564Y-90766937D01*
X123357031Y-90735000D01*
X124444742Y-90735000D01*
X124464044Y-90837585D01*
X124534128Y-90946498D01*
X124641063Y-91019564D01*
X124768000Y-91045269D01*
X125632000Y-91045269D01*
X125750585Y-91022956D01*
X125859498Y-90952872D01*
X125932564Y-90845937D01*
X125958269Y-90719000D01*
X125958269Y-89932000D01*
X125935956Y-89813415D01*
X125865872Y-89704502D01*
X125758937Y-89631436D01*
X125632000Y-89605731D01*
X124768000Y-89605731D01*
X124649415Y-89628044D01*
X124540502Y-89698128D01*
X124467436Y-89805063D01*
X124441731Y-89932000D01*
X124441731Y-89945000D01*
X124269594Y-89945000D01*
X124319893Y-89823867D01*
X124320108Y-89577215D01*
X124225917Y-89349257D01*
X124051661Y-89174696D01*
X123823867Y-89080107D01*
X123638560Y-89079945D01*
X123376269Y-88817655D01*
X123376269Y-88770000D01*
X123353956Y-88651415D01*
X123283872Y-88542502D01*
X123176937Y-88469436D01*
X123050000Y-88443731D01*
X121550000Y-88443731D01*
X121431415Y-88466044D01*
X121322502Y-88536128D01*
X121249436Y-88643063D01*
X121223731Y-88770000D01*
X121223731Y-89370000D01*
X121246044Y-89488585D01*
X121316128Y-89597498D01*
X121423063Y-89670564D01*
X121550000Y-89696269D01*
X123050000Y-89696269D01*
X123080007Y-89690623D01*
X123079982Y-89719802D01*
X123050000Y-89713731D01*
X121550000Y-89713731D01*
X121431415Y-89736044D01*
X121322502Y-89806128D01*
X121249436Y-89913063D01*
X121242969Y-89945000D01*
X121203614Y-89945000D01*
X120994998Y-89736384D01*
X120994998Y-86898146D01*
X121130000Y-86925000D01*
X121241606Y-86925000D01*
X121246044Y-86948585D01*
X121316128Y-87057498D01*
X121423063Y-87130564D01*
X121550000Y-87156269D01*
X123050000Y-87156269D01*
X123168585Y-87133956D01*
X123277498Y-87063872D01*
X123350564Y-86956937D01*
X123357031Y-86925000D01*
X123800000Y-86925000D01*
X123800000Y-89000000D01*
X123807879Y-89038906D01*
X123830273Y-89071681D01*
X123863654Y-89093161D01*
X123900000Y-89100000D01*
X132973731Y-89100000D01*
X132973731Y-89536193D01*
X132898867Y-89505107D01*
X132652215Y-89504892D01*
X132424257Y-89599083D01*
X132381269Y-89641996D01*
X132381269Y-89550000D01*
X132358956Y-89431415D01*
X132288872Y-89322502D01*
X132181937Y-89249436D01*
X132055000Y-89223731D01*
X131355000Y-89223731D01*
X131236415Y-89246044D01*
X131127502Y-89316128D01*
X131054436Y-89423063D01*
X131028731Y-89550000D01*
X131028731Y-90700000D01*
X131051044Y-90818585D01*
X131121128Y-90927498D01*
X131228063Y-91000564D01*
X131355000Y-91026269D01*
X132055000Y-91026269D01*
X132173585Y-91003956D01*
X132282498Y-90933872D01*
X132355564Y-90826937D01*
X132381269Y-90700000D01*
X132381269Y-90608160D01*
X132423339Y-90650304D01*
X132651133Y-90744893D01*
X132897785Y-90745108D01*
X133125743Y-90650917D01*
X133300304Y-90476661D01*
X133348840Y-90359774D01*
X133532345Y-90176269D01*
X134500000Y-90176269D01*
X134618585Y-90153956D01*
X134727498Y-90083872D01*
X134800564Y-89976937D01*
X134826269Y-89850000D01*
X134826269Y-89100000D01*
X141854977Y-89100000D01*
X141854892Y-89197785D01*
X141865613Y-89223731D01*
X141355000Y-89223731D01*
X141236415Y-89246044D01*
X141127502Y-89316128D01*
X141054436Y-89423063D01*
X141028731Y-89550000D01*
X141028731Y-90700000D01*
X141051044Y-90818585D01*
X141121128Y-90927498D01*
X141228063Y-91000564D01*
X141355000Y-91026269D01*
X142055000Y-91026269D01*
X142173585Y-91003956D01*
X142282498Y-90933872D01*
X142355564Y-90826937D01*
X142381269Y-90700000D01*
X142381269Y-90520000D01*
X143025000Y-90520000D01*
X143176160Y-90489932D01*
X143304307Y-90404307D01*
X143532345Y-90176269D01*
X144500000Y-90176269D01*
X144618585Y-90153956D01*
X144727498Y-90083872D01*
X144800564Y-89976937D01*
X144826269Y-89850000D01*
X144826269Y-89100000D01*
X151879934Y-89100000D01*
X151879892Y-89147785D01*
X151911272Y-89223731D01*
X151355000Y-89223731D01*
X151236415Y-89246044D01*
X151127502Y-89316128D01*
X151054436Y-89423063D01*
X151028731Y-89550000D01*
X151028731Y-90700000D01*
X151051044Y-90818585D01*
X151121128Y-90927498D01*
X151228063Y-91000564D01*
X151355000Y-91026269D01*
X152055000Y-91026269D01*
X152173585Y-91003956D01*
X152282498Y-90933872D01*
X152355564Y-90826937D01*
X152381269Y-90700000D01*
X152381269Y-90520000D01*
X153025000Y-90520000D01*
X153176160Y-90489932D01*
X153304307Y-90404307D01*
X153532345Y-90176269D01*
X154500000Y-90176269D01*
X154618585Y-90153956D01*
X154727498Y-90083872D01*
X154800564Y-89976937D01*
X154826269Y-89850000D01*
X154826269Y-89100000D01*
X161804977Y-89100000D01*
X161804892Y-89197785D01*
X161815613Y-89223731D01*
X161355000Y-89223731D01*
X161236415Y-89246044D01*
X161127502Y-89316128D01*
X161054436Y-89423063D01*
X161028731Y-89550000D01*
X161028731Y-90700000D01*
X161051044Y-90818585D01*
X161121128Y-90927498D01*
X161228063Y-91000564D01*
X161355000Y-91026269D01*
X162055000Y-91026269D01*
X162173585Y-91003956D01*
X162282498Y-90933872D01*
X162355564Y-90826937D01*
X162381269Y-90700000D01*
X162381269Y-90520000D01*
X163025000Y-90520000D01*
X163176160Y-90489932D01*
X163304307Y-90404307D01*
X163532345Y-90176269D01*
X164500000Y-90176269D01*
X164618585Y-90153956D01*
X164727498Y-90083872D01*
X164800564Y-89976937D01*
X164826269Y-89850000D01*
X164826269Y-89100000D01*
X171605000Y-89100000D01*
X171605000Y-104561097D01*
X171475677Y-105211245D01*
X171129435Y-105729435D01*
X170611245Y-106075677D01*
X169961096Y-106205000D01*
X105038903Y-106205000D01*
X104388755Y-106075677D01*
X103870565Y-105729435D01*
X103524323Y-105211245D01*
X103395000Y-104561096D01*
X103395000Y-103920824D01*
X104379719Y-103920824D01*
X104625830Y-104516458D01*
X105081145Y-104972569D01*
X105676348Y-105219718D01*
X106320824Y-105220281D01*
X106916458Y-104974170D01*
X107372569Y-104518855D01*
X107619718Y-103923652D01*
X107619720Y-103920824D01*
X167379719Y-103920824D01*
X167625830Y-104516458D01*
X168081145Y-104972569D01*
X168676348Y-105219718D01*
X169320824Y-105220281D01*
X169916458Y-104974170D01*
X170372569Y-104518855D01*
X170619718Y-103923652D01*
X170620281Y-103279176D01*
X170374170Y-102683542D01*
X169918855Y-102227431D01*
X169323652Y-101980282D01*
X168679176Y-101979719D01*
X168083542Y-102225830D01*
X167627431Y-102681145D01*
X167380282Y-103276348D01*
X167379719Y-103920824D01*
X107619720Y-103920824D01*
X107620281Y-103279176D01*
X107374170Y-102683542D01*
X106918855Y-102227431D01*
X106323652Y-101980282D01*
X105679176Y-101979719D01*
X105083542Y-102225830D01*
X104627431Y-102681145D01*
X104380282Y-103276348D01*
X104379719Y-103920824D01*
X103395000Y-103920824D01*
X103395000Y-99871314D01*
X104629763Y-99871314D01*
X104837893Y-100375029D01*
X105222944Y-100760752D01*
X105726295Y-100969762D01*
X106271314Y-100970237D01*
X106775029Y-100762107D01*
X107160752Y-100377056D01*
X107369762Y-99873705D01*
X107369854Y-99768000D01*
X115854731Y-99768000D01*
X115854731Y-100632000D01*
X115877044Y-100750585D01*
X115947128Y-100859498D01*
X116054063Y-100932564D01*
X116181000Y-100958269D01*
X116968000Y-100958269D01*
X117086585Y-100935956D01*
X117195498Y-100865872D01*
X117268564Y-100758937D01*
X117278474Y-100710000D01*
X119164793Y-100710000D01*
X119182190Y-100752103D01*
X119486296Y-101056740D01*
X119883833Y-101221812D01*
X120314279Y-101222188D01*
X120712103Y-101057810D01*
X121016740Y-100753704D01*
X121181812Y-100356167D01*
X121182188Y-99925721D01*
X121159708Y-99871314D01*
X167629763Y-99871314D01*
X167837893Y-100375029D01*
X168222944Y-100760752D01*
X168726295Y-100969762D01*
X169271314Y-100970237D01*
X169775029Y-100762107D01*
X170160752Y-100377056D01*
X170369762Y-99873705D01*
X170370237Y-99328686D01*
X170162107Y-98824971D01*
X169777056Y-98439248D01*
X169273705Y-98230238D01*
X168728686Y-98229763D01*
X168224971Y-98437893D01*
X167839248Y-98822944D01*
X167630238Y-99326295D01*
X167629763Y-99871314D01*
X121159708Y-99871314D01*
X121017810Y-99527897D01*
X120713704Y-99223260D01*
X120316167Y-99058188D01*
X119885721Y-99057812D01*
X119487897Y-99222190D01*
X119183260Y-99526296D01*
X119165112Y-99570000D01*
X117220854Y-99570000D01*
X117201872Y-99540502D01*
X117094937Y-99467436D01*
X116968000Y-99441731D01*
X116181000Y-99441731D01*
X116062415Y-99464044D01*
X115953502Y-99534128D01*
X115880436Y-99641063D01*
X115854731Y-99768000D01*
X107369854Y-99768000D01*
X107370237Y-99328686D01*
X107162107Y-98824971D01*
X106777056Y-98439248D01*
X106273705Y-98230238D01*
X105728686Y-98229763D01*
X105224971Y-98437893D01*
X104839248Y-98822944D01*
X104630238Y-99326295D01*
X104629763Y-99871314D01*
X103395000Y-99871314D01*
X103395000Y-97861412D01*
X125979772Y-97861412D01*
X126180306Y-98346743D01*
X126551304Y-98718389D01*
X127036284Y-98919770D01*
X127561412Y-98920228D01*
X128046743Y-98719694D01*
X128418389Y-98348696D01*
X128619770Y-97863716D01*
X128619772Y-97861412D01*
X135979772Y-97861412D01*
X136180306Y-98346743D01*
X136551304Y-98718389D01*
X137036284Y-98919770D01*
X137561412Y-98920228D01*
X138046743Y-98719694D01*
X138418389Y-98348696D01*
X138619770Y-97863716D01*
X138619772Y-97861412D01*
X145979772Y-97861412D01*
X146180306Y-98346743D01*
X146551304Y-98718389D01*
X147036284Y-98919770D01*
X147561412Y-98920228D01*
X148046743Y-98719694D01*
X148418389Y-98348696D01*
X148619770Y-97863716D01*
X148619772Y-97861412D01*
X155979772Y-97861412D01*
X156180306Y-98346743D01*
X156551304Y-98718389D01*
X157036284Y-98919770D01*
X157561412Y-98920228D01*
X158046743Y-98719694D01*
X158418389Y-98348696D01*
X158619770Y-97863716D01*
X158620228Y-97338588D01*
X158419694Y-96853257D01*
X158048696Y-96481611D01*
X157563716Y-96280230D01*
X157038588Y-96279772D01*
X156553257Y-96480306D01*
X156181611Y-96851304D01*
X155980230Y-97336284D01*
X155979772Y-97861412D01*
X148619772Y-97861412D01*
X148620228Y-97338588D01*
X148419694Y-96853257D01*
X148048696Y-96481611D01*
X147563716Y-96280230D01*
X147038588Y-96279772D01*
X146553257Y-96480306D01*
X146181611Y-96851304D01*
X145980230Y-97336284D01*
X145979772Y-97861412D01*
X138619772Y-97861412D01*
X138620228Y-97338588D01*
X138419694Y-96853257D01*
X138048696Y-96481611D01*
X137563716Y-96280230D01*
X137038588Y-96279772D01*
X136553257Y-96480306D01*
X136181611Y-96851304D01*
X135980230Y-97336284D01*
X135979772Y-97861412D01*
X128619772Y-97861412D01*
X128620228Y-97338588D01*
X128419694Y-96853257D01*
X128048696Y-96481611D01*
X127563716Y-96280230D01*
X127038588Y-96279772D01*
X126553257Y-96480306D01*
X126181611Y-96851304D01*
X125980230Y-97336284D01*
X125979772Y-97861412D01*
X103395000Y-97861412D01*
X103395000Y-81122638D01*
X108669879Y-81122638D01*
X108775464Y-81378172D01*
X108795000Y-81397742D01*
X108795000Y-81841984D01*
X108776151Y-81860800D01*
X108670121Y-82116149D01*
X108669879Y-82392638D01*
X108775464Y-82648172D01*
X108970800Y-82843849D01*
X109081902Y-82889982D01*
X108971828Y-82935464D01*
X108776151Y-83130800D01*
X108670121Y-83386149D01*
X108669879Y-83662638D01*
X108775464Y-83918172D01*
X108970800Y-84113849D01*
X109081902Y-84159982D01*
X108971828Y-84205464D01*
X108776151Y-84400800D01*
X108670121Y-84656149D01*
X108669879Y-84932638D01*
X108775464Y-85188172D01*
X108970800Y-85383849D01*
X109081902Y-85429982D01*
X108971828Y-85475464D01*
X108776151Y-85670800D01*
X108670121Y-85926149D01*
X108669879Y-86202638D01*
X108775464Y-86458172D01*
X108970800Y-86653849D01*
X109081902Y-86699982D01*
X108971828Y-86745464D01*
X108776151Y-86940800D01*
X108670121Y-87196149D01*
X108669879Y-87472638D01*
X108775464Y-87728172D01*
X108970800Y-87923849D01*
X109081902Y-87969982D01*
X108971828Y-88015464D01*
X108776151Y-88210800D01*
X108670121Y-88466149D01*
X108669879Y-88742638D01*
X108775464Y-88998172D01*
X108970800Y-89193849D01*
X109081902Y-89239982D01*
X108971828Y-89285464D01*
X108776151Y-89480800D01*
X108670121Y-89736149D01*
X108669879Y-90012638D01*
X108775464Y-90268172D01*
X108970800Y-90463849D01*
X109081902Y-90509982D01*
X108971828Y-90555464D01*
X108776151Y-90750800D01*
X108670121Y-91006149D01*
X108669879Y-91282638D01*
X108775464Y-91538172D01*
X108970800Y-91733849D01*
X109081902Y-91779982D01*
X108971828Y-91825464D01*
X108776151Y-92020800D01*
X108670121Y-92276149D01*
X108669879Y-92552638D01*
X108775464Y-92808172D01*
X108970800Y-93003849D01*
X109226149Y-93109879D01*
X109502638Y-93110121D01*
X109758172Y-93004536D01*
X109953849Y-92809200D01*
X109999982Y-92698098D01*
X110045464Y-92808172D01*
X110240800Y-93003849D01*
X110496149Y-93109879D01*
X110772638Y-93110121D01*
X111028172Y-93004536D01*
X111223849Y-92809200D01*
X111329879Y-92553851D01*
X111330121Y-92277362D01*
X111224536Y-92021828D01*
X111029200Y-91826151D01*
X110918098Y-91780018D01*
X111028172Y-91734536D01*
X111223849Y-91539200D01*
X111319021Y-91310000D01*
X115823731Y-91310000D01*
X115823731Y-91910000D01*
X115846044Y-92028585D01*
X115916128Y-92137498D01*
X116023063Y-92210564D01*
X116064500Y-92218955D01*
X116064500Y-94263652D01*
X116062415Y-94264044D01*
X115953502Y-94334128D01*
X115880436Y-94441063D01*
X115854731Y-94568000D01*
X115854731Y-95432000D01*
X115877044Y-95550585D01*
X115947128Y-95659498D01*
X116054063Y-95732564D01*
X116181000Y-95758269D01*
X116968000Y-95758269D01*
X117086585Y-95735956D01*
X117195498Y-95665872D01*
X117220008Y-95630000D01*
X119164793Y-95630000D01*
X119182190Y-95672103D01*
X119486296Y-95976740D01*
X119883833Y-96141812D01*
X120314279Y-96142188D01*
X120712103Y-95977810D01*
X121016740Y-95673704D01*
X121181812Y-95276167D01*
X121182188Y-94845721D01*
X121017810Y-94447897D01*
X120713704Y-94143260D01*
X120316167Y-93978188D01*
X119885721Y-93977812D01*
X119487897Y-94142190D01*
X119183260Y-94446296D01*
X119165112Y-94490000D01*
X117279592Y-94490000D01*
X117271956Y-94449415D01*
X117204500Y-94344586D01*
X117204500Y-92236269D01*
X117650000Y-92236269D01*
X117768585Y-92213956D01*
X117877498Y-92143872D01*
X117950564Y-92036937D01*
X117976269Y-91910000D01*
X117976269Y-91310000D01*
X117953956Y-91191415D01*
X117883872Y-91082502D01*
X117776937Y-91009436D01*
X117650000Y-90983731D01*
X116150000Y-90983731D01*
X116031415Y-91006044D01*
X115922502Y-91076128D01*
X115849436Y-91183063D01*
X115823731Y-91310000D01*
X111319021Y-91310000D01*
X111329879Y-91283851D01*
X111330121Y-91007362D01*
X111224536Y-90751828D01*
X111029200Y-90556151D01*
X110918098Y-90510018D01*
X111028172Y-90464536D01*
X111223849Y-90269200D01*
X111329879Y-90013851D01*
X111330121Y-89737362D01*
X111224536Y-89481828D01*
X111029200Y-89286151D01*
X110918098Y-89240018D01*
X111028172Y-89194536D01*
X111223849Y-88999200D01*
X111329879Y-88743851D01*
X111330121Y-88467362D01*
X111224536Y-88211828D01*
X111029200Y-88016151D01*
X110918098Y-87970018D01*
X111028172Y-87924536D01*
X111223849Y-87729200D01*
X111329879Y-87473851D01*
X111330121Y-87197362D01*
X111224536Y-86941828D01*
X111029200Y-86746151D01*
X110918098Y-86700018D01*
X111028172Y-86654536D01*
X111223849Y-86459200D01*
X111329879Y-86203851D01*
X111330121Y-85927362D01*
X111224536Y-85671828D01*
X111029200Y-85476151D01*
X110918098Y-85430018D01*
X111028172Y-85384536D01*
X111223849Y-85189200D01*
X111329879Y-84933851D01*
X111330121Y-84657362D01*
X111224536Y-84401828D01*
X111029200Y-84206151D01*
X110918098Y-84160018D01*
X111028172Y-84114536D01*
X111223849Y-83919200D01*
X111329879Y-83663851D01*
X111330121Y-83387362D01*
X111224536Y-83131828D01*
X111029200Y-82936151D01*
X110918098Y-82890018D01*
X111028172Y-82844536D01*
X111223849Y-82649200D01*
X111329879Y-82393851D01*
X111330121Y-82117362D01*
X111224536Y-81861828D01*
X111205000Y-81842258D01*
X111205000Y-81398016D01*
X111223849Y-81379200D01*
X111329879Y-81123851D01*
X111330121Y-80847362D01*
X111224536Y-80591828D01*
X111029200Y-80396151D01*
X110773851Y-80290121D01*
X110497362Y-80289879D01*
X110241828Y-80395464D01*
X110046151Y-80590800D01*
X110000018Y-80701902D01*
X109954536Y-80591828D01*
X109935000Y-80572258D01*
X109935000Y-72771102D01*
X110225102Y-72481000D01*
X113041731Y-72481000D01*
X113041731Y-73268000D01*
X113064044Y-73386585D01*
X113134128Y-73495498D01*
X113241063Y-73568564D01*
X113368000Y-73594269D01*
X113460000Y-73594269D01*
X113460000Y-73623731D01*
X113455000Y-73623731D01*
X113336415Y-73646044D01*
X113227502Y-73716128D01*
X113154436Y-73823063D01*
X113128731Y-73950000D01*
X113128731Y-75150000D01*
X113151044Y-75268585D01*
X113221128Y-75377498D01*
X113328063Y-75450564D01*
X113455000Y-75476269D01*
X114255000Y-75476269D01*
X114373585Y-75453956D01*
X114482498Y-75383872D01*
X114489055Y-75374276D01*
X114491128Y-75377498D01*
X114598063Y-75450564D01*
X114725000Y-75476269D01*
X114730000Y-75476269D01*
X114730000Y-77393306D01*
X114574696Y-77548339D01*
X114480107Y-77776133D01*
X114479892Y-78022785D01*
X114574083Y-78250743D01*
X114748339Y-78425304D01*
X114976133Y-78519893D01*
X115222785Y-78520108D01*
X115450743Y-78425917D01*
X115625304Y-78251661D01*
X115719893Y-78023867D01*
X115720108Y-77777215D01*
X115625917Y-77549257D01*
X115520000Y-77443155D01*
X115520000Y-75476269D01*
X115525000Y-75476269D01*
X115643585Y-75453956D01*
X115752498Y-75383872D01*
X115759055Y-75374276D01*
X115761128Y-75377498D01*
X115868063Y-75450564D01*
X115995000Y-75476269D01*
X116795000Y-75476269D01*
X116913585Y-75453956D01*
X117022498Y-75383872D01*
X117029055Y-75374276D01*
X117031128Y-75377498D01*
X117138063Y-75450564D01*
X117265000Y-75476269D01*
X117270000Y-75476269D01*
X117270000Y-76653202D01*
X117174696Y-76748339D01*
X117080107Y-76976133D01*
X117079892Y-77222785D01*
X117174083Y-77450743D01*
X117348339Y-77625304D01*
X117576133Y-77719893D01*
X117822785Y-77720108D01*
X118050743Y-77625917D01*
X118225304Y-77451661D01*
X118319893Y-77223867D01*
X118320108Y-76977215D01*
X118225917Y-76749257D01*
X118060000Y-76583050D01*
X118060000Y-75476269D01*
X118065000Y-75476269D01*
X118183585Y-75453956D01*
X118292498Y-75383872D01*
X118299055Y-75374276D01*
X118301128Y-75377498D01*
X118408063Y-75450564D01*
X118535000Y-75476269D01*
X119335000Y-75476269D01*
X119453585Y-75453956D01*
X119562498Y-75383872D01*
X119569055Y-75374276D01*
X119571128Y-75377498D01*
X119678063Y-75450564D01*
X119805000Y-75476269D01*
X119810000Y-75476269D01*
X119810000Y-76013271D01*
X119674696Y-76148339D01*
X119580107Y-76376133D01*
X119579892Y-76622785D01*
X119674083Y-76850743D01*
X119848339Y-77025304D01*
X120076133Y-77119893D01*
X120322785Y-77120108D01*
X120550743Y-77025917D01*
X120725304Y-76851661D01*
X120819893Y-76623867D01*
X120820108Y-76377215D01*
X120725917Y-76149257D01*
X120600000Y-76023120D01*
X120600000Y-75476269D01*
X120605000Y-75476269D01*
X120723585Y-75453956D01*
X120832498Y-75383872D01*
X120839055Y-75374276D01*
X120841128Y-75377498D01*
X120948063Y-75450564D01*
X121075000Y-75476269D01*
X121875000Y-75476269D01*
X121993585Y-75453956D01*
X122102498Y-75383872D01*
X122109055Y-75374276D01*
X122111128Y-75377498D01*
X122218063Y-75450564D01*
X122263438Y-75459752D01*
X122174696Y-75548339D01*
X122080107Y-75776133D01*
X122079892Y-76022785D01*
X122174083Y-76250743D01*
X122348339Y-76425304D01*
X122576133Y-76519893D01*
X122822785Y-76520108D01*
X123050743Y-76425917D01*
X123225304Y-76251661D01*
X123319893Y-76023867D01*
X123320108Y-75777215D01*
X123225917Y-75549257D01*
X123151783Y-75474993D01*
X123263585Y-75453956D01*
X123372498Y-75383872D01*
X123445564Y-75276937D01*
X123471269Y-75150000D01*
X123471269Y-73950000D01*
X123448956Y-73831415D01*
X123378872Y-73722502D01*
X123271937Y-73649436D01*
X123145000Y-73623731D01*
X122345000Y-73623731D01*
X122226415Y-73646044D01*
X122117502Y-73716128D01*
X122110945Y-73725724D01*
X122108872Y-73722502D01*
X122001937Y-73649436D01*
X121875000Y-73623731D01*
X121870000Y-73623731D01*
X121870000Y-73594269D01*
X121932000Y-73594269D01*
X122050585Y-73571956D01*
X122159498Y-73501872D01*
X122232564Y-73394937D01*
X122258269Y-73268000D01*
X122258269Y-72481000D01*
X122235956Y-72362415D01*
X122165872Y-72253502D01*
X122058937Y-72180436D01*
X121932000Y-72154731D01*
X121068000Y-72154731D01*
X120949415Y-72177044D01*
X120840502Y-72247128D01*
X120767436Y-72354063D01*
X120741731Y-72481000D01*
X120741731Y-73268000D01*
X120764044Y-73386585D01*
X120834128Y-73495498D01*
X120941063Y-73568564D01*
X121068000Y-73594269D01*
X121080000Y-73594269D01*
X121080000Y-73623731D01*
X121075000Y-73623731D01*
X120956415Y-73646044D01*
X120847502Y-73716128D01*
X120840945Y-73725724D01*
X120838872Y-73722502D01*
X120731937Y-73649436D01*
X120605000Y-73623731D01*
X119805000Y-73623731D01*
X119686415Y-73646044D01*
X119577502Y-73716128D01*
X119570945Y-73725724D01*
X119568872Y-73722502D01*
X119461937Y-73649436D01*
X119335000Y-73623731D01*
X119330000Y-73623731D01*
X119330000Y-73594269D01*
X119332000Y-73594269D01*
X119450585Y-73571956D01*
X119559498Y-73501872D01*
X119632564Y-73394937D01*
X119658269Y-73268000D01*
X119658269Y-72481000D01*
X119635956Y-72362415D01*
X119565872Y-72253502D01*
X119458937Y-72180436D01*
X119332000Y-72154731D01*
X118468000Y-72154731D01*
X118349415Y-72177044D01*
X118240502Y-72247128D01*
X118167436Y-72354063D01*
X118141731Y-72481000D01*
X118141731Y-73268000D01*
X118164044Y-73386585D01*
X118234128Y-73495498D01*
X118341063Y-73568564D01*
X118468000Y-73594269D01*
X118540000Y-73594269D01*
X118540000Y-73623731D01*
X118535000Y-73623731D01*
X118416415Y-73646044D01*
X118307502Y-73716128D01*
X118300945Y-73725724D01*
X118298872Y-73722502D01*
X118191937Y-73649436D01*
X118065000Y-73623731D01*
X117265000Y-73623731D01*
X117146415Y-73646044D01*
X117037502Y-73716128D01*
X117030945Y-73725724D01*
X117028872Y-73722502D01*
X116921937Y-73649436D01*
X116795000Y-73623731D01*
X116790000Y-73623731D01*
X116790000Y-73594269D01*
X116832000Y-73594269D01*
X116950585Y-73571956D01*
X117059498Y-73501872D01*
X117132564Y-73394937D01*
X117158269Y-73268000D01*
X117158269Y-72481000D01*
X117135956Y-72362415D01*
X117065872Y-72253502D01*
X116958937Y-72180436D01*
X116832000Y-72154731D01*
X115968000Y-72154731D01*
X115849415Y-72177044D01*
X115740502Y-72247128D01*
X115667436Y-72354063D01*
X115641731Y-72481000D01*
X115641731Y-73268000D01*
X115664044Y-73386585D01*
X115734128Y-73495498D01*
X115841063Y-73568564D01*
X115968000Y-73594269D01*
X116000000Y-73594269D01*
X116000000Y-73623731D01*
X115995000Y-73623731D01*
X115876415Y-73646044D01*
X115767502Y-73716128D01*
X115760945Y-73725724D01*
X115758872Y-73722502D01*
X115651937Y-73649436D01*
X115525000Y-73623731D01*
X114725000Y-73623731D01*
X114606415Y-73646044D01*
X114497502Y-73716128D01*
X114490945Y-73725724D01*
X114488872Y-73722502D01*
X114381937Y-73649436D01*
X114255000Y-73623731D01*
X114250000Y-73623731D01*
X114250000Y-73590882D01*
X114350585Y-73571956D01*
X114459498Y-73501872D01*
X114532564Y-73394937D01*
X114558269Y-73268000D01*
X114558269Y-72481000D01*
X114535956Y-72362415D01*
X114465872Y-72253502D01*
X114358937Y-72180436D01*
X114232000Y-72154731D01*
X113368000Y-72154731D01*
X113249415Y-72177044D01*
X113140502Y-72247128D01*
X113067436Y-72354063D01*
X113041731Y-72481000D01*
X110225102Y-72481000D01*
X110810602Y-71895500D01*
X113101311Y-71895500D01*
X113134128Y-71946498D01*
X113241063Y-72019564D01*
X113368000Y-72045269D01*
X114232000Y-72045269D01*
X114350585Y-72022956D01*
X114459498Y-71952872D01*
X114498699Y-71895500D01*
X115701311Y-71895500D01*
X115734128Y-71946498D01*
X115841063Y-72019564D01*
X115968000Y-72045269D01*
X116832000Y-72045269D01*
X116950585Y-72022956D01*
X117059498Y-71952872D01*
X117098699Y-71895500D01*
X118201311Y-71895500D01*
X118234128Y-71946498D01*
X118341063Y-72019564D01*
X118468000Y-72045269D01*
X119332000Y-72045269D01*
X119450585Y-72022956D01*
X119559498Y-71952872D01*
X119598699Y-71895500D01*
X120801311Y-71895500D01*
X120834128Y-71946498D01*
X120941063Y-72019564D01*
X121068000Y-72045269D01*
X121932000Y-72045269D01*
X122050585Y-72022956D01*
X122159498Y-71952872D01*
X122232564Y-71845937D01*
X122258269Y-71719000D01*
X122258269Y-70932000D01*
X122235956Y-70813415D01*
X122165872Y-70704502D01*
X122058937Y-70631436D01*
X121932000Y-70605731D01*
X121068000Y-70605731D01*
X120949415Y-70628044D01*
X120840502Y-70698128D01*
X120801301Y-70755500D01*
X119598689Y-70755500D01*
X119565872Y-70704502D01*
X119458937Y-70631436D01*
X119332000Y-70605731D01*
X118468000Y-70605731D01*
X118349415Y-70628044D01*
X118240502Y-70698128D01*
X118201301Y-70755500D01*
X117098689Y-70755500D01*
X117065872Y-70704502D01*
X116958937Y-70631436D01*
X116832000Y-70605731D01*
X115968000Y-70605731D01*
X115849415Y-70628044D01*
X115740502Y-70698128D01*
X115701301Y-70755500D01*
X114498689Y-70755500D01*
X114465872Y-70704502D01*
X114358937Y-70631436D01*
X114232000Y-70605731D01*
X113368000Y-70605731D01*
X113249415Y-70628044D01*
X113140502Y-70698128D01*
X113101301Y-70755500D01*
X110574500Y-70755500D01*
X110356370Y-70798889D01*
X110183534Y-70914374D01*
X110171449Y-70922449D01*
X108961949Y-72131949D01*
X108838389Y-72316870D01*
X108795000Y-72535000D01*
X108795000Y-80571984D01*
X108776151Y-80590800D01*
X108670121Y-80846149D01*
X108669879Y-81122638D01*
X103395000Y-81122638D01*
X103395000Y-75271314D01*
X104629763Y-75271314D01*
X104837893Y-75775029D01*
X105222944Y-76160752D01*
X105726295Y-76369762D01*
X106271314Y-76370237D01*
X106775029Y-76162107D01*
X107160752Y-75777056D01*
X107369762Y-75273705D01*
X107370237Y-74728686D01*
X107162107Y-74224971D01*
X106777056Y-73839248D01*
X106273705Y-73630238D01*
X105728686Y-73629763D01*
X105224971Y-73837893D01*
X104839248Y-74222944D01*
X104630238Y-74726295D01*
X104629763Y-75271314D01*
X103395000Y-75271314D01*
X103395000Y-71320824D01*
X104379719Y-71320824D01*
X104625830Y-71916458D01*
X105081145Y-72372569D01*
X105676348Y-72619718D01*
X106320824Y-72620281D01*
X106916458Y-72374170D01*
X107372569Y-71918855D01*
X107619718Y-71323652D01*
X107620281Y-70679176D01*
X107374170Y-70083542D01*
X106918855Y-69627431D01*
X106323652Y-69380282D01*
X105679176Y-69379719D01*
X105083542Y-69625830D01*
X104627431Y-70081145D01*
X104380282Y-70676348D01*
X104379719Y-71320824D01*
X103395000Y-71320824D01*
X103395000Y-70038904D01*
X103524323Y-69388755D01*
X103870565Y-68870565D01*
X104388755Y-68524323D01*
X105038903Y-68395000D01*
X123800000Y-68395000D01*
X123800000Y-85080064D01*
X123800000Y-85080064D01*
G37*
X123800000Y-85080064D02*
X123663559Y-85079945D01*
X123564307Y-84980693D01*
X123436160Y-84895068D01*
X123361248Y-84880167D01*
X123353956Y-84841415D01*
X123283872Y-84732502D01*
X123176937Y-84659436D01*
X123050000Y-84633731D01*
X121550000Y-84633731D01*
X121431415Y-84656044D01*
X121322502Y-84726128D01*
X121295000Y-84766378D01*
X121295000Y-83563614D01*
X121963614Y-82895000D01*
X122018263Y-82895000D01*
X122148339Y-83025304D01*
X122376133Y-83119893D01*
X122622785Y-83120108D01*
X122850743Y-83025917D01*
X123025304Y-82851661D01*
X123119893Y-82623867D01*
X123120108Y-82377215D01*
X123025917Y-82149257D01*
X122851661Y-81974696D01*
X122623867Y-81880107D01*
X122377215Y-81879892D01*
X122149257Y-81974083D01*
X122018111Y-82105000D01*
X121800000Y-82105000D01*
X121648840Y-82135068D01*
X121520693Y-82220693D01*
X121474515Y-82266871D01*
X121447198Y-82200761D01*
X121479307Y-82179307D01*
X121754307Y-81904307D01*
X121770477Y-81880107D01*
X121839859Y-81776269D01*
X121875000Y-81776269D01*
X121993585Y-81753956D01*
X122102498Y-81683872D01*
X122109055Y-81674276D01*
X122111128Y-81677498D01*
X122218063Y-81750564D01*
X122345000Y-81776269D01*
X123145000Y-81776269D01*
X123263585Y-81753956D01*
X123372498Y-81683872D01*
X123445564Y-81576937D01*
X123471269Y-81450000D01*
X123471269Y-80250000D01*
X123448956Y-80131415D01*
X123378872Y-80022502D01*
X123315000Y-79978860D01*
X123315000Y-79470000D01*
X123310791Y-79448840D01*
X123271612Y-79251871D01*
X123148051Y-79066949D01*
X122953051Y-78871949D01*
X122768130Y-78748389D01*
X122550000Y-78705000D01*
X118100000Y-78705000D01*
X117881870Y-78748389D01*
X117696949Y-78871949D01*
X117261949Y-79306949D01*
X117138389Y-79491870D01*
X117095000Y-79710000D01*
X117095000Y-79979129D01*
X117037502Y-80016128D01*
X117030945Y-80025724D01*
X117028872Y-80022502D01*
X116921937Y-79949436D01*
X116843308Y-79933514D01*
X116925304Y-79851661D01*
X117019893Y-79623867D01*
X117020108Y-79377215D01*
X116925917Y-79149257D01*
X116751661Y-78974696D01*
X116523867Y-78880107D01*
X116277215Y-78879892D01*
X116049257Y-78974083D01*
X115874696Y-79148339D01*
X115780107Y-79376133D01*
X115779892Y-79622785D01*
X115874083Y-79850743D01*
X115954543Y-79931343D01*
X115876415Y-79946044D01*
X115767502Y-80016128D01*
X115760945Y-80025724D01*
X115758872Y-80022502D01*
X115651937Y-79949436D01*
X115525000Y-79923731D01*
X114725000Y-79923731D01*
X114606415Y-79946044D01*
X114497502Y-80016128D01*
X114490945Y-80025724D01*
X114488872Y-80022502D01*
X114409005Y-79967931D01*
X114425304Y-79951661D01*
X114519893Y-79723867D01*
X114520108Y-79477215D01*
X114425917Y-79249257D01*
X114251661Y-79074696D01*
X114023867Y-78980107D01*
X113777215Y-78979892D01*
X113549257Y-79074083D01*
X113374696Y-79248339D01*
X113280107Y-79476133D01*
X113279892Y-79722785D01*
X113369564Y-79939807D01*
X113336415Y-79946044D01*
X113227502Y-80016128D01*
X113154436Y-80123063D01*
X113128731Y-80250000D01*
X113128731Y-81450000D01*
X113151044Y-81568585D01*
X113221128Y-81677498D01*
X113328063Y-81750564D01*
X113455000Y-81776269D01*
X114255000Y-81776269D01*
X114373585Y-81753956D01*
X114482498Y-81683872D01*
X114489055Y-81674276D01*
X114491128Y-81677498D01*
X114555000Y-81721140D01*
X114555000Y-82025000D01*
X114598389Y-82243130D01*
X114646186Y-82314663D01*
X114721949Y-82428051D01*
X114842004Y-82548106D01*
X114874083Y-82625743D01*
X115048339Y-82800304D01*
X115276133Y-82894893D01*
X115522785Y-82895108D01*
X115583551Y-82870000D01*
X117300000Y-82870000D01*
X117518130Y-82826611D01*
X117703051Y-82703051D01*
X118068051Y-82338051D01*
X118116907Y-82264932D01*
X118191611Y-82153130D01*
X118235000Y-81935000D01*
X118235000Y-81720871D01*
X118292498Y-81683872D01*
X118299055Y-81674276D01*
X118301128Y-81677498D01*
X118408063Y-81750564D01*
X118535000Y-81776269D01*
X118540000Y-81776269D01*
X118540000Y-83509473D01*
X118348867Y-83430107D01*
X118102215Y-83429892D01*
X117913156Y-83508010D01*
X117883872Y-83462502D01*
X117776937Y-83389436D01*
X117650000Y-83363731D01*
X116150000Y-83363731D01*
X116031415Y-83386044D01*
X115922502Y-83456128D01*
X115849436Y-83563063D01*
X115823731Y-83690000D01*
X115823731Y-84290000D01*
X115846044Y-84408585D01*
X115916128Y-84517498D01*
X116023063Y-84590564D01*
X116150000Y-84616269D01*
X117650000Y-84616269D01*
X117768585Y-84593956D01*
X117843705Y-84545618D01*
X117873339Y-84575304D01*
X118101133Y-84669893D01*
X118347785Y-84670108D01*
X118540000Y-84590686D01*
X118540000Y-84701386D01*
X118376386Y-84865000D01*
X117958394Y-84865000D01*
X117953956Y-84841415D01*
X117883872Y-84732502D01*
X117776937Y-84659436D01*
X117650000Y-84633731D01*
X116150000Y-84633731D01*
X116031415Y-84656044D01*
X115922502Y-84726128D01*
X115849436Y-84833063D01*
X115842969Y-84865000D01*
X115458269Y-84865000D01*
X115458269Y-84632000D01*
X115435956Y-84513415D01*
X115365872Y-84404502D01*
X115258937Y-84331436D01*
X115132000Y-84305731D01*
X114268000Y-84305731D01*
X114149415Y-84328044D01*
X114040502Y-84398128D01*
X113967436Y-84505063D01*
X113941731Y-84632000D01*
X113941731Y-85419000D01*
X113964044Y-85537585D01*
X114034128Y-85646498D01*
X114141063Y-85719564D01*
X114268000Y-85745269D01*
X115132000Y-85745269D01*
X115250585Y-85722956D01*
X115356191Y-85655000D01*
X115841606Y-85655000D01*
X115846044Y-85678585D01*
X115916128Y-85787498D01*
X116023063Y-85860564D01*
X116150000Y-85886269D01*
X117650000Y-85886269D01*
X117768585Y-85863956D01*
X117877498Y-85793872D01*
X117950564Y-85686937D01*
X117957031Y-85655000D01*
X118540000Y-85655000D01*
X118691160Y-85624932D01*
X118819307Y-85539307D01*
X118840002Y-85518612D01*
X118840002Y-87163192D01*
X118751661Y-87074696D01*
X118523867Y-86980107D01*
X118277215Y-86979892D01*
X118049257Y-87074083D01*
X117874696Y-87248339D01*
X117868908Y-87262278D01*
X117776937Y-87199436D01*
X117650000Y-87173731D01*
X116150000Y-87173731D01*
X116031415Y-87196044D01*
X115922502Y-87266128D01*
X115849436Y-87373063D01*
X115823731Y-87500000D01*
X115823731Y-88100000D01*
X115846044Y-88218585D01*
X115916128Y-88327498D01*
X116023063Y-88400564D01*
X116150000Y-88426269D01*
X117650000Y-88426269D01*
X117768585Y-88403956D01*
X117877498Y-88333872D01*
X117950564Y-88226937D01*
X117957031Y-88195000D01*
X118200000Y-88195000D01*
X118210943Y-88192823D01*
X118276133Y-88219893D01*
X118522785Y-88220108D01*
X118750743Y-88125917D01*
X118840002Y-88036814D01*
X118840002Y-88301384D01*
X118466386Y-88675000D01*
X117958394Y-88675000D01*
X117953956Y-88651415D01*
X117883872Y-88542502D01*
X117776937Y-88469436D01*
X117650000Y-88443731D01*
X116150000Y-88443731D01*
X116031415Y-88466044D01*
X115922502Y-88536128D01*
X115849436Y-88643063D01*
X115842969Y-88675000D01*
X115458269Y-88675000D01*
X115458269Y-88532000D01*
X115435956Y-88413415D01*
X115365872Y-88304502D01*
X115258937Y-88231436D01*
X115132000Y-88205731D01*
X114268000Y-88205731D01*
X114149415Y-88228044D01*
X114040502Y-88298128D01*
X113967436Y-88405063D01*
X113941731Y-88532000D01*
X113941731Y-89319000D01*
X113964044Y-89437585D01*
X114034128Y-89546498D01*
X114141063Y-89619564D01*
X114268000Y-89645269D01*
X115132000Y-89645269D01*
X115250585Y-89622956D01*
X115359498Y-89552872D01*
X115419539Y-89465000D01*
X115841606Y-89465000D01*
X115846044Y-89488585D01*
X115916128Y-89597498D01*
X116023063Y-89670564D01*
X116150000Y-89696269D01*
X117650000Y-89696269D01*
X117768585Y-89673956D01*
X117877498Y-89603872D01*
X117950564Y-89496937D01*
X117957031Y-89465000D01*
X118630000Y-89465000D01*
X118781160Y-89434932D01*
X118909307Y-89349307D01*
X119514309Y-88744305D01*
X119599934Y-88616158D01*
X119630002Y-88464998D01*
X119630002Y-82295000D01*
X120313797Y-82295000D01*
X120280107Y-82376133D01*
X120279928Y-82581701D01*
X120235066Y-82648842D01*
X120204998Y-82800002D01*
X120204998Y-89899998D01*
X120235066Y-90051158D01*
X120320691Y-90179305D01*
X120760693Y-90619307D01*
X120888840Y-90704932D01*
X121040000Y-90735000D01*
X121241606Y-90735000D01*
X121246044Y-90758585D01*
X121316128Y-90867498D01*
X121423063Y-90940564D01*
X121550000Y-90966269D01*
X123050000Y-90966269D01*
X123168585Y-90943956D01*
X123277498Y-90873872D01*
X123350564Y-90766937D01*
X123357031Y-90735000D01*
X124444742Y-90735000D01*
X124464044Y-90837585D01*
X124534128Y-90946498D01*
X124641063Y-91019564D01*
X124768000Y-91045269D01*
X125632000Y-91045269D01*
X125750585Y-91022956D01*
X125859498Y-90952872D01*
X125932564Y-90845937D01*
X125958269Y-90719000D01*
X125958269Y-89932000D01*
X125935956Y-89813415D01*
X125865872Y-89704502D01*
X125758937Y-89631436D01*
X125632000Y-89605731D01*
X124768000Y-89605731D01*
X124649415Y-89628044D01*
X124540502Y-89698128D01*
X124467436Y-89805063D01*
X124441731Y-89932000D01*
X124441731Y-89945000D01*
X124269594Y-89945000D01*
X124319893Y-89823867D01*
X124320108Y-89577215D01*
X124225917Y-89349257D01*
X124051661Y-89174696D01*
X123823867Y-89080107D01*
X123638560Y-89079945D01*
X123376269Y-88817655D01*
X123376269Y-88770000D01*
X123353956Y-88651415D01*
X123283872Y-88542502D01*
X123176937Y-88469436D01*
X123050000Y-88443731D01*
X121550000Y-88443731D01*
X121431415Y-88466044D01*
X121322502Y-88536128D01*
X121249436Y-88643063D01*
X121223731Y-88770000D01*
X121223731Y-89370000D01*
X121246044Y-89488585D01*
X121316128Y-89597498D01*
X121423063Y-89670564D01*
X121550000Y-89696269D01*
X123050000Y-89696269D01*
X123080007Y-89690623D01*
X123079982Y-89719802D01*
X123050000Y-89713731D01*
X121550000Y-89713731D01*
X121431415Y-89736044D01*
X121322502Y-89806128D01*
X121249436Y-89913063D01*
X121242969Y-89945000D01*
X121203614Y-89945000D01*
X120994998Y-89736384D01*
X120994998Y-86898146D01*
X121130000Y-86925000D01*
X121241606Y-86925000D01*
X121246044Y-86948585D01*
X121316128Y-87057498D01*
X121423063Y-87130564D01*
X121550000Y-87156269D01*
X123050000Y-87156269D01*
X123168585Y-87133956D01*
X123277498Y-87063872D01*
X123350564Y-86956937D01*
X123357031Y-86925000D01*
X123800000Y-86925000D01*
X123800000Y-89000000D01*
X123807879Y-89038906D01*
X123830273Y-89071681D01*
X123863654Y-89093161D01*
X123900000Y-89100000D01*
X132973731Y-89100000D01*
X132973731Y-89536193D01*
X132898867Y-89505107D01*
X132652215Y-89504892D01*
X132424257Y-89599083D01*
X132381269Y-89641996D01*
X132381269Y-89550000D01*
X132358956Y-89431415D01*
X132288872Y-89322502D01*
X132181937Y-89249436D01*
X132055000Y-89223731D01*
X131355000Y-89223731D01*
X131236415Y-89246044D01*
X131127502Y-89316128D01*
X131054436Y-89423063D01*
X131028731Y-89550000D01*
X131028731Y-90700000D01*
X131051044Y-90818585D01*
X131121128Y-90927498D01*
X131228063Y-91000564D01*
X131355000Y-91026269D01*
X132055000Y-91026269D01*
X132173585Y-91003956D01*
X132282498Y-90933872D01*
X132355564Y-90826937D01*
X132381269Y-90700000D01*
X132381269Y-90608160D01*
X132423339Y-90650304D01*
X132651133Y-90744893D01*
X132897785Y-90745108D01*
X133125743Y-90650917D01*
X133300304Y-90476661D01*
X133348840Y-90359774D01*
X133532345Y-90176269D01*
X134500000Y-90176269D01*
X134618585Y-90153956D01*
X134727498Y-90083872D01*
X134800564Y-89976937D01*
X134826269Y-89850000D01*
X134826269Y-89100000D01*
X141854977Y-89100000D01*
X141854892Y-89197785D01*
X141865613Y-89223731D01*
X141355000Y-89223731D01*
X141236415Y-89246044D01*
X141127502Y-89316128D01*
X141054436Y-89423063D01*
X141028731Y-89550000D01*
X141028731Y-90700000D01*
X141051044Y-90818585D01*
X141121128Y-90927498D01*
X141228063Y-91000564D01*
X141355000Y-91026269D01*
X142055000Y-91026269D01*
X142173585Y-91003956D01*
X142282498Y-90933872D01*
X142355564Y-90826937D01*
X142381269Y-90700000D01*
X142381269Y-90520000D01*
X143025000Y-90520000D01*
X143176160Y-90489932D01*
X143304307Y-90404307D01*
X143532345Y-90176269D01*
X144500000Y-90176269D01*
X144618585Y-90153956D01*
X144727498Y-90083872D01*
X144800564Y-89976937D01*
X144826269Y-89850000D01*
X144826269Y-89100000D01*
X151879934Y-89100000D01*
X151879892Y-89147785D01*
X151911272Y-89223731D01*
X151355000Y-89223731D01*
X151236415Y-89246044D01*
X151127502Y-89316128D01*
X151054436Y-89423063D01*
X151028731Y-89550000D01*
X151028731Y-90700000D01*
X151051044Y-90818585D01*
X151121128Y-90927498D01*
X151228063Y-91000564D01*
X151355000Y-91026269D01*
X152055000Y-91026269D01*
X152173585Y-91003956D01*
X152282498Y-90933872D01*
X152355564Y-90826937D01*
X152381269Y-90700000D01*
X152381269Y-90520000D01*
X153025000Y-90520000D01*
X153176160Y-90489932D01*
X153304307Y-90404307D01*
X153532345Y-90176269D01*
X154500000Y-90176269D01*
X154618585Y-90153956D01*
X154727498Y-90083872D01*
X154800564Y-89976937D01*
X154826269Y-89850000D01*
X154826269Y-89100000D01*
X161804977Y-89100000D01*
X161804892Y-89197785D01*
X161815613Y-89223731D01*
X161355000Y-89223731D01*
X161236415Y-89246044D01*
X161127502Y-89316128D01*
X161054436Y-89423063D01*
X161028731Y-89550000D01*
X161028731Y-90700000D01*
X161051044Y-90818585D01*
X161121128Y-90927498D01*
X161228063Y-91000564D01*
X161355000Y-91026269D01*
X162055000Y-91026269D01*
X162173585Y-91003956D01*
X162282498Y-90933872D01*
X162355564Y-90826937D01*
X162381269Y-90700000D01*
X162381269Y-90520000D01*
X163025000Y-90520000D01*
X163176160Y-90489932D01*
X163304307Y-90404307D01*
X163532345Y-90176269D01*
X164500000Y-90176269D01*
X164618585Y-90153956D01*
X164727498Y-90083872D01*
X164800564Y-89976937D01*
X164826269Y-89850000D01*
X164826269Y-89100000D01*
X171605000Y-89100000D01*
X171605000Y-104561097D01*
X171475677Y-105211245D01*
X171129435Y-105729435D01*
X170611245Y-106075677D01*
X169961096Y-106205000D01*
X105038903Y-106205000D01*
X104388755Y-106075677D01*
X103870565Y-105729435D01*
X103524323Y-105211245D01*
X103395000Y-104561096D01*
X103395000Y-103920824D01*
X104379719Y-103920824D01*
X104625830Y-104516458D01*
X105081145Y-104972569D01*
X105676348Y-105219718D01*
X106320824Y-105220281D01*
X106916458Y-104974170D01*
X107372569Y-104518855D01*
X107619718Y-103923652D01*
X107619720Y-103920824D01*
X167379719Y-103920824D01*
X167625830Y-104516458D01*
X168081145Y-104972569D01*
X168676348Y-105219718D01*
X169320824Y-105220281D01*
X169916458Y-104974170D01*
X170372569Y-104518855D01*
X170619718Y-103923652D01*
X170620281Y-103279176D01*
X170374170Y-102683542D01*
X169918855Y-102227431D01*
X169323652Y-101980282D01*
X168679176Y-101979719D01*
X168083542Y-102225830D01*
X167627431Y-102681145D01*
X167380282Y-103276348D01*
X167379719Y-103920824D01*
X107619720Y-103920824D01*
X107620281Y-103279176D01*
X107374170Y-102683542D01*
X106918855Y-102227431D01*
X106323652Y-101980282D01*
X105679176Y-101979719D01*
X105083542Y-102225830D01*
X104627431Y-102681145D01*
X104380282Y-103276348D01*
X104379719Y-103920824D01*
X103395000Y-103920824D01*
X103395000Y-99871314D01*
X104629763Y-99871314D01*
X104837893Y-100375029D01*
X105222944Y-100760752D01*
X105726295Y-100969762D01*
X106271314Y-100970237D01*
X106775029Y-100762107D01*
X107160752Y-100377056D01*
X107369762Y-99873705D01*
X107369854Y-99768000D01*
X115854731Y-99768000D01*
X115854731Y-100632000D01*
X115877044Y-100750585D01*
X115947128Y-100859498D01*
X116054063Y-100932564D01*
X116181000Y-100958269D01*
X116968000Y-100958269D01*
X117086585Y-100935956D01*
X117195498Y-100865872D01*
X117268564Y-100758937D01*
X117278474Y-100710000D01*
X119164793Y-100710000D01*
X119182190Y-100752103D01*
X119486296Y-101056740D01*
X119883833Y-101221812D01*
X120314279Y-101222188D01*
X120712103Y-101057810D01*
X121016740Y-100753704D01*
X121181812Y-100356167D01*
X121182188Y-99925721D01*
X121159708Y-99871314D01*
X167629763Y-99871314D01*
X167837893Y-100375029D01*
X168222944Y-100760752D01*
X168726295Y-100969762D01*
X169271314Y-100970237D01*
X169775029Y-100762107D01*
X170160752Y-100377056D01*
X170369762Y-99873705D01*
X170370237Y-99328686D01*
X170162107Y-98824971D01*
X169777056Y-98439248D01*
X169273705Y-98230238D01*
X168728686Y-98229763D01*
X168224971Y-98437893D01*
X167839248Y-98822944D01*
X167630238Y-99326295D01*
X167629763Y-99871314D01*
X121159708Y-99871314D01*
X121017810Y-99527897D01*
X120713704Y-99223260D01*
X120316167Y-99058188D01*
X119885721Y-99057812D01*
X119487897Y-99222190D01*
X119183260Y-99526296D01*
X119165112Y-99570000D01*
X117220854Y-99570000D01*
X117201872Y-99540502D01*
X117094937Y-99467436D01*
X116968000Y-99441731D01*
X116181000Y-99441731D01*
X116062415Y-99464044D01*
X115953502Y-99534128D01*
X115880436Y-99641063D01*
X115854731Y-99768000D01*
X107369854Y-99768000D01*
X107370237Y-99328686D01*
X107162107Y-98824971D01*
X106777056Y-98439248D01*
X106273705Y-98230238D01*
X105728686Y-98229763D01*
X105224971Y-98437893D01*
X104839248Y-98822944D01*
X104630238Y-99326295D01*
X104629763Y-99871314D01*
X103395000Y-99871314D01*
X103395000Y-97861412D01*
X125979772Y-97861412D01*
X126180306Y-98346743D01*
X126551304Y-98718389D01*
X127036284Y-98919770D01*
X127561412Y-98920228D01*
X128046743Y-98719694D01*
X128418389Y-98348696D01*
X128619770Y-97863716D01*
X128619772Y-97861412D01*
X135979772Y-97861412D01*
X136180306Y-98346743D01*
X136551304Y-98718389D01*
X137036284Y-98919770D01*
X137561412Y-98920228D01*
X138046743Y-98719694D01*
X138418389Y-98348696D01*
X138619770Y-97863716D01*
X138619772Y-97861412D01*
X145979772Y-97861412D01*
X146180306Y-98346743D01*
X146551304Y-98718389D01*
X147036284Y-98919770D01*
X147561412Y-98920228D01*
X148046743Y-98719694D01*
X148418389Y-98348696D01*
X148619770Y-97863716D01*
X148619772Y-97861412D01*
X155979772Y-97861412D01*
X156180306Y-98346743D01*
X156551304Y-98718389D01*
X157036284Y-98919770D01*
X157561412Y-98920228D01*
X158046743Y-98719694D01*
X158418389Y-98348696D01*
X158619770Y-97863716D01*
X158620228Y-97338588D01*
X158419694Y-96853257D01*
X158048696Y-96481611D01*
X157563716Y-96280230D01*
X157038588Y-96279772D01*
X156553257Y-96480306D01*
X156181611Y-96851304D01*
X155980230Y-97336284D01*
X155979772Y-97861412D01*
X148619772Y-97861412D01*
X148620228Y-97338588D01*
X148419694Y-96853257D01*
X148048696Y-96481611D01*
X147563716Y-96280230D01*
X147038588Y-96279772D01*
X146553257Y-96480306D01*
X146181611Y-96851304D01*
X145980230Y-97336284D01*
X145979772Y-97861412D01*
X138619772Y-97861412D01*
X138620228Y-97338588D01*
X138419694Y-96853257D01*
X138048696Y-96481611D01*
X137563716Y-96280230D01*
X137038588Y-96279772D01*
X136553257Y-96480306D01*
X136181611Y-96851304D01*
X135980230Y-97336284D01*
X135979772Y-97861412D01*
X128619772Y-97861412D01*
X128620228Y-97338588D01*
X128419694Y-96853257D01*
X128048696Y-96481611D01*
X127563716Y-96280230D01*
X127038588Y-96279772D01*
X126553257Y-96480306D01*
X126181611Y-96851304D01*
X125980230Y-97336284D01*
X125979772Y-97861412D01*
X103395000Y-97861412D01*
X103395000Y-81122638D01*
X108669879Y-81122638D01*
X108775464Y-81378172D01*
X108795000Y-81397742D01*
X108795000Y-81841984D01*
X108776151Y-81860800D01*
X108670121Y-82116149D01*
X108669879Y-82392638D01*
X108775464Y-82648172D01*
X108970800Y-82843849D01*
X109081902Y-82889982D01*
X108971828Y-82935464D01*
X108776151Y-83130800D01*
X108670121Y-83386149D01*
X108669879Y-83662638D01*
X108775464Y-83918172D01*
X108970800Y-84113849D01*
X109081902Y-84159982D01*
X108971828Y-84205464D01*
X108776151Y-84400800D01*
X108670121Y-84656149D01*
X108669879Y-84932638D01*
X108775464Y-85188172D01*
X108970800Y-85383849D01*
X109081902Y-85429982D01*
X108971828Y-85475464D01*
X108776151Y-85670800D01*
X108670121Y-85926149D01*
X108669879Y-86202638D01*
X108775464Y-86458172D01*
X108970800Y-86653849D01*
X109081902Y-86699982D01*
X108971828Y-86745464D01*
X108776151Y-86940800D01*
X108670121Y-87196149D01*
X108669879Y-87472638D01*
X108775464Y-87728172D01*
X108970800Y-87923849D01*
X109081902Y-87969982D01*
X108971828Y-88015464D01*
X108776151Y-88210800D01*
X108670121Y-88466149D01*
X108669879Y-88742638D01*
X108775464Y-88998172D01*
X108970800Y-89193849D01*
X109081902Y-89239982D01*
X108971828Y-89285464D01*
X108776151Y-89480800D01*
X108670121Y-89736149D01*
X108669879Y-90012638D01*
X108775464Y-90268172D01*
X108970800Y-90463849D01*
X109081902Y-90509982D01*
X108971828Y-90555464D01*
X108776151Y-90750800D01*
X108670121Y-91006149D01*
X108669879Y-91282638D01*
X108775464Y-91538172D01*
X108970800Y-91733849D01*
X109081902Y-91779982D01*
X108971828Y-91825464D01*
X108776151Y-92020800D01*
X108670121Y-92276149D01*
X108669879Y-92552638D01*
X108775464Y-92808172D01*
X108970800Y-93003849D01*
X109226149Y-93109879D01*
X109502638Y-93110121D01*
X109758172Y-93004536D01*
X109953849Y-92809200D01*
X109999982Y-92698098D01*
X110045464Y-92808172D01*
X110240800Y-93003849D01*
X110496149Y-93109879D01*
X110772638Y-93110121D01*
X111028172Y-93004536D01*
X111223849Y-92809200D01*
X111329879Y-92553851D01*
X111330121Y-92277362D01*
X111224536Y-92021828D01*
X111029200Y-91826151D01*
X110918098Y-91780018D01*
X111028172Y-91734536D01*
X111223849Y-91539200D01*
X111319021Y-91310000D01*
X115823731Y-91310000D01*
X115823731Y-91910000D01*
X115846044Y-92028585D01*
X115916128Y-92137498D01*
X116023063Y-92210564D01*
X116064500Y-92218955D01*
X116064500Y-94263652D01*
X116062415Y-94264044D01*
X115953502Y-94334128D01*
X115880436Y-94441063D01*
X115854731Y-94568000D01*
X115854731Y-95432000D01*
X115877044Y-95550585D01*
X115947128Y-95659498D01*
X116054063Y-95732564D01*
X116181000Y-95758269D01*
X116968000Y-95758269D01*
X117086585Y-95735956D01*
X117195498Y-95665872D01*
X117220008Y-95630000D01*
X119164793Y-95630000D01*
X119182190Y-95672103D01*
X119486296Y-95976740D01*
X119883833Y-96141812D01*
X120314279Y-96142188D01*
X120712103Y-95977810D01*
X121016740Y-95673704D01*
X121181812Y-95276167D01*
X121182188Y-94845721D01*
X121017810Y-94447897D01*
X120713704Y-94143260D01*
X120316167Y-93978188D01*
X119885721Y-93977812D01*
X119487897Y-94142190D01*
X119183260Y-94446296D01*
X119165112Y-94490000D01*
X117279592Y-94490000D01*
X117271956Y-94449415D01*
X117204500Y-94344586D01*
X117204500Y-92236269D01*
X117650000Y-92236269D01*
X117768585Y-92213956D01*
X117877498Y-92143872D01*
X117950564Y-92036937D01*
X117976269Y-91910000D01*
X117976269Y-91310000D01*
X117953956Y-91191415D01*
X117883872Y-91082502D01*
X117776937Y-91009436D01*
X117650000Y-90983731D01*
X116150000Y-90983731D01*
X116031415Y-91006044D01*
X115922502Y-91076128D01*
X115849436Y-91183063D01*
X115823731Y-91310000D01*
X111319021Y-91310000D01*
X111329879Y-91283851D01*
X111330121Y-91007362D01*
X111224536Y-90751828D01*
X111029200Y-90556151D01*
X110918098Y-90510018D01*
X111028172Y-90464536D01*
X111223849Y-90269200D01*
X111329879Y-90013851D01*
X111330121Y-89737362D01*
X111224536Y-89481828D01*
X111029200Y-89286151D01*
X110918098Y-89240018D01*
X111028172Y-89194536D01*
X111223849Y-88999200D01*
X111329879Y-88743851D01*
X111330121Y-88467362D01*
X111224536Y-88211828D01*
X111029200Y-88016151D01*
X110918098Y-87970018D01*
X111028172Y-87924536D01*
X111223849Y-87729200D01*
X111329879Y-87473851D01*
X111330121Y-87197362D01*
X111224536Y-86941828D01*
X111029200Y-86746151D01*
X110918098Y-86700018D01*
X111028172Y-86654536D01*
X111223849Y-86459200D01*
X111329879Y-86203851D01*
X111330121Y-85927362D01*
X111224536Y-85671828D01*
X111029200Y-85476151D01*
X110918098Y-85430018D01*
X111028172Y-85384536D01*
X111223849Y-85189200D01*
X111329879Y-84933851D01*
X111330121Y-84657362D01*
X111224536Y-84401828D01*
X111029200Y-84206151D01*
X110918098Y-84160018D01*
X111028172Y-84114536D01*
X111223849Y-83919200D01*
X111329879Y-83663851D01*
X111330121Y-83387362D01*
X111224536Y-83131828D01*
X111029200Y-82936151D01*
X110918098Y-82890018D01*
X111028172Y-82844536D01*
X111223849Y-82649200D01*
X111329879Y-82393851D01*
X111330121Y-82117362D01*
X111224536Y-81861828D01*
X111205000Y-81842258D01*
X111205000Y-81398016D01*
X111223849Y-81379200D01*
X111329879Y-81123851D01*
X111330121Y-80847362D01*
X111224536Y-80591828D01*
X111029200Y-80396151D01*
X110773851Y-80290121D01*
X110497362Y-80289879D01*
X110241828Y-80395464D01*
X110046151Y-80590800D01*
X110000018Y-80701902D01*
X109954536Y-80591828D01*
X109935000Y-80572258D01*
X109935000Y-72771102D01*
X110225102Y-72481000D01*
X113041731Y-72481000D01*
X113041731Y-73268000D01*
X113064044Y-73386585D01*
X113134128Y-73495498D01*
X113241063Y-73568564D01*
X113368000Y-73594269D01*
X113460000Y-73594269D01*
X113460000Y-73623731D01*
X113455000Y-73623731D01*
X113336415Y-73646044D01*
X113227502Y-73716128D01*
X113154436Y-73823063D01*
X113128731Y-73950000D01*
X113128731Y-75150000D01*
X113151044Y-75268585D01*
X113221128Y-75377498D01*
X113328063Y-75450564D01*
X113455000Y-75476269D01*
X114255000Y-75476269D01*
X114373585Y-75453956D01*
X114482498Y-75383872D01*
X114489055Y-75374276D01*
X114491128Y-75377498D01*
X114598063Y-75450564D01*
X114725000Y-75476269D01*
X114730000Y-75476269D01*
X114730000Y-77393306D01*
X114574696Y-77548339D01*
X114480107Y-77776133D01*
X114479892Y-78022785D01*
X114574083Y-78250743D01*
X114748339Y-78425304D01*
X114976133Y-78519893D01*
X115222785Y-78520108D01*
X115450743Y-78425917D01*
X115625304Y-78251661D01*
X115719893Y-78023867D01*
X115720108Y-77777215D01*
X115625917Y-77549257D01*
X115520000Y-77443155D01*
X115520000Y-75476269D01*
X115525000Y-75476269D01*
X115643585Y-75453956D01*
X115752498Y-75383872D01*
X115759055Y-75374276D01*
X115761128Y-75377498D01*
X115868063Y-75450564D01*
X115995000Y-75476269D01*
X116795000Y-75476269D01*
X116913585Y-75453956D01*
X117022498Y-75383872D01*
X117029055Y-75374276D01*
X117031128Y-75377498D01*
X117138063Y-75450564D01*
X117265000Y-75476269D01*
X117270000Y-75476269D01*
X117270000Y-76653202D01*
X117174696Y-76748339D01*
X117080107Y-76976133D01*
X117079892Y-77222785D01*
X117174083Y-77450743D01*
X117348339Y-77625304D01*
X117576133Y-77719893D01*
X117822785Y-77720108D01*
X118050743Y-77625917D01*
X118225304Y-77451661D01*
X118319893Y-77223867D01*
X118320108Y-76977215D01*
X118225917Y-76749257D01*
X118060000Y-76583050D01*
X118060000Y-75476269D01*
X118065000Y-75476269D01*
X118183585Y-75453956D01*
X118292498Y-75383872D01*
X118299055Y-75374276D01*
X118301128Y-75377498D01*
X118408063Y-75450564D01*
X118535000Y-75476269D01*
X119335000Y-75476269D01*
X119453585Y-75453956D01*
X119562498Y-75383872D01*
X119569055Y-75374276D01*
X119571128Y-75377498D01*
X119678063Y-75450564D01*
X119805000Y-75476269D01*
X119810000Y-75476269D01*
X119810000Y-76013271D01*
X119674696Y-76148339D01*
X119580107Y-76376133D01*
X119579892Y-76622785D01*
X119674083Y-76850743D01*
X119848339Y-77025304D01*
X120076133Y-77119893D01*
X120322785Y-77120108D01*
X120550743Y-77025917D01*
X120725304Y-76851661D01*
X120819893Y-76623867D01*
X120820108Y-76377215D01*
X120725917Y-76149257D01*
X120600000Y-76023120D01*
X120600000Y-75476269D01*
X120605000Y-75476269D01*
X120723585Y-75453956D01*
X120832498Y-75383872D01*
X120839055Y-75374276D01*
X120841128Y-75377498D01*
X120948063Y-75450564D01*
X121075000Y-75476269D01*
X121875000Y-75476269D01*
X121993585Y-75453956D01*
X122102498Y-75383872D01*
X122109055Y-75374276D01*
X122111128Y-75377498D01*
X122218063Y-75450564D01*
X122263438Y-75459752D01*
X122174696Y-75548339D01*
X122080107Y-75776133D01*
X122079892Y-76022785D01*
X122174083Y-76250743D01*
X122348339Y-76425304D01*
X122576133Y-76519893D01*
X122822785Y-76520108D01*
X123050743Y-76425917D01*
X123225304Y-76251661D01*
X123319893Y-76023867D01*
X123320108Y-75777215D01*
X123225917Y-75549257D01*
X123151783Y-75474993D01*
X123263585Y-75453956D01*
X123372498Y-75383872D01*
X123445564Y-75276937D01*
X123471269Y-75150000D01*
X123471269Y-73950000D01*
X123448956Y-73831415D01*
X123378872Y-73722502D01*
X123271937Y-73649436D01*
X123145000Y-73623731D01*
X122345000Y-73623731D01*
X122226415Y-73646044D01*
X122117502Y-73716128D01*
X122110945Y-73725724D01*
X122108872Y-73722502D01*
X122001937Y-73649436D01*
X121875000Y-73623731D01*
X121870000Y-73623731D01*
X121870000Y-73594269D01*
X121932000Y-73594269D01*
X122050585Y-73571956D01*
X122159498Y-73501872D01*
X122232564Y-73394937D01*
X122258269Y-73268000D01*
X122258269Y-72481000D01*
X122235956Y-72362415D01*
X122165872Y-72253502D01*
X122058937Y-72180436D01*
X121932000Y-72154731D01*
X121068000Y-72154731D01*
X120949415Y-72177044D01*
X120840502Y-72247128D01*
X120767436Y-72354063D01*
X120741731Y-72481000D01*
X120741731Y-73268000D01*
X120764044Y-73386585D01*
X120834128Y-73495498D01*
X120941063Y-73568564D01*
X121068000Y-73594269D01*
X121080000Y-73594269D01*
X121080000Y-73623731D01*
X121075000Y-73623731D01*
X120956415Y-73646044D01*
X120847502Y-73716128D01*
X120840945Y-73725724D01*
X120838872Y-73722502D01*
X120731937Y-73649436D01*
X120605000Y-73623731D01*
X119805000Y-73623731D01*
X119686415Y-73646044D01*
X119577502Y-73716128D01*
X119570945Y-73725724D01*
X119568872Y-73722502D01*
X119461937Y-73649436D01*
X119335000Y-73623731D01*
X119330000Y-73623731D01*
X119330000Y-73594269D01*
X119332000Y-73594269D01*
X119450585Y-73571956D01*
X119559498Y-73501872D01*
X119632564Y-73394937D01*
X119658269Y-73268000D01*
X119658269Y-72481000D01*
X119635956Y-72362415D01*
X119565872Y-72253502D01*
X119458937Y-72180436D01*
X119332000Y-72154731D01*
X118468000Y-72154731D01*
X118349415Y-72177044D01*
X118240502Y-72247128D01*
X118167436Y-72354063D01*
X118141731Y-72481000D01*
X118141731Y-73268000D01*
X118164044Y-73386585D01*
X118234128Y-73495498D01*
X118341063Y-73568564D01*
X118468000Y-73594269D01*
X118540000Y-73594269D01*
X118540000Y-73623731D01*
X118535000Y-73623731D01*
X118416415Y-73646044D01*
X118307502Y-73716128D01*
X118300945Y-73725724D01*
X118298872Y-73722502D01*
X118191937Y-73649436D01*
X118065000Y-73623731D01*
X117265000Y-73623731D01*
X117146415Y-73646044D01*
X117037502Y-73716128D01*
X117030945Y-73725724D01*
X117028872Y-73722502D01*
X116921937Y-73649436D01*
X116795000Y-73623731D01*
X116790000Y-73623731D01*
X116790000Y-73594269D01*
X116832000Y-73594269D01*
X116950585Y-73571956D01*
X117059498Y-73501872D01*
X117132564Y-73394937D01*
X117158269Y-73268000D01*
X117158269Y-72481000D01*
X117135956Y-72362415D01*
X117065872Y-72253502D01*
X116958937Y-72180436D01*
X116832000Y-72154731D01*
X115968000Y-72154731D01*
X115849415Y-72177044D01*
X115740502Y-72247128D01*
X115667436Y-72354063D01*
X115641731Y-72481000D01*
X115641731Y-73268000D01*
X115664044Y-73386585D01*
X115734128Y-73495498D01*
X115841063Y-73568564D01*
X115968000Y-73594269D01*
X116000000Y-73594269D01*
X116000000Y-73623731D01*
X115995000Y-73623731D01*
X115876415Y-73646044D01*
X115767502Y-73716128D01*
X115760945Y-73725724D01*
X115758872Y-73722502D01*
X115651937Y-73649436D01*
X115525000Y-73623731D01*
X114725000Y-73623731D01*
X114606415Y-73646044D01*
X114497502Y-73716128D01*
X114490945Y-73725724D01*
X114488872Y-73722502D01*
X114381937Y-73649436D01*
X114255000Y-73623731D01*
X114250000Y-73623731D01*
X114250000Y-73590882D01*
X114350585Y-73571956D01*
X114459498Y-73501872D01*
X114532564Y-73394937D01*
X114558269Y-73268000D01*
X114558269Y-72481000D01*
X114535956Y-72362415D01*
X114465872Y-72253502D01*
X114358937Y-72180436D01*
X114232000Y-72154731D01*
X113368000Y-72154731D01*
X113249415Y-72177044D01*
X113140502Y-72247128D01*
X113067436Y-72354063D01*
X113041731Y-72481000D01*
X110225102Y-72481000D01*
X110810602Y-71895500D01*
X113101311Y-71895500D01*
X113134128Y-71946498D01*
X113241063Y-72019564D01*
X113368000Y-72045269D01*
X114232000Y-72045269D01*
X114350585Y-72022956D01*
X114459498Y-71952872D01*
X114498699Y-71895500D01*
X115701311Y-71895500D01*
X115734128Y-71946498D01*
X115841063Y-72019564D01*
X115968000Y-72045269D01*
X116832000Y-72045269D01*
X116950585Y-72022956D01*
X117059498Y-71952872D01*
X117098699Y-71895500D01*
X118201311Y-71895500D01*
X118234128Y-71946498D01*
X118341063Y-72019564D01*
X118468000Y-72045269D01*
X119332000Y-72045269D01*
X119450585Y-72022956D01*
X119559498Y-71952872D01*
X119598699Y-71895500D01*
X120801311Y-71895500D01*
X120834128Y-71946498D01*
X120941063Y-72019564D01*
X121068000Y-72045269D01*
X121932000Y-72045269D01*
X122050585Y-72022956D01*
X122159498Y-71952872D01*
X122232564Y-71845937D01*
X122258269Y-71719000D01*
X122258269Y-70932000D01*
X122235956Y-70813415D01*
X122165872Y-70704502D01*
X122058937Y-70631436D01*
X121932000Y-70605731D01*
X121068000Y-70605731D01*
X120949415Y-70628044D01*
X120840502Y-70698128D01*
X120801301Y-70755500D01*
X119598689Y-70755500D01*
X119565872Y-70704502D01*
X119458937Y-70631436D01*
X119332000Y-70605731D01*
X118468000Y-70605731D01*
X118349415Y-70628044D01*
X118240502Y-70698128D01*
X118201301Y-70755500D01*
X117098689Y-70755500D01*
X117065872Y-70704502D01*
X116958937Y-70631436D01*
X116832000Y-70605731D01*
X115968000Y-70605731D01*
X115849415Y-70628044D01*
X115740502Y-70698128D01*
X115701301Y-70755500D01*
X114498689Y-70755500D01*
X114465872Y-70704502D01*
X114358937Y-70631436D01*
X114232000Y-70605731D01*
X113368000Y-70605731D01*
X113249415Y-70628044D01*
X113140502Y-70698128D01*
X113101301Y-70755500D01*
X110574500Y-70755500D01*
X110356370Y-70798889D01*
X110183534Y-70914374D01*
X110171449Y-70922449D01*
X108961949Y-72131949D01*
X108838389Y-72316870D01*
X108795000Y-72535000D01*
X108795000Y-80571984D01*
X108776151Y-80590800D01*
X108670121Y-80846149D01*
X108669879Y-81122638D01*
X103395000Y-81122638D01*
X103395000Y-75271314D01*
X104629763Y-75271314D01*
X104837893Y-75775029D01*
X105222944Y-76160752D01*
X105726295Y-76369762D01*
X106271314Y-76370237D01*
X106775029Y-76162107D01*
X107160752Y-75777056D01*
X107369762Y-75273705D01*
X107370237Y-74728686D01*
X107162107Y-74224971D01*
X106777056Y-73839248D01*
X106273705Y-73630238D01*
X105728686Y-73629763D01*
X105224971Y-73837893D01*
X104839248Y-74222944D01*
X104630238Y-74726295D01*
X104629763Y-75271314D01*
X103395000Y-75271314D01*
X103395000Y-71320824D01*
X104379719Y-71320824D01*
X104625830Y-71916458D01*
X105081145Y-72372569D01*
X105676348Y-72619718D01*
X106320824Y-72620281D01*
X106916458Y-72374170D01*
X107372569Y-71918855D01*
X107619718Y-71323652D01*
X107620281Y-70679176D01*
X107374170Y-70083542D01*
X106918855Y-69627431D01*
X106323652Y-69380282D01*
X105679176Y-69379719D01*
X105083542Y-69625830D01*
X104627431Y-70081145D01*
X104380282Y-70676348D01*
X104379719Y-71320824D01*
X103395000Y-71320824D01*
X103395000Y-70038904D01*
X103524323Y-69388755D01*
X103870565Y-68870565D01*
X104388755Y-68524323D01*
X105038903Y-68395000D01*
X123800000Y-68395000D01*
X123800000Y-85080064D01*
G36*
X133800000Y-86223731D02*
X133300000Y-86223731D01*
X133181415Y-86246044D01*
X133072502Y-86316128D01*
X132999436Y-86423063D01*
X132973731Y-86550000D01*
X132973731Y-87750000D01*
X132996044Y-87868585D01*
X133016259Y-87900000D01*
X125958269Y-87900000D01*
X125958269Y-87181000D01*
X125935956Y-87062415D01*
X125865872Y-86953502D01*
X125758937Y-86880436D01*
X125632000Y-86854731D01*
X125100000Y-86854731D01*
X125100000Y-86745269D01*
X125632000Y-86745269D01*
X125750585Y-86722956D01*
X125859498Y-86652872D01*
X125932564Y-86545937D01*
X125958269Y-86419000D01*
X125958269Y-85632000D01*
X125935956Y-85513415D01*
X125865872Y-85404502D01*
X125758937Y-85331436D01*
X125632000Y-85305731D01*
X125100000Y-85305731D01*
X125100000Y-77261412D01*
X125979772Y-77261412D01*
X126180306Y-77746743D01*
X126551304Y-78118389D01*
X127036284Y-78319770D01*
X127561412Y-78320228D01*
X128046743Y-78119694D01*
X128418389Y-77748696D01*
X128619770Y-77263716D01*
X128620228Y-76738588D01*
X128419694Y-76253257D01*
X128048696Y-75881611D01*
X127563716Y-75680230D01*
X127038588Y-75679772D01*
X126553257Y-75880306D01*
X126181611Y-76251304D01*
X125980230Y-76736284D01*
X125979772Y-77261412D01*
X125100000Y-77261412D01*
X125100000Y-68395000D01*
X133800000Y-68395000D01*
X133800000Y-86223731D01*
X133800000Y-86223731D01*
G37*
X133800000Y-86223731D02*
X133300000Y-86223731D01*
X133181415Y-86246044D01*
X133072502Y-86316128D01*
X132999436Y-86423063D01*
X132973731Y-86550000D01*
X132973731Y-87750000D01*
X132996044Y-87868585D01*
X133016259Y-87900000D01*
X125958269Y-87900000D01*
X125958269Y-87181000D01*
X125935956Y-87062415D01*
X125865872Y-86953502D01*
X125758937Y-86880436D01*
X125632000Y-86854731D01*
X125100000Y-86854731D01*
X125100000Y-86745269D01*
X125632000Y-86745269D01*
X125750585Y-86722956D01*
X125859498Y-86652872D01*
X125932564Y-86545937D01*
X125958269Y-86419000D01*
X125958269Y-85632000D01*
X125935956Y-85513415D01*
X125865872Y-85404502D01*
X125758937Y-85331436D01*
X125632000Y-85305731D01*
X125100000Y-85305731D01*
X125100000Y-77261412D01*
X125979772Y-77261412D01*
X126180306Y-77746743D01*
X126551304Y-78118389D01*
X127036284Y-78319770D01*
X127561412Y-78320228D01*
X128046743Y-78119694D01*
X128418389Y-77748696D01*
X128619770Y-77263716D01*
X128620228Y-76738588D01*
X128419694Y-76253257D01*
X128048696Y-75881611D01*
X127563716Y-75680230D01*
X127038588Y-75679772D01*
X126553257Y-75880306D01*
X126181611Y-76251304D01*
X125980230Y-76736284D01*
X125979772Y-77261412D01*
X125100000Y-77261412D01*
X125100000Y-68395000D01*
X133800000Y-68395000D01*
X133800000Y-86223731D01*
G36*
X143800000Y-86223731D02*
X143300000Y-86223731D01*
X143181415Y-86246044D01*
X143072502Y-86316128D01*
X142999436Y-86423063D01*
X142973731Y-86550000D01*
X142973731Y-87750000D01*
X142996044Y-87868585D01*
X143016259Y-87900000D01*
X136358269Y-87900000D01*
X136358269Y-87432000D01*
X136335956Y-87313415D01*
X136265872Y-87204502D01*
X136158937Y-87131436D01*
X136032000Y-87105731D01*
X135700000Y-87105731D01*
X135700000Y-77261412D01*
X135979772Y-77261412D01*
X136180306Y-77746743D01*
X136551304Y-78118389D01*
X137036284Y-78319770D01*
X137561412Y-78320228D01*
X138046743Y-78119694D01*
X138418389Y-77748696D01*
X138619770Y-77263716D01*
X138620228Y-76738588D01*
X138419694Y-76253257D01*
X138048696Y-75881611D01*
X137563716Y-75680230D01*
X137038588Y-75679772D01*
X136553257Y-75880306D01*
X136181611Y-76251304D01*
X135980230Y-76736284D01*
X135979772Y-77261412D01*
X135700000Y-77261412D01*
X135700000Y-68395000D01*
X143800000Y-68395000D01*
X143800000Y-86223731D01*
X143800000Y-86223731D01*
G37*
X143800000Y-86223731D02*
X143300000Y-86223731D01*
X143181415Y-86246044D01*
X143072502Y-86316128D01*
X142999436Y-86423063D01*
X142973731Y-86550000D01*
X142973731Y-87750000D01*
X142996044Y-87868585D01*
X143016259Y-87900000D01*
X136358269Y-87900000D01*
X136358269Y-87432000D01*
X136335956Y-87313415D01*
X136265872Y-87204502D01*
X136158937Y-87131436D01*
X136032000Y-87105731D01*
X135700000Y-87105731D01*
X135700000Y-77261412D01*
X135979772Y-77261412D01*
X136180306Y-77746743D01*
X136551304Y-78118389D01*
X137036284Y-78319770D01*
X137561412Y-78320228D01*
X138046743Y-78119694D01*
X138418389Y-77748696D01*
X138619770Y-77263716D01*
X138620228Y-76738588D01*
X138419694Y-76253257D01*
X138048696Y-75881611D01*
X137563716Y-75680230D01*
X137038588Y-75679772D01*
X136553257Y-75880306D01*
X136181611Y-76251304D01*
X135980230Y-76736284D01*
X135979772Y-77261412D01*
X135700000Y-77261412D01*
X135700000Y-68395000D01*
X143800000Y-68395000D01*
X143800000Y-86223731D01*
G36*
X153800000Y-86223731D02*
X153300000Y-86223731D01*
X153181415Y-86246044D01*
X153072502Y-86316128D01*
X152999436Y-86423063D01*
X152973731Y-86550000D01*
X152973731Y-87750000D01*
X152996044Y-87868585D01*
X153016259Y-87900000D01*
X146358269Y-87900000D01*
X146358269Y-87432000D01*
X146335956Y-87313415D01*
X146265872Y-87204502D01*
X146158937Y-87131436D01*
X146032000Y-87105731D01*
X145700000Y-87105731D01*
X145700000Y-77261412D01*
X145979772Y-77261412D01*
X146180306Y-77746743D01*
X146551304Y-78118389D01*
X147036284Y-78319770D01*
X147561412Y-78320228D01*
X148046743Y-78119694D01*
X148418389Y-77748696D01*
X148619770Y-77263716D01*
X148620228Y-76738588D01*
X148419694Y-76253257D01*
X148048696Y-75881611D01*
X147563716Y-75680230D01*
X147038588Y-75679772D01*
X146553257Y-75880306D01*
X146181611Y-76251304D01*
X145980230Y-76736284D01*
X145979772Y-77261412D01*
X145700000Y-77261412D01*
X145700000Y-68395000D01*
X153800000Y-68395000D01*
X153800000Y-86223731D01*
X153800000Y-86223731D01*
G37*
X153800000Y-86223731D02*
X153300000Y-86223731D01*
X153181415Y-86246044D01*
X153072502Y-86316128D01*
X152999436Y-86423063D01*
X152973731Y-86550000D01*
X152973731Y-87750000D01*
X152996044Y-87868585D01*
X153016259Y-87900000D01*
X146358269Y-87900000D01*
X146358269Y-87432000D01*
X146335956Y-87313415D01*
X146265872Y-87204502D01*
X146158937Y-87131436D01*
X146032000Y-87105731D01*
X145700000Y-87105731D01*
X145700000Y-77261412D01*
X145979772Y-77261412D01*
X146180306Y-77746743D01*
X146551304Y-78118389D01*
X147036284Y-78319770D01*
X147561412Y-78320228D01*
X148046743Y-78119694D01*
X148418389Y-77748696D01*
X148619770Y-77263716D01*
X148620228Y-76738588D01*
X148419694Y-76253257D01*
X148048696Y-75881611D01*
X147563716Y-75680230D01*
X147038588Y-75679772D01*
X146553257Y-75880306D01*
X146181611Y-76251304D01*
X145980230Y-76736284D01*
X145979772Y-77261412D01*
X145700000Y-77261412D01*
X145700000Y-68395000D01*
X153800000Y-68395000D01*
X153800000Y-86223731D01*
G36*
X163800000Y-86223731D02*
X163300000Y-86223731D01*
X163181415Y-86246044D01*
X163072502Y-86316128D01*
X162999436Y-86423063D01*
X162973731Y-86550000D01*
X162973731Y-87750000D01*
X162996044Y-87868585D01*
X163016259Y-87900000D01*
X156358269Y-87900000D01*
X156358269Y-87432000D01*
X156335956Y-87313415D01*
X156265872Y-87204502D01*
X156158937Y-87131436D01*
X156032000Y-87105731D01*
X155700000Y-87105731D01*
X155700000Y-77261412D01*
X155979772Y-77261412D01*
X156180306Y-77746743D01*
X156551304Y-78118389D01*
X157036284Y-78319770D01*
X157561412Y-78320228D01*
X158046743Y-78119694D01*
X158418389Y-77748696D01*
X158619770Y-77263716D01*
X158620228Y-76738588D01*
X158419694Y-76253257D01*
X158048696Y-75881611D01*
X157563716Y-75680230D01*
X157038588Y-75679772D01*
X156553257Y-75880306D01*
X156181611Y-76251304D01*
X155980230Y-76736284D01*
X155979772Y-77261412D01*
X155700000Y-77261412D01*
X155700000Y-68395000D01*
X163800000Y-68395000D01*
X163800000Y-86223731D01*
X163800000Y-86223731D01*
G37*
X163800000Y-86223731D02*
X163300000Y-86223731D01*
X163181415Y-86246044D01*
X163072502Y-86316128D01*
X162999436Y-86423063D01*
X162973731Y-86550000D01*
X162973731Y-87750000D01*
X162996044Y-87868585D01*
X163016259Y-87900000D01*
X156358269Y-87900000D01*
X156358269Y-87432000D01*
X156335956Y-87313415D01*
X156265872Y-87204502D01*
X156158937Y-87131436D01*
X156032000Y-87105731D01*
X155700000Y-87105731D01*
X155700000Y-77261412D01*
X155979772Y-77261412D01*
X156180306Y-77746743D01*
X156551304Y-78118389D01*
X157036284Y-78319770D01*
X157561412Y-78320228D01*
X158046743Y-78119694D01*
X158418389Y-77748696D01*
X158619770Y-77263716D01*
X158620228Y-76738588D01*
X158419694Y-76253257D01*
X158048696Y-75881611D01*
X157563716Y-75680230D01*
X157038588Y-75679772D01*
X156553257Y-75880306D01*
X156181611Y-76251304D01*
X155980230Y-76736284D01*
X155979772Y-77261412D01*
X155700000Y-77261412D01*
X155700000Y-68395000D01*
X163800000Y-68395000D01*
X163800000Y-86223731D01*
M02*
