G04 #@! TF.FileFunction,Legend,Top*
%FSLAX46Y46*%
G04 Gerber Fmt 4.6, Leading zero omitted, Abs format (unit mm)*
G04 Created by KiCad (PCBNEW 4.0.6-e0-6349~53~ubuntu14.04.1) date Sun Apr  2 15:59:59 2017*
%MOMM*%
%LPD*%
G01*
G04 APERTURE LIST*
%ADD10C,0.100000*%
%ADD11C,0.300000*%
%ADD12C,0.150000*%
%ADD13C,0.152400*%
G04 APERTURE END LIST*
D10*
D11*
X166304762Y-79100000D02*
X166304762Y-78719048D01*
X166400000Y-78528572D01*
X166590476Y-78338095D01*
X166971429Y-78242857D01*
X167638095Y-78242857D01*
X168019048Y-78338095D01*
X168209524Y-78528572D01*
X168304762Y-78719048D01*
X168304762Y-79100000D01*
X168209524Y-79290476D01*
X168019048Y-79480953D01*
X167638095Y-79576191D01*
X166971429Y-79576191D01*
X166590476Y-79480953D01*
X166400000Y-79290476D01*
X166304762Y-79100000D01*
X166304762Y-77385715D02*
X167923810Y-77385715D01*
X168114286Y-77290476D01*
X168209524Y-77195238D01*
X168304762Y-77004762D01*
X168304762Y-76623810D01*
X168209524Y-76433334D01*
X168114286Y-76338095D01*
X167923810Y-76242857D01*
X166304762Y-76242857D01*
X166304762Y-75576191D02*
X166304762Y-74433334D01*
X168304762Y-75004762D02*
X166304762Y-75004762D01*
X156538095Y-103942857D02*
X158061905Y-103942857D01*
X157300000Y-104704762D02*
X157300000Y-103180952D01*
X146538095Y-103942857D02*
X148061905Y-103942857D01*
X147300000Y-104704762D02*
X147300000Y-103180952D01*
X161538095Y-103942857D02*
X163061905Y-103942857D01*
X151538095Y-103942857D02*
X153061905Y-103942857D01*
X117528571Y-104804762D02*
X117528571Y-102804762D01*
X117528571Y-103757143D02*
X118671429Y-103757143D01*
X118671429Y-104804762D02*
X118671429Y-102804762D01*
X119338095Y-102804762D02*
X120004762Y-104804762D01*
X120671429Y-102804762D01*
X122861905Y-104804762D02*
X122861905Y-102804762D01*
X123814286Y-103471429D02*
X123814286Y-104804762D01*
X123814286Y-103661905D02*
X123909525Y-103566667D01*
X124100001Y-103471429D01*
X124385715Y-103471429D01*
X124576191Y-103566667D01*
X124671429Y-103757143D01*
X124671429Y-104804762D01*
X126538095Y-104042857D02*
X128061905Y-104042857D01*
X127300000Y-104804762D02*
X127300000Y-103280952D01*
X136538095Y-103942857D02*
X138061905Y-103942857D01*
X137300000Y-104704762D02*
X137300000Y-103180952D01*
X141538095Y-103942857D02*
X143061905Y-103942857D01*
X132442857Y-104661905D02*
X132442857Y-103138095D01*
X156800000Y-71378571D02*
X155942857Y-71378571D01*
X156371429Y-71378571D02*
X156371429Y-69878571D01*
X156228572Y-70092857D01*
X156085714Y-70235714D01*
X155942857Y-70307143D01*
X157442857Y-70807143D02*
X158585714Y-70807143D01*
X158014285Y-71378571D02*
X158014285Y-70235714D01*
X161800000Y-71378571D02*
X160942857Y-71378571D01*
X161371429Y-71378571D02*
X161371429Y-69878571D01*
X161228572Y-70092857D01*
X161085714Y-70235714D01*
X160942857Y-70307143D01*
X162442857Y-70807143D02*
X163585714Y-70807143D01*
X145942857Y-70021429D02*
X146014286Y-69950000D01*
X146157143Y-69878571D01*
X146514286Y-69878571D01*
X146657143Y-69950000D01*
X146728572Y-70021429D01*
X146800000Y-70164286D01*
X146800000Y-70307143D01*
X146728572Y-70521429D01*
X145871429Y-71378571D01*
X146800000Y-71378571D01*
X147442857Y-70807143D02*
X148585714Y-70807143D01*
X148014285Y-71378571D02*
X148014285Y-70235714D01*
X150942857Y-70021429D02*
X151014286Y-69950000D01*
X151157143Y-69878571D01*
X151514286Y-69878571D01*
X151657143Y-69950000D01*
X151728572Y-70021429D01*
X151800000Y-70164286D01*
X151800000Y-70307143D01*
X151728572Y-70521429D01*
X150871429Y-71378571D01*
X151800000Y-71378571D01*
X152442857Y-70807143D02*
X153585714Y-70807143D01*
X135871429Y-69878571D02*
X136800000Y-69878571D01*
X136300000Y-70450000D01*
X136514286Y-70450000D01*
X136657143Y-70521429D01*
X136728572Y-70592857D01*
X136800000Y-70735714D01*
X136800000Y-71092857D01*
X136728572Y-71235714D01*
X136657143Y-71307143D01*
X136514286Y-71378571D01*
X136085714Y-71378571D01*
X135942857Y-71307143D01*
X135871429Y-71235714D01*
X137442857Y-70807143D02*
X138585714Y-70807143D01*
X138014285Y-71378571D02*
X138014285Y-70235714D01*
X140871429Y-69878571D02*
X141800000Y-69878571D01*
X141300000Y-70450000D01*
X141514286Y-70450000D01*
X141657143Y-70521429D01*
X141728572Y-70592857D01*
X141800000Y-70735714D01*
X141800000Y-71092857D01*
X141728572Y-71235714D01*
X141657143Y-71307143D01*
X141514286Y-71378571D01*
X141085714Y-71378571D01*
X140942857Y-71307143D01*
X140871429Y-71235714D01*
X142442857Y-70807143D02*
X143585714Y-70807143D01*
X126657143Y-70378571D02*
X126657143Y-71378571D01*
X126300000Y-69807143D02*
X125942857Y-70878571D01*
X126871429Y-70878571D01*
X127442857Y-70807143D02*
X128585714Y-70807143D01*
X128014285Y-71378571D02*
X128014285Y-70235714D01*
X131657143Y-70378571D02*
X131657143Y-71378571D01*
X131300000Y-69807143D02*
X130942857Y-70878571D01*
X131871429Y-70878571D01*
X132442857Y-70807143D02*
X133585714Y-70807143D01*
D12*
X157800000Y-83400000D02*
X157800000Y-83200000D01*
X157800000Y-83200000D02*
X161800000Y-83200000D01*
X161800000Y-83200000D02*
X161800000Y-83400000D01*
X161400000Y-91200000D02*
X161400000Y-91400000D01*
X161400000Y-91400000D02*
X162000000Y-91400000D01*
X162000000Y-91400000D02*
X162000000Y-91200000D01*
X160100000Y-91200000D02*
X160100000Y-91400000D01*
X160100000Y-91400000D02*
X160700000Y-91400000D01*
X160700000Y-91400000D02*
X160700000Y-91200000D01*
X158900000Y-91200000D02*
X158900000Y-91400000D01*
X158900000Y-91400000D02*
X159500000Y-91400000D01*
X159500000Y-91400000D02*
X159500000Y-91200000D01*
X157600000Y-91200000D02*
X157600000Y-91400000D01*
X157600000Y-91400000D02*
X158200000Y-91400000D01*
X158200000Y-91400000D02*
X158200000Y-91200000D01*
X157000000Y-83400000D02*
X162600000Y-83400000D01*
X162600000Y-83400000D02*
X162600000Y-91200000D01*
X162600000Y-91200000D02*
X157000000Y-91200000D01*
X157000000Y-91200000D02*
X157000000Y-83400000D01*
X147800000Y-83400000D02*
X147800000Y-83200000D01*
X147800000Y-83200000D02*
X151800000Y-83200000D01*
X151800000Y-83200000D02*
X151800000Y-83400000D01*
X151400000Y-91200000D02*
X151400000Y-91400000D01*
X151400000Y-91400000D02*
X152000000Y-91400000D01*
X152000000Y-91400000D02*
X152000000Y-91200000D01*
X150100000Y-91200000D02*
X150100000Y-91400000D01*
X150100000Y-91400000D02*
X150700000Y-91400000D01*
X150700000Y-91400000D02*
X150700000Y-91200000D01*
X148900000Y-91200000D02*
X148900000Y-91400000D01*
X148900000Y-91400000D02*
X149500000Y-91400000D01*
X149500000Y-91400000D02*
X149500000Y-91200000D01*
X147600000Y-91200000D02*
X147600000Y-91400000D01*
X147600000Y-91400000D02*
X148200000Y-91400000D01*
X148200000Y-91400000D02*
X148200000Y-91200000D01*
X147000000Y-83400000D02*
X152600000Y-83400000D01*
X152600000Y-83400000D02*
X152600000Y-91200000D01*
X152600000Y-91200000D02*
X147000000Y-91200000D01*
X147000000Y-91200000D02*
X147000000Y-83400000D01*
X137800000Y-83400000D02*
X137800000Y-83200000D01*
X137800000Y-83200000D02*
X141800000Y-83200000D01*
X141800000Y-83200000D02*
X141800000Y-83400000D01*
X141400000Y-91200000D02*
X141400000Y-91400000D01*
X141400000Y-91400000D02*
X142000000Y-91400000D01*
X142000000Y-91400000D02*
X142000000Y-91200000D01*
X140100000Y-91200000D02*
X140100000Y-91400000D01*
X140100000Y-91400000D02*
X140700000Y-91400000D01*
X140700000Y-91400000D02*
X140700000Y-91200000D01*
X138900000Y-91200000D02*
X138900000Y-91400000D01*
X138900000Y-91400000D02*
X139500000Y-91400000D01*
X139500000Y-91400000D02*
X139500000Y-91200000D01*
X137600000Y-91200000D02*
X137600000Y-91400000D01*
X137600000Y-91400000D02*
X138200000Y-91400000D01*
X138200000Y-91400000D02*
X138200000Y-91200000D01*
X137000000Y-83400000D02*
X142600000Y-83400000D01*
X142600000Y-83400000D02*
X142600000Y-91200000D01*
X142600000Y-91200000D02*
X137000000Y-91200000D01*
X137000000Y-91200000D02*
X137000000Y-83400000D01*
X127800000Y-83400000D02*
X127800000Y-83200000D01*
X127800000Y-83200000D02*
X131800000Y-83200000D01*
X131800000Y-83200000D02*
X131800000Y-83400000D01*
X131400000Y-91200000D02*
X131400000Y-91400000D01*
X131400000Y-91400000D02*
X132000000Y-91400000D01*
X132000000Y-91400000D02*
X132000000Y-91200000D01*
X130100000Y-91200000D02*
X130100000Y-91400000D01*
X130100000Y-91400000D02*
X130700000Y-91400000D01*
X130700000Y-91400000D02*
X130700000Y-91200000D01*
X128900000Y-91200000D02*
X128900000Y-91400000D01*
X128900000Y-91400000D02*
X129500000Y-91400000D01*
X129500000Y-91400000D02*
X129500000Y-91200000D01*
X127600000Y-91200000D02*
X127600000Y-91400000D01*
X127600000Y-91400000D02*
X128200000Y-91400000D01*
X128200000Y-91400000D02*
X128200000Y-91200000D01*
X127000000Y-83400000D02*
X132600000Y-83400000D01*
X132600000Y-83400000D02*
X132600000Y-91200000D01*
X132600000Y-91200000D02*
X127000000Y-91200000D01*
X127000000Y-91200000D02*
X127000000Y-83400000D01*
D13*
X124800000Y-72850000D02*
X164800000Y-72850000D01*
X124800000Y-81150000D02*
X164800000Y-81150000D01*
X164800000Y-81150000D02*
X164800000Y-72850000D01*
X124800000Y-81150000D02*
X124800000Y-72850000D01*
D12*
X119103010Y-95412305D02*
G75*
G03X118400000Y-95900000I996990J-2187695D01*
G01*
X119103010Y-99787695D02*
G75*
G02X118400000Y-99300000I996990J2187695D01*
G01*
X118400000Y-95900000D02*
X118400000Y-99300000D01*
X121095264Y-95416093D02*
G75*
G02X122500000Y-97600000I-995264J-2183907D01*
G01*
X121095264Y-99783907D02*
G75*
G03X122500000Y-97600000I-995264J2183907D01*
G01*
X115300000Y-99525000D02*
X116300000Y-99525000D01*
X116300000Y-100875000D02*
X115300000Y-100875000D01*
X115300000Y-94325000D02*
X116300000Y-94325000D01*
X116300000Y-95675000D02*
X115300000Y-95675000D01*
D13*
X163200000Y-88000000D02*
X163200000Y-87800000D01*
X164600000Y-88000000D02*
X164600000Y-87800000D01*
X164600000Y-88000000D02*
X163200000Y-88000000D01*
X163200000Y-86500000D02*
X163200000Y-87900000D01*
X163200000Y-87900000D02*
X164600000Y-87900000D01*
X164600000Y-87900000D02*
X164600000Y-86500000D01*
X153200000Y-88000000D02*
X153200000Y-87800000D01*
X154600000Y-88000000D02*
X154600000Y-87800000D01*
X154600000Y-88000000D02*
X153200000Y-88000000D01*
X153200000Y-86500000D02*
X153200000Y-87900000D01*
X153200000Y-87900000D02*
X154600000Y-87900000D01*
X154600000Y-87900000D02*
X154600000Y-86500000D01*
X143200000Y-88000000D02*
X143200000Y-87800000D01*
X144600000Y-88000000D02*
X144600000Y-87800000D01*
X144600000Y-88000000D02*
X143200000Y-88000000D01*
X143200000Y-86500000D02*
X143200000Y-87900000D01*
X143200000Y-87900000D02*
X144600000Y-87900000D01*
X144600000Y-87900000D02*
X144600000Y-86500000D01*
X133200000Y-88000000D02*
X133200000Y-87800000D01*
X134600000Y-88000000D02*
X134600000Y-87800000D01*
X134600000Y-88000000D02*
X133200000Y-88000000D01*
X133200000Y-86500000D02*
X133200000Y-87900000D01*
X133200000Y-87900000D02*
X134600000Y-87900000D01*
X134600000Y-87900000D02*
X134600000Y-86500000D01*
D12*
X114475000Y-71600000D02*
X114475000Y-72600000D01*
X113125000Y-72600000D02*
X113125000Y-71600000D01*
X117075000Y-71600000D02*
X117075000Y-72600000D01*
X115725000Y-72600000D02*
X115725000Y-71600000D01*
X119575000Y-71600000D02*
X119575000Y-72600000D01*
X118225000Y-72600000D02*
X118225000Y-71600000D01*
X122175000Y-71600000D02*
X122175000Y-72600000D01*
X120825000Y-72600000D02*
X120825000Y-71600000D01*
X124525000Y-91600000D02*
X124525000Y-90600000D01*
X125875000Y-90600000D02*
X125875000Y-91600000D01*
X124525000Y-87300000D02*
X124525000Y-86300000D01*
X125875000Y-86300000D02*
X125875000Y-87300000D01*
X114025000Y-86300000D02*
X114025000Y-85300000D01*
X115375000Y-85300000D02*
X115375000Y-86300000D01*
X114025000Y-90200000D02*
X114025000Y-89200000D01*
X115375000Y-89200000D02*
X115375000Y-90200000D01*
X164925000Y-89100000D02*
X164925000Y-88100000D01*
X166275000Y-88100000D02*
X166275000Y-89100000D01*
X154925000Y-89100000D02*
X154925000Y-88100000D01*
X156275000Y-88100000D02*
X156275000Y-89100000D01*
X144925000Y-89100000D02*
X144925000Y-88100000D01*
X146275000Y-88100000D02*
X146275000Y-89100000D01*
X134925000Y-89100000D02*
X134925000Y-88100000D01*
X136275000Y-88100000D02*
X136275000Y-89100000D01*
X103100000Y-96150000D02*
X103100000Y-77250000D01*
X108500000Y-96150000D02*
X108500000Y-77250000D01*
D13*
X164800000Y-101750000D02*
X124800000Y-101750000D01*
X164800000Y-93450000D02*
X124800000Y-93450000D01*
X124800000Y-93450000D02*
X124800000Y-101750000D01*
X164800000Y-93450000D02*
X164800000Y-101750000D01*
X123116228Y-73300000D02*
G75*
G03X123116228Y-73300000I-316228J0D01*
G01*
D12*
X123375000Y-75625000D02*
X123270000Y-75625000D01*
X123375000Y-79775000D02*
X123270000Y-79775000D01*
X113225000Y-79775000D02*
X113330000Y-79775000D01*
X113225000Y-75625000D02*
X113330000Y-75625000D01*
X123375000Y-75625000D02*
X123375000Y-79775000D01*
X113225000Y-75625000D02*
X113225000Y-79775000D01*
X123270000Y-75625000D02*
X123270000Y-74250000D01*
D13*
X124100000Y-91600000D02*
G75*
G03X124100000Y-91600000I-300000J0D01*
G01*
D12*
X121675000Y-92250000D02*
X121675000Y-92135000D01*
X117525000Y-92250000D02*
X117525000Y-92135000D01*
X117525000Y-83350000D02*
X117525000Y-83465000D01*
X121675000Y-83350000D02*
X121675000Y-83465000D01*
X121675000Y-92250000D02*
X117525000Y-92250000D01*
X121675000Y-83350000D02*
X117525000Y-83350000D01*
X121675000Y-92135000D02*
X123050000Y-92135000D01*
X159704762Y-82922619D02*
X159609524Y-82875000D01*
X159514286Y-82779762D01*
X159371429Y-82636905D01*
X159276190Y-82589286D01*
X159180952Y-82589286D01*
X159228571Y-82827381D02*
X159133333Y-82779762D01*
X159038095Y-82684524D01*
X158990476Y-82494048D01*
X158990476Y-82160714D01*
X159038095Y-81970238D01*
X159133333Y-81875000D01*
X159228571Y-81827381D01*
X159419048Y-81827381D01*
X159514286Y-81875000D01*
X159609524Y-81970238D01*
X159657143Y-82160714D01*
X159657143Y-82494048D01*
X159609524Y-82684524D01*
X159514286Y-82779762D01*
X159419048Y-82827381D01*
X159228571Y-82827381D01*
X160609524Y-82827381D02*
X160038095Y-82827381D01*
X160323809Y-82827381D02*
X160323809Y-81827381D01*
X160228571Y-81970238D01*
X160133333Y-82065476D01*
X160038095Y-82113095D01*
X149704762Y-82922619D02*
X149609524Y-82875000D01*
X149514286Y-82779762D01*
X149371429Y-82636905D01*
X149276190Y-82589286D01*
X149180952Y-82589286D01*
X149228571Y-82827381D02*
X149133333Y-82779762D01*
X149038095Y-82684524D01*
X148990476Y-82494048D01*
X148990476Y-82160714D01*
X149038095Y-81970238D01*
X149133333Y-81875000D01*
X149228571Y-81827381D01*
X149419048Y-81827381D01*
X149514286Y-81875000D01*
X149609524Y-81970238D01*
X149657143Y-82160714D01*
X149657143Y-82494048D01*
X149609524Y-82684524D01*
X149514286Y-82779762D01*
X149419048Y-82827381D01*
X149228571Y-82827381D01*
X150038095Y-81922619D02*
X150085714Y-81875000D01*
X150180952Y-81827381D01*
X150419048Y-81827381D01*
X150514286Y-81875000D01*
X150561905Y-81922619D01*
X150609524Y-82017857D01*
X150609524Y-82113095D01*
X150561905Y-82255952D01*
X149990476Y-82827381D01*
X150609524Y-82827381D01*
X139704762Y-82922619D02*
X139609524Y-82875000D01*
X139514286Y-82779762D01*
X139371429Y-82636905D01*
X139276190Y-82589286D01*
X139180952Y-82589286D01*
X139228571Y-82827381D02*
X139133333Y-82779762D01*
X139038095Y-82684524D01*
X138990476Y-82494048D01*
X138990476Y-82160714D01*
X139038095Y-81970238D01*
X139133333Y-81875000D01*
X139228571Y-81827381D01*
X139419048Y-81827381D01*
X139514286Y-81875000D01*
X139609524Y-81970238D01*
X139657143Y-82160714D01*
X139657143Y-82494048D01*
X139609524Y-82684524D01*
X139514286Y-82779762D01*
X139419048Y-82827381D01*
X139228571Y-82827381D01*
X139990476Y-81827381D02*
X140609524Y-81827381D01*
X140276190Y-82208333D01*
X140419048Y-82208333D01*
X140514286Y-82255952D01*
X140561905Y-82303571D01*
X140609524Y-82398810D01*
X140609524Y-82636905D01*
X140561905Y-82732143D01*
X140514286Y-82779762D01*
X140419048Y-82827381D01*
X140133333Y-82827381D01*
X140038095Y-82779762D01*
X139990476Y-82732143D01*
X129704762Y-82922619D02*
X129609524Y-82875000D01*
X129514286Y-82779762D01*
X129371429Y-82636905D01*
X129276190Y-82589286D01*
X129180952Y-82589286D01*
X129228571Y-82827381D02*
X129133333Y-82779762D01*
X129038095Y-82684524D01*
X128990476Y-82494048D01*
X128990476Y-82160714D01*
X129038095Y-81970238D01*
X129133333Y-81875000D01*
X129228571Y-81827381D01*
X129419048Y-81827381D01*
X129514286Y-81875000D01*
X129609524Y-81970238D01*
X129657143Y-82160714D01*
X129657143Y-82494048D01*
X129609524Y-82684524D01*
X129514286Y-82779762D01*
X129419048Y-82827381D01*
X129228571Y-82827381D01*
X130514286Y-82160714D02*
X130514286Y-82827381D01*
X130276190Y-81779762D02*
X130038095Y-82494048D01*
X130657143Y-82494048D01*
X144466667Y-78152381D02*
X144466667Y-78866667D01*
X144419047Y-79009524D01*
X144323809Y-79104762D01*
X144180952Y-79152381D01*
X144085714Y-79152381D01*
X145466667Y-79152381D02*
X144895238Y-79152381D01*
X145180952Y-79152381D02*
X145180952Y-78152381D01*
X145085714Y-78295238D01*
X144990476Y-78390476D01*
X144895238Y-78438095D01*
X116852381Y-98361905D02*
X117661905Y-98361905D01*
X117757143Y-98314286D01*
X117804762Y-98266667D01*
X117852381Y-98171429D01*
X117852381Y-97980952D01*
X117804762Y-97885714D01*
X117757143Y-97838095D01*
X117661905Y-97790476D01*
X116852381Y-97790476D01*
X116947619Y-97361905D02*
X116900000Y-97314286D01*
X116852381Y-97219048D01*
X116852381Y-96980952D01*
X116900000Y-96885714D01*
X116947619Y-96838095D01*
X117042857Y-96790476D01*
X117138095Y-96790476D01*
X117280952Y-96838095D01*
X117852381Y-97409524D01*
X117852381Y-96790476D01*
X113383334Y-100450000D02*
X113350000Y-100483333D01*
X113250000Y-100516667D01*
X113183334Y-100516667D01*
X113083334Y-100483333D01*
X113016667Y-100416667D01*
X112983334Y-100350000D01*
X112950000Y-100216667D01*
X112950000Y-100116667D01*
X112983334Y-99983333D01*
X113016667Y-99916667D01*
X113083334Y-99850000D01*
X113183334Y-99816667D01*
X113250000Y-99816667D01*
X113350000Y-99850000D01*
X113383334Y-99883333D01*
X114050000Y-100516667D02*
X113650000Y-100516667D01*
X113850000Y-100516667D02*
X113850000Y-99816667D01*
X113783334Y-99916667D01*
X113716667Y-99983333D01*
X113650000Y-100016667D01*
X113383334Y-95250000D02*
X113350000Y-95283333D01*
X113250000Y-95316667D01*
X113183334Y-95316667D01*
X113083334Y-95283333D01*
X113016667Y-95216667D01*
X112983334Y-95150000D01*
X112950000Y-95016667D01*
X112950000Y-94916667D01*
X112983334Y-94783333D01*
X113016667Y-94716667D01*
X113083334Y-94650000D01*
X113183334Y-94616667D01*
X113250000Y-94616667D01*
X113350000Y-94650000D01*
X113383334Y-94683333D01*
X113650000Y-94683333D02*
X113683334Y-94650000D01*
X113750000Y-94616667D01*
X113916667Y-94616667D01*
X113983334Y-94650000D01*
X114016667Y-94683333D01*
X114050000Y-94750000D01*
X114050000Y-94816667D01*
X114016667Y-94916667D01*
X113616667Y-95316667D01*
X114050000Y-95316667D01*
X164216667Y-85916666D02*
X163516667Y-85916666D01*
X163516667Y-85750000D01*
X163550000Y-85650000D01*
X163616667Y-85583333D01*
X163683333Y-85550000D01*
X163816667Y-85516666D01*
X163916667Y-85516666D01*
X164050000Y-85550000D01*
X164116667Y-85583333D01*
X164183333Y-85650000D01*
X164216667Y-85750000D01*
X164216667Y-85916666D01*
X164216667Y-84850000D02*
X164216667Y-85250000D01*
X164216667Y-85050000D02*
X163516667Y-85050000D01*
X163616667Y-85116666D01*
X163683333Y-85183333D01*
X163716667Y-85250000D01*
X154216667Y-85916666D02*
X153516667Y-85916666D01*
X153516667Y-85750000D01*
X153550000Y-85650000D01*
X153616667Y-85583333D01*
X153683333Y-85550000D01*
X153816667Y-85516666D01*
X153916667Y-85516666D01*
X154050000Y-85550000D01*
X154116667Y-85583333D01*
X154183333Y-85650000D01*
X154216667Y-85750000D01*
X154216667Y-85916666D01*
X153583333Y-85250000D02*
X153550000Y-85216666D01*
X153516667Y-85150000D01*
X153516667Y-84983333D01*
X153550000Y-84916666D01*
X153583333Y-84883333D01*
X153650000Y-84850000D01*
X153716667Y-84850000D01*
X153816667Y-84883333D01*
X154216667Y-85283333D01*
X154216667Y-84850000D01*
X144116667Y-85916666D02*
X143416667Y-85916666D01*
X143416667Y-85750000D01*
X143450000Y-85650000D01*
X143516667Y-85583333D01*
X143583333Y-85550000D01*
X143716667Y-85516666D01*
X143816667Y-85516666D01*
X143950000Y-85550000D01*
X144016667Y-85583333D01*
X144083333Y-85650000D01*
X144116667Y-85750000D01*
X144116667Y-85916666D01*
X143416667Y-85283333D02*
X143416667Y-84850000D01*
X143683333Y-85083333D01*
X143683333Y-84983333D01*
X143716667Y-84916666D01*
X143750000Y-84883333D01*
X143816667Y-84850000D01*
X143983333Y-84850000D01*
X144050000Y-84883333D01*
X144083333Y-84916666D01*
X144116667Y-84983333D01*
X144116667Y-85183333D01*
X144083333Y-85250000D01*
X144050000Y-85283333D01*
X134216667Y-85916666D02*
X133516667Y-85916666D01*
X133516667Y-85750000D01*
X133550000Y-85650000D01*
X133616667Y-85583333D01*
X133683333Y-85550000D01*
X133816667Y-85516666D01*
X133916667Y-85516666D01*
X134050000Y-85550000D01*
X134116667Y-85583333D01*
X134183333Y-85650000D01*
X134216667Y-85750000D01*
X134216667Y-85916666D01*
X133750000Y-84916666D02*
X134216667Y-84916666D01*
X133483333Y-85083333D02*
X133983333Y-85250000D01*
X133983333Y-84816666D01*
X114216667Y-70216666D02*
X113883333Y-70450000D01*
X114216667Y-70616666D02*
X113516667Y-70616666D01*
X113516667Y-70350000D01*
X113550000Y-70283333D01*
X113583333Y-70250000D01*
X113650000Y-70216666D01*
X113750000Y-70216666D01*
X113816667Y-70250000D01*
X113850000Y-70283333D01*
X113883333Y-70350000D01*
X113883333Y-70616666D01*
X113516667Y-69983333D02*
X113516667Y-69516666D01*
X114216667Y-69816666D01*
X116716667Y-70216666D02*
X116383333Y-70450000D01*
X116716667Y-70616666D02*
X116016667Y-70616666D01*
X116016667Y-70350000D01*
X116050000Y-70283333D01*
X116083333Y-70250000D01*
X116150000Y-70216666D01*
X116250000Y-70216666D01*
X116316667Y-70250000D01*
X116350000Y-70283333D01*
X116383333Y-70350000D01*
X116383333Y-70616666D01*
X116316667Y-69816666D02*
X116283333Y-69883333D01*
X116250000Y-69916666D01*
X116183333Y-69950000D01*
X116150000Y-69950000D01*
X116083333Y-69916666D01*
X116050000Y-69883333D01*
X116016667Y-69816666D01*
X116016667Y-69683333D01*
X116050000Y-69616666D01*
X116083333Y-69583333D01*
X116150000Y-69550000D01*
X116183333Y-69550000D01*
X116250000Y-69583333D01*
X116283333Y-69616666D01*
X116316667Y-69683333D01*
X116316667Y-69816666D01*
X116350000Y-69883333D01*
X116383333Y-69916666D01*
X116450000Y-69950000D01*
X116583333Y-69950000D01*
X116650000Y-69916666D01*
X116683333Y-69883333D01*
X116716667Y-69816666D01*
X116716667Y-69683333D01*
X116683333Y-69616666D01*
X116650000Y-69583333D01*
X116583333Y-69550000D01*
X116450000Y-69550000D01*
X116383333Y-69583333D01*
X116350000Y-69616666D01*
X116316667Y-69683333D01*
X119216667Y-70216666D02*
X118883333Y-70450000D01*
X119216667Y-70616666D02*
X118516667Y-70616666D01*
X118516667Y-70350000D01*
X118550000Y-70283333D01*
X118583333Y-70250000D01*
X118650000Y-70216666D01*
X118750000Y-70216666D01*
X118816667Y-70250000D01*
X118850000Y-70283333D01*
X118883333Y-70350000D01*
X118883333Y-70616666D01*
X119216667Y-69883333D02*
X119216667Y-69750000D01*
X119183333Y-69683333D01*
X119150000Y-69650000D01*
X119050000Y-69583333D01*
X118916667Y-69550000D01*
X118650000Y-69550000D01*
X118583333Y-69583333D01*
X118550000Y-69616666D01*
X118516667Y-69683333D01*
X118516667Y-69816666D01*
X118550000Y-69883333D01*
X118583333Y-69916666D01*
X118650000Y-69950000D01*
X118816667Y-69950000D01*
X118883333Y-69916666D01*
X118916667Y-69883333D01*
X118950000Y-69816666D01*
X118950000Y-69683333D01*
X118916667Y-69616666D01*
X118883333Y-69583333D01*
X118816667Y-69550000D01*
X121816667Y-69950000D02*
X121483333Y-70183334D01*
X121816667Y-70350000D02*
X121116667Y-70350000D01*
X121116667Y-70083334D01*
X121150000Y-70016667D01*
X121183333Y-69983334D01*
X121250000Y-69950000D01*
X121350000Y-69950000D01*
X121416667Y-69983334D01*
X121450000Y-70016667D01*
X121483333Y-70083334D01*
X121483333Y-70350000D01*
X121816667Y-69283334D02*
X121816667Y-69683334D01*
X121816667Y-69483334D02*
X121116667Y-69483334D01*
X121216667Y-69550000D01*
X121283333Y-69616667D01*
X121316667Y-69683334D01*
X121116667Y-68850000D02*
X121116667Y-68783333D01*
X121150000Y-68716667D01*
X121183333Y-68683333D01*
X121250000Y-68650000D01*
X121383333Y-68616667D01*
X121550000Y-68616667D01*
X121683333Y-68650000D01*
X121750000Y-68683333D01*
X121783333Y-68716667D01*
X121816667Y-68783333D01*
X121816667Y-68850000D01*
X121783333Y-68916667D01*
X121750000Y-68950000D01*
X121683333Y-68983333D01*
X121550000Y-69016667D01*
X121383333Y-69016667D01*
X121250000Y-68983333D01*
X121183333Y-68950000D01*
X121150000Y-68916667D01*
X121116667Y-68850000D01*
X126550000Y-92816667D02*
X126316666Y-92483333D01*
X126150000Y-92816667D02*
X126150000Y-92116667D01*
X126416666Y-92116667D01*
X126483333Y-92150000D01*
X126516666Y-92183333D01*
X126550000Y-92250000D01*
X126550000Y-92350000D01*
X126516666Y-92416667D01*
X126483333Y-92450000D01*
X126416666Y-92483333D01*
X126150000Y-92483333D01*
X127216666Y-92816667D02*
X126816666Y-92816667D01*
X127016666Y-92816667D02*
X127016666Y-92116667D01*
X126950000Y-92216667D01*
X126883333Y-92283333D01*
X126816666Y-92316667D01*
X127883333Y-92816667D02*
X127483333Y-92816667D01*
X127683333Y-92816667D02*
X127683333Y-92116667D01*
X127616667Y-92216667D01*
X127550000Y-92283333D01*
X127483333Y-92316667D01*
X124750000Y-85216667D02*
X124516666Y-84883333D01*
X124350000Y-85216667D02*
X124350000Y-84516667D01*
X124616666Y-84516667D01*
X124683333Y-84550000D01*
X124716666Y-84583333D01*
X124750000Y-84650000D01*
X124750000Y-84750000D01*
X124716666Y-84816667D01*
X124683333Y-84850000D01*
X124616666Y-84883333D01*
X124350000Y-84883333D01*
X125416666Y-85216667D02*
X125016666Y-85216667D01*
X125216666Y-85216667D02*
X125216666Y-84516667D01*
X125150000Y-84616667D01*
X125083333Y-84683333D01*
X125016666Y-84716667D01*
X125683333Y-84583333D02*
X125716667Y-84550000D01*
X125783333Y-84516667D01*
X125950000Y-84516667D01*
X126016667Y-84550000D01*
X126050000Y-84583333D01*
X126083333Y-84650000D01*
X126083333Y-84716667D01*
X126050000Y-84816667D01*
X125650000Y-85216667D01*
X126083333Y-85216667D01*
X115016667Y-83950000D02*
X114683333Y-84183334D01*
X115016667Y-84350000D02*
X114316667Y-84350000D01*
X114316667Y-84083334D01*
X114350000Y-84016667D01*
X114383333Y-83983334D01*
X114450000Y-83950000D01*
X114550000Y-83950000D01*
X114616667Y-83983334D01*
X114650000Y-84016667D01*
X114683333Y-84083334D01*
X114683333Y-84350000D01*
X115016667Y-83283334D02*
X115016667Y-83683334D01*
X115016667Y-83483334D02*
X114316667Y-83483334D01*
X114416667Y-83550000D01*
X114483333Y-83616667D01*
X114516667Y-83683334D01*
X114316667Y-83050000D02*
X114316667Y-82616667D01*
X114583333Y-82850000D01*
X114583333Y-82750000D01*
X114616667Y-82683333D01*
X114650000Y-82650000D01*
X114716667Y-82616667D01*
X114883333Y-82616667D01*
X114950000Y-82650000D01*
X114983333Y-82683333D01*
X115016667Y-82750000D01*
X115016667Y-82950000D01*
X114983333Y-83016667D01*
X114950000Y-83050000D01*
X115016667Y-92550000D02*
X114683333Y-92783334D01*
X115016667Y-92950000D02*
X114316667Y-92950000D01*
X114316667Y-92683334D01*
X114350000Y-92616667D01*
X114383333Y-92583334D01*
X114450000Y-92550000D01*
X114550000Y-92550000D01*
X114616667Y-92583334D01*
X114650000Y-92616667D01*
X114683333Y-92683334D01*
X114683333Y-92950000D01*
X115016667Y-91883334D02*
X115016667Y-92283334D01*
X115016667Y-92083334D02*
X114316667Y-92083334D01*
X114416667Y-92150000D01*
X114483333Y-92216667D01*
X114516667Y-92283334D01*
X114550000Y-91283333D02*
X115016667Y-91283333D01*
X114283333Y-91450000D02*
X114783333Y-91616667D01*
X114783333Y-91183333D01*
X165916667Y-86650000D02*
X165583333Y-86883334D01*
X165916667Y-87050000D02*
X165216667Y-87050000D01*
X165216667Y-86783334D01*
X165250000Y-86716667D01*
X165283333Y-86683334D01*
X165350000Y-86650000D01*
X165450000Y-86650000D01*
X165516667Y-86683334D01*
X165550000Y-86716667D01*
X165583333Y-86783334D01*
X165583333Y-87050000D01*
X165916667Y-85983334D02*
X165916667Y-86383334D01*
X165916667Y-86183334D02*
X165216667Y-86183334D01*
X165316667Y-86250000D01*
X165383333Y-86316667D01*
X165416667Y-86383334D01*
X165216667Y-85350000D02*
X165216667Y-85683333D01*
X165550000Y-85716667D01*
X165516667Y-85683333D01*
X165483333Y-85616667D01*
X165483333Y-85450000D01*
X165516667Y-85383333D01*
X165550000Y-85350000D01*
X165616667Y-85316667D01*
X165783333Y-85316667D01*
X165850000Y-85350000D01*
X165883333Y-85383333D01*
X165916667Y-85450000D01*
X165916667Y-85616667D01*
X165883333Y-85683333D01*
X165850000Y-85716667D01*
X155916667Y-86650000D02*
X155583333Y-86883334D01*
X155916667Y-87050000D02*
X155216667Y-87050000D01*
X155216667Y-86783334D01*
X155250000Y-86716667D01*
X155283333Y-86683334D01*
X155350000Y-86650000D01*
X155450000Y-86650000D01*
X155516667Y-86683334D01*
X155550000Y-86716667D01*
X155583333Y-86783334D01*
X155583333Y-87050000D01*
X155916667Y-85983334D02*
X155916667Y-86383334D01*
X155916667Y-86183334D02*
X155216667Y-86183334D01*
X155316667Y-86250000D01*
X155383333Y-86316667D01*
X155416667Y-86383334D01*
X155216667Y-85383333D02*
X155216667Y-85516667D01*
X155250000Y-85583333D01*
X155283333Y-85616667D01*
X155383333Y-85683333D01*
X155516667Y-85716667D01*
X155783333Y-85716667D01*
X155850000Y-85683333D01*
X155883333Y-85650000D01*
X155916667Y-85583333D01*
X155916667Y-85450000D01*
X155883333Y-85383333D01*
X155850000Y-85350000D01*
X155783333Y-85316667D01*
X155616667Y-85316667D01*
X155550000Y-85350000D01*
X155516667Y-85383333D01*
X155483333Y-85450000D01*
X155483333Y-85583333D01*
X155516667Y-85650000D01*
X155550000Y-85683333D01*
X155616667Y-85716667D01*
X145916667Y-86650000D02*
X145583333Y-86883334D01*
X145916667Y-87050000D02*
X145216667Y-87050000D01*
X145216667Y-86783334D01*
X145250000Y-86716667D01*
X145283333Y-86683334D01*
X145350000Y-86650000D01*
X145450000Y-86650000D01*
X145516667Y-86683334D01*
X145550000Y-86716667D01*
X145583333Y-86783334D01*
X145583333Y-87050000D01*
X145916667Y-85983334D02*
X145916667Y-86383334D01*
X145916667Y-86183334D02*
X145216667Y-86183334D01*
X145316667Y-86250000D01*
X145383333Y-86316667D01*
X145416667Y-86383334D01*
X145216667Y-85750000D02*
X145216667Y-85283333D01*
X145916667Y-85583333D01*
X135916667Y-86650000D02*
X135583333Y-86883334D01*
X135916667Y-87050000D02*
X135216667Y-87050000D01*
X135216667Y-86783334D01*
X135250000Y-86716667D01*
X135283333Y-86683334D01*
X135350000Y-86650000D01*
X135450000Y-86650000D01*
X135516667Y-86683334D01*
X135550000Y-86716667D01*
X135583333Y-86783334D01*
X135583333Y-87050000D01*
X135916667Y-85983334D02*
X135916667Y-86383334D01*
X135916667Y-86183334D02*
X135216667Y-86183334D01*
X135316667Y-86250000D01*
X135383333Y-86316667D01*
X135416667Y-86383334D01*
X135516667Y-85583333D02*
X135483333Y-85650000D01*
X135450000Y-85683333D01*
X135383333Y-85716667D01*
X135350000Y-85716667D01*
X135283333Y-85683333D01*
X135250000Y-85650000D01*
X135216667Y-85583333D01*
X135216667Y-85450000D01*
X135250000Y-85383333D01*
X135283333Y-85350000D01*
X135350000Y-85316667D01*
X135383333Y-85316667D01*
X135450000Y-85350000D01*
X135483333Y-85383333D01*
X135516667Y-85450000D01*
X135516667Y-85583333D01*
X135550000Y-85650000D01*
X135583333Y-85683333D01*
X135650000Y-85716667D01*
X135783333Y-85716667D01*
X135850000Y-85683333D01*
X135883333Y-85650000D01*
X135916667Y-85583333D01*
X135916667Y-85450000D01*
X135883333Y-85383333D01*
X135850000Y-85350000D01*
X135783333Y-85316667D01*
X135650000Y-85316667D01*
X135583333Y-85350000D01*
X135550000Y-85383333D01*
X135516667Y-85450000D01*
X109452381Y-95796333D02*
X110166667Y-95796333D01*
X110309524Y-95843953D01*
X110404762Y-95939191D01*
X110452381Y-96082048D01*
X110452381Y-96177286D01*
X109452381Y-95415381D02*
X109452381Y-94796333D01*
X109833333Y-95129667D01*
X109833333Y-94986809D01*
X109880952Y-94891571D01*
X109928571Y-94843952D01*
X110023810Y-94796333D01*
X110261905Y-94796333D01*
X110357143Y-94843952D01*
X110404762Y-94891571D01*
X110452381Y-94986809D01*
X110452381Y-95272524D01*
X110404762Y-95367762D01*
X110357143Y-95415381D01*
X144466667Y-95352381D02*
X144466667Y-96066667D01*
X144419047Y-96209524D01*
X144323809Y-96304762D01*
X144180952Y-96352381D01*
X144085714Y-96352381D01*
X144895238Y-95447619D02*
X144942857Y-95400000D01*
X145038095Y-95352381D01*
X145276191Y-95352381D01*
X145371429Y-95400000D01*
X145419048Y-95447619D01*
X145466667Y-95542857D01*
X145466667Y-95638095D01*
X145419048Y-95780952D01*
X144847619Y-96352381D01*
X145466667Y-96352381D01*
X111238095Y-74452381D02*
X111238095Y-75261905D01*
X111285714Y-75357143D01*
X111333333Y-75404762D01*
X111428571Y-75452381D01*
X111619048Y-75452381D01*
X111714286Y-75404762D01*
X111761905Y-75357143D01*
X111809524Y-75261905D01*
X111809524Y-74452381D01*
X112190476Y-74452381D02*
X112809524Y-74452381D01*
X112476190Y-74833333D01*
X112619048Y-74833333D01*
X112714286Y-74880952D01*
X112761905Y-74928571D01*
X112809524Y-75023810D01*
X112809524Y-75261905D01*
X112761905Y-75357143D01*
X112714286Y-75404762D01*
X112619048Y-75452381D01*
X112333333Y-75452381D01*
X112238095Y-75404762D01*
X112190476Y-75357143D01*
X118838095Y-92627381D02*
X118838095Y-93436905D01*
X118885714Y-93532143D01*
X118933333Y-93579762D01*
X119028571Y-93627381D01*
X119219048Y-93627381D01*
X119314286Y-93579762D01*
X119361905Y-93532143D01*
X119409524Y-93436905D01*
X119409524Y-92627381D01*
X120409524Y-93627381D02*
X119838095Y-93627381D01*
X120123809Y-93627381D02*
X120123809Y-92627381D01*
X120028571Y-92770238D01*
X119933333Y-92865476D01*
X119838095Y-92913095D01*
M02*
