G04 #@! TF.FileFunction,Legend,Bot*
%FSLAX46Y46*%
G04 Gerber Fmt 4.6, Leading zero omitted, Abs format (unit mm)*
G04 Created by KiCad (PCBNEW 4.0.6-e0-6349~53~ubuntu14.04.1) date Tue Apr 25 14:13:02 2017*
%MOMM*%
%LPD*%
G01*
G04 APERTURE LIST*
%ADD10C,0.100000*%
%ADD11C,0.200000*%
%ADD12C,0.010000*%
G04 APERTURE END LIST*
D10*
D11*
X166619048Y-82709524D02*
X166333333Y-82804762D01*
X165857143Y-82804762D01*
X165666667Y-82709524D01*
X165571429Y-82614286D01*
X165476190Y-82423810D01*
X165476190Y-82233333D01*
X165571429Y-82042857D01*
X165666667Y-81947619D01*
X165857143Y-81852381D01*
X166238095Y-81757143D01*
X166428571Y-81661905D01*
X166523810Y-81566667D01*
X166619048Y-81376190D01*
X166619048Y-81185714D01*
X166523810Y-80995238D01*
X166428571Y-80900000D01*
X166238095Y-80804762D01*
X165761905Y-80804762D01*
X165476190Y-80900000D01*
X163857143Y-82709524D02*
X164047619Y-82804762D01*
X164428571Y-82804762D01*
X164619048Y-82709524D01*
X164714286Y-82519048D01*
X164714286Y-81757143D01*
X164619048Y-81566667D01*
X164428571Y-81471429D01*
X164047619Y-81471429D01*
X163857143Y-81566667D01*
X163761905Y-81757143D01*
X163761905Y-81947619D01*
X164714286Y-82138095D01*
X162904762Y-81471429D02*
X162904762Y-83471429D01*
X162904762Y-81566667D02*
X162714285Y-81471429D01*
X162333333Y-81471429D01*
X162142857Y-81566667D01*
X162047619Y-81661905D01*
X161952381Y-81852381D01*
X161952381Y-82423810D01*
X162047619Y-82614286D01*
X162142857Y-82709524D01*
X162333333Y-82804762D01*
X162714285Y-82804762D01*
X162904762Y-82709524D01*
X160238095Y-82804762D02*
X160238095Y-81757143D01*
X160333333Y-81566667D01*
X160523809Y-81471429D01*
X160904761Y-81471429D01*
X161095238Y-81566667D01*
X160238095Y-82709524D02*
X160428571Y-82804762D01*
X160904761Y-82804762D01*
X161095238Y-82709524D01*
X161190476Y-82519048D01*
X161190476Y-82328571D01*
X161095238Y-82138095D01*
X160904761Y-82042857D01*
X160428571Y-82042857D01*
X160238095Y-81947619D01*
X159285714Y-82804762D02*
X159285714Y-81471429D01*
X159285714Y-81852381D02*
X159190475Y-81661905D01*
X159095237Y-81566667D01*
X158904761Y-81471429D01*
X158714285Y-81471429D01*
X157190476Y-82804762D02*
X157190476Y-81757143D01*
X157285714Y-81566667D01*
X157476190Y-81471429D01*
X157857142Y-81471429D01*
X158047619Y-81566667D01*
X157190476Y-82709524D02*
X157380952Y-82804762D01*
X157857142Y-82804762D01*
X158047619Y-82709524D01*
X158142857Y-82519048D01*
X158142857Y-82328571D01*
X158047619Y-82138095D01*
X157857142Y-82042857D01*
X157380952Y-82042857D01*
X157190476Y-81947619D01*
X156523809Y-81471429D02*
X155761904Y-81471429D01*
X156238095Y-80804762D02*
X156238095Y-82519048D01*
X156142856Y-82709524D01*
X155952380Y-82804762D01*
X155761904Y-82804762D01*
X154333333Y-82709524D02*
X154523809Y-82804762D01*
X154904761Y-82804762D01*
X155095238Y-82709524D01*
X155190476Y-82519048D01*
X155190476Y-81757143D01*
X155095238Y-81566667D01*
X154904761Y-81471429D01*
X154523809Y-81471429D01*
X154333333Y-81566667D01*
X154238095Y-81757143D01*
X154238095Y-81947619D01*
X155190476Y-82138095D01*
X151857142Y-82042857D02*
X150333332Y-82042857D01*
X151095237Y-82804762D02*
X151095237Y-81280952D01*
X149666666Y-80804762D02*
X148999999Y-82804762D01*
X148333332Y-80804762D01*
X147666666Y-81757143D02*
X146999999Y-81757143D01*
X146714285Y-82804762D02*
X147666666Y-82804762D01*
X147666666Y-80804762D01*
X146714285Y-80804762D01*
X144428570Y-82709524D02*
X144142855Y-82804762D01*
X143666665Y-82804762D01*
X143476189Y-82709524D01*
X143380951Y-82614286D01*
X143285712Y-82423810D01*
X143285712Y-82233333D01*
X143380951Y-82042857D01*
X143476189Y-81947619D01*
X143666665Y-81852381D01*
X144047617Y-81757143D01*
X144238093Y-81661905D01*
X144333332Y-81566667D01*
X144428570Y-81376190D01*
X144428570Y-81185714D01*
X144333332Y-80995238D01*
X144238093Y-80900000D01*
X144047617Y-80804762D01*
X143571427Y-80804762D01*
X143285712Y-80900000D01*
X141571427Y-81471429D02*
X141571427Y-82804762D01*
X142428570Y-81471429D02*
X142428570Y-82519048D01*
X142333331Y-82709524D01*
X142142855Y-82804762D01*
X141857141Y-82804762D01*
X141666665Y-82709524D01*
X141571427Y-82614286D01*
X140619046Y-81471429D02*
X140619046Y-83471429D01*
X140619046Y-81566667D02*
X140428569Y-81471429D01*
X140047617Y-81471429D01*
X139857141Y-81566667D01*
X139761903Y-81661905D01*
X139666665Y-81852381D01*
X139666665Y-82423810D01*
X139761903Y-82614286D01*
X139857141Y-82709524D01*
X140047617Y-82804762D01*
X140428569Y-82804762D01*
X140619046Y-82709524D01*
X138809522Y-81471429D02*
X138809522Y-83471429D01*
X138809522Y-81566667D02*
X138619045Y-81471429D01*
X138238093Y-81471429D01*
X138047617Y-81566667D01*
X137952379Y-81661905D01*
X137857141Y-81852381D01*
X137857141Y-82423810D01*
X137952379Y-82614286D01*
X138047617Y-82709524D01*
X138238093Y-82804762D01*
X138619045Y-82804762D01*
X138809522Y-82709524D01*
X136714283Y-82804762D02*
X136904759Y-82709524D01*
X136999998Y-82519048D01*
X136999998Y-80804762D01*
X135952379Y-82804762D02*
X135952379Y-81471429D01*
X135952379Y-80804762D02*
X136047617Y-80900000D01*
X135952379Y-80995238D01*
X135857140Y-80900000D01*
X135952379Y-80804762D01*
X135952379Y-80995238D01*
X134238093Y-82709524D02*
X134428569Y-82804762D01*
X134809521Y-82804762D01*
X134999998Y-82709524D01*
X135095236Y-82519048D01*
X135095236Y-81757143D01*
X134999998Y-81566667D01*
X134809521Y-81471429D01*
X134428569Y-81471429D01*
X134238093Y-81566667D01*
X134142855Y-81757143D01*
X134142855Y-81947619D01*
X135095236Y-82138095D01*
X133380950Y-82709524D02*
X133190473Y-82804762D01*
X132809521Y-82804762D01*
X132619045Y-82709524D01*
X132523807Y-82519048D01*
X132523807Y-82423810D01*
X132619045Y-82233333D01*
X132809521Y-82138095D01*
X133095235Y-82138095D01*
X133285712Y-82042857D01*
X133380950Y-81852381D01*
X133380950Y-81757143D01*
X133285712Y-81566667D01*
X133095235Y-81471429D01*
X132809521Y-81471429D01*
X132619045Y-81566667D01*
X129571425Y-83566667D02*
X129666663Y-83471429D01*
X129857139Y-83185714D01*
X129952377Y-82995238D01*
X130047615Y-82709524D01*
X130142854Y-82233333D01*
X130142854Y-81852381D01*
X130047615Y-81376190D01*
X129952377Y-81090476D01*
X129857139Y-80900000D01*
X129666663Y-80614286D01*
X129571425Y-80519048D01*
X128714282Y-82804762D02*
X128333330Y-82804762D01*
X128142854Y-82709524D01*
X128047616Y-82614286D01*
X127857140Y-82328571D01*
X127761901Y-81947619D01*
X127761901Y-81185714D01*
X127857140Y-80995238D01*
X127952378Y-80900000D01*
X128142854Y-80804762D01*
X128523806Y-80804762D01*
X128714282Y-80900000D01*
X128809521Y-80995238D01*
X128904759Y-81185714D01*
X128904759Y-81661905D01*
X128809521Y-81852381D01*
X128714282Y-81947619D01*
X128523806Y-82042857D01*
X128142854Y-82042857D01*
X127952378Y-81947619D01*
X127857140Y-81852381D01*
X127761901Y-81661905D01*
X125666663Y-81471429D02*
X124904758Y-81471429D01*
X125380949Y-80804762D02*
X125380949Y-82519048D01*
X125285710Y-82709524D01*
X125095234Y-82804762D01*
X124904758Y-82804762D01*
X123952377Y-82804762D02*
X124142853Y-82709524D01*
X124238092Y-82614286D01*
X124333330Y-82423810D01*
X124333330Y-81852381D01*
X124238092Y-81661905D01*
X124142853Y-81566667D01*
X123952377Y-81471429D01*
X123666663Y-81471429D01*
X123476187Y-81566667D01*
X123380949Y-81661905D01*
X123285711Y-81852381D01*
X123285711Y-82423810D01*
X123380949Y-82614286D01*
X123476187Y-82709524D01*
X123666663Y-82804762D01*
X123952377Y-82804762D01*
X120999996Y-80995238D02*
X120904758Y-80900000D01*
X120714281Y-80804762D01*
X120238091Y-80804762D01*
X120047615Y-80900000D01*
X119952377Y-80995238D01*
X119857138Y-81185714D01*
X119857138Y-81376190D01*
X119952377Y-81661905D01*
X121095234Y-82804762D01*
X119857138Y-82804762D01*
X118142853Y-81471429D02*
X118142853Y-82804762D01*
X118619043Y-80709524D02*
X119095234Y-82138095D01*
X117857138Y-82138095D01*
X117380948Y-80804762D02*
X116714281Y-82804762D01*
X116047614Y-80804762D01*
X115571424Y-83566667D02*
X115476186Y-83471429D01*
X115285709Y-83185714D01*
X115190471Y-82995238D01*
X115095233Y-82709524D01*
X114999995Y-82233333D01*
X114999995Y-81852381D01*
X115095233Y-81376190D01*
X115190471Y-81090476D01*
X115285709Y-80900000D01*
X115476186Y-80614286D01*
X115571424Y-80519048D01*
X149528571Y-87442857D02*
X149928571Y-86871429D01*
X150214286Y-87442857D02*
X150214286Y-86242857D01*
X149757143Y-86242857D01*
X149642857Y-86300000D01*
X149585714Y-86357143D01*
X149528571Y-86471429D01*
X149528571Y-86642857D01*
X149585714Y-86757143D01*
X149642857Y-86814286D01*
X149757143Y-86871429D01*
X150214286Y-86871429D01*
X148385714Y-87442857D02*
X149071429Y-87442857D01*
X148728571Y-87442857D02*
X148728571Y-86242857D01*
X148842857Y-86414286D01*
X148957143Y-86528571D01*
X149071429Y-86585714D01*
X147642857Y-86242857D02*
X147528572Y-86242857D01*
X147414286Y-86300000D01*
X147357143Y-86357143D01*
X147300000Y-86471429D01*
X147242857Y-86700000D01*
X147242857Y-86985714D01*
X147300000Y-87214286D01*
X147357143Y-87328571D01*
X147414286Y-87385714D01*
X147528572Y-87442857D01*
X147642857Y-87442857D01*
X147757143Y-87385714D01*
X147814286Y-87328571D01*
X147871429Y-87214286D01*
X147928572Y-86985714D01*
X147928572Y-86700000D01*
X147871429Y-86471429D01*
X147814286Y-86357143D01*
X147757143Y-86300000D01*
X147642857Y-86242857D01*
X146500000Y-86242857D02*
X146385715Y-86242857D01*
X146271429Y-86300000D01*
X146214286Y-86357143D01*
X146157143Y-86471429D01*
X146100000Y-86700000D01*
X146100000Y-86985714D01*
X146157143Y-87214286D01*
X146214286Y-87328571D01*
X146271429Y-87385714D01*
X146385715Y-87442857D01*
X146500000Y-87442857D01*
X146614286Y-87385714D01*
X146671429Y-87328571D01*
X146728572Y-87214286D01*
X146785715Y-86985714D01*
X146785715Y-86700000D01*
X146728572Y-86471429D01*
X146671429Y-86357143D01*
X146614286Y-86300000D01*
X146500000Y-86242857D01*
X145700000Y-86242857D02*
X144900000Y-86242857D01*
X145414286Y-87442857D01*
X143642857Y-86642857D02*
X143357143Y-87442857D01*
X143071429Y-86642857D01*
X141985714Y-87442857D02*
X142671429Y-87442857D01*
X142328571Y-87442857D02*
X142328571Y-86242857D01*
X142442857Y-86414286D01*
X142557143Y-86528571D01*
X142671429Y-86585714D01*
X141471429Y-87328571D02*
X141414286Y-87385714D01*
X141471429Y-87442857D01*
X141528572Y-87385714D01*
X141471429Y-87328571D01*
X141471429Y-87442857D01*
X140957143Y-86357143D02*
X140900000Y-86300000D01*
X140785714Y-86242857D01*
X140500000Y-86242857D01*
X140385714Y-86300000D01*
X140328571Y-86357143D01*
X140271428Y-86471429D01*
X140271428Y-86585714D01*
X140328571Y-86757143D01*
X141014285Y-87442857D01*
X140271428Y-87442857D01*
X149414286Y-89557143D02*
X149528571Y-89500000D01*
X149642857Y-89385714D01*
X149814286Y-89214286D01*
X149928571Y-89157143D01*
X150042857Y-89157143D01*
X149985714Y-89442857D02*
X150100000Y-89385714D01*
X150214286Y-89271429D01*
X150271429Y-89042857D01*
X150271429Y-88642857D01*
X150214286Y-88414286D01*
X150100000Y-88300000D01*
X149985714Y-88242857D01*
X149757143Y-88242857D01*
X149642857Y-88300000D01*
X149528571Y-88414286D01*
X149471429Y-88642857D01*
X149471429Y-89042857D01*
X149528571Y-89271429D01*
X149642857Y-89385714D01*
X149757143Y-89442857D01*
X149985714Y-89442857D01*
X148442857Y-88642857D02*
X148442857Y-89442857D01*
X148957143Y-88642857D02*
X148957143Y-89271429D01*
X148900000Y-89385714D01*
X148785714Y-89442857D01*
X148614286Y-89442857D01*
X148500000Y-89385714D01*
X148442857Y-89328571D01*
X147357143Y-89442857D02*
X147357143Y-88814286D01*
X147414286Y-88700000D01*
X147528572Y-88642857D01*
X147757143Y-88642857D01*
X147871429Y-88700000D01*
X147357143Y-89385714D02*
X147471429Y-89442857D01*
X147757143Y-89442857D01*
X147871429Y-89385714D01*
X147928572Y-89271429D01*
X147928572Y-89157143D01*
X147871429Y-89042857D01*
X147757143Y-88985714D01*
X147471429Y-88985714D01*
X147357143Y-88928571D01*
X146271429Y-89442857D02*
X146271429Y-88242857D01*
X146271429Y-89385714D02*
X146385715Y-89442857D01*
X146614286Y-89442857D01*
X146728572Y-89385714D01*
X146785715Y-89328571D01*
X146842858Y-89214286D01*
X146842858Y-88871429D01*
X146785715Y-88757143D01*
X146728572Y-88700000D01*
X146614286Y-88642857D01*
X146385715Y-88642857D01*
X146271429Y-88700000D01*
X144842858Y-88357143D02*
X144785715Y-88300000D01*
X144671429Y-88242857D01*
X144385715Y-88242857D01*
X144271429Y-88300000D01*
X144214286Y-88357143D01*
X144157143Y-88471429D01*
X144157143Y-88585714D01*
X144214286Y-88757143D01*
X144900000Y-89442857D01*
X144157143Y-89442857D01*
X143414286Y-88242857D02*
X143300001Y-88242857D01*
X143185715Y-88300000D01*
X143128572Y-88357143D01*
X143071429Y-88471429D01*
X143014286Y-88700000D01*
X143014286Y-88985714D01*
X143071429Y-89214286D01*
X143128572Y-89328571D01*
X143185715Y-89385714D01*
X143300001Y-89442857D01*
X143414286Y-89442857D01*
X143528572Y-89385714D01*
X143585715Y-89328571D01*
X143642858Y-89214286D01*
X143700001Y-88985714D01*
X143700001Y-88700000D01*
X143642858Y-88471429D01*
X143585715Y-88357143D01*
X143528572Y-88300000D01*
X143414286Y-88242857D01*
X142557144Y-89100000D02*
X141985715Y-89100000D01*
X142671429Y-89442857D02*
X142271429Y-88242857D01*
X141871429Y-89442857D01*
X140557144Y-89442857D02*
X140557144Y-88242857D01*
X139871429Y-89442857D01*
X139871429Y-88242857D01*
X138900001Y-88814286D02*
X139300001Y-88814286D01*
X139300001Y-89442857D02*
X139300001Y-88242857D01*
X138728572Y-88242857D01*
X138271430Y-88814286D02*
X137871430Y-88814286D01*
X137700001Y-89442857D02*
X138271430Y-89442857D01*
X138271430Y-88242857D01*
X137700001Y-88242857D01*
X137357144Y-88242857D02*
X136671430Y-88242857D01*
X137014287Y-89442857D02*
X137014287Y-88242857D01*
X135357144Y-89442857D02*
X135357144Y-88242857D01*
X135071429Y-88242857D01*
X134900001Y-88300000D01*
X134785715Y-88414286D01*
X134728572Y-88528571D01*
X134671429Y-88757143D01*
X134671429Y-88928571D01*
X134728572Y-89157143D01*
X134785715Y-89271429D01*
X134900001Y-89385714D01*
X135071429Y-89442857D01*
X135357144Y-89442857D01*
X134157144Y-89442857D02*
X134157144Y-88642857D01*
X134157144Y-88871429D02*
X134100001Y-88757143D01*
X134042858Y-88700000D01*
X133928572Y-88642857D01*
X133814287Y-88642857D01*
X133414287Y-89442857D02*
X133414287Y-88642857D01*
X133414287Y-88242857D02*
X133471430Y-88300000D01*
X133414287Y-88357143D01*
X133357144Y-88300000D01*
X133414287Y-88242857D01*
X133414287Y-88357143D01*
X132957143Y-88642857D02*
X132671429Y-89442857D01*
X132385715Y-88642857D01*
X131471429Y-89385714D02*
X131585715Y-89442857D01*
X131814286Y-89442857D01*
X131928572Y-89385714D01*
X131985715Y-89271429D01*
X131985715Y-88814286D01*
X131928572Y-88700000D01*
X131814286Y-88642857D01*
X131585715Y-88642857D01*
X131471429Y-88700000D01*
X131414286Y-88814286D01*
X131414286Y-88928571D01*
X131985715Y-89042857D01*
X130900001Y-89442857D02*
X130900001Y-88642857D01*
X130900001Y-88871429D02*
X130842858Y-88757143D01*
X130785715Y-88700000D01*
X130671429Y-88642857D01*
X130557144Y-88642857D01*
X130214287Y-89385714D02*
X130100001Y-89442857D01*
X129871429Y-89442857D01*
X129757144Y-89385714D01*
X129700001Y-89271429D01*
X129700001Y-89214286D01*
X129757144Y-89100000D01*
X129871429Y-89042857D01*
X130042858Y-89042857D01*
X130157144Y-88985714D01*
X130214287Y-88871429D01*
X130214287Y-88814286D01*
X130157144Y-88700000D01*
X130042858Y-88642857D01*
X129871429Y-88642857D01*
X129757144Y-88700000D01*
X150214286Y-90642857D02*
X150214286Y-91842857D01*
X150214286Y-90700000D02*
X150100000Y-90642857D01*
X149871429Y-90642857D01*
X149757143Y-90700000D01*
X149700000Y-90757143D01*
X149642857Y-90871429D01*
X149642857Y-91214286D01*
X149700000Y-91328571D01*
X149757143Y-91385714D01*
X149871429Y-91442857D01*
X150100000Y-91442857D01*
X150214286Y-91385714D01*
X148957143Y-91442857D02*
X149071429Y-91385714D01*
X149128572Y-91271429D01*
X149128572Y-90242857D01*
X147985715Y-90642857D02*
X147985715Y-91442857D01*
X148500001Y-90642857D02*
X148500001Y-91271429D01*
X148442858Y-91385714D01*
X148328572Y-91442857D01*
X148157144Y-91442857D01*
X148042858Y-91385714D01*
X147985715Y-91328571D01*
X146900001Y-90642857D02*
X146900001Y-91614286D01*
X146957144Y-91728571D01*
X147014287Y-91785714D01*
X147128572Y-91842857D01*
X147300001Y-91842857D01*
X147414287Y-91785714D01*
X146900001Y-91385714D02*
X147014287Y-91442857D01*
X147242858Y-91442857D01*
X147357144Y-91385714D01*
X147414287Y-91328571D01*
X147471430Y-91214286D01*
X147471430Y-90871429D01*
X147414287Y-90757143D01*
X147357144Y-90700000D01*
X147242858Y-90642857D01*
X147014287Y-90642857D01*
X146900001Y-90700000D01*
X145814287Y-90642857D02*
X145814287Y-91614286D01*
X145871430Y-91728571D01*
X145928573Y-91785714D01*
X146042858Y-91842857D01*
X146214287Y-91842857D01*
X146328573Y-91785714D01*
X145814287Y-91385714D02*
X145928573Y-91442857D01*
X146157144Y-91442857D01*
X146271430Y-91385714D01*
X146328573Y-91328571D01*
X146385716Y-91214286D01*
X146385716Y-90871429D01*
X146328573Y-90757143D01*
X146271430Y-90700000D01*
X146157144Y-90642857D01*
X145928573Y-90642857D01*
X145814287Y-90700000D01*
X145242859Y-91328571D02*
X145185716Y-91385714D01*
X145242859Y-91442857D01*
X145300002Y-91385714D01*
X145242859Y-91328571D01*
X145242859Y-91442857D01*
X144214287Y-91385714D02*
X144328573Y-91442857D01*
X144557144Y-91442857D01*
X144671430Y-91385714D01*
X144728573Y-91271429D01*
X144728573Y-90814286D01*
X144671430Y-90700000D01*
X144557144Y-90642857D01*
X144328573Y-90642857D01*
X144214287Y-90700000D01*
X144157144Y-90814286D01*
X144157144Y-90928571D01*
X144728573Y-91042857D01*
X143185716Y-91385714D02*
X143300002Y-91442857D01*
X143528573Y-91442857D01*
X143642859Y-91385714D01*
X143700002Y-91271429D01*
X143700002Y-90814286D01*
X143642859Y-90700000D01*
X143528573Y-90642857D01*
X143300002Y-90642857D01*
X143185716Y-90700000D01*
X143128573Y-90814286D01*
X143128573Y-90928571D01*
X143700002Y-91042857D01*
X141128573Y-91442857D02*
X141700002Y-91442857D01*
X141700002Y-90242857D01*
X140214287Y-91442857D02*
X140214287Y-90814286D01*
X140271430Y-90700000D01*
X140385716Y-90642857D01*
X140614287Y-90642857D01*
X140728573Y-90700000D01*
X140214287Y-91385714D02*
X140328573Y-91442857D01*
X140614287Y-91442857D01*
X140728573Y-91385714D01*
X140785716Y-91271429D01*
X140785716Y-91157143D01*
X140728573Y-91042857D01*
X140614287Y-90985714D01*
X140328573Y-90985714D01*
X140214287Y-90928571D01*
X139642859Y-91442857D02*
X139642859Y-90242857D01*
X139642859Y-90700000D02*
X139528573Y-90642857D01*
X139300002Y-90642857D01*
X139185716Y-90700000D01*
X139128573Y-90757143D01*
X139071430Y-90871429D01*
X139071430Y-91214286D01*
X139128573Y-91328571D01*
X139185716Y-91385714D01*
X139300002Y-91442857D01*
X139528573Y-91442857D01*
X139642859Y-91385714D01*
X138614288Y-91385714D02*
X138500002Y-91442857D01*
X138271430Y-91442857D01*
X138157145Y-91385714D01*
X138100002Y-91271429D01*
X138100002Y-91214286D01*
X138157145Y-91100000D01*
X138271430Y-91042857D01*
X138442859Y-91042857D01*
X138557145Y-90985714D01*
X138614288Y-90871429D01*
X138614288Y-90814286D01*
X138557145Y-90700000D01*
X138442859Y-90642857D01*
X138271430Y-90642857D01*
X138157145Y-90700000D01*
X136100001Y-91442857D02*
X136671430Y-91442857D01*
X136671430Y-90242857D01*
X135128572Y-91442857D02*
X135700001Y-91442857D01*
X135700001Y-90242857D01*
X134042857Y-91328571D02*
X134100000Y-91385714D01*
X134271429Y-91442857D01*
X134385715Y-91442857D01*
X134557143Y-91385714D01*
X134671429Y-91271429D01*
X134728572Y-91157143D01*
X134785715Y-90928571D01*
X134785715Y-90757143D01*
X134728572Y-90528571D01*
X134671429Y-90414286D01*
X134557143Y-90300000D01*
X134385715Y-90242857D01*
X134271429Y-90242857D01*
X134100000Y-90300000D01*
X134042857Y-90357143D01*
X150214286Y-93442857D02*
X150214286Y-92242857D01*
X149700000Y-93442857D02*
X149700000Y-92814286D01*
X149757143Y-92700000D01*
X149871429Y-92642857D01*
X150042857Y-92642857D01*
X150157143Y-92700000D01*
X150214286Y-92757143D01*
X149300000Y-92642857D02*
X148842857Y-92642857D01*
X149128572Y-92242857D02*
X149128572Y-93271429D01*
X149071429Y-93385714D01*
X148957143Y-93442857D01*
X148842857Y-93442857D01*
X148614286Y-92642857D02*
X148157143Y-92642857D01*
X148442858Y-92242857D02*
X148442858Y-93271429D01*
X148385715Y-93385714D01*
X148271429Y-93442857D01*
X148157143Y-93442857D01*
X147757144Y-92642857D02*
X147757144Y-93842857D01*
X147757144Y-92700000D02*
X147642858Y-92642857D01*
X147414287Y-92642857D01*
X147300001Y-92700000D01*
X147242858Y-92757143D01*
X147185715Y-92871429D01*
X147185715Y-93214286D01*
X147242858Y-93328571D01*
X147300001Y-93385714D01*
X147414287Y-93442857D01*
X147642858Y-93442857D01*
X147757144Y-93385714D01*
X146671430Y-93328571D02*
X146614287Y-93385714D01*
X146671430Y-93442857D01*
X146728573Y-93385714D01*
X146671430Y-93328571D01*
X146671430Y-93442857D01*
X146671430Y-92700000D02*
X146614287Y-92757143D01*
X146671430Y-92814286D01*
X146728573Y-92757143D01*
X146671430Y-92700000D01*
X146671430Y-92814286D01*
X145242858Y-92185714D02*
X146271429Y-93728571D01*
X143985715Y-92185714D02*
X145014286Y-93728571D01*
X143585715Y-92642857D02*
X143585715Y-93842857D01*
X143585715Y-92700000D02*
X143471429Y-92642857D01*
X143242858Y-92642857D01*
X143128572Y-92700000D01*
X143071429Y-92757143D01*
X143014286Y-92871429D01*
X143014286Y-93214286D01*
X143071429Y-93328571D01*
X143128572Y-93385714D01*
X143242858Y-93442857D01*
X143471429Y-93442857D01*
X143585715Y-93385714D01*
X142328572Y-93442857D02*
X142442858Y-93385714D01*
X142500001Y-93271429D01*
X142500001Y-92242857D01*
X141357144Y-92642857D02*
X141357144Y-93442857D01*
X141871430Y-92642857D02*
X141871430Y-93271429D01*
X141814287Y-93385714D01*
X141700001Y-93442857D01*
X141528573Y-93442857D01*
X141414287Y-93385714D01*
X141357144Y-93328571D01*
X140271430Y-92642857D02*
X140271430Y-93614286D01*
X140328573Y-93728571D01*
X140385716Y-93785714D01*
X140500001Y-93842857D01*
X140671430Y-93842857D01*
X140785716Y-93785714D01*
X140271430Y-93385714D02*
X140385716Y-93442857D01*
X140614287Y-93442857D01*
X140728573Y-93385714D01*
X140785716Y-93328571D01*
X140842859Y-93214286D01*
X140842859Y-92871429D01*
X140785716Y-92757143D01*
X140728573Y-92700000D01*
X140614287Y-92642857D01*
X140385716Y-92642857D01*
X140271430Y-92700000D01*
X139185716Y-92642857D02*
X139185716Y-93614286D01*
X139242859Y-93728571D01*
X139300002Y-93785714D01*
X139414287Y-93842857D01*
X139585716Y-93842857D01*
X139700002Y-93785714D01*
X139185716Y-93385714D02*
X139300002Y-93442857D01*
X139528573Y-93442857D01*
X139642859Y-93385714D01*
X139700002Y-93328571D01*
X139757145Y-93214286D01*
X139757145Y-92871429D01*
X139700002Y-92757143D01*
X139642859Y-92700000D01*
X139528573Y-92642857D01*
X139300002Y-92642857D01*
X139185716Y-92700000D01*
X138614288Y-93328571D02*
X138557145Y-93385714D01*
X138614288Y-93442857D01*
X138671431Y-93385714D01*
X138614288Y-93328571D01*
X138614288Y-93442857D01*
X137585716Y-93385714D02*
X137700002Y-93442857D01*
X137928573Y-93442857D01*
X138042859Y-93385714D01*
X138100002Y-93271429D01*
X138100002Y-92814286D01*
X138042859Y-92700000D01*
X137928573Y-92642857D01*
X137700002Y-92642857D01*
X137585716Y-92700000D01*
X137528573Y-92814286D01*
X137528573Y-92928571D01*
X138100002Y-93042857D01*
X136557145Y-93385714D02*
X136671431Y-93442857D01*
X136900002Y-93442857D01*
X137014288Y-93385714D01*
X137071431Y-93271429D01*
X137071431Y-92814286D01*
X137014288Y-92700000D01*
X136900002Y-92642857D01*
X136671431Y-92642857D01*
X136557145Y-92700000D01*
X136500002Y-92814286D01*
X136500002Y-92928571D01*
X137071431Y-93042857D01*
D12*
G36*
X165750000Y-92137958D02*
X165531738Y-91869079D01*
X165313477Y-91600201D01*
X163819747Y-91600200D01*
X162326017Y-91600200D01*
X162274463Y-91687579D01*
X162219976Y-91756742D01*
X162145750Y-91824510D01*
X162119993Y-91843064D01*
X162053212Y-91882165D01*
X161992458Y-91900507D01*
X161915234Y-91903099D01*
X161863897Y-91900090D01*
X161713321Y-91866649D01*
X161589467Y-91793079D01*
X161498054Y-91684352D01*
X161444802Y-91545437D01*
X161442491Y-91533862D01*
X161436950Y-91389711D01*
X161472231Y-91263284D01*
X161540652Y-91157680D01*
X161634534Y-91075998D01*
X161746196Y-91021334D01*
X161867957Y-90996787D01*
X161992137Y-91005456D01*
X162111056Y-91050438D01*
X162217032Y-91134831D01*
X162268105Y-91200833D01*
X162329511Y-91295401D01*
X163711054Y-91295401D01*
X164021179Y-91295186D01*
X164283814Y-91294492D01*
X164502268Y-91293240D01*
X164679850Y-91291354D01*
X164819869Y-91288756D01*
X164925634Y-91285369D01*
X165000452Y-91281117D01*
X165047634Y-91275922D01*
X165070488Y-91269707D01*
X165073310Y-91263651D01*
X165052617Y-91235673D01*
X165004695Y-91173895D01*
X164934125Y-91084123D01*
X164845485Y-90972165D01*
X164743355Y-90843831D01*
X164662760Y-90742951D01*
X164271497Y-90254001D01*
X162642198Y-90254161D01*
X161012900Y-90254322D01*
X160969935Y-90329831D01*
X160889343Y-90423540D01*
X160778047Y-90488970D01*
X160650271Y-90521552D01*
X160520238Y-90516716D01*
X160452229Y-90496165D01*
X160314038Y-90413341D01*
X160213278Y-90296595D01*
X160171844Y-90211958D01*
X160143473Y-90075801D01*
X160158163Y-89944795D01*
X160209296Y-89825803D01*
X160290251Y-89725688D01*
X160394409Y-89651315D01*
X160515150Y-89609547D01*
X160645854Y-89607246D01*
X160732980Y-89630152D01*
X160802005Y-89666982D01*
X160877953Y-89723042D01*
X160948626Y-89787147D01*
X161001824Y-89848110D01*
X161025347Y-89894745D01*
X161025600Y-89898474D01*
X161050891Y-89904132D01*
X161126340Y-89909096D01*
X161251308Y-89913356D01*
X161425158Y-89916903D01*
X161647252Y-89919728D01*
X161916952Y-89921820D01*
X162233620Y-89923170D01*
X162596618Y-89923769D01*
X162709740Y-89923800D01*
X164393881Y-89923801D01*
X165071940Y-90802918D01*
X165750000Y-91682036D01*
X165750000Y-89218099D01*
X165464250Y-88873007D01*
X165178500Y-88527916D01*
X163472319Y-88527358D01*
X161766139Y-88526800D01*
X161738182Y-88611511D01*
X161676591Y-88725995D01*
X161583885Y-88809500D01*
X161469693Y-88861389D01*
X161343641Y-88881028D01*
X161215357Y-88867781D01*
X161094469Y-88821012D01*
X160990602Y-88740087D01*
X160934224Y-88664567D01*
X160880203Y-88528157D01*
X160871933Y-88391849D01*
X160905021Y-88263896D01*
X160975076Y-88152547D01*
X161077706Y-88066057D01*
X161208519Y-88012675D01*
X161287587Y-88000641D01*
X161432737Y-88014114D01*
X161560805Y-88074172D01*
X161666074Y-88177884D01*
X161683905Y-88203633D01*
X161745311Y-88298200D01*
X163530315Y-88298200D01*
X163874904Y-88298249D01*
X164172249Y-88298455D01*
X164425905Y-88298911D01*
X164639428Y-88299707D01*
X164816375Y-88300935D01*
X164960299Y-88302687D01*
X165074758Y-88305052D01*
X165163307Y-88308124D01*
X165229502Y-88311993D01*
X165276898Y-88316750D01*
X165309051Y-88322488D01*
X165329516Y-88329296D01*
X165341850Y-88337267D01*
X165348509Y-88344901D01*
X165379136Y-88382540D01*
X165435518Y-88447148D01*
X165508706Y-88528594D01*
X165565850Y-88590962D01*
X165750000Y-88790322D01*
X165750000Y-86672600D01*
X153050000Y-86672600D01*
X153050000Y-87849444D01*
X153221117Y-88073822D01*
X153392235Y-88298200D01*
X154895008Y-88298200D01*
X156397782Y-88298201D01*
X156449336Y-88210822D01*
X156542686Y-88097720D01*
X156661405Y-88022230D01*
X156795285Y-87987229D01*
X156934118Y-87995595D01*
X157051980Y-88040947D01*
X157171264Y-88131586D01*
X157245703Y-88245502D01*
X157276973Y-88385567D01*
X157278231Y-88428492D01*
X157273207Y-88522272D01*
X157254404Y-88589177D01*
X157214176Y-88652762D01*
X157199338Y-88671566D01*
X157094925Y-88777508D01*
X156984234Y-88838966D01*
X156855417Y-88861951D01*
X156823029Y-88862437D01*
X156677728Y-88841361D01*
X156555462Y-88784464D01*
X156464170Y-88697084D01*
X156412194Y-88586173D01*
X156397292Y-88526800D01*
X155015746Y-88526800D01*
X154756138Y-88527080D01*
X154512429Y-88527885D01*
X154289232Y-88529162D01*
X154091155Y-88530860D01*
X153922812Y-88532924D01*
X153788811Y-88535305D01*
X153693765Y-88537948D01*
X153642283Y-88540801D01*
X153634199Y-88542499D01*
X153648658Y-88566299D01*
X153689440Y-88625498D01*
X153752658Y-88714658D01*
X153834423Y-88828340D01*
X153930845Y-88961105D01*
X154038037Y-89107513D01*
X154042804Y-89113999D01*
X154451408Y-89669800D01*
X157699289Y-89669800D01*
X157727802Y-89607220D01*
X157777810Y-89541077D01*
X157860612Y-89473911D01*
X157959801Y-89417332D01*
X158037330Y-89388200D01*
X158163415Y-89377613D01*
X158285567Y-89410027D01*
X158395967Y-89477790D01*
X158486798Y-89573252D01*
X158550242Y-89688762D01*
X158578483Y-89816668D01*
X158572639Y-89912084D01*
X158524634Y-90045419D01*
X158440466Y-90156656D01*
X158329817Y-90239548D01*
X158202369Y-90287847D01*
X158067804Y-90295304D01*
X158000128Y-90281541D01*
X157912512Y-90242466D01*
X157824811Y-90182935D01*
X157752615Y-90115447D01*
X157711511Y-90052502D01*
X157710403Y-90049236D01*
X157706068Y-90039476D01*
X157697296Y-90031098D01*
X157680450Y-90023998D01*
X157651893Y-90018069D01*
X157607989Y-90013206D01*
X157545102Y-90009304D01*
X157459594Y-90006256D01*
X157347830Y-90003959D01*
X157206173Y-90002305D01*
X157030985Y-90001189D01*
X156818631Y-90000507D01*
X156565475Y-90000152D01*
X156267878Y-90000018D01*
X156013675Y-90000000D01*
X154332574Y-90000000D01*
X153723037Y-89195407D01*
X153588197Y-89017439D01*
X153462156Y-88851126D01*
X153348395Y-88701059D01*
X153250395Y-88571827D01*
X153171637Y-88468020D01*
X153115601Y-88394227D01*
X153085767Y-88355038D01*
X153082557Y-88350857D01*
X153074107Y-88349557D01*
X153067224Y-88372217D01*
X153061765Y-88422717D01*
X153057587Y-88504935D01*
X153054543Y-88622752D01*
X153052492Y-88780047D01*
X153051289Y-88980700D01*
X153050807Y-89206250D01*
X153050000Y-90101600D01*
X153529088Y-90101600D01*
X154070594Y-90735731D01*
X154612100Y-91369861D01*
X158048782Y-91371601D01*
X158100336Y-91284222D01*
X158190663Y-91175645D01*
X158308811Y-91098614D01*
X158440843Y-91061251D01*
X158486730Y-91059032D01*
X158624327Y-91081089D01*
X158744054Y-91145597D01*
X158848489Y-91249951D01*
X158916480Y-91370050D01*
X158940762Y-91498930D01*
X158925323Y-91627887D01*
X158874151Y-91748218D01*
X158791233Y-91851222D01*
X158680557Y-91928195D01*
X158546111Y-91970436D01*
X158516725Y-91973950D01*
X158387355Y-91963708D01*
X158262727Y-91916054D01*
X158159650Y-91838925D01*
X158117300Y-91785329D01*
X158066500Y-91703757D01*
X156284996Y-91702779D01*
X154503493Y-91701800D01*
X153950460Y-91054100D01*
X153397428Y-90406400D01*
X153050000Y-90406400D01*
X153050000Y-93327400D01*
X165750000Y-93327400D01*
X165750000Y-92137958D01*
X165750000Y-92137958D01*
G37*
X165750000Y-92137958D02*
X165531738Y-91869079D01*
X165313477Y-91600201D01*
X163819747Y-91600200D01*
X162326017Y-91600200D01*
X162274463Y-91687579D01*
X162219976Y-91756742D01*
X162145750Y-91824510D01*
X162119993Y-91843064D01*
X162053212Y-91882165D01*
X161992458Y-91900507D01*
X161915234Y-91903099D01*
X161863897Y-91900090D01*
X161713321Y-91866649D01*
X161589467Y-91793079D01*
X161498054Y-91684352D01*
X161444802Y-91545437D01*
X161442491Y-91533862D01*
X161436950Y-91389711D01*
X161472231Y-91263284D01*
X161540652Y-91157680D01*
X161634534Y-91075998D01*
X161746196Y-91021334D01*
X161867957Y-90996787D01*
X161992137Y-91005456D01*
X162111056Y-91050438D01*
X162217032Y-91134831D01*
X162268105Y-91200833D01*
X162329511Y-91295401D01*
X163711054Y-91295401D01*
X164021179Y-91295186D01*
X164283814Y-91294492D01*
X164502268Y-91293240D01*
X164679850Y-91291354D01*
X164819869Y-91288756D01*
X164925634Y-91285369D01*
X165000452Y-91281117D01*
X165047634Y-91275922D01*
X165070488Y-91269707D01*
X165073310Y-91263651D01*
X165052617Y-91235673D01*
X165004695Y-91173895D01*
X164934125Y-91084123D01*
X164845485Y-90972165D01*
X164743355Y-90843831D01*
X164662760Y-90742951D01*
X164271497Y-90254001D01*
X162642198Y-90254161D01*
X161012900Y-90254322D01*
X160969935Y-90329831D01*
X160889343Y-90423540D01*
X160778047Y-90488970D01*
X160650271Y-90521552D01*
X160520238Y-90516716D01*
X160452229Y-90496165D01*
X160314038Y-90413341D01*
X160213278Y-90296595D01*
X160171844Y-90211958D01*
X160143473Y-90075801D01*
X160158163Y-89944795D01*
X160209296Y-89825803D01*
X160290251Y-89725688D01*
X160394409Y-89651315D01*
X160515150Y-89609547D01*
X160645854Y-89607246D01*
X160732980Y-89630152D01*
X160802005Y-89666982D01*
X160877953Y-89723042D01*
X160948626Y-89787147D01*
X161001824Y-89848110D01*
X161025347Y-89894745D01*
X161025600Y-89898474D01*
X161050891Y-89904132D01*
X161126340Y-89909096D01*
X161251308Y-89913356D01*
X161425158Y-89916903D01*
X161647252Y-89919728D01*
X161916952Y-89921820D01*
X162233620Y-89923170D01*
X162596618Y-89923769D01*
X162709740Y-89923800D01*
X164393881Y-89923801D01*
X165071940Y-90802918D01*
X165750000Y-91682036D01*
X165750000Y-89218099D01*
X165464250Y-88873007D01*
X165178500Y-88527916D01*
X163472319Y-88527358D01*
X161766139Y-88526800D01*
X161738182Y-88611511D01*
X161676591Y-88725995D01*
X161583885Y-88809500D01*
X161469693Y-88861389D01*
X161343641Y-88881028D01*
X161215357Y-88867781D01*
X161094469Y-88821012D01*
X160990602Y-88740087D01*
X160934224Y-88664567D01*
X160880203Y-88528157D01*
X160871933Y-88391849D01*
X160905021Y-88263896D01*
X160975076Y-88152547D01*
X161077706Y-88066057D01*
X161208519Y-88012675D01*
X161287587Y-88000641D01*
X161432737Y-88014114D01*
X161560805Y-88074172D01*
X161666074Y-88177884D01*
X161683905Y-88203633D01*
X161745311Y-88298200D01*
X163530315Y-88298200D01*
X163874904Y-88298249D01*
X164172249Y-88298455D01*
X164425905Y-88298911D01*
X164639428Y-88299707D01*
X164816375Y-88300935D01*
X164960299Y-88302687D01*
X165074758Y-88305052D01*
X165163307Y-88308124D01*
X165229502Y-88311993D01*
X165276898Y-88316750D01*
X165309051Y-88322488D01*
X165329516Y-88329296D01*
X165341850Y-88337267D01*
X165348509Y-88344901D01*
X165379136Y-88382540D01*
X165435518Y-88447148D01*
X165508706Y-88528594D01*
X165565850Y-88590962D01*
X165750000Y-88790322D01*
X165750000Y-86672600D01*
X153050000Y-86672600D01*
X153050000Y-87849444D01*
X153221117Y-88073822D01*
X153392235Y-88298200D01*
X154895008Y-88298200D01*
X156397782Y-88298201D01*
X156449336Y-88210822D01*
X156542686Y-88097720D01*
X156661405Y-88022230D01*
X156795285Y-87987229D01*
X156934118Y-87995595D01*
X157051980Y-88040947D01*
X157171264Y-88131586D01*
X157245703Y-88245502D01*
X157276973Y-88385567D01*
X157278231Y-88428492D01*
X157273207Y-88522272D01*
X157254404Y-88589177D01*
X157214176Y-88652762D01*
X157199338Y-88671566D01*
X157094925Y-88777508D01*
X156984234Y-88838966D01*
X156855417Y-88861951D01*
X156823029Y-88862437D01*
X156677728Y-88841361D01*
X156555462Y-88784464D01*
X156464170Y-88697084D01*
X156412194Y-88586173D01*
X156397292Y-88526800D01*
X155015746Y-88526800D01*
X154756138Y-88527080D01*
X154512429Y-88527885D01*
X154289232Y-88529162D01*
X154091155Y-88530860D01*
X153922812Y-88532924D01*
X153788811Y-88535305D01*
X153693765Y-88537948D01*
X153642283Y-88540801D01*
X153634199Y-88542499D01*
X153648658Y-88566299D01*
X153689440Y-88625498D01*
X153752658Y-88714658D01*
X153834423Y-88828340D01*
X153930845Y-88961105D01*
X154038037Y-89107513D01*
X154042804Y-89113999D01*
X154451408Y-89669800D01*
X157699289Y-89669800D01*
X157727802Y-89607220D01*
X157777810Y-89541077D01*
X157860612Y-89473911D01*
X157959801Y-89417332D01*
X158037330Y-89388200D01*
X158163415Y-89377613D01*
X158285567Y-89410027D01*
X158395967Y-89477790D01*
X158486798Y-89573252D01*
X158550242Y-89688762D01*
X158578483Y-89816668D01*
X158572639Y-89912084D01*
X158524634Y-90045419D01*
X158440466Y-90156656D01*
X158329817Y-90239548D01*
X158202369Y-90287847D01*
X158067804Y-90295304D01*
X158000128Y-90281541D01*
X157912512Y-90242466D01*
X157824811Y-90182935D01*
X157752615Y-90115447D01*
X157711511Y-90052502D01*
X157710403Y-90049236D01*
X157706068Y-90039476D01*
X157697296Y-90031098D01*
X157680450Y-90023998D01*
X157651893Y-90018069D01*
X157607989Y-90013206D01*
X157545102Y-90009304D01*
X157459594Y-90006256D01*
X157347830Y-90003959D01*
X157206173Y-90002305D01*
X157030985Y-90001189D01*
X156818631Y-90000507D01*
X156565475Y-90000152D01*
X156267878Y-90000018D01*
X156013675Y-90000000D01*
X154332574Y-90000000D01*
X153723037Y-89195407D01*
X153588197Y-89017439D01*
X153462156Y-88851126D01*
X153348395Y-88701059D01*
X153250395Y-88571827D01*
X153171637Y-88468020D01*
X153115601Y-88394227D01*
X153085767Y-88355038D01*
X153082557Y-88350857D01*
X153074107Y-88349557D01*
X153067224Y-88372217D01*
X153061765Y-88422717D01*
X153057587Y-88504935D01*
X153054543Y-88622752D01*
X153052492Y-88780047D01*
X153051289Y-88980700D01*
X153050807Y-89206250D01*
X153050000Y-90101600D01*
X153529088Y-90101600D01*
X154070594Y-90735731D01*
X154612100Y-91369861D01*
X158048782Y-91371601D01*
X158100336Y-91284222D01*
X158190663Y-91175645D01*
X158308811Y-91098614D01*
X158440843Y-91061251D01*
X158486730Y-91059032D01*
X158624327Y-91081089D01*
X158744054Y-91145597D01*
X158848489Y-91249951D01*
X158916480Y-91370050D01*
X158940762Y-91498930D01*
X158925323Y-91627887D01*
X158874151Y-91748218D01*
X158791233Y-91851222D01*
X158680557Y-91928195D01*
X158546111Y-91970436D01*
X158516725Y-91973950D01*
X158387355Y-91963708D01*
X158262727Y-91916054D01*
X158159650Y-91838925D01*
X158117300Y-91785329D01*
X158066500Y-91703757D01*
X156284996Y-91702779D01*
X154503493Y-91701800D01*
X153950460Y-91054100D01*
X153397428Y-90406400D01*
X153050000Y-90406400D01*
X153050000Y-93327400D01*
X165750000Y-93327400D01*
X165750000Y-92137958D01*
M02*
