M48
;DRILL file {KiCad 4.0.6-e0-6349~53~ubuntu14.04.1} date Sun Apr  2 16:00:01 2017
;FORMAT={-:-/ absolute / inch / decimal}
FMAT,2
INCH,TZ
T1C0.012
T2C0.024
T3C0.031
T4C0.051
%
G90
G05
M72
T1
X4.4843Y-3.1339
X4.5315Y-3.0669
X4.5433Y-3.2392
X4.5827Y-3.1299
X4.6339Y-3.0354
X4.6545Y-3.3091
X4.6614Y-3.4488
X4.7323Y-3.0118
X4.7598Y-3.248
X4.8228Y-3.248
X4.8307Y-2.9882
X4.8701Y-3.5315
X4.8711Y-3.374
X5.1181Y-3.1496
X5.1181Y-3.189
X5.1181Y-3.2283
X5.1181Y-3.2677
X5.1181Y-3.6417
X5.1181Y-3.6811
X5.1181Y-3.7205
X5.1181Y-3.7598
X5.1575Y-3.1496
X5.1575Y-3.189
X5.1575Y-3.2283
X5.1575Y-3.2677
X5.1575Y-3.6417
X5.1575Y-3.6811
X5.1575Y-3.7205
X5.1575Y-3.7598
X5.1969Y-3.1496
X5.1969Y-3.189
X5.1969Y-3.2283
X5.1969Y-3.2677
X5.1969Y-3.6417
X5.1969Y-3.6811
X5.1969Y-3.7205
X5.1969Y-3.7598
X5.2274Y-3.5482
X5.5118Y-3.1496
X5.5118Y-3.189
X5.5118Y-3.2283
X5.5118Y-3.2677
X5.5118Y-3.6417
X5.5118Y-3.6811
X5.5118Y-3.7205
X5.5118Y-3.7598
X5.5512Y-3.1496
X5.5512Y-3.189
X5.5512Y-3.2283
X5.5512Y-3.2677
X5.5512Y-3.6417
X5.5512Y-3.6811
X5.5512Y-3.7205
X5.5512Y-3.7598
X5.5906Y-3.1496
X5.5906Y-3.189
X5.5906Y-3.2283
X5.5906Y-3.2677
X5.5906Y-3.6417
X5.5906Y-3.6811
X5.5906Y-3.7205
X5.5906Y-3.7598
X5.6093Y-3.5069
X5.9055Y-3.1496
X5.9055Y-3.189
X5.9055Y-3.2283
X5.9055Y-3.2677
X5.9055Y-3.6417
X5.9055Y-3.6811
X5.9055Y-3.7205
X5.9055Y-3.7598
X5.9449Y-3.1496
X5.9449Y-3.189
X5.9449Y-3.2283
X5.9449Y-3.2677
X5.9449Y-3.6417
X5.9449Y-3.6811
X5.9449Y-3.7205
X5.9449Y-3.7598
X5.9843Y-3.1496
X5.9843Y-3.189
X5.9843Y-3.2283
X5.9843Y-3.2677
X5.9843Y-3.6417
X5.9843Y-3.6811
X5.9843Y-3.7205
X5.9843Y-3.7598
X6.0039Y-3.5049
X6.2992Y-3.1496
X6.2992Y-3.189
X6.2992Y-3.2283
X6.2992Y-3.2677
X6.2992Y-3.6417
X6.2992Y-3.6811
X6.2992Y-3.7205
X6.2992Y-3.7598
X6.3386Y-3.1496
X6.3386Y-3.189
X6.3386Y-3.2283
X6.3386Y-3.2677
X6.3386Y-3.6417
X6.3386Y-3.6811
X6.3386Y-3.7205
X6.3386Y-3.7598
X6.378Y-3.1496
X6.378Y-3.189
X6.378Y-3.2283
X6.378Y-3.2677
X6.378Y-3.6417
X6.378Y-3.6811
X6.378Y-3.7205
X6.378Y-3.7598
X6.3947Y-3.5069
T2
X4.3057Y-3.1884
X4.3057Y-3.2384
X4.3057Y-3.2884
X4.3057Y-3.3384
X4.3057Y-3.3884
X4.3057Y-3.4384
X4.3057Y-3.4884
X4.3057Y-3.5384
X4.3057Y-3.5884
X4.3057Y-3.6384
X4.3557Y-3.1884
X4.3557Y-3.2384
X4.3557Y-3.2884
X4.3557Y-3.3384
X4.3557Y-3.3884
X4.3557Y-3.4384
X4.3557Y-3.4884
X4.3557Y-3.5384
X4.3557Y-3.5884
X4.3557Y-3.6384
T3
X4.7283Y-3.7425
X4.7283Y-3.8425
X4.7283Y-3.9425
T4
X5.0118Y-3.0315
X5.0118Y-3.8425
X5.2087Y-3.0315
X5.2087Y-3.8425
X5.4055Y-3.0315
X5.4055Y-3.8425
X5.6024Y-3.0315
X5.6024Y-3.8425
X5.7992Y-3.0315
X5.7992Y-3.8425
X5.9961Y-3.0315
X5.9961Y-3.8425
X6.1929Y-3.0315
X6.1929Y-3.8425
X6.3898Y-3.0315
X6.3898Y-3.8425
T0
M30
